<?xml version="1.0" encoding="UTF-8" standalone="no"?><svg xmlns="http://www.w3.org/2000/svg" xmlns:xlink="http://www.w3.org/1999/xlink" contentScriptType="application/ecmascript" contentStyleType="text/css" height="475px" preserveAspectRatio="none" style="width:1133px;height:475px;" version="1.1" viewBox="0 0 1133 475" width="1133px" zoomAndPan="magnify"><defs><filter height="300%" id="f7qy96e" width="300%" x="-1" y="-1"><feGaussianBlur result="blurOut" stdDeviation="2.0"/><feColorMatrix in="blurOut" result="blurOut2" type="matrix" values="0 0 0 0 0 0 0 0 0 0 0 0 0 0 0 0 0 0 .4 0"/><feOffset dx="4.0" dy="4.0" in="blurOut2" result="blurOut3"/><feBlend in="SourceGraphic" in2="blurOut3" mode="normal"/></filter></defs><g><!--class BaseException--><rect fill="#FEFECE" filter="url(#f7qy96e)" height="60.8047" style="stroke: #A80036; stroke-width: 1.5;" width="159" x="6" y="264.5"/><ellipse cx="36.75" cy="280.5" fill="#ADD1B2" rx="11" ry="11" style="stroke: #A80036; stroke-width: 1.0;"/><path d="M39.7188,286.1406 Q39.1406,286.4375 38.5,286.5859 Q37.8594,286.7344 37.1563,286.7344 Q34.6563,286.7344 33.3359,285.0859 Q32.0156,283.4375 32.0156,280.3125 Q32.0156,277.1875 33.3359,275.5313 Q34.6563,273.875 37.1563,273.875 Q37.8594,273.875 38.5078,274.0313 Q39.1563,274.1875 39.7188,274.4844 L39.7188,277.2031 Q39.0938,276.625 38.5,276.3516 Q37.9063,276.0781 37.2813,276.0781 Q35.9375,276.0781 35.25,277.1484 Q34.5625,278.2188 34.5625,280.3125 Q34.5625,282.4063 35.25,283.4766 Q35.9375,284.5469 37.2813,284.5469 Q37.9063,284.5469 38.5,284.2734 Q39.0938,284 39.7188,283.4219 L39.7188,286.1406 Z "/><text fill="#000000" font-family="sans-serif" font-size="12" lengthAdjust="spacingAndGlyphs" textLength="92" x="54.25" y="284.6543">BaseException</text><line style="stroke: #A80036; stroke-width: 1.5;" x1="7" x2="164" y1="296.5" y2="296.5"/><line style="stroke: #A80036; stroke-width: 1.5;" x1="7" x2="164" y1="304.5" y2="304.5"/><ellipse cx="17" cy="316.4023" fill="#84BE84" rx="3" ry="3" style="stroke: #038048; stroke-width: 1.0;"/><text fill="#000000" font-family="sans-serif" font-size="11" lengthAdjust="spacingAndGlyphs" textLength="133" x="26" y="318.7104">void constructor(string)</text><!--class Error--><rect fill="#FEFECE" filter="url(#f7qy96e)" height="48" style="stroke: #A80036; stroke-width: 1.5;" width="63" x="54" y="418"/><ellipse cx="69" cy="434" fill="#ADD1B2" rx="11" ry="11" style="stroke: #A80036; stroke-width: 1.0;"/><path d="M71.9688,439.6406 Q71.3906,439.9375 70.75,440.0859 Q70.1094,440.2344 69.4063,440.2344 Q66.9063,440.2344 65.5859,438.5859 Q64.2656,436.9375 64.2656,433.8125 Q64.2656,430.6875 65.5859,429.0313 Q66.9063,427.375 69.4063,427.375 Q70.1094,427.375 70.7578,427.5313 Q71.4063,427.6875 71.9688,427.9844 L71.9688,430.7031 Q71.3438,430.125 70.75,429.8516 Q70.1563,429.5781 69.5313,429.5781 Q68.1875,429.5781 67.5,430.6484 Q66.8125,431.7188 66.8125,433.8125 Q66.8125,435.9063 67.5,436.9766 Q68.1875,438.0469 69.5313,438.0469 Q70.1563,438.0469 70.75,437.7734 Q71.3438,437.5 71.9688,436.9219 L71.9688,439.6406 Z "/><text fill="#000000" font-family="sans-serif" font-size="12" lengthAdjust="spacingAndGlyphs" textLength="31" x="83" y="438.1543">Error</text><line style="stroke: #A80036; stroke-width: 1.5;" x1="55" x2="116" y1="450" y2="450"/><line style="stroke: #A80036; stroke-width: 1.5;" x1="55" x2="116" y1="458" y2="458"/><!--class SecurityException--><rect fill="#FEFECE" filter="url(#f7qy96e)" height="60.8047" style="stroke: #A80036; stroke-width: 1.5;" width="159" x="6" y="59.5"/><ellipse cx="28.2" cy="75.5" fill="#ADD1B2" rx="11" ry="11" style="stroke: #A80036; stroke-width: 1.0;"/><path d="M31.1688,81.1406 Q30.5906,81.4375 29.95,81.5859 Q29.3094,81.7344 28.6063,81.7344 Q26.1063,81.7344 24.7859,80.0859 Q23.4656,78.4375 23.4656,75.3125 Q23.4656,72.1875 24.7859,70.5313 Q26.1063,68.875 28.6063,68.875 Q29.3094,68.875 29.9578,69.0313 Q30.6063,69.1875 31.1688,69.4844 L31.1688,72.2031 Q30.5438,71.625 29.95,71.3516 Q29.3563,71.0781 28.7313,71.0781 Q27.3875,71.0781 26.7,72.1484 Q26.0125,73.2188 26.0125,75.3125 Q26.0125,77.4063 26.7,78.4766 Q27.3875,79.5469 28.7313,79.5469 Q29.3563,79.5469 29.95,79.2734 Q30.5438,79 31.1688,78.4219 L31.1688,81.1406 Z "/><text fill="#000000" font-family="sans-serif" font-size="12" lengthAdjust="spacingAndGlyphs" textLength="111" x="43.8" y="79.6543">SecurityException</text><line style="stroke: #A80036; stroke-width: 1.5;" x1="7" x2="164" y1="91.5" y2="91.5"/><line style="stroke: #A80036; stroke-width: 1.5;" x1="7" x2="164" y1="99.5" y2="99.5"/><ellipse cx="17" cy="111.4023" fill="#84BE84" rx="3" ry="3" style="stroke: #038048; stroke-width: 1.0;"/><text fill="#000000" font-family="sans-serif" font-size="11" lengthAdjust="spacingAndGlyphs" textLength="133" x="26" y="113.7104">void constructor(string)</text><!--class Util--><rect fill="#FEFECE" filter="url(#f7qy96e)" height="99.2188" style="stroke: #A80036; stroke-width: 1.5;" width="391" x="200" y="40.5"/><ellipse cx="381.25" cy="56.5" fill="#ADD1B2" rx="11" ry="11" style="stroke: #A80036; stroke-width: 1.0;"/><path d="M384.2188,62.1406 Q383.6406,62.4375 383,62.5859 Q382.3594,62.7344 381.6563,62.7344 Q379.1563,62.7344 377.8359,61.0859 Q376.5156,59.4375 376.5156,56.3125 Q376.5156,53.1875 377.8359,51.5313 Q379.1563,49.875 381.6563,49.875 Q382.3594,49.875 383.0078,50.0313 Q383.6563,50.1875 384.2188,50.4844 L384.2188,53.2031 Q383.5938,52.625 383,52.3516 Q382.4063,52.0781 381.7813,52.0781 Q380.4375,52.0781 379.75,53.1484 Q379.0625,54.2188 379.0625,56.3125 Q379.0625,58.4063 379.75,59.4766 Q380.4375,60.5469 381.7813,60.5469 Q382.4063,60.5469 383,60.2734 Q383.5938,60 384.2188,59.4219 L384.2188,62.1406 Z "/><text fill="#000000" font-family="sans-serif" font-size="12" lengthAdjust="spacingAndGlyphs" textLength="20" x="401.75" y="60.6543">Util</text><line style="stroke: #A80036; stroke-width: 1.5;" x1="201" x2="590" y1="72.5" y2="72.5"/><line style="stroke: #A80036; stroke-width: 1.5;" x1="201" x2="590" y1="80.5" y2="80.5"/><ellipse cx="211" cy="92.4023" fill="#84BE84" rx="3" ry="3" style="stroke: #038048; stroke-width: 1.0;"/><text fill="#000000" font-family="sans-serif" font-size="11" lengthAdjust="spacingAndGlyphs" textLength="203" x="220" y="94.7104">void securityCheck(SecurityContext)</text><ellipse cx="211" cy="105.207" fill="#84BE84" rx="3" ry="3" style="stroke: #038048; stroke-width: 1.0;"/><text fill="#000000" font-family="sans-serif" font-size="11" lengthAdjust="spacingAndGlyphs" textLength="323" x="220" y="107.5151">Promise queryChainCode(SecurityContext,string,string[])</text><ellipse cx="211" cy="118.0117" fill="#84BE84" rx="3" ry="3" style="stroke: #038048; stroke-width: 1.0;"/><text fill="#000000" font-family="sans-serif" font-size="11" lengthAdjust="spacingAndGlyphs" textLength="327" x="220" y="120.3198">Promise invokeChainCode(SecurityContext,string,string[])</text><ellipse cx="211" cy="130.8164" fill="#84BE84" rx="3" ry="3" style="stroke: #038048; stroke-width: 1.0;"/><text fill="#000000" font-family="sans-serif" font-size="11" lengthAdjust="spacingAndGlyphs" textLength="365" x="220" y="133.1245">Promise deployChainCode(SecurityContext,string,string,string[])</text><!--class Registry--><rect fill="#FEFECE" filter="url(#f7qy96e)" height="124.8281" style="stroke: #A80036; stroke-width: 1.5;" width="384" x="683.25" y="232.5"/><ellipse cx="846" cy="248.5" fill="#ADD1B2" rx="11" ry="11" style="stroke: #A80036; stroke-width: 1.0;"/><path d="M848.9688,254.1406 Q848.3906,254.4375 847.75,254.5859 Q847.1094,254.7344 846.4063,254.7344 Q843.9063,254.7344 842.5859,253.0859 Q841.2656,251.4375 841.2656,248.3125 Q841.2656,245.1875 842.5859,243.5313 Q843.9063,241.875 846.4063,241.875 Q847.1094,241.875 847.7578,242.0313 Q848.4063,242.1875 848.9688,242.4844 L848.9688,245.2031 Q848.3438,244.625 847.75,244.3516 Q847.1563,244.0781 846.5313,244.0781 Q845.1875,244.0781 844.5,245.1484 Q843.8125,246.2188 843.8125,248.3125 Q843.8125,250.4063 844.5,251.4766 Q845.1875,252.5469 846.5313,252.5469 Q847.1563,252.5469 847.75,252.2734 Q848.3438,252 848.9688,251.4219 L848.9688,254.1406 Z "/><text fill="#000000" font-family="sans-serif" font-size="12" lengthAdjust="spacingAndGlyphs" textLength="50" x="866.5" y="252.6543">Registry</text><line style="stroke: #A80036; stroke-width: 1.5;" x1="684.25" x2="1066.25" y1="264.5" y2="264.5"/><line style="stroke: #A80036; stroke-width: 1.5;" x1="684.25" x2="1066.25" y1="272.5" y2="272.5"/><ellipse cx="694.25" cy="284.4023" fill="#84BE84" rx="3" ry="3" style="stroke: #038048; stroke-width: 1.0;"/><text fill="#000000" font-family="sans-serif" font-size="11" lengthAdjust="spacingAndGlyphs" textLength="358" x="703.25" y="286.7104">void constructor(ModelManager,Factory,Serializer,string,string)</text><ellipse cx="694.25" cy="297.207" fill="#84BE84" rx="3" ry="3" style="stroke: #038048; stroke-width: 1.0;"/><text fill="#000000" font-family="sans-serif" font-size="11" lengthAdjust="spacingAndGlyphs" textLength="217" x="703.25" y="299.5151">Promise add(SecurityContext,CObject)</text><ellipse cx="694.25" cy="310.0117" fill="#84BE84" rx="3" ry="3" style="stroke: #038048; stroke-width: 1.0;"/><text fill="#000000" font-family="sans-serif" font-size="11" lengthAdjust="spacingAndGlyphs" textLength="235" x="703.25" y="312.3198">Promise update(SecurityContext,CObject)</text><ellipse cx="694.25" cy="322.8164" fill="#84BE84" rx="3" ry="3" style="stroke: #038048; stroke-width: 1.0;"/><text fill="#000000" font-family="sans-serif" font-size="11" lengthAdjust="spacingAndGlyphs" textLength="228" x="703.25" y="325.1245">Promise remove(SecurityContext,string)</text><ellipse cx="694.25" cy="335.6211" fill="#84BE84" rx="3" ry="3" style="stroke: #038048; stroke-width: 1.0;"/><text fill="#000000" font-family="sans-serif" font-size="11" lengthAdjust="spacingAndGlyphs" textLength="179" x="703.25" y="337.9292">Promise getAll(SecurityContext)</text><ellipse cx="694.25" cy="348.4258" fill="#84BE84" rx="3" ry="3" style="stroke: #038048; stroke-width: 1.0;"/><text fill="#000000" font-family="sans-serif" font-size="11" lengthAdjust="spacingAndGlyphs" textLength="203" x="703.25" y="350.7339">Promise get(SecurityContext,string)</text><!--class AssetRegistry--><rect fill="#FEFECE" filter="url(#f7qy96e)" height="163.2422" style="stroke: #A80036; stroke-width: 1.5;" width="498" x="626.75" y="8.5"/><ellipse cx="829" cy="24.5" fill="#ADD1B2" rx="11" ry="11" style="stroke: #A80036; stroke-width: 1.0;"/><path d="M831.9688,30.1406 Q831.3906,30.4375 830.75,30.5859 Q830.1094,30.7344 829.4063,30.7344 Q826.9063,30.7344 825.5859,29.0859 Q824.2656,27.4375 824.2656,24.3125 Q824.2656,21.1875 825.5859,19.5313 Q826.9063,17.875 829.4063,17.875 Q830.1094,17.875 830.7578,18.0313 Q831.4063,18.1875 831.9688,18.4844 L831.9688,21.2031 Q831.3438,20.625 830.75,20.3516 Q830.1563,20.0781 829.5313,20.0781 Q828.1875,20.0781 827.5,21.1484 Q826.8125,22.2188 826.8125,24.3125 Q826.8125,26.4063 827.5,27.4766 Q828.1875,28.5469 829.5313,28.5469 Q830.1563,28.5469 830.75,28.2734 Q831.3438,28 831.9688,27.4219 L831.9688,30.1406 Z "/><text fill="#000000" font-family="sans-serif" font-size="12" lengthAdjust="spacingAndGlyphs" textLength="85" x="849.5" y="28.6543">AssetRegistry</text><line style="stroke: #A80036; stroke-width: 1.5;" x1="627.75" x2="1123.75" y1="40.5" y2="40.5"/><line style="stroke: #A80036; stroke-width: 1.5;" x1="627.75" x2="1123.75" y1="48.5" y2="48.5"/><ellipse cx="637.75" cy="60.4023" fill="#84BE84" rx="3" ry="3" style="stroke: #038048; stroke-width: 1.0;"/><text fill="#000000" font-family="sans-serif" font-size="11" lengthAdjust="spacingAndGlyphs" textLength="358" x="646.75" y="62.7104">void constructor(ModelManager,Factory,Serializer,string,string)</text><ellipse cx="637.75" cy="73.207" fill="#84BE84" rx="3" ry="3" style="stroke: #038048; stroke-width: 1.0;"/><text fill="#000000" font-family="sans-serif" font-size="11" lengthAdjust="spacingAndGlyphs" textLength="456" x="646.75" y="75.5151">Promise getAllAssetRegistries(SecurityContext,ModelManager,Factory,Serializer)</text><ellipse cx="637.75" cy="86.0117" fill="#84BE84" rx="3" ry="3" style="stroke: #038048; stroke-width: 1.0;"/><text fill="#000000" font-family="sans-serif" font-size="11" lengthAdjust="spacingAndGlyphs" textLength="469" x="646.75" y="88.3198">Promise getAssetRegistry(SecurityContext,ModelManager,Factory,Serializer,string)</text><ellipse cx="637.75" cy="98.8164" fill="#84BE84" rx="3" ry="3" style="stroke: #038048; stroke-width: 1.0;"/><text fill="#000000" font-family="sans-serif" font-size="11" lengthAdjust="spacingAndGlyphs" textLength="472" x="646.75" y="101.1245">Promise addAssetRegistry(SecurityContext,ModelManager,Factory,Serializer,string)</text><ellipse cx="637.75" cy="111.6211" fill="#84BE84" rx="3" ry="3" style="stroke: #038048; stroke-width: 1.0;"/><text fill="#000000" font-family="sans-serif" font-size="11" lengthAdjust="spacingAndGlyphs" textLength="217" x="646.75" y="113.9292">Promise add(SecurityContext,CObject)</text><ellipse cx="637.75" cy="124.4258" fill="#84BE84" rx="3" ry="3" style="stroke: #038048; stroke-width: 1.0;"/><text fill="#000000" font-family="sans-serif" font-size="11" lengthAdjust="spacingAndGlyphs" textLength="235" x="646.75" y="126.7339">Promise update(SecurityContext,CObject)</text><ellipse cx="637.75" cy="137.2305" fill="#84BE84" rx="3" ry="3" style="stroke: #038048; stroke-width: 1.0;"/><text fill="#000000" font-family="sans-serif" font-size="11" lengthAdjust="spacingAndGlyphs" textLength="228" x="646.75" y="139.5386">Promise remove(SecurityContext,string)</text><ellipse cx="637.75" cy="150.0352" fill="#84BE84" rx="3" ry="3" style="stroke: #038048; stroke-width: 1.0;"/><text fill="#000000" font-family="sans-serif" font-size="11" lengthAdjust="spacingAndGlyphs" textLength="179" x="646.75" y="152.3433">Promise getAll(SecurityContext)</text><ellipse cx="637.75" cy="162.8398" fill="#84BE84" rx="3" ry="3" style="stroke: #038048; stroke-width: 1.0;"/><text fill="#000000" font-family="sans-serif" font-size="11" lengthAdjust="spacingAndGlyphs" textLength="203" x="646.75" y="165.1479">Promise get(SecurityContext,string)</text><path d="M85.25,325.693 C85.25,346.394 85.25,374.3484 85.25,397.5484 " fill="none" style="stroke: #A80036; stroke-width: 1.0;"/><polygon fill="none" points="92.2501,397.5572,85.25,417.5572,78.2501,397.5572,92.2501,397.5572" style="stroke: #A80036; stroke-width: 1.0;"/><path d="M85.25,120.518 C85.25,152.917 85.25,205.474 85.25,244.262 " fill="none" style="stroke: #A80036; stroke-width: 1.0;"/><polygon fill="none" points="92.2501,244.446,85.25,264.446,78.2501,244.446,92.2501,244.446" style="stroke: #A80036; stroke-width: 1.0;"/><path d="M875.25,171.523 C875.25,184.816 875.25,198.612 875.25,211.943 " fill="none" style="stroke: #A80036; stroke-width: 1.0;"/><polygon fill="none" points="882.25,212.371,875.25,232.371,868.25,212.371,882.25,212.371" style="stroke: #A80036; stroke-width: 1.0;"/></g></svg>