<?xml version="1.0" encoding="UTF-8" standalone="no"?><svg xmlns="http://www.w3.org/2000/svg" xmlns:xlink="http://www.w3.org/1999/xlink" contentScriptType="application/ecmascript" contentStyleType="text/css" height="461px" preserveAspectRatio="none" style="width:1742px;height:461px;" version="1.1" viewBox="0 0 1742 461" width="1742px" zoomAndPan="magnify"><defs><filter height="300%" id="fa1li39" width="300%" x="-1" y="-1"><feGaussianBlur result="blurOut" stdDeviation="2.0"/><feColorMatrix in="blurOut" result="blurOut2" type="matrix" values="0 0 0 0 0 0 0 0 0 0 0 0 0 0 0 0 0 0 .4 0"/><feOffset dx="4.0" dy="4.0" in="blurOut2" result="blurOut3"/><feBlend in="SourceGraphic" in2="blurOut3" mode="normal"/></filter></defs><g><!--class CBase--><rect fill="#FEFECE" filter="url(#fa1li39)" height="124.8281" style="stroke: #A80036; stroke-width: 1.5;" width="319" x="183" y="218.5"/><ellipse cx="318.75" cy="234.5" fill="#ADD1B2" rx="11" ry="11" style="stroke: #A80036; stroke-width: 1.0;"/><path d="M321.7188,240.1406 Q321.1406,240.4375 320.5,240.5859 Q319.8594,240.7344 319.1563,240.7344 Q316.6563,240.7344 315.3359,239.0859 Q314.0156,237.4375 314.0156,234.3125 Q314.0156,231.1875 315.3359,229.5313 Q316.6563,227.875 319.1563,227.875 Q319.8594,227.875 320.5078,228.0313 Q321.1563,228.1875 321.7188,228.4844 L321.7188,231.2031 Q321.0938,230.625 320.5,230.3516 Q319.9063,230.0781 319.2813,230.0781 Q317.9375,230.0781 317.25,231.1484 Q316.5625,232.2188 316.5625,234.3125 Q316.5625,236.4063 317.25,237.4766 Q317.9375,238.5469 319.2813,238.5469 Q319.9063,238.5469 320.5,238.2734 Q321.0938,238 321.7188,237.4219 L321.7188,240.1406 Z "/><text fill="#000000" font-family="sans-serif" font-size="12" lengthAdjust="spacingAndGlyphs" textLength="39" x="339.25" y="238.6543">CBase</text><line style="stroke: #A80036; stroke-width: 1.5;" x1="184" x2="501" y1="250.5" y2="250.5"/><line style="stroke: #A80036; stroke-width: 1.5;" x1="184" x2="501" y1="258.5" y2="258.5"/><rect fill="#F24D5C" height="6" style="stroke: #C82930; stroke-width: 1.0;" width="6" x="191" y="267.4023"/><text fill="#000000" font-family="sans-serif" font-size="11" lengthAdjust="spacingAndGlyphs" textLength="293" x="203" y="272.7104">void constructor(ModelManager,string,string,string)</text><ellipse cx="194" cy="283.207" fill="#84BE84" rx="3" ry="3" style="stroke: #038048; stroke-width: 1.0;"/><text fill="#000000" font-family="sans-serif" font-size="11" lengthAdjust="spacingAndGlyphs" textLength="113" x="203" y="285.5151">string getIdentifier()</text><ellipse cx="194" cy="296.0117" fill="#84BE84" rx="3" ry="3" style="stroke: #038048; stroke-width: 1.0;"/><text fill="#000000" font-family="sans-serif" font-size="11" lengthAdjust="spacingAndGlyphs" textLength="188" x="203" y="298.3198">string getFullyQualifiedIdentifier()</text><ellipse cx="194" cy="308.8164" fill="#84BE84" rx="3" ry="3" style="stroke: #038048; stroke-width: 1.0;"/><text fill="#000000" font-family="sans-serif" font-size="11" lengthAdjust="spacingAndGlyphs" textLength="90" x="203" y="311.1245">string getType()</text><ellipse cx="194" cy="321.6211" fill="#84BE84" rx="3" ry="3" style="stroke: #038048; stroke-width: 1.0;"/><text fill="#000000" font-family="sans-serif" font-size="11" lengthAdjust="spacingAndGlyphs" textLength="165" x="203" y="323.9292">string getFullyQualifiedType()</text><ellipse cx="194" cy="334.4258" fill="#84BE84" rx="3" ry="3" style="stroke: #038048; stroke-width: 1.0;"/><text fill="#000000" font-family="sans-serif" font-size="11" lengthAdjust="spacingAndGlyphs" textLength="130" x="203" y="336.7339">string getNamespace()</text><!--class CRelationship--><rect fill="#FEFECE" filter="url(#fa1li39)" height="60.8047" style="stroke: #A80036; stroke-width: 1.5;" width="319" x="6" y="52.5"/><ellipse cx="118.75" cy="68.5" fill="#ADD1B2" rx="11" ry="11" style="stroke: #A80036; stroke-width: 1.0;"/><path d="M121.7188,74.1406 Q121.1406,74.4375 120.5,74.5859 Q119.8594,74.7344 119.1563,74.7344 Q116.6563,74.7344 115.3359,73.0859 Q114.0156,71.4375 114.0156,68.3125 Q114.0156,65.1875 115.3359,63.5313 Q116.6563,61.875 119.1563,61.875 Q119.8594,61.875 120.5078,62.0313 Q121.1563,62.1875 121.7188,62.4844 L121.7188,65.2031 Q121.0938,64.625 120.5,64.3516 Q119.9063,64.0781 119.2813,64.0781 Q117.9375,64.0781 117.25,65.1484 Q116.5625,66.2188 116.5625,68.3125 Q116.5625,70.4063 117.25,71.4766 Q117.9375,72.5469 119.2813,72.5469 Q119.9063,72.5469 120.5,72.2734 Q121.0938,72 121.7188,71.4219 L121.7188,74.1406 Z "/><text fill="#000000" font-family="sans-serif" font-size="12" lengthAdjust="spacingAndGlyphs" textLength="85" x="139.25" y="72.6543">CRelationship</text><line style="stroke: #A80036; stroke-width: 1.5;" x1="7" x2="324" y1="84.5" y2="84.5"/><line style="stroke: #A80036; stroke-width: 1.5;" x1="7" x2="324" y1="92.5" y2="92.5"/><rect fill="#F24D5C" height="6" style="stroke: #C82930; stroke-width: 1.0;" width="6" x="14" y="101.4023"/><text fill="#000000" font-family="sans-serif" font-size="11" lengthAdjust="spacingAndGlyphs" textLength="293" x="26" y="106.7104">void constructor(ModelManager,string,string,string)</text><!--class CObject--><rect fill="#FEFECE" filter="url(#fa1li39)" height="150.4375" style="stroke: #A80036; stroke-width: 1.5;" width="319" x="360" y="8"/><ellipse cx="491.25" cy="24" fill="#ADD1B2" rx="11" ry="11" style="stroke: #A80036; stroke-width: 1.0;"/><path d="M494.2188,29.6406 Q493.6406,29.9375 493,30.0859 Q492.3594,30.2344 491.6563,30.2344 Q489.1563,30.2344 487.8359,28.5859 Q486.5156,26.9375 486.5156,23.8125 Q486.5156,20.6875 487.8359,19.0313 Q489.1563,17.375 491.6563,17.375 Q492.3594,17.375 493.0078,17.5313 Q493.6563,17.6875 494.2188,17.9844 L494.2188,20.7031 Q493.5938,20.125 493,19.8516 Q492.4063,19.5781 491.7813,19.5781 Q490.4375,19.5781 489.75,20.6484 Q489.0625,21.7188 489.0625,23.8125 Q489.0625,25.9063 489.75,26.9766 Q490.4375,28.0469 491.7813,28.0469 Q492.4063,28.0469 493,27.7734 Q493.5938,27.5 494.2188,26.9219 L494.2188,29.6406 Z "/><text fill="#000000" font-family="sans-serif" font-size="12" lengthAdjust="spacingAndGlyphs" textLength="48" x="511.75" y="28.1543">CObject</text><line style="stroke: #A80036; stroke-width: 1.5;" x1="361" x2="678" y1="40" y2="40"/><line style="stroke: #A80036; stroke-width: 1.5;" x1="361" x2="678" y1="48" y2="48"/><rect fill="#F24D5C" height="6" style="stroke: #C82930; stroke-width: 1.0;" width="6" x="368" y="56.9023"/><text fill="#000000" font-family="sans-serif" font-size="11" lengthAdjust="spacingAndGlyphs" textLength="293" x="380" y="62.2104">void constructor(ModelManager,string,string,string)</text><ellipse cx="371" cy="72.707" fill="#84BE84" rx="3" ry="3" style="stroke: #038048; stroke-width: 1.0;"/><text fill="#000000" font-family="sans-serif" font-size="11" lengthAdjust="spacingAndGlyphs" textLength="180" x="380" y="75.0151">void setFieldValue(string,string)</text><rect fill="#F24D5C" height="6" style="stroke: #C82930; stroke-width: 1.0;" width="6" x="368" y="82.5117"/><text fill="#000000" font-family="sans-serif" font-size="11" lengthAdjust="spacingAndGlyphs" textLength="146" x="380" y="87.8198">void assignFieldDefaults()</text><rect fill="#F24D5C" height="6" style="stroke: #C82930; stroke-width: 1.0;" width="6" x="368" y="95.3164"/><text fill="#000000" font-family="sans-serif" font-size="11" lengthAdjust="spacingAndGlyphs" textLength="222" x="380" y="100.6245">ClassDeclaration getClassDeclaration()</text><rect fill="#F24D5C" height="6" style="stroke: #C82930; stroke-width: 1.0;" width="6" x="368" y="108.1211"/><text fill="#000000" font-family="sans-serif" font-size="11" lengthAdjust="spacingAndGlyphs" textLength="79" x="380" y="113.4292">void validate()</text><rect fill="#F24D5C" height="6" style="stroke: #C82930; stroke-width: 1.0;" width="6" x="368" y="120.9258"/><text fill="#000000" font-family="sans-serif" font-size="11" lengthAdjust="spacingAndGlyphs" textLength="178" x="380" y="126.2339">void validateField(string,Field,*)</text><rect fill="#F24D5C" height="6" style="stroke: #C82930; stroke-width: 1.0;" width="6" x="368" y="133.7305"/><text fill="#000000" font-family="sans-serif" font-size="11" lengthAdjust="spacingAndGlyphs" textLength="261" x="380" y="139.0386">void reportModelViolation(string,string,*,Field)</text><rect fill="#F24D5C" height="6" style="stroke: #C82930; stroke-width: 1.0;" width="6" x="368" y="146.5352"/><text fill="#000000" font-family="sans-serif" font-size="11" lengthAdjust="spacingAndGlyphs" textLength="252" x="380" y="151.8433">void reportMissingRequiredField(string,Field)</text><!--class BaseException--><rect fill="#FEFECE" filter="url(#fa1li39)" height="60.8047" style="stroke: #A80036; stroke-width: 1.5;" width="159" x="714" y="250.5"/><ellipse cx="744.75" cy="266.5" fill="#ADD1B2" rx="11" ry="11" style="stroke: #A80036; stroke-width: 1.0;"/><path d="M747.7188,272.1406 Q747.1406,272.4375 746.5,272.5859 Q745.8594,272.7344 745.1563,272.7344 Q742.6563,272.7344 741.3359,271.0859 Q740.0156,269.4375 740.0156,266.3125 Q740.0156,263.1875 741.3359,261.5313 Q742.6563,259.875 745.1563,259.875 Q745.8594,259.875 746.5078,260.0313 Q747.1563,260.1875 747.7188,260.4844 L747.7188,263.2031 Q747.0938,262.625 746.5,262.3516 Q745.9063,262.0781 745.2813,262.0781 Q743.9375,262.0781 743.25,263.1484 Q742.5625,264.2188 742.5625,266.3125 Q742.5625,268.4063 743.25,269.4766 Q743.9375,270.5469 745.2813,270.5469 Q745.9063,270.5469 746.5,270.2734 Q747.0938,270 747.7188,269.4219 L747.7188,272.1406 Z "/><text fill="#000000" font-family="sans-serif" font-size="12" lengthAdjust="spacingAndGlyphs" textLength="92" x="762.25" y="270.6543">BaseException</text><line style="stroke: #A80036; stroke-width: 1.5;" x1="715" x2="872" y1="282.5" y2="282.5"/><line style="stroke: #A80036; stroke-width: 1.5;" x1="715" x2="872" y1="290.5" y2="290.5"/><ellipse cx="725" cy="302.4023" fill="#84BE84" rx="3" ry="3" style="stroke: #038048; stroke-width: 1.0;"/><text fill="#000000" font-family="sans-serif" font-size="11" lengthAdjust="spacingAndGlyphs" textLength="133" x="734" y="304.7104">void constructor(string)</text><!--class Error--><rect fill="#FEFECE" filter="url(#fa1li39)" height="48" style="stroke: #A80036; stroke-width: 1.5;" width="63" x="762" y="404"/><ellipse cx="777" cy="420" fill="#ADD1B2" rx="11" ry="11" style="stroke: #A80036; stroke-width: 1.0;"/><path d="M779.9688,425.6406 Q779.3906,425.9375 778.75,426.0859 Q778.1094,426.2344 777.4063,426.2344 Q774.9063,426.2344 773.5859,424.5859 Q772.2656,422.9375 772.2656,419.8125 Q772.2656,416.6875 773.5859,415.0313 Q774.9063,413.375 777.4063,413.375 Q778.1094,413.375 778.7578,413.5313 Q779.4063,413.6875 779.9688,413.9844 L779.9688,416.7031 Q779.3438,416.125 778.75,415.8516 Q778.1563,415.5781 777.5313,415.5781 Q776.1875,415.5781 775.5,416.6484 Q774.8125,417.7188 774.8125,419.8125 Q774.8125,421.9063 775.5,422.9766 Q776.1875,424.0469 777.5313,424.0469 Q778.1563,424.0469 778.75,423.7734 Q779.3438,423.5 779.9688,422.9219 L779.9688,425.6406 Z "/><text fill="#000000" font-family="sans-serif" font-size="12" lengthAdjust="spacingAndGlyphs" textLength="31" x="791" y="424.1543">Error</text><line style="stroke: #A80036; stroke-width: 1.5;" x1="763" x2="824" y1="436" y2="436"/><line style="stroke: #A80036; stroke-width: 1.5;" x1="763" x2="824" y1="444" y2="444"/><!--class SecurityException--><rect fill="#FEFECE" filter="url(#fa1li39)" height="60.8047" style="stroke: #A80036; stroke-width: 1.5;" width="159" x="714" y="52.5"/><ellipse cx="736.2" cy="68.5" fill="#ADD1B2" rx="11" ry="11" style="stroke: #A80036; stroke-width: 1.0;"/><path d="M739.1688,74.1406 Q738.5906,74.4375 737.95,74.5859 Q737.3094,74.7344 736.6063,74.7344 Q734.1063,74.7344 732.7859,73.0859 Q731.4656,71.4375 731.4656,68.3125 Q731.4656,65.1875 732.7859,63.5313 Q734.1063,61.875 736.6063,61.875 Q737.3094,61.875 737.9578,62.0313 Q738.6063,62.1875 739.1688,62.4844 L739.1688,65.2031 Q738.5438,64.625 737.95,64.3516 Q737.3563,64.0781 736.7313,64.0781 Q735.3875,64.0781 734.7,65.1484 Q734.0125,66.2188 734.0125,68.3125 Q734.0125,70.4063 734.7,71.4766 Q735.3875,72.5469 736.7313,72.5469 Q737.3563,72.5469 737.95,72.2734 Q738.5438,72 739.1688,71.4219 L739.1688,74.1406 Z "/><text fill="#000000" font-family="sans-serif" font-size="12" lengthAdjust="spacingAndGlyphs" textLength="111" x="751.8" y="72.6543">SecurityException</text><line style="stroke: #A80036; stroke-width: 1.5;" x1="715" x2="872" y1="84.5" y2="84.5"/><line style="stroke: #A80036; stroke-width: 1.5;" x1="715" x2="872" y1="92.5" y2="92.5"/><ellipse cx="725" cy="104.4023" fill="#84BE84" rx="3" ry="3" style="stroke: #038048; stroke-width: 1.0;"/><text fill="#000000" font-family="sans-serif" font-size="11" lengthAdjust="spacingAndGlyphs" textLength="133" x="734" y="106.7104">void constructor(string)</text><!--class Util--><rect fill="#FEFECE" filter="url(#fa1li39)" height="99.2188" style="stroke: #A80036; stroke-width: 1.5;" width="391" x="908" y="33.5"/><ellipse cx="1089.25" cy="49.5" fill="#ADD1B2" rx="11" ry="11" style="stroke: #A80036; stroke-width: 1.0;"/><path d="M1092.2188,55.1406 Q1091.6406,55.4375 1091,55.5859 Q1090.3594,55.7344 1089.6563,55.7344 Q1087.1563,55.7344 1085.8359,54.0859 Q1084.5156,52.4375 1084.5156,49.3125 Q1084.5156,46.1875 1085.8359,44.5313 Q1087.1563,42.875 1089.6563,42.875 Q1090.3594,42.875 1091.0078,43.0313 Q1091.6563,43.1875 1092.2188,43.4844 L1092.2188,46.2031 Q1091.5938,45.625 1091,45.3516 Q1090.4063,45.0781 1089.7813,45.0781 Q1088.4375,45.0781 1087.75,46.1484 Q1087.0625,47.2188 1087.0625,49.3125 Q1087.0625,51.4063 1087.75,52.4766 Q1088.4375,53.5469 1089.7813,53.5469 Q1090.4063,53.5469 1091,53.2734 Q1091.5938,53 1092.2188,52.4219 L1092.2188,55.1406 Z "/><text fill="#000000" font-family="sans-serif" font-size="12" lengthAdjust="spacingAndGlyphs" textLength="20" x="1109.75" y="53.6543">Util</text><line style="stroke: #A80036; stroke-width: 1.5;" x1="909" x2="1298" y1="65.5" y2="65.5"/><line style="stroke: #A80036; stroke-width: 1.5;" x1="909" x2="1298" y1="73.5" y2="73.5"/><ellipse cx="919" cy="85.4023" fill="#84BE84" rx="3" ry="3" style="stroke: #038048; stroke-width: 1.0;"/><text fill="#000000" font-family="sans-serif" font-size="11" lengthAdjust="spacingAndGlyphs" textLength="203" x="928" y="87.7104">void securityCheck(SecurityContext)</text><ellipse cx="919" cy="98.207" fill="#84BE84" rx="3" ry="3" style="stroke: #038048; stroke-width: 1.0;"/><text fill="#000000" font-family="sans-serif" font-size="11" lengthAdjust="spacingAndGlyphs" textLength="323" x="928" y="100.5151">Promise queryChainCode(SecurityContext,string,string[])</text><ellipse cx="919" cy="111.0117" fill="#84BE84" rx="3" ry="3" style="stroke: #038048; stroke-width: 1.0;"/><text fill="#000000" font-family="sans-serif" font-size="11" lengthAdjust="spacingAndGlyphs" textLength="327" x="928" y="113.3198">Promise invokeChainCode(SecurityContext,string,string[])</text><ellipse cx="919" cy="123.8164" fill="#84BE84" rx="3" ry="3" style="stroke: #038048; stroke-width: 1.0;"/><text fill="#000000" font-family="sans-serif" font-size="11" lengthAdjust="spacingAndGlyphs" textLength="365" x="928" y="126.1245">Promise deployChainCode(SecurityContext,string,string,string[])</text><!--class Factory--><rect fill="#FEFECE" filter="url(#fa1li39)" height="86.4141" style="stroke: #A80036; stroke-width: 1.5;" width="399" x="1334" y="40"/><ellipse cx="1506.25" cy="56" fill="#ADD1B2" rx="11" ry="11" style="stroke: #A80036; stroke-width: 1.0;"/><path d="M1509.2188,61.6406 Q1508.6406,61.9375 1508,62.0859 Q1507.3594,62.2344 1506.6563,62.2344 Q1504.1563,62.2344 1502.8359,60.5859 Q1501.5156,58.9375 1501.5156,55.8125 Q1501.5156,52.6875 1502.8359,51.0313 Q1504.1563,49.375 1506.6563,49.375 Q1507.3594,49.375 1508.0078,49.5313 Q1508.6563,49.6875 1509.2188,49.9844 L1509.2188,52.7031 Q1508.5938,52.125 1508,51.8516 Q1507.4063,51.5781 1506.7813,51.5781 Q1505.4375,51.5781 1504.75,52.6484 Q1504.0625,53.7188 1504.0625,55.8125 Q1504.0625,57.9063 1504.75,58.9766 Q1505.4375,60.0469 1506.7813,60.0469 Q1507.4063,60.0469 1508,59.7734 Q1508.5938,59.5 1509.2188,58.9219 L1509.2188,61.6406 Z "/><text fill="#000000" font-family="sans-serif" font-size="12" lengthAdjust="spacingAndGlyphs" textLength="46" x="1526.75" y="60.1543">Factory</text><line style="stroke: #A80036; stroke-width: 1.5;" x1="1335" x2="1732" y1="72" y2="72"/><line style="stroke: #A80036; stroke-width: 1.5;" x1="1335" x2="1732" y1="80" y2="80"/><ellipse cx="1345" cy="91.9023" fill="#84BE84" rx="3" ry="3" style="stroke: #038048; stroke-width: 1.0;"/><text fill="#000000" font-family="sans-serif" font-size="11" lengthAdjust="spacingAndGlyphs" textLength="182" x="1354" y="94.2104">void constructor(ModelManager)</text><ellipse cx="1345" cy="104.707" fill="#84BE84" rx="3" ry="3" style="stroke: #038048; stroke-width: 1.0;"/><text fill="#000000" font-family="sans-serif" font-size="11" lengthAdjust="spacingAndGlyphs" textLength="327" x="1354" y="107.0151">CObject newInstance(SecurityContext,string,string,string)</text><ellipse cx="1345" cy="117.5117" fill="#84BE84" rx="3" ry="3" style="stroke: #038048; stroke-width: 1.0;"/><text fill="#000000" font-family="sans-serif" font-size="11" lengthAdjust="spacingAndGlyphs" textLength="373" x="1354" y="119.8198">Relationship newRelationship(SecurityContext,string,string,string)</text><path d="M192.132,113.768 C213.575,137.512 244.597,171.865 272.882,203.185 " fill="none" style="stroke: #A80036; stroke-width: 1.0;"/><polygon fill="none" points="278.284,198.723,286.493,218.258,267.893,208.106,278.284,198.723" style="stroke: #A80036; stroke-width: 1.0;"/><path d="M452.334,158.099 C439.037,172.823 425.049,188.313 411.671,203.127 " fill="none" style="stroke: #A80036; stroke-width: 1.0;"/><polygon fill="none" points="416.605,208.108,398.005,218.26,406.215,198.725,416.605,208.108" style="stroke: #A80036; stroke-width: 1.0;"/><path d="M793.25,311.693 C793.25,332.394 793.25,360.3484 793.25,383.5484 " fill="none" style="stroke: #A80036; stroke-width: 1.0;"/><polygon fill="none" points="800.25,383.5572,793.25,403.5572,786.25,383.5572,800.25,383.5572" style="stroke: #A80036; stroke-width: 1.0;"/><path d="M793.25,113.768 C793.25,144.653 793.25,193.487 793.25,230.25 " fill="none" style="stroke: #A80036; stroke-width: 1.0;"/><polygon fill="none" points="800.25,230.273,793.25,250.273,786.25,230.273,800.25,230.273" style="stroke: #A80036; stroke-width: 1.0;"/></g></svg>