<?xml version="1.0" encoding="UTF-8" standalone="no"?><svg xmlns="http://www.w3.org/2000/svg" xmlns:xlink="http://www.w3.org/1999/xlink" contentScriptType="application/ecmascript" contentStyleType="text/css" height="116px" preserveAspectRatio="none" style="width:200px;height:116px;" version="1.1" viewBox="0 0 200 116" width="200px" zoomAndPan="magnify"><defs><filter height="300%" id="fmc3514" width="300%" x="-1" y="-1"><feGaussianBlur result="blurOut" stdDeviation="2.0"/><feColorMatrix in="blurOut" result="blurOut2" type="matrix" values="0 0 0 0 0 0 0 0 0 0 0 0 0 0 0 0 0 0 .4 0"/><feOffset dx="4.0" dy="4.0" in="blurOut2" result="blurOut3"/><feBlend in="SourceGraphic" in2="blurOut3" mode="normal"/></filter></defs><g><!--class ConnectionProfileStore--><rect fill="#FEFECE" filter="url(#fmc3514)" height="99.2188" style="stroke: #A80036; stroke-width: 1.5;" width="185" x="6" y="8.5"/><ellipse cx="25.05" cy="24.5" fill="#ADD1B2" rx="11" ry="11" style="stroke: #A80036; stroke-width: 1.0;"/><path d="M28.0188,30.1406 Q27.4406,30.4375 26.8,30.5859 Q26.1594,30.7344 25.4563,30.7344 Q22.9563,30.7344 21.6359,29.0859 Q20.3156,27.4375 20.3156,24.3125 Q20.3156,21.1875 21.6359,19.5313 Q22.9563,17.875 25.4563,17.875 Q26.1594,17.875 26.8078,18.0313 Q27.4563,18.1875 28.0188,18.4844 L28.0188,21.2031 Q27.3938,20.625 26.8,20.3516 Q26.2063,20.0781 25.5813,20.0781 Q24.2375,20.0781 23.55,21.1484 Q22.8625,22.2188 22.8625,24.3125 Q22.8625,26.4063 23.55,27.4766 Q24.2375,28.5469 25.5813,28.5469 Q26.2063,28.5469 26.8,28.2734 Q27.3938,28 28.0188,27.4219 L28.0188,30.1406 Z "/><text fill="#000000" font-family="sans-serif" font-size="12" lengthAdjust="spacingAndGlyphs" textLength="144" x="39.95" y="28.6543">ConnectionProfileStore</text><line style="stroke: #A80036; stroke-width: 1.5;" x1="7" x2="190" y1="40.5" y2="40.5"/><line style="stroke: #A80036; stroke-width: 1.5;" x1="7" x2="190" y1="48.5" y2="48.5"/><ellipse cx="17" cy="60.4023" fill="#84BE84" rx="3" ry="3" style="stroke: #038048; stroke-width: 1.0;"/><text fill="#000000" font-family="sans-serif" font-size="11" lengthAdjust="spacingAndGlyphs" textLength="116" x="26" y="62.7104">Promise load(string)</text><ellipse cx="17" cy="73.207" fill="#84BE84" rx="3" ry="3" style="stroke: #038048; stroke-width: 1.0;"/><text fill="#000000" font-family="sans-serif" font-size="11" lengthAdjust="spacingAndGlyphs" textLength="159" x="26" y="75.5151">Promise save(string,Object)</text><ellipse cx="17" cy="86.0117" fill="#84BE84" rx="3" ry="3" style="stroke: #038048; stroke-width: 1.0;"/><text fill="#000000" font-family="sans-serif" font-size="11" lengthAdjust="spacingAndGlyphs" textLength="96" x="26" y="88.3198">Promise loadAll()</text><ellipse cx="17" cy="98.8164" fill="#84BE84" rx="3" ry="3" style="stroke: #038048; stroke-width: 1.0;"/><text fill="#000000" font-family="sans-serif" font-size="11" lengthAdjust="spacingAndGlyphs" textLength="127" x="26" y="101.1245">Promise delete(string)</text></g></svg>