<?xml version="1.0" encoding="UTF-8" standalone="no"?><svg xmlns="http://www.w3.org/2000/svg" xmlns:xlink="http://www.w3.org/1999/xlink" contentScriptType="application/ecmascript" contentStyleType="text/css" height="288px" preserveAspectRatio="none" style="width:206px;height:288px;" version="1.1" viewBox="0 0 206 288" width="206px" zoomAndPan="magnify"><defs><filter height="300%" id="fx9s1qi" width="300%" x="-1" y="-1"><feGaussianBlur result="blurOut" stdDeviation="2.0"/><feColorMatrix in="blurOut" result="blurOut2" type="matrix" values="0 0 0 0 0 0 0 0 0 0 0 0 0 0 0 0 0 0 .4 0"/><feOffset dx="4.0" dy="4.0" in="blurOut2" result="blurOut3"/><feBlend in="SourceGraphic" in2="blurOut3" mode="normal"/></filter></defs><g><!--class ConnectionProfileStore--><rect fill="#FEFECE" filter="url(#fx9s1qi)" height="99.2188" style="stroke: #A80036; stroke-width: 1.5;" width="185" x="9" y="180.5"/><ellipse cx="28.05" cy="196.5" fill="#ADD1B2" rx="11" ry="11" style="stroke: #A80036; stroke-width: 1.0;"/><path d="M31.0188,202.1406 Q30.4406,202.4375 29.8,202.5859 Q29.1594,202.7344 28.4563,202.7344 Q25.9563,202.7344 24.6359,201.0859 Q23.3156,199.4375 23.3156,196.3125 Q23.3156,193.1875 24.6359,191.5313 Q25.9563,189.875 28.4563,189.875 Q29.1594,189.875 29.8078,190.0313 Q30.4563,190.1875 31.0188,190.4844 L31.0188,193.2031 Q30.3938,192.625 29.8,192.3516 Q29.2063,192.0781 28.5813,192.0781 Q27.2375,192.0781 26.55,193.1484 Q25.8625,194.2188 25.8625,196.3125 Q25.8625,198.4063 26.55,199.4766 Q27.2375,200.5469 28.5813,200.5469 Q29.2063,200.5469 29.8,200.2734 Q30.3938,200 31.0188,199.4219 L31.0188,202.1406 Z "/><text fill="#000000" font-family="sans-serif" font-size="12" lengthAdjust="spacingAndGlyphs" textLength="144" x="42.95" y="200.6543">ConnectionProfileStore</text><line style="stroke: #A80036; stroke-width: 1.5;" x1="10" x2="193" y1="212.5" y2="212.5"/><line style="stroke: #A80036; stroke-width: 1.5;" x1="10" x2="193" y1="220.5" y2="220.5"/><ellipse cx="20" cy="232.4023" fill="#84BE84" rx="3" ry="3" style="stroke: #038048; stroke-width: 1.0;"/><text fill="#000000" font-family="sans-serif" font-size="11" lengthAdjust="spacingAndGlyphs" textLength="116" x="29" y="234.7104">Promise load(string)</text><ellipse cx="20" cy="245.207" fill="#84BE84" rx="3" ry="3" style="stroke: #038048; stroke-width: 1.0;"/><text fill="#000000" font-family="sans-serif" font-size="11" lengthAdjust="spacingAndGlyphs" textLength="159" x="29" y="247.5151">Promise save(string,Object)</text><ellipse cx="20" cy="258.0117" fill="#84BE84" rx="3" ry="3" style="stroke: #038048; stroke-width: 1.0;"/><text fill="#000000" font-family="sans-serif" font-size="11" lengthAdjust="spacingAndGlyphs" textLength="96" x="29" y="260.3198">Promise loadAll()</text><ellipse cx="20" cy="270.8164" fill="#84BE84" rx="3" ry="3" style="stroke: #038048; stroke-width: 1.0;"/><text fill="#000000" font-family="sans-serif" font-size="11" lengthAdjust="spacingAndGlyphs" textLength="127" x="29" y="273.1245">Promise delete(string)</text><!--class FSConnectionProfileStore--><rect fill="#FEFECE" filter="url(#fx9s1qi)" height="112.0234" style="stroke: #A80036; stroke-width: 1.5;" width="191" x="6" y="8"/><ellipse cx="21" cy="24" fill="#ADD1B2" rx="11" ry="11" style="stroke: #A80036; stroke-width: 1.0;"/><path d="M23.9688,29.6406 Q23.3906,29.9375 22.75,30.0859 Q22.1094,30.2344 21.4063,30.2344 Q18.9063,30.2344 17.5859,28.5859 Q16.2656,26.9375 16.2656,23.8125 Q16.2656,20.6875 17.5859,19.0313 Q18.9063,17.375 21.4063,17.375 Q22.1094,17.375 22.7578,17.5313 Q23.4063,17.6875 23.9688,17.9844 L23.9688,20.7031 Q23.3438,20.125 22.75,19.8516 Q22.1563,19.5781 21.5313,19.5781 Q20.1875,19.5781 19.5,20.6484 Q18.8125,21.7188 18.8125,23.8125 Q18.8125,25.9063 19.5,26.9766 Q20.1875,28.0469 21.5313,28.0469 Q22.1563,28.0469 22.75,27.7734 Q23.3438,27.5 23.9688,26.9219 L23.9688,29.6406 Z "/><text fill="#000000" font-family="sans-serif" font-size="12" lengthAdjust="spacingAndGlyphs" textLength="159" x="35" y="28.1543">FSConnectionProfileStore</text><line style="stroke: #A80036; stroke-width: 1.5;" x1="7" x2="196" y1="40" y2="40"/><line style="stroke: #A80036; stroke-width: 1.5;" x1="7" x2="196" y1="48" y2="48"/><ellipse cx="17" cy="59.9023" fill="#84BE84" rx="3" ry="3" style="stroke: #038048; stroke-width: 1.0;"/><text fill="#000000" font-family="sans-serif" font-size="11" lengthAdjust="spacingAndGlyphs" textLength="111" x="26" y="62.2104">void constructor(fs)</text><ellipse cx="17" cy="72.707" fill="#84BE84" rx="3" ry="3" style="stroke: #038048; stroke-width: 1.0;"/><text fill="#000000" font-family="sans-serif" font-size="11" lengthAdjust="spacingAndGlyphs" textLength="116" x="26" y="75.0151">Promise load(string)</text><ellipse cx="17" cy="85.5117" fill="#84BE84" rx="3" ry="3" style="stroke: #038048; stroke-width: 1.0;"/><text fill="#000000" font-family="sans-serif" font-size="11" lengthAdjust="spacingAndGlyphs" textLength="159" x="26" y="87.8198">Promise save(string,Object)</text><ellipse cx="17" cy="98.3164" fill="#84BE84" rx="3" ry="3" style="stroke: #038048; stroke-width: 1.0;"/><text fill="#000000" font-family="sans-serif" font-size="11" lengthAdjust="spacingAndGlyphs" textLength="96" x="26" y="100.6245">Promise loadAll()</text><ellipse cx="17" cy="111.1211" fill="#84BE84" rx="3" ry="3" style="stroke: #038048; stroke-width: 1.0;"/><text fill="#000000" font-family="sans-serif" font-size="11" lengthAdjust="spacingAndGlyphs" textLength="127" x="26" y="113.4292">Promise delete(string)</text><path d="M101.25,120.066 C101.25,132.89 101.25,146.703 101.25,160.043 " fill="none" style="stroke: #A80036; stroke-width: 1.0;"/><polygon fill="none" points="108.25,160.407,101.25,180.4066,94.2501,160.407,108.25,160.407" style="stroke: #A80036; stroke-width: 1.0;"/></g></svg>