<?xml version="1.0" encoding="UTF-8" standalone="no"?><svg xmlns="http://www.w3.org/2000/svg" xmlns:xlink="http://www.w3.org/1999/xlink" contentScriptType="application/ecmascript" contentStyleType="text/css" height="263px" preserveAspectRatio="none" style="width:334px;height:263px;" version="1.1" viewBox="0 0 334 263" width="334px" zoomAndPan="magnify"><defs><filter height="300%" id="fv4a75g" width="300%" x="-1" y="-1"><feGaussianBlur result="blurOut" stdDeviation="2.0"/><feColorMatrix in="blurOut" result="blurOut2" type="matrix" values="0 0 0 0 0 0 0 0 0 0 0 0 0 0 0 0 0 0 .4 0"/><feOffset dx="4.0" dy="4.0" in="blurOut2" result="blurOut3"/><feBlend in="SourceGraphic" in2="blurOut3" mode="normal"/></filter></defs><g><!--class Identifiable--><rect fill="#FEFECE" filter="url(#fv4a75g)" height="137.6328" style="stroke: #A80036; stroke-width: 1.5;" width="319" x="6" y="8"/><ellipse cx="126.75" cy="24" fill="#ADD1B2" rx="11" ry="11" style="stroke: #A80036; stroke-width: 1.0;"/><path d="M129.7188,29.6406 Q129.1406,29.9375 128.5,30.0859 Q127.8594,30.2344 127.1563,30.2344 Q124.6563,30.2344 123.3359,28.5859 Q122.0156,26.9375 122.0156,23.8125 Q122.0156,20.6875 123.3359,19.0313 Q124.6563,17.375 127.1563,17.375 Q127.8594,17.375 128.5078,17.5313 Q129.1563,17.6875 129.7188,17.9844 L129.7188,20.7031 Q129.0938,20.125 128.5,19.8516 Q127.9063,19.5781 127.2813,19.5781 Q125.9375,19.5781 125.25,20.6484 Q124.5625,21.7188 124.5625,23.8125 Q124.5625,25.9063 125.25,26.9766 Q125.9375,28.0469 127.2813,28.0469 Q127.9063,28.0469 128.5,27.7734 Q129.0938,27.5 129.7188,26.9219 L129.7188,29.6406 Z "/><text fill="#000000" font-family="sans-serif" font-size="12" lengthAdjust="spacingAndGlyphs" textLength="69" x="147.25" y="28.1543">Identifiable</text><line style="stroke: #A80036; stroke-width: 1.5;" x1="7" x2="324" y1="40" y2="40"/><line style="stroke: #A80036; stroke-width: 1.5;" x1="7" x2="324" y1="48" y2="48"/><rect fill="#F24D5C" height="6" style="stroke: #C82930; stroke-width: 1.0;" width="6" x="14" y="56.9023"/><text fill="#000000" font-family="sans-serif" font-size="11" lengthAdjust="spacingAndGlyphs" textLength="293" x="26" y="62.2104">void constructor(ModelManager,string,string,string)</text><ellipse cx="17" cy="72.707" fill="#84BE84" rx="3" ry="3" style="stroke: #038048; stroke-width: 1.0;"/><text fill="#000000" font-family="sans-serif" font-size="11" lengthAdjust="spacingAndGlyphs" textLength="113" x="26" y="75.0151">string getIdentifier()</text><ellipse cx="17" cy="85.5117" fill="#84BE84" rx="3" ry="3" style="stroke: #038048; stroke-width: 1.0;"/><text fill="#000000" font-family="sans-serif" font-size="11" lengthAdjust="spacingAndGlyphs" textLength="136" x="26" y="87.8198">void setIdentifier(string)</text><ellipse cx="17" cy="98.3164" fill="#84BE84" rx="3" ry="3" style="stroke: #038048; stroke-width: 1.0;"/><text fill="#000000" font-family="sans-serif" font-size="11" lengthAdjust="spacingAndGlyphs" textLength="188" x="26" y="100.6245">string getFullyQualifiedIdentifier()</text><ellipse cx="17" cy="111.1211" fill="#84BE84" rx="3" ry="3" style="stroke: #038048; stroke-width: 1.0;"/><text fill="#000000" font-family="sans-serif" font-size="11" lengthAdjust="spacingAndGlyphs" textLength="91" x="26" y="113.4292">String toString()</text><ellipse cx="17" cy="123.9258" fill="#84BE84" rx="3" ry="3" style="stroke: #038048; stroke-width: 1.0;"/><text fill="#000000" font-family="sans-serif" font-size="11" lengthAdjust="spacingAndGlyphs" textLength="136" x="26" y="126.2339">boolean isRelationship()</text><ellipse cx="17" cy="136.7305" fill="#84BE84" rx="3" ry="3" style="stroke: #038048; stroke-width: 1.0;"/><text fill="#000000" font-family="sans-serif" font-size="11" lengthAdjust="spacingAndGlyphs" textLength="120" x="26" y="139.0386">boolean isResource()</text><!--class Typed--><rect fill="#FEFECE" filter="url(#fv4a75g)" height="48" style="stroke: #A80036; stroke-width: 1.5;" width="69" x="131" y="206"/><ellipse cx="146" cy="222" fill="#ADD1B2" rx="11" ry="11" style="stroke: #A80036; stroke-width: 1.0;"/><path d="M148.9688,227.6406 Q148.3906,227.9375 147.75,228.0859 Q147.1094,228.2344 146.4063,228.2344 Q143.9063,228.2344 142.5859,226.5859 Q141.2656,224.9375 141.2656,221.8125 Q141.2656,218.6875 142.5859,217.0313 Q143.9063,215.375 146.4063,215.375 Q147.1094,215.375 147.7578,215.5313 Q148.4063,215.6875 148.9688,215.9844 L148.9688,218.7031 Q148.3438,218.125 147.75,217.8516 Q147.1563,217.5781 146.5313,217.5781 Q145.1875,217.5781 144.5,218.6484 Q143.8125,219.7188 143.8125,221.8125 Q143.8125,223.9063 144.5,224.9766 Q145.1875,226.0469 146.5313,226.0469 Q147.1563,226.0469 147.75,225.7734 Q148.3438,225.5 148.9688,224.9219 L148.9688,227.6406 Z "/><text fill="#000000" font-family="sans-serif" font-size="12" lengthAdjust="spacingAndGlyphs" textLength="37" x="160" y="226.1543">Typed</text><line style="stroke: #A80036; stroke-width: 1.5;" x1="132" x2="199" y1="238" y2="238"/><line style="stroke: #A80036; stroke-width: 1.5;" x1="132" x2="199" y1="246" y2="246"/><path d="M165.25,146.431 C165.25,159.7942 165.25,173.4552 165.25,185.72 " fill="none" style="stroke: #A80036; stroke-width: 1.0;"/><polygon fill="none" points="172.25,185.9226,165.25,205.9225,158.25,185.9225,172.25,185.9226" style="stroke: #A80036; stroke-width: 1.0;"/></g></svg>