<?xml version="1.0" encoding="UTF-8" standalone="no"?><svg xmlns="http://www.w3.org/2000/svg" xmlns:xlink="http://www.w3.org/1999/xlink" contentScriptType="application/ecmascript" contentStyleType="text/css" height="507px" preserveAspectRatio="none" style="width:935px;height:507px;" version="1.1" viewBox="0 0 935 507" width="935px" zoomAndPan="magnify"><defs><filter height="300%" id="fogohgn" width="300%" x="-1" y="-1"><feGaussianBlur result="blurOut" stdDeviation="2.0"/><feColorMatrix in="blurOut" result="blurOut2" type="matrix" values="0 0 0 0 0 0 0 0 0 0 0 0 0 0 0 0 0 0 .4 0"/><feOffset dx="4.0" dy="4.0" in="blurOut2" result="blurOut3"/><feBlend in="SourceGraphic" in2="blurOut3" mode="normal"/></filter></defs><g><!--class IllegalModelException--><rect fill="#FEFECE" filter="url(#fogohgn)" height="60.8047" style="stroke: #A80036; stroke-width: 1.5;" width="166" x="6" y="168.5"/><ellipse cx="21" cy="184.5" fill="#ADD1B2" rx="11" ry="11" style="stroke: #A80036; stroke-width: 1.0;"/><path d="M23.9688,190.1406 Q23.3906,190.4375 22.75,190.5859 Q22.1094,190.7344 21.4063,190.7344 Q18.9063,190.7344 17.5859,189.0859 Q16.2656,187.4375 16.2656,184.3125 Q16.2656,181.1875 17.5859,179.5313 Q18.9063,177.875 21.4063,177.875 Q22.1094,177.875 22.7578,178.0313 Q23.4063,178.1875 23.9688,178.4844 L23.9688,181.2031 Q23.3438,180.625 22.75,180.3516 Q22.1563,180.0781 21.5313,180.0781 Q20.1875,180.0781 19.5,181.1484 Q18.8125,182.2188 18.8125,184.3125 Q18.8125,186.4063 19.5,187.4766 Q20.1875,188.5469 21.5313,188.5469 Q22.1563,188.5469 22.75,188.2734 Q23.3438,188 23.9688,187.4219 L23.9688,190.1406 Z "/><text fill="#000000" font-family="sans-serif" font-size="12" lengthAdjust="spacingAndGlyphs" textLength="134" x="35" y="188.6543">IllegalModelException</text><line style="stroke: #A80036; stroke-width: 1.5;" x1="7" x2="171" y1="200.5" y2="200.5"/><line style="stroke: #A80036; stroke-width: 1.5;" x1="7" x2="171" y1="208.5" y2="208.5"/><ellipse cx="17" cy="220.4023" fill="#84BE84" rx="3" ry="3" style="stroke: #038048; stroke-width: 1.0;"/><text fill="#000000" font-family="sans-serif" font-size="11" lengthAdjust="spacingAndGlyphs" textLength="133" x="26" y="222.7104">void constructor(string)</text><!--class BaseException--><rect fill="#FEFECE" filter="url(#fogohgn)" height="48" style="stroke: #A80036; stroke-width: 1.5;" width="124" x="27.5" y="450"/><ellipse cx="42.5" cy="466" fill="#ADD1B2" rx="11" ry="11" style="stroke: #A80036; stroke-width: 1.0;"/><path d="M45.4688,471.6406 Q44.8906,471.9375 44.25,472.0859 Q43.6094,472.2344 42.9063,472.2344 Q40.4063,472.2344 39.0859,470.5859 Q37.7656,468.9375 37.7656,465.8125 Q37.7656,462.6875 39.0859,461.0313 Q40.4063,459.375 42.9063,459.375 Q43.6094,459.375 44.2578,459.5313 Q44.9063,459.6875 45.4688,459.9844 L45.4688,462.7031 Q44.8438,462.125 44.25,461.8516 Q43.6563,461.5781 43.0313,461.5781 Q41.6875,461.5781 41,462.6484 Q40.3125,463.7188 40.3125,465.8125 Q40.3125,467.9063 41,468.9766 Q41.6875,470.0469 43.0313,470.0469 Q43.6563,470.0469 44.25,469.7734 Q44.8438,469.5 45.4688,468.9219 L45.4688,471.6406 Z "/><text fill="#000000" font-family="sans-serif" font-size="12" lengthAdjust="spacingAndGlyphs" textLength="92" x="56.5" y="470.1543">BaseException</text><line style="stroke: #A80036; stroke-width: 1.5;" x1="28.5" x2="150.5" y1="482" y2="482"/><line style="stroke: #A80036; stroke-width: 1.5;" x1="28.5" x2="150.5" y1="490" y2="490"/><!--class ModelFile--><rect fill="#FEFECE" filter="url(#fogohgn)" height="380.9219" style="stroke: #A80036; stroke-width: 1.5;" width="351" x="207.75" y="8.5"/><ellipse cx="350" cy="24.5" fill="#ADD1B2" rx="11" ry="11" style="stroke: #A80036; stroke-width: 1.0;"/><path d="M352.9688,30.1406 Q352.3906,30.4375 351.75,30.5859 Q351.1094,30.7344 350.4063,30.7344 Q347.9063,30.7344 346.5859,29.0859 Q345.2656,27.4375 345.2656,24.3125 Q345.2656,21.1875 346.5859,19.5313 Q347.9063,17.875 350.4063,17.875 Q351.1094,17.875 351.7578,18.0313 Q352.4063,18.1875 352.9688,18.4844 L352.9688,21.2031 Q352.3438,20.625 351.75,20.3516 Q351.1563,20.0781 350.5313,20.0781 Q349.1875,20.0781 348.5,21.1484 Q347.8125,22.2188 347.8125,24.3125 Q347.8125,26.4063 348.5,27.4766 Q349.1875,28.5469 350.5313,28.5469 Q351.1563,28.5469 351.75,28.2734 Q352.3438,28 352.9688,27.4219 L352.9688,30.1406 Z "/><text fill="#000000" font-family="sans-serif" font-size="12" lengthAdjust="spacingAndGlyphs" textLength="58" x="370.5" y="28.6543">ModelFile</text><line style="stroke: #A80036; stroke-width: 1.5;" x1="208.75" x2="557.75" y1="40.5" y2="40.5"/><line style="stroke: #A80036; stroke-width: 1.5;" x1="208.75" x2="557.75" y1="48.5" y2="48.5"/><ellipse cx="218.75" cy="60.4023" fill="#84BE84" rx="3" ry="3" style="stroke: #038048; stroke-width: 1.0;"/><text fill="#000000" font-family="sans-serif" font-size="11" lengthAdjust="spacingAndGlyphs" textLength="219" x="227.75" y="62.7104">void constructor(ModelManager,string)</text><rect fill="#F24D5C" height="6" style="stroke: #C82930; stroke-width: 1.0;" width="6" x="215.75" y="70.207"/><text fill="#000000" font-family="sans-serif" font-size="11" lengthAdjust="spacingAndGlyphs" textLength="161" x="227.75" y="75.5151">Object accept(Object,Object)</text><ellipse cx="218.75" cy="86.0117" fill="#84BE84" rx="3" ry="3" style="stroke: #038048; stroke-width: 1.0;"/><text fill="#000000" font-family="sans-serif" font-size="11" lengthAdjust="spacingAndGlyphs" textLength="194" x="227.75" y="88.3198">ModelManager getModelManager()</text><ellipse cx="218.75" cy="98.8164" fill="#84BE84" rx="3" ry="3" style="stroke: #038048; stroke-width: 1.0;"/><text fill="#000000" font-family="sans-serif" font-size="11" lengthAdjust="spacingAndGlyphs" textLength="115" x="227.75" y="101.1245">string[] getImports()</text><rect fill="#F24D5C" height="6" style="stroke: #C82930; stroke-width: 1.0;" width="6" x="215.75" y="108.6211"/><text fill="#000000" font-family="sans-serif" font-size="11" lengthAdjust="spacingAndGlyphs" textLength="79" x="227.75" y="113.9292">void validate()</text><rect fill="#F24D5C" height="6" style="stroke: #C82930; stroke-width: 1.0;" width="6" x="215.75" y="121.4258"/><text fill="#000000" font-family="sans-serif" font-size="11" lengthAdjust="spacingAndGlyphs" textLength="174" x="227.75" y="126.7339">void resolveType(string,string)</text><rect fill="#F24D5C" height="6" style="stroke: #C82930; stroke-width: 1.0;" width="6" x="215.75" y="134.2305"/><text fill="#000000" font-family="sans-serif" font-size="11" lengthAdjust="spacingAndGlyphs" textLength="156" x="227.75" y="139.5386">boolean isLocalType(string)</text><rect fill="#F24D5C" height="6" style="stroke: #C82930; stroke-width: 1.0;" width="6" x="215.75" y="147.0352"/><text fill="#000000" font-family="sans-serif" font-size="11" lengthAdjust="spacingAndGlyphs" textLength="178" x="227.75" y="152.3433">boolean isImportedType(string)</text><rect fill="#F24D5C" height="6" style="stroke: #C82930; stroke-width: 1.0;" width="6" x="215.75" y="159.8398"/><text fill="#000000" font-family="sans-serif" font-size="11" lengthAdjust="spacingAndGlyphs" textLength="157" x="227.75" y="165.1479">string resolveImport(string)</text><ellipse cx="218.75" cy="175.6445" fill="#84BE84" rx="3" ry="3" style="stroke: #038048; stroke-width: 1.0;"/><text fill="#000000" font-family="sans-serif" font-size="11" lengthAdjust="spacingAndGlyphs" textLength="143" x="227.75" y="177.9526">boolean isDefined(string)</text><rect fill="#F24D5C" height="6" style="stroke: #C82930; stroke-width: 1.0;" width="6" x="215.75" y="185.4492"/><text fill="#000000" font-family="sans-serif" font-size="11" lengthAdjust="spacingAndGlyphs" textLength="113" x="227.75" y="190.7573">void getType(string)</text><rect fill="#F24D5C" height="6" style="stroke: #C82930; stroke-width: 1.0;" width="6" x="215.75" y="198.2539"/><text fill="#000000" font-family="sans-serif" font-size="11" lengthAdjust="spacingAndGlyphs" textLength="231" x="227.75" y="203.562">string getFullyQualifiedTypeName(string)</text><ellipse cx="218.75" cy="214.0586" fill="#84BE84" rx="3" ry="3" style="stroke: #038048; stroke-width: 1.0;"/><text fill="#000000" font-family="sans-serif" font-size="11" lengthAdjust="spacingAndGlyphs" textLength="215" x="227.75" y="216.3667">ClassDeclaration getLocalType(string)</text><ellipse cx="218.75" cy="226.8633" fill="#84BE84" rx="3" ry="3" style="stroke: #038048; stroke-width: 1.0;"/><text fill="#000000" font-family="sans-serif" font-size="11" lengthAdjust="spacingAndGlyphs" textLength="255" x="227.75" y="229.1714">AssetDeclaration getAssetDeclaration(string)</text><ellipse cx="218.75" cy="239.668" fill="#84BE84" rx="3" ry="3" style="stroke: #038048; stroke-width: 1.0;"/><text fill="#000000" font-family="sans-serif" font-size="11" lengthAdjust="spacingAndGlyphs" textLength="325" x="227.75" y="241.9761">TransactionDeclaration getTransactionDeclaration(string)</text><ellipse cx="218.75" cy="252.4727" fill="#84BE84" rx="3" ry="3" style="stroke: #038048; stroke-width: 1.0;"/><text fill="#000000" font-family="sans-serif" font-size="11" lengthAdjust="spacingAndGlyphs" textLength="311" x="227.75" y="254.7808">ParticipantDeclaration getParticipantDeclaration(string)</text><ellipse cx="218.75" cy="265.2773" fill="#84BE84" rx="3" ry="3" style="stroke: #038048; stroke-width: 1.0;"/><text fill="#000000" font-family="sans-serif" font-size="11" lengthAdjust="spacingAndGlyphs" textLength="130" x="227.75" y="267.5854">string getNamespace()</text><ellipse cx="218.75" cy="278.082" fill="#84BE84" rx="3" ry="3" style="stroke: #038048; stroke-width: 1.0;"/><text fill="#000000" font-family="sans-serif" font-size="11" lengthAdjust="spacingAndGlyphs" textLength="237" x="227.75" y="280.3901">AssetDeclaration[] getAssetDeclarations()</text><ellipse cx="218.75" cy="290.8867" fill="#84BE84" rx="3" ry="3" style="stroke: #038048; stroke-width: 1.0;"/><text fill="#000000" font-family="sans-serif" font-size="11" lengthAdjust="spacingAndGlyphs" textLength="307" x="227.75" y="293.1948">TransactionDeclaration[] getTransactionDeclarations()</text><ellipse cx="218.75" cy="303.6914" fill="#84BE84" rx="3" ry="3" style="stroke: #038048; stroke-width: 1.0;"/><text fill="#000000" font-family="sans-serif" font-size="11" lengthAdjust="spacingAndGlyphs" textLength="293" x="227.75" y="305.9995">ParticipantDeclaration[] getParticipantDeclarations()</text><ellipse cx="218.75" cy="316.4961" fill="#84BE84" rx="3" ry="3" style="stroke: #038048; stroke-width: 1.0;"/><text fill="#000000" font-family="sans-serif" font-size="11" lengthAdjust="spacingAndGlyphs" textLength="265" x="227.75" y="318.8042">ConceptDeclaration[] getConceptDeclarations()</text><ellipse cx="218.75" cy="329.3008" fill="#84BE84" rx="3" ry="3" style="stroke: #038048; stroke-width: 1.0;"/><text fill="#000000" font-family="sans-serif" font-size="11" lengthAdjust="spacingAndGlyphs" textLength="237" x="227.75" y="331.6089">EnumDeclaration[] getEnumDeclarations()</text><ellipse cx="218.75" cy="342.1055" fill="#84BE84" rx="3" ry="3" style="stroke: #038048; stroke-width: 1.0;"/><text fill="#000000" font-family="sans-serif" font-size="11" lengthAdjust="spacingAndGlyphs" textLength="252" x="227.75" y="344.4136">ClassDeclaration[] getDeclarations(Function)</text><ellipse cx="218.75" cy="354.9102" fill="#84BE84" rx="3" ry="3" style="stroke: #038048; stroke-width: 1.0;"/><text fill="#000000" font-family="sans-serif" font-size="11" lengthAdjust="spacingAndGlyphs" textLength="218" x="227.75" y="357.2183">ClassDeclaration[] getAllDeclarations()</text><ellipse cx="218.75" cy="367.7148" fill="#84BE84" rx="3" ry="3" style="stroke: #038048; stroke-width: 1.0;"/><text fill="#000000" font-family="sans-serif" font-size="11" lengthAdjust="spacingAndGlyphs" textLength="123" x="227.75" y="370.0229">string getDefinitions()</text><ellipse cx="218.75" cy="380.5195" fill="#84BE84" rx="3" ry="3" style="stroke: #038048; stroke-width: 1.0;"/><text fill="#000000" font-family="sans-serif" font-size="11" lengthAdjust="spacingAndGlyphs" textLength="87" x="227.75" y="382.8276">Object toJSON()</text><!--class ModelManager--><rect fill="#FEFECE" filter="url(#fogohgn)" height="278.4844" style="stroke: #A80036; stroke-width: 1.5;" width="333" x="593.75" y="60"/><ellipse cx="710" cy="76" fill="#ADD1B2" rx="11" ry="11" style="stroke: #A80036; stroke-width: 1.0;"/><path d="M712.9688,81.6406 Q712.3906,81.9375 711.75,82.0859 Q711.1094,82.2344 710.4063,82.2344 Q707.9063,82.2344 706.5859,80.5859 Q705.2656,78.9375 705.2656,75.8125 Q705.2656,72.6875 706.5859,71.0313 Q707.9063,69.375 710.4063,69.375 Q711.1094,69.375 711.7578,69.5313 Q712.4063,69.6875 712.9688,69.9844 L712.9688,72.7031 Q712.3438,72.125 711.75,71.8516 Q711.1563,71.5781 710.5313,71.5781 Q709.1875,71.5781 708.5,72.6484 Q707.8125,73.7188 707.8125,75.8125 Q707.8125,77.9063 708.5,78.9766 Q709.1875,80.0469 710.5313,80.0469 Q711.1563,80.0469 711.75,79.7734 Q712.3438,79.5 712.9688,78.9219 L712.9688,81.6406 Z "/><text fill="#000000" font-family="sans-serif" font-size="12" lengthAdjust="spacingAndGlyphs" textLength="92" x="730.5" y="80.1543">ModelManager</text><line style="stroke: #A80036; stroke-width: 1.5;" x1="594.75" x2="925.75" y1="92" y2="92"/><line style="stroke: #A80036; stroke-width: 1.5;" x1="594.75" x2="925.75" y1="100" y2="100"/><ellipse cx="604.75" cy="111.9023" fill="#84BE84" rx="3" ry="3" style="stroke: #038048; stroke-width: 1.0;"/><text fill="#000000" font-family="sans-serif" font-size="11" lengthAdjust="spacingAndGlyphs" textLength="100" x="613.75" y="114.2104">void constructor()</text><rect fill="#F24D5C" height="6" style="stroke: #C82930; stroke-width: 1.0;" width="6" x="601.75" y="121.707"/><text fill="#000000" font-family="sans-serif" font-size="11" lengthAdjust="spacingAndGlyphs" textLength="161" x="613.75" y="127.0151">Object accept(Object,Object)</text><ellipse cx="604.75" cy="137.5117" fill="#84BE84" rx="3" ry="3" style="stroke: #038048; stroke-width: 1.0;"/><text fill="#000000" font-family="sans-serif" font-size="11" lengthAdjust="spacingAndGlyphs" textLength="154" x="613.75" y="139.8198">Object addModelFile(string)</text><ellipse cx="604.75" cy="150.3164" fill="#84BE84" rx="3" ry="3" style="stroke: #038048; stroke-width: 1.0;"/><text fill="#000000" font-family="sans-serif" font-size="11" lengthAdjust="spacingAndGlyphs" textLength="172" x="613.75" y="152.6245">Object updateModelFile(string)</text><ellipse cx="604.75" cy="163.1211" fill="#84BE84" rx="3" ry="3" style="stroke: #038048; stroke-width: 1.0;"/><text fill="#000000" font-family="sans-serif" font-size="11" lengthAdjust="spacingAndGlyphs" textLength="155" x="613.75" y="165.4292">void deleteModelFile(string)</text><ellipse cx="604.75" cy="175.9258" fill="#84BE84" rx="3" ry="3" style="stroke: #038048; stroke-width: 1.0;"/><text fill="#000000" font-family="sans-serif" font-size="11" lengthAdjust="spacingAndGlyphs" textLength="177" x="613.75" y="178.2339">Object[] addModelFiles(string[])</text><rect fill="#F24D5C" height="6" style="stroke: #C82930; stroke-width: 1.0;" width="6" x="601.75" y="185.7305"/><text fill="#000000" font-family="sans-serif" font-size="11" lengthAdjust="spacingAndGlyphs" textLength="149" x="613.75" y="191.0386">ModelFile[] getModelFiles()</text><rect fill="#F24D5C" height="6" style="stroke: #C82930; stroke-width: 1.0;" width="6" x="601.75" y="198.5352"/><text fill="#000000" font-family="sans-serif" font-size="11" lengthAdjust="spacingAndGlyphs" textLength="184" x="613.75" y="203.8433">string resolveType(string,string)</text><ellipse cx="604.75" cy="214.3398" fill="#84BE84" rx="3" ry="3" style="stroke: #038048; stroke-width: 1.0;"/><text fill="#000000" font-family="sans-serif" font-size="11" lengthAdjust="spacingAndGlyphs" textLength="122" x="613.75" y="216.6479">void clearModelFiles()</text><rect fill="#F24D5C" height="6" style="stroke: #C82930; stroke-width: 1.0;" width="6" x="601.75" y="224.1445"/><text fill="#000000" font-family="sans-serif" font-size="11" lengthAdjust="spacingAndGlyphs" textLength="167" x="613.75" y="229.4526">ModelFile getModelFile(string)</text><ellipse cx="604.75" cy="239.9492" fill="#84BE84" rx="3" ry="3" style="stroke: #038048; stroke-width: 1.0;"/><text fill="#000000" font-family="sans-serif" font-size="11" lengthAdjust="spacingAndGlyphs" textLength="145" x="613.75" y="242.2573">string[] getNamespaces()</text><rect fill="#F24D5C" height="6" style="stroke: #C82930; stroke-width: 1.0;" width="6" x="601.75" y="249.7539"/><text fill="#000000" font-family="sans-serif" font-size="11" lengthAdjust="spacingAndGlyphs" textLength="186" x="613.75" y="255.062">ClassDeclaration getType(string)</text><ellipse cx="604.75" cy="265.5586" fill="#84BE84" rx="3" ry="3" style="stroke: #038048; stroke-width: 1.0;"/><text fill="#000000" font-family="sans-serif" font-size="11" lengthAdjust="spacingAndGlyphs" textLength="237" x="613.75" y="267.8667">AssetDeclaration[] getAssetDeclarations()</text><ellipse cx="604.75" cy="278.3633" fill="#84BE84" rx="3" ry="3" style="stroke: #038048; stroke-width: 1.0;"/><text fill="#000000" font-family="sans-serif" font-size="11" lengthAdjust="spacingAndGlyphs" textLength="307" x="613.75" y="280.6714">TransactionDeclaration[] getTransactionDeclarations()</text><ellipse cx="604.75" cy="291.168" fill="#84BE84" rx="3" ry="3" style="stroke: #038048; stroke-width: 1.0;"/><text fill="#000000" font-family="sans-serif" font-size="11" lengthAdjust="spacingAndGlyphs" textLength="293" x="613.75" y="293.4761">ParticipantDeclaration[] getParticipantDeclarations()</text><ellipse cx="604.75" cy="303.9727" fill="#84BE84" rx="3" ry="3" style="stroke: #038048; stroke-width: 1.0;"/><text fill="#000000" font-family="sans-serif" font-size="11" lengthAdjust="spacingAndGlyphs" textLength="237" x="613.75" y="306.2808">EnumDeclaration[] getEnumDeclarations()</text><ellipse cx="604.75" cy="316.7773" fill="#84BE84" rx="3" ry="3" style="stroke: #038048; stroke-width: 1.0;"/><text fill="#000000" font-family="sans-serif" font-size="11" lengthAdjust="spacingAndGlyphs" textLength="265" x="613.75" y="319.0854">ConceptDeclaration[] getConceptDeclarations()</text><ellipse cx="604.75" cy="329.582" fill="#84BE84" rx="3" ry="3" style="stroke: #038048; stroke-width: 1.0;"/><text fill="#000000" font-family="sans-serif" font-size="11" lengthAdjust="spacingAndGlyphs" textLength="87" x="613.75" y="331.8901">Object toJSON()</text><path d="M89,229.735 C89,278.062 89,373.857 89,429.7334 " fill="none" style="stroke: #A80036; stroke-width: 1.0;"/><polygon fill="none" points="96.0001,429.9989,89,449.9989,82.0001,429.9988,96.0001,429.9989" style="stroke: #A80036; stroke-width: 1.0;"/></g></svg>