<?xml version="1.0" encoding="UTF-8" standalone="no"?><svg xmlns="http://www.w3.org/2000/svg" xmlns:xlink="http://www.w3.org/1999/xlink" contentScriptType="application/ecmascript" contentStyleType="text/css" height="167px" preserveAspectRatio="none" style="width:216px;height:167px;" version="1.1" viewBox="0 0 216 167" width="216px" zoomAndPan="magnify"><defs><filter height="300%" id="f56xck0" width="300%" x="-1" y="-1"><feGaussianBlur result="blurOut" stdDeviation="2.0"/><feColorMatrix in="blurOut" result="blurOut2" type="matrix" values="0 0 0 0 0 0 0 0 0 0 0 0 0 0 0 0 0 0 .4 0"/><feOffset dx="4.0" dy="4.0" in="blurOut2" result="blurOut3"/><feBlend in="SourceGraphic" in2="blurOut3" mode="normal"/></filter></defs><g><!--class Writer--><rect fill="#FEFECE" filter="url(#f56xck0)" height="150.4375" style="stroke: #A80036; stroke-width: 1.5;" width="201" x="6" y="8"/><ellipse cx="83.75" cy="24" fill="#ADD1B2" rx="11" ry="11" style="stroke: #A80036; stroke-width: 1.0;"/><path d="M86.7188,29.6406 Q86.1406,29.9375 85.5,30.0859 Q84.8594,30.2344 84.1563,30.2344 Q81.6563,30.2344 80.3359,28.5859 Q79.0156,26.9375 79.0156,23.8125 Q79.0156,20.6875 80.3359,19.0313 Q81.6563,17.375 84.1563,17.375 Q84.8594,17.375 85.5078,17.5313 Q86.1563,17.6875 86.7188,17.9844 L86.7188,20.7031 Q86.0938,20.125 85.5,19.8516 Q84.9063,19.5781 84.2813,19.5781 Q82.9375,19.5781 82.25,20.6484 Q81.5625,21.7188 81.5625,23.8125 Q81.5625,25.9063 82.25,26.9766 Q82.9375,28.0469 84.2813,28.0469 Q84.9063,28.0469 85.5,27.7734 Q86.0938,27.5 86.7188,26.9219 L86.7188,29.6406 Z "/><text fill="#000000" font-family="sans-serif" font-size="12" lengthAdjust="spacingAndGlyphs" textLength="37" x="104.25" y="28.1543">Writer</text><line style="stroke: #A80036; stroke-width: 1.5;" x1="7" x2="206" y1="40" y2="40"/><line style="stroke: #A80036; stroke-width: 1.5;" x1="7" x2="206" y1="48" y2="48"/><ellipse cx="17" cy="59.9023" fill="#84BE84" rx="3" ry="3" style="stroke: #038048; stroke-width: 1.0;"/><text fill="#000000" font-family="sans-serif" font-size="11" lengthAdjust="spacingAndGlyphs" textLength="100" x="26" y="62.2104">void constructor()</text><ellipse cx="17" cy="72.707" fill="#84BE84" rx="3" ry="3" style="stroke: #038048; stroke-width: 1.0;"/><text fill="#000000" font-family="sans-serif" font-size="11" lengthAdjust="spacingAndGlyphs" textLength="175" x="26" y="75.0151">void writeBeforeLine(int,string)</text><ellipse cx="17" cy="85.5117" fill="#84BE84" rx="3" ry="3" style="stroke: #038048; stroke-width: 1.0;"/><text fill="#000000" font-family="sans-serif" font-size="11" lengthAdjust="spacingAndGlyphs" textLength="137" x="26" y="87.8198">void writeLine(int,string)</text><ellipse cx="17" cy="98.3164" fill="#84BE84" rx="3" ry="3" style="stroke: #038048; stroke-width: 1.0;"/><text fill="#000000" font-family="sans-serif" font-size="11" lengthAdjust="spacingAndGlyphs" textLength="100" x="26" y="100.6245">int getLineCount()</text><ellipse cx="17" cy="111.1211" fill="#84BE84" rx="3" ry="3" style="stroke: #038048; stroke-width: 1.0;"/><text fill="#000000" font-family="sans-serif" font-size="11" lengthAdjust="spacingAndGlyphs" textLength="163" x="26" y="113.4292">void writeIndented(int,string)</text><ellipse cx="17" cy="123.9258" fill="#84BE84" rx="3" ry="3" style="stroke: #038048; stroke-width: 1.0;"/><text fill="#000000" font-family="sans-serif" font-size="11" lengthAdjust="spacingAndGlyphs" textLength="96" x="26" y="126.2339">void write(string)</text><ellipse cx="17" cy="136.7305" fill="#84BE84" rx="3" ry="3" style="stroke: #038048; stroke-width: 1.0;"/><text fill="#000000" font-family="sans-serif" font-size="11" lengthAdjust="spacingAndGlyphs" textLength="98" x="26" y="139.0386">string getBuffer()</text><ellipse cx="17" cy="149.5352" fill="#84BE84" rx="3" ry="3" style="stroke: #038048; stroke-width: 1.0;"/><text fill="#000000" font-family="sans-serif" font-size="11" lengthAdjust="spacingAndGlyphs" textLength="98" x="26" y="151.8433">void clearBuffer()</text></g></svg>