<?xml version="1.0" encoding="UTF-8" standalone="no"?><svg xmlns="http://www.w3.org/2000/svg" xmlns:xlink="http://www.w3.org/1999/xlink" contentScriptType="application/ecmascript" contentStyleType="text/css" height="379px" preserveAspectRatio="none" style="width:932px;height:379px;" version="1.1" viewBox="0 0 932 379" width="932px" zoomAndPan="magnify"><defs><filter height="300%" id="flcgdxg" width="300%" x="-1" y="-1"><feGaussianBlur result="blurOut" stdDeviation="2.0"/><feColorMatrix in="blurOut" result="blurOut2" type="matrix" values="0 0 0 0 0 0 0 0 0 0 0 0 0 0 0 0 0 0 .4 0"/><feOffset dx="4.0" dy="4.0" in="blurOut2" result="blurOut3"/><feBlend in="SourceGraphic" in2="blurOut3" mode="normal"/></filter></defs><g><!--class AssetRegistry--><rect fill="#FEFECE" filter="url(#flcgdxg)" height="188.8516" style="stroke: #A80036; stroke-width: 1.5;" width="535" x="6" y="40.5"/><ellipse cx="226.75" cy="56.5" fill="#ADD1B2" rx="11" ry="11" style="stroke: #A80036; stroke-width: 1.0;"/><path d="M229.7188,62.1406 Q229.1406,62.4375 228.5,62.5859 Q227.8594,62.7344 227.1563,62.7344 Q224.6563,62.7344 223.3359,61.0859 Q222.0156,59.4375 222.0156,56.3125 Q222.0156,53.1875 223.3359,51.5313 Q224.6563,49.875 227.1563,49.875 Q227.8594,49.875 228.5078,50.0313 Q229.1563,50.1875 229.7188,50.4844 L229.7188,53.2031 Q229.0938,52.625 228.5,52.3516 Q227.9063,52.0781 227.2813,52.0781 Q225.9375,52.0781 225.25,53.1484 Q224.5625,54.2188 224.5625,56.3125 Q224.5625,58.4063 225.25,59.4766 Q225.9375,60.5469 227.2813,60.5469 Q227.9063,60.5469 228.5,60.2734 Q229.0938,60 229.7188,59.4219 L229.7188,62.1406 Z "/><text fill="#000000" font-family="sans-serif" font-size="12" lengthAdjust="spacingAndGlyphs" textLength="85" x="247.25" y="60.6543">AssetRegistry</text><line style="stroke: #A80036; stroke-width: 1.5;" x1="7" x2="540" y1="72.5" y2="72.5"/><line style="stroke: #A80036; stroke-width: 1.5;" x1="7" x2="540" y1="80.5" y2="80.5"/><ellipse cx="17" cy="92.4023" fill="#84BE84" rx="3" ry="3" style="stroke: #038048; stroke-width: 1.0;"/><text fill="#000000" font-family="sans-serif" font-size="11" lengthAdjust="spacingAndGlyphs" textLength="456" x="26" y="94.7104">Promise getAllAssetRegistries(SecurityContext,ModelManager,Factory,Serializer)</text><ellipse cx="17" cy="105.207" fill="#84BE84" rx="3" ry="3" style="stroke: #038048; stroke-width: 1.0;"/><text fill="#000000" font-family="sans-serif" font-size="11" lengthAdjust="spacingAndGlyphs" textLength="469" x="26" y="107.5151">Promise getAssetRegistry(SecurityContext,string,ModelManager,Factory,Serializer)</text><ellipse cx="17" cy="118.0117" fill="#84BE84" rx="3" ry="3" style="stroke: #038048; stroke-width: 1.0;"/><text fill="#000000" font-family="sans-serif" font-size="11" lengthAdjust="spacingAndGlyphs" textLength="509" x="26" y="120.3198">Promise addAssetRegistry(SecurityContext,string,string,ModelManager,Factory,Serializer)</text><ellipse cx="17" cy="130.8164" fill="#84BE84" rx="3" ry="3" style="stroke: #038048; stroke-width: 1.0;"/><text fill="#000000" font-family="sans-serif" font-size="11" lengthAdjust="spacingAndGlyphs" textLength="358" x="26" y="133.1245">void constructor(string,string,ModelManager,Factory,Serializer)</text><ellipse cx="17" cy="143.6211" fill="#84BE84" rx="3" ry="3" style="stroke: #038048; stroke-width: 1.0;"/><text fill="#000000" font-family="sans-serif" font-size="11" lengthAdjust="spacingAndGlyphs" textLength="226" x="26" y="145.9292">Promise add(SecurityContext,Resource)</text><ellipse cx="17" cy="156.4258" fill="#84BE84" rx="3" ry="3" style="stroke: #038048; stroke-width: 1.0;"/><text fill="#000000" font-family="sans-serif" font-size="11" lengthAdjust="spacingAndGlyphs" textLength="244" x="26" y="158.7339">Promise update(SecurityContext,Resource)</text><ellipse cx="17" cy="169.2305" fill="#84BE84" rx="3" ry="3" style="stroke: #038048; stroke-width: 1.0;"/><text fill="#000000" font-family="sans-serif" font-size="11" lengthAdjust="spacingAndGlyphs" textLength="293" x="26" y="171.5386">Promise remove(SecurityContext,(Resource|string))</text><ellipse cx="17" cy="182.0352" fill="#84BE84" rx="3" ry="3" style="stroke: #038048; stroke-width: 1.0;"/><text fill="#000000" font-family="sans-serif" font-size="11" lengthAdjust="spacingAndGlyphs" textLength="179" x="26" y="184.3433">Promise getAll(SecurityContext)</text><ellipse cx="17" cy="194.8398" fill="#84BE84" rx="3" ry="3" style="stroke: #038048; stroke-width: 1.0;"/><text fill="#000000" font-family="sans-serif" font-size="11" lengthAdjust="spacingAndGlyphs" textLength="203" x="26" y="197.1479">Promise resolveAll(SecurityContext)</text><ellipse cx="17" cy="207.6445" fill="#84BE84" rx="3" ry="3" style="stroke: #038048; stroke-width: 1.0;"/><text fill="#000000" font-family="sans-serif" font-size="11" lengthAdjust="spacingAndGlyphs" textLength="252" x="26" y="209.9526">Promise get(SecurityContext,string,boolean)</text><ellipse cx="17" cy="220.4492" fill="#84BE84" rx="3" ry="3" style="stroke: #038048; stroke-width: 1.0;"/><text fill="#000000" font-family="sans-serif" font-size="11" lengthAdjust="spacingAndGlyphs" textLength="227" x="26" y="222.7573">Promise resolve(SecurityContext,string)</text><!--class Registry--><rect fill="#FEFECE" filter="url(#flcgdxg)" height="48" style="stroke: #A80036; stroke-width: 1.5;" width="82" x="232.25" y="322"/><ellipse cx="247.25" cy="338" fill="#ADD1B2" rx="11" ry="11" style="stroke: #A80036; stroke-width: 1.0;"/><path d="M250.2188,343.6406 Q249.6406,343.9375 249,344.0859 Q248.3594,344.2344 247.6563,344.2344 Q245.1563,344.2344 243.8359,342.5859 Q242.5156,340.9375 242.5156,337.8125 Q242.5156,334.6875 243.8359,333.0313 Q245.1563,331.375 247.6563,331.375 Q248.3594,331.375 249.0078,331.5313 Q249.6563,331.6875 250.2188,331.9844 L250.2188,334.7031 Q249.5938,334.125 249,333.8516 Q248.4063,333.5781 247.7813,333.5781 Q246.4375,333.5781 245.75,334.6484 Q245.0625,335.7188 245.0625,337.8125 Q245.0625,339.9063 245.75,340.9766 Q246.4375,342.0469 247.7813,342.0469 Q248.4063,342.0469 249,341.7734 Q249.5938,341.5 250.2188,340.9219 L250.2188,343.6406 Z "/><text fill="#000000" font-family="sans-serif" font-size="12" lengthAdjust="spacingAndGlyphs" textLength="50" x="261.25" y="342.1543">Registry</text><line style="stroke: #A80036; stroke-width: 1.5;" x1="233.25" x2="313.25" y1="354" y2="354"/><line style="stroke: #A80036; stroke-width: 1.5;" x1="233.25" x2="313.25" y1="362" y2="362"/><!--class Concerto--><rect fill="#FEFECE" filter="url(#flcgdxg)" height="252.875" style="stroke: #A80036; stroke-width: 1.5;" width="347" x="576" y="8.5"/><ellipse cx="716.75" cy="24.5" fill="#ADD1B2" rx="11" ry="11" style="stroke: #A80036; stroke-width: 1.0;"/><path d="M719.7188,30.1406 Q719.1406,30.4375 718.5,30.5859 Q717.8594,30.7344 717.1563,30.7344 Q714.6563,30.7344 713.3359,29.0859 Q712.0156,27.4375 712.0156,24.3125 Q712.0156,21.1875 713.3359,19.5313 Q714.6563,17.875 717.1563,17.875 Q717.8594,17.875 718.5078,18.0313 Q719.1563,18.1875 719.7188,18.4844 L719.7188,21.2031 Q719.0938,20.625 718.5,20.3516 Q717.9063,20.0781 717.2813,20.0781 Q715.9375,20.0781 715.25,21.1484 Q714.5625,22.2188 714.5625,24.3125 Q714.5625,26.4063 715.25,27.4766 Q715.9375,28.5469 717.2813,28.5469 Q717.9063,28.5469 718.5,28.2734 Q719.0938,28 719.7188,27.4219 L719.7188,30.1406 Z "/><text fill="#000000" font-family="sans-serif" font-size="12" lengthAdjust="spacingAndGlyphs" textLength="57" x="737.25" y="28.6543">Concerto</text><line style="stroke: #A80036; stroke-width: 1.5;" x1="577" x2="922" y1="40.5" y2="40.5"/><line style="stroke: #A80036; stroke-width: 1.5;" x1="577" x2="922" y1="48.5" y2="48.5"/><ellipse cx="587" cy="60.4023" fill="#84BE84" rx="3" ry="3" style="stroke: #038048; stroke-width: 1.0;"/><text fill="#000000" font-family="sans-serif" font-size="11" lengthAdjust="spacingAndGlyphs" textLength="185" x="596" y="62.7104">void constructor(Object,boolean)</text><ellipse cx="587" cy="73.207" fill="#84BE84" rx="3" ry="3" style="stroke: #038048; stroke-width: 1.0;"/><text fill="#000000" font-family="sans-serif" font-size="11" lengthAdjust="spacingAndGlyphs" textLength="268" x="596" y="75.5151">Promise getAllAssetRegistries(SecurityContext)</text><ellipse cx="587" cy="86.0117" fill="#84BE84" rx="3" ry="3" style="stroke: #038048; stroke-width: 1.0;"/><text fill="#000000" font-family="sans-serif" font-size="11" lengthAdjust="spacingAndGlyphs" textLength="281" x="596" y="88.3198">Promise getAssetRegistry(SecurityContext,string)</text><ellipse cx="587" cy="98.8164" fill="#84BE84" rx="3" ry="3" style="stroke: #038048; stroke-width: 1.0;"/><text fill="#000000" font-family="sans-serif" font-size="11" lengthAdjust="spacingAndGlyphs" textLength="321" x="596" y="101.1245">Promise addAssetRegistry(SecurityContext,string,string)</text><rect fill="#F24D5C" height="6" style="stroke: #C82930; stroke-width: 1.0;" width="6" x="584" y="108.6211"/><text fill="#000000" font-family="sans-serif" font-size="11" lengthAdjust="spacingAndGlyphs" textLength="245" x="596" y="113.9292">Promise getModelRegistry(SecurityContext)</text><ellipse cx="587" cy="124.4258" fill="#84BE84" rx="3" ry="3" style="stroke: #038048; stroke-width: 1.0;"/><text fill="#000000" font-family="sans-serif" font-size="11" lengthAdjust="spacingAndGlyphs" textLength="279" x="596" y="126.7339">Promise getTransactionRegistry(SecurityContext)</text><ellipse cx="587" cy="137.2305" fill="#84BE84" rx="3" ry="3" style="stroke: #038048; stroke-width: 1.0;"/><text fill="#000000" font-family="sans-serif" font-size="11" lengthAdjust="spacingAndGlyphs" textLength="201" x="596" y="139.5386">Factory getFactory(SecurityContext)</text><ellipse cx="587" cy="150.0352" fill="#84BE84" rx="3" ry="3" style="stroke: #038048; stroke-width: 1.0;"/><text fill="#000000" font-family="sans-serif" font-size="11" lengthAdjust="spacingAndGlyphs" textLength="283" x="596" y="152.3433">ModelManager getModelManager(SecurityContext)</text><ellipse cx="587" cy="162.8398" fill="#84BE84" rx="3" ry="3" style="stroke: #038048; stroke-width: 1.0;"/><text fill="#000000" font-family="sans-serif" font-size="11" lengthAdjust="spacingAndGlyphs" textLength="225" x="596" y="165.1479">Serializer getSerializer(SecurityContext)</text><ellipse cx="587" cy="175.6445" fill="#84BE84" rx="3" ry="3" style="stroke: #038048; stroke-width: 1.0;"/><text fill="#000000" font-family="sans-serif" font-size="11" lengthAdjust="spacingAndGlyphs" textLength="287" x="596" y="177.9526">Promise connect(Object,string,string,string,string)</text><ellipse cx="587" cy="188.4492" fill="#84BE84" rx="3" ry="3" style="stroke: #038048; stroke-width: 1.0;"/><text fill="#000000" font-family="sans-serif" font-size="11" lengthAdjust="spacingAndGlyphs" textLength="120" x="596" y="190.7573">Promise disconnect()</text><ellipse cx="587" cy="201.2539" fill="#84BE84" rx="3" ry="3" style="stroke: #038048; stroke-width: 1.0;"/><text fill="#000000" font-family="sans-serif" font-size="11" lengthAdjust="spacingAndGlyphs" textLength="156" x="596" y="203.562">Promise login(string,string)</text><ellipse cx="587" cy="214.0586" fill="#84BE84" rx="3" ry="3" style="stroke: #038048; stroke-width: 1.0;"/><text fill="#000000" font-family="sans-serif" font-size="11" lengthAdjust="spacingAndGlyphs" textLength="234" x="596" y="216.3667">Promise deploy(SecurityContext,boolean)</text><ellipse cx="587" cy="226.8633" fill="#84BE84" rx="3" ry="3" style="stroke: #038048; stroke-width: 1.0;"/><text fill="#000000" font-family="sans-serif" font-size="11" lengthAdjust="spacingAndGlyphs" textLength="212" x="596" y="229.1714">Promise loadModels(SecurityContext)</text><ellipse cx="587" cy="239.668" fill="#84BE84" rx="3" ry="3" style="stroke: #038048; stroke-width: 1.0;"/><text fill="#000000" font-family="sans-serif" font-size="11" lengthAdjust="spacingAndGlyphs" textLength="215" x="596" y="241.9761">Promise saveModels(SecurityContext)</text><ellipse cx="587" cy="252.4727" fill="#84BE84" rx="3" ry="3" style="stroke: #038048; stroke-width: 1.0;"/><text fill="#000000" font-family="sans-serif" font-size="11" lengthAdjust="spacingAndGlyphs" textLength="311" x="596" y="254.7808">Promise submitTransaction(SecurityContext,Resource)</text><path d="M273.25,229.801 C273.25,254.958 273.25,280.9502 273.25,301.8643 " fill="none" style="stroke: #A80036; stroke-width: 1.0;"/><polygon fill="none" points="280.25,301.9282,273.25,321.9282,266.25,301.9281,280.25,301.9282" style="stroke: #A80036; stroke-width: 1.0;"/></g></svg>