<?xml version="1.0" encoding="UTF-8" standalone="no"?><svg xmlns="http://www.w3.org/2000/svg" xmlns:xlink="http://www.w3.org/1999/xlink" contentScriptType="application/ecmascript" contentStyleType="text/css" height="206px" preserveAspectRatio="none" style="width:268px;height:206px;" version="1.1" viewBox="0 0 268 206" width="268px" zoomAndPan="magnify"><defs><filter height="300%" id="fxpevzq" width="300%" x="-1" y="-1"><feGaussianBlur result="blurOut" stdDeviation="2.0"/><feColorMatrix in="blurOut" result="blurOut2" type="matrix" values="0 0 0 0 0 0 0 0 0 0 0 0 0 0 0 0 0 0 .4 0"/><feOffset dx="4.0" dy="4.0" in="blurOut2" result="blurOut3"/><feBlend in="SourceGraphic" in2="blurOut3" mode="normal"/></filter></defs><g><!--class FunctionDeclaration--><rect fill="#FEFECE" filter="url(#fxpevzq)" height="188.8516" style="stroke: #A80036; stroke-width: 1.5;" width="253" x="6" y="8.5"/><ellipse cx="65.25" cy="24.5" fill="#ADD1B2" rx="11" ry="11" style="stroke: #A80036; stroke-width: 1.0;"/><path d="M68.2188,30.1406 Q67.6406,30.4375 67,30.5859 Q66.3594,30.7344 65.6563,30.7344 Q63.1563,30.7344 61.8359,29.0859 Q60.5156,27.4375 60.5156,24.3125 Q60.5156,21.1875 61.8359,19.5313 Q63.1563,17.875 65.6563,17.875 Q66.3594,17.875 67.0078,18.0313 Q67.6563,18.1875 68.2188,18.4844 L68.2188,21.2031 Q67.5938,20.625 67,20.3516 Q66.4063,20.0781 65.7813,20.0781 Q64.4375,20.0781 63.75,21.1484 Q63.0625,22.2188 63.0625,24.3125 Q63.0625,26.4063 63.75,27.4766 Q64.4375,28.5469 65.7813,28.5469 Q66.4063,28.5469 67,28.2734 Q67.5938,28 68.2188,27.4219 L68.2188,30.1406 Z "/><text fill="#000000" font-family="sans-serif" font-size="12" lengthAdjust="spacingAndGlyphs" textLength="126" x="85.75" y="28.6543">FunctionDeclaration</text><line style="stroke: #A80036; stroke-width: 1.5;" x1="7" x2="258" y1="40.5" y2="40.5"/><line style="stroke: #A80036; stroke-width: 1.5;" x1="7" x2="258" y1="48.5" y2="48.5"/><ellipse cx="17" cy="60.4023" fill="#84BE84" rx="3" ry="3" style="stroke: #038048; stroke-width: 1.0;"/><text fill="#000000" font-family="sans-serif" font-size="11" lengthAdjust="spacingAndGlyphs" textLength="189" x="26" y="62.7104">void constructor(ModelFile,string)</text><rect fill="#F24D5C" height="6" style="stroke: #C82930; stroke-width: 1.0;" width="6" x="14" y="70.207"/><text fill="#000000" font-family="sans-serif" font-size="11" lengthAdjust="spacingAndGlyphs" textLength="161" x="26" y="75.5151">Object accept(Object,Object)</text><ellipse cx="17" cy="86.0117" fill="#84BE84" rx="3" ry="3" style="stroke: #038048; stroke-width: 1.0;"/><text fill="#000000" font-family="sans-serif" font-size="11" lengthAdjust="spacingAndGlyphs" textLength="134" x="26" y="88.3198">ModelFile getModelFile()</text><ellipse cx="17" cy="98.8164" fill="#84BE84" rx="3" ry="3" style="stroke: #038048; stroke-width: 1.0;"/><text fill="#000000" font-family="sans-serif" font-size="11" lengthAdjust="spacingAndGlyphs" textLength="134" x="26" y="101.1245">string getFunctionText()</text><rect fill="#F24D5C" height="6" style="stroke: #C82930; stroke-width: 1.0;" width="6" x="14" y="108.6211"/><text fill="#000000" font-family="sans-serif" font-size="11" lengthAdjust="spacingAndGlyphs" textLength="81" x="26" y="113.9292">void process()</text><rect fill="#F24D5C" height="6" style="stroke: #C82930; stroke-width: 1.0;" width="6" x="14" y="121.4258"/><text fill="#000000" font-family="sans-serif" font-size="11" lengthAdjust="spacingAndGlyphs" textLength="79" x="26" y="126.7339">void validate()</text><ellipse cx="17" cy="137.2305" fill="#84BE84" rx="3" ry="3" style="stroke: #038048; stroke-width: 1.0;"/><text fill="#000000" font-family="sans-serif" font-size="11" lengthAdjust="spacingAndGlyphs" textLength="96" x="26" y="139.5386">string getName()</text><ellipse cx="17" cy="150.0352" fill="#84BE84" rx="3" ry="3" style="stroke: #038048; stroke-width: 1.0;"/><text fill="#000000" font-family="sans-serif" font-size="11" lengthAdjust="spacingAndGlyphs" textLength="227" x="26" y="152.3433">string getTransactionDeclarationName()</text><ellipse cx="17" cy="162.8398" fill="#84BE84" rx="3" ry="3" style="stroke: #038048; stroke-width: 1.0;"/><text fill="#000000" font-family="sans-serif" font-size="11" lengthAdjust="spacingAndGlyphs" textLength="138" x="26" y="165.1479">string[] getParameters()</text><ellipse cx="17" cy="175.6445" fill="#84BE84" rx="3" ry="3" style="stroke: #038048; stroke-width: 1.0;"/><text fill="#000000" font-family="sans-serif" font-size="11" lengthAdjust="spacingAndGlyphs" textLength="171" x="26" y="177.9526">string getFullyQualifiedName()</text><ellipse cx="17" cy="188.4492" fill="#84BE84" rx="3" ry="3" style="stroke: #038048; stroke-width: 1.0;"/><text fill="#000000" font-family="sans-serif" font-size="11" lengthAdjust="spacingAndGlyphs" textLength="87" x="26" y="190.7573">Object toJSON()</text></g></svg>