<?xml version="1.0" encoding="UTF-8" standalone="no"?><svg xmlns="http://www.w3.org/2000/svg" xmlns:xlink="http://www.w3.org/1999/xlink" contentScriptType="application/ecmascript" contentStyleType="text/css" height="289px" preserveAspectRatio="none" style="width:449px;height:289px;" version="1.1" viewBox="0 0 449 289" width="449px" zoomAndPan="magnify"><defs><filter height="300%" id="fzbpgjg" width="300%" x="-1" y="-1"><feGaussianBlur result="blurOut" stdDeviation="2.0"/><feColorMatrix in="blurOut" result="blurOut2" type="matrix" values="0 0 0 0 0 0 0 0 0 0 0 0 0 0 0 0 0 0 .4 0"/><feOffset dx="4.0" dy="4.0" in="blurOut2" result="blurOut3"/><feBlend in="SourceGraphic" in2="blurOut3" mode="normal"/></filter></defs><g><!--class ModelRegistry--><rect fill="#FEFECE" filter="url(#fzbpgjg)" height="163.2422" style="stroke: #A80036; stroke-width: 1.5;" width="434" x="6" y="8.5"/><ellipse cx="175.25" cy="24.5" fill="#ADD1B2" rx="11" ry="11" style="stroke: #A80036; stroke-width: 1.0;"/><path d="M178.2188,30.1406 Q177.6406,30.4375 177,30.5859 Q176.3594,30.7344 175.6563,30.7344 Q173.1563,30.7344 171.8359,29.0859 Q170.5156,27.4375 170.5156,24.3125 Q170.5156,21.1875 171.8359,19.5313 Q173.1563,17.875 175.6563,17.875 Q176.3594,17.875 177.0078,18.0313 Q177.6563,18.1875 178.2188,18.4844 L178.2188,21.2031 Q177.5938,20.625 177,20.3516 Q176.4063,20.0781 175.7813,20.0781 Q174.4375,20.0781 173.75,21.1484 Q173.0625,22.2188 173.0625,24.3125 Q173.0625,26.4063 173.75,27.4766 Q174.4375,28.5469 175.7813,28.5469 Q176.4063,28.5469 177,28.2734 Q177.5938,28 178.2188,27.4219 L178.2188,30.1406 Z "/><text fill="#000000" font-family="sans-serif" font-size="12" lengthAdjust="spacingAndGlyphs" textLength="87" x="195.75" y="28.6543">ModelRegistry</text><line style="stroke: #A80036; stroke-width: 1.5;" x1="7" x2="439" y1="40.5" y2="40.5"/><line style="stroke: #A80036; stroke-width: 1.5;" x1="7" x2="439" y1="48.5" y2="48.5"/><ellipse cx="17" cy="60.4023" fill="#84BE84" rx="3" ry="3" style="stroke: #038048; stroke-width: 1.0;"/><text fill="#000000" font-family="sans-serif" font-size="11" lengthAdjust="spacingAndGlyphs" textLength="355" x="26" y="62.7104">Promise getAllModelRegistries(SecurityContext,ModelManager)</text><ellipse cx="17" cy="73.207" fill="#84BE84" rx="3" ry="3" style="stroke: #038048; stroke-width: 1.0;"/><text fill="#000000" font-family="sans-serif" font-size="11" lengthAdjust="spacingAndGlyphs" textLength="368" x="26" y="75.5151">Promise getModelRegistry(SecurityContext,string,ModelManager)</text><ellipse cx="17" cy="86.0117" fill="#84BE84" rx="3" ry="3" style="stroke: #038048; stroke-width: 1.0;"/><text fill="#000000" font-family="sans-serif" font-size="11" lengthAdjust="spacingAndGlyphs" textLength="408" x="26" y="88.3198">Promise addModelRegistry(SecurityContext,string,string,ModelManager)</text><ellipse cx="17" cy="98.8164" fill="#84BE84" rx="3" ry="3" style="stroke: #038048; stroke-width: 1.0;"/><text fill="#000000" font-family="sans-serif" font-size="11" lengthAdjust="spacingAndGlyphs" textLength="256" x="26" y="101.1245">void constructor(string,string,ModelManager)</text><ellipse cx="17" cy="111.6211" fill="#84BE84" rx="3" ry="3" style="stroke: #038048; stroke-width: 1.0;"/><text fill="#000000" font-family="sans-serif" font-size="11" lengthAdjust="spacingAndGlyphs" textLength="225" x="26" y="113.9292">Promise add(SecurityContext,ModelFile)</text><ellipse cx="17" cy="124.4258" fill="#84BE84" rx="3" ry="3" style="stroke: #038048; stroke-width: 1.0;"/><text fill="#000000" font-family="sans-serif" font-size="11" lengthAdjust="spacingAndGlyphs" textLength="243" x="26" y="126.7339">Promise update(SecurityContext,ModelFile)</text><ellipse cx="17" cy="137.2305" fill="#84BE84" rx="3" ry="3" style="stroke: #038048; stroke-width: 1.0;"/><text fill="#000000" font-family="sans-serif" font-size="11" lengthAdjust="spacingAndGlyphs" textLength="292" x="26" y="139.5386">Promise remove(SecurityContext,(ModelFile|string))</text><ellipse cx="17" cy="150.0352" fill="#84BE84" rx="3" ry="3" style="stroke: #038048; stroke-width: 1.0;"/><text fill="#000000" font-family="sans-serif" font-size="11" lengthAdjust="spacingAndGlyphs" textLength="179" x="26" y="152.3433">Promise getAll(SecurityContext)</text><ellipse cx="17" cy="162.8398" fill="#84BE84" rx="3" ry="3" style="stroke: #038048; stroke-width: 1.0;"/><text fill="#000000" font-family="sans-serif" font-size="11" lengthAdjust="spacingAndGlyphs" textLength="203" x="26" y="165.1479">Promise get(SecurityContext,string)</text><!--class Registry--><rect fill="#FEFECE" filter="url(#fzbpgjg)" height="48" style="stroke: #A80036; stroke-width: 1.5;" width="82" x="182" y="232"/><ellipse cx="197" cy="248" fill="#ADD1B2" rx="11" ry="11" style="stroke: #A80036; stroke-width: 1.0;"/><path d="M199.9688,253.6406 Q199.3906,253.9375 198.75,254.0859 Q198.1094,254.2344 197.4063,254.2344 Q194.9063,254.2344 193.5859,252.5859 Q192.2656,250.9375 192.2656,247.8125 Q192.2656,244.6875 193.5859,243.0313 Q194.9063,241.375 197.4063,241.375 Q198.1094,241.375 198.7578,241.5313 Q199.4063,241.6875 199.9688,241.9844 L199.9688,244.7031 Q199.3438,244.125 198.75,243.8516 Q198.1563,243.5781 197.5313,243.5781 Q196.1875,243.5781 195.5,244.6484 Q194.8125,245.7188 194.8125,247.8125 Q194.8125,249.9063 195.5,250.9766 Q196.1875,252.0469 197.5313,252.0469 Q198.1563,252.0469 198.75,251.7734 Q199.3438,251.5 199.9688,250.9219 L199.9688,253.6406 Z "/><text fill="#000000" font-family="sans-serif" font-size="12" lengthAdjust="spacingAndGlyphs" textLength="50" x="211" y="252.1543">Registry</text><line style="stroke: #A80036; stroke-width: 1.5;" x1="183" x2="263" y1="264" y2="264"/><line style="stroke: #A80036; stroke-width: 1.5;" x1="183" x2="263" y1="272" y2="272"/><path d="M223,171.559 C223,185.3296 223,199.1547 223,211.4799 " fill="none" style="stroke: #A80036; stroke-width: 1.0;"/><polygon fill="none" points="230,211.7096,223,231.7096,216,211.7095,230,211.7096" style="stroke: #A80036; stroke-width: 1.0;"/></g></svg>