<?xml version="1.0" encoding="UTF-8" standalone="no"?><svg xmlns="http://www.w3.org/2000/svg" xmlns:xlink="http://www.w3.org/1999/xlink" contentScriptType="application/ecmascript" contentStyleType="text/css" height="404px" preserveAspectRatio="none" style="width:585px;height:404px;" version="1.1" viewBox="0 0 585 404" width="585px" zoomAndPan="magnify"><defs><filter height="300%" id="fjprar1" width="300%" x="-1" y="-1"><feGaussianBlur result="blurOut" stdDeviation="2.0"/><feColorMatrix in="blurOut" result="blurOut2" type="matrix" values="0 0 0 0 0 0 0 0 0 0 0 0 0 0 0 0 0 0 .4 0"/><feOffset dx="4.0" dy="4.0" in="blurOut2" result="blurOut3"/><feBlend in="SourceGraphic" in2="blurOut3" mode="normal"/></filter></defs><g><!--class Registry--><rect fill="#FEFECE" filter="url(#fjprar1)" height="163.2422" style="stroke: #A80036; stroke-width: 1.5;" width="352" x="115.5" y="232.5"/><ellipse cx="262.25" cy="248.5" fill="#ADD1B2" rx="11" ry="11" style="stroke: #A80036; stroke-width: 1.0;"/><path d="M265.2188,254.1406 Q264.6406,254.4375 264,254.5859 Q263.3594,254.7344 262.6563,254.7344 Q260.1563,254.7344 258.8359,253.0859 Q257.5156,251.4375 257.5156,248.3125 Q257.5156,245.1875 258.8359,243.5313 Q260.1563,241.875 262.6563,241.875 Q263.3594,241.875 264.0078,242.0313 Q264.6563,242.1875 265.2188,242.4844 L265.2188,245.2031 Q264.5938,244.625 264,244.3516 Q263.4063,244.0781 262.7813,244.0781 Q261.4375,244.0781 260.75,245.1484 Q260.0625,246.2188 260.0625,248.3125 Q260.0625,250.4063 260.75,251.4766 Q261.4375,252.5469 262.7813,252.5469 Q263.4063,252.5469 264,252.2734 Q264.5938,252 265.2188,251.4219 L265.2188,254.1406 Z "/><text fill="#000000" font-family="sans-serif" font-size="12" lengthAdjust="spacingAndGlyphs" textLength="50" x="282.75" y="252.6543">Registry</text><line style="stroke: #A80036; stroke-width: 1.5;" x1="116.5" x2="466.5" y1="264.5" y2="264.5"/><line style="stroke: #A80036; stroke-width: 1.5;" x1="116.5" x2="466.5" y1="272.5" y2="272.5"/><ellipse cx="126.5" cy="284.4023" fill="#84BE84" rx="3" ry="3" style="stroke: #038048; stroke-width: 1.0;"/><text fill="#000000" font-family="sans-serif" font-size="11" lengthAdjust="spacingAndGlyphs" textLength="273" x="135.5" y="286.7104">Promise getAllRegistries(SecurityContext,string)</text><ellipse cx="126.5" cy="297.207" fill="#84BE84" rx="3" ry="3" style="stroke: #038048; stroke-width: 1.0;"/><text fill="#000000" font-family="sans-serif" font-size="11" lengthAdjust="spacingAndGlyphs" textLength="286" x="135.5" y="299.5151">Promise getRegistry(SecurityContext,string,string)</text><ellipse cx="126.5" cy="310.0117" fill="#84BE84" rx="3" ry="3" style="stroke: #038048; stroke-width: 1.0;"/><text fill="#000000" font-family="sans-serif" font-size="11" lengthAdjust="spacingAndGlyphs" textLength="326" x="135.5" y="312.3198">Promise addRegistry(SecurityContext,string,string,string)</text><ellipse cx="126.5" cy="322.8164" fill="#84BE84" rx="3" ry="3" style="stroke: #038048; stroke-width: 1.0;"/><text fill="#000000" font-family="sans-serif" font-size="11" lengthAdjust="spacingAndGlyphs" textLength="207" x="135.5" y="325.1245">void constructor(string,string,string)</text><ellipse cx="126.5" cy="335.6211" fill="#84BE84" rx="3" ry="3" style="stroke: #038048; stroke-width: 1.0;"/><text fill="#000000" font-family="sans-serif" font-size="11" lengthAdjust="spacingAndGlyphs" textLength="280" x="135.5" y="337.9292">Promise add(SecurityContext,string,string,string)</text><ellipse cx="126.5" cy="348.4258" fill="#84BE84" rx="3" ry="3" style="stroke: #038048; stroke-width: 1.0;"/><text fill="#000000" font-family="sans-serif" font-size="11" lengthAdjust="spacingAndGlyphs" textLength="298" x="135.5" y="350.7339">Promise update(SecurityContext,string,string,string)</text><ellipse cx="126.5" cy="361.2305" fill="#84BE84" rx="3" ry="3" style="stroke: #038048; stroke-width: 1.0;"/><text fill="#000000" font-family="sans-serif" font-size="11" lengthAdjust="spacingAndGlyphs" textLength="265" x="135.5" y="363.5386">Promise remove(SecurityContext,string,string)</text><ellipse cx="126.5" cy="374.0352" fill="#84BE84" rx="3" ry="3" style="stroke: #038048; stroke-width: 1.0;"/><text fill="#000000" font-family="sans-serif" font-size="11" lengthAdjust="spacingAndGlyphs" textLength="268" x="135.5" y="376.3433">Promise getAll(SecurityContext,Object,boolean)</text><ellipse cx="126.5" cy="386.8398" fill="#84BE84" rx="3" ry="3" style="stroke: #038048; stroke-width: 1.0;"/><text fill="#000000" font-family="sans-serif" font-size="11" lengthAdjust="spacingAndGlyphs" textLength="292" x="135.5" y="389.1479">Promise get(SecurityContext,string,Object,boolean)</text><!--class TransactionRegistry--><rect fill="#FEFECE" filter="url(#fjprar1)" height="163.2422" style="stroke: #A80036; stroke-width: 1.5;" width="570" x="6" y="8.5"/><ellipse cx="224.75" cy="24.5" fill="#ADD1B2" rx="11" ry="11" style="stroke: #A80036; stroke-width: 1.0;"/><path d="M227.7188,30.1406 Q227.1406,30.4375 226.5,30.5859 Q225.8594,30.7344 225.1563,30.7344 Q222.6563,30.7344 221.3359,29.0859 Q220.0156,27.4375 220.0156,24.3125 Q220.0156,21.1875 221.3359,19.5313 Q222.6563,17.875 225.1563,17.875 Q225.8594,17.875 226.5078,18.0313 Q227.1563,18.1875 227.7188,18.4844 L227.7188,21.2031 Q227.0938,20.625 226.5,20.3516 Q225.9063,20.0781 225.2813,20.0781 Q223.9375,20.0781 223.25,21.1484 Q222.5625,22.2188 222.5625,24.3125 Q222.5625,26.4063 223.25,27.4766 Q223.9375,28.5469 225.2813,28.5469 Q225.9063,28.5469 226.5,28.2734 Q227.0938,28 227.7188,27.4219 L227.7188,30.1406 Z "/><text fill="#000000" font-family="sans-serif" font-size="12" lengthAdjust="spacingAndGlyphs" textLength="124" x="245.25" y="28.6543">TransactionRegistry</text><line style="stroke: #A80036; stroke-width: 1.5;" x1="7" x2="575" y1="40.5" y2="40.5"/><line style="stroke: #A80036; stroke-width: 1.5;" x1="7" x2="575" y1="48.5" y2="48.5"/><ellipse cx="17" cy="60.4023" fill="#84BE84" rx="3" ry="3" style="stroke: #038048; stroke-width: 1.0;"/><text fill="#000000" font-family="sans-serif" font-size="11" lengthAdjust="spacingAndGlyphs" textLength="491" x="26" y="62.7104">Promise getAllTransactionRegistries(SecurityContext,ModelManager,Factory,Serializer)</text><ellipse cx="17" cy="73.207" fill="#84BE84" rx="3" ry="3" style="stroke: #038048; stroke-width: 1.0;"/><text fill="#000000" font-family="sans-serif" font-size="11" lengthAdjust="spacingAndGlyphs" textLength="504" x="26" y="75.5151">Promise getTransactionRegistry(SecurityContext,string,ModelManager,Factory,Serializer)</text><ellipse cx="17" cy="86.0117" fill="#84BE84" rx="3" ry="3" style="stroke: #038048; stroke-width: 1.0;"/><text fill="#000000" font-family="sans-serif" font-size="11" lengthAdjust="spacingAndGlyphs" textLength="544" x="26" y="88.3198">Promise addTransactionRegistry(SecurityContext,string,string,ModelManager,Factory,Serializer)</text><ellipse cx="17" cy="98.8164" fill="#84BE84" rx="3" ry="3" style="stroke: #038048; stroke-width: 1.0;"/><text fill="#000000" font-family="sans-serif" font-size="11" lengthAdjust="spacingAndGlyphs" textLength="358" x="26" y="101.1245">void constructor(string,string,ModelManager,Factory,Serializer)</text><ellipse cx="17" cy="111.6211" fill="#84BE84" rx="3" ry="3" style="stroke: #038048; stroke-width: 1.0;"/><text fill="#000000" font-family="sans-serif" font-size="11" lengthAdjust="spacingAndGlyphs" textLength="219" x="26" y="113.9292">void add(SecurityContext,string,string)</text><ellipse cx="17" cy="124.4258" fill="#84BE84" rx="3" ry="3" style="stroke: #038048; stroke-width: 1.0;"/><text fill="#000000" font-family="sans-serif" font-size="11" lengthAdjust="spacingAndGlyphs" textLength="237" x="26" y="126.7339">void update(SecurityContext,string,string)</text><ellipse cx="17" cy="137.2305" fill="#84BE84" rx="3" ry="3" style="stroke: #038048; stroke-width: 1.0;"/><text fill="#000000" font-family="sans-serif" font-size="11" lengthAdjust="spacingAndGlyphs" textLength="204" x="26" y="139.5386">void remove(SecurityContext,string)</text><ellipse cx="17" cy="150.0352" fill="#84BE84" rx="3" ry="3" style="stroke: #038048; stroke-width: 1.0;"/><text fill="#000000" font-family="sans-serif" font-size="11" lengthAdjust="spacingAndGlyphs" textLength="179" x="26" y="152.3433">Promise getAll(SecurityContext)</text><ellipse cx="17" cy="162.8398" fill="#84BE84" rx="3" ry="3" style="stroke: #038048; stroke-width: 1.0;"/><text fill="#000000" font-family="sans-serif" font-size="11" lengthAdjust="spacingAndGlyphs" textLength="203" x="26" y="165.1479">Promise get(SecurityContext,string)</text><path d="M291,171.775 C291,184.865 291,198.562 291,212.059 " fill="none" style="stroke: #A80036; stroke-width: 1.0;"/><polygon fill="none" points="298,212.285,291,232.285,284,212.285,298,212.285" style="stroke: #A80036; stroke-width: 1.0;"/></g></svg>