<?xml version="1.0" encoding="UTF-8" standalone="no"?><svg xmlns="http://www.w3.org/2000/svg" xmlns:xlink="http://www.w3.org/1999/xlink" contentScriptType="application/ecmascript" contentStyleType="text/css" height="411px" preserveAspectRatio="none" style="width:923px;height:411px;" version="1.1" viewBox="0 0 923 411" width="923px" zoomAndPan="magnify"><defs><filter height="300%" id="fsfo1u8" width="300%" x="-1" y="-1"><feGaussianBlur result="blurOut" stdDeviation="2.0"/><feColorMatrix in="blurOut" result="blurOut2" type="matrix" values="0 0 0 0 0 0 0 0 0 0 0 0 0 0 0 0 0 0 .4 0"/><feOffset dx="4.0" dy="4.0" in="blurOut2" result="blurOut3"/><feBlend in="SourceGraphic" in2="blurOut3" mode="normal"/></filter></defs><g><!--class SecurityContext--><rect fill="#FEFECE" filter="url(#fsfo1u8)" height="163.2422" style="stroke: #A80036; stroke-width: 1.5;" width="238" x="6" y="8.5"/><ellipse cx="71.75" cy="24.5" fill="#ADD1B2" rx="11" ry="11" style="stroke: #A80036; stroke-width: 1.0;"/><path d="M74.7188,30.1406 Q74.1406,30.4375 73.5,30.5859 Q72.8594,30.7344 72.1563,30.7344 Q69.6563,30.7344 68.3359,29.0859 Q67.0156,27.4375 67.0156,24.3125 Q67.0156,21.1875 68.3359,19.5313 Q69.6563,17.875 72.1563,17.875 Q72.8594,17.875 73.5078,18.0313 Q74.1563,18.1875 74.7188,18.4844 L74.7188,21.2031 Q74.0938,20.625 73.5,20.3516 Q72.9063,20.0781 72.2813,20.0781 Q70.9375,20.0781 70.25,21.1484 Q69.5625,22.2188 69.5625,24.3125 Q69.5625,26.4063 70.25,27.4766 Q70.9375,28.5469 72.2813,28.5469 Q72.9063,28.5469 73.5,28.2734 Q74.0938,28 74.7188,27.4219 L74.7188,30.1406 Z "/><text fill="#000000" font-family="sans-serif" font-size="12" lengthAdjust="spacingAndGlyphs" textLength="98" x="92.25" y="28.6543">SecurityContext</text><line style="stroke: #A80036; stroke-width: 1.5;" x1="7" x2="243" y1="40.5" y2="40.5"/><line style="stroke: #A80036; stroke-width: 1.5;" x1="7" x2="243" y1="48.5" y2="48.5"/><ellipse cx="17" cy="60.4023" fill="#84BE84" rx="3" ry="3" style="stroke: #038048; stroke-width: 1.0;"/><text fill="#000000" font-family="sans-serif" font-size="11" lengthAdjust="spacingAndGlyphs" textLength="170" x="26" y="62.7104">void constructor(string,string)</text><ellipse cx="17" cy="73.207" fill="#84BE84" rx="3" ry="3" style="stroke: #038048; stroke-width: 1.0;"/><text fill="#000000" font-family="sans-serif" font-size="11" lengthAdjust="spacingAndGlyphs" textLength="90" x="26" y="75.5151">string getUser()</text><ellipse cx="17" cy="86.0117" fill="#84BE84" rx="3" ry="3" style="stroke: #038048; stroke-width: 1.0;"/><text fill="#000000" font-family="sans-serif" font-size="11" lengthAdjust="spacingAndGlyphs" textLength="119" x="26" y="88.3198">string getPassword()</text><ellipse cx="17" cy="98.8164" fill="#84BE84" rx="3" ry="3" style="stroke: #038048; stroke-width: 1.0;"/><text fill="#000000" font-family="sans-serif" font-size="11" lengthAdjust="spacingAndGlyphs" textLength="189" x="26" y="101.1245">hfc.Member getEnrolledMember()</text><ellipse cx="17" cy="111.6211" fill="#84BE84" rx="3" ry="3" style="stroke: #038048; stroke-width: 1.0;"/><text fill="#000000" font-family="sans-serif" font-size="11" lengthAdjust="spacingAndGlyphs" textLength="212" x="26" y="113.9292">void setEnrolledMember(hfc.Member)</text><ellipse cx="17" cy="124.4258" fill="#84BE84" rx="3" ry="3" style="stroke: #038048; stroke-width: 1.0;"/><text fill="#000000" font-family="sans-serif" font-size="11" lengthAdjust="spacingAndGlyphs" textLength="133" x="26" y="126.7339">string getChaincodeID()</text><ellipse cx="17" cy="137.2305" fill="#84BE84" rx="3" ry="3" style="stroke: #038048; stroke-width: 1.0;"/><text fill="#000000" font-family="sans-serif" font-size="11" lengthAdjust="spacingAndGlyphs" textLength="156" x="26" y="139.5386">void setChaincodeID(string)</text><ellipse cx="17" cy="150.0352" fill="#84BE84" rx="3" ry="3" style="stroke: #038048; stroke-width: 1.0;"/><text fill="#000000" font-family="sans-serif" font-size="11" lengthAdjust="spacingAndGlyphs" textLength="157" x="26" y="152.3433">hfc.EventHub getEventHub()</text><ellipse cx="17" cy="162.8398" fill="#84BE84" rx="3" ry="3" style="stroke: #038048; stroke-width: 1.0;"/><text fill="#000000" font-family="sans-serif" font-size="11" lengthAdjust="spacingAndGlyphs" textLength="180" x="26" y="165.1479">void setEventHub(hfc.EventHub)</text><!--class BaseException--><rect fill="#FEFECE" filter="url(#fsfo1u8)" height="60.8047" style="stroke: #A80036; stroke-width: 1.5;" width="159" x="279.75" y="232.5"/><ellipse cx="310.5" cy="248.5" fill="#ADD1B2" rx="11" ry="11" style="stroke: #A80036; stroke-width: 1.0;"/><path d="M313.4688,254.1406 Q312.8906,254.4375 312.25,254.5859 Q311.6094,254.7344 310.9063,254.7344 Q308.4063,254.7344 307.0859,253.0859 Q305.7656,251.4375 305.7656,248.3125 Q305.7656,245.1875 307.0859,243.5313 Q308.4063,241.875 310.9063,241.875 Q311.6094,241.875 312.2578,242.0313 Q312.9063,242.1875 313.4688,242.4844 L313.4688,245.2031 Q312.8438,244.625 312.25,244.3516 Q311.6563,244.0781 311.0313,244.0781 Q309.6875,244.0781 309,245.1484 Q308.3125,246.2188 308.3125,248.3125 Q308.3125,250.4063 309,251.4766 Q309.6875,252.5469 311.0313,252.5469 Q311.6563,252.5469 312.25,252.2734 Q312.8438,252 313.4688,251.4219 L313.4688,254.1406 Z "/><text fill="#000000" font-family="sans-serif" font-size="12" lengthAdjust="spacingAndGlyphs" textLength="92" x="328" y="252.6543">BaseException</text><line style="stroke: #A80036; stroke-width: 1.5;" x1="280.75" x2="437.75" y1="264.5" y2="264.5"/><line style="stroke: #A80036; stroke-width: 1.5;" x1="280.75" x2="437.75" y1="272.5" y2="272.5"/><ellipse cx="290.75" cy="284.4023" fill="#84BE84" rx="3" ry="3" style="stroke: #038048; stroke-width: 1.0;"/><text fill="#000000" font-family="sans-serif" font-size="11" lengthAdjust="spacingAndGlyphs" textLength="133" x="299.75" y="286.7104">void constructor(string)</text><!--class Error--><rect fill="#FEFECE" filter="url(#fsfo1u8)" height="48" style="stroke: #A80036; stroke-width: 1.5;" width="63" x="327.75" y="354"/><ellipse cx="342.75" cy="370" fill="#ADD1B2" rx="11" ry="11" style="stroke: #A80036; stroke-width: 1.0;"/><path d="M345.7188,375.6406 Q345.1406,375.9375 344.5,376.0859 Q343.8594,376.2344 343.1563,376.2344 Q340.6563,376.2344 339.3359,374.5859 Q338.0156,372.9375 338.0156,369.8125 Q338.0156,366.6875 339.3359,365.0313 Q340.6563,363.375 343.1563,363.375 Q343.8594,363.375 344.5078,363.5313 Q345.1563,363.6875 345.7188,363.9844 L345.7188,366.7031 Q345.0938,366.125 344.5,365.8516 Q343.9063,365.5781 343.2813,365.5781 Q341.9375,365.5781 341.25,366.6484 Q340.5625,367.7188 340.5625,369.8125 Q340.5625,371.9063 341.25,372.9766 Q341.9375,374.0469 343.2813,374.0469 Q343.9063,374.0469 344.5,373.7734 Q345.0938,373.5 345.7188,372.9219 L345.7188,375.6406 Z "/><text fill="#000000" font-family="sans-serif" font-size="12" lengthAdjust="spacingAndGlyphs" textLength="31" x="356.75" y="374.1543">Error</text><line style="stroke: #A80036; stroke-width: 1.5;" x1="328.75" x2="389.75" y1="386" y2="386"/><line style="stroke: #A80036; stroke-width: 1.5;" x1="328.75" x2="389.75" y1="394" y2="394"/><!--class SecurityException--><rect fill="#FEFECE" filter="url(#fsfo1u8)" height="60.8047" style="stroke: #A80036; stroke-width: 1.5;" width="159" x="279.75" y="59.5"/><ellipse cx="301.95" cy="75.5" fill="#ADD1B2" rx="11" ry="11" style="stroke: #A80036; stroke-width: 1.0;"/><path d="M304.9188,81.1406 Q304.3406,81.4375 303.7,81.5859 Q303.0594,81.7344 302.3563,81.7344 Q299.8563,81.7344 298.5359,80.0859 Q297.2156,78.4375 297.2156,75.3125 Q297.2156,72.1875 298.5359,70.5313 Q299.8563,68.875 302.3563,68.875 Q303.0594,68.875 303.7078,69.0313 Q304.3563,69.1875 304.9188,69.4844 L304.9188,72.2031 Q304.2938,71.625 303.7,71.3516 Q303.1063,71.0781 302.4813,71.0781 Q301.1375,71.0781 300.45,72.1484 Q299.7625,73.2188 299.7625,75.3125 Q299.7625,77.4063 300.45,78.4766 Q301.1375,79.5469 302.4813,79.5469 Q303.1063,79.5469 303.7,79.2734 Q304.2938,79 304.9188,78.4219 L304.9188,81.1406 Z "/><text fill="#000000" font-family="sans-serif" font-size="12" lengthAdjust="spacingAndGlyphs" textLength="111" x="317.55" y="79.6543">SecurityException</text><line style="stroke: #A80036; stroke-width: 1.5;" x1="280.75" x2="437.75" y1="91.5" y2="91.5"/><line style="stroke: #A80036; stroke-width: 1.5;" x1="280.75" x2="437.75" y1="99.5" y2="99.5"/><ellipse cx="290.75" cy="111.4023" fill="#84BE84" rx="3" ry="3" style="stroke: #038048; stroke-width: 1.0;"/><text fill="#000000" font-family="sans-serif" font-size="11" lengthAdjust="spacingAndGlyphs" textLength="133" x="299.75" y="113.7104">void constructor(string)</text><!--class Util--><rect fill="#FEFECE" filter="url(#fsfo1u8)" height="112.0234" style="stroke: #A80036; stroke-width: 1.5;" width="440" x="474" y="34"/><ellipse cx="679.75" cy="50" fill="#ADD1B2" rx="11" ry="11" style="stroke: #A80036; stroke-width: 1.0;"/><path d="M682.7188,55.6406 Q682.1406,55.9375 681.5,56.0859 Q680.8594,56.2344 680.1563,56.2344 Q677.6563,56.2344 676.3359,54.5859 Q675.0156,52.9375 675.0156,49.8125 Q675.0156,46.6875 676.3359,45.0313 Q677.6563,43.375 680.1563,43.375 Q680.8594,43.375 681.5078,43.5313 Q682.1563,43.6875 682.7188,43.9844 L682.7188,46.7031 Q682.0938,46.125 681.5,45.8516 Q680.9063,45.5781 680.2813,45.5781 Q678.9375,45.5781 678.25,46.6484 Q677.5625,47.7188 677.5625,49.8125 Q677.5625,51.9063 678.25,52.9766 Q678.9375,54.0469 680.2813,54.0469 Q680.9063,54.0469 681.5,53.7734 Q682.0938,53.5 682.7188,52.9219 L682.7188,55.6406 Z "/><text fill="#000000" font-family="sans-serif" font-size="12" lengthAdjust="spacingAndGlyphs" textLength="20" x="700.25" y="54.1543">Util</text><line style="stroke: #A80036; stroke-width: 1.5;" x1="475" x2="913" y1="66" y2="66"/><line style="stroke: #A80036; stroke-width: 1.5;" x1="475" x2="913" y1="74" y2="74"/><ellipse cx="485" cy="85.9023" fill="#84BE84" rx="3" ry="3" style="stroke: #038048; stroke-width: 1.0;"/><text fill="#000000" font-family="sans-serif" font-size="11" lengthAdjust="spacingAndGlyphs" textLength="203" x="494" y="88.2104">void securityCheck(SecurityContext)</text><ellipse cx="485" cy="98.707" fill="#84BE84" rx="3" ry="3" style="stroke: #038048; stroke-width: 1.0;"/><text fill="#000000" font-family="sans-serif" font-size="11" lengthAdjust="spacingAndGlyphs" textLength="323" x="494" y="101.0151">Promise queryChainCode(SecurityContext,string,string[])</text><ellipse cx="485" cy="111.5117" fill="#84BE84" rx="3" ry="3" style="stroke: #038048; stroke-width: 1.0;"/><text fill="#000000" font-family="sans-serif" font-size="11" lengthAdjust="spacingAndGlyphs" textLength="327" x="494" y="113.8198">Promise invokeChainCode(SecurityContext,string,string[])</text><ellipse cx="485" cy="124.3164" fill="#84BE84" rx="3" ry="3" style="stroke: #038048; stroke-width: 1.0;"/><text fill="#000000" font-family="sans-serif" font-size="11" lengthAdjust="spacingAndGlyphs" textLength="102" x="494" y="126.6245">void isNull(Object)</text><ellipse cx="485" cy="137.1211" fill="#84BE84" rx="3" ry="3" style="stroke: #038048; stroke-width: 1.0;"/><text fill="#000000" font-family="sans-serif" font-size="11" lengthAdjust="spacingAndGlyphs" textLength="414" x="494" y="139.4292">Promise deployChainCode(SecurityContext,string,string,string[],boolean)</text><path d="M359,293.689 C359,305.9011 359,320.2881 359,333.6388 " fill="none" style="stroke: #A80036; stroke-width: 1.0;"/><polygon fill="none" points="366,333.9284,359,353.9284,352,333.9283,366,333.9284" style="stroke: #A80036; stroke-width: 1.0;"/><path d="M359,120.786 C359,145.965 359,182.561 359,212.19 " fill="none" style="stroke: #A80036; stroke-width: 1.0;"/><polygon fill="none" points="366,212.269,359,232.269,352,212.269,366,212.269" style="stroke: #A80036; stroke-width: 1.0;"/></g></svg>