<?xml version="1.0" encoding="UTF-8" standalone="no"?><svg xmlns="http://www.w3.org/2000/svg" xmlns:xlink="http://www.w3.org/1999/xlink" contentScriptType="application/ecmascript" contentStyleType="text/css" height="315px" preserveAspectRatio="none" style="width:550px;height:315px;" version="1.1" viewBox="0 0 550 315" width="550px" zoomAndPan="magnify"><defs><filter height="300%" id="fktwwjz" width="300%" x="-1" y="-1"><feGaussianBlur result="blurOut" stdDeviation="2.0"/><feColorMatrix in="blurOut" result="blurOut2" type="matrix" values="0 0 0 0 0 0 0 0 0 0 0 0 0 0 0 0 0 0 .4 0"/><feOffset dx="4.0" dy="4.0" in="blurOut2" result="blurOut3"/><feBlend in="SourceGraphic" in2="blurOut3" mode="normal"/></filter></defs><g><!--class AssetRegistry--><rect fill="#FEFECE" filter="url(#fktwwjz)" height="188.8516" style="stroke: #A80036; stroke-width: 1.5;" width="535" x="6" y="8.5"/><ellipse cx="226.75" cy="24.5" fill="#ADD1B2" rx="11" ry="11" style="stroke: #A80036; stroke-width: 1.0;"/><path d="M229.7188,30.1406 Q229.1406,30.4375 228.5,30.5859 Q227.8594,30.7344 227.1563,30.7344 Q224.6563,30.7344 223.3359,29.0859 Q222.0156,27.4375 222.0156,24.3125 Q222.0156,21.1875 223.3359,19.5313 Q224.6563,17.875 227.1563,17.875 Q227.8594,17.875 228.5078,18.0313 Q229.1563,18.1875 229.7188,18.4844 L229.7188,21.2031 Q229.0938,20.625 228.5,20.3516 Q227.9063,20.0781 227.2813,20.0781 Q225.9375,20.0781 225.25,21.1484 Q224.5625,22.2188 224.5625,24.3125 Q224.5625,26.4063 225.25,27.4766 Q225.9375,28.5469 227.2813,28.5469 Q227.9063,28.5469 228.5,28.2734 Q229.0938,28 229.7188,27.4219 L229.7188,30.1406 Z "/><text fill="#000000" font-family="sans-serif" font-size="12" lengthAdjust="spacingAndGlyphs" textLength="85" x="247.25" y="28.6543">AssetRegistry</text><line style="stroke: #A80036; stroke-width: 1.5;" x1="7" x2="540" y1="40.5" y2="40.5"/><line style="stroke: #A80036; stroke-width: 1.5;" x1="7" x2="540" y1="48.5" y2="48.5"/><ellipse cx="17" cy="60.4023" fill="#84BE84" rx="3" ry="3" style="stroke: #038048; stroke-width: 1.0;"/><text fill="#000000" font-family="sans-serif" font-size="11" lengthAdjust="spacingAndGlyphs" textLength="456" x="26" y="62.7104">Promise getAllAssetRegistries(SecurityContext,ModelManager,Factory,Serializer)</text><ellipse cx="17" cy="73.207" fill="#84BE84" rx="3" ry="3" style="stroke: #038048; stroke-width: 1.0;"/><text fill="#000000" font-family="sans-serif" font-size="11" lengthAdjust="spacingAndGlyphs" textLength="469" x="26" y="75.5151">Promise getAssetRegistry(SecurityContext,string,ModelManager,Factory,Serializer)</text><ellipse cx="17" cy="86.0117" fill="#84BE84" rx="3" ry="3" style="stroke: #038048; stroke-width: 1.0;"/><text fill="#000000" font-family="sans-serif" font-size="11" lengthAdjust="spacingAndGlyphs" textLength="509" x="26" y="88.3198">Promise addAssetRegistry(SecurityContext,string,string,ModelManager,Factory,Serializer)</text><ellipse cx="17" cy="98.8164" fill="#84BE84" rx="3" ry="3" style="stroke: #038048; stroke-width: 1.0;"/><text fill="#000000" font-family="sans-serif" font-size="11" lengthAdjust="spacingAndGlyphs" textLength="358" x="26" y="101.1245">void constructor(string,string,ModelManager,Factory,Serializer)</text><ellipse cx="17" cy="111.6211" fill="#84BE84" rx="3" ry="3" style="stroke: #038048; stroke-width: 1.0;"/><text fill="#000000" font-family="sans-serif" font-size="11" lengthAdjust="spacingAndGlyphs" textLength="226" x="26" y="113.9292">Promise add(SecurityContext,Resource)</text><ellipse cx="17" cy="124.4258" fill="#84BE84" rx="3" ry="3" style="stroke: #038048; stroke-width: 1.0;"/><text fill="#000000" font-family="sans-serif" font-size="11" lengthAdjust="spacingAndGlyphs" textLength="244" x="26" y="126.7339">Promise update(SecurityContext,Resource)</text><ellipse cx="17" cy="137.2305" fill="#84BE84" rx="3" ry="3" style="stroke: #038048; stroke-width: 1.0;"/><text fill="#000000" font-family="sans-serif" font-size="11" lengthAdjust="spacingAndGlyphs" textLength="293" x="26" y="139.5386">Promise remove(SecurityContext,(Resource|string))</text><ellipse cx="17" cy="150.0352" fill="#84BE84" rx="3" ry="3" style="stroke: #038048; stroke-width: 1.0;"/><text fill="#000000" font-family="sans-serif" font-size="11" lengthAdjust="spacingAndGlyphs" textLength="179" x="26" y="152.3433">Promise getAll(SecurityContext)</text><ellipse cx="17" cy="162.8398" fill="#84BE84" rx="3" ry="3" style="stroke: #038048; stroke-width: 1.0;"/><text fill="#000000" font-family="sans-serif" font-size="11" lengthAdjust="spacingAndGlyphs" textLength="203" x="26" y="165.1479">Promise resolveAll(SecurityContext)</text><ellipse cx="17" cy="175.6445" fill="#84BE84" rx="3" ry="3" style="stroke: #038048; stroke-width: 1.0;"/><text fill="#000000" font-family="sans-serif" font-size="11" lengthAdjust="spacingAndGlyphs" textLength="252" x="26" y="177.9526">Promise get(SecurityContext,string,boolean)</text><ellipse cx="17" cy="188.4492" fill="#84BE84" rx="3" ry="3" style="stroke: #038048; stroke-width: 1.0;"/><text fill="#000000" font-family="sans-serif" font-size="11" lengthAdjust="spacingAndGlyphs" textLength="227" x="26" y="190.7573">Promise resolve(SecurityContext,string)</text><!--class Registry--><rect fill="#FEFECE" filter="url(#fktwwjz)" height="48" style="stroke: #A80036; stroke-width: 1.5;" width="82" x="232.25" y="258"/><ellipse cx="247.25" cy="274" fill="#ADD1B2" rx="11" ry="11" style="stroke: #A80036; stroke-width: 1.0;"/><path d="M250.2188,279.6406 Q249.6406,279.9375 249,280.0859 Q248.3594,280.2344 247.6563,280.2344 Q245.1563,280.2344 243.8359,278.5859 Q242.5156,276.9375 242.5156,273.8125 Q242.5156,270.6875 243.8359,269.0313 Q245.1563,267.375 247.6563,267.375 Q248.3594,267.375 249.0078,267.5313 Q249.6563,267.6875 250.2188,267.9844 L250.2188,270.7031 Q249.5938,270.125 249,269.8516 Q248.4063,269.5781 247.7813,269.5781 Q246.4375,269.5781 245.75,270.6484 Q245.0625,271.7188 245.0625,273.8125 Q245.0625,275.9063 245.75,276.9766 Q246.4375,278.0469 247.7813,278.0469 Q248.4063,278.0469 249,277.7734 Q249.5938,277.5 250.2188,276.9219 L250.2188,279.6406 Z "/><text fill="#000000" font-family="sans-serif" font-size="12" lengthAdjust="spacingAndGlyphs" textLength="50" x="261.25" y="278.1543">Registry</text><line style="stroke: #A80036; stroke-width: 1.5;" x1="233.25" x2="313.25" y1="290" y2="290"/><line style="stroke: #A80036; stroke-width: 1.5;" x1="233.25" x2="313.25" y1="298" y2="298"/><path d="M273.25,197.683 C273.25,211.6762 273.25,225.4961 273.25,237.7368 " fill="none" style="stroke: #A80036; stroke-width: 1.0;"/><polygon fill="none" points="280.25,237.7609,273.25,257.7609,266.25,237.7608,280.25,237.7609" style="stroke: #A80036; stroke-width: 1.0;"/></g></svg>