<?xml version="1.0" encoding="UTF-8" standalone="no"?><svg xmlns="http://www.w3.org/2000/svg" xmlns:xlink="http://www.w3.org/1999/xlink" contentScriptType="application/ecmascript" contentStyleType="text/css" height="365px" preserveAspectRatio="none" style="width:932px;height:365px;" version="1.1" viewBox="0 0 932 365" width="932px" zoomAndPan="magnify"><defs><filter height="300%" id="fl1hv17" width="300%" x="-1" y="-1"><feGaussianBlur result="blurOut" stdDeviation="2.0"/><feColorMatrix in="blurOut" result="blurOut2" type="matrix" values="0 0 0 0 0 0 0 0 0 0 0 0 0 0 0 0 0 0 .4 0"/><feOffset dx="4.0" dy="4.0" in="blurOut2" result="blurOut3"/><feBlend in="SourceGraphic" in2="blurOut3" mode="normal"/></filter></defs><g><!--class AssetRegistry--><rect fill="#FEFECE" filter="url(#fl1hv17)" height="188.8516" style="stroke: #A80036; stroke-width: 1.5;" width="535" x="6" y="33.5"/><ellipse cx="226.75" cy="49.5" fill="#ADD1B2" rx="11" ry="11" style="stroke: #A80036; stroke-width: 1.0;"/><path d="M229.7188,55.1406 Q229.1406,55.4375 228.5,55.5859 Q227.8594,55.7344 227.1563,55.7344 Q224.6563,55.7344 223.3359,54.0859 Q222.0156,52.4375 222.0156,49.3125 Q222.0156,46.1875 223.3359,44.5313 Q224.6563,42.875 227.1563,42.875 Q227.8594,42.875 228.5078,43.0313 Q229.1563,43.1875 229.7188,43.4844 L229.7188,46.2031 Q229.0938,45.625 228.5,45.3516 Q227.9063,45.0781 227.2813,45.0781 Q225.9375,45.0781 225.25,46.1484 Q224.5625,47.2188 224.5625,49.3125 Q224.5625,51.4063 225.25,52.4766 Q225.9375,53.5469 227.2813,53.5469 Q227.9063,53.5469 228.5,53.2734 Q229.0938,53 229.7188,52.4219 L229.7188,55.1406 Z "/><text fill="#000000" font-family="sans-serif" font-size="12" lengthAdjust="spacingAndGlyphs" textLength="85" x="247.25" y="53.6543">AssetRegistry</text><line style="stroke: #A80036; stroke-width: 1.5;" x1="7" x2="540" y1="65.5" y2="65.5"/><line style="stroke: #A80036; stroke-width: 1.5;" x1="7" x2="540" y1="73.5" y2="73.5"/><ellipse cx="17" cy="85.4023" fill="#84BE84" rx="3" ry="3" style="stroke: #038048; stroke-width: 1.0;"/><text fill="#000000" font-family="sans-serif" font-size="11" lengthAdjust="spacingAndGlyphs" textLength="456" x="26" y="87.7104">Promise getAllAssetRegistries(SecurityContext,ModelManager,Factory,Serializer)</text><ellipse cx="17" cy="98.207" fill="#84BE84" rx="3" ry="3" style="stroke: #038048; stroke-width: 1.0;"/><text fill="#000000" font-family="sans-serif" font-size="11" lengthAdjust="spacingAndGlyphs" textLength="469" x="26" y="100.5151">Promise getAssetRegistry(SecurityContext,string,ModelManager,Factory,Serializer)</text><ellipse cx="17" cy="111.0117" fill="#84BE84" rx="3" ry="3" style="stroke: #038048; stroke-width: 1.0;"/><text fill="#000000" font-family="sans-serif" font-size="11" lengthAdjust="spacingAndGlyphs" textLength="509" x="26" y="113.3198">Promise addAssetRegistry(SecurityContext,string,string,ModelManager,Factory,Serializer)</text><ellipse cx="17" cy="123.8164" fill="#84BE84" rx="3" ry="3" style="stroke: #038048; stroke-width: 1.0;"/><text fill="#000000" font-family="sans-serif" font-size="11" lengthAdjust="spacingAndGlyphs" textLength="358" x="26" y="126.1245">void constructor(string,string,ModelManager,Factory,Serializer)</text><ellipse cx="17" cy="136.6211" fill="#84BE84" rx="3" ry="3" style="stroke: #038048; stroke-width: 1.0;"/><text fill="#000000" font-family="sans-serif" font-size="11" lengthAdjust="spacingAndGlyphs" textLength="226" x="26" y="138.9292">Promise add(SecurityContext,Resource)</text><ellipse cx="17" cy="149.4258" fill="#84BE84" rx="3" ry="3" style="stroke: #038048; stroke-width: 1.0;"/><text fill="#000000" font-family="sans-serif" font-size="11" lengthAdjust="spacingAndGlyphs" textLength="244" x="26" y="151.7339">Promise update(SecurityContext,Resource)</text><ellipse cx="17" cy="162.2305" fill="#84BE84" rx="3" ry="3" style="stroke: #038048; stroke-width: 1.0;"/><text fill="#000000" font-family="sans-serif" font-size="11" lengthAdjust="spacingAndGlyphs" textLength="293" x="26" y="164.5386">Promise remove(SecurityContext,(Resource|string))</text><ellipse cx="17" cy="175.0352" fill="#84BE84" rx="3" ry="3" style="stroke: #038048; stroke-width: 1.0;"/><text fill="#000000" font-family="sans-serif" font-size="11" lengthAdjust="spacingAndGlyphs" textLength="179" x="26" y="177.3433">Promise getAll(SecurityContext)</text><ellipse cx="17" cy="187.8398" fill="#84BE84" rx="3" ry="3" style="stroke: #038048; stroke-width: 1.0;"/><text fill="#000000" font-family="sans-serif" font-size="11" lengthAdjust="spacingAndGlyphs" textLength="203" x="26" y="190.1479">Promise resolveAll(SecurityContext)</text><ellipse cx="17" cy="200.6445" fill="#84BE84" rx="3" ry="3" style="stroke: #038048; stroke-width: 1.0;"/><text fill="#000000" font-family="sans-serif" font-size="11" lengthAdjust="spacingAndGlyphs" textLength="252" x="26" y="202.9526">Promise get(SecurityContext,string,boolean)</text><ellipse cx="17" cy="213.4492" fill="#84BE84" rx="3" ry="3" style="stroke: #038048; stroke-width: 1.0;"/><text fill="#000000" font-family="sans-serif" font-size="11" lengthAdjust="spacingAndGlyphs" textLength="227" x="26" y="215.7573">Promise resolve(SecurityContext,string)</text><!--class Registry--><rect fill="#FEFECE" filter="url(#fl1hv17)" height="48" style="stroke: #A80036; stroke-width: 1.5;" width="82" x="232.25" y="308"/><ellipse cx="247.25" cy="324" fill="#ADD1B2" rx="11" ry="11" style="stroke: #A80036; stroke-width: 1.0;"/><path d="M250.2188,329.6406 Q249.6406,329.9375 249,330.0859 Q248.3594,330.2344 247.6563,330.2344 Q245.1563,330.2344 243.8359,328.5859 Q242.5156,326.9375 242.5156,323.8125 Q242.5156,320.6875 243.8359,319.0313 Q245.1563,317.375 247.6563,317.375 Q248.3594,317.375 249.0078,317.5313 Q249.6563,317.6875 250.2188,317.9844 L250.2188,320.7031 Q249.5938,320.125 249,319.8516 Q248.4063,319.5781 247.7813,319.5781 Q246.4375,319.5781 245.75,320.6484 Q245.0625,321.7188 245.0625,323.8125 Q245.0625,325.9063 245.75,326.9766 Q246.4375,328.0469 247.7813,328.0469 Q248.4063,328.0469 249,327.7734 Q249.5938,327.5 250.2188,326.9219 L250.2188,329.6406 Z "/><text fill="#000000" font-family="sans-serif" font-size="12" lengthAdjust="spacingAndGlyphs" textLength="50" x="261.25" y="328.1543">Registry</text><line style="stroke: #A80036; stroke-width: 1.5;" x1="233.25" x2="313.25" y1="340" y2="340"/><line style="stroke: #A80036; stroke-width: 1.5;" x1="233.25" x2="313.25" y1="348" y2="348"/><!--class Concerto--><rect fill="#FEFECE" filter="url(#fl1hv17)" height="240.0703" style="stroke: #A80036; stroke-width: 1.5;" width="347" x="576" y="8"/><ellipse cx="716.75" cy="24" fill="#ADD1B2" rx="11" ry="11" style="stroke: #A80036; stroke-width: 1.0;"/><path d="M719.7188,29.6406 Q719.1406,29.9375 718.5,30.0859 Q717.8594,30.2344 717.1563,30.2344 Q714.6563,30.2344 713.3359,28.5859 Q712.0156,26.9375 712.0156,23.8125 Q712.0156,20.6875 713.3359,19.0313 Q714.6563,17.375 717.1563,17.375 Q717.8594,17.375 718.5078,17.5313 Q719.1563,17.6875 719.7188,17.9844 L719.7188,20.7031 Q719.0938,20.125 718.5,19.8516 Q717.9063,19.5781 717.2813,19.5781 Q715.9375,19.5781 715.25,20.6484 Q714.5625,21.7188 714.5625,23.8125 Q714.5625,25.9063 715.25,26.9766 Q715.9375,28.0469 717.2813,28.0469 Q717.9063,28.0469 718.5,27.7734 Q719.0938,27.5 719.7188,26.9219 L719.7188,29.6406 Z "/><text fill="#000000" font-family="sans-serif" font-size="12" lengthAdjust="spacingAndGlyphs" textLength="57" x="737.25" y="28.1543">Concerto</text><line style="stroke: #A80036; stroke-width: 1.5;" x1="577" x2="922" y1="40" y2="40"/><line style="stroke: #A80036; stroke-width: 1.5;" x1="577" x2="922" y1="48" y2="48"/><ellipse cx="587" cy="59.9023" fill="#84BE84" rx="3" ry="3" style="stroke: #038048; stroke-width: 1.0;"/><text fill="#000000" font-family="sans-serif" font-size="11" lengthAdjust="spacingAndGlyphs" textLength="185" x="596" y="62.2104">void constructor(Object,boolean)</text><ellipse cx="587" cy="72.707" fill="#84BE84" rx="3" ry="3" style="stroke: #038048; stroke-width: 1.0;"/><text fill="#000000" font-family="sans-serif" font-size="11" lengthAdjust="spacingAndGlyphs" textLength="268" x="596" y="75.0151">Promise getAllAssetRegistries(SecurityContext)</text><ellipse cx="587" cy="85.5117" fill="#84BE84" rx="3" ry="3" style="stroke: #038048; stroke-width: 1.0;"/><text fill="#000000" font-family="sans-serif" font-size="11" lengthAdjust="spacingAndGlyphs" textLength="281" x="596" y="87.8198">Promise getAssetRegistry(SecurityContext,string)</text><ellipse cx="587" cy="98.3164" fill="#84BE84" rx="3" ry="3" style="stroke: #038048; stroke-width: 1.0;"/><text fill="#000000" font-family="sans-serif" font-size="11" lengthAdjust="spacingAndGlyphs" textLength="321" x="596" y="100.6245">Promise addAssetRegistry(SecurityContext,string,string)</text><ellipse cx="587" cy="111.1211" fill="#84BE84" rx="3" ry="3" style="stroke: #038048; stroke-width: 1.0;"/><text fill="#000000" font-family="sans-serif" font-size="11" lengthAdjust="spacingAndGlyphs" textLength="279" x="596" y="113.4292">Promise getTransactionRegistry(SecurityContext)</text><ellipse cx="587" cy="123.9258" fill="#84BE84" rx="3" ry="3" style="stroke: #038048; stroke-width: 1.0;"/><text fill="#000000" font-family="sans-serif" font-size="11" lengthAdjust="spacingAndGlyphs" textLength="201" x="596" y="126.2339">Factory getFactory(SecurityContext)</text><ellipse cx="587" cy="136.7305" fill="#84BE84" rx="3" ry="3" style="stroke: #038048; stroke-width: 1.0;"/><text fill="#000000" font-family="sans-serif" font-size="11" lengthAdjust="spacingAndGlyphs" textLength="283" x="596" y="139.0386">ModelManager getModelManager(SecurityContext)</text><ellipse cx="587" cy="149.5352" fill="#84BE84" rx="3" ry="3" style="stroke: #038048; stroke-width: 1.0;"/><text fill="#000000" font-family="sans-serif" font-size="11" lengthAdjust="spacingAndGlyphs" textLength="225" x="596" y="151.8433">Serializer getSerializer(SecurityContext)</text><ellipse cx="587" cy="162.3398" fill="#84BE84" rx="3" ry="3" style="stroke: #038048; stroke-width: 1.0;"/><text fill="#000000" font-family="sans-serif" font-size="11" lengthAdjust="spacingAndGlyphs" textLength="287" x="596" y="164.6479">Promise connect(Object,string,string,string,string)</text><ellipse cx="587" cy="175.1445" fill="#84BE84" rx="3" ry="3" style="stroke: #038048; stroke-width: 1.0;"/><text fill="#000000" font-family="sans-serif" font-size="11" lengthAdjust="spacingAndGlyphs" textLength="120" x="596" y="177.4526">Promise disconnect()</text><ellipse cx="587" cy="187.9492" fill="#84BE84" rx="3" ry="3" style="stroke: #038048; stroke-width: 1.0;"/><text fill="#000000" font-family="sans-serif" font-size="11" lengthAdjust="spacingAndGlyphs" textLength="156" x="596" y="190.2573">Promise login(string,string)</text><ellipse cx="587" cy="200.7539" fill="#84BE84" rx="3" ry="3" style="stroke: #038048; stroke-width: 1.0;"/><text fill="#000000" font-family="sans-serif" font-size="11" lengthAdjust="spacingAndGlyphs" textLength="234" x="596" y="203.062">Promise deploy(SecurityContext,boolean)</text><ellipse cx="587" cy="213.5586" fill="#84BE84" rx="3" ry="3" style="stroke: #038048; stroke-width: 1.0;"/><text fill="#000000" font-family="sans-serif" font-size="11" lengthAdjust="spacingAndGlyphs" textLength="212" x="596" y="215.8667">Promise loadModels(SecurityContext)</text><ellipse cx="587" cy="226.3633" fill="#84BE84" rx="3" ry="3" style="stroke: #038048; stroke-width: 1.0;"/><text fill="#000000" font-family="sans-serif" font-size="11" lengthAdjust="spacingAndGlyphs" textLength="215" x="596" y="228.6714">Promise saveModels(SecurityContext)</text><ellipse cx="587" cy="239.168" fill="#84BE84" rx="3" ry="3" style="stroke: #038048; stroke-width: 1.0;"/><text fill="#000000" font-family="sans-serif" font-size="11" lengthAdjust="spacingAndGlyphs" textLength="311" x="596" y="241.4761">Promise submitTransaction(SecurityContext,Resource)</text><path d="M273.25,222.608 C273.25,245.306 273.25,268.505 273.25,287.5857 " fill="none" style="stroke: #A80036; stroke-width: 1.0;"/><polygon fill="none" points="280.25,287.8165,273.25,307.8165,266.25,287.8165,280.25,287.8165" style="stroke: #A80036; stroke-width: 1.0;"/></g></svg>