<?xml version="1.0" encoding="UTF-8" standalone="no"?><svg xmlns="http://www.w3.org/2000/svg" xmlns:xlink="http://www.w3.org/1999/xlink" contentScriptType="application/ecmascript" contentStyleType="text/css" height="154px" preserveAspectRatio="none" style="width:200px;height:154px;" version="1.1" viewBox="0 0 200 154" width="200px" zoomAndPan="magnify"><defs><filter height="300%" id="f5nhrgg" width="300%" x="-1" y="-1"><feGaussianBlur result="blurOut" stdDeviation="2.0"/><feColorMatrix in="blurOut" result="blurOut2" type="matrix" values="0 0 0 0 0 0 0 0 0 0 0 0 0 0 0 0 0 0 .4 0"/><feOffset dx="4.0" dy="4.0" in="blurOut2" result="blurOut3"/><feBlend in="SourceGraphic" in2="blurOut3" mode="normal"/></filter></defs><g><!--class ModelManager--><rect fill="#FEFECE" filter="url(#f5nhrgg)" height="137.6328" style="stroke: #A80036; stroke-width: 1.5;" width="185" x="6" y="8"/><ellipse cx="48.45" cy="24" fill="#ADD1B2" rx="11" ry="11" style="stroke: #A80036; stroke-width: 1.0;"/><path d="M51.4188,29.6406 Q50.8406,29.9375 50.2,30.0859 Q49.5594,30.2344 48.8563,30.2344 Q46.3563,30.2344 45.0359,28.5859 Q43.7156,26.9375 43.7156,23.8125 Q43.7156,20.6875 45.0359,19.0313 Q46.3563,17.375 48.8563,17.375 Q49.5594,17.375 50.2078,17.5313 Q50.8563,17.6875 51.4188,17.9844 L51.4188,20.7031 Q50.7938,20.125 50.2,19.8516 Q49.6063,19.5781 48.9813,19.5781 Q47.6375,19.5781 46.95,20.6484 Q46.2625,21.7188 46.2625,23.8125 Q46.2625,25.9063 46.95,26.9766 Q47.6375,28.0469 48.9813,28.0469 Q49.6063,28.0469 50.2,27.7734 Q50.7938,27.5 51.4188,26.9219 L51.4188,29.6406 Z "/><text fill="#000000" font-family="sans-serif" font-size="12" lengthAdjust="spacingAndGlyphs" textLength="92" x="68.55" y="28.1543">ModelManager</text><line style="stroke: #A80036; stroke-width: 1.5;" x1="7" x2="190" y1="40" y2="40"/><line style="stroke: #A80036; stroke-width: 1.5;" x1="7" x2="190" y1="48" y2="48"/><ellipse cx="17" cy="59.9023" fill="#84BE84" rx="3" ry="3" style="stroke: #038048; stroke-width: 1.0;"/><text fill="#000000" font-family="sans-serif" font-size="11" lengthAdjust="spacingAndGlyphs" textLength="100" x="26" y="62.2104">void constructor()</text><ellipse cx="17" cy="72.707" fill="#84BE84" rx="3" ry="3" style="stroke: #038048; stroke-width: 1.0;"/><text fill="#000000" font-family="sans-serif" font-size="11" lengthAdjust="spacingAndGlyphs" textLength="141" x="26" y="75.0151">void addModelFile(string)</text><ellipse cx="17" cy="85.5117" fill="#84BE84" rx="3" ry="3" style="stroke: #038048; stroke-width: 1.0;"/><text fill="#000000" font-family="sans-serif" font-size="11" lengthAdjust="spacingAndGlyphs" textLength="159" x="26" y="87.8198">void updateModelFile(string)</text><ellipse cx="17" cy="98.3164" fill="#84BE84" rx="3" ry="3" style="stroke: #038048; stroke-width: 1.0;"/><text fill="#000000" font-family="sans-serif" font-size="11" lengthAdjust="spacingAndGlyphs" textLength="155" x="26" y="100.6245">void deleteModelFile(string)</text><ellipse cx="17" cy="111.1211" fill="#84BE84" rx="3" ry="3" style="stroke: #038048; stroke-width: 1.0;"/><text fill="#000000" font-family="sans-serif" font-size="11" lengthAdjust="spacingAndGlyphs" textLength="156" x="26" y="113.4292">void addModelFiles(string[])</text><ellipse cx="17" cy="123.9258" fill="#84BE84" rx="3" ry="3" style="stroke: #038048; stroke-width: 1.0;"/><text fill="#000000" font-family="sans-serif" font-size="11" lengthAdjust="spacingAndGlyphs" textLength="122" x="26" y="126.2339">void clearModelFiles()</text><ellipse cx="17" cy="136.7305" fill="#84BE84" rx="3" ry="3" style="stroke: #038048; stroke-width: 1.0;"/><text fill="#000000" font-family="sans-serif" font-size="11" lengthAdjust="spacingAndGlyphs" textLength="145" x="26" y="139.0386">string[] getNamespaces()</text></g></svg>