<?xml version="1.0" encoding="UTF-8" standalone="no"?><svg xmlns="http://www.w3.org/2000/svg" xmlns:xlink="http://www.w3.org/1999/xlink" contentScriptType="application/ecmascript" contentStyleType="text/css" height="180px" preserveAspectRatio="none" style="width:367px;height:180px;" version="1.1" viewBox="0 0 367 180" width="367px" zoomAndPan="magnify"><defs><filter height="300%" id="fnr7k0m" width="300%" x="-1" y="-1"><feGaussianBlur result="blurOut" stdDeviation="2.0"/><feColorMatrix in="blurOut" result="blurOut2" type="matrix" values="0 0 0 0 0 0 0 0 0 0 0 0 0 0 0 0 0 0 .4 0"/><feOffset dx="4.0" dy="4.0" in="blurOut2" result="blurOut3"/><feBlend in="SourceGraphic" in2="blurOut3" mode="normal"/></filter></defs><g><!--class Registry--><rect fill="#FEFECE" filter="url(#fnr7k0m)" height="163.2422" style="stroke: #A80036; stroke-width: 1.5;" width="352" x="6" y="8.5"/><ellipse cx="152.75" cy="24.5" fill="#ADD1B2" rx="11" ry="11" style="stroke: #A80036; stroke-width: 1.0;"/><path d="M155.7188,30.1406 Q155.1406,30.4375 154.5,30.5859 Q153.8594,30.7344 153.1563,30.7344 Q150.6563,30.7344 149.3359,29.0859 Q148.0156,27.4375 148.0156,24.3125 Q148.0156,21.1875 149.3359,19.5313 Q150.6563,17.875 153.1563,17.875 Q153.8594,17.875 154.5078,18.0313 Q155.1563,18.1875 155.7188,18.4844 L155.7188,21.2031 Q155.0938,20.625 154.5,20.3516 Q153.9063,20.0781 153.2813,20.0781 Q151.9375,20.0781 151.25,21.1484 Q150.5625,22.2188 150.5625,24.3125 Q150.5625,26.4063 151.25,27.4766 Q151.9375,28.5469 153.2813,28.5469 Q153.9063,28.5469 154.5,28.2734 Q155.0938,28 155.7188,27.4219 L155.7188,30.1406 Z "/><text fill="#000000" font-family="sans-serif" font-size="12" lengthAdjust="spacingAndGlyphs" textLength="50" x="173.25" y="28.6543">Registry</text><line style="stroke: #A80036; stroke-width: 1.5;" x1="7" x2="357" y1="40.5" y2="40.5"/><line style="stroke: #A80036; stroke-width: 1.5;" x1="7" x2="357" y1="48.5" y2="48.5"/><ellipse cx="17" cy="60.4023" fill="#84BE84" rx="3" ry="3" style="stroke: #038048; stroke-width: 1.0;"/><text fill="#000000" font-family="sans-serif" font-size="11" lengthAdjust="spacingAndGlyphs" textLength="273" x="26" y="62.7104">Promise getAllRegistries(SecurityContext,string)</text><ellipse cx="17" cy="73.207" fill="#84BE84" rx="3" ry="3" style="stroke: #038048; stroke-width: 1.0;"/><text fill="#000000" font-family="sans-serif" font-size="11" lengthAdjust="spacingAndGlyphs" textLength="286" x="26" y="75.5151">Promise getRegistry(SecurityContext,string,string)</text><ellipse cx="17" cy="86.0117" fill="#84BE84" rx="3" ry="3" style="stroke: #038048; stroke-width: 1.0;"/><text fill="#000000" font-family="sans-serif" font-size="11" lengthAdjust="spacingAndGlyphs" textLength="326" x="26" y="88.3198">Promise addRegistry(SecurityContext,string,string,string)</text><ellipse cx="17" cy="98.8164" fill="#84BE84" rx="3" ry="3" style="stroke: #038048; stroke-width: 1.0;"/><text fill="#000000" font-family="sans-serif" font-size="11" lengthAdjust="spacingAndGlyphs" textLength="207" x="26" y="101.1245">void constructor(string,string,string)</text><ellipse cx="17" cy="111.6211" fill="#84BE84" rx="3" ry="3" style="stroke: #038048; stroke-width: 1.0;"/><text fill="#000000" font-family="sans-serif" font-size="11" lengthAdjust="spacingAndGlyphs" textLength="280" x="26" y="113.9292">Promise add(SecurityContext,string,string,string)</text><ellipse cx="17" cy="124.4258" fill="#84BE84" rx="3" ry="3" style="stroke: #038048; stroke-width: 1.0;"/><text fill="#000000" font-family="sans-serif" font-size="11" lengthAdjust="spacingAndGlyphs" textLength="298" x="26" y="126.7339">Promise update(SecurityContext,string,string,string)</text><ellipse cx="17" cy="137.2305" fill="#84BE84" rx="3" ry="3" style="stroke: #038048; stroke-width: 1.0;"/><text fill="#000000" font-family="sans-serif" font-size="11" lengthAdjust="spacingAndGlyphs" textLength="265" x="26" y="139.5386">Promise remove(SecurityContext,string,string)</text><ellipse cx="17" cy="150.0352" fill="#84BE84" rx="3" ry="3" style="stroke: #038048; stroke-width: 1.0;"/><text fill="#000000" font-family="sans-serif" font-size="11" lengthAdjust="spacingAndGlyphs" textLength="268" x="26" y="152.3433">Promise getAll(SecurityContext,Object,boolean)</text><ellipse cx="17" cy="162.8398" fill="#84BE84" rx="3" ry="3" style="stroke: #038048; stroke-width: 1.0;"/><text fill="#000000" font-family="sans-serif" font-size="11" lengthAdjust="spacingAndGlyphs" textLength="292" x="26" y="165.1479">Promise get(SecurityContext,string,Object,boolean)</text></g></svg>