<?xml version="1.0" encoding="UTF-8" standalone="no"?><svg xmlns="http://www.w3.org/2000/svg" xmlns:xlink="http://www.w3.org/1999/xlink" contentScriptType="application/ecmascript" contentStyleType="text/css" height="211px" preserveAspectRatio="none" style="width:243px;height:211px;" version="1.1" viewBox="0 0 243 211" width="243px" zoomAndPan="magnify"><defs><filter height="300%" id="farddi8" width="300%" x="-1" y="-1"><feGaussianBlur result="blurOut" stdDeviation="2.0"/><feColorMatrix in="blurOut" result="blurOut2" type="matrix" values="0 0 0 0 0 0 0 0 0 0 0 0 0 0 0 0 0 0 .4 0"/><feOffset dx="4.0" dy="4.0" in="blurOut2" result="blurOut3"/><feBlend in="SourceGraphic" in2="blurOut3" mode="normal"/></filter></defs><g><!--class Resource--><rect fill="#FEFECE" filter="url(#farddi8)" height="86.4141" style="stroke: #A80036; stroke-width: 1.5;" width="228" x="6" y="8"/><ellipse cx="86.25" cy="24" fill="#ADD1B2" rx="11" ry="11" style="stroke: #A80036; stroke-width: 1.0;"/><path d="M89.2188,29.6406 Q88.6406,29.9375 88,30.0859 Q87.3594,30.2344 86.6563,30.2344 Q84.1563,30.2344 82.8359,28.5859 Q81.5156,26.9375 81.5156,23.8125 Q81.5156,20.6875 82.8359,19.0313 Q84.1563,17.375 86.6563,17.375 Q87.3594,17.375 88.0078,17.5313 Q88.6563,17.6875 89.2188,17.9844 L89.2188,20.7031 Q88.5938,20.125 88,19.8516 Q87.4063,19.5781 86.7813,19.5781 Q85.4375,19.5781 84.75,20.6484 Q84.0625,21.7188 84.0625,23.8125 Q84.0625,25.9063 84.75,26.9766 Q85.4375,28.0469 86.7813,28.0469 Q87.4063,28.0469 88,27.7734 Q88.5938,27.5 89.2188,26.9219 L89.2188,29.6406 Z "/><text fill="#000000" font-family="sans-serif" font-size="12" lengthAdjust="spacingAndGlyphs" textLength="59" x="106.75" y="28.1543">Resource</text><line style="stroke: #A80036; stroke-width: 1.5;" x1="7" x2="233" y1="40" y2="40"/><line style="stroke: #A80036; stroke-width: 1.5;" x1="7" x2="233" y1="48" y2="48"/><ellipse cx="17" cy="59.9023" fill="#84BE84" rx="3" ry="3" style="stroke: #038048; stroke-width: 1.0;"/><text fill="#000000" font-family="sans-serif" font-size="11" lengthAdjust="spacingAndGlyphs" textLength="202" x="26" y="62.2104">void setPropertyValue(string,string)</text><ellipse cx="17" cy="72.707" fill="#84BE84" rx="3" ry="3" style="stroke: #038048; stroke-width: 1.0;"/><text fill="#000000" font-family="sans-serif" font-size="11" lengthAdjust="spacingAndGlyphs" textLength="187" x="26" y="75.0151">void addArrayValue(string,string)</text><ellipse cx="17" cy="85.5117" fill="#84BE84" rx="3" ry="3" style="stroke: #038048; stroke-width: 1.0;"/><text fill="#000000" font-family="sans-serif" font-size="11" lengthAdjust="spacingAndGlyphs" textLength="91" x="26" y="87.8198">String toString()</text><!--class Identifiable--><rect fill="#FEFECE" filter="url(#farddi8)" height="48" style="stroke: #A80036; stroke-width: 1.5;" width="101" x="69.75" y="154"/><ellipse cx="84.75" cy="170" fill="#ADD1B2" rx="11" ry="11" style="stroke: #A80036; stroke-width: 1.0;"/><path d="M87.7188,175.6406 Q87.1406,175.9375 86.5,176.0859 Q85.8594,176.2344 85.1563,176.2344 Q82.6563,176.2344 81.3359,174.5859 Q80.0156,172.9375 80.0156,169.8125 Q80.0156,166.6875 81.3359,165.0313 Q82.6563,163.375 85.1563,163.375 Q85.8594,163.375 86.5078,163.5313 Q87.1563,163.6875 87.7188,163.9844 L87.7188,166.7031 Q87.0938,166.125 86.5,165.8516 Q85.9063,165.5781 85.2813,165.5781 Q83.9375,165.5781 83.25,166.6484 Q82.5625,167.7188 82.5625,169.8125 Q82.5625,171.9063 83.25,172.9766 Q83.9375,174.0469 85.2813,174.0469 Q85.9063,174.0469 86.5,173.7734 Q87.0938,173.5 87.7188,172.9219 L87.7188,175.6406 Z "/><text fill="#000000" font-family="sans-serif" font-size="12" lengthAdjust="spacingAndGlyphs" textLength="69" x="98.75" y="174.1543">Identifiable</text><line style="stroke: #A80036; stroke-width: 1.5;" x1="70.75" x2="169.75" y1="186" y2="186"/><line style="stroke: #A80036; stroke-width: 1.5;" x1="70.75" x2="169.75" y1="194" y2="194"/><path d="M120,94.319 C120,106.869 120,120.6347 120,133.2718 " fill="none" style="stroke: #A80036; stroke-width: 1.0;"/><polygon fill="none" points="127,133.6717,120,153.6717,113,133.6717,127,133.6717" style="stroke: #A80036; stroke-width: 1.0;"/></g></svg>