<?xml version="1.0" encoding="UTF-8" standalone="no"?><svg xmlns="http://www.w3.org/2000/svg" xmlns:xlink="http://www.w3.org/1999/xlink" contentScriptType="application/ecmascript" contentStyleType="text/css" height="391px" preserveAspectRatio="none" style="width:277px;height:391px;" version="1.1" viewBox="0 0 277 391" width="277px" zoomAndPan="magnify"><defs><filter height="300%" id="f3hf03l" width="300%" x="-1" y="-1"><feGaussianBlur result="blurOut" stdDeviation="2.0"/><feColorMatrix in="blurOut" result="blurOut2" type="matrix" values="0 0 0 0 0 0 0 0 0 0 0 0 0 0 0 0 0 0 .4 0"/><feOffset dx="4.0" dy="4.0" in="blurOut2" result="blurOut3"/><feBlend in="SourceGraphic" in2="blurOut3" mode="normal"/></filter></defs><g><!--class Property--><rect fill="#FEFECE" filter="url(#f3hf03l)" height="240.0703" style="stroke: #A80036; stroke-width: 1.5;" width="262" x="6" y="142"/><ellipse cx="106.25" cy="158" fill="#ADD1B2" rx="11" ry="11" style="stroke: #A80036; stroke-width: 1.0;"/><path d="M109.2188,163.6406 Q108.6406,163.9375 108,164.0859 Q107.3594,164.2344 106.6563,164.2344 Q104.1563,164.2344 102.8359,162.5859 Q101.5156,160.9375 101.5156,157.8125 Q101.5156,154.6875 102.8359,153.0313 Q104.1563,151.375 106.6563,151.375 Q107.3594,151.375 108.0078,151.5313 Q108.6563,151.6875 109.2188,151.9844 L109.2188,154.7031 Q108.5938,154.125 108,153.8516 Q107.4063,153.5781 106.7813,153.5781 Q105.4375,153.5781 104.75,154.6484 Q104.0625,155.7188 104.0625,157.8125 Q104.0625,159.9063 104.75,160.9766 Q105.4375,162.0469 106.7813,162.0469 Q107.4063,162.0469 108,161.7734 Q108.5938,161.5 109.2188,160.9219 L109.2188,163.6406 Z "/><text fill="#000000" font-family="sans-serif" font-size="12" lengthAdjust="spacingAndGlyphs" textLength="53" x="126.75" y="162.1543">Property</text><line style="stroke: #A80036; stroke-width: 1.5;" x1="7" x2="267" y1="174" y2="174"/><line style="stroke: #A80036; stroke-width: 1.5;" x1="7" x2="267" y1="182" y2="182"/><ellipse cx="17" cy="193.9023" fill="#84BE84" rx="3" ry="3" style="stroke: #038048; stroke-width: 1.0;"/><text fill="#000000" font-family="sans-serif" font-size="11" lengthAdjust="spacingAndGlyphs" textLength="236" x="26" y="196.2104">void constructor(ClassDeclaration,Object)</text><rect fill="#F24D5C" height="6" style="stroke: #C82930; stroke-width: 1.0;" width="6" x="14" y="203.707"/><text fill="#000000" font-family="sans-serif" font-size="11" lengthAdjust="spacingAndGlyphs" textLength="161" x="26" y="209.0151">Object accept(Object,Object)</text><ellipse cx="17" cy="219.5117" fill="#84BE84" rx="3" ry="3" style="stroke: #038048; stroke-width: 1.0;"/><text fill="#000000" font-family="sans-serif" font-size="11" lengthAdjust="spacingAndGlyphs" textLength="163" x="26" y="221.8198">ClassDeclaration getParent()</text><rect fill="#F24D5C" height="6" style="stroke: #C82930; stroke-width: 1.0;" width="6" x="14" y="229.3164"/><text fill="#000000" font-family="sans-serif" font-size="11" lengthAdjust="spacingAndGlyphs" textLength="81" x="26" y="234.6245">void process()</text><rect fill="#F24D5C" height="6" style="stroke: #C82930; stroke-width: 1.0;" width="6" x="14" y="242.1211"/><text fill="#000000" font-family="sans-serif" font-size="11" lengthAdjust="spacingAndGlyphs" textLength="175" x="26" y="247.4292">void validate(ClassDeclaration)</text><ellipse cx="17" cy="257.9258" fill="#84BE84" rx="3" ry="3" style="stroke: #038048; stroke-width: 1.0;"/><text fill="#000000" font-family="sans-serif" font-size="11" lengthAdjust="spacingAndGlyphs" textLength="96" x="26" y="260.2339">string getName()</text><ellipse cx="17" cy="270.7305" fill="#84BE84" rx="3" ry="3" style="stroke: #038048; stroke-width: 1.0;"/><text fill="#000000" font-family="sans-serif" font-size="11" lengthAdjust="spacingAndGlyphs" textLength="90" x="26" y="273.0386">string getType()</text><ellipse cx="17" cy="283.5352" fill="#84BE84" rx="3" ry="3" style="stroke: #038048; stroke-width: 1.0;"/><text fill="#000000" font-family="sans-serif" font-size="11" lengthAdjust="spacingAndGlyphs" textLength="114" x="26" y="285.8433">boolean isOptional()</text><ellipse cx="17" cy="296.3398" fill="#84BE84" rx="3" ry="3" style="stroke: #038048; stroke-width: 1.0;"/><text fill="#000000" font-family="sans-serif" font-size="11" lengthAdjust="spacingAndGlyphs" textLength="198" x="26" y="298.6479">string getFullyQualifiedTypeName()</text><ellipse cx="17" cy="309.1445" fill="#84BE84" rx="3" ry="3" style="stroke: #038048; stroke-width: 1.0;"/><text fill="#000000" font-family="sans-serif" font-size="11" lengthAdjust="spacingAndGlyphs" textLength="130" x="26" y="311.4526">string getNamespace()</text><ellipse cx="17" cy="321.9492" fill="#84BE84" rx="3" ry="3" style="stroke: #038048; stroke-width: 1.0;"/><text fill="#000000" font-family="sans-serif" font-size="11" lengthAdjust="spacingAndGlyphs" textLength="97" x="26" y="324.2573">boolean isArray()</text><ellipse cx="17" cy="334.7539" fill="#84BE84" rx="3" ry="3" style="stroke: #038048; stroke-width: 1.0;"/><text fill="#000000" font-family="sans-serif" font-size="11" lengthAdjust="spacingAndGlyphs" textLength="126" x="26" y="337.062">boolean isTypeEnum()</text><ellipse cx="17" cy="347.5586" fill="#84BE84" rx="3" ry="3" style="stroke: #038048; stroke-width: 1.0;"/><text fill="#000000" font-family="sans-serif" font-size="11" lengthAdjust="spacingAndGlyphs" textLength="116" x="26" y="349.8667">boolean isPrimitive()</text><ellipse cx="17" cy="360.3633" fill="#84BE84" rx="3" ry="3" style="stroke: #038048; stroke-width: 1.0;"/><text fill="#000000" font-family="sans-serif" font-size="11" lengthAdjust="spacingAndGlyphs" textLength="91" x="26" y="362.6714">String toString()</text><ellipse cx="17" cy="373.168" fill="#84BE84" rx="3" ry="3" style="stroke: #038048; stroke-width: 1.0;"/><text fill="#000000" font-family="sans-serif" font-size="11" lengthAdjust="spacingAndGlyphs" textLength="87" x="26" y="375.4761">Object toJSON()</text><!--class EnumValueDeclaration--><rect fill="#FEFECE" filter="url(#f3hf03l)" height="73.6094" style="stroke: #A80036; stroke-width: 1.5;" width="262" x="6" y="8"/><ellipse cx="61.75" cy="24" fill="#ADD1B2" rx="11" ry="11" style="stroke: #A80036; stroke-width: 1.0;"/><path d="M64.7188,29.6406 Q64.1406,29.9375 63.5,30.0859 Q62.8594,30.2344 62.1563,30.2344 Q59.6563,30.2344 58.3359,28.5859 Q57.0156,26.9375 57.0156,23.8125 Q57.0156,20.6875 58.3359,19.0313 Q59.6563,17.375 62.1563,17.375 Q62.8594,17.375 63.5078,17.5313 Q64.1563,17.6875 64.7188,17.9844 L64.7188,20.7031 Q64.0938,20.125 63.5,19.8516 Q62.9063,19.5781 62.2813,19.5781 Q60.9375,19.5781 60.25,20.6484 Q59.5625,21.7188 59.5625,23.8125 Q59.5625,25.9063 60.25,26.9766 Q60.9375,28.0469 62.2813,28.0469 Q62.9063,28.0469 63.5,27.7734 Q64.0938,27.5 64.7188,26.9219 L64.7188,29.6406 Z "/><text fill="#000000" font-family="sans-serif" font-size="12" lengthAdjust="spacingAndGlyphs" textLength="142" x="82.25" y="28.1543">EnumValueDeclaration</text><line style="stroke: #A80036; stroke-width: 1.5;" x1="7" x2="267" y1="40" y2="40"/><line style="stroke: #A80036; stroke-width: 1.5;" x1="7" x2="267" y1="48" y2="48"/><ellipse cx="17" cy="59.9023" fill="#84BE84" rx="3" ry="3" style="stroke: #038048; stroke-width: 1.0;"/><text fill="#000000" font-family="sans-serif" font-size="11" lengthAdjust="spacingAndGlyphs" textLength="236" x="26" y="62.2104">void constructor(ClassDeclaration,Object)</text><rect fill="#F24D5C" height="6" style="stroke: #C82930; stroke-width: 1.0;" width="6" x="14" y="69.707"/><text fill="#000000" font-family="sans-serif" font-size="11" lengthAdjust="spacingAndGlyphs" textLength="175" x="26" y="75.0151">void validate(ClassDeclaration)</text><path d="M137,82.472 C137,93.872 137,107.201 137,121.349 " fill="none" style="stroke: #A80036; stroke-width: 1.0;"/><polygon fill="none" points="144,121.779,137,141.779,130,121.779,144,121.779" style="stroke: #A80036; stroke-width: 1.0;"/></g></svg>