<?xml version="1.0" encoding="UTF-8" standalone="no"?><svg xmlns="http://www.w3.org/2000/svg" xmlns:xlink="http://www.w3.org/1999/xlink" contentScriptType="application/ecmascript" contentStyleType="text/css" height="142px" preserveAspectRatio="none" style="width:418px;height:142px;" version="1.1" viewBox="0 0 418 142" width="418px" zoomAndPan="magnify"><defs><filter height="300%" id="fkycjdz" width="300%" x="-1" y="-1"><feGaussianBlur result="blurOut" stdDeviation="2.0"/><feColorMatrix in="blurOut" result="blurOut2" type="matrix" values="0 0 0 0 0 0 0 0 0 0 0 0 0 0 0 0 0 0 .4 0"/><feOffset dx="4.0" dy="4.0" in="blurOut2" result="blurOut3"/><feBlend in="SourceGraphic" in2="blurOut3" mode="normal"/></filter></defs><g><!--class JSONPopulator--><rect fill="#FEFECE" filter="url(#fkycjdz)" height="124.8281" style="stroke: #A80036; stroke-width: 1.5;" width="403" x="6" y="8.5"/><ellipse cx="158.25" cy="24.5" fill="#ADD1B2" rx="11" ry="11" style="stroke: #A80036; stroke-width: 1.0;"/><path d="M161.2188,30.1406 Q160.6406,30.4375 160,30.5859 Q159.3594,30.7344 158.6563,30.7344 Q156.1563,30.7344 154.8359,29.0859 Q153.5156,27.4375 153.5156,24.3125 Q153.5156,21.1875 154.8359,19.5313 Q156.1563,17.875 158.6563,17.875 Q159.3594,17.875 160.0078,18.0313 Q160.6563,18.1875 161.2188,18.4844 L161.2188,21.2031 Q160.5938,20.625 160,20.3516 Q159.4063,20.0781 158.7813,20.0781 Q157.4375,20.0781 156.75,21.1484 Q156.0625,22.2188 156.0625,24.3125 Q156.0625,26.4063 156.75,27.4766 Q157.4375,28.5469 158.7813,28.5469 Q159.4063,28.5469 160,28.2734 Q160.5938,28 161.2188,27.4219 L161.2188,30.1406 Z "/><text fill="#000000" font-family="sans-serif" font-size="12" lengthAdjust="spacingAndGlyphs" textLength="90" x="178.75" y="28.6543">JSONPopulator</text><line style="stroke: #A80036; stroke-width: 1.5;" x1="7" x2="408" y1="40.5" y2="40.5"/><line style="stroke: #A80036; stroke-width: 1.5;" x1="7" x2="408" y1="48.5" y2="48.5"/><rect fill="#F24D5C" height="6" style="stroke: #C82930; stroke-width: 1.0;" width="6" x="14" y="57.4023"/><text fill="#000000" font-family="sans-serif" font-size="11" lengthAdjust="spacingAndGlyphs" textLength="147" x="26" y="62.7104">Object visit(Object,Object)</text><rect fill="#F24D5C" height="6" style="stroke: #C82930; stroke-width: 1.0;" width="6" x="14" y="70.207"/><text fill="#000000" font-family="sans-serif" font-size="11" lengthAdjust="spacingAndGlyphs" textLength="303" x="26" y="75.5151">Object visitClassDeclaration(ClassDeclaration,Object)</text><rect fill="#F24D5C" height="6" style="stroke: #C82930; stroke-width: 1.0;" width="6" x="14" y="83.0117"/><text fill="#000000" font-family="sans-serif" font-size="11" lengthAdjust="spacingAndGlyphs" textLength="163" x="26" y="88.3198">Object visitField(Field,Object)</text><ellipse cx="17" cy="98.8164" fill="#84BE84" rx="3" ry="3" style="stroke: #038048; stroke-width: 1.0;"/><text fill="#000000" font-family="sans-serif" font-size="11" lengthAdjust="spacingAndGlyphs" textLength="221" x="26" y="101.1245">Object convertItem(Field,Object,Object)</text><ellipse cx="17" cy="111.6211" fill="#84BE84" rx="3" ry="3" style="stroke: #038048; stroke-width: 1.0;"/><text fill="#000000" font-family="sans-serif" font-size="11" lengthAdjust="spacingAndGlyphs" textLength="203" x="26" y="113.9292">string convertToObject(Field,Object)</text><rect fill="#F24D5C" height="6" style="stroke: #C82930; stroke-width: 1.0;" width="6" x="14" y="121.4258"/><text fill="#000000" font-family="sans-serif" font-size="11" lengthAdjust="spacingAndGlyphs" textLength="377" x="26" y="126.7339">Object visitRelationshipDeclaration(RelationshipDeclaration,Object)</text></g></svg>