<?xml version="1.0" encoding="UTF-8" standalone="no"?><svg xmlns="http://www.w3.org/2000/svg" xmlns:xlink="http://www.w3.org/1999/xlink" contentScriptType="application/ecmascript" contentStyleType="text/css" height="648px" preserveAspectRatio="none" style="width:2814px;height:648px;" version="1.1" viewBox="0 0 2814 648" width="2814px" zoomAndPan="magnify"><defs><filter height="300%" id="fkngnog" width="300%" x="-1" y="-1"><feGaussianBlur result="blurOut" stdDeviation="2.0"/><feColorMatrix in="blurOut" result="blurOut2" type="matrix" values="0 0 0 0 0 0 0 0 0 0 0 0 0 0 0 0 0 0 .4 0"/><feOffset dx="4.0" dy="4.0" in="blurOut2" result="blurOut3"/><feBlend in="SourceGraphic" in2="blurOut3" mode="normal"/></filter></defs><g><!--class parser--><rect fill="#FEFECE" filter="url(#fkngnog)" height="48" style="stroke: #A80036; stroke-width: 1.5;" width="73" x="145" y="79"/><ellipse cx="160" cy="95" fill="#DA70D6" rx="11" ry="11" style="stroke: #A80036; stroke-width: 1.0;"/><path d="M159.7969,90.6719 L159.7969,94.2969 L160.7969,94.2969 Q162,94.2969 162.4844,93.8906 Q162.9688,93.4844 162.9688,92.4844 Q162.9688,91.4844 162.4844,91.0781 Q162,90.6719 160.7969,90.6719 L159.7969,90.6719 Z M157.3438,88.6094 L160.7031,88.6094 Q163.2656,88.6094 164.3906,89.5234 Q165.5156,90.4375 165.5156,92.4844 Q165.5156,94.5313 164.3906,95.4453 Q163.2656,96.3594 160.7031,96.3594 L159.7969,96.3594 L159.7969,101 L157.3438,101 L157.3438,88.6094 Z "/><text fill="#000000" font-family="sans-serif" font-size="12" lengthAdjust="spacingAndGlyphs" textLength="41" x="174" y="99.1543">parser</text><line style="stroke: #A80036; stroke-width: 1.5;" x1="146" x2="217" y1="111" y2="111"/><line style="stroke: #A80036; stroke-width: 1.5;" x1="146" x2="217" y1="119" y2="119"/><!--class Property--><rect fill="#FEFECE" filter="url(#fkngnog)" height="240.0703" style="stroke: #A80036; stroke-width: 1.5;" width="262" x="838.25" y="329"/><ellipse cx="938.5" cy="345" fill="#ADD1B2" rx="11" ry="11" style="stroke: #A80036; stroke-width: 1.0;"/><path d="M941.4688,350.6406 Q940.8906,350.9375 940.25,351.0859 Q939.6094,351.2344 938.9063,351.2344 Q936.4063,351.2344 935.0859,349.5859 Q933.7656,347.9375 933.7656,344.8125 Q933.7656,341.6875 935.0859,340.0313 Q936.4063,338.375 938.9063,338.375 Q939.6094,338.375 940.2578,338.5313 Q940.9063,338.6875 941.4688,338.9844 L941.4688,341.7031 Q940.8438,341.125 940.25,340.8516 Q939.6563,340.5781 939.0313,340.5781 Q937.6875,340.5781 937,341.6484 Q936.3125,342.7188 936.3125,344.8125 Q936.3125,346.9063 937,347.9766 Q937.6875,349.0469 939.0313,349.0469 Q939.6563,349.0469 940.25,348.7734 Q940.8438,348.5 941.4688,347.9219 L941.4688,350.6406 Z "/><text fill="#000000" font-family="sans-serif" font-size="12" lengthAdjust="spacingAndGlyphs" textLength="53" x="959" y="349.1543">Property</text><line style="stroke: #A80036; stroke-width: 1.5;" x1="839.25" x2="1099.25" y1="361" y2="361"/><line style="stroke: #A80036; stroke-width: 1.5;" x1="839.25" x2="1099.25" y1="369" y2="369"/><ellipse cx="849.25" cy="380.9023" fill="#84BE84" rx="3" ry="3" style="stroke: #038048; stroke-width: 1.0;"/><text fill="#000000" font-family="sans-serif" font-size="11" lengthAdjust="spacingAndGlyphs" textLength="236" x="858.25" y="383.2104">void constructor(ClassDeclaration,Object)</text><rect fill="#F24D5C" height="6" style="stroke: #C82930; stroke-width: 1.0;" width="6" x="846.25" y="390.707"/><text fill="#000000" font-family="sans-serif" font-size="11" lengthAdjust="spacingAndGlyphs" textLength="161" x="858.25" y="396.0151">Object accept(Object,Object)</text><ellipse cx="849.25" cy="406.5117" fill="#84BE84" rx="3" ry="3" style="stroke: #038048; stroke-width: 1.0;"/><text fill="#000000" font-family="sans-serif" font-size="11" lengthAdjust="spacingAndGlyphs" textLength="163" x="858.25" y="408.8198">ClassDeclaration getParent()</text><rect fill="#F24D5C" height="6" style="stroke: #C82930; stroke-width: 1.0;" width="6" x="846.25" y="416.3164"/><text fill="#000000" font-family="sans-serif" font-size="11" lengthAdjust="spacingAndGlyphs" textLength="81" x="858.25" y="421.6245">void process()</text><rect fill="#F24D5C" height="6" style="stroke: #C82930; stroke-width: 1.0;" width="6" x="846.25" y="429.1211"/><text fill="#000000" font-family="sans-serif" font-size="11" lengthAdjust="spacingAndGlyphs" textLength="175" x="858.25" y="434.4292">void validate(ClassDeclaration)</text><ellipse cx="849.25" cy="444.9258" fill="#84BE84" rx="3" ry="3" style="stroke: #038048; stroke-width: 1.0;"/><text fill="#000000" font-family="sans-serif" font-size="11" lengthAdjust="spacingAndGlyphs" textLength="96" x="858.25" y="447.2339">string getName()</text><ellipse cx="849.25" cy="457.7305" fill="#84BE84" rx="3" ry="3" style="stroke: #038048; stroke-width: 1.0;"/><text fill="#000000" font-family="sans-serif" font-size="11" lengthAdjust="spacingAndGlyphs" textLength="90" x="858.25" y="460.0386">string getType()</text><ellipse cx="849.25" cy="470.5352" fill="#84BE84" rx="3" ry="3" style="stroke: #038048; stroke-width: 1.0;"/><text fill="#000000" font-family="sans-serif" font-size="11" lengthAdjust="spacingAndGlyphs" textLength="114" x="858.25" y="472.8433">boolean isOptional()</text><ellipse cx="849.25" cy="483.3398" fill="#84BE84" rx="3" ry="3" style="stroke: #038048; stroke-width: 1.0;"/><text fill="#000000" font-family="sans-serif" font-size="11" lengthAdjust="spacingAndGlyphs" textLength="198" x="858.25" y="485.6479">string getFullyQualifiedTypeName()</text><ellipse cx="849.25" cy="496.1445" fill="#84BE84" rx="3" ry="3" style="stroke: #038048; stroke-width: 1.0;"/><text fill="#000000" font-family="sans-serif" font-size="11" lengthAdjust="spacingAndGlyphs" textLength="130" x="858.25" y="498.4526">string getNamespace()</text><ellipse cx="849.25" cy="508.9492" fill="#84BE84" rx="3" ry="3" style="stroke: #038048; stroke-width: 1.0;"/><text fill="#000000" font-family="sans-serif" font-size="11" lengthAdjust="spacingAndGlyphs" textLength="97" x="858.25" y="511.2573">boolean isArray()</text><ellipse cx="849.25" cy="521.7539" fill="#84BE84" rx="3" ry="3" style="stroke: #038048; stroke-width: 1.0;"/><text fill="#000000" font-family="sans-serif" font-size="11" lengthAdjust="spacingAndGlyphs" textLength="126" x="858.25" y="524.062">boolean isTypeEnum()</text><ellipse cx="849.25" cy="534.5586" fill="#84BE84" rx="3" ry="3" style="stroke: #038048; stroke-width: 1.0;"/><text fill="#000000" font-family="sans-serif" font-size="11" lengthAdjust="spacingAndGlyphs" textLength="116" x="858.25" y="536.8667">boolean isPrimitive()</text><ellipse cx="849.25" cy="547.3633" fill="#84BE84" rx="3" ry="3" style="stroke: #038048; stroke-width: 1.0;"/><text fill="#000000" font-family="sans-serif" font-size="11" lengthAdjust="spacingAndGlyphs" textLength="91" x="858.25" y="549.6714">String toString()</text><ellipse cx="849.25" cy="560.168" fill="#84BE84" rx="3" ry="3" style="stroke: #038048; stroke-width: 1.0;"/><text fill="#000000" font-family="sans-serif" font-size="11" lengthAdjust="spacingAndGlyphs" textLength="87" x="858.25" y="562.4761">Object toJSON()</text><!--class Field--><rect fill="#FEFECE" filter="url(#fkngnog)" height="112.0234" style="stroke: #A80036; stroke-width: 1.5;" width="262" x="541.25" y="47"/><ellipse cx="653.5" cy="63" fill="#ADD1B2" rx="11" ry="11" style="stroke: #A80036; stroke-width: 1.0;"/><path d="M656.4688,68.6406 Q655.8906,68.9375 655.25,69.0859 Q654.6094,69.2344 653.9063,69.2344 Q651.4063,69.2344 650.0859,67.5859 Q648.7656,65.9375 648.7656,62.8125 Q648.7656,59.6875 650.0859,58.0313 Q651.4063,56.375 653.9063,56.375 Q654.6094,56.375 655.2578,56.5313 Q655.9063,56.6875 656.4688,56.9844 L656.4688,59.7031 Q655.8438,59.125 655.25,58.8516 Q654.6563,58.5781 654.0313,58.5781 Q652.6875,58.5781 652,59.6484 Q651.3125,60.7188 651.3125,62.8125 Q651.3125,64.9063 652,65.9766 Q652.6875,67.0469 654.0313,67.0469 Q654.6563,67.0469 655.25,66.7734 Q655.8438,66.5 656.4688,65.9219 L656.4688,68.6406 Z "/><text fill="#000000" font-family="sans-serif" font-size="12" lengthAdjust="spacingAndGlyphs" textLength="29" x="674" y="67.1543">Field</text><line style="stroke: #A80036; stroke-width: 1.5;" x1="542.25" x2="802.25" y1="79" y2="79"/><line style="stroke: #A80036; stroke-width: 1.5;" x1="542.25" x2="802.25" y1="87" y2="87"/><ellipse cx="552.25" cy="98.9023" fill="#84BE84" rx="3" ry="3" style="stroke: #038048; stroke-width: 1.0;"/><text fill="#000000" font-family="sans-serif" font-size="11" lengthAdjust="spacingAndGlyphs" textLength="236" x="561.25" y="101.2104">void constructor(ClassDeclaration,Object)</text><rect fill="#F24D5C" height="6" style="stroke: #C82930; stroke-width: 1.0;" width="6" x="549.25" y="108.707"/><text fill="#000000" font-family="sans-serif" font-size="11" lengthAdjust="spacingAndGlyphs" textLength="81" x="561.25" y="114.0151">void process()</text><ellipse cx="552.25" cy="124.5117" fill="#84BE84" rx="3" ry="3" style="stroke: #038048; stroke-width: 1.0;"/><text fill="#000000" font-family="sans-serif" font-size="11" lengthAdjust="spacingAndGlyphs" textLength="113" x="561.25" y="126.8198">string getValidator()</text><ellipse cx="552.25" cy="137.3164" fill="#84BE84" rx="3" ry="3" style="stroke: #038048; stroke-width: 1.0;"/><text fill="#000000" font-family="sans-serif" font-size="11" lengthAdjust="spacingAndGlyphs" textLength="134" x="561.25" y="139.6245">string getDefaultValue()</text><ellipse cx="552.25" cy="150.1211" fill="#84BE84" rx="3" ry="3" style="stroke: #038048; stroke-width: 1.0;"/><text fill="#000000" font-family="sans-serif" font-size="11" lengthAdjust="spacingAndGlyphs" textLength="87" x="561.25" y="152.4292">Object toJSON()</text><!--class EnumValueDeclaration--><rect fill="#FEFECE" filter="url(#fkngnog)" height="73.6094" style="stroke: #A80036; stroke-width: 1.5;" width="262" x="838.25" y="66"/><ellipse cx="894" cy="82" fill="#ADD1B2" rx="11" ry="11" style="stroke: #A80036; stroke-width: 1.0;"/><path d="M896.9688,87.6406 Q896.3906,87.9375 895.75,88.0859 Q895.1094,88.2344 894.4063,88.2344 Q891.9063,88.2344 890.5859,86.5859 Q889.2656,84.9375 889.2656,81.8125 Q889.2656,78.6875 890.5859,77.0313 Q891.9063,75.375 894.4063,75.375 Q895.1094,75.375 895.7578,75.5313 Q896.4063,75.6875 896.9688,75.9844 L896.9688,78.7031 Q896.3438,78.125 895.75,77.8516 Q895.1563,77.5781 894.5313,77.5781 Q893.1875,77.5781 892.5,78.6484 Q891.8125,79.7188 891.8125,81.8125 Q891.8125,83.9063 892.5,84.9766 Q893.1875,86.0469 894.5313,86.0469 Q895.1563,86.0469 895.75,85.7734 Q896.3438,85.5 896.9688,84.9219 L896.9688,87.6406 Z "/><text fill="#000000" font-family="sans-serif" font-size="12" lengthAdjust="spacingAndGlyphs" textLength="142" x="914.5" y="86.1543">EnumValueDeclaration</text><line style="stroke: #A80036; stroke-width: 1.5;" x1="839.25" x2="1099.25" y1="98" y2="98"/><line style="stroke: #A80036; stroke-width: 1.5;" x1="839.25" x2="1099.25" y1="106" y2="106"/><ellipse cx="849.25" cy="117.9023" fill="#84BE84" rx="3" ry="3" style="stroke: #038048; stroke-width: 1.0;"/><text fill="#000000" font-family="sans-serif" font-size="11" lengthAdjust="spacingAndGlyphs" textLength="236" x="858.25" y="120.2104">void constructor(ClassDeclaration,Object)</text><rect fill="#F24D5C" height="6" style="stroke: #C82930; stroke-width: 1.0;" width="6" x="846.25" y="127.707"/><text fill="#000000" font-family="sans-serif" font-size="11" lengthAdjust="spacingAndGlyphs" textLength="175" x="858.25" y="133.0151">void validate(ClassDeclaration)</text><!--class IllegalModelException--><rect fill="#FEFECE" filter="url(#fkngnog)" height="60.8047" style="stroke: #A80036; stroke-width: 1.5;" width="166" x="1432.25" y="72.5"/><ellipse cx="1447.25" cy="88.5" fill="#ADD1B2" rx="11" ry="11" style="stroke: #A80036; stroke-width: 1.0;"/><path d="M1450.2188,94.1406 Q1449.6406,94.4375 1449,94.5859 Q1448.3594,94.7344 1447.6563,94.7344 Q1445.1563,94.7344 1443.8359,93.0859 Q1442.5156,91.4375 1442.5156,88.3125 Q1442.5156,85.1875 1443.8359,83.5313 Q1445.1563,81.875 1447.6563,81.875 Q1448.3594,81.875 1449.0078,82.0313 Q1449.6563,82.1875 1450.2188,82.4844 L1450.2188,85.2031 Q1449.5938,84.625 1449,84.3516 Q1448.4063,84.0781 1447.7813,84.0781 Q1446.4375,84.0781 1445.75,85.1484 Q1445.0625,86.2188 1445.0625,88.3125 Q1445.0625,90.4063 1445.75,91.4766 Q1446.4375,92.5469 1447.7813,92.5469 Q1448.4063,92.5469 1449,92.2734 Q1449.5938,92 1450.2188,91.4219 L1450.2188,94.1406 Z "/><text fill="#000000" font-family="sans-serif" font-size="12" lengthAdjust="spacingAndGlyphs" textLength="134" x="1461.25" y="92.6543">IllegalModelException</text><line style="stroke: #A80036; stroke-width: 1.5;" x1="1433.25" x2="1597.25" y1="104.5" y2="104.5"/><line style="stroke: #A80036; stroke-width: 1.5;" x1="1433.25" x2="1597.25" y1="112.5" y2="112.5"/><ellipse cx="1443.25" cy="124.4023" fill="#84BE84" rx="3" ry="3" style="stroke: #038048; stroke-width: 1.0;"/><text fill="#000000" font-family="sans-serif" font-size="11" lengthAdjust="spacingAndGlyphs" textLength="133" x="1452.25" y="126.7104">void constructor(string)</text><!--class BaseException--><rect fill="#FEFECE" filter="url(#fkngnog)" height="48" style="stroke: #A80036; stroke-width: 1.5;" width="124" x="1552.75" y="425"/><ellipse cx="1567.75" cy="441" fill="#ADD1B2" rx="11" ry="11" style="stroke: #A80036; stroke-width: 1.0;"/><path d="M1570.7188,446.6406 Q1570.1406,446.9375 1569.5,447.0859 Q1568.8594,447.2344 1568.1563,447.2344 Q1565.6563,447.2344 1564.3359,445.5859 Q1563.0156,443.9375 1563.0156,440.8125 Q1563.0156,437.6875 1564.3359,436.0313 Q1565.6563,434.375 1568.1563,434.375 Q1568.8594,434.375 1569.5078,434.5313 Q1570.1563,434.6875 1570.7188,434.9844 L1570.7188,437.7031 Q1570.0938,437.125 1569.5,436.8516 Q1568.9063,436.5781 1568.2813,436.5781 Q1566.9375,436.5781 1566.25,437.6484 Q1565.5625,438.7188 1565.5625,440.8125 Q1565.5625,442.9063 1566.25,443.9766 Q1566.9375,445.0469 1568.2813,445.0469 Q1568.9063,445.0469 1569.5,444.7734 Q1570.0938,444.5 1570.7188,443.9219 L1570.7188,446.6406 Z "/><text fill="#000000" font-family="sans-serif" font-size="12" lengthAdjust="spacingAndGlyphs" textLength="92" x="1581.75" y="445.1543">BaseException</text><line style="stroke: #A80036; stroke-width: 1.5;" x1="1553.75" x2="1675.75" y1="457" y2="457"/><line style="stroke: #A80036; stroke-width: 1.5;" x1="1553.75" x2="1675.75" y1="465" y2="465"/><!--class RelationshipDeclaration--><rect fill="#FEFECE" filter="url(#fkngnog)" height="73.6094" style="stroke: #A80036; stroke-width: 1.5;" width="262" x="1135.25" y="66"/><ellipse cx="1187.5" cy="82" fill="#ADD1B2" rx="11" ry="11" style="stroke: #A80036; stroke-width: 1.0;"/><path d="M1190.4688,87.6406 Q1189.8906,87.9375 1189.25,88.0859 Q1188.6094,88.2344 1187.9063,88.2344 Q1185.4063,88.2344 1184.0859,86.5859 Q1182.7656,84.9375 1182.7656,81.8125 Q1182.7656,78.6875 1184.0859,77.0313 Q1185.4063,75.375 1187.9063,75.375 Q1188.6094,75.375 1189.2578,75.5313 Q1189.9063,75.6875 1190.4688,75.9844 L1190.4688,78.7031 Q1189.8438,78.125 1189.25,77.8516 Q1188.6563,77.5781 1188.0313,77.5781 Q1186.6875,77.5781 1186,78.6484 Q1185.3125,79.7188 1185.3125,81.8125 Q1185.3125,83.9063 1186,84.9766 Q1186.6875,86.0469 1188.0313,86.0469 Q1188.6563,86.0469 1189.25,85.7734 Q1189.8438,85.5 1190.4688,84.9219 L1190.4688,87.6406 Z "/><text fill="#000000" font-family="sans-serif" font-size="12" lengthAdjust="spacingAndGlyphs" textLength="149" x="1208" y="86.1543">RelationshipDeclaration</text><line style="stroke: #A80036; stroke-width: 1.5;" x1="1136.25" x2="1396.25" y1="98" y2="98"/><line style="stroke: #A80036; stroke-width: 1.5;" x1="1136.25" x2="1396.25" y1="106" y2="106"/><ellipse cx="1146.25" cy="117.9023" fill="#84BE84" rx="3" ry="3" style="stroke: #038048; stroke-width: 1.0;"/><text fill="#000000" font-family="sans-serif" font-size="11" lengthAdjust="spacingAndGlyphs" textLength="236" x="1155.25" y="120.2104">void constructor(ClassDeclaration,Object)</text><rect fill="#F24D5C" height="6" style="stroke: #C82930; stroke-width: 1.0;" width="6" x="1143.25" y="127.707"/><text fill="#000000" font-family="sans-serif" font-size="11" lengthAdjust="spacingAndGlyphs" textLength="175" x="1155.25" y="133.0151">void validate(ClassDeclaration)</text><!--class ClassDeclaration--><rect fill="#FEFECE" filter="url(#fkngnog)" height="252.875" style="stroke: #A80036; stroke-width: 1.5;" width="215" x="2209" y="322.5"/><ellipse cx="2259.75" cy="338.5" fill="#ADD1B2" rx="11" ry="11" style="stroke: #A80036; stroke-width: 1.0;"/><path d="M2262.7188,344.1406 Q2262.1406,344.4375 2261.5,344.5859 Q2260.8594,344.7344 2260.1563,344.7344 Q2257.6563,344.7344 2256.3359,343.0859 Q2255.0156,341.4375 2255.0156,338.3125 Q2255.0156,335.1875 2256.3359,333.5313 Q2257.6563,331.875 2260.1563,331.875 Q2260.8594,331.875 2261.5078,332.0313 Q2262.1563,332.1875 2262.7188,332.4844 L2262.7188,335.2031 Q2262.0938,334.625 2261.5,334.3516 Q2260.9063,334.0781 2260.2813,334.0781 Q2258.9375,334.0781 2258.25,335.1484 Q2257.5625,336.2188 2257.5625,338.3125 Q2257.5625,340.4063 2258.25,341.4766 Q2258.9375,342.5469 2260.2813,342.5469 Q2260.9063,342.5469 2261.5,342.2734 Q2262.0938,342 2262.7188,341.4219 L2262.7188,344.1406 Z "/><text fill="#000000" font-family="sans-serif" font-size="12" lengthAdjust="spacingAndGlyphs" textLength="105" x="2280.25" y="342.6543">ClassDeclaration</text><line style="stroke: #A80036; stroke-width: 1.5;" x1="2210" x2="2423" y1="354.5" y2="354.5"/><line style="stroke: #A80036; stroke-width: 1.5;" x1="2210" x2="2423" y1="362.5" y2="362.5"/><ellipse cx="2220" cy="374.4023" fill="#84BE84" rx="3" ry="3" style="stroke: #038048; stroke-width: 1.0;"/><text fill="#000000" font-family="sans-serif" font-size="11" lengthAdjust="spacingAndGlyphs" textLength="189" x="2229" y="376.7104">void constructor(ModelFile,string)</text><rect fill="#F24D5C" height="6" style="stroke: #C82930; stroke-width: 1.0;" width="6" x="2217" y="384.207"/><text fill="#000000" font-family="sans-serif" font-size="11" lengthAdjust="spacingAndGlyphs" textLength="161" x="2229" y="389.5151">Object accept(Object,Object)</text><ellipse cx="2220" cy="400.0117" fill="#84BE84" rx="3" ry="3" style="stroke: #038048; stroke-width: 1.0;"/><text fill="#000000" font-family="sans-serif" font-size="11" lengthAdjust="spacingAndGlyphs" textLength="134" x="2229" y="402.3198">ModelFile getModelFile()</text><rect fill="#F24D5C" height="6" style="stroke: #C82930; stroke-width: 1.0;" width="6" x="2217" y="409.8164"/><text fill="#000000" font-family="sans-serif" font-size="11" lengthAdjust="spacingAndGlyphs" textLength="81" x="2229" y="415.1245">void process()</text><rect fill="#F24D5C" height="6" style="stroke: #C82930; stroke-width: 1.0;" width="6" x="2217" y="422.6211"/><text fill="#000000" font-family="sans-serif" font-size="11" lengthAdjust="spacingAndGlyphs" textLength="79" x="2229" y="427.9292">void validate()</text><ellipse cx="2220" cy="438.4258" fill="#84BE84" rx="3" ry="3" style="stroke: #038048; stroke-width: 1.0;"/><text fill="#000000" font-family="sans-serif" font-size="11" lengthAdjust="spacingAndGlyphs" textLength="114" x="2229" y="440.7339">boolean isAbstract()</text><ellipse cx="2220" cy="451.2305" fill="#84BE84" rx="3" ry="3" style="stroke: #038048; stroke-width: 1.0;"/><text fill="#000000" font-family="sans-serif" font-size="11" lengthAdjust="spacingAndGlyphs" textLength="99" x="2229" y="453.5386">boolean isEnum()</text><ellipse cx="2220" cy="464.0352" fill="#84BE84" rx="3" ry="3" style="stroke: #038048; stroke-width: 1.0;"/><text fill="#000000" font-family="sans-serif" font-size="11" lengthAdjust="spacingAndGlyphs" textLength="96" x="2229" y="466.3433">string getName()</text><ellipse cx="2220" cy="476.8398" fill="#84BE84" rx="3" ry="3" style="stroke: #038048; stroke-width: 1.0;"/><text fill="#000000" font-family="sans-serif" font-size="11" lengthAdjust="spacingAndGlyphs" textLength="171" x="2229" y="479.1479">string getFullyQualifiedName()</text><ellipse cx="2220" cy="489.6445" fill="#84BE84" rx="3" ry="3" style="stroke: #038048; stroke-width: 1.0;"/><text fill="#000000" font-family="sans-serif" font-size="11" lengthAdjust="spacingAndGlyphs" textLength="172" x="2229" y="491.9526">string getIdentifierFieldName()</text><ellipse cx="2220" cy="502.4492" fill="#84BE84" rx="3" ry="3" style="stroke: #038048; stroke-width: 1.0;"/><text fill="#000000" font-family="sans-serif" font-size="11" lengthAdjust="spacingAndGlyphs" textLength="184" x="2229" y="504.7573">Property getOwnProperty(string)</text><ellipse cx="2220" cy="515.2539" fill="#84BE84" rx="3" ry="3" style="stroke: #038048; stroke-width: 1.0;"/><text fill="#000000" font-family="sans-serif" font-size="11" lengthAdjust="spacingAndGlyphs" textLength="170" x="2229" y="517.562">Property[] getOwnProperties()</text><ellipse cx="2220" cy="528.0586" fill="#84BE84" rx="3" ry="3" style="stroke: #038048; stroke-width: 1.0;"/><text fill="#000000" font-family="sans-serif" font-size="11" lengthAdjust="spacingAndGlyphs" textLength="124" x="2229" y="530.3667">string getSuperType()</text><ellipse cx="2220" cy="540.8633" fill="#84BE84" rx="3" ry="3" style="stroke: #038048; stroke-width: 1.0;"/><text fill="#000000" font-family="sans-serif" font-size="11" lengthAdjust="spacingAndGlyphs" textLength="159" x="2229" y="543.1714">Property getProperty(string)</text><ellipse cx="2220" cy="553.668" fill="#84BE84" rx="3" ry="3" style="stroke: #038048; stroke-width: 1.0;"/><text fill="#000000" font-family="sans-serif" font-size="11" lengthAdjust="spacingAndGlyphs" textLength="145" x="2229" y="555.9761">Property[] getProperties()</text><ellipse cx="2220" cy="566.4727" fill="#84BE84" rx="3" ry="3" style="stroke: #038048; stroke-width: 1.0;"/><text fill="#000000" font-family="sans-serif" font-size="11" lengthAdjust="spacingAndGlyphs" textLength="87" x="2229" y="568.7808">Object toJSON()</text><!--class AssetDeclaration--><rect fill="#FEFECE" filter="url(#fkngnog)" height="60.8047" style="stroke: #A80036; stroke-width: 1.5;" width="218" x="1828.25" y="72.5"/><ellipse cx="1879.5" cy="88.5" fill="#ADD1B2" rx="11" ry="11" style="stroke: #A80036; stroke-width: 1.0;"/><path d="M1882.4688,94.1406 Q1881.8906,94.4375 1881.25,94.5859 Q1880.6094,94.7344 1879.9063,94.7344 Q1877.4063,94.7344 1876.0859,93.0859 Q1874.7656,91.4375 1874.7656,88.3125 Q1874.7656,85.1875 1876.0859,83.5313 Q1877.4063,81.875 1879.9063,81.875 Q1880.6094,81.875 1881.2578,82.0313 Q1881.9063,82.1875 1882.4688,82.4844 L1882.4688,85.2031 Q1881.8438,84.625 1881.25,84.3516 Q1880.6563,84.0781 1880.0313,84.0781 Q1878.6875,84.0781 1878,85.1484 Q1877.3125,86.2188 1877.3125,88.3125 Q1877.3125,90.4063 1878,91.4766 Q1878.6875,92.5469 1880.0313,92.5469 Q1880.6563,92.5469 1881.25,92.2734 Q1881.8438,92 1882.4688,91.4219 L1882.4688,94.1406 Z "/><text fill="#000000" font-family="sans-serif" font-size="12" lengthAdjust="spacingAndGlyphs" textLength="107" x="1900" y="92.6543">AssetDeclaration</text><line style="stroke: #A80036; stroke-width: 1.5;" x1="1829.25" x2="2045.25" y1="104.5" y2="104.5"/><line style="stroke: #A80036; stroke-width: 1.5;" x1="1829.25" x2="2045.25" y1="112.5" y2="112.5"/><ellipse cx="1839.25" cy="124.4023" fill="#84BE84" rx="3" ry="3" style="stroke: #038048; stroke-width: 1.0;"/><text fill="#000000" font-family="sans-serif" font-size="11" lengthAdjust="spacingAndGlyphs" textLength="192" x="1848.25" y="126.7104">void constructor(ModelFile,Object)</text><!--class EnumDeclaration--><rect fill="#FEFECE" filter="url(#fkngnog)" height="73.6094" style="stroke: #A80036; stroke-width: 1.5;" width="218" x="2081.25" y="66"/><ellipse cx="2132.5" cy="82" fill="#ADD1B2" rx="11" ry="11" style="stroke: #A80036; stroke-width: 1.0;"/><path d="M2135.4688,87.6406 Q2134.8906,87.9375 2134.25,88.0859 Q2133.6094,88.2344 2132.9063,88.2344 Q2130.4063,88.2344 2129.0859,86.5859 Q2127.7656,84.9375 2127.7656,81.8125 Q2127.7656,78.6875 2129.0859,77.0313 Q2130.4063,75.375 2132.9063,75.375 Q2133.6094,75.375 2134.2578,75.5313 Q2134.9063,75.6875 2135.4688,75.9844 L2135.4688,78.7031 Q2134.8438,78.125 2134.25,77.8516 Q2133.6563,77.5781 2133.0313,77.5781 Q2131.6875,77.5781 2131,78.6484 Q2130.3125,79.7188 2130.3125,81.8125 Q2130.3125,83.9063 2131,84.9766 Q2131.6875,86.0469 2133.0313,86.0469 Q2133.6563,86.0469 2134.25,85.7734 Q2134.8438,85.5 2135.4688,84.9219 L2135.4688,87.6406 Z "/><text fill="#000000" font-family="sans-serif" font-size="12" lengthAdjust="spacingAndGlyphs" textLength="107" x="2153" y="86.1543">EnumDeclaration</text><line style="stroke: #A80036; stroke-width: 1.5;" x1="2082.25" x2="2298.25" y1="98" y2="98"/><line style="stroke: #A80036; stroke-width: 1.5;" x1="2082.25" x2="2298.25" y1="106" y2="106"/><ellipse cx="2092.25" cy="117.9023" fill="#84BE84" rx="3" ry="3" style="stroke: #038048; stroke-width: 1.0;"/><text fill="#000000" font-family="sans-serif" font-size="11" lengthAdjust="spacingAndGlyphs" textLength="192" x="2101.25" y="120.2104">void constructor(ModelFile,Object)</text><ellipse cx="2092.25" cy="130.707" fill="#84BE84" rx="3" ry="3" style="stroke: #038048; stroke-width: 1.0;"/><text fill="#000000" font-family="sans-serif" font-size="11" lengthAdjust="spacingAndGlyphs" textLength="99" x="2101.25" y="133.0151">boolean isEnum()</text><!--class ParticipantDeclaration--><rect fill="#FEFECE" filter="url(#fkngnog)" height="60.8047" style="stroke: #A80036; stroke-width: 1.5;" width="218" x="2334.25" y="72.5"/><ellipse cx="2369.95" cy="88.5" fill="#ADD1B2" rx="11" ry="11" style="stroke: #A80036; stroke-width: 1.0;"/><path d="M2372.9188,94.1406 Q2372.3406,94.4375 2371.7,94.5859 Q2371.0594,94.7344 2370.3563,94.7344 Q2367.8563,94.7344 2366.5359,93.0859 Q2365.2156,91.4375 2365.2156,88.3125 Q2365.2156,85.1875 2366.5359,83.5313 Q2367.8563,81.875 2370.3563,81.875 Q2371.0594,81.875 2371.7078,82.0313 Q2372.3563,82.1875 2372.9188,82.4844 L2372.9188,85.2031 Q2372.2938,84.625 2371.7,84.3516 Q2371.1063,84.0781 2370.4813,84.0781 Q2369.1375,84.0781 2368.45,85.1484 Q2367.7625,86.2188 2367.7625,88.3125 Q2367.7625,90.4063 2368.45,91.4766 Q2369.1375,92.5469 2370.4813,92.5469 Q2371.1063,92.5469 2371.7,92.2734 Q2372.2938,92 2372.9188,91.4219 L2372.9188,94.1406 Z "/><text fill="#000000" font-family="sans-serif" font-size="12" lengthAdjust="spacingAndGlyphs" textLength="140" x="2388.55" y="92.6543">ParticipantDeclaration</text><line style="stroke: #A80036; stroke-width: 1.5;" x1="2335.25" x2="2551.25" y1="104.5" y2="104.5"/><line style="stroke: #A80036; stroke-width: 1.5;" x1="2335.25" x2="2551.25" y1="112.5" y2="112.5"/><ellipse cx="2345.25" cy="124.4023" fill="#84BE84" rx="3" ry="3" style="stroke: #038048; stroke-width: 1.0;"/><text fill="#000000" font-family="sans-serif" font-size="11" lengthAdjust="spacingAndGlyphs" textLength="192" x="2354.25" y="126.7104">void constructor(ModelFile,Object)</text><!--class TransactionDeclaration--><rect fill="#FEFECE" filter="url(#fkngnog)" height="60.8047" style="stroke: #A80036; stroke-width: 1.5;" width="218" x="2587.25" y="72.5"/><ellipse cx="2620.25" cy="88.5" fill="#ADD1B2" rx="11" ry="11" style="stroke: #A80036; stroke-width: 1.0;"/><path d="M2623.2188,94.1406 Q2622.6406,94.4375 2622,94.5859 Q2621.3594,94.7344 2620.6563,94.7344 Q2618.1563,94.7344 2616.8359,93.0859 Q2615.5156,91.4375 2615.5156,88.3125 Q2615.5156,85.1875 2616.8359,83.5313 Q2618.1563,81.875 2620.6563,81.875 Q2621.3594,81.875 2622.0078,82.0313 Q2622.6563,82.1875 2623.2188,82.4844 L2623.2188,85.2031 Q2622.5938,84.625 2622,84.3516 Q2621.4063,84.0781 2620.7813,84.0781 Q2619.4375,84.0781 2618.75,85.1484 Q2618.0625,86.2188 2618.0625,88.3125 Q2618.0625,90.4063 2618.75,91.4766 Q2619.4375,92.5469 2620.7813,92.5469 Q2621.4063,92.5469 2622,92.2734 Q2622.5938,92 2623.2188,91.4219 L2623.2188,94.1406 Z "/><text fill="#000000" font-family="sans-serif" font-size="12" lengthAdjust="spacingAndGlyphs" textLength="146" x="2638.25" y="92.6543">TransactionDeclaration</text><line style="stroke: #A80036; stroke-width: 1.5;" x1="2588.25" x2="2804.25" y1="104.5" y2="104.5"/><line style="stroke: #A80036; stroke-width: 1.5;" x1="2588.25" x2="2804.25" y1="112.5" y2="112.5"/><ellipse cx="2598.25" cy="124.4023" fill="#84BE84" rx="3" ry="3" style="stroke: #038048; stroke-width: 1.0;"/><text fill="#000000" font-family="sans-serif" font-size="11" lengthAdjust="spacingAndGlyphs" textLength="192" x="2607.25" y="126.7104">void constructor(ModelFile,Object)</text><!--class FunctionDeclaration--><rect fill="#FEFECE" filter="url(#fkngnog)" height="188.8516" style="stroke: #A80036; stroke-width: 1.5;" width="253" x="253" y="8.5"/><ellipse cx="312.25" cy="24.5" fill="#ADD1B2" rx="11" ry="11" style="stroke: #A80036; stroke-width: 1.0;"/><path d="M315.2188,30.1406 Q314.6406,30.4375 314,30.5859 Q313.3594,30.7344 312.6563,30.7344 Q310.1563,30.7344 308.8359,29.0859 Q307.5156,27.4375 307.5156,24.3125 Q307.5156,21.1875 308.8359,19.5313 Q310.1563,17.875 312.6563,17.875 Q313.3594,17.875 314.0078,18.0313 Q314.6563,18.1875 315.2188,18.4844 L315.2188,21.2031 Q314.5938,20.625 314,20.3516 Q313.4063,20.0781 312.7813,20.0781 Q311.4375,20.0781 310.75,21.1484 Q310.0625,22.2188 310.0625,24.3125 Q310.0625,26.4063 310.75,27.4766 Q311.4375,28.5469 312.7813,28.5469 Q313.4063,28.5469 314,28.2734 Q314.5938,28 315.2188,27.4219 L315.2188,30.1406 Z "/><text fill="#000000" font-family="sans-serif" font-size="12" lengthAdjust="spacingAndGlyphs" textLength="126" x="332.75" y="28.6543">FunctionDeclaration</text><line style="stroke: #A80036; stroke-width: 1.5;" x1="254" x2="505" y1="40.5" y2="40.5"/><line style="stroke: #A80036; stroke-width: 1.5;" x1="254" x2="505" y1="48.5" y2="48.5"/><ellipse cx="264" cy="60.4023" fill="#84BE84" rx="3" ry="3" style="stroke: #038048; stroke-width: 1.0;"/><text fill="#000000" font-family="sans-serif" font-size="11" lengthAdjust="spacingAndGlyphs" textLength="189" x="273" y="62.7104">void constructor(ModelFile,string)</text><rect fill="#F24D5C" height="6" style="stroke: #C82930; stroke-width: 1.0;" width="6" x="261" y="70.207"/><text fill="#000000" font-family="sans-serif" font-size="11" lengthAdjust="spacingAndGlyphs" textLength="161" x="273" y="75.5151">Object accept(Object,Object)</text><ellipse cx="264" cy="86.0117" fill="#84BE84" rx="3" ry="3" style="stroke: #038048; stroke-width: 1.0;"/><text fill="#000000" font-family="sans-serif" font-size="11" lengthAdjust="spacingAndGlyphs" textLength="134" x="273" y="88.3198">ModelFile getModelFile()</text><ellipse cx="264" cy="98.8164" fill="#84BE84" rx="3" ry="3" style="stroke: #038048; stroke-width: 1.0;"/><text fill="#000000" font-family="sans-serif" font-size="11" lengthAdjust="spacingAndGlyphs" textLength="134" x="273" y="101.1245">string getFunctionText()</text><rect fill="#F24D5C" height="6" style="stroke: #C82930; stroke-width: 1.0;" width="6" x="261" y="108.6211"/><text fill="#000000" font-family="sans-serif" font-size="11" lengthAdjust="spacingAndGlyphs" textLength="81" x="273" y="113.9292">void process()</text><rect fill="#F24D5C" height="6" style="stroke: #C82930; stroke-width: 1.0;" width="6" x="261" y="121.4258"/><text fill="#000000" font-family="sans-serif" font-size="11" lengthAdjust="spacingAndGlyphs" textLength="79" x="273" y="126.7339">void validate()</text><ellipse cx="264" cy="137.2305" fill="#84BE84" rx="3" ry="3" style="stroke: #038048; stroke-width: 1.0;"/><text fill="#000000" font-family="sans-serif" font-size="11" lengthAdjust="spacingAndGlyphs" textLength="96" x="273" y="139.5386">string getName()</text><ellipse cx="264" cy="150.0352" fill="#84BE84" rx="3" ry="3" style="stroke: #038048; stroke-width: 1.0;"/><text fill="#000000" font-family="sans-serif" font-size="11" lengthAdjust="spacingAndGlyphs" textLength="227" x="273" y="152.3433">string getTransactionDeclarationName()</text><ellipse cx="264" cy="162.8398" fill="#84BE84" rx="3" ry="3" style="stroke: #038048; stroke-width: 1.0;"/><text fill="#000000" font-family="sans-serif" font-size="11" lengthAdjust="spacingAndGlyphs" textLength="138" x="273" y="165.1479">string[] getParameters()</text><ellipse cx="264" cy="175.6445" fill="#84BE84" rx="3" ry="3" style="stroke: #038048; stroke-width: 1.0;"/><text fill="#000000" font-family="sans-serif" font-size="11" lengthAdjust="spacingAndGlyphs" textLength="171" x="273" y="177.9526">string getFullyQualifiedName()</text><ellipse cx="264" cy="188.4492" fill="#84BE84" rx="3" ry="3" style="stroke: #038048; stroke-width: 1.0;"/><text fill="#000000" font-family="sans-serif" font-size="11" lengthAdjust="spacingAndGlyphs" textLength="87" x="273" y="190.7573">Object toJSON()</text><!--class ParseException--><rect fill="#FEFECE" filter="url(#fkngnog)" height="60.8047" style="stroke: #A80036; stroke-width: 1.5;" width="159" x="1634" y="72.5"/><ellipse cx="1662.5" cy="88.5" fill="#ADD1B2" rx="11" ry="11" style="stroke: #A80036; stroke-width: 1.0;"/><path d="M1665.4688,94.1406 Q1664.8906,94.4375 1664.25,94.5859 Q1663.6094,94.7344 1662.9063,94.7344 Q1660.4063,94.7344 1659.0859,93.0859 Q1657.7656,91.4375 1657.7656,88.3125 Q1657.7656,85.1875 1659.0859,83.5313 Q1660.4063,81.875 1662.9063,81.875 Q1663.6094,81.875 1664.2578,82.0313 Q1664.9063,82.1875 1665.4688,82.4844 L1665.4688,85.2031 Q1664.8438,84.625 1664.25,84.3516 Q1663.6563,84.0781 1663.0313,84.0781 Q1661.6875,84.0781 1661,85.1484 Q1660.3125,86.2188 1660.3125,88.3125 Q1660.3125,90.4063 1661,91.4766 Q1661.6875,92.5469 1663.0313,92.5469 Q1663.6563,92.5469 1664.25,92.2734 Q1664.8438,92 1665.4688,91.4219 L1665.4688,94.1406 Z "/><text fill="#000000" font-family="sans-serif" font-size="12" lengthAdjust="spacingAndGlyphs" textLength="97" x="1679.5" y="92.6543">ParseException</text><line style="stroke: #A80036; stroke-width: 1.5;" x1="1635" x2="1792" y1="104.5" y2="104.5"/><line style="stroke: #A80036; stroke-width: 1.5;" x1="1635" x2="1792" y1="112.5" y2="112.5"/><ellipse cx="1645" cy="124.4023" fill="#84BE84" rx="3" ry="3" style="stroke: #038048; stroke-width: 1.0;"/><text fill="#000000" font-family="sans-serif" font-size="11" lengthAdjust="spacingAndGlyphs" textLength="133" x="1654" y="126.7104">void constructor(string)</text><!--class ModelFile--><rect fill="#FEFECE" filter="url(#fkngnog)" height="380.9219" style="stroke: #A80036; stroke-width: 1.5;" width="351" x="6" y="258.5"/><ellipse cx="148.25" cy="274.5" fill="#ADD1B2" rx="11" ry="11" style="stroke: #A80036; stroke-width: 1.0;"/><path d="M151.2188,280.1406 Q150.6406,280.4375 150,280.5859 Q149.3594,280.7344 148.6563,280.7344 Q146.1563,280.7344 144.8359,279.0859 Q143.5156,277.4375 143.5156,274.3125 Q143.5156,271.1875 144.8359,269.5313 Q146.1563,267.875 148.6563,267.875 Q149.3594,267.875 150.0078,268.0313 Q150.6563,268.1875 151.2188,268.4844 L151.2188,271.2031 Q150.5938,270.625 150,270.3516 Q149.4063,270.0781 148.7813,270.0781 Q147.4375,270.0781 146.75,271.1484 Q146.0625,272.2188 146.0625,274.3125 Q146.0625,276.4063 146.75,277.4766 Q147.4375,278.5469 148.7813,278.5469 Q149.4063,278.5469 150,278.2734 Q150.5938,278 151.2188,277.4219 L151.2188,280.1406 Z "/><text fill="#000000" font-family="sans-serif" font-size="12" lengthAdjust="spacingAndGlyphs" textLength="58" x="168.75" y="278.6543">ModelFile</text><line style="stroke: #A80036; stroke-width: 1.5;" x1="7" x2="356" y1="290.5" y2="290.5"/><line style="stroke: #A80036; stroke-width: 1.5;" x1="7" x2="356" y1="298.5" y2="298.5"/><ellipse cx="17" cy="310.4023" fill="#84BE84" rx="3" ry="3" style="stroke: #038048; stroke-width: 1.0;"/><text fill="#000000" font-family="sans-serif" font-size="11" lengthAdjust="spacingAndGlyphs" textLength="238" x="26" y="312.7104">ModelFile fromJSON(ModelManager,string)</text><ellipse cx="17" cy="323.207" fill="#84BE84" rx="3" ry="3" style="stroke: #038048; stroke-width: 1.0;"/><text fill="#000000" font-family="sans-serif" font-size="11" lengthAdjust="spacingAndGlyphs" textLength="219" x="26" y="325.5151">void constructor(ModelManager,string)</text><rect fill="#F24D5C" height="6" style="stroke: #C82930; stroke-width: 1.0;" width="6" x="14" y="333.0117"/><text fill="#000000" font-family="sans-serif" font-size="11" lengthAdjust="spacingAndGlyphs" textLength="161" x="26" y="338.3198">Object accept(Object,Object)</text><ellipse cx="17" cy="348.8164" fill="#84BE84" rx="3" ry="3" style="stroke: #038048; stroke-width: 1.0;"/><text fill="#000000" font-family="sans-serif" font-size="11" lengthAdjust="spacingAndGlyphs" textLength="194" x="26" y="351.1245">ModelManager getModelManager()</text><ellipse cx="17" cy="361.6211" fill="#84BE84" rx="3" ry="3" style="stroke: #038048; stroke-width: 1.0;"/><text fill="#000000" font-family="sans-serif" font-size="11" lengthAdjust="spacingAndGlyphs" textLength="115" x="26" y="363.9292">string[] getImports()</text><ellipse cx="17" cy="374.4258" fill="#84BE84" rx="3" ry="3" style="stroke: #038048; stroke-width: 1.0;"/><text fill="#000000" font-family="sans-serif" font-size="11" lengthAdjust="spacingAndGlyphs" textLength="203" x="26" y="376.7339">FunctionDeclaration[] getFunctions()</text><rect fill="#F24D5C" height="6" style="stroke: #C82930; stroke-width: 1.0;" width="6" x="14" y="384.2305"/><text fill="#000000" font-family="sans-serif" font-size="11" lengthAdjust="spacingAndGlyphs" textLength="79" x="26" y="389.5386">void validate()</text><rect fill="#F24D5C" height="6" style="stroke: #C82930; stroke-width: 1.0;" width="6" x="14" y="397.0352"/><text fill="#000000" font-family="sans-serif" font-size="11" lengthAdjust="spacingAndGlyphs" textLength="174" x="26" y="402.3433">void resolveType(string,string)</text><rect fill="#F24D5C" height="6" style="stroke: #C82930; stroke-width: 1.0;" width="6" x="14" y="409.8398"/><text fill="#000000" font-family="sans-serif" font-size="11" lengthAdjust="spacingAndGlyphs" textLength="156" x="26" y="415.1479">boolean isLocalType(string)</text><rect fill="#F24D5C" height="6" style="stroke: #C82930; stroke-width: 1.0;" width="6" x="14" y="422.6445"/><text fill="#000000" font-family="sans-serif" font-size="11" lengthAdjust="spacingAndGlyphs" textLength="178" x="26" y="427.9526">boolean isImportedType(string)</text><rect fill="#F24D5C" height="6" style="stroke: #C82930; stroke-width: 1.0;" width="6" x="14" y="435.4492"/><text fill="#000000" font-family="sans-serif" font-size="11" lengthAdjust="spacingAndGlyphs" textLength="157" x="26" y="440.7573">string resolveImport(string)</text><ellipse cx="17" cy="451.2539" fill="#84BE84" rx="3" ry="3" style="stroke: #038048; stroke-width: 1.0;"/><text fill="#000000" font-family="sans-serif" font-size="11" lengthAdjust="spacingAndGlyphs" textLength="143" x="26" y="453.562">boolean isDefined(string)</text><rect fill="#F24D5C" height="6" style="stroke: #C82930; stroke-width: 1.0;" width="6" x="14" y="461.0586"/><text fill="#000000" font-family="sans-serif" font-size="11" lengthAdjust="spacingAndGlyphs" textLength="231" x="26" y="466.3667">string | ClassDeclaration getType(string)</text><rect fill="#F24D5C" height="6" style="stroke: #C82930; stroke-width: 1.0;" width="6" x="14" y="473.8633"/><text fill="#000000" font-family="sans-serif" font-size="11" lengthAdjust="spacingAndGlyphs" textLength="231" x="26" y="479.1714">string getFullyQualifiedTypeName(string)</text><ellipse cx="17" cy="489.668" fill="#84BE84" rx="3" ry="3" style="stroke: #038048; stroke-width: 1.0;"/><text fill="#000000" font-family="sans-serif" font-size="11" lengthAdjust="spacingAndGlyphs" textLength="215" x="26" y="491.9761">ClassDeclaration getLocalType(string)</text><ellipse cx="17" cy="502.4727" fill="#84BE84" rx="3" ry="3" style="stroke: #038048; stroke-width: 1.0;"/><text fill="#000000" font-family="sans-serif" font-size="11" lengthAdjust="spacingAndGlyphs" textLength="255" x="26" y="504.7808">AssetDeclaration getAssetDeclaration(string)</text><ellipse cx="17" cy="515.2773" fill="#84BE84" rx="3" ry="3" style="stroke: #038048; stroke-width: 1.0;"/><text fill="#000000" font-family="sans-serif" font-size="11" lengthAdjust="spacingAndGlyphs" textLength="325" x="26" y="517.5854">TransactionDeclaration getTransactionDeclaration(string)</text><ellipse cx="17" cy="528.082" fill="#84BE84" rx="3" ry="3" style="stroke: #038048; stroke-width: 1.0;"/><text fill="#000000" font-family="sans-serif" font-size="11" lengthAdjust="spacingAndGlyphs" textLength="311" x="26" y="530.3901">ParticipantDeclaration getParticipantDeclaration(string)</text><ellipse cx="17" cy="540.8867" fill="#84BE84" rx="3" ry="3" style="stroke: #038048; stroke-width: 1.0;"/><text fill="#000000" font-family="sans-serif" font-size="11" lengthAdjust="spacingAndGlyphs" textLength="130" x="26" y="543.1948">string getNamespace()</text><ellipse cx="17" cy="553.6914" fill="#84BE84" rx="3" ry="3" style="stroke: #038048; stroke-width: 1.0;"/><text fill="#000000" font-family="sans-serif" font-size="11" lengthAdjust="spacingAndGlyphs" textLength="237" x="26" y="555.9995">AssetDeclaration[] getAssetDeclarations()</text><ellipse cx="17" cy="566.4961" fill="#84BE84" rx="3" ry="3" style="stroke: #038048; stroke-width: 1.0;"/><text fill="#000000" font-family="sans-serif" font-size="11" lengthAdjust="spacingAndGlyphs" textLength="307" x="26" y="568.8042">TransactionDeclaration[] getTransactionDeclarations()</text><ellipse cx="17" cy="579.3008" fill="#84BE84" rx="3" ry="3" style="stroke: #038048; stroke-width: 1.0;"/><text fill="#000000" font-family="sans-serif" font-size="11" lengthAdjust="spacingAndGlyphs" textLength="293" x="26" y="581.6089">ParticipantDeclaration[] getParticipantDeclarations()</text><ellipse cx="17" cy="592.1055" fill="#84BE84" rx="3" ry="3" style="stroke: #038048; stroke-width: 1.0;"/><text fill="#000000" font-family="sans-serif" font-size="11" lengthAdjust="spacingAndGlyphs" textLength="252" x="26" y="594.4136">ClassDeclaration[] getDeclarations(Function)</text><ellipse cx="17" cy="604.9102" fill="#84BE84" rx="3" ry="3" style="stroke: #038048; stroke-width: 1.0;"/><text fill="#000000" font-family="sans-serif" font-size="11" lengthAdjust="spacingAndGlyphs" textLength="218" x="26" y="607.2183">ClassDeclaration[] getAllDeclarations()</text><ellipse cx="17" cy="617.7148" fill="#84BE84" rx="3" ry="3" style="stroke: #038048; stroke-width: 1.0;"/><text fill="#000000" font-family="sans-serif" font-size="11" lengthAdjust="spacingAndGlyphs" textLength="123" x="26" y="620.0229">string getDefinitions()</text><ellipse cx="17" cy="630.5195" fill="#84BE84" rx="3" ry="3" style="stroke: #038048; stroke-width: 1.0;"/><text fill="#000000" font-family="sans-serif" font-size="11" lengthAdjust="spacingAndGlyphs" textLength="87" x="26" y="632.8276">Object toJSON()</text><path d="M719.968,159.27 C755.863,200.845 806.633,259.649 852.997,313.35 " fill="none" style="stroke: #A80036; stroke-width: 1.0;"/><polygon fill="none" points="858.488,308.998,866.259,328.711,847.891,318.147,858.488,308.998" style="stroke: #A80036; stroke-width: 1.0;"/><path d="M969.25,140.164 C969.25,180.236 969.25,247.315 969.25,308.646 " fill="none" style="stroke: #A80036; stroke-width: 1.0;"/><polygon fill="none" points="976.25,308.745,969.25,328.745,962.25,308.745,976.25,308.745" style="stroke: #A80036; stroke-width: 1.0;"/><path d="M1523.78,133.627 C1541.33,194.625 1581.57,334.438 1601.94,405.24 " fill="none" style="stroke: #A80036; stroke-width: 1.0;"/><polygon fill="none" points="1608.78,403.678,1607.58,424.834,1595.32,407.55,1608.78,403.678" style="stroke: #A80036; stroke-width: 1.0;"/><path d="M1235.03,140.164 C1199.53,181.279 1139.48,250.826 1085.44,313.423 " fill="none" style="stroke: #A80036; stroke-width: 1.0;"/><polygon fill="none" points="1090.58,318.181,1072.21,328.745,1079.98,309.032,1090.58,318.181" style="stroke: #A80036; stroke-width: 1.0;"/><path d="M1969.89,133.627 C2019.23,178.41 2115.38,265.677 2193.88,336.926 " fill="none" style="stroke: #A80036; stroke-width: 1.0;"/><polygon fill="none" points="2198.71,331.862,2208.82,350.487,2189.3,342.228,2198.71,331.862" style="stroke: #A80036; stroke-width: 1.0;"/><path d="M2203.5,140.164 C2217.75,179.084 2241.34,243.481 2263.26,303.342 " fill="none" style="stroke: #A80036; stroke-width: 1.0;"/><polygon fill="none" points="2269.85,300.973,2270.16,322.16,2256.71,305.788,2269.85,300.973" style="stroke: #A80036; stroke-width: 1.0;"/><path d="M2432.31,133.627 C2418.32,171.518 2393.11,239.823 2369.74,303.106 " fill="none" style="stroke: #A80036; stroke-width: 1.0;"/><polygon fill="none" points="2376.22,305.766,2362.73,322.104,2363.09,300.918,2376.22,305.766" style="stroke: #A80036; stroke-width: 1.0;"/><path d="M2663.52,133.627 C2613.97,178.487 2517.32,265.976 2438.54,337.291 " fill="none" style="stroke: #A80036; stroke-width: 1.0;"/><polygon fill="none" points="2443.08,342.63,2423.55,350.863,2433.68,332.251,2443.08,342.63" style="stroke: #A80036; stroke-width: 1.0;"/><path d="M1704.72,133.627 C1687.17,194.625 1646.93,334.438 1626.56,405.24 " fill="none" style="stroke: #A80036; stroke-width: 1.0;"/><polygon fill="none" points="1633.18,407.55,1620.92,424.834,1619.72,403.678,1633.18,407.55" style="stroke: #A80036; stroke-width: 1.0;"/></g></svg>