<?xml version="1.0" encoding="UTF-8" standalone="no"?><svg xmlns="http://www.w3.org/2000/svg" xmlns:xlink="http://www.w3.org/1999/xlink" contentScriptType="application/ecmascript" contentStyleType="text/css" height="379px" preserveAspectRatio="none" style="width:334px;height:379px;" version="1.1" viewBox="0 0 334 379" width="334px" zoomAndPan="magnify"><defs><filter height="300%" id="fmag8h2" width="300%" x="-1" y="-1"><feGaussianBlur result="blurOut" stdDeviation="2.0"/><feColorMatrix in="blurOut" result="blurOut2" type="matrix" values="0 0 0 0 0 0 0 0 0 0 0 0 0 0 0 0 0 0 .4 0"/><feOffset dx="4.0" dy="4.0" in="blurOut2" result="blurOut3"/><feBlend in="SourceGraphic" in2="blurOut3" mode="normal"/></filter></defs><g><!--class Identifiable--><rect fill="#FEFECE" filter="url(#fmag8h2)" height="176.0469" style="stroke: #A80036; stroke-width: 1.5;" width="319" x="6" y="194"/><ellipse cx="126.75" cy="210" fill="#ADD1B2" rx="11" ry="11" style="stroke: #A80036; stroke-width: 1.0;"/><path d="M129.7188,215.6406 Q129.1406,215.9375 128.5,216.0859 Q127.8594,216.2344 127.1563,216.2344 Q124.6563,216.2344 123.3359,214.5859 Q122.0156,212.9375 122.0156,209.8125 Q122.0156,206.6875 123.3359,205.0313 Q124.6563,203.375 127.1563,203.375 Q127.8594,203.375 128.5078,203.5313 Q129.1563,203.6875 129.7188,203.9844 L129.7188,206.7031 Q129.0938,206.125 128.5,205.8516 Q127.9063,205.5781 127.2813,205.5781 Q125.9375,205.5781 125.25,206.6484 Q124.5625,207.7188 124.5625,209.8125 Q124.5625,211.9063 125.25,212.9766 Q125.9375,214.0469 127.2813,214.0469 Q127.9063,214.0469 128.5,213.7734 Q129.0938,213.5 129.7188,212.9219 L129.7188,215.6406 Z "/><text fill="#000000" font-family="sans-serif" font-size="12" lengthAdjust="spacingAndGlyphs" textLength="69" x="147.25" y="214.1543">Identifiable</text><line style="stroke: #A80036; stroke-width: 1.5;" x1="7" x2="324" y1="226" y2="226"/><line style="stroke: #A80036; stroke-width: 1.5;" x1="7" x2="324" y1="234" y2="234"/><rect fill="#F24D5C" height="6" style="stroke: #C82930; stroke-width: 1.0;" width="6" x="14" y="242.9023"/><text fill="#000000" font-family="sans-serif" font-size="11" lengthAdjust="spacingAndGlyphs" textLength="293" x="26" y="248.2104">void constructor(ModelManager,string,string,string)</text><rect fill="#F24D5C" height="6" style="stroke: #C82930; stroke-width: 1.0;" width="6" x="14" y="255.707"/><text fill="#000000" font-family="sans-serif" font-size="11" lengthAdjust="spacingAndGlyphs" textLength="161" x="26" y="261.0151">Object accept(Object,Object)</text><rect fill="#F24D5C" height="6" style="stroke: #C82930; stroke-width: 1.0;" width="6" x="14" y="268.5117"/><text fill="#000000" font-family="sans-serif" font-size="11" lengthAdjust="spacingAndGlyphs" textLength="194" x="26" y="273.8198">ModelManager getModelManager()</text><ellipse cx="17" cy="284.3164" fill="#84BE84" rx="3" ry="3" style="stroke: #038048; stroke-width: 1.0;"/><text fill="#000000" font-family="sans-serif" font-size="11" lengthAdjust="spacingAndGlyphs" textLength="113" x="26" y="286.6245">string getIdentifier()</text><ellipse cx="17" cy="297.1211" fill="#84BE84" rx="3" ry="3" style="stroke: #038048; stroke-width: 1.0;"/><text fill="#000000" font-family="sans-serif" font-size="11" lengthAdjust="spacingAndGlyphs" textLength="188" x="26" y="299.4292">string getFullyQualifiedIdentifier()</text><ellipse cx="17" cy="309.9258" fill="#84BE84" rx="3" ry="3" style="stroke: #038048; stroke-width: 1.0;"/><text fill="#000000" font-family="sans-serif" font-size="11" lengthAdjust="spacingAndGlyphs" textLength="90" x="26" y="312.2339">string getType()</text><ellipse cx="17" cy="322.7305" fill="#84BE84" rx="3" ry="3" style="stroke: #038048; stroke-width: 1.0;"/><text fill="#000000" font-family="sans-serif" font-size="11" lengthAdjust="spacingAndGlyphs" textLength="165" x="26" y="325.0386">string getFullyQualifiedType()</text><ellipse cx="17" cy="335.5352" fill="#84BE84" rx="3" ry="3" style="stroke: #038048; stroke-width: 1.0;"/><text fill="#000000" font-family="sans-serif" font-size="11" lengthAdjust="spacingAndGlyphs" textLength="130" x="26" y="337.8433">string getNamespace()</text><ellipse cx="17" cy="348.3398" fill="#84BE84" rx="3" ry="3" style="stroke: #038048; stroke-width: 1.0;"/><text fill="#000000" font-family="sans-serif" font-size="11" lengthAdjust="spacingAndGlyphs" textLength="91" x="26" y="350.6479">String toString()</text><rect fill="#F24D5C" height="6" style="stroke: #C82930; stroke-width: 1.0;" width="6" x="14" y="358.1445"/><text fill="#000000" font-family="sans-serif" font-size="11" lengthAdjust="spacingAndGlyphs" textLength="191" x="26" y="363.4526">boolean isSystemProperty(string)</text><!--class Resource--><rect fill="#FEFECE" filter="url(#fmag8h2)" height="124.8281" style="stroke: #A80036; stroke-width: 1.5;" width="319" x="6" y="8.5"/><ellipse cx="131.75" cy="24.5" fill="#ADD1B2" rx="11" ry="11" style="stroke: #A80036; stroke-width: 1.0;"/><path d="M134.7188,30.1406 Q134.1406,30.4375 133.5,30.5859 Q132.8594,30.7344 132.1563,30.7344 Q129.6563,30.7344 128.3359,29.0859 Q127.0156,27.4375 127.0156,24.3125 Q127.0156,21.1875 128.3359,19.5313 Q129.6563,17.875 132.1563,17.875 Q132.8594,17.875 133.5078,18.0313 Q134.1563,18.1875 134.7188,18.4844 L134.7188,21.2031 Q134.0938,20.625 133.5,20.3516 Q132.9063,20.0781 132.2813,20.0781 Q130.9375,20.0781 130.25,21.1484 Q129.5625,22.2188 129.5625,24.3125 Q129.5625,26.4063 130.25,27.4766 Q130.9375,28.5469 132.2813,28.5469 Q132.9063,28.5469 133.5,28.2734 Q134.0938,28 134.7188,27.4219 L134.7188,30.1406 Z "/><text fill="#000000" font-family="sans-serif" font-size="12" lengthAdjust="spacingAndGlyphs" textLength="59" x="152.25" y="28.6543">Resource</text><line style="stroke: #A80036; stroke-width: 1.5;" x1="7" x2="324" y1="40.5" y2="40.5"/><line style="stroke: #A80036; stroke-width: 1.5;" x1="7" x2="324" y1="48.5" y2="48.5"/><rect fill="#F24D5C" height="6" style="stroke: #C82930; stroke-width: 1.0;" width="6" x="14" y="57.4023"/><text fill="#000000" font-family="sans-serif" font-size="11" lengthAdjust="spacingAndGlyphs" textLength="293" x="26" y="62.7104">void constructor(ModelManager,string,string,string)</text><ellipse cx="17" cy="73.207" fill="#84BE84" rx="3" ry="3" style="stroke: #038048; stroke-width: 1.0;"/><text fill="#000000" font-family="sans-serif" font-size="11" lengthAdjust="spacingAndGlyphs" textLength="202" x="26" y="75.5151">void setPropertyValue(string,string)</text><ellipse cx="17" cy="86.0117" fill="#84BE84" rx="3" ry="3" style="stroke: #038048; stroke-width: 1.0;"/><text fill="#000000" font-family="sans-serif" font-size="11" lengthAdjust="spacingAndGlyphs" textLength="187" x="26" y="88.3198">void addArrayValue(string,string)</text><rect fill="#F24D5C" height="6" style="stroke: #C82930; stroke-width: 1.0;" width="6" x="14" y="95.8164"/><text fill="#000000" font-family="sans-serif" font-size="11" lengthAdjust="spacingAndGlyphs" textLength="146" x="26" y="101.1245">void assignFieldDefaults()</text><rect fill="#F24D5C" height="6" style="stroke: #C82930; stroke-width: 1.0;" width="6" x="14" y="108.6211"/><text fill="#000000" font-family="sans-serif" font-size="11" lengthAdjust="spacingAndGlyphs" textLength="222" x="26" y="113.9292">ClassDeclaration getClassDeclaration()</text><rect fill="#F24D5C" height="6" style="stroke: #C82930; stroke-width: 1.0;" width="6" x="14" y="121.4258"/><text fill="#000000" font-family="sans-serif" font-size="11" lengthAdjust="spacingAndGlyphs" textLength="74" x="26" y="126.7339">void toJSON()</text><path d="M165.25,133.576 C165.25,146.278 165.25,160.003 165.25,173.791 " fill="none" style="stroke: #A80036; stroke-width: 1.0;"/><polygon fill="none" points="172.25,173.926,165.25,193.926,158.25,173.926,172.25,173.926" style="stroke: #A80036; stroke-width: 1.0;"/></g></svg>