<?xml version="1.0" encoding="UTF-8" standalone="no"?><svg xmlns="http://www.w3.org/2000/svg" xmlns:xlink="http://www.w3.org/1999/xlink" contentScriptType="application/ecmascript" contentStyleType="text/css" height="180px" preserveAspectRatio="none" style="width:253px;height:180px;" version="1.1" viewBox="0 0 253 180" width="253px" zoomAndPan="magnify"><defs><filter height="300%" id="fce0qsy" width="300%" x="-1" y="-1"><feGaussianBlur result="blurOut" stdDeviation="2.0"/><feColorMatrix in="blurOut" result="blurOut2" type="matrix" values="0 0 0 0 0 0 0 0 0 0 0 0 0 0 0 0 0 0 .4 0"/><feOffset dx="4.0" dy="4.0" in="blurOut2" result="blurOut3"/><feBlend in="SourceGraphic" in2="blurOut3" mode="normal"/></filter></defs><g><!--class SecurityContext--><rect fill="#FEFECE" filter="url(#fce0qsy)" height="163.2422" style="stroke: #A80036; stroke-width: 1.5;" width="238" x="6" y="8.5"/><ellipse cx="71.75" cy="24.5" fill="#ADD1B2" rx="11" ry="11" style="stroke: #A80036; stroke-width: 1.0;"/><path d="M74.7188,30.1406 Q74.1406,30.4375 73.5,30.5859 Q72.8594,30.7344 72.1563,30.7344 Q69.6563,30.7344 68.3359,29.0859 Q67.0156,27.4375 67.0156,24.3125 Q67.0156,21.1875 68.3359,19.5313 Q69.6563,17.875 72.1563,17.875 Q72.8594,17.875 73.5078,18.0313 Q74.1563,18.1875 74.7188,18.4844 L74.7188,21.2031 Q74.0938,20.625 73.5,20.3516 Q72.9063,20.0781 72.2813,20.0781 Q70.9375,20.0781 70.25,21.1484 Q69.5625,22.2188 69.5625,24.3125 Q69.5625,26.4063 70.25,27.4766 Q70.9375,28.5469 72.2813,28.5469 Q72.9063,28.5469 73.5,28.2734 Q74.0938,28 74.7188,27.4219 L74.7188,30.1406 Z "/><text fill="#000000" font-family="sans-serif" font-size="12" lengthAdjust="spacingAndGlyphs" textLength="98" x="92.25" y="28.6543">SecurityContext</text><line style="stroke: #A80036; stroke-width: 1.5;" x1="7" x2="243" y1="40.5" y2="40.5"/><line style="stroke: #A80036; stroke-width: 1.5;" x1="7" x2="243" y1="48.5" y2="48.5"/><ellipse cx="17" cy="60.4023" fill="#84BE84" rx="3" ry="3" style="stroke: #038048; stroke-width: 1.0;"/><text fill="#000000" font-family="sans-serif" font-size="11" lengthAdjust="spacingAndGlyphs" textLength="170" x="26" y="62.7104">void constructor(string,string)</text><ellipse cx="17" cy="73.207" fill="#84BE84" rx="3" ry="3" style="stroke: #038048; stroke-width: 1.0;"/><text fill="#000000" font-family="sans-serif" font-size="11" lengthAdjust="spacingAndGlyphs" textLength="90" x="26" y="75.5151">string getUser()</text><ellipse cx="17" cy="86.0117" fill="#84BE84" rx="3" ry="3" style="stroke: #038048; stroke-width: 1.0;"/><text fill="#000000" font-family="sans-serif" font-size="11" lengthAdjust="spacingAndGlyphs" textLength="119" x="26" y="88.3198">string getPassword()</text><ellipse cx="17" cy="98.8164" fill="#84BE84" rx="3" ry="3" style="stroke: #038048; stroke-width: 1.0;"/><text fill="#000000" font-family="sans-serif" font-size="11" lengthAdjust="spacingAndGlyphs" textLength="189" x="26" y="101.1245">hfc.Member getEnrolledMember()</text><ellipse cx="17" cy="111.6211" fill="#84BE84" rx="3" ry="3" style="stroke: #038048; stroke-width: 1.0;"/><text fill="#000000" font-family="sans-serif" font-size="11" lengthAdjust="spacingAndGlyphs" textLength="212" x="26" y="113.9292">void setEnrolledMember(hfc.Member)</text><ellipse cx="17" cy="124.4258" fill="#84BE84" rx="3" ry="3" style="stroke: #038048; stroke-width: 1.0;"/><text fill="#000000" font-family="sans-serif" font-size="11" lengthAdjust="spacingAndGlyphs" textLength="133" x="26" y="126.7339">string getChaincodeID()</text><ellipse cx="17" cy="137.2305" fill="#84BE84" rx="3" ry="3" style="stroke: #038048; stroke-width: 1.0;"/><text fill="#000000" font-family="sans-serif" font-size="11" lengthAdjust="spacingAndGlyphs" textLength="156" x="26" y="139.5386">void setChaincodeID(string)</text><ellipse cx="17" cy="150.0352" fill="#84BE84" rx="3" ry="3" style="stroke: #038048; stroke-width: 1.0;"/><text fill="#000000" font-family="sans-serif" font-size="11" lengthAdjust="spacingAndGlyphs" textLength="157" x="26" y="152.3433">hfc.EventHub getEventHub()</text><ellipse cx="17" cy="162.8398" fill="#84BE84" rx="3" ry="3" style="stroke: #038048; stroke-width: 1.0;"/><text fill="#000000" font-family="sans-serif" font-size="11" lengthAdjust="spacingAndGlyphs" textLength="180" x="26" y="165.1479">void setEventHub(hfc.EventHub)</text></g></svg>