<?xml version="1.0" encoding="UTF-8" standalone="no"?><svg xmlns="http://www.w3.org/2000/svg" xmlns:xlink="http://www.w3.org/1999/xlink" contentScriptType="application/ecmascript" contentStyleType="text/css" height="513px" preserveAspectRatio="none" style="width:1250px;height:513px;" version="1.1" viewBox="0 0 1250 513" width="1250px" zoomAndPan="magnify"><defs><filter height="300%" id="frri2wp" width="300%" x="-1" y="-1"><feGaussianBlur result="blurOut" stdDeviation="2.0"/><feColorMatrix in="blurOut" result="blurOut2" type="matrix" values="0 0 0 0 0 0 0 0 0 0 0 0 0 0 0 0 0 0 .4 0"/><feOffset dx="4.0" dy="4.0" in="blurOut2" result="blurOut3"/><feBlend in="SourceGraphic" in2="blurOut3" mode="normal"/></filter></defs><g><!--class SecurityContext--><rect fill="#FEFECE" filter="url(#frri2wp)" height="163.2422" style="stroke: #A80036; stroke-width: 1.5;" width="238" x="82.25" y="8.5"/><ellipse cx="148" cy="24.5" fill="#ADD1B2" rx="11" ry="11" style="stroke: #A80036; stroke-width: 1.0;"/><path d="M150.9688,30.1406 Q150.3906,30.4375 149.75,30.5859 Q149.1094,30.7344 148.4063,30.7344 Q145.9063,30.7344 144.5859,29.0859 Q143.2656,27.4375 143.2656,24.3125 Q143.2656,21.1875 144.5859,19.5313 Q145.9063,17.875 148.4063,17.875 Q149.1094,17.875 149.7578,18.0313 Q150.4063,18.1875 150.9688,18.4844 L150.9688,21.2031 Q150.3438,20.625 149.75,20.3516 Q149.1563,20.0781 148.5313,20.0781 Q147.1875,20.0781 146.5,21.1484 Q145.8125,22.2188 145.8125,24.3125 Q145.8125,26.4063 146.5,27.4766 Q147.1875,28.5469 148.5313,28.5469 Q149.1563,28.5469 149.75,28.2734 Q150.3438,28 150.9688,27.4219 L150.9688,30.1406 Z "/><text fill="#000000" font-family="sans-serif" font-size="12" lengthAdjust="spacingAndGlyphs" textLength="98" x="168.5" y="28.6543">SecurityContext</text><line style="stroke: #A80036; stroke-width: 1.5;" x1="83.25" x2="319.25" y1="40.5" y2="40.5"/><line style="stroke: #A80036; stroke-width: 1.5;" x1="83.25" x2="319.25" y1="48.5" y2="48.5"/><ellipse cx="93.25" cy="60.4023" fill="#84BE84" rx="3" ry="3" style="stroke: #038048; stroke-width: 1.0;"/><text fill="#000000" font-family="sans-serif" font-size="11" lengthAdjust="spacingAndGlyphs" textLength="170" x="102.25" y="62.7104">void constructor(string,string)</text><ellipse cx="93.25" cy="73.207" fill="#84BE84" rx="3" ry="3" style="stroke: #038048; stroke-width: 1.0;"/><text fill="#000000" font-family="sans-serif" font-size="11" lengthAdjust="spacingAndGlyphs" textLength="90" x="102.25" y="75.5151">string getUser()</text><ellipse cx="93.25" cy="86.0117" fill="#84BE84" rx="3" ry="3" style="stroke: #038048; stroke-width: 1.0;"/><text fill="#000000" font-family="sans-serif" font-size="11" lengthAdjust="spacingAndGlyphs" textLength="119" x="102.25" y="88.3198">string getPassword()</text><ellipse cx="93.25" cy="98.8164" fill="#84BE84" rx="3" ry="3" style="stroke: #038048; stroke-width: 1.0;"/><text fill="#000000" font-family="sans-serif" font-size="11" lengthAdjust="spacingAndGlyphs" textLength="189" x="102.25" y="101.1245">hfc.Member getEnrolledMember()</text><ellipse cx="93.25" cy="111.6211" fill="#84BE84" rx="3" ry="3" style="stroke: #038048; stroke-width: 1.0;"/><text fill="#000000" font-family="sans-serif" font-size="11" lengthAdjust="spacingAndGlyphs" textLength="212" x="102.25" y="113.9292">void setEnrolledMember(hfc.Member)</text><ellipse cx="93.25" cy="124.4258" fill="#84BE84" rx="3" ry="3" style="stroke: #038048; stroke-width: 1.0;"/><text fill="#000000" font-family="sans-serif" font-size="11" lengthAdjust="spacingAndGlyphs" textLength="133" x="102.25" y="126.7339">string getChaincodeID()</text><ellipse cx="93.25" cy="137.2305" fill="#84BE84" rx="3" ry="3" style="stroke: #038048; stroke-width: 1.0;"/><text fill="#000000" font-family="sans-serif" font-size="11" lengthAdjust="spacingAndGlyphs" textLength="156" x="102.25" y="139.5386">void setChaincodeID(string)</text><ellipse cx="93.25" cy="150.0352" fill="#84BE84" rx="3" ry="3" style="stroke: #038048; stroke-width: 1.0;"/><text fill="#000000" font-family="sans-serif" font-size="11" lengthAdjust="spacingAndGlyphs" textLength="157" x="102.25" y="152.3433">hfc.EventHub getEventHub()</text><ellipse cx="93.25" cy="162.8398" fill="#84BE84" rx="3" ry="3" style="stroke: #038048; stroke-width: 1.0;"/><text fill="#000000" font-family="sans-serif" font-size="11" lengthAdjust="spacingAndGlyphs" textLength="180" x="102.25" y="165.1479">void setEventHub(hfc.EventHub)</text><!--class BaseException--><rect fill="#FEFECE" filter="url(#frri2wp)" height="60.8047" style="stroke: #A80036; stroke-width: 1.5;" width="159" x="477" y="283.5"/><ellipse cx="507.75" cy="299.5" fill="#ADD1B2" rx="11" ry="11" style="stroke: #A80036; stroke-width: 1.0;"/><path d="M510.7188,305.1406 Q510.1406,305.4375 509.5,305.5859 Q508.8594,305.7344 508.1563,305.7344 Q505.6563,305.7344 504.3359,304.0859 Q503.0156,302.4375 503.0156,299.3125 Q503.0156,296.1875 504.3359,294.5313 Q505.6563,292.875 508.1563,292.875 Q508.8594,292.875 509.5078,293.0313 Q510.1563,293.1875 510.7188,293.4844 L510.7188,296.2031 Q510.0938,295.625 509.5,295.3516 Q508.9063,295.0781 508.2813,295.0781 Q506.9375,295.0781 506.25,296.1484 Q505.5625,297.2188 505.5625,299.3125 Q505.5625,301.4063 506.25,302.4766 Q506.9375,303.5469 508.2813,303.5469 Q508.9063,303.5469 509.5,303.2734 Q510.0938,303 510.7188,302.4219 L510.7188,305.1406 Z "/><text fill="#000000" font-family="sans-serif" font-size="12" lengthAdjust="spacingAndGlyphs" textLength="92" x="525.25" y="303.6543">BaseException</text><line style="stroke: #A80036; stroke-width: 1.5;" x1="478" x2="635" y1="315.5" y2="315.5"/><line style="stroke: #A80036; stroke-width: 1.5;" x1="478" x2="635" y1="323.5" y2="323.5"/><ellipse cx="488" cy="335.4023" fill="#84BE84" rx="3" ry="3" style="stroke: #038048; stroke-width: 1.0;"/><text fill="#000000" font-family="sans-serif" font-size="11" lengthAdjust="spacingAndGlyphs" textLength="133" x="497" y="337.7104">void constructor(string)</text><!--class Error--><rect fill="#FEFECE" filter="url(#frri2wp)" height="48" style="stroke: #A80036; stroke-width: 1.5;" width="63" x="525" y="456"/><ellipse cx="540" cy="472" fill="#ADD1B2" rx="11" ry="11" style="stroke: #A80036; stroke-width: 1.0;"/><path d="M542.9688,477.6406 Q542.3906,477.9375 541.75,478.0859 Q541.1094,478.2344 540.4063,478.2344 Q537.9063,478.2344 536.5859,476.5859 Q535.2656,474.9375 535.2656,471.8125 Q535.2656,468.6875 536.5859,467.0313 Q537.9063,465.375 540.4063,465.375 Q541.1094,465.375 541.7578,465.5313 Q542.4063,465.6875 542.9688,465.9844 L542.9688,468.7031 Q542.3438,468.125 541.75,467.8516 Q541.1563,467.5781 540.5313,467.5781 Q539.1875,467.5781 538.5,468.6484 Q537.8125,469.7188 537.8125,471.8125 Q537.8125,473.9063 538.5,474.9766 Q539.1875,476.0469 540.5313,476.0469 Q541.1563,476.0469 541.75,475.7734 Q542.3438,475.5 542.9688,474.9219 L542.9688,477.6406 Z "/><text fill="#000000" font-family="sans-serif" font-size="12" lengthAdjust="spacingAndGlyphs" textLength="31" x="554" y="476.1543">Error</text><line style="stroke: #A80036; stroke-width: 1.5;" x1="526" x2="587" y1="488" y2="488"/><line style="stroke: #A80036; stroke-width: 1.5;" x1="526" x2="587" y1="496" y2="496"/><!--class SecurityException--><rect fill="#FEFECE" filter="url(#frri2wp)" height="60.8047" style="stroke: #A80036; stroke-width: 1.5;" width="159" x="477" y="59.5"/><ellipse cx="499.2" cy="75.5" fill="#ADD1B2" rx="11" ry="11" style="stroke: #A80036; stroke-width: 1.0;"/><path d="M502.1688,81.1406 Q501.5906,81.4375 500.95,81.5859 Q500.3094,81.7344 499.6063,81.7344 Q497.1063,81.7344 495.7859,80.0859 Q494.4656,78.4375 494.4656,75.3125 Q494.4656,72.1875 495.7859,70.5313 Q497.1063,68.875 499.6063,68.875 Q500.3094,68.875 500.9578,69.0313 Q501.6063,69.1875 502.1688,69.4844 L502.1688,72.2031 Q501.5438,71.625 500.95,71.3516 Q500.3563,71.0781 499.7313,71.0781 Q498.3875,71.0781 497.7,72.1484 Q497.0125,73.2188 497.0125,75.3125 Q497.0125,77.4063 497.7,78.4766 Q498.3875,79.5469 499.7313,79.5469 Q500.3563,79.5469 500.95,79.2734 Q501.5438,79 502.1688,78.4219 L502.1688,81.1406 Z "/><text fill="#000000" font-family="sans-serif" font-size="12" lengthAdjust="spacingAndGlyphs" textLength="111" x="514.8" y="79.6543">SecurityException</text><line style="stroke: #A80036; stroke-width: 1.5;" x1="478" x2="635" y1="91.5" y2="91.5"/><line style="stroke: #A80036; stroke-width: 1.5;" x1="478" x2="635" y1="99.5" y2="99.5"/><ellipse cx="488" cy="111.4023" fill="#84BE84" rx="3" ry="3" style="stroke: #038048; stroke-width: 1.0;"/><text fill="#000000" font-family="sans-serif" font-size="11" lengthAdjust="spacingAndGlyphs" textLength="133" x="497" y="113.7104">void constructor(string)</text><!--class globalize--><rect fill="#FEFECE" filter="url(#frri2wp)" height="48" style="stroke: #A80036; stroke-width: 1.5;" width="86" x="355.25" y="66"/><ellipse cx="370.25" cy="82" fill="#DA70D6" rx="11" ry="11" style="stroke: #A80036; stroke-width: 1.0;"/><path d="M370.0469,77.6719 L370.0469,81.2969 L371.0469,81.2969 Q372.25,81.2969 372.7344,80.8906 Q373.2188,80.4844 373.2188,79.4844 Q373.2188,78.4844 372.7344,78.0781 Q372.25,77.6719 371.0469,77.6719 L370.0469,77.6719 Z M367.5938,75.6094 L370.9531,75.6094 Q373.5156,75.6094 374.6406,76.5234 Q375.7656,77.4375 375.7656,79.4844 Q375.7656,81.5313 374.6406,82.4453 Q373.5156,83.3594 370.9531,83.3594 L370.0469,83.3594 L370.0469,88 L367.5938,88 L367.5938,75.6094 Z "/><text fill="#000000" font-family="sans-serif" font-size="12" lengthAdjust="spacingAndGlyphs" textLength="54" x="384.25" y="86.1543">globalize</text><line style="stroke: #A80036; stroke-width: 1.5;" x1="356.25" x2="440.25" y1="98" y2="98"/><line style="stroke: #A80036; stroke-width: 1.5;" x1="356.25" x2="440.25" y1="106" y2="106"/><!--class Util--><rect fill="#FEFECE" filter="url(#frri2wp)" height="112.0234" style="stroke: #A80036; stroke-width: 1.5;" width="391" x="6" y="258"/><ellipse cx="187.25" cy="274" fill="#ADD1B2" rx="11" ry="11" style="stroke: #A80036; stroke-width: 1.0;"/><path d="M190.2188,279.6406 Q189.6406,279.9375 189,280.0859 Q188.3594,280.2344 187.6563,280.2344 Q185.1563,280.2344 183.8359,278.5859 Q182.5156,276.9375 182.5156,273.8125 Q182.5156,270.6875 183.8359,269.0313 Q185.1563,267.375 187.6563,267.375 Q188.3594,267.375 189.0078,267.5313 Q189.6563,267.6875 190.2188,267.9844 L190.2188,270.7031 Q189.5938,270.125 189,269.8516 Q188.4063,269.5781 187.7813,269.5781 Q186.4375,269.5781 185.75,270.6484 Q185.0625,271.7188 185.0625,273.8125 Q185.0625,275.9063 185.75,276.9766 Q186.4375,278.0469 187.7813,278.0469 Q188.4063,278.0469 189,277.7734 Q189.5938,277.5 190.2188,276.9219 L190.2188,279.6406 Z "/><text fill="#000000" font-family="sans-serif" font-size="12" lengthAdjust="spacingAndGlyphs" textLength="20" x="207.75" y="278.1543">Util</text><line style="stroke: #A80036; stroke-width: 1.5;" x1="7" x2="396" y1="290" y2="290"/><line style="stroke: #A80036; stroke-width: 1.5;" x1="7" x2="396" y1="298" y2="298"/><ellipse cx="17" cy="309.9023" fill="#84BE84" rx="3" ry="3" style="stroke: #038048; stroke-width: 1.0;"/><text fill="#000000" font-family="sans-serif" font-size="11" lengthAdjust="spacingAndGlyphs" textLength="203" x="26" y="312.2104">void securityCheck(SecurityContext)</text><ellipse cx="17" cy="322.707" fill="#84BE84" rx="3" ry="3" style="stroke: #038048; stroke-width: 1.0;"/><text fill="#000000" font-family="sans-serif" font-size="11" lengthAdjust="spacingAndGlyphs" textLength="323" x="26" y="325.0151">Promise queryChainCode(SecurityContext,string,string[])</text><ellipse cx="17" cy="335.5117" fill="#84BE84" rx="3" ry="3" style="stroke: #038048; stroke-width: 1.0;"/><text fill="#000000" font-family="sans-serif" font-size="11" lengthAdjust="spacingAndGlyphs" textLength="327" x="26" y="337.8198">Promise invokeChainCode(SecurityContext,string,string[])</text><ellipse cx="17" cy="348.3164" fill="#84BE84" rx="3" ry="3" style="stroke: #038048; stroke-width: 1.0;"/><text fill="#000000" font-family="sans-serif" font-size="11" lengthAdjust="spacingAndGlyphs" textLength="102" x="26" y="350.6245">void isNull(Object)</text><ellipse cx="17" cy="361.1211" fill="#84BE84" rx="3" ry="3" style="stroke: #038048; stroke-width: 1.0;"/><text fill="#000000" font-family="sans-serif" font-size="11" lengthAdjust="spacingAndGlyphs" textLength="365" x="26" y="363.4292">Promise deployChainCode(SecurityContext,string,string,string[])</text><!--class Registry--><rect fill="#FEFECE" filter="url(#frri2wp)" height="163.2422" style="stroke: #A80036; stroke-width: 1.5;" width="352" x="780.75" y="232.5"/><ellipse cx="927.5" cy="248.5" fill="#ADD1B2" rx="11" ry="11" style="stroke: #A80036; stroke-width: 1.0;"/><path d="M930.4688,254.1406 Q929.8906,254.4375 929.25,254.5859 Q928.6094,254.7344 927.9063,254.7344 Q925.4063,254.7344 924.0859,253.0859 Q922.7656,251.4375 922.7656,248.3125 Q922.7656,245.1875 924.0859,243.5313 Q925.4063,241.875 927.9063,241.875 Q928.6094,241.875 929.2578,242.0313 Q929.9063,242.1875 930.4688,242.4844 L930.4688,245.2031 Q929.8438,244.625 929.25,244.3516 Q928.6563,244.0781 928.0313,244.0781 Q926.6875,244.0781 926,245.1484 Q925.3125,246.2188 925.3125,248.3125 Q925.3125,250.4063 926,251.4766 Q926.6875,252.5469 928.0313,252.5469 Q928.6563,252.5469 929.25,252.2734 Q929.8438,252 930.4688,251.4219 L930.4688,254.1406 Z "/><text fill="#000000" font-family="sans-serif" font-size="12" lengthAdjust="spacingAndGlyphs" textLength="50" x="948" y="252.6543">Registry</text><line style="stroke: #A80036; stroke-width: 1.5;" x1="781.75" x2="1131.75" y1="264.5" y2="264.5"/><line style="stroke: #A80036; stroke-width: 1.5;" x1="781.75" x2="1131.75" y1="272.5" y2="272.5"/><ellipse cx="791.75" cy="284.4023" fill="#84BE84" rx="3" ry="3" style="stroke: #038048; stroke-width: 1.0;"/><text fill="#000000" font-family="sans-serif" font-size="11" lengthAdjust="spacingAndGlyphs" textLength="273" x="800.75" y="286.7104">Promise getAllRegistries(SecurityContext,string)</text><ellipse cx="791.75" cy="297.207" fill="#84BE84" rx="3" ry="3" style="stroke: #038048; stroke-width: 1.0;"/><text fill="#000000" font-family="sans-serif" font-size="11" lengthAdjust="spacingAndGlyphs" textLength="286" x="800.75" y="299.5151">Promise getRegistry(SecurityContext,string,string)</text><ellipse cx="791.75" cy="310.0117" fill="#84BE84" rx="3" ry="3" style="stroke: #038048; stroke-width: 1.0;"/><text fill="#000000" font-family="sans-serif" font-size="11" lengthAdjust="spacingAndGlyphs" textLength="326" x="800.75" y="312.3198">Promise addRegistry(SecurityContext,string,string,string)</text><ellipse cx="791.75" cy="322.8164" fill="#84BE84" rx="3" ry="3" style="stroke: #038048; stroke-width: 1.0;"/><text fill="#000000" font-family="sans-serif" font-size="11" lengthAdjust="spacingAndGlyphs" textLength="207" x="800.75" y="325.1245">void constructor(string,string,string)</text><ellipse cx="791.75" cy="335.6211" fill="#84BE84" rx="3" ry="3" style="stroke: #038048; stroke-width: 1.0;"/><text fill="#000000" font-family="sans-serif" font-size="11" lengthAdjust="spacingAndGlyphs" textLength="243" x="800.75" y="337.9292">Promise add(SecurityContext,string,string)</text><ellipse cx="791.75" cy="348.4258" fill="#84BE84" rx="3" ry="3" style="stroke: #038048; stroke-width: 1.0;"/><text fill="#000000" font-family="sans-serif" font-size="11" lengthAdjust="spacingAndGlyphs" textLength="261" x="800.75" y="350.7339">Promise update(SecurityContext,string,string)</text><ellipse cx="791.75" cy="361.2305" fill="#84BE84" rx="3" ry="3" style="stroke: #038048; stroke-width: 1.0;"/><text fill="#000000" font-family="sans-serif" font-size="11" lengthAdjust="spacingAndGlyphs" textLength="228" x="800.75" y="363.5386">Promise remove(SecurityContext,string)</text><ellipse cx="791.75" cy="374.0352" fill="#84BE84" rx="3" ry="3" style="stroke: #038048; stroke-width: 1.0;"/><text fill="#000000" font-family="sans-serif" font-size="11" lengthAdjust="spacingAndGlyphs" textLength="179" x="800.75" y="376.3433">Promise getAll(SecurityContext)</text><ellipse cx="791.75" cy="386.8398" fill="#84BE84" rx="3" ry="3" style="stroke: #038048; stroke-width: 1.0;"/><text fill="#000000" font-family="sans-serif" font-size="11" lengthAdjust="spacingAndGlyphs" textLength="203" x="800.75" y="389.1479">Promise get(SecurityContext,string)</text><!--class TransactionRegistry--><rect fill="#FEFECE" filter="url(#frri2wp)" height="163.2422" style="stroke: #A80036; stroke-width: 1.5;" width="570" x="671.25" y="8.5"/><ellipse cx="890" cy="24.5" fill="#ADD1B2" rx="11" ry="11" style="stroke: #A80036; stroke-width: 1.0;"/><path d="M892.9688,30.1406 Q892.3906,30.4375 891.75,30.5859 Q891.1094,30.7344 890.4063,30.7344 Q887.9063,30.7344 886.5859,29.0859 Q885.2656,27.4375 885.2656,24.3125 Q885.2656,21.1875 886.5859,19.5313 Q887.9063,17.875 890.4063,17.875 Q891.1094,17.875 891.7578,18.0313 Q892.4063,18.1875 892.9688,18.4844 L892.9688,21.2031 Q892.3438,20.625 891.75,20.3516 Q891.1563,20.0781 890.5313,20.0781 Q889.1875,20.0781 888.5,21.1484 Q887.8125,22.2188 887.8125,24.3125 Q887.8125,26.4063 888.5,27.4766 Q889.1875,28.5469 890.5313,28.5469 Q891.1563,28.5469 891.75,28.2734 Q892.3438,28 892.9688,27.4219 L892.9688,30.1406 Z "/><text fill="#000000" font-family="sans-serif" font-size="12" lengthAdjust="spacingAndGlyphs" textLength="124" x="910.5" y="28.6543">TransactionRegistry</text><line style="stroke: #A80036; stroke-width: 1.5;" x1="672.25" x2="1240.25" y1="40.5" y2="40.5"/><line style="stroke: #A80036; stroke-width: 1.5;" x1="672.25" x2="1240.25" y1="48.5" y2="48.5"/><ellipse cx="682.25" cy="60.4023" fill="#84BE84" rx="3" ry="3" style="stroke: #038048; stroke-width: 1.0;"/><text fill="#000000" font-family="sans-serif" font-size="11" lengthAdjust="spacingAndGlyphs" textLength="491" x="691.25" y="62.7104">Promise getAllTransactionRegistries(SecurityContext,ModelManager,Factory,Serializer)</text><ellipse cx="682.25" cy="73.207" fill="#84BE84" rx="3" ry="3" style="stroke: #038048; stroke-width: 1.0;"/><text fill="#000000" font-family="sans-serif" font-size="11" lengthAdjust="spacingAndGlyphs" textLength="504" x="691.25" y="75.5151">Promise getTransactionRegistry(SecurityContext,string,ModelManager,Factory,Serializer)</text><ellipse cx="682.25" cy="86.0117" fill="#84BE84" rx="3" ry="3" style="stroke: #038048; stroke-width: 1.0;"/><text fill="#000000" font-family="sans-serif" font-size="11" lengthAdjust="spacingAndGlyphs" textLength="544" x="691.25" y="88.3198">Promise addTransactionRegistry(SecurityContext,string,string,ModelManager,Factory,Serializer)</text><ellipse cx="682.25" cy="98.8164" fill="#84BE84" rx="3" ry="3" style="stroke: #038048; stroke-width: 1.0;"/><text fill="#000000" font-family="sans-serif" font-size="11" lengthAdjust="spacingAndGlyphs" textLength="358" x="691.25" y="101.1245">void constructor(string,string,ModelManager,Factory,Serializer)</text><ellipse cx="682.25" cy="111.6211" fill="#84BE84" rx="3" ry="3" style="stroke: #038048; stroke-width: 1.0;"/><text fill="#000000" font-family="sans-serif" font-size="11" lengthAdjust="spacingAndGlyphs" textLength="219" x="691.25" y="113.9292">void add(SecurityContext,string,string)</text><ellipse cx="682.25" cy="124.4258" fill="#84BE84" rx="3" ry="3" style="stroke: #038048; stroke-width: 1.0;"/><text fill="#000000" font-family="sans-serif" font-size="11" lengthAdjust="spacingAndGlyphs" textLength="237" x="691.25" y="126.7339">void update(SecurityContext,string,string)</text><ellipse cx="682.25" cy="137.2305" fill="#84BE84" rx="3" ry="3" style="stroke: #038048; stroke-width: 1.0;"/><text fill="#000000" font-family="sans-serif" font-size="11" lengthAdjust="spacingAndGlyphs" textLength="204" x="691.25" y="139.5386">void remove(SecurityContext,string)</text><ellipse cx="682.25" cy="150.0352" fill="#84BE84" rx="3" ry="3" style="stroke: #038048; stroke-width: 1.0;"/><text fill="#000000" font-family="sans-serif" font-size="11" lengthAdjust="spacingAndGlyphs" textLength="179" x="691.25" y="152.3433">Promise getAll(SecurityContext)</text><ellipse cx="682.25" cy="162.8398" fill="#84BE84" rx="3" ry="3" style="stroke: #038048; stroke-width: 1.0;"/><text fill="#000000" font-family="sans-serif" font-size="11" lengthAdjust="spacingAndGlyphs" textLength="203" x="691.25" y="165.1479">Promise get(SecurityContext,string)</text><path d="M556.25,344.699 C556.25,370.149 556.25,407.1359 556.25,435.8532 " fill="none" style="stroke: #A80036; stroke-width: 1.0;"/><polygon fill="none" points="563.25,435.8737,556.25,455.8737,549.25,435.8736,563.25,435.8737" style="stroke: #A80036; stroke-width: 1.0;"/><path d="M556.25,120.94 C556.25,157.371 556.25,219.415 556.25,263.109 " fill="none" style="stroke: #A80036; stroke-width: 1.0;"/><polygon fill="none" points="563.25,263.181,556.25,283.181,549.25,263.181,563.25,263.181" style="stroke: #A80036; stroke-width: 1.0;"/><path d="M956.25,171.775 C956.25,184.865 956.25,198.562 956.25,212.059 " fill="none" style="stroke: #A80036; stroke-width: 1.0;"/><polygon fill="none" points="963.25,212.285,956.25,232.285,949.25,212.285,963.25,212.285" style="stroke: #A80036; stroke-width: 1.0;"/></g></svg>