<?xml version="1.0" encoding="UTF-8" standalone="no"?><svg xmlns="http://www.w3.org/2000/svg" xmlns:xlink="http://www.w3.org/1999/xlink" contentScriptType="application/ecmascript" contentStyleType="text/css" height="116px" preserveAspectRatio="none" style="width:180px;height:116px;" version="1.1" viewBox="0 0 180 116" width="180px" zoomAndPan="magnify"><defs><filter height="300%" id="fx4evm4" width="300%" x="-1" y="-1"><feGaussianBlur result="blurOut" stdDeviation="2.0"/><feColorMatrix in="blurOut" result="blurOut2" type="matrix" values="0 0 0 0 0 0 0 0 0 0 0 0 0 0 0 0 0 0 .4 0"/><feOffset dx="4.0" dy="4.0" in="blurOut2" result="blurOut3"/><feBlend in="SourceGraphic" in2="blurOut3" mode="normal"/></filter></defs><g><!--class TypedStack--><rect fill="#FEFECE" filter="url(#fx4evm4)" height="99.2188" style="stroke: #A80036; stroke-width: 1.5;" width="165" x="6" y="8.5"/><ellipse cx="48.45" cy="24.5" fill="#ADD1B2" rx="11" ry="11" style="stroke: #A80036; stroke-width: 1.0;"/><path d="M51.4188,30.1406 Q50.8406,30.4375 50.2,30.5859 Q49.5594,30.7344 48.8563,30.7344 Q46.3563,30.7344 45.0359,29.0859 Q43.7156,27.4375 43.7156,24.3125 Q43.7156,21.1875 45.0359,19.5313 Q46.3563,17.875 48.8563,17.875 Q49.5594,17.875 50.2078,18.0313 Q50.8563,18.1875 51.4188,18.4844 L51.4188,21.2031 Q50.7938,20.625 50.2,20.3516 Q49.6063,20.0781 48.9813,20.0781 Q47.6375,20.0781 46.95,21.1484 Q46.2625,22.2188 46.2625,24.3125 Q46.2625,26.4063 46.95,27.4766 Q47.6375,28.5469 48.9813,28.5469 Q49.6063,28.5469 50.2,28.2734 Q50.7938,28 51.4188,27.4219 L51.4188,30.1406 Z "/><text fill="#000000" font-family="sans-serif" font-size="12" lengthAdjust="spacingAndGlyphs" textLength="72" x="68.55" y="28.6543">TypedStack</text><line style="stroke: #A80036; stroke-width: 1.5;" x1="7" x2="170" y1="40.5" y2="40.5"/><line style="stroke: #A80036; stroke-width: 1.5;" x1="7" x2="170" y1="48.5" y2="48.5"/><ellipse cx="17" cy="60.4023" fill="#84BE84" rx="3" ry="3" style="stroke: #038048; stroke-width: 1.0;"/><text fill="#000000" font-family="sans-serif" font-size="11" lengthAdjust="spacingAndGlyphs" textLength="136" x="26" y="62.7104">void constructor(Object)</text><ellipse cx="17" cy="73.207" fill="#84BE84" rx="3" ry="3" style="stroke: #038048; stroke-width: 1.0;"/><text fill="#000000" font-family="sans-serif" font-size="11" lengthAdjust="spacingAndGlyphs" textLength="139" x="26" y="75.5151">void push(Object,Object)</text><ellipse cx="17" cy="86.0117" fill="#84BE84" rx="3" ry="3" style="stroke: #038048; stroke-width: 1.0;"/><text fill="#000000" font-family="sans-serif" font-size="11" lengthAdjust="spacingAndGlyphs" textLength="105" x="26" y="88.3198">Object pop(Object)</text><ellipse cx="17" cy="98.8164" fill="#84BE84" rx="3" ry="3" style="stroke: #038048; stroke-width: 1.0;"/><text fill="#000000" font-family="sans-serif" font-size="11" lengthAdjust="spacingAndGlyphs" textLength="63" x="26" y="101.1245">void clear()</text></g></svg>