<?xml version="1.0" encoding="UTF-8" standalone="no"?><svg xmlns="http://www.w3.org/2000/svg" xmlns:xlink="http://www.w3.org/1999/xlink" contentScriptType="application/ecmascript" contentStyleType="text/css" height="180px" preserveAspectRatio="none" style="width:302px;height:180px;" version="1.1" viewBox="0 0 302 180" width="302px" zoomAndPan="magnify"><defs><filter height="300%" id="ff2k9q4" width="300%" x="-1" y="-1"><feGaussianBlur result="blurOut" stdDeviation="2.0"/><feColorMatrix in="blurOut" result="blurOut2" type="matrix" values="0 0 0 0 0 0 0 0 0 0 0 0 0 0 0 0 0 0 .4 0"/><feOffset dx="4.0" dy="4.0" in="blurOut2" result="blurOut3"/><feBlend in="SourceGraphic" in2="blurOut3" mode="normal"/></filter></defs><g><!--class AclFile--><rect fill="#FEFECE" filter="url(#ff2k9q4)" height="163.2422" style="stroke: #A80036; stroke-width: 1.5;" width="287" x="6" y="8.5"/><ellipse cx="125.75" cy="24.5" fill="#ADD1B2" rx="11" ry="11" style="stroke: #A80036; stroke-width: 1.0;"/><path d="M128.7188,30.1406 Q128.1406,30.4375 127.5,30.5859 Q126.8594,30.7344 126.1563,30.7344 Q123.6563,30.7344 122.3359,29.0859 Q121.0156,27.4375 121.0156,24.3125 Q121.0156,21.1875 122.3359,19.5313 Q123.6563,17.875 126.1563,17.875 Q126.8594,17.875 127.5078,18.0313 Q128.1563,18.1875 128.7188,18.4844 L128.7188,21.2031 Q128.0938,20.625 127.5,20.3516 Q126.9063,20.0781 126.2813,20.0781 Q124.9375,20.0781 124.25,21.1484 Q123.5625,22.2188 123.5625,24.3125 Q123.5625,26.4063 124.25,27.4766 Q124.9375,28.5469 126.2813,28.5469 Q126.9063,28.5469 127.5,28.2734 Q128.0938,28 128.7188,27.4219 L128.7188,30.1406 Z "/><text fill="#000000" font-family="sans-serif" font-size="12" lengthAdjust="spacingAndGlyphs" textLength="39" x="146.25" y="28.6543">AclFile</text><line style="stroke: #A80036; stroke-width: 1.5;" x1="7" x2="292" y1="40.5" y2="40.5"/><line style="stroke: #A80036; stroke-width: 1.5;" x1="7" x2="292" y1="48.5" y2="48.5"/><ellipse cx="17" cy="60.4023" fill="#84BE84" rx="3" ry="3" style="stroke: #038048; stroke-width: 1.0;"/><text fill="#000000" font-family="sans-serif" font-size="11" lengthAdjust="spacingAndGlyphs" textLength="256" x="26" y="62.7104">void constructor(string,ModelManager,string)</text><ellipse cx="17" cy="73.207" fill="#84BE84" rx="3" ry="3" style="stroke: #038048; stroke-width: 1.0;"/><text fill="#000000" font-family="sans-serif" font-size="11" lengthAdjust="spacingAndGlyphs" textLength="113" x="26" y="75.5151">string getIdentifier()</text><rect fill="#F24D5C" height="6" style="stroke: #C82930; stroke-width: 1.0;" width="6" x="14" y="83.0117"/><text fill="#000000" font-family="sans-serif" font-size="11" lengthAdjust="spacingAndGlyphs" textLength="161" x="26" y="88.3198">Object accept(Object,Object)</text><ellipse cx="17" cy="98.8164" fill="#84BE84" rx="3" ry="3" style="stroke: #038048; stroke-width: 1.0;"/><text fill="#000000" font-family="sans-serif" font-size="11" lengthAdjust="spacingAndGlyphs" textLength="194" x="26" y="101.1245">ModelManager getModelManager()</text><rect fill="#F24D5C" height="6" style="stroke: #C82930; stroke-width: 1.0;" width="6" x="14" y="108.6211"/><text fill="#000000" font-family="sans-serif" font-size="11" lengthAdjust="spacingAndGlyphs" textLength="79" x="26" y="113.9292">void validate()</text><ellipse cx="17" cy="124.4258" fill="#84BE84" rx="3" ry="3" style="stroke: #038048; stroke-width: 1.0;"/><text fill="#000000" font-family="sans-serif" font-size="11" lengthAdjust="spacingAndGlyphs" textLength="125" x="26" y="126.7339">AclRule[] getAclRules()</text><ellipse cx="17" cy="137.2305" fill="#84BE84" rx="3" ry="3" style="stroke: #038048; stroke-width: 1.0;"/><text fill="#000000" font-family="sans-serif" font-size="11" lengthAdjust="spacingAndGlyphs" textLength="123" x="26" y="139.5386">string getDefinitions()</text><ellipse cx="17" cy="150.0352" fill="#84BE84" rx="3" ry="3" style="stroke: #038048; stroke-width: 1.0;"/><text fill="#000000" font-family="sans-serif" font-size="11" lengthAdjust="spacingAndGlyphs" textLength="261" x="26" y="152.3433">AclFile fromJSON(ModelManager,Object,string)</text><ellipse cx="17" cy="162.8398" fill="#84BE84" rx="3" ry="3" style="stroke: #038048; stroke-width: 1.0;"/><text fill="#000000" font-family="sans-serif" font-size="11" lengthAdjust="spacingAndGlyphs" textLength="87" x="26" y="165.1479">Object toJSON()</text></g></svg>