<?xml version="1.0" encoding="UTF-8" standalone="no"?><svg xmlns="http://www.w3.org/2000/svg" xmlns:xlink="http://www.w3.org/1999/xlink" contentScriptType="application/ecmascript" contentStyleType="text/css" height="142px" preserveAspectRatio="none" style="width:262px;height:142px;" version="1.1" viewBox="0 0 262 142" width="262px" zoomAndPan="magnify"><defs><filter height="300%" id="fzf7fhn" width="300%" x="-1" y="-1"><feGaussianBlur result="blurOut" stdDeviation="2.0"/><feColorMatrix in="blurOut" result="blurOut2" type="matrix" values="0 0 0 0 0 0 0 0 0 0 0 0 0 0 0 0 0 0 .4 0"/><feOffset dx="4.0" dy="4.0" in="blurOut2" result="blurOut3"/><feBlend in="SourceGraphic" in2="blurOut3" mode="normal"/></filter></defs><g><!--class AclManager--><rect fill="#FEFECE" filter="url(#fzf7fhn)" height="124.8281" style="stroke: #A80036; stroke-width: 1.5;" width="247" x="6" y="8.5"/><ellipse cx="88.75" cy="24.5" fill="#ADD1B2" rx="11" ry="11" style="stroke: #A80036; stroke-width: 1.0;"/><path d="M91.7188,30.1406 Q91.1406,30.4375 90.5,30.5859 Q89.8594,30.7344 89.1563,30.7344 Q86.6563,30.7344 85.3359,29.0859 Q84.0156,27.4375 84.0156,24.3125 Q84.0156,21.1875 85.3359,19.5313 Q86.6563,17.875 89.1563,17.875 Q89.8594,17.875 90.5078,18.0313 Q91.1563,18.1875 91.7188,18.4844 L91.7188,21.2031 Q91.0938,20.625 90.5,20.3516 Q89.9063,20.0781 89.2813,20.0781 Q87.9375,20.0781 87.25,21.1484 Q86.5625,22.2188 86.5625,24.3125 Q86.5625,26.4063 87.25,27.4766 Q87.9375,28.5469 89.2813,28.5469 Q89.9063,28.5469 90.5,28.2734 Q91.0938,28 91.7188,27.4219 L91.7188,30.1406 Z "/><text fill="#000000" font-family="sans-serif" font-size="12" lengthAdjust="spacingAndGlyphs" textLength="73" x="109.25" y="28.6543">AclManager</text><line style="stroke: #A80036; stroke-width: 1.5;" x1="7" x2="252" y1="40.5" y2="40.5"/><line style="stroke: #A80036; stroke-width: 1.5;" x1="7" x2="252" y1="48.5" y2="48.5"/><ellipse cx="17" cy="60.4023" fill="#84BE84" rx="3" ry="3" style="stroke: #038048; stroke-width: 1.0;"/><text fill="#000000" font-family="sans-serif" font-size="11" lengthAdjust="spacingAndGlyphs" textLength="221" x="26" y="62.7104">void constructor(ModelManager,AclFile)</text><rect fill="#F24D5C" height="6" style="stroke: #C82930; stroke-width: 1.0;" width="6" x="14" y="70.207"/><text fill="#000000" font-family="sans-serif" font-size="11" lengthAdjust="spacingAndGlyphs" textLength="161" x="26" y="75.5151">Object accept(Object,Object)</text><rect fill="#F24D5C" height="6" style="stroke: #C82930; stroke-width: 1.0;" width="6" x="14" y="83.0117"/><text fill="#000000" font-family="sans-serif" font-size="11" lengthAdjust="spacingAndGlyphs" textLength="123" x="26" y="88.3198">void setAclFile(AclFile)</text><ellipse cx="17" cy="98.8164" fill="#84BE84" rx="3" ry="3" style="stroke: #038048; stroke-width: 1.0;"/><text fill="#000000" font-family="sans-serif" font-size="11" lengthAdjust="spacingAndGlyphs" textLength="100" x="26" y="101.1245">AclFile getAclFile()</text><ellipse cx="17" cy="111.6211" fill="#84BE84" rx="3" ry="3" style="stroke: #038048; stroke-width: 1.0;"/><text fill="#000000" font-family="sans-serif" font-size="11" lengthAdjust="spacingAndGlyphs" textLength="125" x="26" y="113.9292">AclRule[] getAclRules()</text><ellipse cx="17" cy="124.4258" fill="#84BE84" rx="3" ry="3" style="stroke: #038048; stroke-width: 1.0;"/><text fill="#000000" font-family="sans-serif" font-size="11" lengthAdjust="spacingAndGlyphs" textLength="87" x="26" y="126.7339">Object toJSON()</text></g></svg>