<?xml version="1.0" encoding="UTF-8" standalone="no"?><svg xmlns="http://www.w3.org/2000/svg" xmlns:xlink="http://www.w3.org/1999/xlink" contentScriptType="application/ecmascript" contentStyleType="text/css" height="78px" preserveAspectRatio="none" style="width:347px;height:78px;" version="1.1" viewBox="0 0 347 78" width="347px" zoomAndPan="magnify"><defs><filter height="300%" id="fnhkwg1" width="300%" x="-1" y="-1"><feGaussianBlur result="blurOut" stdDeviation="2.0"/><feColorMatrix in="blurOut" result="blurOut2" type="matrix" values="0 0 0 0 0 0 0 0 0 0 0 0 0 0 0 0 0 0 .4 0"/><feOffset dx="4.0" dy="4.0" in="blurOut2" result="blurOut3"/><feBlend in="SourceGraphic" in2="blurOut3" mode="normal"/></filter></defs><g><!--class APISignatureGenerator--><rect fill="#FEFECE" filter="url(#fnhkwg1)" height="60.8047" style="stroke: #A80036; stroke-width: 1.5;" width="332" x="6" y="8.5"/><ellipse cx="95.75" cy="24.5" fill="#ADD1B2" rx="11" ry="11" style="stroke: #A80036; stroke-width: 1.0;"/><path d="M98.7188,30.1406 Q98.1406,30.4375 97.5,30.5859 Q96.8594,30.7344 96.1563,30.7344 Q93.6563,30.7344 92.3359,29.0859 Q91.0156,27.4375 91.0156,24.3125 Q91.0156,21.1875 92.3359,19.5313 Q93.6563,17.875 96.1563,17.875 Q96.8594,17.875 97.5078,18.0313 Q98.1563,18.1875 98.7188,18.4844 L98.7188,21.2031 Q98.0938,20.625 97.5,20.3516 Q96.9063,20.0781 96.2813,20.0781 Q94.9375,20.0781 94.25,21.1484 Q93.5625,22.2188 93.5625,24.3125 Q93.5625,26.4063 94.25,27.4766 Q94.9375,28.5469 96.2813,28.5469 Q96.9063,28.5469 97.5,28.2734 Q98.0938,28 98.7188,27.4219 L98.7188,30.1406 Z "/><text fill="#000000" font-family="sans-serif" font-size="12" lengthAdjust="spacingAndGlyphs" textLength="144" x="116.25" y="28.6543">APISignatureGenerator</text><line style="stroke: #A80036; stroke-width: 1.5;" x1="7" x2="337" y1="40.5" y2="40.5"/><line style="stroke: #A80036; stroke-width: 1.5;" x1="7" x2="337" y1="48.5" y2="48.5"/><ellipse cx="17" cy="60.4023" fill="#84BE84" rx="3" ry="3" style="stroke: #038048; stroke-width: 1.0;"/><text fill="#000000" font-family="sans-serif" font-size="11" lengthAdjust="spacingAndGlyphs" textLength="306" x="26" y="62.7104">void generate(Object,Object,Object[],Object[],Object[])</text></g></svg>