<?xml version="1.0" encoding="UTF-8" standalone="no"?><svg xmlns="http://www.w3.org/2000/svg" xmlns:xlink="http://www.w3.org/1999/xlink" contentScriptType="application/ecmascript" contentStyleType="text/css" height="187px" preserveAspectRatio="none" style="width:233px;height:187px;" version="1.1" viewBox="0 0 233 187" width="233px" zoomAndPan="magnify"><defs><filter height="300%" id="f0y2c6k" width="300%" x="-1" y="-1"><feGaussianBlur result="blurOut" stdDeviation="2.0"/><feColorMatrix in="blurOut" result="blurOut2" type="matrix" values="0 0 0 0 0 0 0 0 0 0 0 0 0 0 0 0 0 0 .4 0"/><feOffset dx="4.0" dy="4.0" in="blurOut2" result="blurOut3"/><feBlend in="SourceGraphic" in2="blurOut3" mode="normal"/></filter></defs><g><!--class AssetDeclaration--><rect fill="#FEFECE" filter="url(#f0y2c6k)" height="60.8047" style="stroke: #A80036; stroke-width: 1.5;" width="218" x="6" y="8.5"/><ellipse cx="57.25" cy="24.5" fill="#ADD1B2" rx="11" ry="11" style="stroke: #A80036; stroke-width: 1.0;"/><path d="M60.2188,30.1406 Q59.6406,30.4375 59,30.5859 Q58.3594,30.7344 57.6563,30.7344 Q55.1563,30.7344 53.8359,29.0859 Q52.5156,27.4375 52.5156,24.3125 Q52.5156,21.1875 53.8359,19.5313 Q55.1563,17.875 57.6563,17.875 Q58.3594,17.875 59.0078,18.0313 Q59.6563,18.1875 60.2188,18.4844 L60.2188,21.2031 Q59.5938,20.625 59,20.3516 Q58.4063,20.0781 57.7813,20.0781 Q56.4375,20.0781 55.75,21.1484 Q55.0625,22.2188 55.0625,24.3125 Q55.0625,26.4063 55.75,27.4766 Q56.4375,28.5469 57.7813,28.5469 Q58.4063,28.5469 59,28.2734 Q59.5938,28 60.2188,27.4219 L60.2188,30.1406 Z "/><text fill="#000000" font-family="sans-serif" font-size="12" lengthAdjust="spacingAndGlyphs" textLength="107" x="77.75" y="28.6543">AssetDeclaration</text><line style="stroke: #A80036; stroke-width: 1.5;" x1="7" x2="223" y1="40.5" y2="40.5"/><line style="stroke: #A80036; stroke-width: 1.5;" x1="7" x2="223" y1="48.5" y2="48.5"/><ellipse cx="17" cy="60.4023" fill="#84BE84" rx="3" ry="3" style="stroke: #038048; stroke-width: 1.0;"/><text fill="#000000" font-family="sans-serif" font-size="11" lengthAdjust="spacingAndGlyphs" textLength="192" x="26" y="62.7104">void constructor(ModelFile,Object)</text><!--class ClassDeclaration--><rect fill="#FEFECE" filter="url(#f0y2c6k)" height="48" style="stroke: #A80036; stroke-width: 1.5;" width="137" x="46.75" y="130"/><ellipse cx="61.75" cy="146" fill="#ADD1B2" rx="11" ry="11" style="stroke: #A80036; stroke-width: 1.0;"/><path d="M64.7188,151.6406 Q64.1406,151.9375 63.5,152.0859 Q62.8594,152.2344 62.1563,152.2344 Q59.6563,152.2344 58.3359,150.5859 Q57.0156,148.9375 57.0156,145.8125 Q57.0156,142.6875 58.3359,141.0313 Q59.6563,139.375 62.1563,139.375 Q62.8594,139.375 63.5078,139.5313 Q64.1563,139.6875 64.7188,139.9844 L64.7188,142.7031 Q64.0938,142.125 63.5,141.8516 Q62.9063,141.5781 62.2813,141.5781 Q60.9375,141.5781 60.25,142.6484 Q59.5625,143.7188 59.5625,145.8125 Q59.5625,147.9063 60.25,148.9766 Q60.9375,150.0469 62.2813,150.0469 Q62.9063,150.0469 63.5,149.7734 Q64.0938,149.5 64.7188,148.9219 L64.7188,151.6406 Z "/><text fill="#000000" font-family="sans-serif" font-size="12" lengthAdjust="spacingAndGlyphs" textLength="105" x="75.75" y="150.1543">ClassDeclaration</text><line style="stroke: #A80036; stroke-width: 1.5;" x1="47.75" x2="182.75" y1="162" y2="162"/><line style="stroke: #A80036; stroke-width: 1.5;" x1="47.75" x2="182.75" y1="170" y2="170"/><path d="M115,69.689 C115,81.9011 115,96.2881 115,109.6388 " fill="none" style="stroke: #A80036; stroke-width: 1.0;"/><polygon fill="none" points="122,109.9284,115,129.9284,108,109.9283,122,109.9284" style="stroke: #A80036; stroke-width: 1.0;"/></g></svg>