<?xml version="1.0" encoding="UTF-8" standalone="no"?><svg xmlns="http://www.w3.org/2000/svg" xmlns:xlink="http://www.w3.org/1999/xlink" contentScriptType="application/ecmascript" contentStyleType="text/css" height="519px" preserveAspectRatio="none" style="width:628px;height:519px;" version="1.1" viewBox="0 0 628 519" width="628px" zoomAndPan="magnify"><defs><filter height="300%" id="fb4ncrt" width="300%" x="-1" y="-1"><feGaussianBlur result="blurOut" stdDeviation="2.0"/><feColorMatrix in="blurOut" result="blurOut2" type="matrix" values="0 0 0 0 0 0 0 0 0 0 0 0 0 0 0 0 0 0 .4 0"/><feOffset dx="4.0" dy="4.0" in="blurOut2" result="blurOut3"/><feBlend in="SourceGraphic" in2="blurOut3" mode="normal"/></filter></defs><g><!--class AclFile--><rect fill="#FEFECE" filter="url(#fb4ncrt)" height="163.2422" style="stroke: #A80036; stroke-width: 1.5;" width="287" x="50" y="8.5"/><ellipse cx="169.75" cy="24.5" fill="#ADD1B2" rx="11" ry="11" style="stroke: #A80036; stroke-width: 1.0;"/><path d="M172.7188,30.1406 Q172.1406,30.4375 171.5,30.5859 Q170.8594,30.7344 170.1563,30.7344 Q167.6563,30.7344 166.3359,29.0859 Q165.0156,27.4375 165.0156,24.3125 Q165.0156,21.1875 166.3359,19.5313 Q167.6563,17.875 170.1563,17.875 Q170.8594,17.875 171.5078,18.0313 Q172.1563,18.1875 172.7188,18.4844 L172.7188,21.2031 Q172.0938,20.625 171.5,20.3516 Q170.9063,20.0781 170.2813,20.0781 Q168.9375,20.0781 168.25,21.1484 Q167.5625,22.2188 167.5625,24.3125 Q167.5625,26.4063 168.25,27.4766 Q168.9375,28.5469 170.2813,28.5469 Q170.9063,28.5469 171.5,28.2734 Q172.0938,28 172.7188,27.4219 L172.7188,30.1406 Z "/><text fill="#000000" font-family="sans-serif" font-size="12" lengthAdjust="spacingAndGlyphs" textLength="39" x="190.25" y="28.6543">AclFile</text><line style="stroke: #A80036; stroke-width: 1.5;" x1="51" x2="336" y1="40.5" y2="40.5"/><line style="stroke: #A80036; stroke-width: 1.5;" x1="51" x2="336" y1="48.5" y2="48.5"/><ellipse cx="61" cy="60.4023" fill="#84BE84" rx="3" ry="3" style="stroke: #038048; stroke-width: 1.0;"/><text fill="#000000" font-family="sans-serif" font-size="11" lengthAdjust="spacingAndGlyphs" textLength="256" x="70" y="62.7104">void constructor(string,ModelManager,string)</text><ellipse cx="61" cy="73.207" fill="#84BE84" rx="3" ry="3" style="stroke: #038048; stroke-width: 1.0;"/><text fill="#000000" font-family="sans-serif" font-size="11" lengthAdjust="spacingAndGlyphs" textLength="113" x="70" y="75.5151">string getIdentifier()</text><rect fill="#F24D5C" height="6" style="stroke: #C82930; stroke-width: 1.0;" width="6" x="58" y="83.0117"/><text fill="#000000" font-family="sans-serif" font-size="11" lengthAdjust="spacingAndGlyphs" textLength="161" x="70" y="88.3198">Object accept(Object,Object)</text><ellipse cx="61" cy="98.8164" fill="#84BE84" rx="3" ry="3" style="stroke: #038048; stroke-width: 1.0;"/><text fill="#000000" font-family="sans-serif" font-size="11" lengthAdjust="spacingAndGlyphs" textLength="194" x="70" y="101.1245">ModelManager getModelManager()</text><rect fill="#F24D5C" height="6" style="stroke: #C82930; stroke-width: 1.0;" width="6" x="58" y="108.6211"/><text fill="#000000" font-family="sans-serif" font-size="11" lengthAdjust="spacingAndGlyphs" textLength="79" x="70" y="113.9292">void validate()</text><ellipse cx="61" cy="124.4258" fill="#84BE84" rx="3" ry="3" style="stroke: #038048; stroke-width: 1.0;"/><text fill="#000000" font-family="sans-serif" font-size="11" lengthAdjust="spacingAndGlyphs" textLength="125" x="70" y="126.7339">AclRule[] getAclRules()</text><ellipse cx="61" cy="137.2305" fill="#84BE84" rx="3" ry="3" style="stroke: #038048; stroke-width: 1.0;"/><text fill="#000000" font-family="sans-serif" font-size="11" lengthAdjust="spacingAndGlyphs" textLength="123" x="70" y="139.5386">string getDefinitions()</text><ellipse cx="61" cy="150.0352" fill="#84BE84" rx="3" ry="3" style="stroke: #038048; stroke-width: 1.0;"/><text fill="#000000" font-family="sans-serif" font-size="11" lengthAdjust="spacingAndGlyphs" textLength="261" x="70" y="152.3433">AclFile fromJSON(ModelManager,Object,string)</text><ellipse cx="61" cy="162.8398" fill="#84BE84" rx="3" ry="3" style="stroke: #038048; stroke-width: 1.0;"/><text fill="#000000" font-family="sans-serif" font-size="11" lengthAdjust="spacingAndGlyphs" textLength="87" x="70" y="165.1479">Object toJSON()</text><!--class AclManager--><rect fill="#FEFECE" filter="url(#fb4ncrt)" height="137.6328" style="stroke: #A80036; stroke-width: 1.5;" width="247" x="372" y="21"/><ellipse cx="454.75" cy="37" fill="#ADD1B2" rx="11" ry="11" style="stroke: #A80036; stroke-width: 1.0;"/><path d="M457.7188,42.6406 Q457.1406,42.9375 456.5,43.0859 Q455.8594,43.2344 455.1563,43.2344 Q452.6563,43.2344 451.3359,41.5859 Q450.0156,39.9375 450.0156,36.8125 Q450.0156,33.6875 451.3359,32.0313 Q452.6563,30.375 455.1563,30.375 Q455.8594,30.375 456.5078,30.5313 Q457.1563,30.6875 457.7188,30.9844 L457.7188,33.7031 Q457.0938,33.125 456.5,32.8516 Q455.9063,32.5781 455.2813,32.5781 Q453.9375,32.5781 453.25,33.6484 Q452.5625,34.7188 452.5625,36.8125 Q452.5625,38.9063 453.25,39.9766 Q453.9375,41.0469 455.2813,41.0469 Q455.9063,41.0469 456.5,40.7734 Q457.0938,40.5 457.7188,39.9219 L457.7188,42.6406 Z "/><text fill="#000000" font-family="sans-serif" font-size="12" lengthAdjust="spacingAndGlyphs" textLength="73" x="475.25" y="41.1543">AclManager</text><line style="stroke: #A80036; stroke-width: 1.5;" x1="373" x2="618" y1="53" y2="53"/><line style="stroke: #A80036; stroke-width: 1.5;" x1="373" x2="618" y1="61" y2="61"/><ellipse cx="383" cy="72.9023" fill="#84BE84" rx="3" ry="3" style="stroke: #038048; stroke-width: 1.0;"/><text fill="#000000" font-family="sans-serif" font-size="11" lengthAdjust="spacingAndGlyphs" textLength="221" x="392" y="75.2104">void constructor(ModelManager,AclFile)</text><rect fill="#F24D5C" height="6" style="stroke: #C82930; stroke-width: 1.0;" width="6" x="380" y="82.707"/><text fill="#000000" font-family="sans-serif" font-size="11" lengthAdjust="spacingAndGlyphs" textLength="161" x="392" y="88.0151">Object accept(Object,Object)</text><ellipse cx="383" cy="98.5117" fill="#84BE84" rx="3" ry="3" style="stroke: #038048; stroke-width: 1.0;"/><text fill="#000000" font-family="sans-serif" font-size="11" lengthAdjust="spacingAndGlyphs" textLength="188" x="392" y="100.8198">AclFile createAclFile(string,string)</text><rect fill="#F24D5C" height="6" style="stroke: #C82930; stroke-width: 1.0;" width="6" x="380" y="108.3164"/><text fill="#000000" font-family="sans-serif" font-size="11" lengthAdjust="spacingAndGlyphs" textLength="123" x="392" y="113.6245">void setAclFile(AclFile)</text><ellipse cx="383" cy="124.1211" fill="#84BE84" rx="3" ry="3" style="stroke: #038048; stroke-width: 1.0;"/><text fill="#000000" font-family="sans-serif" font-size="11" lengthAdjust="spacingAndGlyphs" textLength="100" x="392" y="126.4292">AclFile getAclFile()</text><ellipse cx="383" cy="136.9258" fill="#84BE84" rx="3" ry="3" style="stroke: #038048; stroke-width: 1.0;"/><text fill="#000000" font-family="sans-serif" font-size="11" lengthAdjust="spacingAndGlyphs" textLength="125" x="392" y="139.2339">AclRule[] getAclRules()</text><ellipse cx="383" cy="149.7305" fill="#84BE84" rx="3" ry="3" style="stroke: #038048; stroke-width: 1.0;"/><text fill="#000000" font-family="sans-serif" font-size="11" lengthAdjust="spacingAndGlyphs" textLength="87" x="392" y="152.0386">Object toJSON()</text><!--class BusinessNetworkDefinition--><rect fill="#FEFECE" filter="url(#fb4ncrt)" height="278.4844" style="stroke: #A80036; stroke-width: 1.5;" width="375" x="6" y="232"/><ellipse cx="106.25" cy="248" fill="#ADD1B2" rx="11" ry="11" style="stroke: #A80036; stroke-width: 1.0;"/><path d="M109.2188,253.6406 Q108.6406,253.9375 108,254.0859 Q107.3594,254.2344 106.6563,254.2344 Q104.1563,254.2344 102.8359,252.5859 Q101.5156,250.9375 101.5156,247.8125 Q101.5156,244.6875 102.8359,243.0313 Q104.1563,241.375 106.6563,241.375 Q107.3594,241.375 108.0078,241.5313 Q108.6563,241.6875 109.2188,241.9844 L109.2188,244.7031 Q108.5938,244.125 108,243.8516 Q107.4063,243.5781 106.7813,243.5781 Q105.4375,243.5781 104.75,244.6484 Q104.0625,245.7188 104.0625,247.8125 Q104.0625,249.9063 104.75,250.9766 Q105.4375,252.0469 106.7813,252.0469 Q107.4063,252.0469 108,251.7734 Q108.5938,251.5 109.2188,250.9219 L109.2188,253.6406 Z "/><text fill="#000000" font-family="sans-serif" font-size="12" lengthAdjust="spacingAndGlyphs" textLength="166" x="126.75" y="252.1543">BusinessNetworkDefinition</text><line style="stroke: #A80036; stroke-width: 1.5;" x1="7" x2="380" y1="264" y2="264"/><line style="stroke: #A80036; stroke-width: 1.5;" x1="7" x2="380" y1="272" y2="272"/><ellipse cx="17" cy="283.9023" fill="#84BE84" rx="3" ry="3" style="stroke: #038048; stroke-width: 1.0;"/><text fill="#000000" font-family="sans-serif" font-size="11" lengthAdjust="spacingAndGlyphs" textLength="172" x="26" y="286.2104">void constructor(String,String)</text><ellipse cx="17" cy="296.707" fill="#84BE84" rx="3" ry="3" style="stroke: #038048; stroke-width: 1.0;"/><text fill="#000000" font-family="sans-serif" font-size="11" lengthAdjust="spacingAndGlyphs" textLength="114" x="26" y="299.0151">String getIdentifier()</text><ellipse cx="17" cy="309.5117" fill="#84BE84" rx="3" ry="3" style="stroke: #038048; stroke-width: 1.0;"/><text fill="#000000" font-family="sans-serif" font-size="11" lengthAdjust="spacingAndGlyphs" textLength="97" x="26" y="311.8198">String getName()</text><ellipse cx="17" cy="322.3164" fill="#84BE84" rx="3" ry="3" style="stroke: #038048; stroke-width: 1.0;"/><text fill="#000000" font-family="sans-serif" font-size="11" lengthAdjust="spacingAndGlyphs" textLength="107" x="26" y="324.6245">String getVersion()</text><ellipse cx="17" cy="335.1211" fill="#84BE84" rx="3" ry="3" style="stroke: #038048; stroke-width: 1.0;"/><text fill="#000000" font-family="sans-serif" font-size="11" lengthAdjust="spacingAndGlyphs" textLength="128" x="26" y="337.4292">String getDescription()</text><ellipse cx="17" cy="347.9258" fill="#84BE84" rx="3" ry="3" style="stroke: #038048; stroke-width: 1.0;"/><text fill="#000000" font-family="sans-serif" font-size="11" lengthAdjust="spacingAndGlyphs" textLength="162" x="26" y="350.2339">Promise fromArchive(Buffer)</text><ellipse cx="17" cy="360.7305" fill="#84BE84" rx="3" ry="3" style="stroke: #038048; stroke-width: 1.0;"/><text fill="#000000" font-family="sans-serif" font-size="11" lengthAdjust="spacingAndGlyphs" textLength="99" x="26" y="363.0386">Buffer toArchive()</text><ellipse cx="17" cy="373.5352" fill="#84BE84" rx="3" ry="3" style="stroke: #038048; stroke-width: 1.0;"/><text fill="#000000" font-family="sans-serif" font-size="11" lengthAdjust="spacingAndGlyphs" textLength="349" x="26" y="375.8433">Promise fromDirectory(String,Object,Object,boolean,boolean)</text><rect fill="#F24D5C" height="6" style="stroke: #C82930; stroke-width: 1.0;" width="6" x="14" y="383.3398"/><text fill="#000000" font-family="sans-serif" font-size="11" lengthAdjust="spacingAndGlyphs" textLength="206" x="26" y="388.6479">void processDirectory(String,Object)</text><rect fill="#F24D5C" height="6" style="stroke: #C82930; stroke-width: 1.0;" width="6" x="14" y="396.1445"/><text fill="#000000" font-family="sans-serif" font-size="11" lengthAdjust="spacingAndGlyphs" textLength="174" x="26" y="401.4526">void processFile(String,Object)</text><rect fill="#F24D5C" height="6" style="stroke: #C82930; stroke-width: 1.0;" width="6" x="14" y="408.9492"/><text fill="#000000" font-family="sans-serif" font-size="11" lengthAdjust="spacingAndGlyphs" textLength="230" x="26" y="414.2573">Object[] walkSync(String,Object[],Object)</text><rect fill="#F24D5C" height="6" style="stroke: #C82930; stroke-width: 1.0;" width="6" x="14" y="421.7539"/><text fill="#000000" font-family="sans-serif" font-size="11" lengthAdjust="spacingAndGlyphs" textLength="161" x="26" y="427.062">Object accept(Object,Object)</text><ellipse cx="17" cy="437.5586" fill="#84BE84" rx="3" ry="3" style="stroke: #038048; stroke-width: 1.0;"/><text fill="#000000" font-family="sans-serif" font-size="11" lengthAdjust="spacingAndGlyphs" textLength="168" x="26" y="439.8667">Introspector getIntrospector()</text><ellipse cx="17" cy="450.3633" fill="#84BE84" rx="3" ry="3" style="stroke: #038048; stroke-width: 1.0;"/><text fill="#000000" font-family="sans-serif" font-size="11" lengthAdjust="spacingAndGlyphs" textLength="112" x="26" y="452.6714">Factory getFactory()</text><ellipse cx="17" cy="463.168" fill="#84BE84" rx="3" ry="3" style="stroke: #038048; stroke-width: 1.0;"/><text fill="#000000" font-family="sans-serif" font-size="11" lengthAdjust="spacingAndGlyphs" textLength="136" x="26" y="465.4761">Serializer getSerializer()</text><rect fill="#F24D5C" height="6" style="stroke: #C82930; stroke-width: 1.0;" width="6" x="14" y="472.9727"/><text fill="#000000" font-family="sans-serif" font-size="11" lengthAdjust="spacingAndGlyphs" textLength="194" x="26" y="478.2808">ScriptManager getScriptManager()</text><rect fill="#F24D5C" height="6" style="stroke: #C82930; stroke-width: 1.0;" width="6" x="14" y="485.7773"/><text fill="#000000" font-family="sans-serif" font-size="11" lengthAdjust="spacingAndGlyphs" textLength="160" x="26" y="491.0854">AclManager getAclManager()</text><rect fill="#F24D5C" height="6" style="stroke: #C82930; stroke-width: 1.0;" width="6" x="14" y="498.582"/><text fill="#000000" font-family="sans-serif" font-size="11" lengthAdjust="spacingAndGlyphs" textLength="194" x="26" y="503.8901">ModelManager getModelManager()</text></g></svg>