<?xml version="1.0" encoding="UTF-8" standalone="no"?><svg xmlns="http://www.w3.org/2000/svg" xmlns:xlink="http://www.w3.org/1999/xlink" contentScriptType="application/ecmascript" contentStyleType="text/css" height="519px" preserveAspectRatio="none" style="width:648px;height:519px;" version="1.1" viewBox="0 0 648 519" width="648px" zoomAndPan="magnify"><defs><filter height="300%" id="fnzrmzd" width="300%" x="-1" y="-1"><feGaussianBlur result="blurOut" stdDeviation="2.0"/><feColorMatrix in="blurOut" result="blurOut2" type="matrix" values="0 0 0 0 0 0 0 0 0 0 0 0 0 0 0 0 0 0 .4 0"/><feOffset dx="4.0" dy="4.0" in="blurOut2" result="blurOut3"/><feBlend in="SourceGraphic" in2="blurOut3" mode="normal"/></filter></defs><g><!--class AclManager--><rect fill="#FEFECE" filter="url(#fnzrmzd)" height="124.8281" style="stroke: #A80036; stroke-width: 1.5;" width="247" x="70" y="27.5"/><ellipse cx="152.75" cy="43.5" fill="#ADD1B2" rx="11" ry="11" style="stroke: #A80036; stroke-width: 1.0;"/><path d="M155.7188,49.1406 Q155.1406,49.4375 154.5,49.5859 Q153.8594,49.7344 153.1563,49.7344 Q150.6563,49.7344 149.3359,48.0859 Q148.0156,46.4375 148.0156,43.3125 Q148.0156,40.1875 149.3359,38.5313 Q150.6563,36.875 153.1563,36.875 Q153.8594,36.875 154.5078,37.0313 Q155.1563,37.1875 155.7188,37.4844 L155.7188,40.2031 Q155.0938,39.625 154.5,39.3516 Q153.9063,39.0781 153.2813,39.0781 Q151.9375,39.0781 151.25,40.1484 Q150.5625,41.2188 150.5625,43.3125 Q150.5625,45.4063 151.25,46.4766 Q151.9375,47.5469 153.2813,47.5469 Q153.9063,47.5469 154.5,47.2734 Q155.0938,47 155.7188,46.4219 L155.7188,49.1406 Z "/><text fill="#000000" font-family="sans-serif" font-size="12" lengthAdjust="spacingAndGlyphs" textLength="73" x="173.25" y="47.6543">AclManager</text><line style="stroke: #A80036; stroke-width: 1.5;" x1="71" x2="316" y1="59.5" y2="59.5"/><line style="stroke: #A80036; stroke-width: 1.5;" x1="71" x2="316" y1="67.5" y2="67.5"/><ellipse cx="81" cy="79.4023" fill="#84BE84" rx="3" ry="3" style="stroke: #038048; stroke-width: 1.0;"/><text fill="#000000" font-family="sans-serif" font-size="11" lengthAdjust="spacingAndGlyphs" textLength="221" x="90" y="81.7104">void constructor(ModelManager,AclFile)</text><rect fill="#F24D5C" height="6" style="stroke: #C82930; stroke-width: 1.0;" width="6" x="78" y="89.207"/><text fill="#000000" font-family="sans-serif" font-size="11" lengthAdjust="spacingAndGlyphs" textLength="161" x="90" y="94.5151">Object accept(Object,Object)</text><rect fill="#F24D5C" height="6" style="stroke: #C82930; stroke-width: 1.0;" width="6" x="78" y="102.0117"/><text fill="#000000" font-family="sans-serif" font-size="11" lengthAdjust="spacingAndGlyphs" textLength="123" x="90" y="107.3198">void setAclFile(AclFile)</text><ellipse cx="81" cy="117.8164" fill="#84BE84" rx="3" ry="3" style="stroke: #038048; stroke-width: 1.0;"/><text fill="#000000" font-family="sans-serif" font-size="11" lengthAdjust="spacingAndGlyphs" textLength="100" x="90" y="120.1245">AclFile getAclFile()</text><ellipse cx="81" cy="130.6211" fill="#84BE84" rx="3" ry="3" style="stroke: #038048; stroke-width: 1.0;"/><text fill="#000000" font-family="sans-serif" font-size="11" lengthAdjust="spacingAndGlyphs" textLength="125" x="90" y="132.9292">AclRule[] getAclRules()</text><ellipse cx="81" cy="143.4258" fill="#84BE84" rx="3" ry="3" style="stroke: #038048; stroke-width: 1.0;"/><text fill="#000000" font-family="sans-serif" font-size="11" lengthAdjust="spacingAndGlyphs" textLength="87" x="90" y="145.7339">Object toJSON()</text><!--class AclFile--><rect fill="#FEFECE" filter="url(#fnzrmzd)" height="163.2422" style="stroke: #A80036; stroke-width: 1.5;" width="287" x="352" y="8.5"/><ellipse cx="471.75" cy="24.5" fill="#ADD1B2" rx="11" ry="11" style="stroke: #A80036; stroke-width: 1.0;"/><path d="M474.7188,30.1406 Q474.1406,30.4375 473.5,30.5859 Q472.8594,30.7344 472.1563,30.7344 Q469.6563,30.7344 468.3359,29.0859 Q467.0156,27.4375 467.0156,24.3125 Q467.0156,21.1875 468.3359,19.5313 Q469.6563,17.875 472.1563,17.875 Q472.8594,17.875 473.5078,18.0313 Q474.1563,18.1875 474.7188,18.4844 L474.7188,21.2031 Q474.0938,20.625 473.5,20.3516 Q472.9063,20.0781 472.2813,20.0781 Q470.9375,20.0781 470.25,21.1484 Q469.5625,22.2188 469.5625,24.3125 Q469.5625,26.4063 470.25,27.4766 Q470.9375,28.5469 472.2813,28.5469 Q472.9063,28.5469 473.5,28.2734 Q474.0938,28 474.7188,27.4219 L474.7188,30.1406 Z "/><text fill="#000000" font-family="sans-serif" font-size="12" lengthAdjust="spacingAndGlyphs" textLength="39" x="492.25" y="28.6543">AclFile</text><line style="stroke: #A80036; stroke-width: 1.5;" x1="353" x2="638" y1="40.5" y2="40.5"/><line style="stroke: #A80036; stroke-width: 1.5;" x1="353" x2="638" y1="48.5" y2="48.5"/><ellipse cx="363" cy="60.4023" fill="#84BE84" rx="3" ry="3" style="stroke: #038048; stroke-width: 1.0;"/><text fill="#000000" font-family="sans-serif" font-size="11" lengthAdjust="spacingAndGlyphs" textLength="256" x="372" y="62.7104">void constructor(string,ModelManager,string)</text><ellipse cx="363" cy="73.207" fill="#84BE84" rx="3" ry="3" style="stroke: #038048; stroke-width: 1.0;"/><text fill="#000000" font-family="sans-serif" font-size="11" lengthAdjust="spacingAndGlyphs" textLength="113" x="372" y="75.5151">string getIdentifier()</text><rect fill="#F24D5C" height="6" style="stroke: #C82930; stroke-width: 1.0;" width="6" x="360" y="83.0117"/><text fill="#000000" font-family="sans-serif" font-size="11" lengthAdjust="spacingAndGlyphs" textLength="161" x="372" y="88.3198">Object accept(Object,Object)</text><ellipse cx="363" cy="98.8164" fill="#84BE84" rx="3" ry="3" style="stroke: #038048; stroke-width: 1.0;"/><text fill="#000000" font-family="sans-serif" font-size="11" lengthAdjust="spacingAndGlyphs" textLength="194" x="372" y="101.1245">ModelManager getModelManager()</text><rect fill="#F24D5C" height="6" style="stroke: #C82930; stroke-width: 1.0;" width="6" x="360" y="108.6211"/><text fill="#000000" font-family="sans-serif" font-size="11" lengthAdjust="spacingAndGlyphs" textLength="79" x="372" y="113.9292">void validate()</text><ellipse cx="363" cy="124.4258" fill="#84BE84" rx="3" ry="3" style="stroke: #038048; stroke-width: 1.0;"/><text fill="#000000" font-family="sans-serif" font-size="11" lengthAdjust="spacingAndGlyphs" textLength="125" x="372" y="126.7339">AclRule[] getAclRules()</text><ellipse cx="363" cy="137.2305" fill="#84BE84" rx="3" ry="3" style="stroke: #038048; stroke-width: 1.0;"/><text fill="#000000" font-family="sans-serif" font-size="11" lengthAdjust="spacingAndGlyphs" textLength="123" x="372" y="139.5386">string getDefinitions()</text><ellipse cx="363" cy="150.0352" fill="#84BE84" rx="3" ry="3" style="stroke: #038048; stroke-width: 1.0;"/><text fill="#000000" font-family="sans-serif" font-size="11" lengthAdjust="spacingAndGlyphs" textLength="261" x="372" y="152.3433">AclFile fromJSON(ModelManager,Object,string)</text><ellipse cx="363" cy="162.8398" fill="#84BE84" rx="3" ry="3" style="stroke: #038048; stroke-width: 1.0;"/><text fill="#000000" font-family="sans-serif" font-size="11" lengthAdjust="spacingAndGlyphs" textLength="87" x="372" y="165.1479">Object toJSON()</text><!--class BusinessNetworkDefinition--><rect fill="#FEFECE" filter="url(#fnzrmzd)" height="278.4844" style="stroke: #A80036; stroke-width: 1.5;" width="375" x="6" y="232"/><ellipse cx="106.25" cy="248" fill="#ADD1B2" rx="11" ry="11" style="stroke: #A80036; stroke-width: 1.0;"/><path d="M109.2188,253.6406 Q108.6406,253.9375 108,254.0859 Q107.3594,254.2344 106.6563,254.2344 Q104.1563,254.2344 102.8359,252.5859 Q101.5156,250.9375 101.5156,247.8125 Q101.5156,244.6875 102.8359,243.0313 Q104.1563,241.375 106.6563,241.375 Q107.3594,241.375 108.0078,241.5313 Q108.6563,241.6875 109.2188,241.9844 L109.2188,244.7031 Q108.5938,244.125 108,243.8516 Q107.4063,243.5781 106.7813,243.5781 Q105.4375,243.5781 104.75,244.6484 Q104.0625,245.7188 104.0625,247.8125 Q104.0625,249.9063 104.75,250.9766 Q105.4375,252.0469 106.7813,252.0469 Q107.4063,252.0469 108,251.7734 Q108.5938,251.5 109.2188,250.9219 L109.2188,253.6406 Z "/><text fill="#000000" font-family="sans-serif" font-size="12" lengthAdjust="spacingAndGlyphs" textLength="166" x="126.75" y="252.1543">BusinessNetworkDefinition</text><line style="stroke: #A80036; stroke-width: 1.5;" x1="7" x2="380" y1="264" y2="264"/><line style="stroke: #A80036; stroke-width: 1.5;" x1="7" x2="380" y1="272" y2="272"/><ellipse cx="17" cy="283.9023" fill="#84BE84" rx="3" ry="3" style="stroke: #038048; stroke-width: 1.0;"/><text fill="#000000" font-family="sans-serif" font-size="11" lengthAdjust="spacingAndGlyphs" textLength="172" x="26" y="286.2104">void constructor(String,String)</text><ellipse cx="17" cy="296.707" fill="#84BE84" rx="3" ry="3" style="stroke: #038048; stroke-width: 1.0;"/><text fill="#000000" font-family="sans-serif" font-size="11" lengthAdjust="spacingAndGlyphs" textLength="114" x="26" y="299.0151">String getIdentifier()</text><ellipse cx="17" cy="309.5117" fill="#84BE84" rx="3" ry="3" style="stroke: #038048; stroke-width: 1.0;"/><text fill="#000000" font-family="sans-serif" font-size="11" lengthAdjust="spacingAndGlyphs" textLength="97" x="26" y="311.8198">String getName()</text><ellipse cx="17" cy="322.3164" fill="#84BE84" rx="3" ry="3" style="stroke: #038048; stroke-width: 1.0;"/><text fill="#000000" font-family="sans-serif" font-size="11" lengthAdjust="spacingAndGlyphs" textLength="107" x="26" y="324.6245">String getVersion()</text><ellipse cx="17" cy="335.1211" fill="#84BE84" rx="3" ry="3" style="stroke: #038048; stroke-width: 1.0;"/><text fill="#000000" font-family="sans-serif" font-size="11" lengthAdjust="spacingAndGlyphs" textLength="128" x="26" y="337.4292">String getDescription()</text><ellipse cx="17" cy="347.9258" fill="#84BE84" rx="3" ry="3" style="stroke: #038048; stroke-width: 1.0;"/><text fill="#000000" font-family="sans-serif" font-size="11" lengthAdjust="spacingAndGlyphs" textLength="162" x="26" y="350.2339">Promise fromArchive(Buffer)</text><ellipse cx="17" cy="360.7305" fill="#84BE84" rx="3" ry="3" style="stroke: #038048; stroke-width: 1.0;"/><text fill="#000000" font-family="sans-serif" font-size="11" lengthAdjust="spacingAndGlyphs" textLength="99" x="26" y="363.0386">Buffer toArchive()</text><ellipse cx="17" cy="373.5352" fill="#84BE84" rx="3" ry="3" style="stroke: #038048; stroke-width: 1.0;"/><text fill="#000000" font-family="sans-serif" font-size="11" lengthAdjust="spacingAndGlyphs" textLength="349" x="26" y="375.8433">Promise fromDirectory(String,Object,Object,boolean,boolean)</text><rect fill="#F24D5C" height="6" style="stroke: #C82930; stroke-width: 1.0;" width="6" x="14" y="383.3398"/><text fill="#000000" font-family="sans-serif" font-size="11" lengthAdjust="spacingAndGlyphs" textLength="206" x="26" y="388.6479">void processDirectory(String,Object)</text><rect fill="#F24D5C" height="6" style="stroke: #C82930; stroke-width: 1.0;" width="6" x="14" y="396.1445"/><text fill="#000000" font-family="sans-serif" font-size="11" lengthAdjust="spacingAndGlyphs" textLength="174" x="26" y="401.4526">void processFile(String,Object)</text><rect fill="#F24D5C" height="6" style="stroke: #C82930; stroke-width: 1.0;" width="6" x="14" y="408.9492"/><text fill="#000000" font-family="sans-serif" font-size="11" lengthAdjust="spacingAndGlyphs" textLength="230" x="26" y="414.2573">Object[] walkSync(String,Object[],Object)</text><rect fill="#F24D5C" height="6" style="stroke: #C82930; stroke-width: 1.0;" width="6" x="14" y="421.7539"/><text fill="#000000" font-family="sans-serif" font-size="11" lengthAdjust="spacingAndGlyphs" textLength="161" x="26" y="427.062">Object accept(Object,Object)</text><ellipse cx="17" cy="437.5586" fill="#84BE84" rx="3" ry="3" style="stroke: #038048; stroke-width: 1.0;"/><text fill="#000000" font-family="sans-serif" font-size="11" lengthAdjust="spacingAndGlyphs" textLength="168" x="26" y="439.8667">Introspector getIntrospector()</text><ellipse cx="17" cy="450.3633" fill="#84BE84" rx="3" ry="3" style="stroke: #038048; stroke-width: 1.0;"/><text fill="#000000" font-family="sans-serif" font-size="11" lengthAdjust="spacingAndGlyphs" textLength="112" x="26" y="452.6714">Factory getFactory()</text><ellipse cx="17" cy="463.168" fill="#84BE84" rx="3" ry="3" style="stroke: #038048; stroke-width: 1.0;"/><text fill="#000000" font-family="sans-serif" font-size="11" lengthAdjust="spacingAndGlyphs" textLength="136" x="26" y="465.4761">Serializer getSerializer()</text><rect fill="#F24D5C" height="6" style="stroke: #C82930; stroke-width: 1.0;" width="6" x="14" y="472.9727"/><text fill="#000000" font-family="sans-serif" font-size="11" lengthAdjust="spacingAndGlyphs" textLength="194" x="26" y="478.2808">ScriptManager getScriptManager()</text><rect fill="#F24D5C" height="6" style="stroke: #C82930; stroke-width: 1.0;" width="6" x="14" y="485.7773"/><text fill="#000000" font-family="sans-serif" font-size="11" lengthAdjust="spacingAndGlyphs" textLength="160" x="26" y="491.0854">AclManager getAclManager()</text><rect fill="#F24D5C" height="6" style="stroke: #C82930; stroke-width: 1.0;" width="6" x="14" y="498.582"/><text fill="#000000" font-family="sans-serif" font-size="11" lengthAdjust="spacingAndGlyphs" textLength="194" x="26" y="503.8901">ModelManager getModelManager()</text></g></svg>