<?xml version="1.0" encoding="UTF-8" standalone="no"?><svg xmlns="http://www.w3.org/2000/svg" xmlns:xlink="http://www.w3.org/1999/xlink" contentScriptType="application/ecmascript" contentStyleType="text/css" height="199px" preserveAspectRatio="none" style="width:297px;height:199px;" version="1.1" viewBox="0 0 297 199" width="297px" zoomAndPan="magnify"><defs><filter height="300%" id="fhf5od4" width="300%" x="-1" y="-1"><feGaussianBlur result="blurOut" stdDeviation="2.0"/><feColorMatrix in="blurOut" result="blurOut2" type="matrix" values="0 0 0 0 0 0 0 0 0 0 0 0 0 0 0 0 0 0 .4 0"/><feOffset dx="4.0" dy="4.0" in="blurOut2" result="blurOut3"/><feBlend in="SourceGraphic" in2="blurOut3" mode="normal"/></filter></defs><g><!--class Concept--><rect fill="#FEFECE" filter="url(#fhf5od4)" height="73.6094" style="stroke: #A80036; stroke-width: 1.5;" width="282" x="6" y="8"/><ellipse cx="116.75" cy="24" fill="#ADD1B2" rx="11" ry="11" style="stroke: #A80036; stroke-width: 1.0;"/><path d="M119.7188,29.6406 Q119.1406,29.9375 118.5,30.0859 Q117.8594,30.2344 117.1563,30.2344 Q114.6563,30.2344 113.3359,28.5859 Q112.0156,26.9375 112.0156,23.8125 Q112.0156,20.6875 113.3359,19.0313 Q114.6563,17.375 117.1563,17.375 Q117.8594,17.375 118.5078,17.5313 Q119.1563,17.6875 119.7188,17.9844 L119.7188,20.7031 Q119.0938,20.125 118.5,19.8516 Q117.9063,19.5781 117.2813,19.5781 Q115.9375,19.5781 115.25,20.6484 Q114.5625,21.7188 114.5625,23.8125 Q114.5625,25.9063 115.25,26.9766 Q115.9375,28.0469 117.2813,28.0469 Q117.9063,28.0469 118.5,27.7734 Q119.0938,27.5 119.7188,26.9219 L119.7188,29.6406 Z "/><text fill="#000000" font-family="sans-serif" font-size="12" lengthAdjust="spacingAndGlyphs" textLength="52" x="137.25" y="28.1543">Concept</text><line style="stroke: #A80036; stroke-width: 1.5;" x1="7" x2="287" y1="40" y2="40"/><line style="stroke: #A80036; stroke-width: 1.5;" x1="7" x2="287" y1="48" y2="48"/><rect fill="#F24D5C" height="6" style="stroke: #C82930; stroke-width: 1.0;" width="6" x="14" y="56.9023"/><text fill="#000000" font-family="sans-serif" font-size="11" lengthAdjust="spacingAndGlyphs" textLength="256" x="26" y="62.2104">void constructor(ModelManager,string,string)</text><ellipse cx="17" cy="72.707" fill="#84BE84" rx="3" ry="3" style="stroke: #038048; stroke-width: 1.0;"/><text fill="#000000" font-family="sans-serif" font-size="11" lengthAdjust="spacingAndGlyphs" textLength="113" x="26" y="75.0151">boolean isConcept()</text><!--class Typed--><rect fill="#FEFECE" filter="url(#fhf5od4)" height="48" style="stroke: #A80036; stroke-width: 1.5;" width="69" x="112.75" y="142"/><ellipse cx="127.75" cy="158" fill="#ADD1B2" rx="11" ry="11" style="stroke: #A80036; stroke-width: 1.0;"/><path d="M130.7188,163.6406 Q130.1406,163.9375 129.5,164.0859 Q128.8594,164.2344 128.1563,164.2344 Q125.6563,164.2344 124.3359,162.5859 Q123.0156,160.9375 123.0156,157.8125 Q123.0156,154.6875 124.3359,153.0313 Q125.6563,151.375 128.1563,151.375 Q128.8594,151.375 129.5078,151.5313 Q130.1563,151.6875 130.7188,151.9844 L130.7188,154.7031 Q130.0938,154.125 129.5,153.8516 Q128.9063,153.5781 128.2813,153.5781 Q126.9375,153.5781 126.25,154.6484 Q125.5625,155.7188 125.5625,157.8125 Q125.5625,159.9063 126.25,160.9766 Q126.9375,162.0469 128.2813,162.0469 Q128.9063,162.0469 129.5,161.7734 Q130.0938,161.5 130.7188,160.9219 L130.7188,163.6406 Z "/><text fill="#000000" font-family="sans-serif" font-size="12" lengthAdjust="spacingAndGlyphs" textLength="37" x="141.75" y="162.1543">Typed</text><line style="stroke: #A80036; stroke-width: 1.5;" x1="113.75" x2="180.75" y1="174" y2="174"/><line style="stroke: #A80036; stroke-width: 1.5;" x1="113.75" x2="180.75" y1="182" y2="182"/><path d="M147,82.027 C147,94.4728 147,108.5506 147,121.529 " fill="none" style="stroke: #A80036; stroke-width: 1.0;"/><polygon fill="none" points="154,121.8505,147,141.8505,140,121.8504,154,121.8505" style="stroke: #A80036; stroke-width: 1.0;"/></g></svg>