<?xml version="1.0" encoding="UTF-8" standalone="no"?><svg xmlns="http://www.w3.org/2000/svg" xmlns:xlink="http://www.w3.org/1999/xlink" contentScriptType="application/ecmascript" contentStyleType="text/css" height="199px" preserveAspectRatio="none" style="width:233px;height:199px;" version="1.1" viewBox="0 0 233 199" width="233px" zoomAndPan="magnify"><defs><filter height="300%" id="fu0xqx4" width="300%" x="-1" y="-1"><feGaussianBlur result="blurOut" stdDeviation="2.0"/><feColorMatrix in="blurOut" result="blurOut2" type="matrix" values="0 0 0 0 0 0 0 0 0 0 0 0 0 0 0 0 0 0 .4 0"/><feOffset dx="4.0" dy="4.0" in="blurOut2" result="blurOut3"/><feBlend in="SourceGraphic" in2="blurOut3" mode="normal"/></filter></defs><g><!--class ConceptDeclaration--><rect fill="#FEFECE" filter="url(#fu0xqx4)" height="73.6094" style="stroke: #A80036; stroke-width: 1.5;" width="218" x="6" y="8"/><ellipse cx="48.9" cy="24" fill="#ADD1B2" rx="11" ry="11" style="stroke: #A80036; stroke-width: 1.0;"/><path d="M51.8688,29.6406 Q51.2906,29.9375 50.65,30.0859 Q50.0094,30.2344 49.3063,30.2344 Q46.8063,30.2344 45.4859,28.5859 Q44.1656,26.9375 44.1656,23.8125 Q44.1656,20.6875 45.4859,19.0313 Q46.8063,17.375 49.3063,17.375 Q50.0094,17.375 50.6578,17.5313 Q51.3063,17.6875 51.8688,17.9844 L51.8688,20.7031 Q51.2438,20.125 50.65,19.8516 Q50.0563,19.5781 49.4313,19.5781 Q48.0875,19.5781 47.4,20.6484 Q46.7125,21.7188 46.7125,23.8125 Q46.7125,25.9063 47.4,26.9766 Q48.0875,28.0469 49.4313,28.0469 Q50.0563,28.0469 50.65,27.7734 Q51.2438,27.5 51.8688,26.9219 L51.8688,29.6406 Z "/><text fill="#000000" font-family="sans-serif" font-size="12" lengthAdjust="spacingAndGlyphs" textLength="124" x="69.1" y="28.1543">ConceptDeclaration</text><line style="stroke: #A80036; stroke-width: 1.5;" x1="7" x2="223" y1="40" y2="40"/><line style="stroke: #A80036; stroke-width: 1.5;" x1="7" x2="223" y1="48" y2="48"/><ellipse cx="17" cy="59.9023" fill="#84BE84" rx="3" ry="3" style="stroke: #038048; stroke-width: 1.0;"/><text fill="#000000" font-family="sans-serif" font-size="11" lengthAdjust="spacingAndGlyphs" textLength="192" x="26" y="62.2104">void constructor(ModelFile,Object)</text><ellipse cx="17" cy="72.707" fill="#84BE84" rx="3" ry="3" style="stroke: #038048; stroke-width: 1.0;"/><text fill="#000000" font-family="sans-serif" font-size="11" lengthAdjust="spacingAndGlyphs" textLength="113" x="26" y="75.0151">boolean isConcept()</text><!--class ClassDeclaration--><rect fill="#FEFECE" filter="url(#fu0xqx4)" height="48" style="stroke: #A80036; stroke-width: 1.5;" width="137" x="46.75" y="142"/><ellipse cx="61.75" cy="158" fill="#ADD1B2" rx="11" ry="11" style="stroke: #A80036; stroke-width: 1.0;"/><path d="M64.7188,163.6406 Q64.1406,163.9375 63.5,164.0859 Q62.8594,164.2344 62.1563,164.2344 Q59.6563,164.2344 58.3359,162.5859 Q57.0156,160.9375 57.0156,157.8125 Q57.0156,154.6875 58.3359,153.0313 Q59.6563,151.375 62.1563,151.375 Q62.8594,151.375 63.5078,151.5313 Q64.1563,151.6875 64.7188,151.9844 L64.7188,154.7031 Q64.0938,154.125 63.5,153.8516 Q62.9063,153.5781 62.2813,153.5781 Q60.9375,153.5781 60.25,154.6484 Q59.5625,155.7188 59.5625,157.8125 Q59.5625,159.9063 60.25,160.9766 Q60.9375,162.0469 62.2813,162.0469 Q62.9063,162.0469 63.5,161.7734 Q64.0938,161.5 64.7188,160.9219 L64.7188,163.6406 Z "/><text fill="#000000" font-family="sans-serif" font-size="12" lengthAdjust="spacingAndGlyphs" textLength="105" x="75.75" y="162.1543">ClassDeclaration</text><line style="stroke: #A80036; stroke-width: 1.5;" x1="47.75" x2="182.75" y1="174" y2="174"/><line style="stroke: #A80036; stroke-width: 1.5;" x1="47.75" x2="182.75" y1="182" y2="182"/><path d="M115,82.027 C115,94.4728 115,108.5506 115,121.529 " fill="none" style="stroke: #A80036; stroke-width: 1.0;"/><polygon fill="none" points="122,121.8505,115,141.8505,108,121.8504,122,121.8505" style="stroke: #A80036; stroke-width: 1.0;"/></g></svg>