<?xml version="1.0" encoding="UTF-8" standalone="no"?><svg xmlns="http://www.w3.org/2000/svg" xmlns:xlink="http://www.w3.org/1999/xlink" contentScriptType="application/ecmascript" contentStyleType="text/css" height="116px" preserveAspectRatio="none" style="width:367px;height:116px;" version="1.1" viewBox="0 0 367 116" width="367px" zoomAndPan="magnify"><defs><filter height="300%" id="fuwnjcq" width="300%" x="-1" y="-1"><feGaussianBlur result="blurOut" stdDeviation="2.0"/><feColorMatrix in="blurOut" result="blurOut2" type="matrix" values="0 0 0 0 0 0 0 0 0 0 0 0 0 0 0 0 0 0 .4 0"/><feOffset dx="4.0" dy="4.0" in="blurOut2" result="blurOut3"/><feBlend in="SourceGraphic" in2="blurOut3" mode="normal"/></filter></defs><g><!--class ConnectionManager--><rect fill="#FEFECE" filter="url(#fuwnjcq)" height="99.2188" style="stroke: #A80036; stroke-width: 1.5;" width="352" x="6" y="8.5"/><ellipse cx="114.75" cy="24.5" fill="#ADD1B2" rx="11" ry="11" style="stroke: #A80036; stroke-width: 1.0;"/><path d="M117.7188,30.1406 Q117.1406,30.4375 116.5,30.5859 Q115.8594,30.7344 115.1563,30.7344 Q112.6563,30.7344 111.3359,29.0859 Q110.0156,27.4375 110.0156,24.3125 Q110.0156,21.1875 111.3359,19.5313 Q112.6563,17.875 115.1563,17.875 Q115.8594,17.875 116.5078,18.0313 Q117.1563,18.1875 117.7188,18.4844 L117.7188,21.2031 Q117.0938,20.625 116.5,20.3516 Q115.9063,20.0781 115.2813,20.0781 Q113.9375,20.0781 113.25,21.1484 Q112.5625,22.2188 112.5625,24.3125 Q112.5625,26.4063 113.25,27.4766 Q113.9375,28.5469 115.2813,28.5469 Q115.9063,28.5469 116.5,28.2734 Q117.0938,28 117.7188,27.4219 L117.7188,30.1406 Z "/><text fill="#000000" font-family="sans-serif" font-size="12" lengthAdjust="spacingAndGlyphs" textLength="126" x="135.25" y="28.6543">ConnectionManager</text><line style="stroke: #A80036; stroke-width: 1.5;" x1="7" x2="357" y1="40.5" y2="40.5"/><line style="stroke: #A80036; stroke-width: 1.5;" x1="7" x2="357" y1="48.5" y2="48.5"/><ellipse cx="17" cy="60.4023" fill="#84BE84" rx="3" ry="3" style="stroke: #038048; stroke-width: 1.0;"/><text fill="#000000" font-family="sans-serif" font-size="11" lengthAdjust="spacingAndGlyphs" textLength="248" x="26" y="62.7104">void constructor(ConnectionProfileManager)</text><ellipse cx="17" cy="73.207" fill="#84BE84" rx="3" ry="3" style="stroke: #038048; stroke-width: 1.0;"/><text fill="#000000" font-family="sans-serif" font-size="11" lengthAdjust="spacingAndGlyphs" textLength="326" x="26" y="75.5151">ConnectionProfileManager getConnectionProfileManager()</text><ellipse cx="17" cy="86.0117" fill="#84BE84" rx="3" ry="3" style="stroke: #038048; stroke-width: 1.0;"/><text fill="#000000" font-family="sans-serif" font-size="11" lengthAdjust="spacingAndGlyphs" textLength="211" x="26" y="88.3198">Promise connect(string,string,object)</text><ellipse cx="17" cy="98.8164" fill="#84BE84" rx="3" ry="3" style="stroke: #038048; stroke-width: 1.0;"/><text fill="#000000" font-family="sans-serif" font-size="11" lengthAdjust="spacingAndGlyphs" textLength="87" x="26" y="101.1245">Object toJSON()</text></g></svg>