<?xml version="1.0" encoding="UTF-8" standalone="no"?><svg xmlns="http://www.w3.org/2000/svg" xmlns:xlink="http://www.w3.org/1999/xlink" contentScriptType="application/ecmascript" contentStyleType="text/css" height="154px" preserveAspectRatio="none" style="width:358px;height:154px;" version="1.1" viewBox="0 0 358 154" width="358px" zoomAndPan="magnify"><defs><filter height="300%" id="flkn6ip" width="300%" x="-1" y="-1"><feGaussianBlur result="blurOut" stdDeviation="2.0"/><feColorMatrix in="blurOut" result="blurOut2" type="matrix" values="0 0 0 0 0 0 0 0 0 0 0 0 0 0 0 0 0 0 .4 0"/><feOffset dx="4.0" dy="4.0" in="blurOut2" result="blurOut3"/><feBlend in="SourceGraphic" in2="blurOut3" mode="normal"/></filter></defs><g><!--class ConnectionProfileManager--><rect fill="#FEFECE" filter="url(#flkn6ip)" height="137.6328" style="stroke: #A80036; stroke-width: 1.5;" width="343" x="6" y="8"/><ellipse cx="90.75" cy="24" fill="#ADD1B2" rx="11" ry="11" style="stroke: #A80036; stroke-width: 1.0;"/><path d="M93.7188,29.6406 Q93.1406,29.9375 92.5,30.0859 Q91.8594,30.2344 91.1563,30.2344 Q88.6563,30.2344 87.3359,28.5859 Q86.0156,26.9375 86.0156,23.8125 Q86.0156,20.6875 87.3359,19.0313 Q88.6563,17.375 91.1563,17.375 Q91.8594,17.375 92.5078,17.5313 Q93.1563,17.6875 93.7188,17.9844 L93.7188,20.7031 Q93.0938,20.125 92.5,19.8516 Q91.9063,19.5781 91.2813,19.5781 Q89.9375,19.5781 89.25,20.6484 Q88.5625,21.7188 88.5625,23.8125 Q88.5625,25.9063 89.25,26.9766 Q89.9375,28.0469 91.2813,28.0469 Q91.9063,28.0469 92.5,27.7734 Q93.0938,27.5 93.7188,26.9219 L93.7188,29.6406 Z "/><text fill="#000000" font-family="sans-serif" font-size="12" lengthAdjust="spacingAndGlyphs" textLength="165" x="111.25" y="28.1543">ConnectionProfileManager</text><line style="stroke: #A80036; stroke-width: 1.5;" x1="7" x2="348" y1="40" y2="40"/><line style="stroke: #A80036; stroke-width: 1.5;" x1="7" x2="348" y1="48" y2="48"/><ellipse cx="17" cy="59.9023" fill="#84BE84" rx="3" ry="3" style="stroke: #038048; stroke-width: 1.0;"/><text fill="#000000" font-family="sans-serif" font-size="11" lengthAdjust="spacingAndGlyphs" textLength="274" x="26" y="62.2104">void registerConnectionManager(string,function)</text><ellipse cx="17" cy="72.707" fill="#84BE84" rx="3" ry="3" style="stroke: #038048; stroke-width: 1.0;"/><text fill="#000000" font-family="sans-serif" font-size="11" lengthAdjust="spacingAndGlyphs" textLength="230" x="26" y="75.0151">void constructor(ConnectionProfileStore)</text><ellipse cx="17" cy="85.5117" fill="#84BE84" rx="3" ry="3" style="stroke: #038048; stroke-width: 1.0;"/><text fill="#000000" font-family="sans-serif" font-size="11" lengthAdjust="spacingAndGlyphs" textLength="290" x="26" y="87.8198">ConnectionProfileStore getConnectionProfileStore()</text><ellipse cx="17" cy="98.3164" fill="#84BE84" rx="3" ry="3" style="stroke: #038048; stroke-width: 1.0;"/><text fill="#000000" font-family="sans-serif" font-size="11" lengthAdjust="spacingAndGlyphs" textLength="317" x="26" y="100.6245">void addConnectionManager(string,ConnectionManager)</text><ellipse cx="17" cy="111.1211" fill="#84BE84" rx="3" ry="3" style="stroke: #038048; stroke-width: 1.0;"/><text fill="#000000" font-family="sans-serif" font-size="11" lengthAdjust="spacingAndGlyphs" textLength="222" x="26" y="113.4292">Promise getConnectionManager(string)</text><ellipse cx="17" cy="123.9258" fill="#84BE84" rx="3" ry="3" style="stroke: #038048; stroke-width: 1.0;"/><text fill="#000000" font-family="sans-serif" font-size="11" lengthAdjust="spacingAndGlyphs" textLength="173" x="26" y="126.2339">Promise connect(string,string)</text><ellipse cx="17" cy="136.7305" fill="#84BE84" rx="3" ry="3" style="stroke: #038048; stroke-width: 1.0;"/><text fill="#000000" font-family="sans-serif" font-size="11" lengthAdjust="spacingAndGlyphs" textLength="87" x="26" y="139.0386">Object toJSON()</text></g></svg>