<?xml version="1.0" encoding="UTF-8" standalone="no"?><svg xmlns="http://www.w3.org/2000/svg" xmlns:xlink="http://www.w3.org/1999/xlink" contentScriptType="application/ecmascript" contentStyleType="text/css" height="244px" preserveAspectRatio="none" style="width:431px;height:244px;" version="1.1" viewBox="0 0 431 244" width="431px" zoomAndPan="magnify"><defs><filter height="300%" id="ff3nsms" width="300%" x="-1" y="-1"><feGaussianBlur result="blurOut" stdDeviation="2.0"/><feColorMatrix in="blurOut" result="blurOut2" type="matrix" values="0 0 0 0 0 0 0 0 0 0 0 0 0 0 0 0 0 0 .4 0"/><feOffset dx="4.0" dy="4.0" in="blurOut2" result="blurOut3"/><feBlend in="SourceGraphic" in2="blurOut3" mode="normal"/></filter></defs><g><!--class Connection--><rect fill="#FEFECE" filter="url(#ff3nsms)" height="227.2656" style="stroke: #A80036; stroke-width: 1.5;" width="416" x="6" y="8.5"/><ellipse cx="174.25" cy="24.5" fill="#ADD1B2" rx="11" ry="11" style="stroke: #A80036; stroke-width: 1.0;"/><path d="M177.2188,30.1406 Q176.6406,30.4375 176,30.5859 Q175.3594,30.7344 174.6563,30.7344 Q172.1563,30.7344 170.8359,29.0859 Q169.5156,27.4375 169.5156,24.3125 Q169.5156,21.1875 170.8359,19.5313 Q172.1563,17.875 174.6563,17.875 Q175.3594,17.875 176.0078,18.0313 Q176.6563,18.1875 177.2188,18.4844 L177.2188,21.2031 Q176.5938,20.625 176,20.3516 Q175.4063,20.0781 174.7813,20.0781 Q173.4375,20.0781 172.75,21.1484 Q172.0625,22.2188 172.0625,24.3125 Q172.0625,26.4063 172.75,27.4766 Q173.4375,28.5469 174.7813,28.5469 Q175.4063,28.5469 176,28.2734 Q176.5938,28 177.2188,27.4219 L177.2188,30.1406 Z "/><text fill="#000000" font-family="sans-serif" font-size="12" lengthAdjust="spacingAndGlyphs" textLength="71" x="194.75" y="28.6543">Connection</text><line style="stroke: #A80036; stroke-width: 1.5;" x1="7" x2="421" y1="40.5" y2="40.5"/><line style="stroke: #A80036; stroke-width: 1.5;" x1="7" x2="421" y1="48.5" y2="48.5"/><ellipse cx="17" cy="60.4023" fill="#84BE84" rx="3" ry="3" style="stroke: #038048; stroke-width: 1.0;"/><text fill="#000000" font-family="sans-serif" font-size="11" lengthAdjust="spacingAndGlyphs" textLength="286" x="26" y="62.7104">void constructor(ConnectionManager,string,string)</text><ellipse cx="17" cy="73.207" fill="#84BE84" rx="3" ry="3" style="stroke: #038048; stroke-width: 1.0;"/><text fill="#000000" font-family="sans-serif" font-size="11" lengthAdjust="spacingAndGlyphs" textLength="254" x="26" y="75.5151">ConnectionManager getConnectionManager()</text><ellipse cx="17" cy="86.0117" fill="#84BE84" rx="3" ry="3" style="stroke: #038048; stroke-width: 1.0;"/><text fill="#000000" font-family="sans-serif" font-size="11" lengthAdjust="spacingAndGlyphs" textLength="113" x="26" y="88.3198">string getIdentifier()</text><ellipse cx="17" cy="98.8164" fill="#84BE84" rx="3" ry="3" style="stroke: #038048; stroke-width: 1.0;"/><text fill="#000000" font-family="sans-serif" font-size="11" lengthAdjust="spacingAndGlyphs" textLength="120" x="26" y="101.1245">Promise disconnect()</text><ellipse cx="17" cy="111.6211" fill="#84BE84" rx="3" ry="3" style="stroke: #038048; stroke-width: 1.0;"/><text fill="#000000" font-family="sans-serif" font-size="11" lengthAdjust="spacingAndGlyphs" textLength="156" x="26" y="113.9292">Promise login(string,string)</text><ellipse cx="17" cy="124.4258" fill="#84BE84" rx="3" ry="3" style="stroke: #038048; stroke-width: 1.0;"/><text fill="#000000" font-family="sans-serif" font-size="11" lengthAdjust="spacingAndGlyphs" textLength="390" x="26" y="126.7339">Promise deploy(SecurityContext,boolean,BusinessNetworkDefinition)</text><ellipse cx="17" cy="137.2305" fill="#84BE84" rx="3" ry="3" style="stroke: #038048; stroke-width: 1.0;"/><text fill="#000000" font-family="sans-serif" font-size="11" lengthAdjust="spacingAndGlyphs" textLength="343" x="26" y="139.5386">Promise update(SecurityContext,BusinessNetworkDefinition)</text><ellipse cx="17" cy="150.0352" fill="#84BE84" rx="3" ry="3" style="stroke: #038048; stroke-width: 1.0;"/><text fill="#000000" font-family="sans-serif" font-size="11" lengthAdjust="spacingAndGlyphs" textLength="236" x="26" y="152.3433">Promise undeploy(SecurityContext,string)</text><ellipse cx="17" cy="162.8398" fill="#84BE84" rx="3" ry="3" style="stroke: #038048; stroke-width: 1.0;"/><text fill="#000000" font-family="sans-serif" font-size="11" lengthAdjust="spacingAndGlyphs" textLength="172" x="26" y="165.1479">Promise ping(SecurityContext)</text><ellipse cx="17" cy="175.6445" fill="#84BE84" rx="3" ry="3" style="stroke: #038048; stroke-width: 1.0;"/><text fill="#000000" font-family="sans-serif" font-size="11" lengthAdjust="spacingAndGlyphs" textLength="323" x="26" y="177.9526">Promise queryChainCode(SecurityContext,string,string[])</text><ellipse cx="17" cy="188.4492" fill="#84BE84" rx="3" ry="3" style="stroke: #038048; stroke-width: 1.0;"/><text fill="#000000" font-family="sans-serif" font-size="11" lengthAdjust="spacingAndGlyphs" textLength="327" x="26" y="190.7573">Promise invokeChainCode(SecurityContext,string,string[])</text><ellipse cx="17" cy="201.2539" fill="#84BE84" rx="3" ry="3" style="stroke: #038048; stroke-width: 1.0;"/><text fill="#000000" font-family="sans-serif" font-size="11" lengthAdjust="spacingAndGlyphs" textLength="386" x="26" y="203.562">Promise createIdentity(SecurityContext,string,object,boolean,string)</text><ellipse cx="17" cy="214.0586" fill="#84BE84" rx="3" ry="3" style="stroke: #038048; stroke-width: 1.0;"/><text fill="#000000" font-family="sans-serif" font-size="11" lengthAdjust="spacingAndGlyphs" textLength="165" x="26" y="216.3667">Promise list(SecurityContext)</text><ellipse cx="17" cy="226.8633" fill="#84BE84" rx="3" ry="3" style="stroke: #038048; stroke-width: 1.0;"/><text fill="#000000" font-family="sans-serif" font-size="11" lengthAdjust="spacingAndGlyphs" textLength="87" x="26" y="229.1714">Object toJSON()</text></g></svg>