<?xml version="1.0" encoding="UTF-8" standalone="no"?><svg xmlns="http://www.w3.org/2000/svg" xmlns:xlink="http://www.w3.org/1999/xlink" contentScriptType="application/ecmascript" contentStyleType="text/css" height="199px" preserveAspectRatio="none" style="width:277px;height:199px;" version="1.1" viewBox="0 0 277 199" width="277px" zoomAndPan="magnify"><defs><filter height="300%" id="fydagke" width="300%" x="-1" y="-1"><feGaussianBlur result="blurOut" stdDeviation="2.0"/><feColorMatrix in="blurOut" result="blurOut2" type="matrix" values="0 0 0 0 0 0 0 0 0 0 0 0 0 0 0 0 0 0 .4 0"/><feOffset dx="4.0" dy="4.0" in="blurOut2" result="blurOut3"/><feBlend in="SourceGraphic" in2="blurOut3" mode="normal"/></filter></defs><g><!--class EnumValueDeclaration--><rect fill="#FEFECE" filter="url(#fydagke)" height="73.6094" style="stroke: #A80036; stroke-width: 1.5;" width="262" x="6" y="8"/><ellipse cx="61.75" cy="24" fill="#ADD1B2" rx="11" ry="11" style="stroke: #A80036; stroke-width: 1.0;"/><path d="M64.7188,29.6406 Q64.1406,29.9375 63.5,30.0859 Q62.8594,30.2344 62.1563,30.2344 Q59.6563,30.2344 58.3359,28.5859 Q57.0156,26.9375 57.0156,23.8125 Q57.0156,20.6875 58.3359,19.0313 Q59.6563,17.375 62.1563,17.375 Q62.8594,17.375 63.5078,17.5313 Q64.1563,17.6875 64.7188,17.9844 L64.7188,20.7031 Q64.0938,20.125 63.5,19.8516 Q62.9063,19.5781 62.2813,19.5781 Q60.9375,19.5781 60.25,20.6484 Q59.5625,21.7188 59.5625,23.8125 Q59.5625,25.9063 60.25,26.9766 Q60.9375,28.0469 62.2813,28.0469 Q62.9063,28.0469 63.5,27.7734 Q64.0938,27.5 64.7188,26.9219 L64.7188,29.6406 Z "/><text fill="#000000" font-family="sans-serif" font-size="12" lengthAdjust="spacingAndGlyphs" textLength="142" x="82.25" y="28.1543">EnumValueDeclaration</text><line style="stroke: #A80036; stroke-width: 1.5;" x1="7" x2="267" y1="40" y2="40"/><line style="stroke: #A80036; stroke-width: 1.5;" x1="7" x2="267" y1="48" y2="48"/><ellipse cx="17" cy="59.9023" fill="#84BE84" rx="3" ry="3" style="stroke: #038048; stroke-width: 1.0;"/><text fill="#000000" font-family="sans-serif" font-size="11" lengthAdjust="spacingAndGlyphs" textLength="236" x="26" y="62.2104">void constructor(ClassDeclaration,Object)</text><rect fill="#F24D5C" height="6" style="stroke: #C82930; stroke-width: 1.0;" width="6" x="14" y="69.707"/><text fill="#000000" font-family="sans-serif" font-size="11" lengthAdjust="spacingAndGlyphs" textLength="175" x="26" y="75.0151">void validate(ClassDeclaration)</text><!--class Property--><rect fill="#FEFECE" filter="url(#fydagke)" height="48" style="stroke: #A80036; stroke-width: 1.5;" width="85" x="94.75" y="142"/><ellipse cx="109.75" cy="158" fill="#ADD1B2" rx="11" ry="11" style="stroke: #A80036; stroke-width: 1.0;"/><path d="M112.7188,163.6406 Q112.1406,163.9375 111.5,164.0859 Q110.8594,164.2344 110.1563,164.2344 Q107.6563,164.2344 106.3359,162.5859 Q105.0156,160.9375 105.0156,157.8125 Q105.0156,154.6875 106.3359,153.0313 Q107.6563,151.375 110.1563,151.375 Q110.8594,151.375 111.5078,151.5313 Q112.1563,151.6875 112.7188,151.9844 L112.7188,154.7031 Q112.0938,154.125 111.5,153.8516 Q110.9063,153.5781 110.2813,153.5781 Q108.9375,153.5781 108.25,154.6484 Q107.5625,155.7188 107.5625,157.8125 Q107.5625,159.9063 108.25,160.9766 Q108.9375,162.0469 110.2813,162.0469 Q110.9063,162.0469 111.5,161.7734 Q112.0938,161.5 112.7188,160.9219 L112.7188,163.6406 Z "/><text fill="#000000" font-family="sans-serif" font-size="12" lengthAdjust="spacingAndGlyphs" textLength="53" x="123.75" y="162.1543">Property</text><line style="stroke: #A80036; stroke-width: 1.5;" x1="95.75" x2="178.75" y1="174" y2="174"/><line style="stroke: #A80036; stroke-width: 1.5;" x1="95.75" x2="178.75" y1="182" y2="182"/><path d="M137,82.027 C137,94.4728 137,108.5506 137,121.529 " fill="none" style="stroke: #A80036; stroke-width: 1.0;"/><polygon fill="none" points="144,121.8505,137,141.8505,130,121.8504,144,121.8505" style="stroke: #A80036; stroke-width: 1.0;"/></g></svg>