<?xml version="1.0" encoding="UTF-8" standalone="no"?><svg xmlns="http://www.w3.org/2000/svg" xmlns:xlink="http://www.w3.org/1999/xlink" contentScriptType="application/ecmascript" contentStyleType="text/css" height="211px" preserveAspectRatio="none" style="width:233px;height:211px;" version="1.1" viewBox="0 0 233 211" width="233px" zoomAndPan="magnify"><defs><filter height="300%" id="ff7x2cj" width="300%" x="-1" y="-1"><feGaussianBlur result="blurOut" stdDeviation="2.0"/><feColorMatrix in="blurOut" result="blurOut2" type="matrix" values="0 0 0 0 0 0 0 0 0 0 0 0 0 0 0 0 0 0 .4 0"/><feOffset dx="4.0" dy="4.0" in="blurOut2" result="blurOut3"/><feBlend in="SourceGraphic" in2="blurOut3" mode="normal"/></filter></defs><g><!--class EnumDeclaration--><rect fill="#FEFECE" filter="url(#ff7x2cj)" height="86.4141" style="stroke: #A80036; stroke-width: 1.5;" width="218" x="6" y="8"/><ellipse cx="57.25" cy="24" fill="#ADD1B2" rx="11" ry="11" style="stroke: #A80036; stroke-width: 1.0;"/><path d="M60.2188,29.6406 Q59.6406,29.9375 59,30.0859 Q58.3594,30.2344 57.6563,30.2344 Q55.1563,30.2344 53.8359,28.5859 Q52.5156,26.9375 52.5156,23.8125 Q52.5156,20.6875 53.8359,19.0313 Q55.1563,17.375 57.6563,17.375 Q58.3594,17.375 59.0078,17.5313 Q59.6563,17.6875 60.2188,17.9844 L60.2188,20.7031 Q59.5938,20.125 59,19.8516 Q58.4063,19.5781 57.7813,19.5781 Q56.4375,19.5781 55.75,20.6484 Q55.0625,21.7188 55.0625,23.8125 Q55.0625,25.9063 55.75,26.9766 Q56.4375,28.0469 57.7813,28.0469 Q58.4063,28.0469 59,27.7734 Q59.5938,27.5 60.2188,26.9219 L60.2188,29.6406 Z "/><text fill="#000000" font-family="sans-serif" font-size="12" lengthAdjust="spacingAndGlyphs" textLength="107" x="77.75" y="28.1543">EnumDeclaration</text><line style="stroke: #A80036; stroke-width: 1.5;" x1="7" x2="223" y1="40" y2="40"/><line style="stroke: #A80036; stroke-width: 1.5;" x1="7" x2="223" y1="48" y2="48"/><ellipse cx="17" cy="59.9023" fill="#84BE84" rx="3" ry="3" style="stroke: #038048; stroke-width: 1.0;"/><text fill="#000000" font-family="sans-serif" font-size="11" lengthAdjust="spacingAndGlyphs" textLength="192" x="26" y="62.2104">void constructor(ModelFile,Object)</text><ellipse cx="17" cy="72.707" fill="#84BE84" rx="3" ry="3" style="stroke: #038048; stroke-width: 1.0;"/><text fill="#000000" font-family="sans-serif" font-size="11" lengthAdjust="spacingAndGlyphs" textLength="99" x="26" y="75.0151">boolean isEnum()</text><ellipse cx="17" cy="85.5117" fill="#84BE84" rx="3" ry="3" style="stroke: #038048; stroke-width: 1.0;"/><text fill="#000000" font-family="sans-serif" font-size="11" lengthAdjust="spacingAndGlyphs" textLength="91" x="26" y="87.8198">String toString()</text><!--class ClassDeclaration--><rect fill="#FEFECE" filter="url(#ff7x2cj)" height="48" style="stroke: #A80036; stroke-width: 1.5;" width="137" x="46.75" y="154"/><ellipse cx="61.75" cy="170" fill="#ADD1B2" rx="11" ry="11" style="stroke: #A80036; stroke-width: 1.0;"/><path d="M64.7188,175.6406 Q64.1406,175.9375 63.5,176.0859 Q62.8594,176.2344 62.1563,176.2344 Q59.6563,176.2344 58.3359,174.5859 Q57.0156,172.9375 57.0156,169.8125 Q57.0156,166.6875 58.3359,165.0313 Q59.6563,163.375 62.1563,163.375 Q62.8594,163.375 63.5078,163.5313 Q64.1563,163.6875 64.7188,163.9844 L64.7188,166.7031 Q64.0938,166.125 63.5,165.8516 Q62.9063,165.5781 62.2813,165.5781 Q60.9375,165.5781 60.25,166.6484 Q59.5625,167.7188 59.5625,169.8125 Q59.5625,171.9063 60.25,172.9766 Q60.9375,174.0469 62.2813,174.0469 Q62.9063,174.0469 63.5,173.7734 Q64.0938,173.5 64.7188,172.9219 L64.7188,175.6406 Z "/><text fill="#000000" font-family="sans-serif" font-size="12" lengthAdjust="spacingAndGlyphs" textLength="105" x="75.75" y="174.1543">ClassDeclaration</text><line style="stroke: #A80036; stroke-width: 1.5;" x1="47.75" x2="182.75" y1="186" y2="186"/><line style="stroke: #A80036; stroke-width: 1.5;" x1="47.75" x2="182.75" y1="194" y2="194"/><path d="M115,94.319 C115,106.869 115,120.6347 115,133.2718 " fill="none" style="stroke: #A80036; stroke-width: 1.0;"/><polygon fill="none" points="122,133.6717,115,153.6717,108,133.6717,122,133.6717" style="stroke: #A80036; stroke-width: 1.0;"/></g></svg>