<?xml version="1.0" encoding="UTF-8" standalone="no"?><svg xmlns="http://www.w3.org/2000/svg" xmlns:xlink="http://www.w3.org/1999/xlink" contentScriptType="application/ecmascript" contentStyleType="text/css" height="129px" preserveAspectRatio="none" style="width:422px;height:129px;" version="1.1" viewBox="0 0 422 129" width="422px" zoomAndPan="magnify"><defs><filter height="300%" id="f18auo9" width="300%" x="-1" y="-1"><feGaussianBlur result="blurOut" stdDeviation="2.0"/><feColorMatrix in="blurOut" result="blurOut2" type="matrix" values="0 0 0 0 0 0 0 0 0 0 0 0 0 0 0 0 0 0 .4 0"/><feOffset dx="4.0" dy="4.0" in="blurOut2" result="blurOut3"/><feBlend in="SourceGraphic" in2="blurOut3" mode="normal"/></filter></defs><g><!--class Factory--><rect fill="#FEFECE" filter="url(#f18auo9)" height="112.0234" style="stroke: #A80036; stroke-width: 1.5;" width="407" x="6" y="8"/><ellipse cx="182.25" cy="24" fill="#ADD1B2" rx="11" ry="11" style="stroke: #A80036; stroke-width: 1.0;"/><path d="M185.2188,29.6406 Q184.6406,29.9375 184,30.0859 Q183.3594,30.2344 182.6563,30.2344 Q180.1563,30.2344 178.8359,28.5859 Q177.5156,26.9375 177.5156,23.8125 Q177.5156,20.6875 178.8359,19.0313 Q180.1563,17.375 182.6563,17.375 Q183.3594,17.375 184.0078,17.5313 Q184.6563,17.6875 185.2188,17.9844 L185.2188,20.7031 Q184.5938,20.125 184,19.8516 Q183.4063,19.5781 182.7813,19.5781 Q181.4375,19.5781 180.75,20.6484 Q180.0625,21.7188 180.0625,23.8125 Q180.0625,25.9063 180.75,26.9766 Q181.4375,28.0469 182.7813,28.0469 Q183.4063,28.0469 184,27.7734 Q184.5938,27.5 185.2188,26.9219 L185.2188,29.6406 Z "/><text fill="#000000" font-family="sans-serif" font-size="12" lengthAdjust="spacingAndGlyphs" textLength="46" x="202.75" y="28.1543">Factory</text><line style="stroke: #A80036; stroke-width: 1.5;" x1="7" x2="412" y1="40" y2="40"/><line style="stroke: #A80036; stroke-width: 1.5;" x1="7" x2="412" y1="48" y2="48"/><ellipse cx="17" cy="59.9023" fill="#84BE84" rx="3" ry="3" style="stroke: #038048; stroke-width: 1.0;"/><text fill="#000000" font-family="sans-serif" font-size="11" lengthAdjust="spacingAndGlyphs" textLength="182" x="26" y="62.2104">void constructor(ModelManager)</text><ellipse cx="17" cy="72.707" fill="#84BE84" rx="3" ry="3" style="stroke: #038048; stroke-width: 1.0;"/><text fill="#000000" font-family="sans-serif" font-size="11" lengthAdjust="spacingAndGlyphs" textLength="381" x="26" y="75.0151">Resource newInstance(string,string,string,Object,boolean,boolean)</text><ellipse cx="17" cy="85.5117" fill="#84BE84" rx="3" ry="3" style="stroke: #038048; stroke-width: 1.0;"/><text fill="#000000" font-family="sans-serif" font-size="11" lengthAdjust="spacingAndGlyphs" textLength="280" x="26" y="87.8198">Relationship newRelationship(string,string,string)</text><ellipse cx="17" cy="98.3164" fill="#84BE84" rx="3" ry="3" style="stroke: #038048; stroke-width: 1.0;"/><text fill="#000000" font-family="sans-serif" font-size="11" lengthAdjust="spacingAndGlyphs" textLength="351" x="26" y="100.6245">Resource newTransaction(string,string,string,Object,boolean)</text><ellipse cx="17" cy="111.1211" fill="#84BE84" rx="3" ry="3" style="stroke: #038048; stroke-width: 1.0;"/><text fill="#000000" font-family="sans-serif" font-size="11" lengthAdjust="spacingAndGlyphs" textLength="87" x="26" y="113.4292">Object toJSON()</text></g></svg>