<?xml version="1.0" encoding="UTF-8" standalone="no"?><svg xmlns="http://www.w3.org/2000/svg" xmlns:xlink="http://www.w3.org/1999/xlink" contentScriptType="application/ecmascript" contentStyleType="text/css" height="251px" preserveAspectRatio="none" style="width:277px;height:251px;" version="1.1" viewBox="0 0 277 251" width="277px" zoomAndPan="magnify"><defs><filter height="300%" id="fa89xip" width="300%" x="-1" y="-1"><feGaussianBlur result="blurOut" stdDeviation="2.0"/><feColorMatrix in="blurOut" result="blurOut2" type="matrix" values="0 0 0 0 0 0 0 0 0 0 0 0 0 0 0 0 0 0 .4 0"/><feOffset dx="4.0" dy="4.0" in="blurOut2" result="blurOut3"/><feBlend in="SourceGraphic" in2="blurOut3" mode="normal"/></filter></defs><g><!--class Field--><rect fill="#FEFECE" filter="url(#fa89xip)" height="124.8281" style="stroke: #A80036; stroke-width: 1.5;" width="262" x="6" y="8.5"/><ellipse cx="118.25" cy="24.5" fill="#ADD1B2" rx="11" ry="11" style="stroke: #A80036; stroke-width: 1.0;"/><path d="M121.2188,30.1406 Q120.6406,30.4375 120,30.5859 Q119.3594,30.7344 118.6563,30.7344 Q116.1563,30.7344 114.8359,29.0859 Q113.5156,27.4375 113.5156,24.3125 Q113.5156,21.1875 114.8359,19.5313 Q116.1563,17.875 118.6563,17.875 Q119.3594,17.875 120.0078,18.0313 Q120.6563,18.1875 121.2188,18.4844 L121.2188,21.2031 Q120.5938,20.625 120,20.3516 Q119.4063,20.0781 118.7813,20.0781 Q117.4375,20.0781 116.75,21.1484 Q116.0625,22.2188 116.0625,24.3125 Q116.0625,26.4063 116.75,27.4766 Q117.4375,28.5469 118.7813,28.5469 Q119.4063,28.5469 120,28.2734 Q120.5938,28 121.2188,27.4219 L121.2188,30.1406 Z "/><text fill="#000000" font-family="sans-serif" font-size="12" lengthAdjust="spacingAndGlyphs" textLength="29" x="138.75" y="28.6543">Field</text><line style="stroke: #A80036; stroke-width: 1.5;" x1="7" x2="267" y1="40.5" y2="40.5"/><line style="stroke: #A80036; stroke-width: 1.5;" x1="7" x2="267" y1="48.5" y2="48.5"/><ellipse cx="17" cy="60.4023" fill="#84BE84" rx="3" ry="3" style="stroke: #038048; stroke-width: 1.0;"/><text fill="#000000" font-family="sans-serif" font-size="11" lengthAdjust="spacingAndGlyphs" textLength="236" x="26" y="62.7104">void constructor(ClassDeclaration,Object)</text><rect fill="#F24D5C" height="6" style="stroke: #C82930; stroke-width: 1.0;" width="6" x="14" y="70.207"/><text fill="#000000" font-family="sans-serif" font-size="11" lengthAdjust="spacingAndGlyphs" textLength="81" x="26" y="75.5151">void process()</text><ellipse cx="17" cy="86.0117" fill="#84BE84" rx="3" ry="3" style="stroke: #038048; stroke-width: 1.0;"/><text fill="#000000" font-family="sans-serif" font-size="11" lengthAdjust="spacingAndGlyphs" textLength="113" x="26" y="88.3198">string getValidator()</text><ellipse cx="17" cy="98.8164" fill="#84BE84" rx="3" ry="3" style="stroke: #038048; stroke-width: 1.0;"/><text fill="#000000" font-family="sans-serif" font-size="11" lengthAdjust="spacingAndGlyphs" textLength="134" x="26" y="101.1245">string getDefaultValue()</text><ellipse cx="17" cy="111.6211" fill="#84BE84" rx="3" ry="3" style="stroke: #038048; stroke-width: 1.0;"/><text fill="#000000" font-family="sans-serif" font-size="11" lengthAdjust="spacingAndGlyphs" textLength="87" x="26" y="113.9292">Object toJSON()</text><ellipse cx="17" cy="124.4258" fill="#84BE84" rx="3" ry="3" style="stroke: #038048; stroke-width: 1.0;"/><text fill="#000000" font-family="sans-serif" font-size="11" lengthAdjust="spacingAndGlyphs" textLength="91" x="26" y="126.7339">String toString()</text><!--class Property--><rect fill="#FEFECE" filter="url(#fa89xip)" height="48" style="stroke: #A80036; stroke-width: 1.5;" width="85" x="94.75" y="194"/><ellipse cx="109.75" cy="210" fill="#ADD1B2" rx="11" ry="11" style="stroke: #A80036; stroke-width: 1.0;"/><path d="M112.7188,215.6406 Q112.1406,215.9375 111.5,216.0859 Q110.8594,216.2344 110.1563,216.2344 Q107.6563,216.2344 106.3359,214.5859 Q105.0156,212.9375 105.0156,209.8125 Q105.0156,206.6875 106.3359,205.0313 Q107.6563,203.375 110.1563,203.375 Q110.8594,203.375 111.5078,203.5313 Q112.1563,203.6875 112.7188,203.9844 L112.7188,206.7031 Q112.0938,206.125 111.5,205.8516 Q110.9063,205.5781 110.2813,205.5781 Q108.9375,205.5781 108.25,206.6484 Q107.5625,207.7188 107.5625,209.8125 Q107.5625,211.9063 108.25,212.9766 Q108.9375,214.0469 110.2813,214.0469 Q110.9063,214.0469 111.5,213.7734 Q112.0938,213.5 112.7188,212.9219 L112.7188,215.6406 Z "/><text fill="#000000" font-family="sans-serif" font-size="12" lengthAdjust="spacingAndGlyphs" textLength="53" x="123.75" y="214.1543">Property</text><line style="stroke: #A80036; stroke-width: 1.5;" x1="95.75" x2="178.75" y1="226" y2="226"/><line style="stroke: #A80036; stroke-width: 1.5;" x1="95.75" x2="178.75" y1="234" y2="234"/><path d="M137,133.914 C137,147.3576 137,161.2979 137,173.8314 " fill="none" style="stroke: #A80036; stroke-width: 1.0;"/><polygon fill="none" points="144,173.8565,137,193.8565,130,173.8564,144,173.8565" style="stroke: #A80036; stroke-width: 1.0;"/></g></svg>