<?xml version="1.0" encoding="UTF-8" standalone="no"?><svg xmlns="http://www.w3.org/2000/svg" xmlns:xlink="http://www.w3.org/1999/xlink" contentScriptType="application/ecmascript" contentStyleType="text/css" height="251px" preserveAspectRatio="none" style="width:237px;height:251px;" version="1.1" viewBox="0 0 237 251" width="237px" zoomAndPan="magnify"><defs><filter height="300%" id="fajm18s" width="300%" x="-1" y="-1"><feGaussianBlur result="blurOut" stdDeviation="2.0"/><feColorMatrix in="blurOut" result="blurOut2" type="matrix" values="0 0 0 0 0 0 0 0 0 0 0 0 0 0 0 0 0 0 .4 0"/><feOffset dx="4.0" dy="4.0" in="blurOut2" result="blurOut3"/><feBlend in="SourceGraphic" in2="blurOut3" mode="normal"/></filter></defs><g><!--class FileWriter--><rect fill="#FEFECE" filter="url(#fajm18s)" height="124.8281" style="stroke: #A80036; stroke-width: 1.5;" width="222" x="6" y="8.5"/><ellipse cx="83.75" cy="24.5" fill="#ADD1B2" rx="11" ry="11" style="stroke: #A80036; stroke-width: 1.0;"/><path d="M86.7188,30.1406 Q86.1406,30.4375 85.5,30.5859 Q84.8594,30.7344 84.1563,30.7344 Q81.6563,30.7344 80.3359,29.0859 Q79.0156,27.4375 79.0156,24.3125 Q79.0156,21.1875 80.3359,19.5313 Q81.6563,17.875 84.1563,17.875 Q84.8594,17.875 85.5078,18.0313 Q86.1563,18.1875 86.7188,18.4844 L86.7188,21.2031 Q86.0938,20.625 85.5,20.3516 Q84.9063,20.0781 84.2813,20.0781 Q82.9375,20.0781 82.25,21.1484 Q81.5625,22.2188 81.5625,24.3125 Q81.5625,26.4063 82.25,27.4766 Q82.9375,28.5469 84.2813,28.5469 Q84.9063,28.5469 85.5,28.2734 Q86.0938,28 86.7188,27.4219 L86.7188,30.1406 Z "/><text fill="#000000" font-family="sans-serif" font-size="12" lengthAdjust="spacingAndGlyphs" textLength="58" x="104.25" y="28.6543">FileWriter</text><line style="stroke: #A80036; stroke-width: 1.5;" x1="7" x2="227" y1="40.5" y2="40.5"/><line style="stroke: #A80036; stroke-width: 1.5;" x1="7" x2="227" y1="48.5" y2="48.5"/><ellipse cx="17" cy="60.4023" fill="#84BE84" rx="3" ry="3" style="stroke: #038048; stroke-width: 1.0;"/><text fill="#000000" font-family="sans-serif" font-size="11" lengthAdjust="spacingAndGlyphs" textLength="133" x="26" y="62.7104">void constructor(string)</text><ellipse cx="17" cy="73.207" fill="#84BE84" rx="3" ry="3" style="stroke: #038048; stroke-width: 1.0;"/><text fill="#000000" font-family="sans-serif" font-size="11" lengthAdjust="spacingAndGlyphs" textLength="115" x="26" y="75.5151">void openFile(string)</text><ellipse cx="17" cy="86.0117" fill="#84BE84" rx="3" ry="3" style="stroke: #038048; stroke-width: 1.0;"/><text fill="#000000" font-family="sans-serif" font-size="11" lengthAdjust="spacingAndGlyphs" textLength="196" x="26" y="88.3198">void openRelativeFile(string,string)</text><ellipse cx="17" cy="98.8164" fill="#84BE84" rx="3" ry="3" style="stroke: #038048; stroke-width: 1.0;"/><text fill="#000000" font-family="sans-serif" font-size="11" lengthAdjust="spacingAndGlyphs" textLength="137" x="26" y="101.1245">void writeLine(int,string)</text><ellipse cx="17" cy="111.6211" fill="#84BE84" rx="3" ry="3" style="stroke: #038048; stroke-width: 1.0;"/><text fill="#000000" font-family="sans-serif" font-size="11" lengthAdjust="spacingAndGlyphs" textLength="175" x="26" y="113.9292">void writeBeforeLine(int,string)</text><ellipse cx="17" cy="124.4258" fill="#84BE84" rx="3" ry="3" style="stroke: #038048; stroke-width: 1.0;"/><text fill="#000000" font-family="sans-serif" font-size="11" lengthAdjust="spacingAndGlyphs" textLength="84" x="26" y="126.7339">void closeFile()</text><!--class Writer--><rect fill="#FEFECE" filter="url(#fajm18s)" height="48" style="stroke: #A80036; stroke-width: 1.5;" width="69" x="82.25" y="194"/><ellipse cx="97.25" cy="210" fill="#ADD1B2" rx="11" ry="11" style="stroke: #A80036; stroke-width: 1.0;"/><path d="M100.2188,215.6406 Q99.6406,215.9375 99,216.0859 Q98.3594,216.2344 97.6563,216.2344 Q95.1563,216.2344 93.8359,214.5859 Q92.5156,212.9375 92.5156,209.8125 Q92.5156,206.6875 93.8359,205.0313 Q95.1563,203.375 97.6563,203.375 Q98.3594,203.375 99.0078,203.5313 Q99.6563,203.6875 100.2188,203.9844 L100.2188,206.7031 Q99.5938,206.125 99,205.8516 Q98.4063,205.5781 97.7813,205.5781 Q96.4375,205.5781 95.75,206.6484 Q95.0625,207.7188 95.0625,209.8125 Q95.0625,211.9063 95.75,212.9766 Q96.4375,214.0469 97.7813,214.0469 Q98.4063,214.0469 99,213.7734 Q99.5938,213.5 100.2188,212.9219 L100.2188,215.6406 Z "/><text fill="#000000" font-family="sans-serif" font-size="12" lengthAdjust="spacingAndGlyphs" textLength="37" x="111.25" y="214.1543">Writer</text><line style="stroke: #A80036; stroke-width: 1.5;" x1="83.25" x2="150.25" y1="226" y2="226"/><line style="stroke: #A80036; stroke-width: 1.5;" x1="83.25" x2="150.25" y1="234" y2="234"/><path d="M116.5,133.914 C116.5,147.3576 116.5,161.2979 116.5,173.8314 " fill="none" style="stroke: #A80036; stroke-width: 1.0;"/><polygon fill="none" points="123.5,173.8565,116.5,193.8565,109.5,173.8564,123.5,173.8565" style="stroke: #A80036; stroke-width: 1.0;"/></g></svg>