<?xml version="1.0" encoding="UTF-8" standalone="no"?><svg xmlns="http://www.w3.org/2000/svg" xmlns:xlink="http://www.w3.org/1999/xlink" contentScriptType="application/ecmascript" contentStyleType="text/css" height="244px" preserveAspectRatio="none" style="width:580px;height:244px;" version="1.1" viewBox="0 0 580 244" width="580px" zoomAndPan="magnify"><defs><filter height="300%" id="fls2qln" width="300%" x="-1" y="-1"><feGaussianBlur result="blurOut" stdDeviation="2.0"/><feColorMatrix in="blurOut" result="blurOut2" type="matrix" values="0 0 0 0 0 0 0 0 0 0 0 0 0 0 0 0 0 0 .4 0"/><feOffset dx="4.0" dy="4.0" in="blurOut2" result="blurOut3"/><feBlend in="SourceGraphic" in2="blurOut3" mode="normal"/></filter></defs><g><!--class FunctionDeclaration--><rect fill="#FEFECE" filter="url(#fls2qln)" height="227.2656" style="stroke: #A80036; stroke-width: 1.5;" width="565" x="6" y="8.5"/><ellipse cx="221.25" cy="24.5" fill="#ADD1B2" rx="11" ry="11" style="stroke: #A80036; stroke-width: 1.0;"/><path d="M224.2188,30.1406 Q223.6406,30.4375 223,30.5859 Q222.3594,30.7344 221.6563,30.7344 Q219.1563,30.7344 217.8359,29.0859 Q216.5156,27.4375 216.5156,24.3125 Q216.5156,21.1875 217.8359,19.5313 Q219.1563,17.875 221.6563,17.875 Q222.3594,17.875 223.0078,18.0313 Q223.6563,18.1875 224.2188,18.4844 L224.2188,21.2031 Q223.5938,20.625 223,20.3516 Q222.4063,20.0781 221.7813,20.0781 Q220.4375,20.0781 219.75,21.1484 Q219.0625,22.2188 219.0625,24.3125 Q219.0625,26.4063 219.75,27.4766 Q220.4375,28.5469 221.7813,28.5469 Q222.4063,28.5469 223,28.2734 Q223.5938,28 224.2188,27.4219 L224.2188,30.1406 Z "/><text fill="#000000" font-family="sans-serif" font-size="12" lengthAdjust="spacingAndGlyphs" textLength="126" x="241.75" y="28.6543">FunctionDeclaration</text><line style="stroke: #A80036; stroke-width: 1.5;" x1="7" x2="570" y1="40.5" y2="40.5"/><line style="stroke: #A80036; stroke-width: 1.5;" x1="7" x2="570" y1="48.5" y2="48.5"/><ellipse cx="17" cy="60.4023" fill="#84BE84" rx="3" ry="3" style="stroke: #038048; stroke-width: 1.0;"/><text fill="#000000" font-family="sans-serif" font-size="11" lengthAdjust="spacingAndGlyphs" textLength="539" x="26" y="62.7104">void constructor(ModelManager,string,string,string,string,string,string[],string[],string[],string)</text><rect fill="#F24D5C" height="6" style="stroke: #C82930; stroke-width: 1.0;" width="6" x="14" y="70.207"/><text fill="#000000" font-family="sans-serif" font-size="11" lengthAdjust="spacingAndGlyphs" textLength="161" x="26" y="75.5151">Object accept(Object,Object)</text><ellipse cx="17" cy="86.0117" fill="#84BE84" rx="3" ry="3" style="stroke: #038048; stroke-width: 1.0;"/><text fill="#000000" font-family="sans-serif" font-size="11" lengthAdjust="spacingAndGlyphs" textLength="134" x="26" y="88.3198">string getFunctionText()</text><ellipse cx="17" cy="98.8164" fill="#84BE84" rx="3" ry="3" style="stroke: #038048; stroke-width: 1.0;"/><text fill="#000000" font-family="sans-serif" font-size="11" lengthAdjust="spacingAndGlyphs" textLength="105" x="26" y="101.1245">string getThrows()</text><ellipse cx="17" cy="111.6211" fill="#84BE84" rx="3" ry="3" style="stroke: #038048; stroke-width: 1.0;"/><text fill="#000000" font-family="sans-serif" font-size="11" lengthAdjust="spacingAndGlyphs" textLength="118" x="26" y="113.9292">string getLanguage()</text><ellipse cx="17" cy="124.4258" fill="#84BE84" rx="3" ry="3" style="stroke: #038048; stroke-width: 1.0;"/><text fill="#000000" font-family="sans-serif" font-size="11" lengthAdjust="spacingAndGlyphs" textLength="134" x="26" y="126.7339">string[] getDecorators()</text><ellipse cx="17" cy="137.2305" fill="#84BE84" rx="3" ry="3" style="stroke: #038048; stroke-width: 1.0;"/><text fill="#000000" font-family="sans-serif" font-size="11" lengthAdjust="spacingAndGlyphs" textLength="109" x="26" y="139.5386">string getVisibility()</text><ellipse cx="17" cy="150.0352" fill="#84BE84" rx="3" ry="3" style="stroke: #038048; stroke-width: 1.0;"/><text fill="#000000" font-family="sans-serif" font-size="11" lengthAdjust="spacingAndGlyphs" textLength="127" x="26" y="152.3433">string getReturnType()</text><rect fill="#F24D5C" height="6" style="stroke: #C82930; stroke-width: 1.0;" width="6" x="14" y="159.8398"/><text fill="#000000" font-family="sans-serif" font-size="11" lengthAdjust="spacingAndGlyphs" textLength="79" x="26" y="165.1479">void validate()</text><ellipse cx="17" cy="175.6445" fill="#84BE84" rx="3" ry="3" style="stroke: #038048; stroke-width: 1.0;"/><text fill="#000000" font-family="sans-serif" font-size="11" lengthAdjust="spacingAndGlyphs" textLength="96" x="26" y="177.9526">string getName()</text><ellipse cx="17" cy="188.4492" fill="#84BE84" rx="3" ry="3" style="stroke: #038048; stroke-width: 1.0;"/><text fill="#000000" font-family="sans-serif" font-size="11" lengthAdjust="spacingAndGlyphs" textLength="227" x="26" y="190.7573">string getTransactionDeclarationName()</text><ellipse cx="17" cy="201.2539" fill="#84BE84" rx="3" ry="3" style="stroke: #038048; stroke-width: 1.0;"/><text fill="#000000" font-family="sans-serif" font-size="11" lengthAdjust="spacingAndGlyphs" textLength="171" x="26" y="203.562">string[] getParameterNames()</text><ellipse cx="17" cy="214.0586" fill="#84BE84" rx="3" ry="3" style="stroke: #038048; stroke-width: 1.0;"/><text fill="#000000" font-family="sans-serif" font-size="11" lengthAdjust="spacingAndGlyphs" textLength="165" x="26" y="216.3667">string[] getParameterTypes()</text><ellipse cx="17" cy="226.8633" fill="#84BE84" rx="3" ry="3" style="stroke: #038048; stroke-width: 1.0;"/><text fill="#000000" font-family="sans-serif" font-size="11" lengthAdjust="spacingAndGlyphs" textLength="87" x="26" y="229.1714">Object toJSON()</text></g></svg>