<?xml version="1.0" encoding="UTF-8" standalone="no"?><svg xmlns="http://www.w3.org/2000/svg" xmlns:xlink="http://www.w3.org/1999/xlink" contentScriptType="application/ecmascript" contentStyleType="text/css" height="206px" preserveAspectRatio="none" style="width:406px;height:206px;" version="1.1" viewBox="0 0 406 206" width="406px" zoomAndPan="magnify"><defs><filter height="300%" id="f5opybs" width="300%" x="-1" y="-1"><feGaussianBlur result="blurOut" stdDeviation="2.0"/><feColorMatrix in="blurOut" result="blurOut2" type="matrix" values="0 0 0 0 0 0 0 0 0 0 0 0 0 0 0 0 0 0 .4 0"/><feOffset dx="4.0" dy="4.0" in="blurOut2" result="blurOut3"/><feBlend in="SourceGraphic" in2="blurOut3" mode="normal"/></filter></defs><g><!--class GoLangVisitor--><rect fill="#FEFECE" filter="url(#f5opybs)" height="188.8516" style="stroke: #A80036; stroke-width: 1.5;" width="391" x="6" y="8.5"/><ellipse cx="154.25" cy="24.5" fill="#ADD1B2" rx="11" ry="11" style="stroke: #A80036; stroke-width: 1.0;"/><path d="M157.2188,30.1406 Q156.6406,30.4375 156,30.5859 Q155.3594,30.7344 154.6563,30.7344 Q152.1563,30.7344 150.8359,29.0859 Q149.5156,27.4375 149.5156,24.3125 Q149.5156,21.1875 150.8359,19.5313 Q152.1563,17.875 154.6563,17.875 Q155.3594,17.875 156.0078,18.0313 Q156.6563,18.1875 157.2188,18.4844 L157.2188,21.2031 Q156.5938,20.625 156,20.3516 Q155.4063,20.0781 154.7813,20.0781 Q153.4375,20.0781 152.75,21.1484 Q152.0625,22.2188 152.0625,24.3125 Q152.0625,26.4063 152.75,27.4766 Q153.4375,28.5469 154.7813,28.5469 Q155.4063,28.5469 156,28.2734 Q156.5938,28 157.2188,27.4219 L157.2188,30.1406 Z "/><text fill="#000000" font-family="sans-serif" font-size="12" lengthAdjust="spacingAndGlyphs" textLength="86" x="174.75" y="28.6543">GoLangVisitor</text><line style="stroke: #A80036; stroke-width: 1.5;" x1="7" x2="396" y1="40.5" y2="40.5"/><line style="stroke: #A80036; stroke-width: 1.5;" x1="7" x2="396" y1="48.5" y2="48.5"/><rect fill="#F24D5C" height="6" style="stroke: #C82930; stroke-width: 1.0;" width="6" x="14" y="57.4023"/><text fill="#000000" font-family="sans-serif" font-size="11" lengthAdjust="spacingAndGlyphs" textLength="147" x="26" y="62.7104">Object visit(Object,Object)</text><rect fill="#F24D5C" height="6" style="stroke: #C82930; stroke-width: 1.0;" width="6" x="14" y="70.207"/><text fill="#000000" font-family="sans-serif" font-size="11" lengthAdjust="spacingAndGlyphs" textLength="275" x="26" y="75.5151">Object visitModelManager(ModelManager,Object)</text><rect fill="#F24D5C" height="6" style="stroke: #C82930; stroke-width: 1.0;" width="6" x="14" y="83.0117"/><text fill="#000000" font-family="sans-serif" font-size="11" lengthAdjust="spacingAndGlyphs" textLength="215" x="26" y="88.3198">Object visitModelFile(ModelFile,Object)</text><rect fill="#F24D5C" height="6" style="stroke: #C82930; stroke-width: 1.0;" width="6" x="14" y="95.8164"/><text fill="#000000" font-family="sans-serif" font-size="11" lengthAdjust="spacingAndGlyphs" textLength="303" x="26" y="101.1245">Object visitEnumDeclaration(EnumDeclaration,Object)</text><rect fill="#F24D5C" height="6" style="stroke: #C82930; stroke-width: 1.0;" width="6" x="14" y="108.6211"/><text fill="#000000" font-family="sans-serif" font-size="11" lengthAdjust="spacingAndGlyphs" textLength="303" x="26" y="113.9292">Object visitClassDeclaration(ClassDeclaration,Object)</text><rect fill="#F24D5C" height="6" style="stroke: #C82930; stroke-width: 1.0;" width="6" x="14" y="121.4258"/><text fill="#000000" font-family="sans-serif" font-size="11" lengthAdjust="spacingAndGlyphs" textLength="163" x="26" y="126.7339">Object visitField(Field,Object)</text><rect fill="#F24D5C" height="6" style="stroke: #C82930; stroke-width: 1.0;" width="6" x="14" y="134.2305"/><text fill="#000000" font-family="sans-serif" font-size="11" lengthAdjust="spacingAndGlyphs" textLength="365" x="26" y="139.5386">Object visitEnumValueDeclaration(EnumValueDeclaration,Object)</text><rect fill="#F24D5C" height="6" style="stroke: #C82930; stroke-width: 1.0;" width="6" x="14" y="147.0352"/><text fill="#000000" font-family="sans-serif" font-size="11" lengthAdjust="spacingAndGlyphs" textLength="249" x="26" y="152.3433">Object visitRelationship(Relationship,Object)</text><rect fill="#F24D5C" height="6" style="stroke: #C82930; stroke-width: 1.0;" width="6" x="14" y="159.8398"/><text fill="#000000" font-family="sans-serif" font-size="11" lengthAdjust="spacingAndGlyphs" textLength="237" x="26" y="165.1479">boolean containsDateTimeField(ModelFile)</text><rect fill="#F24D5C" height="6" style="stroke: #C82930; stroke-width: 1.0;" width="6" x="14" y="172.6445"/><text fill="#000000" font-family="sans-serif" font-size="11" lengthAdjust="spacingAndGlyphs" textLength="132" x="26" y="177.9526">string toGoType(string)</text><rect fill="#F24D5C" height="6" style="stroke: #C82930; stroke-width: 1.0;" width="6" x="14" y="185.4492"/><text fill="#000000" font-family="sans-serif" font-size="11" lengthAdjust="spacingAndGlyphs" textLength="185" x="26" y="190.7573">string toGoPackageName(string)</text></g></svg>