<?xml version="1.0" encoding="UTF-8" standalone="no"?><svg xmlns="http://www.w3.org/2000/svg" xmlns:xlink="http://www.w3.org/1999/xlink" contentScriptType="application/ecmascript" contentStyleType="text/css" height="116px" preserveAspectRatio="none" style="width:223px;height:116px;" version="1.1" viewBox="0 0 223 116" width="223px" zoomAndPan="magnify"><defs><filter height="300%" id="f89dkmg" width="300%" x="-1" y="-1"><feGaussianBlur result="blurOut" stdDeviation="2.0"/><feColorMatrix in="blurOut" result="blurOut2" type="matrix" values="0 0 0 0 0 0 0 0 0 0 0 0 0 0 0 0 0 0 .4 0"/><feOffset dx="4.0" dy="4.0" in="blurOut2" result="blurOut3"/><feBlend in="SourceGraphic" in2="blurOut3" mode="normal"/></filter></defs><g><!--class JavaScriptParser--><rect fill="#FEFECE" filter="url(#f89dkmg)" height="99.2188" style="stroke: #A80036; stroke-width: 1.5;" width="208" x="6" y="8.5"/><ellipse cx="54.75" cy="24.5" fill="#ADD1B2" rx="11" ry="11" style="stroke: #A80036; stroke-width: 1.0;"/><path d="M57.7188,30.1406 Q57.1406,30.4375 56.5,30.5859 Q55.8594,30.7344 55.1563,30.7344 Q52.6563,30.7344 51.3359,29.0859 Q50.0156,27.4375 50.0156,24.3125 Q50.0156,21.1875 51.3359,19.5313 Q52.6563,17.875 55.1563,17.875 Q55.8594,17.875 56.5078,18.0313 Q57.1563,18.1875 57.7188,18.4844 L57.7188,21.2031 Q57.0938,20.625 56.5,20.3516 Q55.9063,20.0781 55.2813,20.0781 Q53.9375,20.0781 53.25,21.1484 Q52.5625,22.2188 52.5625,24.3125 Q52.5625,26.4063 53.25,27.4766 Q53.9375,28.5469 55.2813,28.5469 Q55.9063,28.5469 56.5,28.2734 Q57.0938,28 57.7188,27.4219 L57.7188,30.1406 Z "/><text fill="#000000" font-family="sans-serif" font-size="12" lengthAdjust="spacingAndGlyphs" textLength="102" x="75.25" y="28.6543">JavaScriptParser</text><line style="stroke: #A80036; stroke-width: 1.5;" x1="7" x2="213" y1="40.5" y2="40.5"/><line style="stroke: #A80036; stroke-width: 1.5;" x1="7" x2="213" y1="48.5" y2="48.5"/><ellipse cx="17" cy="60.4023" fill="#84BE84" rx="3" ry="3" style="stroke: #038048; stroke-width: 1.0;"/><text fill="#000000" font-family="sans-serif" font-size="11" lengthAdjust="spacingAndGlyphs" textLength="182" x="26" y="62.7104">void constructor(string,boolean)</text><ellipse cx="17" cy="73.207" fill="#84BE84" rx="3" ry="3" style="stroke: #038048; stroke-width: 1.0;"/><text fill="#000000" font-family="sans-serif" font-size="11" lengthAdjust="spacingAndGlyphs" textLength="121" x="26" y="75.5151">Object[] getIncludes()</text><ellipse cx="17" cy="86.0117" fill="#84BE84" rx="3" ry="3" style="stroke: #038048; stroke-width: 1.0;"/><text fill="#000000" font-family="sans-serif" font-size="11" lengthAdjust="spacingAndGlyphs" textLength="120" x="26" y="88.3198">Object[] getClasses()</text><ellipse cx="17" cy="98.8164" fill="#84BE84" rx="3" ry="3" style="stroke: #038048; stroke-width: 1.0;"/><text fill="#000000" font-family="sans-serif" font-size="11" lengthAdjust="spacingAndGlyphs" textLength="128" x="26" y="101.1245">Object[] getFunctions()</text></g></svg>