<?xml version="1.0" encoding="UTF-8" standalone="no"?><svg xmlns="http://www.w3.org/2000/svg" xmlns:xlink="http://www.w3.org/1999/xlink" contentScriptType="application/ecmascript" contentStyleType="text/css" height="154px" preserveAspectRatio="none" style="width:418px;height:154px;" version="1.1" viewBox="0 0 418 154" width="418px" zoomAndPan="magnify"><defs><filter height="300%" id="fx8eqk8" width="300%" x="-1" y="-1"><feGaussianBlur result="blurOut" stdDeviation="2.0"/><feColorMatrix in="blurOut" result="blurOut2" type="matrix" values="0 0 0 0 0 0 0 0 0 0 0 0 0 0 0 0 0 0 .4 0"/><feOffset dx="4.0" dy="4.0" in="blurOut2" result="blurOut3"/><feBlend in="SourceGraphic" in2="blurOut3" mode="normal"/></filter></defs><g><!--class JSONGenerator--><rect fill="#FEFECE" filter="url(#fx8eqk8)" height="137.6328" style="stroke: #A80036; stroke-width: 1.5;" width="403" x="6" y="8"/><ellipse cx="156.75" cy="24" fill="#ADD1B2" rx="11" ry="11" style="stroke: #A80036; stroke-width: 1.0;"/><path d="M159.7188,29.6406 Q159.1406,29.9375 158.5,30.0859 Q157.8594,30.2344 157.1563,30.2344 Q154.6563,30.2344 153.3359,28.5859 Q152.0156,26.9375 152.0156,23.8125 Q152.0156,20.6875 153.3359,19.0313 Q154.6563,17.375 157.1563,17.375 Q157.8594,17.375 158.5078,17.5313 Q159.1563,17.6875 159.7188,17.9844 L159.7188,20.7031 Q159.0938,20.125 158.5,19.8516 Q157.9063,19.5781 157.2813,19.5781 Q155.9375,19.5781 155.25,20.6484 Q154.5625,21.7188 154.5625,23.8125 Q154.5625,25.9063 155.25,26.9766 Q155.9375,28.0469 157.2813,28.0469 Q157.9063,28.0469 158.5,27.7734 Q159.0938,27.5 159.7188,26.9219 L159.7188,29.6406 Z "/><text fill="#000000" font-family="sans-serif" font-size="12" lengthAdjust="spacingAndGlyphs" textLength="93" x="177.25" y="28.1543">JSONGenerator</text><line style="stroke: #A80036; stroke-width: 1.5;" x1="7" x2="408" y1="40" y2="40"/><line style="stroke: #A80036; stroke-width: 1.5;" x1="7" x2="408" y1="48" y2="48"/><ellipse cx="17" cy="59.9023" fill="#84BE84" rx="3" ry="3" style="stroke: #038048; stroke-width: 1.0;"/><text fill="#000000" font-family="sans-serif" font-size="11" lengthAdjust="spacingAndGlyphs" textLength="194" x="26" y="62.2104">void constructor(boolean,boolean)</text><rect fill="#F24D5C" height="6" style="stroke: #C82930; stroke-width: 1.0;" width="6" x="14" y="69.707"/><text fill="#000000" font-family="sans-serif" font-size="11" lengthAdjust="spacingAndGlyphs" textLength="147" x="26" y="75.0151">Object visit(Object,Object)</text><rect fill="#F24D5C" height="6" style="stroke: #C82930; stroke-width: 1.0;" width="6" x="14" y="82.5117"/><text fill="#000000" font-family="sans-serif" font-size="11" lengthAdjust="spacingAndGlyphs" textLength="303" x="26" y="87.8198">Object visitClassDeclaration(ClassDeclaration,Object)</text><rect fill="#F24D5C" height="6" style="stroke: #C82930; stroke-width: 1.0;" width="6" x="14" y="95.3164"/><text fill="#000000" font-family="sans-serif" font-size="11" lengthAdjust="spacingAndGlyphs" textLength="163" x="26" y="100.6245">Object visitField(Field,Object)</text><ellipse cx="17" cy="111.1211" fill="#84BE84" rx="3" ry="3" style="stroke: #038048; stroke-width: 1.0;"/><text fill="#000000" font-family="sans-serif" font-size="11" lengthAdjust="spacingAndGlyphs" textLength="195" x="26" y="113.4292">string convertToJSON(Field,Object)</text><rect fill="#F24D5C" height="6" style="stroke: #C82930; stroke-width: 1.0;" width="6" x="14" y="120.9258"/><text fill="#000000" font-family="sans-serif" font-size="11" lengthAdjust="spacingAndGlyphs" textLength="377" x="26" y="126.2339">Object visitRelationshipDeclaration(RelationshipDeclaration,Object)</text><ellipse cx="17" cy="136.7305" fill="#84BE84" rx="3" ry="3" style="stroke: #038048; stroke-width: 1.0;"/><text fill="#000000" font-family="sans-serif" font-size="11" lengthAdjust="spacingAndGlyphs" textLength="362" x="26" y="139.0386">string getRelationshipText(RelationshipDeclaration,Relationship)</text></g></svg>