<?xml version="1.0" encoding="UTF-8" standalone="no"?><svg xmlns="http://www.w3.org/2000/svg" xmlns:xlink="http://www.w3.org/1999/xlink" contentScriptType="application/ecmascript" contentStyleType="text/css" height="154px" preserveAspectRatio="none" style="width:418px;height:154px;" version="1.1" viewBox="0 0 418 154" width="418px" zoomAndPan="magnify"><defs><filter height="300%" id="frmacjb" width="300%" x="-1" y="-1"><feGaussianBlur result="blurOut" stdDeviation="2.0"/><feColorMatrix in="blurOut" result="blurOut2" type="matrix" values="0 0 0 0 0 0 0 0 0 0 0 0 0 0 0 0 0 0 .4 0"/><feOffset dx="4.0" dy="4.0" in="blurOut2" result="blurOut3"/><feBlend in="SourceGraphic" in2="blurOut3" mode="normal"/></filter></defs><g><!--class JSONPopulator--><rect fill="#FEFECE" filter="url(#frmacjb)" height="137.6328" style="stroke: #A80036; stroke-width: 1.5;" width="403" x="6" y="8"/><ellipse cx="158.25" cy="24" fill="#ADD1B2" rx="11" ry="11" style="stroke: #A80036; stroke-width: 1.0;"/><path d="M161.2188,29.6406 Q160.6406,29.9375 160,30.0859 Q159.3594,30.2344 158.6563,30.2344 Q156.1563,30.2344 154.8359,28.5859 Q153.5156,26.9375 153.5156,23.8125 Q153.5156,20.6875 154.8359,19.0313 Q156.1563,17.375 158.6563,17.375 Q159.3594,17.375 160.0078,17.5313 Q160.6563,17.6875 161.2188,17.9844 L161.2188,20.7031 Q160.5938,20.125 160,19.8516 Q159.4063,19.5781 158.7813,19.5781 Q157.4375,19.5781 156.75,20.6484 Q156.0625,21.7188 156.0625,23.8125 Q156.0625,25.9063 156.75,26.9766 Q157.4375,28.0469 158.7813,28.0469 Q159.4063,28.0469 160,27.7734 Q160.5938,27.5 161.2188,26.9219 L161.2188,29.6406 Z "/><text fill="#000000" font-family="sans-serif" font-size="12" lengthAdjust="spacingAndGlyphs" textLength="90" x="178.75" y="28.1543">JSONPopulator</text><line style="stroke: #A80036; stroke-width: 1.5;" x1="7" x2="408" y1="40" y2="40"/><line style="stroke: #A80036; stroke-width: 1.5;" x1="7" x2="408" y1="48" y2="48"/><ellipse cx="17" cy="59.9023" fill="#84BE84" rx="3" ry="3" style="stroke: #038048; stroke-width: 1.0;"/><text fill="#000000" font-family="sans-serif" font-size="11" lengthAdjust="spacingAndGlyphs" textLength="145" x="26" y="62.2104">void constructor(boolean)</text><rect fill="#F24D5C" height="6" style="stroke: #C82930; stroke-width: 1.0;" width="6" x="14" y="69.707"/><text fill="#000000" font-family="sans-serif" font-size="11" lengthAdjust="spacingAndGlyphs" textLength="147" x="26" y="75.0151">Object visit(Object,Object)</text><rect fill="#F24D5C" height="6" style="stroke: #C82930; stroke-width: 1.0;" width="6" x="14" y="82.5117"/><text fill="#000000" font-family="sans-serif" font-size="11" lengthAdjust="spacingAndGlyphs" textLength="303" x="26" y="87.8198">Object visitClassDeclaration(ClassDeclaration,Object)</text><rect fill="#F24D5C" height="6" style="stroke: #C82930; stroke-width: 1.0;" width="6" x="14" y="95.3164"/><text fill="#000000" font-family="sans-serif" font-size="11" lengthAdjust="spacingAndGlyphs" textLength="163" x="26" y="100.6245">Object visitField(Field,Object)</text><ellipse cx="17" cy="111.1211" fill="#84BE84" rx="3" ry="3" style="stroke: #038048; stroke-width: 1.0;"/><text fill="#000000" font-family="sans-serif" font-size="11" lengthAdjust="spacingAndGlyphs" textLength="221" x="26" y="113.4292">Object convertItem(Field,Object,Object)</text><ellipse cx="17" cy="123.9258" fill="#84BE84" rx="3" ry="3" style="stroke: #038048; stroke-width: 1.0;"/><text fill="#000000" font-family="sans-serif" font-size="11" lengthAdjust="spacingAndGlyphs" textLength="203" x="26" y="126.2339">string convertToObject(Field,Object)</text><rect fill="#F24D5C" height="6" style="stroke: #C82930; stroke-width: 1.0;" width="6" x="14" y="133.7305"/><text fill="#000000" font-family="sans-serif" font-size="11" lengthAdjust="spacingAndGlyphs" textLength="377" x="26" y="139.0386">Object visitRelationshipDeclaration(RelationshipDeclaration,Object)</text></g></svg>