<?xml version="1.0" encoding="UTF-8" standalone="no"?><svg xmlns="http://www.w3.org/2000/svg" xmlns:xlink="http://www.w3.org/1999/xlink" contentScriptType="application/ecmascript" contentStyleType="text/css" height="365px" preserveAspectRatio="none" style="width:259px;height:365px;" version="1.1" viewBox="0 0 259 365" width="259px" zoomAndPan="magnify"><defs><filter height="300%" id="fmzl0za" width="300%" x="-1" y="-1"><feGaussianBlur result="blurOut" stdDeviation="2.0"/><feColorMatrix in="blurOut" result="blurOut2" type="matrix" values="0 0 0 0 0 0 0 0 0 0 0 0 0 0 0 0 0 0 .4 0"/><feOffset dx="4.0" dy="4.0" in="blurOut2" result="blurOut3"/><feBlend in="SourceGraphic" in2="blurOut3" mode="normal"/></filter></defs><g><!--class JSONWriter--><rect fill="#FEFECE" filter="url(#fmzl0za)" height="240.0703" style="stroke: #A80036; stroke-width: 1.5;" width="244" x="6" y="8"/><ellipse cx="90.75" cy="24" fill="#ADD1B2" rx="11" ry="11" style="stroke: #A80036; stroke-width: 1.0;"/><path d="M93.7188,29.6406 Q93.1406,29.9375 92.5,30.0859 Q91.8594,30.2344 91.1563,30.2344 Q88.6563,30.2344 87.3359,28.5859 Q86.0156,26.9375 86.0156,23.8125 Q86.0156,20.6875 87.3359,19.0313 Q88.6563,17.375 91.1563,17.375 Q91.8594,17.375 92.5078,17.5313 Q93.1563,17.6875 93.7188,17.9844 L93.7188,20.7031 Q93.0938,20.125 92.5,19.8516 Q91.9063,19.5781 91.2813,19.5781 Q89.9375,19.5781 89.25,20.6484 Q88.5625,21.7188 88.5625,23.8125 Q88.5625,25.9063 89.25,26.9766 Q89.9375,28.0469 91.2813,28.0469 Q91.9063,28.0469 92.5,27.7734 Q93.0938,27.5 93.7188,26.9219 L93.7188,29.6406 Z "/><text fill="#000000" font-family="sans-serif" font-size="12" lengthAdjust="spacingAndGlyphs" textLength="66" x="111.25" y="28.1543">JSONWriter</text><line style="stroke: #A80036; stroke-width: 1.5;" x1="7" x2="249" y1="40" y2="40"/><line style="stroke: #A80036; stroke-width: 1.5;" x1="7" x2="249" y1="48" y2="48"/><ellipse cx="17" cy="59.9023" fill="#84BE84" rx="3" ry="3" style="stroke: #038048; stroke-width: 1.0;"/><text fill="#000000" font-family="sans-serif" font-size="11" lengthAdjust="spacingAndGlyphs" textLength="100" x="26" y="62.2104">void constructor()</text><ellipse cx="17" cy="72.707" fill="#84BE84" rx="3" ry="3" style="stroke: #038048; stroke-width: 1.0;"/><text fill="#000000" font-family="sans-serif" font-size="11" lengthAdjust="spacingAndGlyphs" textLength="132" x="26" y="75.0151">void openObject(string)</text><ellipse cx="17" cy="85.5117" fill="#84BE84" rx="3" ry="3" style="stroke: #038048; stroke-width: 1.0;"/><text fill="#000000" font-family="sans-serif" font-size="11" lengthAdjust="spacingAndGlyphs" textLength="101" x="26" y="87.8198">void closeObject()</text><ellipse cx="17" cy="98.3164" fill="#84BE84" rx="3" ry="3" style="stroke: #038048; stroke-width: 1.0;"/><text fill="#000000" font-family="sans-serif" font-size="11" lengthAdjust="spacingAndGlyphs" textLength="116" x="26" y="100.6245">void writeKey(string)</text><ellipse cx="17" cy="111.1211" fill="#84BE84" rx="3" ry="3" style="stroke: #038048; stroke-width: 1.0;"/><text fill="#000000" font-family="sans-serif" font-size="11" lengthAdjust="spacingAndGlyphs" textLength="107" x="26" y="113.4292">void writeComma()</text><ellipse cx="17" cy="123.9258" fill="#84BE84" rx="3" ry="3" style="stroke: #038048; stroke-width: 1.0;"/><text fill="#000000" font-family="sans-serif" font-size="11" lengthAdjust="spacingAndGlyphs" textLength="161" x="26" y="126.2339">void writeStringValue(string)</text><ellipse cx="17" cy="136.7305" fill="#84BE84" rx="3" ry="3" style="stroke: #038048; stroke-width: 1.0;"/><text fill="#000000" font-family="sans-serif" font-size="11" lengthAdjust="spacingAndGlyphs" textLength="127" x="26" y="139.0386">void writeValue(string)</text><ellipse cx="17" cy="149.5352" fill="#84BE84" rx="3" ry="3" style="stroke: #038048; stroke-width: 1.0;"/><text fill="#000000" font-family="sans-serif" font-size="11" lengthAdjust="spacingAndGlyphs" textLength="218" x="26" y="151.8433">void writeKeyStringValue(string,string)</text><ellipse cx="17" cy="162.3398" fill="#84BE84" rx="3" ry="3" style="stroke: #038048; stroke-width: 1.0;"/><text fill="#000000" font-family="sans-serif" font-size="11" lengthAdjust="spacingAndGlyphs" textLength="184" x="26" y="164.6479">void writeKeyValue(string,string)</text><ellipse cx="17" cy="175.1445" fill="#84BE84" rx="3" ry="3" style="stroke: #038048; stroke-width: 1.0;"/><text fill="#000000" font-family="sans-serif" font-size="11" lengthAdjust="spacingAndGlyphs" textLength="191" x="26" y="177.4526">void writeArrayStringValue(string)</text><ellipse cx="17" cy="187.9492" fill="#84BE84" rx="3" ry="3" style="stroke: #038048; stroke-width: 1.0;"/><text fill="#000000" font-family="sans-serif" font-size="11" lengthAdjust="spacingAndGlyphs" textLength="157" x="26" y="190.2573">void writeArrayValue(string)</text><ellipse cx="17" cy="200.7539" fill="#84BE84" rx="3" ry="3" style="stroke: #038048; stroke-width: 1.0;"/><text fill="#000000" font-family="sans-serif" font-size="11" lengthAdjust="spacingAndGlyphs" textLength="93" x="26" y="203.062">void openArray()</text><ellipse cx="17" cy="213.5586" fill="#84BE84" rx="3" ry="3" style="stroke: #038048; stroke-width: 1.0;"/><text fill="#000000" font-family="sans-serif" font-size="11" lengthAdjust="spacingAndGlyphs" textLength="95" x="26" y="215.8667">void closeArray()</text><ellipse cx="17" cy="226.3633" fill="#84BE84" rx="3" ry="3" style="stroke: #038048; stroke-width: 1.0;"/><text fill="#000000" font-family="sans-serif" font-size="11" lengthAdjust="spacingAndGlyphs" textLength="91" x="26" y="228.6714">String toString()</text><ellipse cx="17" cy="239.168" fill="#84BE84" rx="3" ry="3" style="stroke: #038048; stroke-width: 1.0;"/><text fill="#000000" font-family="sans-serif" font-size="11" lengthAdjust="spacingAndGlyphs" textLength="124" x="26" y="241.4761">void log(String,String)</text><!--class Writer--><rect fill="#FEFECE" filter="url(#fmzl0za)" height="48" style="stroke: #A80036; stroke-width: 1.5;" width="69" x="93.75" y="308"/><ellipse cx="108.75" cy="324" fill="#ADD1B2" rx="11" ry="11" style="stroke: #A80036; stroke-width: 1.0;"/><path d="M111.7188,329.6406 Q111.1406,329.9375 110.5,330.0859 Q109.8594,330.2344 109.1563,330.2344 Q106.6563,330.2344 105.3359,328.5859 Q104.0156,326.9375 104.0156,323.8125 Q104.0156,320.6875 105.3359,319.0313 Q106.6563,317.375 109.1563,317.375 Q109.8594,317.375 110.5078,317.5313 Q111.1563,317.6875 111.7188,317.9844 L111.7188,320.7031 Q111.0938,320.125 110.5,319.8516 Q109.9063,319.5781 109.2813,319.5781 Q107.9375,319.5781 107.25,320.6484 Q106.5625,321.7188 106.5625,323.8125 Q106.5625,325.9063 107.25,326.9766 Q107.9375,328.0469 109.2813,328.0469 Q109.9063,328.0469 110.5,327.7734 Q111.0938,327.5 111.7188,326.9219 L111.7188,329.6406 Z "/><text fill="#000000" font-family="sans-serif" font-size="12" lengthAdjust="spacingAndGlyphs" textLength="37" x="122.75" y="328.1543">Writer</text><line style="stroke: #A80036; stroke-width: 1.5;" x1="94.75" x2="161.75" y1="340" y2="340"/><line style="stroke: #A80036; stroke-width: 1.5;" x1="94.75" x2="161.75" y1="348" y2="348"/><path d="M128,248.256 C128,262.2792 128,275.8168 128,287.7383 " fill="none" style="stroke: #A80036; stroke-width: 1.0;"/><polygon fill="none" points="135,287.7865,128,307.7865,121,287.7864,135,287.7865" style="stroke: #A80036; stroke-width: 1.0;"/></g></svg>