<?xml version="1.0" encoding="UTF-8" standalone="no"?><svg xmlns="http://www.w3.org/2000/svg" xmlns:xlink="http://www.w3.org/1999/xlink" contentScriptType="application/ecmascript" contentStyleType="text/css" height="410px" preserveAspectRatio="none" style="width:239px;height:410px;" version="1.1" viewBox="0 0 239 410" width="239px" zoomAndPan="magnify"><defs><filter height="300%" id="fw3jo75" width="300%" x="-1" y="-1"><feGaussianBlur result="blurOut" stdDeviation="2.0"/><feColorMatrix in="blurOut" result="blurOut2" type="matrix" values="0 0 0 0 0 0 0 0 0 0 0 0 0 0 0 0 0 0 .4 0"/><feOffset dx="4.0" dy="4.0" in="blurOut2" result="blurOut3"/><feBlend in="SourceGraphic" in2="blurOut3" mode="normal"/></filter></defs><g><!--class ConnectionProfileStore--><rect fill="#FEFECE" filter="url(#fw3jo75)" height="99.2188" style="stroke: #A80036; stroke-width: 1.5;" width="185" x="25.25" y="302.5"/><ellipse cx="44.3" cy="318.5" fill="#ADD1B2" rx="11" ry="11" style="stroke: #A80036; stroke-width: 1.0;"/><path d="M47.2688,324.1406 Q46.6906,324.4375 46.05,324.5859 Q45.4094,324.7344 44.7063,324.7344 Q42.2063,324.7344 40.8859,323.0859 Q39.5656,321.4375 39.5656,318.3125 Q39.5656,315.1875 40.8859,313.5313 Q42.2063,311.875 44.7063,311.875 Q45.4094,311.875 46.0578,312.0313 Q46.7063,312.1875 47.2688,312.4844 L47.2688,315.2031 Q46.6438,314.625 46.05,314.3516 Q45.4563,314.0781 44.8313,314.0781 Q43.4875,314.0781 42.8,315.1484 Q42.1125,316.2188 42.1125,318.3125 Q42.1125,320.4063 42.8,321.4766 Q43.4875,322.5469 44.8313,322.5469 Q45.4563,322.5469 46.05,322.2734 Q46.6438,322 47.2688,321.4219 L47.2688,324.1406 Z "/><text fill="#000000" font-family="sans-serif" font-size="12" lengthAdjust="spacingAndGlyphs" textLength="144" x="59.2" y="322.6543">ConnectionProfileStore</text><line style="stroke: #A80036; stroke-width: 1.5;" x1="26.25" x2="209.25" y1="334.5" y2="334.5"/><line style="stroke: #A80036; stroke-width: 1.5;" x1="26.25" x2="209.25" y1="342.5" y2="342.5"/><ellipse cx="36.25" cy="354.4023" fill="#84BE84" rx="3" ry="3" style="stroke: #038048; stroke-width: 1.0;"/><text fill="#000000" font-family="sans-serif" font-size="11" lengthAdjust="spacingAndGlyphs" textLength="116" x="45.25" y="356.7104">Promise load(string)</text><ellipse cx="36.25" cy="367.207" fill="#84BE84" rx="3" ry="3" style="stroke: #038048; stroke-width: 1.0;"/><text fill="#000000" font-family="sans-serif" font-size="11" lengthAdjust="spacingAndGlyphs" textLength="159" x="45.25" y="369.5151">Promise save(string,Object)</text><ellipse cx="36.25" cy="380.0117" fill="#84BE84" rx="3" ry="3" style="stroke: #038048; stroke-width: 1.0;"/><text fill="#000000" font-family="sans-serif" font-size="11" lengthAdjust="spacingAndGlyphs" textLength="96" x="45.25" y="382.3198">Promise loadAll()</text><ellipse cx="36.25" cy="392.8164" fill="#84BE84" rx="3" ry="3" style="stroke: #038048; stroke-width: 1.0;"/><text fill="#000000" font-family="sans-serif" font-size="11" lengthAdjust="spacingAndGlyphs" textLength="127" x="45.25" y="395.1245">Promise delete(string)</text><!--class FSConnectionProfileStore--><rect fill="#FEFECE" filter="url(#fw3jo75)" height="112.0234" style="stroke: #A80036; stroke-width: 1.5;" width="191" x="22.25" y="130"/><ellipse cx="37.25" cy="146" fill="#ADD1B2" rx="11" ry="11" style="stroke: #A80036; stroke-width: 1.0;"/><path d="M40.2188,151.6406 Q39.6406,151.9375 39,152.0859 Q38.3594,152.2344 37.6563,152.2344 Q35.1563,152.2344 33.8359,150.5859 Q32.5156,148.9375 32.5156,145.8125 Q32.5156,142.6875 33.8359,141.0313 Q35.1563,139.375 37.6563,139.375 Q38.3594,139.375 39.0078,139.5313 Q39.6563,139.6875 40.2188,139.9844 L40.2188,142.7031 Q39.5938,142.125 39,141.8516 Q38.4063,141.5781 37.7813,141.5781 Q36.4375,141.5781 35.75,142.6484 Q35.0625,143.7188 35.0625,145.8125 Q35.0625,147.9063 35.75,148.9766 Q36.4375,150.0469 37.7813,150.0469 Q38.4063,150.0469 39,149.7734 Q39.5938,149.5 40.2188,148.9219 L40.2188,151.6406 Z "/><text fill="#000000" font-family="sans-serif" font-size="12" lengthAdjust="spacingAndGlyphs" textLength="159" x="51.25" y="150.1543">FSConnectionProfileStore</text><line style="stroke: #A80036; stroke-width: 1.5;" x1="23.25" x2="212.25" y1="162" y2="162"/><line style="stroke: #A80036; stroke-width: 1.5;" x1="23.25" x2="212.25" y1="170" y2="170"/><ellipse cx="33.25" cy="181.9023" fill="#84BE84" rx="3" ry="3" style="stroke: #038048; stroke-width: 1.0;"/><text fill="#000000" font-family="sans-serif" font-size="11" lengthAdjust="spacingAndGlyphs" textLength="111" x="42.25" y="184.2104">void constructor(fs)</text><ellipse cx="33.25" cy="194.707" fill="#84BE84" rx="3" ry="3" style="stroke: #038048; stroke-width: 1.0;"/><text fill="#000000" font-family="sans-serif" font-size="11" lengthAdjust="spacingAndGlyphs" textLength="116" x="42.25" y="197.0151">Promise load(string)</text><ellipse cx="33.25" cy="207.5117" fill="#84BE84" rx="3" ry="3" style="stroke: #038048; stroke-width: 1.0;"/><text fill="#000000" font-family="sans-serif" font-size="11" lengthAdjust="spacingAndGlyphs" textLength="159" x="42.25" y="209.8198">Promise save(string,Object)</text><ellipse cx="33.25" cy="220.3164" fill="#84BE84" rx="3" ry="3" style="stroke: #038048; stroke-width: 1.0;"/><text fill="#000000" font-family="sans-serif" font-size="11" lengthAdjust="spacingAndGlyphs" textLength="96" x="42.25" y="222.6245">Promise loadAll()</text><ellipse cx="33.25" cy="233.1211" fill="#84BE84" rx="3" ry="3" style="stroke: #038048; stroke-width: 1.0;"/><text fill="#000000" font-family="sans-serif" font-size="11" lengthAdjust="spacingAndGlyphs" textLength="127" x="42.25" y="235.4292">Promise delete(string)</text><!--class MemoryConnectionProfileStore--><rect fill="#FEFECE" filter="url(#fw3jo75)" height="60.8047" style="stroke: #A80036; stroke-width: 1.5;" width="224" x="6" y="8.5"/><ellipse cx="21" cy="24.5" fill="#ADD1B2" rx="11" ry="11" style="stroke: #A80036; stroke-width: 1.0;"/><path d="M23.9688,30.1406 Q23.3906,30.4375 22.75,30.5859 Q22.1094,30.7344 21.4063,30.7344 Q18.9063,30.7344 17.5859,29.0859 Q16.2656,27.4375 16.2656,24.3125 Q16.2656,21.1875 17.5859,19.5313 Q18.9063,17.875 21.4063,17.875 Q22.1094,17.875 22.7578,18.0313 Q23.4063,18.1875 23.9688,18.4844 L23.9688,21.2031 Q23.3438,20.625 22.75,20.3516 Q22.1563,20.0781 21.5313,20.0781 Q20.1875,20.0781 19.5,21.1484 Q18.8125,22.2188 18.8125,24.3125 Q18.8125,26.4063 19.5,27.4766 Q20.1875,28.5469 21.5313,28.5469 Q22.1563,28.5469 22.75,28.2734 Q23.3438,28 23.9688,27.4219 L23.9688,30.1406 Z "/><text fill="#000000" font-family="sans-serif" font-size="12" lengthAdjust="spacingAndGlyphs" textLength="192" x="35" y="28.6543">MemoryConnectionProfileStore</text><line style="stroke: #A80036; stroke-width: 1.5;" x1="7" x2="229" y1="40.5" y2="40.5"/><line style="stroke: #A80036; stroke-width: 1.5;" x1="7" x2="229" y1="48.5" y2="48.5"/><rect fill="#F24D5C" height="6" style="stroke: #C82930; stroke-width: 1.0;" width="6" x="14" y="57.4023"/><text fill="#000000" font-family="sans-serif" font-size="11" lengthAdjust="spacingAndGlyphs" textLength="100" x="26" y="62.7104">void constructor()</text><path d="M117.5,242.066 C117.5,254.89 117.5,268.703 117.5,282.043 " fill="none" style="stroke: #A80036; stroke-width: 1.0;"/><polygon fill="none" points="124.5,282.407,117.5,302.4066,110.5,282.407,124.5,282.407" style="stroke: #A80036; stroke-width: 1.0;"/><path d="M117.5,69.693 C117.5,81.463 117.5,95.578 117.5,109.83 " fill="none" style="stroke: #A80036; stroke-width: 1.0;"/><polygon fill="none" points="124.5,109.842,117.5,129.842,110.5,109.842,124.5,109.842" style="stroke: #A80036; stroke-width: 1.0;"/></g></svg>