<?xml version="1.0" encoding="UTF-8" standalone="no"?><svg xmlns="http://www.w3.org/2000/svg" xmlns:xlink="http://www.w3.org/1999/xlink" contentScriptType="application/ecmascript" contentStyleType="text/css" height="142px" preserveAspectRatio="none" style="width:325px;height:142px;" version="1.1" viewBox="0 0 325 142" width="325px" zoomAndPan="magnify"><defs><filter height="300%" id="fiuc6fv" width="300%" x="-1" y="-1"><feGaussianBlur result="blurOut" stdDeviation="2.0"/><feColorMatrix in="blurOut" result="blurOut2" type="matrix" values="0 0 0 0 0 0 0 0 0 0 0 0 0 0 0 0 0 0 .4 0"/><feOffset dx="4.0" dy="4.0" in="blurOut2" result="blurOut3"/><feBlend in="SourceGraphic" in2="blurOut3" mode="normal"/></filter></defs><g><!--class ModelUtil--><rect fill="#FEFECE" filter="url(#fiuc6fv)" height="124.8281" style="stroke: #A80036; stroke-width: 1.5;" width="310" x="6" y="8.5"/><ellipse cx="128.25" cy="24.5" fill="#ADD1B2" rx="11" ry="11" style="stroke: #A80036; stroke-width: 1.0;"/><path d="M131.2188,30.1406 Q130.6406,30.4375 130,30.5859 Q129.3594,30.7344 128.6563,30.7344 Q126.1563,30.7344 124.8359,29.0859 Q123.5156,27.4375 123.5156,24.3125 Q123.5156,21.1875 124.8359,19.5313 Q126.1563,17.875 128.6563,17.875 Q129.3594,17.875 130.0078,18.0313 Q130.6563,18.1875 131.2188,18.4844 L131.2188,21.2031 Q130.5938,20.625 130,20.3516 Q129.4063,20.0781 128.7813,20.0781 Q127.4375,20.0781 126.75,21.1484 Q126.0625,22.2188 126.0625,24.3125 Q126.0625,26.4063 126.75,27.4766 Q127.4375,28.5469 128.7813,28.5469 Q129.4063,28.5469 130,28.2734 Q130.5938,28 131.2188,27.4219 L131.2188,30.1406 Z "/><text fill="#000000" font-family="sans-serif" font-size="12" lengthAdjust="spacingAndGlyphs" textLength="57" x="148.75" y="28.6543">ModelUtil</text><line style="stroke: #A80036; stroke-width: 1.5;" x1="7" x2="315" y1="40.5" y2="40.5"/><line style="stroke: #A80036; stroke-width: 1.5;" x1="7" x2="315" y1="48.5" y2="48.5"/><rect fill="#F24D5C" height="6" style="stroke: #C82930; stroke-width: 1.0;" width="6" x="14" y="57.4023"/><text fill="#000000" font-family="sans-serif" font-size="11" lengthAdjust="spacingAndGlyphs" textLength="160" x="26" y="62.7104">string getShortName(string)</text><rect fill="#F24D5C" height="6" style="stroke: #C82930; stroke-width: 1.0;" width="6" x="14" y="70.207"/><text fill="#000000" font-family="sans-serif" font-size="11" lengthAdjust="spacingAndGlyphs" textLength="163" x="26" y="75.5151">string getNamespace(string)</text><rect fill="#F24D5C" height="6" style="stroke: #C82930; stroke-width: 1.0;" width="6" x="14" y="83.0117"/><text fill="#000000" font-family="sans-serif" font-size="11" lengthAdjust="spacingAndGlyphs" textLength="176" x="26" y="88.3198">boolean isPrimitiveType(string)</text><rect fill="#F24D5C" height="6" style="stroke: #C82930; stroke-width: 1.0;" width="6" x="14" y="95.8164"/><text fill="#000000" font-family="sans-serif" font-size="11" lengthAdjust="spacingAndGlyphs" textLength="284" x="26" y="101.1245">boolean isAssignableTo(ModelFile,string,Property)</text><rect fill="#F24D5C" height="6" style="stroke: #C82930; stroke-width: 1.0;" width="6" x="14" y="108.6211"/><text fill="#000000" font-family="sans-serif" font-size="11" lengthAdjust="spacingAndGlyphs" textLength="188" x="26" y="113.9292">string capitalizeFirstLetter(string)</text><rect fill="#F24D5C" height="6" style="stroke: #C82930; stroke-width: 1.0;" width="6" x="14" y="121.4258"/><text fill="#000000" font-family="sans-serif" font-size="11" lengthAdjust="spacingAndGlyphs" textLength="125" x="26" y="126.7339">boolean isEnum(Field)</text></g></svg>