<?xml version="1.0" encoding="UTF-8" standalone="no"?><svg xmlns="http://www.w3.org/2000/svg" xmlns:xlink="http://www.w3.org/1999/xlink" contentScriptType="application/ecmascript" contentStyleType="text/css" height="493px" preserveAspectRatio="none" style="width:935px;height:493px;" version="1.1" viewBox="0 0 935 493" width="935px" zoomAndPan="magnify"><defs><filter height="300%" id="fqx7pum" width="300%" x="-1" y="-1"><feGaussianBlur result="blurOut" stdDeviation="2.0"/><feColorMatrix in="blurOut" result="blurOut2" type="matrix" values="0 0 0 0 0 0 0 0 0 0 0 0 0 0 0 0 0 0 .4 0"/><feOffset dx="4.0" dy="4.0" in="blurOut2" result="blurOut3"/><feBlend in="SourceGraphic" in2="blurOut3" mode="normal"/></filter></defs><g><!--class IllegalModelException--><rect fill="#FEFECE" filter="url(#fqx7pum)" height="60.8047" style="stroke: #A80036; stroke-width: 1.5;" width="166" x="6" y="161.5"/><ellipse cx="21" cy="177.5" fill="#ADD1B2" rx="11" ry="11" style="stroke: #A80036; stroke-width: 1.0;"/><path d="M23.9688,183.1406 Q23.3906,183.4375 22.75,183.5859 Q22.1094,183.7344 21.4063,183.7344 Q18.9063,183.7344 17.5859,182.0859 Q16.2656,180.4375 16.2656,177.3125 Q16.2656,174.1875 17.5859,172.5313 Q18.9063,170.875 21.4063,170.875 Q22.1094,170.875 22.7578,171.0313 Q23.4063,171.1875 23.9688,171.4844 L23.9688,174.2031 Q23.3438,173.625 22.75,173.3516 Q22.1563,173.0781 21.5313,173.0781 Q20.1875,173.0781 19.5,174.1484 Q18.8125,175.2188 18.8125,177.3125 Q18.8125,179.4063 19.5,180.4766 Q20.1875,181.5469 21.5313,181.5469 Q22.1563,181.5469 22.75,181.2734 Q23.3438,181 23.9688,180.4219 L23.9688,183.1406 Z "/><text fill="#000000" font-family="sans-serif" font-size="12" lengthAdjust="spacingAndGlyphs" textLength="134" x="35" y="181.6543">IllegalModelException</text><line style="stroke: #A80036; stroke-width: 1.5;" x1="7" x2="171" y1="193.5" y2="193.5"/><line style="stroke: #A80036; stroke-width: 1.5;" x1="7" x2="171" y1="201.5" y2="201.5"/><ellipse cx="17" cy="213.4023" fill="#84BE84" rx="3" ry="3" style="stroke: #038048; stroke-width: 1.0;"/><text fill="#000000" font-family="sans-serif" font-size="11" lengthAdjust="spacingAndGlyphs" textLength="133" x="26" y="215.7104">void constructor(string)</text><!--class BaseException--><rect fill="#FEFECE" filter="url(#fqx7pum)" height="48" style="stroke: #A80036; stroke-width: 1.5;" width="124" x="27.5" y="436"/><ellipse cx="42.5" cy="452" fill="#ADD1B2" rx="11" ry="11" style="stroke: #A80036; stroke-width: 1.0;"/><path d="M45.4688,457.6406 Q44.8906,457.9375 44.25,458.0859 Q43.6094,458.2344 42.9063,458.2344 Q40.4063,458.2344 39.0859,456.5859 Q37.7656,454.9375 37.7656,451.8125 Q37.7656,448.6875 39.0859,447.0313 Q40.4063,445.375 42.9063,445.375 Q43.6094,445.375 44.2578,445.5313 Q44.9063,445.6875 45.4688,445.9844 L45.4688,448.7031 Q44.8438,448.125 44.25,447.8516 Q43.6563,447.5781 43.0313,447.5781 Q41.6875,447.5781 41,448.6484 Q40.3125,449.7188 40.3125,451.8125 Q40.3125,453.9063 41,454.9766 Q41.6875,456.0469 43.0313,456.0469 Q43.6563,456.0469 44.25,455.7734 Q44.8438,455.5 45.4688,454.9219 L45.4688,457.6406 Z "/><text fill="#000000" font-family="sans-serif" font-size="12" lengthAdjust="spacingAndGlyphs" textLength="92" x="56.5" y="456.1543">BaseException</text><line style="stroke: #A80036; stroke-width: 1.5;" x1="28.5" x2="150.5" y1="468" y2="468"/><line style="stroke: #A80036; stroke-width: 1.5;" x1="28.5" x2="150.5" y1="476" y2="476"/><!--class ModelFile--><rect fill="#FEFECE" filter="url(#fqx7pum)" height="368.1172" style="stroke: #A80036; stroke-width: 1.5;" width="351" x="207.75" y="8"/><ellipse cx="350" cy="24" fill="#ADD1B2" rx="11" ry="11" style="stroke: #A80036; stroke-width: 1.0;"/><path d="M352.9688,29.6406 Q352.3906,29.9375 351.75,30.0859 Q351.1094,30.2344 350.4063,30.2344 Q347.9063,30.2344 346.5859,28.5859 Q345.2656,26.9375 345.2656,23.8125 Q345.2656,20.6875 346.5859,19.0313 Q347.9063,17.375 350.4063,17.375 Q351.1094,17.375 351.7578,17.5313 Q352.4063,17.6875 352.9688,17.9844 L352.9688,20.7031 Q352.3438,20.125 351.75,19.8516 Q351.1563,19.5781 350.5313,19.5781 Q349.1875,19.5781 348.5,20.6484 Q347.8125,21.7188 347.8125,23.8125 Q347.8125,25.9063 348.5,26.9766 Q349.1875,28.0469 350.5313,28.0469 Q351.1563,28.0469 351.75,27.7734 Q352.3438,27.5 352.9688,26.9219 L352.9688,29.6406 Z "/><text fill="#000000" font-family="sans-serif" font-size="12" lengthAdjust="spacingAndGlyphs" textLength="58" x="370.5" y="28.1543">ModelFile</text><line style="stroke: #A80036; stroke-width: 1.5;" x1="208.75" x2="557.75" y1="40" y2="40"/><line style="stroke: #A80036; stroke-width: 1.5;" x1="208.75" x2="557.75" y1="48" y2="48"/><ellipse cx="218.75" cy="59.9023" fill="#84BE84" rx="3" ry="3" style="stroke: #038048; stroke-width: 1.0;"/><text fill="#000000" font-family="sans-serif" font-size="11" lengthAdjust="spacingAndGlyphs" textLength="219" x="227.75" y="62.2104">void constructor(ModelManager,string)</text><rect fill="#F24D5C" height="6" style="stroke: #C82930; stroke-width: 1.0;" width="6" x="215.75" y="69.707"/><text fill="#000000" font-family="sans-serif" font-size="11" lengthAdjust="spacingAndGlyphs" textLength="161" x="227.75" y="75.0151">Object accept(Object,Object)</text><ellipse cx="218.75" cy="85.5117" fill="#84BE84" rx="3" ry="3" style="stroke: #038048; stroke-width: 1.0;"/><text fill="#000000" font-family="sans-serif" font-size="11" lengthAdjust="spacingAndGlyphs" textLength="194" x="227.75" y="87.8198">ModelManager getModelManager()</text><ellipse cx="218.75" cy="98.3164" fill="#84BE84" rx="3" ry="3" style="stroke: #038048; stroke-width: 1.0;"/><text fill="#000000" font-family="sans-serif" font-size="11" lengthAdjust="spacingAndGlyphs" textLength="115" x="227.75" y="100.6245">string[] getImports()</text><rect fill="#F24D5C" height="6" style="stroke: #C82930; stroke-width: 1.0;" width="6" x="215.75" y="108.1211"/><text fill="#000000" font-family="sans-serif" font-size="11" lengthAdjust="spacingAndGlyphs" textLength="79" x="227.75" y="113.4292">void validate()</text><rect fill="#F24D5C" height="6" style="stroke: #C82930; stroke-width: 1.0;" width="6" x="215.75" y="120.9258"/><text fill="#000000" font-family="sans-serif" font-size="11" lengthAdjust="spacingAndGlyphs" textLength="174" x="227.75" y="126.2339">void resolveType(string,string)</text><rect fill="#F24D5C" height="6" style="stroke: #C82930; stroke-width: 1.0;" width="6" x="215.75" y="133.7305"/><text fill="#000000" font-family="sans-serif" font-size="11" lengthAdjust="spacingAndGlyphs" textLength="156" x="227.75" y="139.0386">boolean isLocalType(string)</text><rect fill="#F24D5C" height="6" style="stroke: #C82930; stroke-width: 1.0;" width="6" x="215.75" y="146.5352"/><text fill="#000000" font-family="sans-serif" font-size="11" lengthAdjust="spacingAndGlyphs" textLength="178" x="227.75" y="151.8433">boolean isImportedType(string)</text><rect fill="#F24D5C" height="6" style="stroke: #C82930; stroke-width: 1.0;" width="6" x="215.75" y="159.3398"/><text fill="#000000" font-family="sans-serif" font-size="11" lengthAdjust="spacingAndGlyphs" textLength="157" x="227.75" y="164.6479">string resolveImport(string)</text><ellipse cx="218.75" cy="175.1445" fill="#84BE84" rx="3" ry="3" style="stroke: #038048; stroke-width: 1.0;"/><text fill="#000000" font-family="sans-serif" font-size="11" lengthAdjust="spacingAndGlyphs" textLength="143" x="227.75" y="177.4526">boolean isDefined(string)</text><rect fill="#F24D5C" height="6" style="stroke: #C82930; stroke-width: 1.0;" width="6" x="215.75" y="184.9492"/><text fill="#000000" font-family="sans-serif" font-size="11" lengthAdjust="spacingAndGlyphs" textLength="113" x="227.75" y="190.2573">void getType(string)</text><rect fill="#F24D5C" height="6" style="stroke: #C82930; stroke-width: 1.0;" width="6" x="215.75" y="197.7539"/><text fill="#000000" font-family="sans-serif" font-size="11" lengthAdjust="spacingAndGlyphs" textLength="231" x="227.75" y="203.062">string getFullyQualifiedTypeName(string)</text><ellipse cx="218.75" cy="213.5586" fill="#84BE84" rx="3" ry="3" style="stroke: #038048; stroke-width: 1.0;"/><text fill="#000000" font-family="sans-serif" font-size="11" lengthAdjust="spacingAndGlyphs" textLength="215" x="227.75" y="215.8667">ClassDeclaration getLocalType(string)</text><ellipse cx="218.75" cy="226.3633" fill="#84BE84" rx="3" ry="3" style="stroke: #038048; stroke-width: 1.0;"/><text fill="#000000" font-family="sans-serif" font-size="11" lengthAdjust="spacingAndGlyphs" textLength="255" x="227.75" y="228.6714">AssetDeclaration getAssetDeclaration(string)</text><ellipse cx="218.75" cy="239.168" fill="#84BE84" rx="3" ry="3" style="stroke: #038048; stroke-width: 1.0;"/><text fill="#000000" font-family="sans-serif" font-size="11" lengthAdjust="spacingAndGlyphs" textLength="325" x="227.75" y="241.4761">TransactionDeclaration getTransactionDeclaration(string)</text><ellipse cx="218.75" cy="251.9727" fill="#84BE84" rx="3" ry="3" style="stroke: #038048; stroke-width: 1.0;"/><text fill="#000000" font-family="sans-serif" font-size="11" lengthAdjust="spacingAndGlyphs" textLength="311" x="227.75" y="254.2808">ParticipantDeclaration getParticipantDeclaration(string)</text><ellipse cx="218.75" cy="264.7773" fill="#84BE84" rx="3" ry="3" style="stroke: #038048; stroke-width: 1.0;"/><text fill="#000000" font-family="sans-serif" font-size="11" lengthAdjust="spacingAndGlyphs" textLength="130" x="227.75" y="267.0854">string getNamespace()</text><ellipse cx="218.75" cy="277.582" fill="#84BE84" rx="3" ry="3" style="stroke: #038048; stroke-width: 1.0;"/><text fill="#000000" font-family="sans-serif" font-size="11" lengthAdjust="spacingAndGlyphs" textLength="237" x="227.75" y="279.8901">AssetDeclaration[] getAssetDeclarations()</text><ellipse cx="218.75" cy="290.3867" fill="#84BE84" rx="3" ry="3" style="stroke: #038048; stroke-width: 1.0;"/><text fill="#000000" font-family="sans-serif" font-size="11" lengthAdjust="spacingAndGlyphs" textLength="307" x="227.75" y="292.6948">TransactionDeclaration[] getTransactionDeclarations()</text><ellipse cx="218.75" cy="303.1914" fill="#84BE84" rx="3" ry="3" style="stroke: #038048; stroke-width: 1.0;"/><text fill="#000000" font-family="sans-serif" font-size="11" lengthAdjust="spacingAndGlyphs" textLength="293" x="227.75" y="305.4995">ParticipantDeclaration[] getParticipantDeclarations()</text><ellipse cx="218.75" cy="315.9961" fill="#84BE84" rx="3" ry="3" style="stroke: #038048; stroke-width: 1.0;"/><text fill="#000000" font-family="sans-serif" font-size="11" lengthAdjust="spacingAndGlyphs" textLength="237" x="227.75" y="318.3042">EnumDeclaration[] getEnumDeclarations()</text><ellipse cx="218.75" cy="328.8008" fill="#84BE84" rx="3" ry="3" style="stroke: #038048; stroke-width: 1.0;"/><text fill="#000000" font-family="sans-serif" font-size="11" lengthAdjust="spacingAndGlyphs" textLength="252" x="227.75" y="331.1089">ClassDeclaration[] getDeclarations(Function)</text><ellipse cx="218.75" cy="341.6055" fill="#84BE84" rx="3" ry="3" style="stroke: #038048; stroke-width: 1.0;"/><text fill="#000000" font-family="sans-serif" font-size="11" lengthAdjust="spacingAndGlyphs" textLength="218" x="227.75" y="343.9136">ClassDeclaration[] getAllDeclarations()</text><ellipse cx="218.75" cy="354.4102" fill="#84BE84" rx="3" ry="3" style="stroke: #038048; stroke-width: 1.0;"/><text fill="#000000" font-family="sans-serif" font-size="11" lengthAdjust="spacingAndGlyphs" textLength="123" x="227.75" y="356.7183">string getDefinitions()</text><ellipse cx="218.75" cy="367.2148" fill="#84BE84" rx="3" ry="3" style="stroke: #038048; stroke-width: 1.0;"/><text fill="#000000" font-family="sans-serif" font-size="11" lengthAdjust="spacingAndGlyphs" textLength="87" x="227.75" y="369.5229">Object toJSON()</text><!--class ModelManager--><rect fill="#FEFECE" filter="url(#fqx7pum)" height="265.6797" style="stroke: #A80036; stroke-width: 1.5;" width="333" x="593.75" y="59"/><ellipse cx="710" cy="75" fill="#ADD1B2" rx="11" ry="11" style="stroke: #A80036; stroke-width: 1.0;"/><path d="M712.9688,80.6406 Q712.3906,80.9375 711.75,81.0859 Q711.1094,81.2344 710.4063,81.2344 Q707.9063,81.2344 706.5859,79.5859 Q705.2656,77.9375 705.2656,74.8125 Q705.2656,71.6875 706.5859,70.0313 Q707.9063,68.375 710.4063,68.375 Q711.1094,68.375 711.7578,68.5313 Q712.4063,68.6875 712.9688,68.9844 L712.9688,71.7031 Q712.3438,71.125 711.75,70.8516 Q711.1563,70.5781 710.5313,70.5781 Q709.1875,70.5781 708.5,71.6484 Q707.8125,72.7188 707.8125,74.8125 Q707.8125,76.9063 708.5,77.9766 Q709.1875,79.0469 710.5313,79.0469 Q711.1563,79.0469 711.75,78.7734 Q712.3438,78.5 712.9688,77.9219 L712.9688,80.6406 Z "/><text fill="#000000" font-family="sans-serif" font-size="12" lengthAdjust="spacingAndGlyphs" textLength="92" x="730.5" y="79.1543">ModelManager</text><line style="stroke: #A80036; stroke-width: 1.5;" x1="594.75" x2="925.75" y1="91" y2="91"/><line style="stroke: #A80036; stroke-width: 1.5;" x1="594.75" x2="925.75" y1="99" y2="99"/><ellipse cx="604.75" cy="110.9023" fill="#84BE84" rx="3" ry="3" style="stroke: #038048; stroke-width: 1.0;"/><text fill="#000000" font-family="sans-serif" font-size="11" lengthAdjust="spacingAndGlyphs" textLength="100" x="613.75" y="113.2104">void constructor()</text><rect fill="#F24D5C" height="6" style="stroke: #C82930; stroke-width: 1.0;" width="6" x="601.75" y="120.707"/><text fill="#000000" font-family="sans-serif" font-size="11" lengthAdjust="spacingAndGlyphs" textLength="161" x="613.75" y="126.0151">Object accept(Object,Object)</text><ellipse cx="604.75" cy="136.5117" fill="#84BE84" rx="3" ry="3" style="stroke: #038048; stroke-width: 1.0;"/><text fill="#000000" font-family="sans-serif" font-size="11" lengthAdjust="spacingAndGlyphs" textLength="154" x="613.75" y="138.8198">Object addModelFile(string)</text><ellipse cx="604.75" cy="149.3164" fill="#84BE84" rx="3" ry="3" style="stroke: #038048; stroke-width: 1.0;"/><text fill="#000000" font-family="sans-serif" font-size="11" lengthAdjust="spacingAndGlyphs" textLength="172" x="613.75" y="151.6245">Object updateModelFile(string)</text><ellipse cx="604.75" cy="162.1211" fill="#84BE84" rx="3" ry="3" style="stroke: #038048; stroke-width: 1.0;"/><text fill="#000000" font-family="sans-serif" font-size="11" lengthAdjust="spacingAndGlyphs" textLength="155" x="613.75" y="164.4292">void deleteModelFile(string)</text><ellipse cx="604.75" cy="174.9258" fill="#84BE84" rx="3" ry="3" style="stroke: #038048; stroke-width: 1.0;"/><text fill="#000000" font-family="sans-serif" font-size="11" lengthAdjust="spacingAndGlyphs" textLength="177" x="613.75" y="177.2339">Object[] addModelFiles(string[])</text><rect fill="#F24D5C" height="6" style="stroke: #C82930; stroke-width: 1.0;" width="6" x="601.75" y="184.7305"/><text fill="#000000" font-family="sans-serif" font-size="11" lengthAdjust="spacingAndGlyphs" textLength="149" x="613.75" y="190.0386">ModelFile[] getModelFiles()</text><rect fill="#F24D5C" height="6" style="stroke: #C82930; stroke-width: 1.0;" width="6" x="601.75" y="197.5352"/><text fill="#000000" font-family="sans-serif" font-size="11" lengthAdjust="spacingAndGlyphs" textLength="184" x="613.75" y="202.8433">string resolveType(string,string)</text><ellipse cx="604.75" cy="213.3398" fill="#84BE84" rx="3" ry="3" style="stroke: #038048; stroke-width: 1.0;"/><text fill="#000000" font-family="sans-serif" font-size="11" lengthAdjust="spacingAndGlyphs" textLength="122" x="613.75" y="215.6479">void clearModelFiles()</text><rect fill="#F24D5C" height="6" style="stroke: #C82930; stroke-width: 1.0;" width="6" x="601.75" y="223.1445"/><text fill="#000000" font-family="sans-serif" font-size="11" lengthAdjust="spacingAndGlyphs" textLength="167" x="613.75" y="228.4526">ModelFile getModelFile(string)</text><ellipse cx="604.75" cy="238.9492" fill="#84BE84" rx="3" ry="3" style="stroke: #038048; stroke-width: 1.0;"/><text fill="#000000" font-family="sans-serif" font-size="11" lengthAdjust="spacingAndGlyphs" textLength="145" x="613.75" y="241.2573">string[] getNamespaces()</text><rect fill="#F24D5C" height="6" style="stroke: #C82930; stroke-width: 1.0;" width="6" x="601.75" y="248.7539"/><text fill="#000000" font-family="sans-serif" font-size="11" lengthAdjust="spacingAndGlyphs" textLength="186" x="613.75" y="254.062">ClassDeclaration getType(string)</text><ellipse cx="604.75" cy="264.5586" fill="#84BE84" rx="3" ry="3" style="stroke: #038048; stroke-width: 1.0;"/><text fill="#000000" font-family="sans-serif" font-size="11" lengthAdjust="spacingAndGlyphs" textLength="237" x="613.75" y="266.8667">AssetDeclaration[] getAssetDeclarations()</text><ellipse cx="604.75" cy="277.3633" fill="#84BE84" rx="3" ry="3" style="stroke: #038048; stroke-width: 1.0;"/><text fill="#000000" font-family="sans-serif" font-size="11" lengthAdjust="spacingAndGlyphs" textLength="307" x="613.75" y="279.6714">TransactionDeclaration[] getTransactionDeclarations()</text><ellipse cx="604.75" cy="290.168" fill="#84BE84" rx="3" ry="3" style="stroke: #038048; stroke-width: 1.0;"/><text fill="#000000" font-family="sans-serif" font-size="11" lengthAdjust="spacingAndGlyphs" textLength="293" x="613.75" y="292.4761">ParticipantDeclaration[] getParticipantDeclarations()</text><ellipse cx="604.75" cy="302.9727" fill="#84BE84" rx="3" ry="3" style="stroke: #038048; stroke-width: 1.0;"/><text fill="#000000" font-family="sans-serif" font-size="11" lengthAdjust="spacingAndGlyphs" textLength="237" x="613.75" y="305.2808">EnumDeclaration[] getEnumDeclarations()</text><ellipse cx="604.75" cy="315.7773" fill="#84BE84" rx="3" ry="3" style="stroke: #038048; stroke-width: 1.0;"/><text fill="#000000" font-family="sans-serif" font-size="11" lengthAdjust="spacingAndGlyphs" textLength="87" x="613.75" y="318.0854">Object toJSON()</text><path d="M89,222.739 C89,269.686 89,361.204 89,415.5269 " fill="none" style="stroke: #A80036; stroke-width: 1.0;"/><polygon fill="none" points="96.0001,415.6483,89,435.6483,82.0001,415.6483,96.0001,415.6483" style="stroke: #A80036; stroke-width: 1.0;"/></g></svg>