<?xml version="1.0" encoding="UTF-8" standalone="no"?><svg xmlns="http://www.w3.org/2000/svg" xmlns:xlink="http://www.w3.org/1999/xlink" contentScriptType="application/ecmascript" contentStyleType="text/css" height="129px" preserveAspectRatio="none" style="width:224px;height:129px;" version="1.1" viewBox="0 0 224 129" width="224px" zoomAndPan="magnify"><defs><filter height="300%" id="fhx88lq" width="300%" x="-1" y="-1"><feGaussianBlur result="blurOut" stdDeviation="2.0"/><feColorMatrix in="blurOut" result="blurOut2" type="matrix" values="0 0 0 0 0 0 0 0 0 0 0 0 0 0 0 0 0 0 .4 0"/><feOffset dx="4.0" dy="4.0" in="blurOut2" result="blurOut3"/><feBlend in="SourceGraphic" in2="blurOut3" mode="normal"/></filter></defs><g><!--class Node--><rect fill="#FEFECE" filter="url(#fhx88lq)" height="112.0234" style="stroke: #A80036; stroke-width: 1.5;" width="209" x="6" y="8"/><ellipse cx="89.75" cy="24" fill="#ADD1B2" rx="11" ry="11" style="stroke: #A80036; stroke-width: 1.0;"/><path d="M92.7188,29.6406 Q92.1406,29.9375 91.5,30.0859 Q90.8594,30.2344 90.1563,30.2344 Q87.6563,30.2344 86.3359,28.5859 Q85.0156,26.9375 85.0156,23.8125 Q85.0156,20.6875 86.3359,19.0313 Q87.6563,17.375 90.1563,17.375 Q90.8594,17.375 91.5078,17.5313 Q92.1563,17.6875 92.7188,17.9844 L92.7188,20.7031 Q92.0938,20.125 91.5,19.8516 Q90.9063,19.5781 90.2813,19.5781 Q88.9375,19.5781 88.25,20.6484 Q87.5625,21.7188 87.5625,23.8125 Q87.5625,25.9063 88.25,26.9766 Q88.9375,28.0469 90.2813,28.0469 Q90.9063,28.0469 91.5,27.7734 Q92.0938,27.5 92.7188,26.9219 L92.7188,29.6406 Z "/><text fill="#000000" font-family="sans-serif" font-size="12" lengthAdjust="spacingAndGlyphs" textLength="33" x="110.25" y="28.1543">Node</text><line style="stroke: #A80036; stroke-width: 1.5;" x1="7" x2="214" y1="40" y2="40"/><line style="stroke: #A80036; stroke-width: 1.5;" x1="7" x2="214" y1="48" y2="48"/><rect fill="#F24D5C" height="6" style="stroke: #C82930; stroke-width: 1.0;" width="6" x="14" y="56.9023"/><text fill="#000000" font-family="sans-serif" font-size="11" lengthAdjust="spacingAndGlyphs" textLength="183" x="26" y="62.2104">void constructor(String,boolean)</text><rect fill="#F24D5C" height="6" style="stroke: #C82930; stroke-width: 1.0;" width="6" x="14" y="69.707"/><text fill="#000000" font-family="sans-serif" font-size="11" lengthAdjust="spacingAndGlyphs" textLength="181" x="26" y="75.0151">void addChildNodeAtStart(Node)</text><rect fill="#F24D5C" height="6" style="stroke: #C82930; stroke-width: 1.0;" width="6" x="14" y="82.5117"/><text fill="#000000" font-family="sans-serif" font-size="11" lengthAdjust="spacingAndGlyphs" textLength="97" x="26" y="87.8198">String getName()</text><rect fill="#F24D5C" height="6" style="stroke: #C82930; stroke-width: 1.0;" width="6" x="14" y="95.3164"/><text fill="#000000" font-family="sans-serif" font-size="11" lengthAdjust="spacingAndGlyphs" textLength="114" x="26" y="100.6245">boolean isIncluded()</text><rect fill="#F24D5C" height="6" style="stroke: #C82930; stroke-width: 1.0;" width="6" x="14" y="108.1211"/><text fill="#000000" font-family="sans-serif" font-size="11" lengthAdjust="spacingAndGlyphs" textLength="123" x="26" y="113.4292">node findChild(String)</text></g></svg>