<?xml version="1.0" encoding="UTF-8" standalone="no"?><svg xmlns="http://www.w3.org/2000/svg" xmlns:xlink="http://www.w3.org/1999/xlink" contentScriptType="application/ecmascript" contentStyleType="text/css" height="199px" preserveAspectRatio="none" style="width:233px;height:199px;" version="1.1" viewBox="0 0 233 199" width="233px" zoomAndPan="magnify"><defs><filter height="300%" id="fsgbm0b" width="300%" x="-1" y="-1"><feGaussianBlur result="blurOut" stdDeviation="2.0"/><feColorMatrix in="blurOut" result="blurOut2" type="matrix" values="0 0 0 0 0 0 0 0 0 0 0 0 0 0 0 0 0 0 .4 0"/><feOffset dx="4.0" dy="4.0" in="blurOut2" result="blurOut3"/><feBlend in="SourceGraphic" in2="blurOut3" mode="normal"/></filter></defs><g><!--class ParticipantDeclaration--><rect fill="#FEFECE" filter="url(#fsgbm0b)" height="73.6094" style="stroke: #A80036; stroke-width: 1.5;" width="218" x="6" y="8"/><ellipse cx="41.7" cy="24" fill="#ADD1B2" rx="11" ry="11" style="stroke: #A80036; stroke-width: 1.0;"/><path d="M44.6688,29.6406 Q44.0906,29.9375 43.45,30.0859 Q42.8094,30.2344 42.1063,30.2344 Q39.6063,30.2344 38.2859,28.5859 Q36.9656,26.9375 36.9656,23.8125 Q36.9656,20.6875 38.2859,19.0313 Q39.6063,17.375 42.1063,17.375 Q42.8094,17.375 43.4578,17.5313 Q44.1063,17.6875 44.6688,17.9844 L44.6688,20.7031 Q44.0438,20.125 43.45,19.8516 Q42.8563,19.5781 42.2313,19.5781 Q40.8875,19.5781 40.2,20.6484 Q39.5125,21.7188 39.5125,23.8125 Q39.5125,25.9063 40.2,26.9766 Q40.8875,28.0469 42.2313,28.0469 Q42.8563,28.0469 43.45,27.7734 Q44.0438,27.5 44.6688,26.9219 L44.6688,29.6406 Z "/><text fill="#000000" font-family="sans-serif" font-size="12" lengthAdjust="spacingAndGlyphs" textLength="140" x="60.3" y="28.1543">ParticipantDeclaration</text><line style="stroke: #A80036; stroke-width: 1.5;" x1="7" x2="223" y1="40" y2="40"/><line style="stroke: #A80036; stroke-width: 1.5;" x1="7" x2="223" y1="48" y2="48"/><ellipse cx="17" cy="59.9023" fill="#84BE84" rx="3" ry="3" style="stroke: #038048; stroke-width: 1.0;"/><text fill="#000000" font-family="sans-serif" font-size="11" lengthAdjust="spacingAndGlyphs" textLength="192" x="26" y="62.2104">void constructor(ModelFile,Object)</text><ellipse cx="17" cy="72.707" fill="#84BE84" rx="3" ry="3" style="stroke: #038048; stroke-width: 1.0;"/><text fill="#000000" font-family="sans-serif" font-size="11" lengthAdjust="spacingAndGlyphs" textLength="173" x="26" y="75.0151">boolean isRelationshipTarget()</text><!--class ClassDeclaration--><rect fill="#FEFECE" filter="url(#fsgbm0b)" height="48" style="stroke: #A80036; stroke-width: 1.5;" width="137" x="46.75" y="142"/><ellipse cx="61.75" cy="158" fill="#ADD1B2" rx="11" ry="11" style="stroke: #A80036; stroke-width: 1.0;"/><path d="M64.7188,163.6406 Q64.1406,163.9375 63.5,164.0859 Q62.8594,164.2344 62.1563,164.2344 Q59.6563,164.2344 58.3359,162.5859 Q57.0156,160.9375 57.0156,157.8125 Q57.0156,154.6875 58.3359,153.0313 Q59.6563,151.375 62.1563,151.375 Q62.8594,151.375 63.5078,151.5313 Q64.1563,151.6875 64.7188,151.9844 L64.7188,154.7031 Q64.0938,154.125 63.5,153.8516 Q62.9063,153.5781 62.2813,153.5781 Q60.9375,153.5781 60.25,154.6484 Q59.5625,155.7188 59.5625,157.8125 Q59.5625,159.9063 60.25,160.9766 Q60.9375,162.0469 62.2813,162.0469 Q62.9063,162.0469 63.5,161.7734 Q64.0938,161.5 64.7188,160.9219 L64.7188,163.6406 Z "/><text fill="#000000" font-family="sans-serif" font-size="12" lengthAdjust="spacingAndGlyphs" textLength="105" x="75.75" y="162.1543">ClassDeclaration</text><line style="stroke: #A80036; stroke-width: 1.5;" x1="47.75" x2="182.75" y1="174" y2="174"/><line style="stroke: #A80036; stroke-width: 1.5;" x1="47.75" x2="182.75" y1="182" y2="182"/><path d="M115,82.027 C115,94.4728 115,108.5506 115,121.529 " fill="none" style="stroke: #A80036; stroke-width: 1.0;"/><polygon fill="none" points="122,121.8505,115,141.8505,108,121.8504,122,121.8505" style="stroke: #A80036; stroke-width: 1.0;"/></g></svg>