<?xml version="1.0" encoding="UTF-8" standalone="no"?><svg xmlns="http://www.w3.org/2000/svg" xmlns:xlink="http://www.w3.org/1999/xlink" contentScriptType="application/ecmascript" contentStyleType="text/css" height="78px" preserveAspectRatio="none" style="width:347px;height:78px;" version="1.1" viewBox="0 0 347 78" width="347px" zoomAndPan="magnify"><defs><filter height="300%" id="fyjii51" width="300%" x="-1" y="-1"><feGaussianBlur result="blurOut" stdDeviation="2.0"/><feColorMatrix in="blurOut" result="blurOut2" type="matrix" values="0 0 0 0 0 0 0 0 0 0 0 0 0 0 0 0 0 0 .4 0"/><feOffset dx="4.0" dy="4.0" in="blurOut2" result="blurOut3"/><feBlend in="SourceGraphic" in2="blurOut3" mode="normal"/></filter></defs><g><!--class PlantUMLGenerator--><rect fill="#FEFECE" filter="url(#fyjii51)" height="60.8047" style="stroke: #A80036; stroke-width: 1.5;" width="332" x="6" y="8.5"/><ellipse cx="107.25" cy="24.5" fill="#ADD1B2" rx="11" ry="11" style="stroke: #A80036; stroke-width: 1.0;"/><path d="M110.2188,30.1406 Q109.6406,30.4375 109,30.5859 Q108.3594,30.7344 107.6563,30.7344 Q105.1563,30.7344 103.8359,29.0859 Q102.5156,27.4375 102.5156,24.3125 Q102.5156,21.1875 103.8359,19.5313 Q105.1563,17.875 107.6563,17.875 Q108.3594,17.875 109.0078,18.0313 Q109.6563,18.1875 110.2188,18.4844 L110.2188,21.2031 Q109.5938,20.625 109,20.3516 Q108.4063,20.0781 107.7813,20.0781 Q106.4375,20.0781 105.75,21.1484 Q105.0625,22.2188 105.0625,24.3125 Q105.0625,26.4063 105.75,27.4766 Q106.4375,28.5469 107.7813,28.5469 Q108.4063,28.5469 109,28.2734 Q109.5938,28 110.2188,27.4219 L110.2188,30.1406 Z "/><text fill="#000000" font-family="sans-serif" font-size="12" lengthAdjust="spacingAndGlyphs" textLength="121" x="127.75" y="28.6543">PlantUMLGenerator</text><line style="stroke: #A80036; stroke-width: 1.5;" x1="7" x2="337" y1="40.5" y2="40.5"/><line style="stroke: #A80036; stroke-width: 1.5;" x1="7" x2="337" y1="48.5" y2="48.5"/><ellipse cx="17" cy="60.4023" fill="#84BE84" rx="3" ry="3" style="stroke: #038048; stroke-width: 1.0;"/><text fill="#000000" font-family="sans-serif" font-size="11" lengthAdjust="spacingAndGlyphs" textLength="306" x="26" y="62.7104">void generate(Object,Object,Object[],Object[],Object[])</text></g></svg>