<?xml version="1.0" encoding="UTF-8" standalone="no"?><svg xmlns="http://www.w3.org/2000/svg" xmlns:xlink="http://www.w3.org/1999/xlink" contentScriptType="application/ecmascript" contentStyleType="text/css" height="199px" preserveAspectRatio="none" style="width:334px;height:199px;" version="1.1" viewBox="0 0 334 199" width="334px" zoomAndPan="magnify"><defs><filter height="300%" id="fa2s6sr" width="300%" x="-1" y="-1"><feGaussianBlur result="blurOut" stdDeviation="2.0"/><feColorMatrix in="blurOut" result="blurOut2" type="matrix" values="0 0 0 0 0 0 0 0 0 0 0 0 0 0 0 0 0 0 .4 0"/><feOffset dx="4.0" dy="4.0" in="blurOut2" result="blurOut3"/><feBlend in="SourceGraphic" in2="blurOut3" mode="normal"/></filter></defs><g><!--class Relationship--><rect fill="#FEFECE" filter="url(#fa2s6sr)" height="73.6094" style="stroke: #A80036; stroke-width: 1.5;" width="319" x="6" y="8"/><ellipse cx="122.75" cy="24" fill="#ADD1B2" rx="11" ry="11" style="stroke: #A80036; stroke-width: 1.0;"/><path d="M125.7188,29.6406 Q125.1406,29.9375 124.5,30.0859 Q123.8594,30.2344 123.1563,30.2344 Q120.6563,30.2344 119.3359,28.5859 Q118.0156,26.9375 118.0156,23.8125 Q118.0156,20.6875 119.3359,19.0313 Q120.6563,17.375 123.1563,17.375 Q123.8594,17.375 124.5078,17.5313 Q125.1563,17.6875 125.7188,17.9844 L125.7188,20.7031 Q125.0938,20.125 124.5,19.8516 Q123.9063,19.5781 123.2813,19.5781 Q121.9375,19.5781 121.25,20.6484 Q120.5625,21.7188 120.5625,23.8125 Q120.5625,25.9063 121.25,26.9766 Q121.9375,28.0469 123.2813,28.0469 Q123.9063,28.0469 124.5,27.7734 Q125.0938,27.5 125.7188,26.9219 L125.7188,29.6406 Z "/><text fill="#000000" font-family="sans-serif" font-size="12" lengthAdjust="spacingAndGlyphs" textLength="77" x="143.25" y="28.1543">Relationship</text><line style="stroke: #A80036; stroke-width: 1.5;" x1="7" x2="324" y1="40" y2="40"/><line style="stroke: #A80036; stroke-width: 1.5;" x1="7" x2="324" y1="48" y2="48"/><rect fill="#F24D5C" height="6" style="stroke: #C82930; stroke-width: 1.0;" width="6" x="14" y="56.9023"/><text fill="#000000" font-family="sans-serif" font-size="11" lengthAdjust="spacingAndGlyphs" textLength="293" x="26" y="62.2104">void constructor(ModelManager,string,string,string)</text><ellipse cx="17" cy="72.707" fill="#84BE84" rx="3" ry="3" style="stroke: #038048; stroke-width: 1.0;"/><text fill="#000000" font-family="sans-serif" font-size="11" lengthAdjust="spacingAndGlyphs" textLength="91" x="26" y="75.0151">String toString()</text><!--class Identifiable--><rect fill="#FEFECE" filter="url(#fa2s6sr)" height="48" style="stroke: #A80036; stroke-width: 1.5;" width="101" x="115" y="142"/><ellipse cx="130" cy="158" fill="#ADD1B2" rx="11" ry="11" style="stroke: #A80036; stroke-width: 1.0;"/><path d="M132.9688,163.6406 Q132.3906,163.9375 131.75,164.0859 Q131.1094,164.2344 130.4063,164.2344 Q127.9063,164.2344 126.5859,162.5859 Q125.2656,160.9375 125.2656,157.8125 Q125.2656,154.6875 126.5859,153.0313 Q127.9063,151.375 130.4063,151.375 Q131.1094,151.375 131.7578,151.5313 Q132.4063,151.6875 132.9688,151.9844 L132.9688,154.7031 Q132.3438,154.125 131.75,153.8516 Q131.1563,153.5781 130.5313,153.5781 Q129.1875,153.5781 128.5,154.6484 Q127.8125,155.7188 127.8125,157.8125 Q127.8125,159.9063 128.5,160.9766 Q129.1875,162.0469 130.5313,162.0469 Q131.1563,162.0469 131.75,161.7734 Q132.3438,161.5 132.9688,160.9219 L132.9688,163.6406 Z "/><text fill="#000000" font-family="sans-serif" font-size="12" lengthAdjust="spacingAndGlyphs" textLength="69" x="144" y="162.1543">Identifiable</text><line style="stroke: #A80036; stroke-width: 1.5;" x1="116" x2="215" y1="174" y2="174"/><line style="stroke: #A80036; stroke-width: 1.5;" x1="116" x2="215" y1="182" y2="182"/><path d="M165.25,82.027 C165.25,94.4728 165.25,108.5506 165.25,121.529 " fill="none" style="stroke: #A80036; stroke-width: 1.0;"/><polygon fill="none" points="172.25,121.8505,165.25,141.8505,158.25,121.8504,172.25,121.8505" style="stroke: #A80036; stroke-width: 1.0;"/></g></svg>