<?xml version="1.0" encoding="UTF-8" standalone="no"?><svg xmlns="http://www.w3.org/2000/svg" xmlns:xlink="http://www.w3.org/1999/xlink" contentScriptType="application/ecmascript" contentStyleType="text/css" height="211px" preserveAspectRatio="none" style="width:277px;height:211px;" version="1.1" viewBox="0 0 277 211" width="277px" zoomAndPan="magnify"><defs><filter height="300%" id="f6tfrh5" width="300%" x="-1" y="-1"><feGaussianBlur result="blurOut" stdDeviation="2.0"/><feColorMatrix in="blurOut" result="blurOut2" type="matrix" values="0 0 0 0 0 0 0 0 0 0 0 0 0 0 0 0 0 0 .4 0"/><feOffset dx="4.0" dy="4.0" in="blurOut2" result="blurOut3"/><feBlend in="SourceGraphic" in2="blurOut3" mode="normal"/></filter></defs><g><!--class RelationshipDeclaration--><rect fill="#FEFECE" filter="url(#f6tfrh5)" height="86.4141" style="stroke: #A80036; stroke-width: 1.5;" width="262" x="6" y="8"/><ellipse cx="58.25" cy="24" fill="#ADD1B2" rx="11" ry="11" style="stroke: #A80036; stroke-width: 1.0;"/><path d="M61.2188,29.6406 Q60.6406,29.9375 60,30.0859 Q59.3594,30.2344 58.6563,30.2344 Q56.1563,30.2344 54.8359,28.5859 Q53.5156,26.9375 53.5156,23.8125 Q53.5156,20.6875 54.8359,19.0313 Q56.1563,17.375 58.6563,17.375 Q59.3594,17.375 60.0078,17.5313 Q60.6563,17.6875 61.2188,17.9844 L61.2188,20.7031 Q60.5938,20.125 60,19.8516 Q59.4063,19.5781 58.7813,19.5781 Q57.4375,19.5781 56.75,20.6484 Q56.0625,21.7188 56.0625,23.8125 Q56.0625,25.9063 56.75,26.9766 Q57.4375,28.0469 58.7813,28.0469 Q59.4063,28.0469 60,27.7734 Q60.5938,27.5 61.2188,26.9219 L61.2188,29.6406 Z "/><text fill="#000000" font-family="sans-serif" font-size="12" lengthAdjust="spacingAndGlyphs" textLength="149" x="78.75" y="28.1543">RelationshipDeclaration</text><line style="stroke: #A80036; stroke-width: 1.5;" x1="7" x2="267" y1="40" y2="40"/><line style="stroke: #A80036; stroke-width: 1.5;" x1="7" x2="267" y1="48" y2="48"/><ellipse cx="17" cy="59.9023" fill="#84BE84" rx="3" ry="3" style="stroke: #038048; stroke-width: 1.0;"/><text fill="#000000" font-family="sans-serif" font-size="11" lengthAdjust="spacingAndGlyphs" textLength="236" x="26" y="62.2104">void constructor(ClassDeclaration,Object)</text><rect fill="#F24D5C" height="6" style="stroke: #C82930; stroke-width: 1.0;" width="6" x="14" y="69.707"/><text fill="#000000" font-family="sans-serif" font-size="11" lengthAdjust="spacingAndGlyphs" textLength="175" x="26" y="75.0151">void validate(ClassDeclaration)</text><ellipse cx="17" cy="85.5117" fill="#84BE84" rx="3" ry="3" style="stroke: #038048; stroke-width: 1.0;"/><text fill="#000000" font-family="sans-serif" font-size="11" lengthAdjust="spacingAndGlyphs" textLength="91" x="26" y="87.8198">String toString()</text><!--class Property--><rect fill="#FEFECE" filter="url(#f6tfrh5)" height="48" style="stroke: #A80036; stroke-width: 1.5;" width="85" x="94.75" y="154"/><ellipse cx="109.75" cy="170" fill="#ADD1B2" rx="11" ry="11" style="stroke: #A80036; stroke-width: 1.0;"/><path d="M112.7188,175.6406 Q112.1406,175.9375 111.5,176.0859 Q110.8594,176.2344 110.1563,176.2344 Q107.6563,176.2344 106.3359,174.5859 Q105.0156,172.9375 105.0156,169.8125 Q105.0156,166.6875 106.3359,165.0313 Q107.6563,163.375 110.1563,163.375 Q110.8594,163.375 111.5078,163.5313 Q112.1563,163.6875 112.7188,163.9844 L112.7188,166.7031 Q112.0938,166.125 111.5,165.8516 Q110.9063,165.5781 110.2813,165.5781 Q108.9375,165.5781 108.25,166.6484 Q107.5625,167.7188 107.5625,169.8125 Q107.5625,171.9063 108.25,172.9766 Q108.9375,174.0469 110.2813,174.0469 Q110.9063,174.0469 111.5,173.7734 Q112.0938,173.5 112.7188,172.9219 L112.7188,175.6406 Z "/><text fill="#000000" font-family="sans-serif" font-size="12" lengthAdjust="spacingAndGlyphs" textLength="53" x="123.75" y="174.1543">Property</text><line style="stroke: #A80036; stroke-width: 1.5;" x1="95.75" x2="178.75" y1="186" y2="186"/><line style="stroke: #A80036; stroke-width: 1.5;" x1="95.75" x2="178.75" y1="194" y2="194"/><path d="M137,94.319 C137,106.869 137,120.6347 137,133.2718 " fill="none" style="stroke: #A80036; stroke-width: 1.0;"/><polygon fill="none" points="144,133.6717,137,153.6717,130,133.6717,144,133.6717" style="stroke: #A80036; stroke-width: 1.0;"/></g></svg>