<?xml version="1.0" encoding="UTF-8" standalone="no"?><svg xmlns="http://www.w3.org/2000/svg" xmlns:xlink="http://www.w3.org/1999/xlink" contentScriptType="application/ecmascript" contentStyleType="text/css" height="237px" preserveAspectRatio="none" style="width:334px;height:237px;" version="1.1" viewBox="0 0 334 237" width="334px" zoomAndPan="magnify"><defs><filter height="300%" id="fvf6bup" width="300%" x="-1" y="-1"><feGaussianBlur result="blurOut" stdDeviation="2.0"/><feColorMatrix in="blurOut" result="blurOut2" type="matrix" values="0 0 0 0 0 0 0 0 0 0 0 0 0 0 0 0 0 0 .4 0"/><feOffset dx="4.0" dy="4.0" in="blurOut2" result="blurOut3"/><feBlend in="SourceGraphic" in2="blurOut3" mode="normal"/></filter></defs><g><!--class Resource--><rect fill="#FEFECE" filter="url(#fvf6bup)" height="112.0234" style="stroke: #A80036; stroke-width: 1.5;" width="319" x="6" y="8"/><ellipse cx="131.75" cy="24" fill="#ADD1B2" rx="11" ry="11" style="stroke: #A80036; stroke-width: 1.0;"/><path d="M134.7188,29.6406 Q134.1406,29.9375 133.5,30.0859 Q132.8594,30.2344 132.1563,30.2344 Q129.6563,30.2344 128.3359,28.5859 Q127.0156,26.9375 127.0156,23.8125 Q127.0156,20.6875 128.3359,19.0313 Q129.6563,17.375 132.1563,17.375 Q132.8594,17.375 133.5078,17.5313 Q134.1563,17.6875 134.7188,17.9844 L134.7188,20.7031 Q134.0938,20.125 133.5,19.8516 Q132.9063,19.5781 132.2813,19.5781 Q130.9375,19.5781 130.25,20.6484 Q129.5625,21.7188 129.5625,23.8125 Q129.5625,25.9063 130.25,26.9766 Q130.9375,28.0469 132.2813,28.0469 Q132.9063,28.0469 133.5,27.7734 Q134.0938,27.5 134.7188,26.9219 L134.7188,29.6406 Z "/><text fill="#000000" font-family="sans-serif" font-size="12" lengthAdjust="spacingAndGlyphs" textLength="59" x="152.25" y="28.1543">Resource</text><line style="stroke: #A80036; stroke-width: 1.5;" x1="7" x2="324" y1="40" y2="40"/><line style="stroke: #A80036; stroke-width: 1.5;" x1="7" x2="324" y1="48" y2="48"/><rect fill="#F24D5C" height="6" style="stroke: #C82930; stroke-width: 1.0;" width="6" x="14" y="56.9023"/><text fill="#000000" font-family="sans-serif" font-size="11" lengthAdjust="spacingAndGlyphs" textLength="293" x="26" y="62.2104">void constructor(ModelManager,string,string,string)</text><ellipse cx="17" cy="72.707" fill="#84BE84" rx="3" ry="3" style="stroke: #038048; stroke-width: 1.0;"/><text fill="#000000" font-family="sans-serif" font-size="11" lengthAdjust="spacingAndGlyphs" textLength="202" x="26" y="75.0151">void setPropertyValue(string,string)</text><ellipse cx="17" cy="85.5117" fill="#84BE84" rx="3" ry="3" style="stroke: #038048; stroke-width: 1.0;"/><text fill="#000000" font-family="sans-serif" font-size="11" lengthAdjust="spacingAndGlyphs" textLength="187" x="26" y="87.8198">void addArrayValue(string,string)</text><rect fill="#F24D5C" height="6" style="stroke: #C82930; stroke-width: 1.0;" width="6" x="14" y="95.3164"/><text fill="#000000" font-family="sans-serif" font-size="11" lengthAdjust="spacingAndGlyphs" textLength="146" x="26" y="100.6245">void assignFieldDefaults()</text><ellipse cx="17" cy="111.1211" fill="#84BE84" rx="3" ry="3" style="stroke: #038048; stroke-width: 1.0;"/><text fill="#000000" font-family="sans-serif" font-size="11" lengthAdjust="spacingAndGlyphs" textLength="91" x="26" y="113.4292">String toString()</text><!--class Identifiable--><rect fill="#FEFECE" filter="url(#fvf6bup)" height="48" style="stroke: #A80036; stroke-width: 1.5;" width="101" x="115" y="180"/><ellipse cx="130" cy="196" fill="#ADD1B2" rx="11" ry="11" style="stroke: #A80036; stroke-width: 1.0;"/><path d="M132.9688,201.6406 Q132.3906,201.9375 131.75,202.0859 Q131.1094,202.2344 130.4063,202.2344 Q127.9063,202.2344 126.5859,200.5859 Q125.2656,198.9375 125.2656,195.8125 Q125.2656,192.6875 126.5859,191.0313 Q127.9063,189.375 130.4063,189.375 Q131.1094,189.375 131.7578,189.5313 Q132.4063,189.6875 132.9688,189.9844 L132.9688,192.7031 Q132.3438,192.125 131.75,191.8516 Q131.1563,191.5781 130.5313,191.5781 Q129.1875,191.5781 128.5,192.6484 Q127.8125,193.7188 127.8125,195.8125 Q127.8125,197.9063 128.5,198.9766 Q129.1875,200.0469 130.5313,200.0469 Q131.1563,200.0469 131.75,199.7734 Q132.3438,199.5 132.9688,198.9219 L132.9688,201.6406 Z "/><text fill="#000000" font-family="sans-serif" font-size="12" lengthAdjust="spacingAndGlyphs" textLength="69" x="144" y="200.1543">Identifiable</text><line style="stroke: #A80036; stroke-width: 1.5;" x1="116" x2="215" y1="212" y2="212"/><line style="stroke: #A80036; stroke-width: 1.5;" x1="116" x2="215" y1="220" y2="220"/><path d="M165.25,120.335 C165.25,133.4314 165.25,147.2124 165.25,159.6867 " fill="none" style="stroke: #A80036; stroke-width: 1.0;"/><polygon fill="none" points="172.25,159.6927,165.25,179.6926,158.25,159.6926,172.25,159.6927" style="stroke: #A80036; stroke-width: 1.0;"/></g></svg>