<?xml version="1.0" encoding="UTF-8" standalone="no"?><svg xmlns="http://www.w3.org/2000/svg" xmlns:xlink="http://www.w3.org/1999/xlink" contentScriptType="application/ecmascript" contentStyleType="text/css" height="251px" preserveAspectRatio="none" style="width:334px;height:251px;" version="1.1" viewBox="0 0 334 251" width="334px" zoomAndPan="magnify"><defs><filter height="300%" id="f5brr0o" width="300%" x="-1" y="-1"><feGaussianBlur result="blurOut" stdDeviation="2.0"/><feColorMatrix in="blurOut" result="blurOut2" type="matrix" values="0 0 0 0 0 0 0 0 0 0 0 0 0 0 0 0 0 0 .4 0"/><feOffset dx="4.0" dy="4.0" in="blurOut2" result="blurOut3"/><feBlend in="SourceGraphic" in2="blurOut3" mode="normal"/></filter></defs><g><!--class Resource--><rect fill="#FEFECE" filter="url(#f5brr0o)" height="124.8281" style="stroke: #A80036; stroke-width: 1.5;" width="319" x="6" y="8.5"/><ellipse cx="131.75" cy="24.5" fill="#ADD1B2" rx="11" ry="11" style="stroke: #A80036; stroke-width: 1.0;"/><path d="M134.7188,30.1406 Q134.1406,30.4375 133.5,30.5859 Q132.8594,30.7344 132.1563,30.7344 Q129.6563,30.7344 128.3359,29.0859 Q127.0156,27.4375 127.0156,24.3125 Q127.0156,21.1875 128.3359,19.5313 Q129.6563,17.875 132.1563,17.875 Q132.8594,17.875 133.5078,18.0313 Q134.1563,18.1875 134.7188,18.4844 L134.7188,21.2031 Q134.0938,20.625 133.5,20.3516 Q132.9063,20.0781 132.2813,20.0781 Q130.9375,20.0781 130.25,21.1484 Q129.5625,22.2188 129.5625,24.3125 Q129.5625,26.4063 130.25,27.4766 Q130.9375,28.5469 132.2813,28.5469 Q132.9063,28.5469 133.5,28.2734 Q134.0938,28 134.7188,27.4219 L134.7188,30.1406 Z "/><text fill="#000000" font-family="sans-serif" font-size="12" lengthAdjust="spacingAndGlyphs" textLength="59" x="152.25" y="28.6543">Resource</text><line style="stroke: #A80036; stroke-width: 1.5;" x1="7" x2="324" y1="40.5" y2="40.5"/><line style="stroke: #A80036; stroke-width: 1.5;" x1="7" x2="324" y1="48.5" y2="48.5"/><rect fill="#F24D5C" height="6" style="stroke: #C82930; stroke-width: 1.0;" width="6" x="14" y="57.4023"/><text fill="#000000" font-family="sans-serif" font-size="11" lengthAdjust="spacingAndGlyphs" textLength="293" x="26" y="62.7104">void constructor(ModelManager,string,string,string)</text><ellipse cx="17" cy="73.207" fill="#84BE84" rx="3" ry="3" style="stroke: #038048; stroke-width: 1.0;"/><text fill="#000000" font-family="sans-serif" font-size="11" lengthAdjust="spacingAndGlyphs" textLength="202" x="26" y="75.5151">void setPropertyValue(string,string)</text><ellipse cx="17" cy="86.0117" fill="#84BE84" rx="3" ry="3" style="stroke: #038048; stroke-width: 1.0;"/><text fill="#000000" font-family="sans-serif" font-size="11" lengthAdjust="spacingAndGlyphs" textLength="187" x="26" y="88.3198">void addArrayValue(string,string)</text><rect fill="#F24D5C" height="6" style="stroke: #C82930; stroke-width: 1.0;" width="6" x="14" y="95.8164"/><text fill="#000000" font-family="sans-serif" font-size="11" lengthAdjust="spacingAndGlyphs" textLength="146" x="26" y="101.1245">void assignFieldDefaults()</text><ellipse cx="17" cy="111.6211" fill="#84BE84" rx="3" ry="3" style="stroke: #038048; stroke-width: 1.0;"/><text fill="#000000" font-family="sans-serif" font-size="11" lengthAdjust="spacingAndGlyphs" textLength="91" x="26" y="113.9292">String toString()</text><ellipse cx="17" cy="124.4258" fill="#84BE84" rx="3" ry="3" style="stroke: #038048; stroke-width: 1.0;"/><text fill="#000000" font-family="sans-serif" font-size="11" lengthAdjust="spacingAndGlyphs" textLength="120" x="26" y="126.7339">boolean isResource()</text><!--class Identifiable--><rect fill="#FEFECE" filter="url(#f5brr0o)" height="48" style="stroke: #A80036; stroke-width: 1.5;" width="101" x="115" y="194"/><ellipse cx="130" cy="210" fill="#ADD1B2" rx="11" ry="11" style="stroke: #A80036; stroke-width: 1.0;"/><path d="M132.9688,215.6406 Q132.3906,215.9375 131.75,216.0859 Q131.1094,216.2344 130.4063,216.2344 Q127.9063,216.2344 126.5859,214.5859 Q125.2656,212.9375 125.2656,209.8125 Q125.2656,206.6875 126.5859,205.0313 Q127.9063,203.375 130.4063,203.375 Q131.1094,203.375 131.7578,203.5313 Q132.4063,203.6875 132.9688,203.9844 L132.9688,206.7031 Q132.3438,206.125 131.75,205.8516 Q131.1563,205.5781 130.5313,205.5781 Q129.1875,205.5781 128.5,206.6484 Q127.8125,207.7188 127.8125,209.8125 Q127.8125,211.9063 128.5,212.9766 Q129.1875,214.0469 130.5313,214.0469 Q131.1563,214.0469 131.75,213.7734 Q132.3438,213.5 132.9688,212.9219 L132.9688,215.6406 Z "/><text fill="#000000" font-family="sans-serif" font-size="12" lengthAdjust="spacingAndGlyphs" textLength="69" x="144" y="214.1543">Identifiable</text><line style="stroke: #A80036; stroke-width: 1.5;" x1="116" x2="215" y1="226" y2="226"/><line style="stroke: #A80036; stroke-width: 1.5;" x1="116" x2="215" y1="234" y2="234"/><path d="M165.25,133.914 C165.25,147.3576 165.25,161.2979 165.25,173.8314 " fill="none" style="stroke: #A80036; stroke-width: 1.0;"/><polygon fill="none" points="172.25,173.8565,165.25,193.8565,158.25,173.8564,172.25,173.8565" style="stroke: #A80036; stroke-width: 1.0;"/></g></svg>