<?xml version="1.0" encoding="UTF-8" standalone="no"?><svg xmlns="http://www.w3.org/2000/svg" xmlns:xlink="http://www.w3.org/1999/xlink" contentScriptType="application/ecmascript" contentStyleType="text/css" height="206px" preserveAspectRatio="none" style="width:616px;height:206px;" version="1.1" viewBox="0 0 616 206" width="616px" zoomAndPan="magnify"><defs><filter height="300%" id="fmll7yt" width="300%" x="-1" y="-1"><feGaussianBlur result="blurOut" stdDeviation="2.0"/><feColorMatrix in="blurOut" result="blurOut2" type="matrix" values="0 0 0 0 0 0 0 0 0 0 0 0 0 0 0 0 0 0 .4 0"/><feOffset dx="4.0" dy="4.0" in="blurOut2" result="blurOut3"/><feBlend in="SourceGraphic" in2="blurOut3" mode="normal"/></filter></defs><g><!--class Script--><rect fill="#FEFECE" filter="url(#fmll7yt)" height="137.6328" style="stroke: #A80036; stroke-width: 1.5;" width="319" x="6" y="34"/><ellipse cx="143.25" cy="50" fill="#ADD1B2" rx="11" ry="11" style="stroke: #A80036; stroke-width: 1.0;"/><path d="M146.2188,55.6406 Q145.6406,55.9375 145,56.0859 Q144.3594,56.2344 143.6563,56.2344 Q141.1563,56.2344 139.8359,54.5859 Q138.5156,52.9375 138.5156,49.8125 Q138.5156,46.6875 139.8359,45.0313 Q141.1563,43.375 143.6563,43.375 Q144.3594,43.375 145.0078,43.5313 Q145.6563,43.6875 146.2188,43.9844 L146.2188,46.7031 Q145.5938,46.125 145,45.8516 Q144.4063,45.5781 143.7813,45.5781 Q142.4375,45.5781 141.75,46.6484 Q141.0625,47.7188 141.0625,49.8125 Q141.0625,51.9063 141.75,52.9766 Q142.4375,54.0469 143.7813,54.0469 Q144.4063,54.0469 145,53.7734 Q145.5938,53.5 146.2188,52.9219 L146.2188,55.6406 Z "/><text fill="#000000" font-family="sans-serif" font-size="12" lengthAdjust="spacingAndGlyphs" textLength="36" x="163.75" y="54.1543">Script</text><line style="stroke: #A80036; stroke-width: 1.5;" x1="7" x2="324" y1="66" y2="66"/><line style="stroke: #A80036; stroke-width: 1.5;" x1="7" x2="324" y1="74" y2="74"/><ellipse cx="17" cy="85.9023" fill="#84BE84" rx="3" ry="3" style="stroke: #038048; stroke-width: 1.0;"/><text fill="#000000" font-family="sans-serif" font-size="11" lengthAdjust="spacingAndGlyphs" textLength="293" x="26" y="88.2104">void constructor(ModelManager,string,string,string)</text><rect fill="#F24D5C" height="6" style="stroke: #C82930; stroke-width: 1.0;" width="6" x="14" y="95.707"/><text fill="#000000" font-family="sans-serif" font-size="11" lengthAdjust="spacingAndGlyphs" textLength="161" x="26" y="101.0151">Object accept(Object,Object)</text><ellipse cx="17" cy="111.5117" fill="#84BE84" rx="3" ry="3" style="stroke: #038048; stroke-width: 1.0;"/><text fill="#000000" font-family="sans-serif" font-size="11" lengthAdjust="spacingAndGlyphs" textLength="113" x="26" y="113.8198">string getIdentifier()</text><ellipse cx="17" cy="124.3164" fill="#84BE84" rx="3" ry="3" style="stroke: #038048; stroke-width: 1.0;"/><text fill="#000000" font-family="sans-serif" font-size="11" lengthAdjust="spacingAndGlyphs" textLength="118" x="26" y="126.6245">string getLanguage()</text><ellipse cx="17" cy="137.1211" fill="#84BE84" rx="3" ry="3" style="stroke: #038048; stroke-width: 1.0;"/><text fill="#000000" font-family="sans-serif" font-size="11" lengthAdjust="spacingAndGlyphs" textLength="114" x="26" y="139.4292">string getContents()</text><ellipse cx="17" cy="149.9258" fill="#84BE84" rx="3" ry="3" style="stroke: #038048; stroke-width: 1.0;"/><text fill="#000000" font-family="sans-serif" font-size="11" lengthAdjust="spacingAndGlyphs" textLength="267" x="26" y="152.2339">FunctionDeclaration[] getFunctionDeclarations()</text><ellipse cx="17" cy="162.7305" fill="#84BE84" rx="3" ry="3" style="stroke: #038048; stroke-width: 1.0;"/><text fill="#000000" font-family="sans-serif" font-size="11" lengthAdjust="spacingAndGlyphs" textLength="85" x="26" y="165.0386">object toJSON()</text><!--class ScriptManager--><rect fill="#FEFECE" filter="url(#fmll7yt)" height="188.8516" style="stroke: #A80036; stroke-width: 1.5;" width="247" x="360" y="8.5"/><ellipse cx="433.75" cy="24.5" fill="#ADD1B2" rx="11" ry="11" style="stroke: #A80036; stroke-width: 1.0;"/><path d="M436.7188,30.1406 Q436.1406,30.4375 435.5,30.5859 Q434.8594,30.7344 434.1563,30.7344 Q431.6563,30.7344 430.3359,29.0859 Q429.0156,27.4375 429.0156,24.3125 Q429.0156,21.1875 430.3359,19.5313 Q431.6563,17.875 434.1563,17.875 Q434.8594,17.875 435.5078,18.0313 Q436.1563,18.1875 436.7188,18.4844 L436.7188,21.2031 Q436.0938,20.625 435.5,20.3516 Q434.9063,20.0781 434.2813,20.0781 Q432.9375,20.0781 432.25,21.1484 Q431.5625,22.2188 431.5625,24.3125 Q431.5625,26.4063 432.25,27.4766 Q432.9375,28.5469 434.2813,28.5469 Q434.9063,28.5469 435.5,28.2734 Q436.0938,28 436.7188,27.4219 L436.7188,30.1406 Z "/><text fill="#000000" font-family="sans-serif" font-size="12" lengthAdjust="spacingAndGlyphs" textLength="91" x="454.25" y="28.6543">ScriptManager</text><line style="stroke: #A80036; stroke-width: 1.5;" x1="361" x2="606" y1="40.5" y2="40.5"/><line style="stroke: #A80036; stroke-width: 1.5;" x1="361" x2="606" y1="48.5" y2="48.5"/><ellipse cx="371" cy="60.4023" fill="#84BE84" rx="3" ry="3" style="stroke: #038048; stroke-width: 1.0;"/><text fill="#000000" font-family="sans-serif" font-size="11" lengthAdjust="spacingAndGlyphs" textLength="182" x="380" y="62.7104">void constructor(ModelManager)</text><rect fill="#F24D5C" height="6" style="stroke: #C82930; stroke-width: 1.0;" width="6" x="368" y="70.207"/><text fill="#000000" font-family="sans-serif" font-size="11" lengthAdjust="spacingAndGlyphs" textLength="161" x="380" y="75.5151">Object accept(Object,Object)</text><ellipse cx="371" cy="86.0117" fill="#84BE84" rx="3" ry="3" style="stroke: #038048; stroke-width: 1.0;"/><text fill="#000000" font-family="sans-serif" font-size="11" lengthAdjust="spacingAndGlyphs" textLength="221" x="380" y="88.3198">Script createScript(string,string,string)</text><ellipse cx="371" cy="98.8164" fill="#84BE84" rx="3" ry="3" style="stroke: #038048; stroke-width: 1.0;"/><text fill="#000000" font-family="sans-serif" font-size="11" lengthAdjust="spacingAndGlyphs" textLength="122" x="380" y="101.1245">void addScript(Script)</text><ellipse cx="371" cy="111.6211" fill="#84BE84" rx="3" ry="3" style="stroke: #038048; stroke-width: 1.0;"/><text fill="#000000" font-family="sans-serif" font-size="11" lengthAdjust="spacingAndGlyphs" textLength="140" x="380" y="113.9292">void updateScript(Script)</text><ellipse cx="371" cy="124.4258" fill="#84BE84" rx="3" ry="3" style="stroke: #038048; stroke-width: 1.0;"/><text fill="#000000" font-family="sans-serif" font-size="11" lengthAdjust="spacingAndGlyphs" textLength="136" x="380" y="126.7339">void deleteScript(string)</text><rect fill="#F24D5C" height="6" style="stroke: #C82930; stroke-width: 1.0;" width="6" x="368" y="134.2305"/><text fill="#000000" font-family="sans-serif" font-size="11" lengthAdjust="spacingAndGlyphs" textLength="111" x="380" y="139.5386">Script[] getScripts()</text><ellipse cx="371" cy="150.0352" fill="#84BE84" rx="3" ry="3" style="stroke: #038048; stroke-width: 1.0;"/><text fill="#000000" font-family="sans-serif" font-size="11" lengthAdjust="spacingAndGlyphs" textLength="103" x="380" y="152.3433">void clearScripts()</text><rect fill="#F24D5C" height="6" style="stroke: #C82930; stroke-width: 1.0;" width="6" x="368" y="159.8398"/><text fill="#000000" font-family="sans-serif" font-size="11" lengthAdjust="spacingAndGlyphs" textLength="129" x="380" y="165.1479">Script getScript(string)</text><ellipse cx="371" cy="175.6445" fill="#84BE84" rx="3" ry="3" style="stroke: #038048; stroke-width: 1.0;"/><text fill="#000000" font-family="sans-serif" font-size="11" lengthAdjust="spacingAndGlyphs" textLength="161" x="380" y="177.9526">string[] getScriptIdentifiers()</text><ellipse cx="371" cy="188.4492" fill="#84BE84" rx="3" ry="3" style="stroke: #038048; stroke-width: 1.0;"/><text fill="#000000" font-family="sans-serif" font-size="11" lengthAdjust="spacingAndGlyphs" textLength="87" x="380" y="190.7573">Object toJSON()</text></g></svg>