<?xml version="1.0" encoding="UTF-8" standalone="no"?><svg xmlns="http://www.w3.org/2000/svg" xmlns:xlink="http://www.w3.org/1999/xlink" contentScriptType="application/ecmascript" contentStyleType="text/css" height="154px" preserveAspectRatio="none" style="width:334px;height:154px;" version="1.1" viewBox="0 0 334 154" width="334px" zoomAndPan="magnify"><defs><filter height="300%" id="fj6tfuj" width="300%" x="-1" y="-1"><feGaussianBlur result="blurOut" stdDeviation="2.0"/><feColorMatrix in="blurOut" result="blurOut2" type="matrix" values="0 0 0 0 0 0 0 0 0 0 0 0 0 0 0 0 0 0 .4 0"/><feOffset dx="4.0" dy="4.0" in="blurOut2" result="blurOut3"/><feBlend in="SourceGraphic" in2="blurOut3" mode="normal"/></filter></defs><g><!--class Script--><rect fill="#FEFECE" filter="url(#fj6tfuj)" height="137.6328" style="stroke: #A80036; stroke-width: 1.5;" width="319" x="6" y="8"/><ellipse cx="143.25" cy="24" fill="#ADD1B2" rx="11" ry="11" style="stroke: #A80036; stroke-width: 1.0;"/><path d="M146.2188,29.6406 Q145.6406,29.9375 145,30.0859 Q144.3594,30.2344 143.6563,30.2344 Q141.1563,30.2344 139.8359,28.5859 Q138.5156,26.9375 138.5156,23.8125 Q138.5156,20.6875 139.8359,19.0313 Q141.1563,17.375 143.6563,17.375 Q144.3594,17.375 145.0078,17.5313 Q145.6563,17.6875 146.2188,17.9844 L146.2188,20.7031 Q145.5938,20.125 145,19.8516 Q144.4063,19.5781 143.7813,19.5781 Q142.4375,19.5781 141.75,20.6484 Q141.0625,21.7188 141.0625,23.8125 Q141.0625,25.9063 141.75,26.9766 Q142.4375,28.0469 143.7813,28.0469 Q144.4063,28.0469 145,27.7734 Q145.5938,27.5 146.2188,26.9219 L146.2188,29.6406 Z "/><text fill="#000000" font-family="sans-serif" font-size="12" lengthAdjust="spacingAndGlyphs" textLength="36" x="163.75" y="28.1543">Script</text><line style="stroke: #A80036; stroke-width: 1.5;" x1="7" x2="324" y1="40" y2="40"/><line style="stroke: #A80036; stroke-width: 1.5;" x1="7" x2="324" y1="48" y2="48"/><ellipse cx="17" cy="59.9023" fill="#84BE84" rx="3" ry="3" style="stroke: #038048; stroke-width: 1.0;"/><text fill="#000000" font-family="sans-serif" font-size="11" lengthAdjust="spacingAndGlyphs" textLength="293" x="26" y="62.2104">void constructor(ModelManager,string,string,string)</text><rect fill="#F24D5C" height="6" style="stroke: #C82930; stroke-width: 1.0;" width="6" x="14" y="69.707"/><text fill="#000000" font-family="sans-serif" font-size="11" lengthAdjust="spacingAndGlyphs" textLength="161" x="26" y="75.0151">Object accept(Object,Object)</text><ellipse cx="17" cy="85.5117" fill="#84BE84" rx="3" ry="3" style="stroke: #038048; stroke-width: 1.0;"/><text fill="#000000" font-family="sans-serif" font-size="11" lengthAdjust="spacingAndGlyphs" textLength="113" x="26" y="87.8198">string getIdentifier()</text><ellipse cx="17" cy="98.3164" fill="#84BE84" rx="3" ry="3" style="stroke: #038048; stroke-width: 1.0;"/><text fill="#000000" font-family="sans-serif" font-size="11" lengthAdjust="spacingAndGlyphs" textLength="118" x="26" y="100.6245">string getLanguage()</text><ellipse cx="17" cy="111.1211" fill="#84BE84" rx="3" ry="3" style="stroke: #038048; stroke-width: 1.0;"/><text fill="#000000" font-family="sans-serif" font-size="11" lengthAdjust="spacingAndGlyphs" textLength="114" x="26" y="113.4292">string getContents()</text><ellipse cx="17" cy="123.9258" fill="#84BE84" rx="3" ry="3" style="stroke: #038048; stroke-width: 1.0;"/><text fill="#000000" font-family="sans-serif" font-size="11" lengthAdjust="spacingAndGlyphs" textLength="267" x="26" y="126.2339">FunctionDeclaration[] getFunctionDeclarations()</text><ellipse cx="17" cy="136.7305" fill="#84BE84" rx="3" ry="3" style="stroke: #038048; stroke-width: 1.0;"/><text fill="#000000" font-family="sans-serif" font-size="11" lengthAdjust="spacingAndGlyphs" textLength="85" x="26" y="139.0386">object toJSON()</text></g></svg>