<?xml version="1.0" encoding="UTF-8" standalone="no"?><svg xmlns="http://www.w3.org/2000/svg" xmlns:xlink="http://www.w3.org/1999/xlink" contentScriptType="application/ecmascript" contentStyleType="text/css" height="365px" preserveAspectRatio="none" style="width:1002px;height:365px;" version="1.1" viewBox="0 0 1002 365" width="1002px" zoomAndPan="magnify"><defs><filter height="300%" id="f73y9bl" width="300%" x="-1" y="-1"><feGaussianBlur result="blurOut" stdDeviation="2.0"/><feColorMatrix in="blurOut" result="blurOut2" type="matrix" values="0 0 0 0 0 0 0 0 0 0 0 0 0 0 0 0 0 0 .4 0"/><feOffset dx="4.0" dy="4.0" in="blurOut2" result="blurOut3"/><feBlend in="SourceGraphic" in2="blurOut3" mode="normal"/></filter></defs><g><!--class Resource--><rect fill="#FEFECE" filter="url(#f73y9bl)" height="124.8281" style="stroke: #A80036; stroke-width: 1.5;" width="319" x="6" y="65.5"/><ellipse cx="131.75" cy="81.5" fill="#ADD1B2" rx="11" ry="11" style="stroke: #A80036; stroke-width: 1.0;"/><path d="M134.7188,87.1406 Q134.1406,87.4375 133.5,87.5859 Q132.8594,87.7344 132.1563,87.7344 Q129.6563,87.7344 128.3359,86.0859 Q127.0156,84.4375 127.0156,81.3125 Q127.0156,78.1875 128.3359,76.5313 Q129.6563,74.875 132.1563,74.875 Q132.8594,74.875 133.5078,75.0313 Q134.1563,75.1875 134.7188,75.4844 L134.7188,78.2031 Q134.0938,77.625 133.5,77.3516 Q132.9063,77.0781 132.2813,77.0781 Q130.9375,77.0781 130.25,78.1484 Q129.5625,79.2188 129.5625,81.3125 Q129.5625,83.4063 130.25,84.4766 Q130.9375,85.5469 132.2813,85.5469 Q132.9063,85.5469 133.5,85.2734 Q134.0938,85 134.7188,84.4219 L134.7188,87.1406 Z "/><text fill="#000000" font-family="sans-serif" font-size="12" lengthAdjust="spacingAndGlyphs" textLength="59" x="152.25" y="85.6543">Resource</text><line style="stroke: #A80036; stroke-width: 1.5;" x1="7" x2="324" y1="97.5" y2="97.5"/><line style="stroke: #A80036; stroke-width: 1.5;" x1="7" x2="324" y1="105.5" y2="105.5"/><rect fill="#F24D5C" height="6" style="stroke: #C82930; stroke-width: 1.0;" width="6" x="14" y="114.4023"/><text fill="#000000" font-family="sans-serif" font-size="11" lengthAdjust="spacingAndGlyphs" textLength="293" x="26" y="119.7104">void constructor(ModelManager,string,string,string)</text><ellipse cx="17" cy="130.207" fill="#84BE84" rx="3" ry="3" style="stroke: #038048; stroke-width: 1.0;"/><text fill="#000000" font-family="sans-serif" font-size="11" lengthAdjust="spacingAndGlyphs" textLength="202" x="26" y="132.5151">void setPropertyValue(string,string)</text><ellipse cx="17" cy="143.0117" fill="#84BE84" rx="3" ry="3" style="stroke: #038048; stroke-width: 1.0;"/><text fill="#000000" font-family="sans-serif" font-size="11" lengthAdjust="spacingAndGlyphs" textLength="187" x="26" y="145.3198">void addArrayValue(string,string)</text><rect fill="#F24D5C" height="6" style="stroke: #C82930; stroke-width: 1.0;" width="6" x="14" y="152.8164"/><text fill="#000000" font-family="sans-serif" font-size="11" lengthAdjust="spacingAndGlyphs" textLength="146" x="26" y="158.1245">void assignFieldDefaults()</text><ellipse cx="17" cy="168.6211" fill="#84BE84" rx="3" ry="3" style="stroke: #038048; stroke-width: 1.0;"/><text fill="#000000" font-family="sans-serif" font-size="11" lengthAdjust="spacingAndGlyphs" textLength="91" x="26" y="170.9292">String toString()</text><ellipse cx="17" cy="181.4258" fill="#84BE84" rx="3" ry="3" style="stroke: #038048; stroke-width: 1.0;"/><text fill="#000000" font-family="sans-serif" font-size="11" lengthAdjust="spacingAndGlyphs" textLength="120" x="26" y="183.7339">boolean isResource()</text><!--class Identifiable--><rect fill="#FEFECE" filter="url(#f73y9bl)" height="48" style="stroke: #A80036; stroke-width: 1.5;" width="101" x="115" y="308"/><ellipse cx="130" cy="324" fill="#ADD1B2" rx="11" ry="11" style="stroke: #A80036; stroke-width: 1.0;"/><path d="M132.9688,329.6406 Q132.3906,329.9375 131.75,330.0859 Q131.1094,330.2344 130.4063,330.2344 Q127.9063,330.2344 126.5859,328.5859 Q125.2656,326.9375 125.2656,323.8125 Q125.2656,320.6875 126.5859,319.0313 Q127.9063,317.375 130.4063,317.375 Q131.1094,317.375 131.7578,317.5313 Q132.4063,317.6875 132.9688,317.9844 L132.9688,320.7031 Q132.3438,320.125 131.75,319.8516 Q131.1563,319.5781 130.5313,319.5781 Q129.1875,319.5781 128.5,320.6484 Q127.8125,321.7188 127.8125,323.8125 Q127.8125,325.9063 128.5,326.9766 Q129.1875,328.0469 130.5313,328.0469 Q131.1563,328.0469 131.75,327.7734 Q132.3438,327.5 132.9688,326.9219 L132.9688,329.6406 Z "/><text fill="#000000" font-family="sans-serif" font-size="12" lengthAdjust="spacingAndGlyphs" textLength="69" x="144" y="328.1543">Identifiable</text><line style="stroke: #A80036; stroke-width: 1.5;" x1="116" x2="215" y1="340" y2="340"/><line style="stroke: #A80036; stroke-width: 1.5;" x1="116" x2="215" y1="348" y2="348"/><!--class JSONWriter--><rect fill="#FEFECE" filter="url(#f73y9bl)" height="240.0703" style="stroke: #A80036; stroke-width: 1.5;" width="244" x="360.25" y="8"/><ellipse cx="445" cy="24" fill="#ADD1B2" rx="11" ry="11" style="stroke: #A80036; stroke-width: 1.0;"/><path d="M447.9688,29.6406 Q447.3906,29.9375 446.75,30.0859 Q446.1094,30.2344 445.4063,30.2344 Q442.9063,30.2344 441.5859,28.5859 Q440.2656,26.9375 440.2656,23.8125 Q440.2656,20.6875 441.5859,19.0313 Q442.9063,17.375 445.4063,17.375 Q446.1094,17.375 446.7578,17.5313 Q447.4063,17.6875 447.9688,17.9844 L447.9688,20.7031 Q447.3438,20.125 446.75,19.8516 Q446.1563,19.5781 445.5313,19.5781 Q444.1875,19.5781 443.5,20.6484 Q442.8125,21.7188 442.8125,23.8125 Q442.8125,25.9063 443.5,26.9766 Q444.1875,28.0469 445.5313,28.0469 Q446.1563,28.0469 446.75,27.7734 Q447.3438,27.5 447.9688,26.9219 L447.9688,29.6406 Z "/><text fill="#000000" font-family="sans-serif" font-size="12" lengthAdjust="spacingAndGlyphs" textLength="66" x="465.5" y="28.1543">JSONWriter</text><line style="stroke: #A80036; stroke-width: 1.5;" x1="361.25" x2="603.25" y1="40" y2="40"/><line style="stroke: #A80036; stroke-width: 1.5;" x1="361.25" x2="603.25" y1="48" y2="48"/><ellipse cx="371.25" cy="59.9023" fill="#84BE84" rx="3" ry="3" style="stroke: #038048; stroke-width: 1.0;"/><text fill="#000000" font-family="sans-serif" font-size="11" lengthAdjust="spacingAndGlyphs" textLength="100" x="380.25" y="62.2104">void constructor()</text><ellipse cx="371.25" cy="72.707" fill="#84BE84" rx="3" ry="3" style="stroke: #038048; stroke-width: 1.0;"/><text fill="#000000" font-family="sans-serif" font-size="11" lengthAdjust="spacingAndGlyphs" textLength="132" x="380.25" y="75.0151">void openObject(string)</text><ellipse cx="371.25" cy="85.5117" fill="#84BE84" rx="3" ry="3" style="stroke: #038048; stroke-width: 1.0;"/><text fill="#000000" font-family="sans-serif" font-size="11" lengthAdjust="spacingAndGlyphs" textLength="101" x="380.25" y="87.8198">void closeObject()</text><ellipse cx="371.25" cy="98.3164" fill="#84BE84" rx="3" ry="3" style="stroke: #038048; stroke-width: 1.0;"/><text fill="#000000" font-family="sans-serif" font-size="11" lengthAdjust="spacingAndGlyphs" textLength="116" x="380.25" y="100.6245">void writeKey(string)</text><ellipse cx="371.25" cy="111.1211" fill="#84BE84" rx="3" ry="3" style="stroke: #038048; stroke-width: 1.0;"/><text fill="#000000" font-family="sans-serif" font-size="11" lengthAdjust="spacingAndGlyphs" textLength="107" x="380.25" y="113.4292">void writeComma()</text><ellipse cx="371.25" cy="123.9258" fill="#84BE84" rx="3" ry="3" style="stroke: #038048; stroke-width: 1.0;"/><text fill="#000000" font-family="sans-serif" font-size="11" lengthAdjust="spacingAndGlyphs" textLength="161" x="380.25" y="126.2339">void writeStringValue(string)</text><ellipse cx="371.25" cy="136.7305" fill="#84BE84" rx="3" ry="3" style="stroke: #038048; stroke-width: 1.0;"/><text fill="#000000" font-family="sans-serif" font-size="11" lengthAdjust="spacingAndGlyphs" textLength="127" x="380.25" y="139.0386">void writeValue(string)</text><ellipse cx="371.25" cy="149.5352" fill="#84BE84" rx="3" ry="3" style="stroke: #038048; stroke-width: 1.0;"/><text fill="#000000" font-family="sans-serif" font-size="11" lengthAdjust="spacingAndGlyphs" textLength="218" x="380.25" y="151.8433">void writeKeyStringValue(string,string)</text><ellipse cx="371.25" cy="162.3398" fill="#84BE84" rx="3" ry="3" style="stroke: #038048; stroke-width: 1.0;"/><text fill="#000000" font-family="sans-serif" font-size="11" lengthAdjust="spacingAndGlyphs" textLength="184" x="380.25" y="164.6479">void writeKeyValue(string,string)</text><ellipse cx="371.25" cy="175.1445" fill="#84BE84" rx="3" ry="3" style="stroke: #038048; stroke-width: 1.0;"/><text fill="#000000" font-family="sans-serif" font-size="11" lengthAdjust="spacingAndGlyphs" textLength="191" x="380.25" y="177.4526">void writeArrayStringValue(string)</text><ellipse cx="371.25" cy="187.9492" fill="#84BE84" rx="3" ry="3" style="stroke: #038048; stroke-width: 1.0;"/><text fill="#000000" font-family="sans-serif" font-size="11" lengthAdjust="spacingAndGlyphs" textLength="157" x="380.25" y="190.2573">void writeArrayValue(string)</text><ellipse cx="371.25" cy="200.7539" fill="#84BE84" rx="3" ry="3" style="stroke: #038048; stroke-width: 1.0;"/><text fill="#000000" font-family="sans-serif" font-size="11" lengthAdjust="spacingAndGlyphs" textLength="93" x="380.25" y="203.062">void openArray()</text><ellipse cx="371.25" cy="213.5586" fill="#84BE84" rx="3" ry="3" style="stroke: #038048; stroke-width: 1.0;"/><text fill="#000000" font-family="sans-serif" font-size="11" lengthAdjust="spacingAndGlyphs" textLength="95" x="380.25" y="215.8667">void closeArray()</text><ellipse cx="371.25" cy="226.3633" fill="#84BE84" rx="3" ry="3" style="stroke: #038048; stroke-width: 1.0;"/><text fill="#000000" font-family="sans-serif" font-size="11" lengthAdjust="spacingAndGlyphs" textLength="91" x="380.25" y="228.6714">String toString()</text><ellipse cx="371.25" cy="239.168" fill="#84BE84" rx="3" ry="3" style="stroke: #038048; stroke-width: 1.0;"/><text fill="#000000" font-family="sans-serif" font-size="11" lengthAdjust="spacingAndGlyphs" textLength="124" x="380.25" y="241.4761">void log(String,String)</text><!--class Writer--><rect fill="#FEFECE" filter="url(#f73y9bl)" height="48" style="stroke: #A80036; stroke-width: 1.5;" width="69" x="448" y="308"/><ellipse cx="463" cy="324" fill="#ADD1B2" rx="11" ry="11" style="stroke: #A80036; stroke-width: 1.0;"/><path d="M465.9688,329.6406 Q465.3906,329.9375 464.75,330.0859 Q464.1094,330.2344 463.4063,330.2344 Q460.9063,330.2344 459.5859,328.5859 Q458.2656,326.9375 458.2656,323.8125 Q458.2656,320.6875 459.5859,319.0313 Q460.9063,317.375 463.4063,317.375 Q464.1094,317.375 464.7578,317.5313 Q465.4063,317.6875 465.9688,317.9844 L465.9688,320.7031 Q465.3438,320.125 464.75,319.8516 Q464.1563,319.5781 463.5313,319.5781 Q462.1875,319.5781 461.5,320.6484 Q460.8125,321.7188 460.8125,323.8125 Q460.8125,325.9063 461.5,326.9766 Q462.1875,328.0469 463.5313,328.0469 Q464.1563,328.0469 464.75,327.7734 Q465.3438,327.5 465.9688,326.9219 L465.9688,329.6406 Z "/><text fill="#000000" font-family="sans-serif" font-size="12" lengthAdjust="spacingAndGlyphs" textLength="37" x="477" y="328.1543">Writer</text><line style="stroke: #A80036; stroke-width: 1.5;" x1="449" x2="516" y1="340" y2="340"/><line style="stroke: #A80036; stroke-width: 1.5;" x1="449" x2="516" y1="348" y2="348"/><!--class Serializer--><rect fill="#FEFECE" filter="url(#f73y9bl)" height="86.4141" style="stroke: #A80036; stroke-width: 1.5;" width="353" x="640" y="85"/><ellipse cx="784.25" cy="101" fill="#ADD1B2" rx="11" ry="11" style="stroke: #A80036; stroke-width: 1.0;"/><path d="M787.2188,106.6406 Q786.6406,106.9375 786,107.0859 Q785.3594,107.2344 784.6563,107.2344 Q782.1563,107.2344 780.8359,105.5859 Q779.5156,103.9375 779.5156,100.8125 Q779.5156,97.6875 780.8359,96.0313 Q782.1563,94.375 784.6563,94.375 Q785.3594,94.375 786.0078,94.5313 Q786.6563,94.6875 787.2188,94.9844 L787.2188,97.7031 Q786.5938,97.125 786,96.8516 Q785.4063,96.5781 784.7813,96.5781 Q783.4375,96.5781 782.75,97.6484 Q782.0625,98.7188 782.0625,100.8125 Q782.0625,102.9063 782.75,103.9766 Q783.4375,105.0469 784.7813,105.0469 Q785.4063,105.0469 786,104.7734 Q786.5938,104.5 787.2188,103.9219 L787.2188,106.6406 Z "/><text fill="#000000" font-family="sans-serif" font-size="12" lengthAdjust="spacingAndGlyphs" textLength="56" x="804.75" y="105.1543">Serializer</text><line style="stroke: #A80036; stroke-width: 1.5;" x1="641" x2="992" y1="117" y2="117"/><line style="stroke: #A80036; stroke-width: 1.5;" x1="641" x2="992" y1="125" y2="125"/><ellipse cx="651" cy="136.9023" fill="#84BE84" rx="3" ry="3" style="stroke: #038048; stroke-width: 1.0;"/><text fill="#000000" font-family="sans-serif" font-size="11" lengthAdjust="spacingAndGlyphs" textLength="227" x="660" y="139.2104">void constructor(Factory,ModelManager)</text><ellipse cx="651" cy="149.707" fill="#84BE84" rx="3" ry="3" style="stroke: #038048; stroke-width: 1.0;"/><text fill="#000000" font-family="sans-serif" font-size="11" lengthAdjust="spacingAndGlyphs" textLength="327" x="660" y="152.0151">Object toJSON(Resource,Object,boolean,boolean,boolean)</text><ellipse cx="651" cy="162.5117" fill="#84BE84" rx="3" ry="3" style="stroke: #038048; stroke-width: 1.0;"/><text fill="#000000" font-family="sans-serif" font-size="11" lengthAdjust="spacingAndGlyphs" textLength="245" x="660" y="164.8198">Resource fromJSON(Object,Object,boolean)</text><path d="M165.25,190.704 C165.25,222.17 165.25,259.6631 165.25,287.971 " fill="none" style="stroke: #A80036; stroke-width: 1.0;"/><polygon fill="none" points="172.25,287.994,165.25,307.994,158.25,287.994,172.25,287.994" style="stroke: #A80036; stroke-width: 1.0;"/><path d="M482.25,248.256 C482.25,262.2792 482.25,275.8168 482.25,287.7383 " fill="none" style="stroke: #A80036; stroke-width: 1.0;"/><polygon fill="none" points="489.25,287.7865,482.25,307.7865,475.25,287.7864,489.25,287.7865" style="stroke: #A80036; stroke-width: 1.0;"/></g></svg>