<?xml version="1.0" encoding="UTF-8" standalone="no"?><svg xmlns="http://www.w3.org/2000/svg" xmlns:xlink="http://www.w3.org/1999/xlink" contentScriptType="application/ecmascript" contentStyleType="text/css" height="199px" preserveAspectRatio="none" style="width:207px;height:199px;" version="1.1" viewBox="0 0 207 199" width="207px" zoomAndPan="magnify"><defs><filter height="300%" id="fomizh0" width="300%" x="-1" y="-1"><feGaussianBlur result="blurOut" stdDeviation="2.0"/><feColorMatrix in="blurOut" result="blurOut2" type="matrix" values="0 0 0 0 0 0 0 0 0 0 0 0 0 0 0 0 0 0 .4 0"/><feOffset dx="4.0" dy="4.0" in="blurOut2" result="blurOut3"/><feBlend in="SourceGraphic" in2="blurOut3" mode="normal"/></filter></defs><g><!--class StringValidator--><rect fill="#FEFECE" filter="url(#fomizh0)" height="73.6094" style="stroke: #A80036; stroke-width: 1.5;" width="192" x="6" y="8"/><ellipse cx="51.25" cy="24" fill="#ADD1B2" rx="11" ry="11" style="stroke: #A80036; stroke-width: 1.0;"/><path d="M54.2188,29.6406 Q53.6406,29.9375 53,30.0859 Q52.3594,30.2344 51.6563,30.2344 Q49.1563,30.2344 47.8359,28.5859 Q46.5156,26.9375 46.5156,23.8125 Q46.5156,20.6875 47.8359,19.0313 Q49.1563,17.375 51.6563,17.375 Q52.3594,17.375 53.0078,17.5313 Q53.6563,17.6875 54.2188,17.9844 L54.2188,20.7031 Q53.5938,20.125 53,19.8516 Q52.4063,19.5781 51.7813,19.5781 Q50.4375,19.5781 49.75,20.6484 Q49.0625,21.7188 49.0625,23.8125 Q49.0625,25.9063 49.75,26.9766 Q50.4375,28.0469 51.7813,28.0469 Q52.4063,28.0469 53,27.7734 Q53.5938,27.5 54.2188,26.9219 L54.2188,29.6406 Z "/><text fill="#000000" font-family="sans-serif" font-size="12" lengthAdjust="spacingAndGlyphs" textLength="93" x="71.75" y="28.1543">StringValidator</text><line style="stroke: #A80036; stroke-width: 1.5;" x1="7" x2="197" y1="40" y2="40"/><line style="stroke: #A80036; stroke-width: 1.5;" x1="7" x2="197" y1="48" y2="48"/><ellipse cx="17" cy="59.9023" fill="#84BE84" rx="3" ry="3" style="stroke: #038048; stroke-width: 1.0;"/><text fill="#000000" font-family="sans-serif" font-size="11" lengthAdjust="spacingAndGlyphs" textLength="166" x="26" y="62.2104">void constructor(Field,Object)</text><rect fill="#F24D5C" height="6" style="stroke: #C82930; stroke-width: 1.0;" width="6" x="14" y="69.707"/><text fill="#000000" font-family="sans-serif" font-size="11" lengthAdjust="spacingAndGlyphs" textLength="152" x="26" y="75.0151">void validate(string,Object)</text><!--class Validator--><rect fill="#FEFECE" filter="url(#fomizh0)" height="48" style="stroke: #A80036; stroke-width: 1.5;" width="88" x="58.5" y="142"/><ellipse cx="73.5" cy="158" fill="#ADD1B2" rx="11" ry="11" style="stroke: #A80036; stroke-width: 1.0;"/><path d="M76.4688,163.6406 Q75.8906,163.9375 75.25,164.0859 Q74.6094,164.2344 73.9063,164.2344 Q71.4063,164.2344 70.0859,162.5859 Q68.7656,160.9375 68.7656,157.8125 Q68.7656,154.6875 70.0859,153.0313 Q71.4063,151.375 73.9063,151.375 Q74.6094,151.375 75.2578,151.5313 Q75.9063,151.6875 76.4688,151.9844 L76.4688,154.7031 Q75.8438,154.125 75.25,153.8516 Q74.6563,153.5781 74.0313,153.5781 Q72.6875,153.5781 72,154.6484 Q71.3125,155.7188 71.3125,157.8125 Q71.3125,159.9063 72,160.9766 Q72.6875,162.0469 74.0313,162.0469 Q74.6563,162.0469 75.25,161.7734 Q75.8438,161.5 76.4688,160.9219 L76.4688,163.6406 Z "/><text fill="#000000" font-family="sans-serif" font-size="12" lengthAdjust="spacingAndGlyphs" textLength="56" x="87.5" y="162.1543">Validator</text><line style="stroke: #A80036; stroke-width: 1.5;" x1="59.5" x2="145.5" y1="174" y2="174"/><line style="stroke: #A80036; stroke-width: 1.5;" x1="59.5" x2="145.5" y1="182" y2="182"/><path d="M102,82.027 C102,94.4728 102,108.5506 102,121.529 " fill="none" style="stroke: #A80036; stroke-width: 1.0;"/><polygon fill="none" points="109,121.8505,102,141.8505,95.0001,121.8504,109,121.8505" style="stroke: #A80036; stroke-width: 1.0;"/></g></svg>