<?xml version="1.0" encoding="UTF-8" standalone="no"?><svg xmlns="http://www.w3.org/2000/svg" xmlns:xlink="http://www.w3.org/1999/xlink" contentScriptType="application/ecmascript" contentStyleType="text/css" height="199px" preserveAspectRatio="none" style="width:233px;height:199px;" version="1.1" viewBox="0 0 233 199" width="233px" zoomAndPan="magnify"><defs><filter height="300%" id="fxhvjzd" width="300%" x="-1" y="-1"><feGaussianBlur result="blurOut" stdDeviation="2.0"/><feColorMatrix in="blurOut" result="blurOut2" type="matrix" values="0 0 0 0 0 0 0 0 0 0 0 0 0 0 0 0 0 0 .4 0"/><feOffset dx="4.0" dy="4.0" in="blurOut2" result="blurOut3"/><feBlend in="SourceGraphic" in2="blurOut3" mode="normal"/></filter></defs><g><!--class TransactionDeclaration--><rect fill="#FEFECE" filter="url(#fxhvjzd)" height="73.6094" style="stroke: #A80036; stroke-width: 1.5;" width="218" x="6" y="8"/><ellipse cx="39" cy="24" fill="#ADD1B2" rx="11" ry="11" style="stroke: #A80036; stroke-width: 1.0;"/><path d="M41.9688,29.6406 Q41.3906,29.9375 40.75,30.0859 Q40.1094,30.2344 39.4063,30.2344 Q36.9063,30.2344 35.5859,28.5859 Q34.2656,26.9375 34.2656,23.8125 Q34.2656,20.6875 35.5859,19.0313 Q36.9063,17.375 39.4063,17.375 Q40.1094,17.375 40.7578,17.5313 Q41.4063,17.6875 41.9688,17.9844 L41.9688,20.7031 Q41.3438,20.125 40.75,19.8516 Q40.1563,19.5781 39.5313,19.5781 Q38.1875,19.5781 37.5,20.6484 Q36.8125,21.7188 36.8125,23.8125 Q36.8125,25.9063 37.5,26.9766 Q38.1875,28.0469 39.5313,28.0469 Q40.1563,28.0469 40.75,27.7734 Q41.3438,27.5 41.9688,26.9219 L41.9688,29.6406 Z "/><text fill="#000000" font-family="sans-serif" font-size="12" lengthAdjust="spacingAndGlyphs" textLength="146" x="57" y="28.1543">TransactionDeclaration</text><line style="stroke: #A80036; stroke-width: 1.5;" x1="7" x2="223" y1="40" y2="40"/><line style="stroke: #A80036; stroke-width: 1.5;" x1="7" x2="223" y1="48" y2="48"/><ellipse cx="17" cy="59.9023" fill="#84BE84" rx="3" ry="3" style="stroke: #038048; stroke-width: 1.0;"/><text fill="#000000" font-family="sans-serif" font-size="11" lengthAdjust="spacingAndGlyphs" textLength="192" x="26" y="62.2104">void constructor(ModelFile,Object)</text><rect fill="#F24D5C" height="6" style="stroke: #C82930; stroke-width: 1.0;" width="6" x="14" y="69.707"/><text fill="#000000" font-family="sans-serif" font-size="11" lengthAdjust="spacingAndGlyphs" textLength="81" x="26" y="75.0151">void process()</text><!--class ClassDeclaration--><rect fill="#FEFECE" filter="url(#fxhvjzd)" height="48" style="stroke: #A80036; stroke-width: 1.5;" width="137" x="46.75" y="142"/><ellipse cx="61.75" cy="158" fill="#ADD1B2" rx="11" ry="11" style="stroke: #A80036; stroke-width: 1.0;"/><path d="M64.7188,163.6406 Q64.1406,163.9375 63.5,164.0859 Q62.8594,164.2344 62.1563,164.2344 Q59.6563,164.2344 58.3359,162.5859 Q57.0156,160.9375 57.0156,157.8125 Q57.0156,154.6875 58.3359,153.0313 Q59.6563,151.375 62.1563,151.375 Q62.8594,151.375 63.5078,151.5313 Q64.1563,151.6875 64.7188,151.9844 L64.7188,154.7031 Q64.0938,154.125 63.5,153.8516 Q62.9063,153.5781 62.2813,153.5781 Q60.9375,153.5781 60.25,154.6484 Q59.5625,155.7188 59.5625,157.8125 Q59.5625,159.9063 60.25,160.9766 Q60.9375,162.0469 62.2813,162.0469 Q62.9063,162.0469 63.5,161.7734 Q64.0938,161.5 64.7188,160.9219 L64.7188,163.6406 Z "/><text fill="#000000" font-family="sans-serif" font-size="12" lengthAdjust="spacingAndGlyphs" textLength="105" x="75.75" y="162.1543">ClassDeclaration</text><line style="stroke: #A80036; stroke-width: 1.5;" x1="47.75" x2="182.75" y1="174" y2="174"/><line style="stroke: #A80036; stroke-width: 1.5;" x1="47.75" x2="182.75" y1="182" y2="182"/><path d="M115,82.027 C115,94.4728 115,108.5506 115,121.529 " fill="none" style="stroke: #A80036; stroke-width: 1.0;"/><polygon fill="none" points="122,121.8505,115,141.8505,108,121.8504,122,121.8505" style="stroke: #A80036; stroke-width: 1.0;"/></g></svg>