<?xml version="1.0" encoding="UTF-8" standalone="no"?><svg xmlns="http://www.w3.org/2000/svg" xmlns:xlink="http://www.w3.org/1999/xlink" contentScriptType="application/ecmascript" contentStyleType="text/css" height="347px" preserveAspectRatio="none" style="width:823px;height:347px;" version="1.1" viewBox="0 0 823 347" width="823px" zoomAndPan="magnify"><defs><filter height="300%" id="fcb8ufo" width="300%" x="-1" y="-1"><feGaussianBlur result="blurOut" stdDeviation="2.0"/><feColorMatrix in="blurOut" result="blurOut2" type="matrix" values="0 0 0 0 0 0 0 0 0 0 0 0 0 0 0 0 0 0 .4 0"/><feOffset dx="4.0" dy="4.0" in="blurOut2" result="blurOut3"/><feBlend in="SourceGraphic" in2="blurOut3" mode="normal"/></filter></defs><g><!--class SecurityContext--><rect fill="#FEFECE" filter="url(#fcb8ufo)" height="99.2188" style="stroke: #A80036; stroke-width: 1.5;" width="226" x="6" y="8.5"/><ellipse cx="65.75" cy="24.5" fill="#ADD1B2" rx="11" ry="11" style="stroke: #A80036; stroke-width: 1.0;"/><path d="M68.7188,30.1406 Q68.1406,30.4375 67.5,30.5859 Q66.8594,30.7344 66.1563,30.7344 Q63.6563,30.7344 62.3359,29.0859 Q61.0156,27.4375 61.0156,24.3125 Q61.0156,21.1875 62.3359,19.5313 Q63.6563,17.875 66.1563,17.875 Q66.8594,17.875 67.5078,18.0313 Q68.1563,18.1875 68.7188,18.4844 L68.7188,21.2031 Q68.0938,20.625 67.5,20.3516 Q66.9063,20.0781 66.2813,20.0781 Q64.9375,20.0781 64.25,21.1484 Q63.5625,22.2188 63.5625,24.3125 Q63.5625,26.4063 64.25,27.4766 Q64.9375,28.5469 66.2813,28.5469 Q66.9063,28.5469 67.5,28.2734 Q68.0938,28 68.7188,27.4219 L68.7188,30.1406 Z "/><text fill="#000000" font-family="sans-serif" font-size="12" lengthAdjust="spacingAndGlyphs" textLength="98" x="86.25" y="28.6543">SecurityContext</text><line style="stroke: #A80036; stroke-width: 1.5;" x1="7" x2="231" y1="40.5" y2="40.5"/><line style="stroke: #A80036; stroke-width: 1.5;" x1="7" x2="231" y1="48.5" y2="48.5"/><ellipse cx="17" cy="60.4023" fill="#84BE84" rx="3" ry="3" style="stroke: #038048; stroke-width: 1.0;"/><text fill="#000000" font-family="sans-serif" font-size="11" lengthAdjust="spacingAndGlyphs" textLength="200" x="26" y="62.7104">void constructor(Connection,string)</text><ellipse cx="17" cy="73.207" fill="#84BE84" rx="3" ry="3" style="stroke: #038048; stroke-width: 1.0;"/><text fill="#000000" font-family="sans-serif" font-size="11" lengthAdjust="spacingAndGlyphs" textLength="156" x="26" y="75.5151">Connection getConnection()</text><ellipse cx="17" cy="86.0117" fill="#84BE84" rx="3" ry="3" style="stroke: #038048; stroke-width: 1.0;"/><text fill="#000000" font-family="sans-serif" font-size="11" lengthAdjust="spacingAndGlyphs" textLength="90" x="26" y="88.3198">string getUser()</text><ellipse cx="17" cy="98.8164" fill="#84BE84" rx="3" ry="3" style="stroke: #038048; stroke-width: 1.0;"/><text fill="#000000" font-family="sans-serif" font-size="11" lengthAdjust="spacingAndGlyphs" textLength="87" x="26" y="101.1245">Object toJSON()</text><!--class BaseException--><rect fill="#FEFECE" filter="url(#fcb8ufo)" height="60.8047" style="stroke: #A80036; stroke-width: 1.5;" width="159" x="267.75" y="168.5"/><ellipse cx="298.5" cy="184.5" fill="#ADD1B2" rx="11" ry="11" style="stroke: #A80036; stroke-width: 1.0;"/><path d="M301.4688,190.1406 Q300.8906,190.4375 300.25,190.5859 Q299.6094,190.7344 298.9063,190.7344 Q296.4063,190.7344 295.0859,189.0859 Q293.7656,187.4375 293.7656,184.3125 Q293.7656,181.1875 295.0859,179.5313 Q296.4063,177.875 298.9063,177.875 Q299.6094,177.875 300.2578,178.0313 Q300.9063,178.1875 301.4688,178.4844 L301.4688,181.2031 Q300.8438,180.625 300.25,180.3516 Q299.6563,180.0781 299.0313,180.0781 Q297.6875,180.0781 297,181.1484 Q296.3125,182.2188 296.3125,184.3125 Q296.3125,186.4063 297,187.4766 Q297.6875,188.5469 299.0313,188.5469 Q299.6563,188.5469 300.25,188.2734 Q300.8438,188 301.4688,187.4219 L301.4688,190.1406 Z "/><text fill="#000000" font-family="sans-serif" font-size="12" lengthAdjust="spacingAndGlyphs" textLength="92" x="316" y="188.6543">BaseException</text><line style="stroke: #A80036; stroke-width: 1.5;" x1="268.75" x2="425.75" y1="200.5" y2="200.5"/><line style="stroke: #A80036; stroke-width: 1.5;" x1="268.75" x2="425.75" y1="208.5" y2="208.5"/><ellipse cx="278.75" cy="220.4023" fill="#84BE84" rx="3" ry="3" style="stroke: #038048; stroke-width: 1.0;"/><text fill="#000000" font-family="sans-serif" font-size="11" lengthAdjust="spacingAndGlyphs" textLength="133" x="287.75" y="222.7104">void constructor(string)</text><!--class Error--><rect fill="#FEFECE" filter="url(#fcb8ufo)" height="48" style="stroke: #A80036; stroke-width: 1.5;" width="63" x="315.75" y="290"/><ellipse cx="330.75" cy="306" fill="#ADD1B2" rx="11" ry="11" style="stroke: #A80036; stroke-width: 1.0;"/><path d="M333.7188,311.6406 Q333.1406,311.9375 332.5,312.0859 Q331.8594,312.2344 331.1563,312.2344 Q328.6563,312.2344 327.3359,310.5859 Q326.0156,308.9375 326.0156,305.8125 Q326.0156,302.6875 327.3359,301.0313 Q328.6563,299.375 331.1563,299.375 Q331.8594,299.375 332.5078,299.5313 Q333.1563,299.6875 333.7188,299.9844 L333.7188,302.7031 Q333.0938,302.125 332.5,301.8516 Q331.9063,301.5781 331.2813,301.5781 Q329.9375,301.5781 329.25,302.6484 Q328.5625,303.7188 328.5625,305.8125 Q328.5625,307.9063 329.25,308.9766 Q329.9375,310.0469 331.2813,310.0469 Q331.9063,310.0469 332.5,309.7734 Q333.0938,309.5 333.7188,308.9219 L333.7188,311.6406 Z "/><text fill="#000000" font-family="sans-serif" font-size="12" lengthAdjust="spacingAndGlyphs" textLength="31" x="344.75" y="310.1543">Error</text><line style="stroke: #A80036; stroke-width: 1.5;" x1="316.75" x2="377.75" y1="322" y2="322"/><line style="stroke: #A80036; stroke-width: 1.5;" x1="316.75" x2="377.75" y1="330" y2="330"/><!--class SecurityException--><rect fill="#FEFECE" filter="url(#fcb8ufo)" height="60.8047" style="stroke: #A80036; stroke-width: 1.5;" width="159" x="267.75" y="27.5"/><ellipse cx="289.95" cy="43.5" fill="#ADD1B2" rx="11" ry="11" style="stroke: #A80036; stroke-width: 1.0;"/><path d="M292.9188,49.1406 Q292.3406,49.4375 291.7,49.5859 Q291.0594,49.7344 290.3563,49.7344 Q287.8563,49.7344 286.5359,48.0859 Q285.2156,46.4375 285.2156,43.3125 Q285.2156,40.1875 286.5359,38.5313 Q287.8563,36.875 290.3563,36.875 Q291.0594,36.875 291.7078,37.0313 Q292.3563,37.1875 292.9188,37.4844 L292.9188,40.2031 Q292.2938,39.625 291.7,39.3516 Q291.1063,39.0781 290.4813,39.0781 Q289.1375,39.0781 288.45,40.1484 Q287.7625,41.2188 287.7625,43.3125 Q287.7625,45.4063 288.45,46.4766 Q289.1375,47.5469 290.4813,47.5469 Q291.1063,47.5469 291.7,47.2734 Q292.2938,47 292.9188,46.4219 L292.9188,49.1406 Z "/><text fill="#000000" font-family="sans-serif" font-size="12" lengthAdjust="spacingAndGlyphs" textLength="111" x="305.55" y="47.6543">SecurityException</text><line style="stroke: #A80036; stroke-width: 1.5;" x1="268.75" x2="425.75" y1="59.5" y2="59.5"/><line style="stroke: #A80036; stroke-width: 1.5;" x1="268.75" x2="425.75" y1="67.5" y2="67.5"/><ellipse cx="278.75" cy="79.4023" fill="#84BE84" rx="3" ry="3" style="stroke: #038048; stroke-width: 1.0;"/><text fill="#000000" font-family="sans-serif" font-size="11" lengthAdjust="spacingAndGlyphs" textLength="133" x="287.75" y="81.7104">void constructor(string)</text><!--class Util--><rect fill="#FEFECE" filter="url(#fcb8ufo)" height="99.2188" style="stroke: #A80036; stroke-width: 1.5;" width="353" x="461.75" y="8.5"/><ellipse cx="624" cy="24.5" fill="#ADD1B2" rx="11" ry="11" style="stroke: #A80036; stroke-width: 1.0;"/><path d="M626.9688,30.1406 Q626.3906,30.4375 625.75,30.5859 Q625.1094,30.7344 624.4063,30.7344 Q621.9063,30.7344 620.5859,29.0859 Q619.2656,27.4375 619.2656,24.3125 Q619.2656,21.1875 620.5859,19.5313 Q621.9063,17.875 624.4063,17.875 Q625.1094,17.875 625.7578,18.0313 Q626.4063,18.1875 626.9688,18.4844 L626.9688,21.2031 Q626.3438,20.625 625.75,20.3516 Q625.1563,20.0781 624.5313,20.0781 Q623.1875,20.0781 622.5,21.1484 Q621.8125,22.2188 621.8125,24.3125 Q621.8125,26.4063 622.5,27.4766 Q623.1875,28.5469 624.5313,28.5469 Q625.1563,28.5469 625.75,28.2734 Q626.3438,28 626.9688,27.4219 L626.9688,30.1406 Z "/><text fill="#000000" font-family="sans-serif" font-size="12" lengthAdjust="spacingAndGlyphs" textLength="20" x="644.5" y="28.6543">Util</text><line style="stroke: #A80036; stroke-width: 1.5;" x1="462.75" x2="813.75" y1="40.5" y2="40.5"/><line style="stroke: #A80036; stroke-width: 1.5;" x1="462.75" x2="813.75" y1="48.5" y2="48.5"/><ellipse cx="472.75" cy="60.4023" fill="#84BE84" rx="3" ry="3" style="stroke: #038048; stroke-width: 1.0;"/><text fill="#000000" font-family="sans-serif" font-size="11" lengthAdjust="spacingAndGlyphs" textLength="203" x="481.75" y="62.7104">void securityCheck(SecurityContext)</text><ellipse cx="472.75" cy="73.207" fill="#84BE84" rx="3" ry="3" style="stroke: #038048; stroke-width: 1.0;"/><text fill="#000000" font-family="sans-serif" font-size="11" lengthAdjust="spacingAndGlyphs" textLength="323" x="481.75" y="75.5151">Promise queryChainCode(SecurityContext,string,string[])</text><ellipse cx="472.75" cy="86.0117" fill="#84BE84" rx="3" ry="3" style="stroke: #038048; stroke-width: 1.0;"/><text fill="#000000" font-family="sans-serif" font-size="11" lengthAdjust="spacingAndGlyphs" textLength="327" x="481.75" y="88.3198">Promise invokeChainCode(SecurityContext,string,string[])</text><ellipse cx="472.75" cy="98.8164" fill="#84BE84" rx="3" ry="3" style="stroke: #038048; stroke-width: 1.0;"/><text fill="#000000" font-family="sans-serif" font-size="11" lengthAdjust="spacingAndGlyphs" textLength="124" x="481.75" y="101.1245">boolean isNull(Object)</text><path d="M347,229.689 C347,241.9011 347,256.2881 347,269.6388 " fill="none" style="stroke: #A80036; stroke-width: 1.0;"/><polygon fill="none" points="354,269.9284,347,289.9284,340,269.9283,354,269.9284" style="stroke: #A80036; stroke-width: 1.0;"/><path d="M347,88.819 C347,106.042 347,128.154 347,147.97 " fill="none" style="stroke: #A80036; stroke-width: 1.0;"/><polygon fill="none" points="354,148.23,347,168.23,340,148.23,354,148.23" style="stroke: #A80036; stroke-width: 1.0;"/></g></svg>