<?xml version="1.0" encoding="UTF-8" standalone="no"?><svg xmlns="http://www.w3.org/2000/svg" xmlns:xlink="http://www.w3.org/1999/xlink" contentScriptType="application/ecmascript" contentStyleType="text/css" height="225px" preserveAspectRatio="none" style="width:441px;height:225px;" version="1.1" viewBox="0 0 441 225" width="441px" zoomAndPan="magnify"><defs><filter height="300%" id="favfspq" width="300%" x="-1" y="-1"><feGaussianBlur result="blurOut" stdDeviation="2.0"/><feColorMatrix in="blurOut" result="blurOut2" type="matrix" values="0 0 0 0 0 0 0 0 0 0 0 0 0 0 0 0 0 0 .4 0"/><feOffset dx="4.0" dy="4.0" in="blurOut2" result="blurOut3"/><feBlend in="SourceGraphic" in2="blurOut3" mode="normal"/></filter></defs><g><!--class ValidatedResource--><rect fill="#FEFECE" filter="url(#favfspq)" height="99.2188" style="stroke: #A80036; stroke-width: 1.5;" width="426" x="6" y="8.5"/><ellipse cx="155.75" cy="24.5" fill="#ADD1B2" rx="11" ry="11" style="stroke: #A80036; stroke-width: 1.0;"/><path d="M158.7188,30.1406 Q158.1406,30.4375 157.5,30.5859 Q156.8594,30.7344 156.1563,30.7344 Q153.6563,30.7344 152.3359,29.0859 Q151.0156,27.4375 151.0156,24.3125 Q151.0156,21.1875 152.3359,19.5313 Q153.6563,17.875 156.1563,17.875 Q156.8594,17.875 157.5078,18.0313 Q158.1563,18.1875 158.7188,18.4844 L158.7188,21.2031 Q158.0938,20.625 157.5,20.3516 Q156.9063,20.0781 156.2813,20.0781 Q154.9375,20.0781 154.25,21.1484 Q153.5625,22.2188 153.5625,24.3125 Q153.5625,26.4063 154.25,27.4766 Q154.9375,28.5469 156.2813,28.5469 Q156.9063,28.5469 157.5,28.2734 Q158.0938,28 158.7188,27.4219 L158.7188,30.1406 Z "/><text fill="#000000" font-family="sans-serif" font-size="12" lengthAdjust="spacingAndGlyphs" textLength="118" x="176.25" y="28.6543">ValidatedResource</text><line style="stroke: #A80036; stroke-width: 1.5;" x1="7" x2="431" y1="40.5" y2="40.5"/><line style="stroke: #A80036; stroke-width: 1.5;" x1="7" x2="431" y1="48.5" y2="48.5"/><rect fill="#F24D5C" height="6" style="stroke: #C82930; stroke-width: 1.0;" width="6" x="14" y="57.4023"/><text fill="#000000" font-family="sans-serif" font-size="11" lengthAdjust="spacingAndGlyphs" textLength="400" x="26" y="62.7104">void constructor(ModelManager,string,string,string,ResourceValidator)</text><ellipse cx="17" cy="73.207" fill="#84BE84" rx="3" ry="3" style="stroke: #038048; stroke-width: 1.0;"/><text fill="#000000" font-family="sans-serif" font-size="11" lengthAdjust="spacingAndGlyphs" textLength="202" x="26" y="75.5151">void setPropertyValue(string,string)</text><ellipse cx="17" cy="86.0117" fill="#84BE84" rx="3" ry="3" style="stroke: #038048; stroke-width: 1.0;"/><text fill="#000000" font-family="sans-serif" font-size="11" lengthAdjust="spacingAndGlyphs" textLength="187" x="26" y="88.3198">void addArrayValue(string,string)</text><ellipse cx="17" cy="98.8164" fill="#84BE84" rx="3" ry="3" style="stroke: #038048; stroke-width: 1.0;"/><text fill="#000000" font-family="sans-serif" font-size="11" lengthAdjust="spacingAndGlyphs" textLength="79" x="26" y="101.1245">void validate()</text><!--class Resource--><rect fill="#FEFECE" filter="url(#favfspq)" height="48" style="stroke: #A80036; stroke-width: 1.5;" width="91" x="173.25" y="168"/><ellipse cx="188.25" cy="184" fill="#ADD1B2" rx="11" ry="11" style="stroke: #A80036; stroke-width: 1.0;"/><path d="M191.2188,189.6406 Q190.6406,189.9375 190,190.0859 Q189.3594,190.2344 188.6563,190.2344 Q186.1563,190.2344 184.8359,188.5859 Q183.5156,186.9375 183.5156,183.8125 Q183.5156,180.6875 184.8359,179.0313 Q186.1563,177.375 188.6563,177.375 Q189.3594,177.375 190.0078,177.5313 Q190.6563,177.6875 191.2188,177.9844 L191.2188,180.7031 Q190.5938,180.125 190,179.8516 Q189.4063,179.5781 188.7813,179.5781 Q187.4375,179.5781 186.75,180.6484 Q186.0625,181.7188 186.0625,183.8125 Q186.0625,185.9063 186.75,186.9766 Q187.4375,188.0469 188.7813,188.0469 Q189.4063,188.0469 190,187.7734 Q190.5938,187.5 191.2188,186.9219 L191.2188,189.6406 Z "/><text fill="#000000" font-family="sans-serif" font-size="12" lengthAdjust="spacingAndGlyphs" textLength="59" x="202.25" y="188.1543">Resource</text><line style="stroke: #A80036; stroke-width: 1.5;" x1="174.25" x2="263.25" y1="200" y2="200"/><line style="stroke: #A80036; stroke-width: 1.5;" x1="174.25" x2="263.25" y1="208" y2="208"/><path d="M218.5,107.777 C218.5,120.7898 218.5,134.763 218.5,147.4735 " fill="none" style="stroke: #A80036; stroke-width: 1.0;"/><polygon fill="none" points="225.5,147.8894,218.5,167.8894,211.5,147.8893,225.5,147.8894" style="stroke: #A80036; stroke-width: 1.0;"/></g></svg>