<?xml version="1.0" encoding="UTF-8" standalone="no"?><svg xmlns="http://www.w3.org/2000/svg" xmlns:xlink="http://www.w3.org/1999/xlink" contentScriptType="application/ecmascript" contentStyleType="text/css" height="225px" preserveAspectRatio="none" style="width:404px;height:225px;" version="1.1" viewBox="0 0 404 225" width="404px" zoomAndPan="magnify"><defs><filter height="300%" id="f7wh3k5" width="300%" x="-1" y="-1"><feGaussianBlur result="blurOut" stdDeviation="2.0"/><feColorMatrix in="blurOut" result="blurOut2" type="matrix" values="0 0 0 0 0 0 0 0 0 0 0 0 0 0 0 0 0 0 .4 0"/><feOffset dx="4.0" dy="4.0" in="blurOut2" result="blurOut3"/><feBlend in="SourceGraphic" in2="blurOut3" mode="normal"/></filter></defs><g><!--class ValidatedConcept--><rect fill="#FEFECE" filter="url(#f7wh3k5)" height="99.2188" style="stroke: #A80036; stroke-width: 1.5;" width="389" x="6" y="8.5"/><ellipse cx="140.75" cy="24.5" fill="#ADD1B2" rx="11" ry="11" style="stroke: #A80036; stroke-width: 1.0;"/><path d="M143.7188,30.1406 Q143.1406,30.4375 142.5,30.5859 Q141.8594,30.7344 141.1563,30.7344 Q138.6563,30.7344 137.3359,29.0859 Q136.0156,27.4375 136.0156,24.3125 Q136.0156,21.1875 137.3359,19.5313 Q138.6563,17.875 141.1563,17.875 Q141.8594,17.875 142.5078,18.0313 Q143.1563,18.1875 143.7188,18.4844 L143.7188,21.2031 Q143.0938,20.625 142.5,20.3516 Q141.9063,20.0781 141.2813,20.0781 Q139.9375,20.0781 139.25,21.1484 Q138.5625,22.2188 138.5625,24.3125 Q138.5625,26.4063 139.25,27.4766 Q139.9375,28.5469 141.2813,28.5469 Q141.9063,28.5469 142.5,28.2734 Q143.0938,28 143.7188,27.4219 L143.7188,30.1406 Z "/><text fill="#000000" font-family="sans-serif" font-size="12" lengthAdjust="spacingAndGlyphs" textLength="111" x="161.25" y="28.6543">ValidatedConcept</text><line style="stroke: #A80036; stroke-width: 1.5;" x1="7" x2="394" y1="40.5" y2="40.5"/><line style="stroke: #A80036; stroke-width: 1.5;" x1="7" x2="394" y1="48.5" y2="48.5"/><rect fill="#F24D5C" height="6" style="stroke: #C82930; stroke-width: 1.0;" width="6" x="14" y="57.4023"/><text fill="#000000" font-family="sans-serif" font-size="11" lengthAdjust="spacingAndGlyphs" textLength="363" x="26" y="62.7104">void constructor(ModelManager,string,string,ResourceValidator)</text><ellipse cx="17" cy="73.207" fill="#84BE84" rx="3" ry="3" style="stroke: #038048; stroke-width: 1.0;"/><text fill="#000000" font-family="sans-serif" font-size="11" lengthAdjust="spacingAndGlyphs" textLength="202" x="26" y="75.5151">void setPropertyValue(string,string)</text><ellipse cx="17" cy="86.0117" fill="#84BE84" rx="3" ry="3" style="stroke: #038048; stroke-width: 1.0;"/><text fill="#000000" font-family="sans-serif" font-size="11" lengthAdjust="spacingAndGlyphs" textLength="187" x="26" y="88.3198">void addArrayValue(string,string)</text><ellipse cx="17" cy="98.8164" fill="#84BE84" rx="3" ry="3" style="stroke: #038048; stroke-width: 1.0;"/><text fill="#000000" font-family="sans-serif" font-size="11" lengthAdjust="spacingAndGlyphs" textLength="79" x="26" y="101.1245">void validate()</text><!--class Concept--><rect fill="#FEFECE" filter="url(#f7wh3k5)" height="48" style="stroke: #A80036; stroke-width: 1.5;" width="84" x="158.75" y="168"/><ellipse cx="173.75" cy="184" fill="#ADD1B2" rx="11" ry="11" style="stroke: #A80036; stroke-width: 1.0;"/><path d="M176.7188,189.6406 Q176.1406,189.9375 175.5,190.0859 Q174.8594,190.2344 174.1563,190.2344 Q171.6563,190.2344 170.3359,188.5859 Q169.0156,186.9375 169.0156,183.8125 Q169.0156,180.6875 170.3359,179.0313 Q171.6563,177.375 174.1563,177.375 Q174.8594,177.375 175.5078,177.5313 Q176.1563,177.6875 176.7188,177.9844 L176.7188,180.7031 Q176.0938,180.125 175.5,179.8516 Q174.9063,179.5781 174.2813,179.5781 Q172.9375,179.5781 172.25,180.6484 Q171.5625,181.7188 171.5625,183.8125 Q171.5625,185.9063 172.25,186.9766 Q172.9375,188.0469 174.2813,188.0469 Q174.9063,188.0469 175.5,187.7734 Q176.0938,187.5 176.7188,186.9219 L176.7188,189.6406 Z "/><text fill="#000000" font-family="sans-serif" font-size="12" lengthAdjust="spacingAndGlyphs" textLength="52" x="187.75" y="188.1543">Concept</text><line style="stroke: #A80036; stroke-width: 1.5;" x1="159.75" x2="241.75" y1="200" y2="200"/><line style="stroke: #A80036; stroke-width: 1.5;" x1="159.75" x2="241.75" y1="208" y2="208"/><path d="M200.25,107.777 C200.25,120.7898 200.25,134.763 200.25,147.4735 " fill="none" style="stroke: #A80036; stroke-width: 1.0;"/><polygon fill="none" points="207.25,147.8894,200.25,167.8894,193.25,147.8893,207.25,147.8894" style="stroke: #A80036; stroke-width: 1.0;"/></g></svg>