<?xml version="1.0" encoding="UTF-8" standalone="no"?><svg xmlns="http://www.w3.org/2000/svg" xmlns:xlink="http://www.w3.org/1999/xlink" contentScriptType="application/ecmascript" contentStyleType="text/css" height="90px" preserveAspectRatio="none" style="width:237px;height:90px;" version="1.1" viewBox="0 0 237 90" width="237px" zoomAndPan="magnify"><defs><filter height="300%" id="fw20d3u" width="300%" x="-1" y="-1"><feGaussianBlur result="blurOut" stdDeviation="2.0"/><feColorMatrix in="blurOut" result="blurOut2" type="matrix" values="0 0 0 0 0 0 0 0 0 0 0 0 0 0 0 0 0 0 .4 0"/><feOffset dx="4.0" dy="4.0" in="blurOut2" result="blurOut3"/><feBlend in="SourceGraphic" in2="blurOut3" mode="normal"/></filter></defs><g><!--class VersionChecker--><rect fill="#FEFECE" filter="url(#fw20d3u)" height="73.6094" style="stroke: #A80036; stroke-width: 1.5;" width="222" x="6" y="8"/><ellipse cx="63.75" cy="24" fill="#ADD1B2" rx="11" ry="11" style="stroke: #A80036; stroke-width: 1.0;"/><path d="M66.7188,29.6406 Q66.1406,29.9375 65.5,30.0859 Q64.8594,30.2344 64.1563,30.2344 Q61.6563,30.2344 60.3359,28.5859 Q59.0156,26.9375 59.0156,23.8125 Q59.0156,20.6875 60.3359,19.0313 Q61.6563,17.375 64.1563,17.375 Q64.8594,17.375 65.5078,17.5313 Q66.1563,17.6875 66.7188,17.9844 L66.7188,20.7031 Q66.0938,20.125 65.5,19.8516 Q64.9063,19.5781 64.2813,19.5781 Q62.9375,19.5781 62.25,20.6484 Q61.5625,21.7188 61.5625,23.8125 Q61.5625,25.9063 62.25,26.9766 Q62.9375,28.0469 64.2813,28.0469 Q64.9063,28.0469 65.5,27.7734 Q66.0938,27.5 66.7188,26.9219 L66.7188,29.6406 Z "/><text fill="#000000" font-family="sans-serif" font-size="12" lengthAdjust="spacingAndGlyphs" textLength="98" x="84.25" y="28.1543">VersionChecker</text><line style="stroke: #A80036; stroke-width: 1.5;" x1="7" x2="227" y1="40" y2="40"/><line style="stroke: #A80036; stroke-width: 1.5;" x1="7" x2="227" y1="48" y2="48"/><ellipse cx="17" cy="59.9023" fill="#84BE84" rx="3" ry="3" style="stroke: #038048; stroke-width: 1.0;"/><text fill="#000000" font-family="sans-serif" font-size="11" lengthAdjust="spacingAndGlyphs" textLength="196" x="26" y="62.2104">boolean check(string,string,string)</text><ellipse cx="17" cy="72.707" fill="#84BE84" rx="3" ry="3" style="stroke: #038048; stroke-width: 1.0;"/><text fill="#000000" font-family="sans-serif" font-size="11" lengthAdjust="spacingAndGlyphs" textLength="132" x="26" y="75.0151">string getDigest(string)</text></g></svg>