<?xml version="1.0" encoding="UTF-8" standalone="no"?><svg xmlns="http://www.w3.org/2000/svg" xmlns:xlink="http://www.w3.org/1999/xlink" contentScriptType="application/ecmascript" contentStyleType="text/css" height="513px" preserveAspectRatio="none" style="width:2000px;height:513px;" version="1.1" viewBox="0 0 2000 513" width="2000px" zoomAndPan="magnify"><defs><filter height="300%" id="ftuijsh" width="300%" x="-1" y="-1"><feGaussianBlur result="blurOut" stdDeviation="2.0"/><feColorMatrix in="blurOut" result="blurOut2" type="matrix" values="0 0 0 0 0 0 0 0 0 0 0 0 0 0 0 0 0 0 .4 0"/><feOffset dx="4.0" dy="4.0" in="blurOut2" result="blurOut3"/><feBlend in="SourceGraphic" in2="blurOut3" mode="normal"/></filter></defs><g><!--class CBase--><rect fill="#FEFECE" filter="url(#ftuijsh)" height="124.8281" style="stroke: #A80036; stroke-width: 1.5;" width="319" x="183" y="251.5"/><ellipse cx="318.75" cy="267.5" fill="#ADD1B2" rx="11" ry="11" style="stroke: #A80036; stroke-width: 1.0;"/><path d="M321.7188,273.1406 Q321.1406,273.4375 320.5,273.5859 Q319.8594,273.7344 319.1563,273.7344 Q316.6563,273.7344 315.3359,272.0859 Q314.0156,270.4375 314.0156,267.3125 Q314.0156,264.1875 315.3359,262.5313 Q316.6563,260.875 319.1563,260.875 Q319.8594,260.875 320.5078,261.0313 Q321.1563,261.1875 321.7188,261.4844 L321.7188,264.2031 Q321.0938,263.625 320.5,263.3516 Q319.9063,263.0781 319.2813,263.0781 Q317.9375,263.0781 317.25,264.1484 Q316.5625,265.2188 316.5625,267.3125 Q316.5625,269.4063 317.25,270.4766 Q317.9375,271.5469 319.2813,271.5469 Q319.9063,271.5469 320.5,271.2734 Q321.0938,271 321.7188,270.4219 L321.7188,273.1406 Z "/><text fill="#000000" font-family="sans-serif" font-size="12" lengthAdjust="spacingAndGlyphs" textLength="39" x="339.25" y="271.6543">CBase</text><line style="stroke: #A80036; stroke-width: 1.5;" x1="184" x2="501" y1="283.5" y2="283.5"/><line style="stroke: #A80036; stroke-width: 1.5;" x1="184" x2="501" y1="291.5" y2="291.5"/><rect fill="#F24D5C" height="6" style="stroke: #C82930; stroke-width: 1.0;" width="6" x="191" y="300.4023"/><text fill="#000000" font-family="sans-serif" font-size="11" lengthAdjust="spacingAndGlyphs" textLength="293" x="203" y="305.7104">void constructor(ModelManager,string,string,string)</text><ellipse cx="194" cy="316.207" fill="#84BE84" rx="3" ry="3" style="stroke: #038048; stroke-width: 1.0;"/><text fill="#000000" font-family="sans-serif" font-size="11" lengthAdjust="spacingAndGlyphs" textLength="113" x="203" y="318.5151">string getIdentifier()</text><ellipse cx="194" cy="329.0117" fill="#84BE84" rx="3" ry="3" style="stroke: #038048; stroke-width: 1.0;"/><text fill="#000000" font-family="sans-serif" font-size="11" lengthAdjust="spacingAndGlyphs" textLength="188" x="203" y="331.3198">string getFullyQualifiedIdentifier()</text><ellipse cx="194" cy="341.8164" fill="#84BE84" rx="3" ry="3" style="stroke: #038048; stroke-width: 1.0;"/><text fill="#000000" font-family="sans-serif" font-size="11" lengthAdjust="spacingAndGlyphs" textLength="90" x="203" y="344.1245">string getType()</text><ellipse cx="194" cy="354.6211" fill="#84BE84" rx="3" ry="3" style="stroke: #038048; stroke-width: 1.0;"/><text fill="#000000" font-family="sans-serif" font-size="11" lengthAdjust="spacingAndGlyphs" textLength="165" x="203" y="356.9292">string getFullyQualifiedType()</text><ellipse cx="194" cy="367.4258" fill="#84BE84" rx="3" ry="3" style="stroke: #038048; stroke-width: 1.0;"/><text fill="#000000" font-family="sans-serif" font-size="11" lengthAdjust="spacingAndGlyphs" textLength="130" x="203" y="369.7339">string getNamespace()</text><!--class CRelationship--><rect fill="#FEFECE" filter="url(#ftuijsh)" height="60.8047" style="stroke: #A80036; stroke-width: 1.5;" width="319" x="6" y="59.5"/><ellipse cx="118.75" cy="75.5" fill="#ADD1B2" rx="11" ry="11" style="stroke: #A80036; stroke-width: 1.0;"/><path d="M121.7188,81.1406 Q121.1406,81.4375 120.5,81.5859 Q119.8594,81.7344 119.1563,81.7344 Q116.6563,81.7344 115.3359,80.0859 Q114.0156,78.4375 114.0156,75.3125 Q114.0156,72.1875 115.3359,70.5313 Q116.6563,68.875 119.1563,68.875 Q119.8594,68.875 120.5078,69.0313 Q121.1563,69.1875 121.7188,69.4844 L121.7188,72.2031 Q121.0938,71.625 120.5,71.3516 Q119.9063,71.0781 119.2813,71.0781 Q117.9375,71.0781 117.25,72.1484 Q116.5625,73.2188 116.5625,75.3125 Q116.5625,77.4063 117.25,78.4766 Q117.9375,79.5469 119.2813,79.5469 Q119.9063,79.5469 120.5,79.2734 Q121.0938,79 121.7188,78.4219 L121.7188,81.1406 Z "/><text fill="#000000" font-family="sans-serif" font-size="12" lengthAdjust="spacingAndGlyphs" textLength="85" x="139.25" y="79.6543">CRelationship</text><line style="stroke: #A80036; stroke-width: 1.5;" x1="7" x2="324" y1="91.5" y2="91.5"/><line style="stroke: #A80036; stroke-width: 1.5;" x1="7" x2="324" y1="99.5" y2="99.5"/><rect fill="#F24D5C" height="6" style="stroke: #C82930; stroke-width: 1.0;" width="6" x="14" y="108.4023"/><text fill="#000000" font-family="sans-serif" font-size="11" lengthAdjust="spacingAndGlyphs" textLength="293" x="26" y="113.7104">void constructor(ModelManager,string,string,string)</text><!--class CObject--><rect fill="#FEFECE" filter="url(#ftuijsh)" height="150.4375" style="stroke: #A80036; stroke-width: 1.5;" width="319" x="360" y="15"/><ellipse cx="491.25" cy="31" fill="#ADD1B2" rx="11" ry="11" style="stroke: #A80036; stroke-width: 1.0;"/><path d="M494.2188,36.6406 Q493.6406,36.9375 493,37.0859 Q492.3594,37.2344 491.6563,37.2344 Q489.1563,37.2344 487.8359,35.5859 Q486.5156,33.9375 486.5156,30.8125 Q486.5156,27.6875 487.8359,26.0313 Q489.1563,24.375 491.6563,24.375 Q492.3594,24.375 493.0078,24.5313 Q493.6563,24.6875 494.2188,24.9844 L494.2188,27.7031 Q493.5938,27.125 493,26.8516 Q492.4063,26.5781 491.7813,26.5781 Q490.4375,26.5781 489.75,27.6484 Q489.0625,28.7188 489.0625,30.8125 Q489.0625,32.9063 489.75,33.9766 Q490.4375,35.0469 491.7813,35.0469 Q492.4063,35.0469 493,34.7734 Q493.5938,34.5 494.2188,33.9219 L494.2188,36.6406 Z "/><text fill="#000000" font-family="sans-serif" font-size="12" lengthAdjust="spacingAndGlyphs" textLength="48" x="511.75" y="35.1543">CObject</text><line style="stroke: #A80036; stroke-width: 1.5;" x1="361" x2="678" y1="47" y2="47"/><line style="stroke: #A80036; stroke-width: 1.5;" x1="361" x2="678" y1="55" y2="55"/><rect fill="#F24D5C" height="6" style="stroke: #C82930; stroke-width: 1.0;" width="6" x="368" y="63.9023"/><text fill="#000000" font-family="sans-serif" font-size="11" lengthAdjust="spacingAndGlyphs" textLength="293" x="380" y="69.2104">void constructor(ModelManager,string,string,string)</text><ellipse cx="371" cy="79.707" fill="#84BE84" rx="3" ry="3" style="stroke: #038048; stroke-width: 1.0;"/><text fill="#000000" font-family="sans-serif" font-size="11" lengthAdjust="spacingAndGlyphs" textLength="180" x="380" y="82.0151">void setFieldValue(string,string)</text><rect fill="#F24D5C" height="6" style="stroke: #C82930; stroke-width: 1.0;" width="6" x="368" y="89.5117"/><text fill="#000000" font-family="sans-serif" font-size="11" lengthAdjust="spacingAndGlyphs" textLength="146" x="380" y="94.8198">void assignFieldDefaults()</text><rect fill="#F24D5C" height="6" style="stroke: #C82930; stroke-width: 1.0;" width="6" x="368" y="102.3164"/><text fill="#000000" font-family="sans-serif" font-size="11" lengthAdjust="spacingAndGlyphs" textLength="222" x="380" y="107.6245">ClassDeclaration getClassDeclaration()</text><rect fill="#F24D5C" height="6" style="stroke: #C82930; stroke-width: 1.0;" width="6" x="368" y="115.1211"/><text fill="#000000" font-family="sans-serif" font-size="11" lengthAdjust="spacingAndGlyphs" textLength="79" x="380" y="120.4292">void validate()</text><rect fill="#F24D5C" height="6" style="stroke: #C82930; stroke-width: 1.0;" width="6" x="368" y="127.9258"/><text fill="#000000" font-family="sans-serif" font-size="11" lengthAdjust="spacingAndGlyphs" textLength="178" x="380" y="133.2339">void validateField(string,Field,*)</text><rect fill="#F24D5C" height="6" style="stroke: #C82930; stroke-width: 1.0;" width="6" x="368" y="140.7305"/><text fill="#000000" font-family="sans-serif" font-size="11" lengthAdjust="spacingAndGlyphs" textLength="261" x="380" y="146.0386">void reportModelViolation(string,string,*,Field)</text><rect fill="#F24D5C" height="6" style="stroke: #C82930; stroke-width: 1.0;" width="6" x="368" y="153.5352"/><text fill="#000000" font-family="sans-serif" font-size="11" lengthAdjust="spacingAndGlyphs" textLength="252" x="380" y="158.8433">void reportMissingRequiredField(string,Field)</text><!--class BaseException--><rect fill="#FEFECE" filter="url(#ftuijsh)" height="60.8047" style="stroke: #A80036; stroke-width: 1.5;" width="159" x="714" y="283.5"/><ellipse cx="744.75" cy="299.5" fill="#ADD1B2" rx="11" ry="11" style="stroke: #A80036; stroke-width: 1.0;"/><path d="M747.7188,305.1406 Q747.1406,305.4375 746.5,305.5859 Q745.8594,305.7344 745.1563,305.7344 Q742.6563,305.7344 741.3359,304.0859 Q740.0156,302.4375 740.0156,299.3125 Q740.0156,296.1875 741.3359,294.5313 Q742.6563,292.875 745.1563,292.875 Q745.8594,292.875 746.5078,293.0313 Q747.1563,293.1875 747.7188,293.4844 L747.7188,296.2031 Q747.0938,295.625 746.5,295.3516 Q745.9063,295.0781 745.2813,295.0781 Q743.9375,295.0781 743.25,296.1484 Q742.5625,297.2188 742.5625,299.3125 Q742.5625,301.4063 743.25,302.4766 Q743.9375,303.5469 745.2813,303.5469 Q745.9063,303.5469 746.5,303.2734 Q747.0938,303 747.7188,302.4219 L747.7188,305.1406 Z "/><text fill="#000000" font-family="sans-serif" font-size="12" lengthAdjust="spacingAndGlyphs" textLength="92" x="762.25" y="303.6543">BaseException</text><line style="stroke: #A80036; stroke-width: 1.5;" x1="715" x2="872" y1="315.5" y2="315.5"/><line style="stroke: #A80036; stroke-width: 1.5;" x1="715" x2="872" y1="323.5" y2="323.5"/><ellipse cx="725" cy="335.4023" fill="#84BE84" rx="3" ry="3" style="stroke: #038048; stroke-width: 1.0;"/><text fill="#000000" font-family="sans-serif" font-size="11" lengthAdjust="spacingAndGlyphs" textLength="133" x="734" y="337.7104">void constructor(string)</text><!--class Error--><rect fill="#FEFECE" filter="url(#ftuijsh)" height="48" style="stroke: #A80036; stroke-width: 1.5;" width="63" x="762" y="456"/><ellipse cx="777" cy="472" fill="#ADD1B2" rx="11" ry="11" style="stroke: #A80036; stroke-width: 1.0;"/><path d="M779.9688,477.6406 Q779.3906,477.9375 778.75,478.0859 Q778.1094,478.2344 777.4063,478.2344 Q774.9063,478.2344 773.5859,476.5859 Q772.2656,474.9375 772.2656,471.8125 Q772.2656,468.6875 773.5859,467.0313 Q774.9063,465.375 777.4063,465.375 Q778.1094,465.375 778.7578,465.5313 Q779.4063,465.6875 779.9688,465.9844 L779.9688,468.7031 Q779.3438,468.125 778.75,467.8516 Q778.1563,467.5781 777.5313,467.5781 Q776.1875,467.5781 775.5,468.6484 Q774.8125,469.7188 774.8125,471.8125 Q774.8125,473.9063 775.5,474.9766 Q776.1875,476.0469 777.5313,476.0469 Q778.1563,476.0469 778.75,475.7734 Q779.3438,475.5 779.9688,474.9219 L779.9688,477.6406 Z "/><text fill="#000000" font-family="sans-serif" font-size="12" lengthAdjust="spacingAndGlyphs" textLength="31" x="791" y="476.1543">Error</text><line style="stroke: #A80036; stroke-width: 1.5;" x1="763" x2="824" y1="488" y2="488"/><line style="stroke: #A80036; stroke-width: 1.5;" x1="763" x2="824" y1="496" y2="496"/><!--class SecurityException--><rect fill="#FEFECE" filter="url(#ftuijsh)" height="60.8047" style="stroke: #A80036; stroke-width: 1.5;" width="159" x="714" y="59.5"/><ellipse cx="736.2" cy="75.5" fill="#ADD1B2" rx="11" ry="11" style="stroke: #A80036; stroke-width: 1.0;"/><path d="M739.1688,81.1406 Q738.5906,81.4375 737.95,81.5859 Q737.3094,81.7344 736.6063,81.7344 Q734.1063,81.7344 732.7859,80.0859 Q731.4656,78.4375 731.4656,75.3125 Q731.4656,72.1875 732.7859,70.5313 Q734.1063,68.875 736.6063,68.875 Q737.3094,68.875 737.9578,69.0313 Q738.6063,69.1875 739.1688,69.4844 L739.1688,72.2031 Q738.5438,71.625 737.95,71.3516 Q737.3563,71.0781 736.7313,71.0781 Q735.3875,71.0781 734.7,72.1484 Q734.0125,73.2188 734.0125,75.3125 Q734.0125,77.4063 734.7,78.4766 Q735.3875,79.5469 736.7313,79.5469 Q737.3563,79.5469 737.95,79.2734 Q738.5438,79 739.1688,78.4219 L739.1688,81.1406 Z "/><text fill="#000000" font-family="sans-serif" font-size="12" lengthAdjust="spacingAndGlyphs" textLength="111" x="751.8" y="79.6543">SecurityException</text><line style="stroke: #A80036; stroke-width: 1.5;" x1="715" x2="872" y1="91.5" y2="91.5"/><line style="stroke: #A80036; stroke-width: 1.5;" x1="715" x2="872" y1="99.5" y2="99.5"/><ellipse cx="725" cy="111.4023" fill="#84BE84" rx="3" ry="3" style="stroke: #038048; stroke-width: 1.0;"/><text fill="#000000" font-family="sans-serif" font-size="11" lengthAdjust="spacingAndGlyphs" textLength="133" x="734" y="113.7104">void constructor(string)</text><!--class globalize--><rect fill="#FEFECE" filter="url(#ftuijsh)" height="48" style="stroke: #A80036; stroke-width: 1.5;" width="86" x="908.25" y="66"/><ellipse cx="923.25" cy="82" fill="#DA70D6" rx="11" ry="11" style="stroke: #A80036; stroke-width: 1.0;"/><path d="M923.0469,77.6719 L923.0469,81.2969 L924.0469,81.2969 Q925.25,81.2969 925.7344,80.8906 Q926.2188,80.4844 926.2188,79.4844 Q926.2188,78.4844 925.7344,78.0781 Q925.25,77.6719 924.0469,77.6719 L923.0469,77.6719 Z M920.5938,75.6094 L923.9531,75.6094 Q926.5156,75.6094 927.6406,76.5234 Q928.7656,77.4375 928.7656,79.4844 Q928.7656,81.5313 927.6406,82.4453 Q926.5156,83.3594 923.9531,83.3594 L923.0469,83.3594 L923.0469,88 L920.5938,88 L920.5938,75.6094 Z "/><text fill="#000000" font-family="sans-serif" font-size="12" lengthAdjust="spacingAndGlyphs" textLength="54" x="937.25" y="86.1543">globalize</text><line style="stroke: #A80036; stroke-width: 1.5;" x1="909.25" x2="993.25" y1="98" y2="98"/><line style="stroke: #A80036; stroke-width: 1.5;" x1="909.25" x2="993.25" y1="106" y2="106"/><!--class Util--><rect fill="#FEFECE" filter="url(#ftuijsh)" height="99.2188" style="stroke: #A80036; stroke-width: 1.5;" width="391" x="1030" y="40.5"/><ellipse cx="1211.25" cy="56.5" fill="#ADD1B2" rx="11" ry="11" style="stroke: #A80036; stroke-width: 1.0;"/><path d="M1214.2188,62.1406 Q1213.6406,62.4375 1213,62.5859 Q1212.3594,62.7344 1211.6563,62.7344 Q1209.1563,62.7344 1207.8359,61.0859 Q1206.5156,59.4375 1206.5156,56.3125 Q1206.5156,53.1875 1207.8359,51.5313 Q1209.1563,49.875 1211.6563,49.875 Q1212.3594,49.875 1213.0078,50.0313 Q1213.6563,50.1875 1214.2188,50.4844 L1214.2188,53.2031 Q1213.5938,52.625 1213,52.3516 Q1212.4063,52.0781 1211.7813,52.0781 Q1210.4375,52.0781 1209.75,53.1484 Q1209.0625,54.2188 1209.0625,56.3125 Q1209.0625,58.4063 1209.75,59.4766 Q1210.4375,60.5469 1211.7813,60.5469 Q1212.4063,60.5469 1213,60.2734 Q1213.5938,60 1214.2188,59.4219 L1214.2188,62.1406 Z "/><text fill="#000000" font-family="sans-serif" font-size="12" lengthAdjust="spacingAndGlyphs" textLength="20" x="1231.75" y="60.6543">Util</text><line style="stroke: #A80036; stroke-width: 1.5;" x1="1031" x2="1420" y1="72.5" y2="72.5"/><line style="stroke: #A80036; stroke-width: 1.5;" x1="1031" x2="1420" y1="80.5" y2="80.5"/><ellipse cx="1041" cy="92.4023" fill="#84BE84" rx="3" ry="3" style="stroke: #038048; stroke-width: 1.0;"/><text fill="#000000" font-family="sans-serif" font-size="11" lengthAdjust="spacingAndGlyphs" textLength="203" x="1050" y="94.7104">void securityCheck(SecurityContext)</text><ellipse cx="1041" cy="105.207" fill="#84BE84" rx="3" ry="3" style="stroke: #038048; stroke-width: 1.0;"/><text fill="#000000" font-family="sans-serif" font-size="11" lengthAdjust="spacingAndGlyphs" textLength="323" x="1050" y="107.5151">Promise queryChainCode(SecurityContext,string,string[])</text><ellipse cx="1041" cy="118.0117" fill="#84BE84" rx="3" ry="3" style="stroke: #038048; stroke-width: 1.0;"/><text fill="#000000" font-family="sans-serif" font-size="11" lengthAdjust="spacingAndGlyphs" textLength="327" x="1050" y="120.3198">Promise invokeChainCode(SecurityContext,string,string[])</text><ellipse cx="1041" cy="130.8164" fill="#84BE84" rx="3" ry="3" style="stroke: #038048; stroke-width: 1.0;"/><text fill="#000000" font-family="sans-serif" font-size="11" lengthAdjust="spacingAndGlyphs" textLength="365" x="1050" y="133.1245">Promise deployChainCode(SecurityContext,string,string,string[])</text><!--class Registry--><rect fill="#FEFECE" filter="url(#ftuijsh)" height="163.2422" style="stroke: #A80036; stroke-width: 1.5;" width="352" x="1547.75" y="232.5"/><ellipse cx="1694.5" cy="248.5" fill="#ADD1B2" rx="11" ry="11" style="stroke: #A80036; stroke-width: 1.0;"/><path d="M1697.4688,254.1406 Q1696.8906,254.4375 1696.25,254.5859 Q1695.6094,254.7344 1694.9063,254.7344 Q1692.4063,254.7344 1691.0859,253.0859 Q1689.7656,251.4375 1689.7656,248.3125 Q1689.7656,245.1875 1691.0859,243.5313 Q1692.4063,241.875 1694.9063,241.875 Q1695.6094,241.875 1696.2578,242.0313 Q1696.9063,242.1875 1697.4688,242.4844 L1697.4688,245.2031 Q1696.8438,244.625 1696.25,244.3516 Q1695.6563,244.0781 1695.0313,244.0781 Q1693.6875,244.0781 1693,245.1484 Q1692.3125,246.2188 1692.3125,248.3125 Q1692.3125,250.4063 1693,251.4766 Q1693.6875,252.5469 1695.0313,252.5469 Q1695.6563,252.5469 1696.25,252.2734 Q1696.8438,252 1697.4688,251.4219 L1697.4688,254.1406 Z "/><text fill="#000000" font-family="sans-serif" font-size="12" lengthAdjust="spacingAndGlyphs" textLength="50" x="1715" y="252.6543">Registry</text><line style="stroke: #A80036; stroke-width: 1.5;" x1="1548.75" x2="1898.75" y1="264.5" y2="264.5"/><line style="stroke: #A80036; stroke-width: 1.5;" x1="1548.75" x2="1898.75" y1="272.5" y2="272.5"/><ellipse cx="1558.75" cy="284.4023" fill="#84BE84" rx="3" ry="3" style="stroke: #038048; stroke-width: 1.0;"/><text fill="#000000" font-family="sans-serif" font-size="11" lengthAdjust="spacingAndGlyphs" textLength="273" x="1567.75" y="286.7104">Promise getAllRegistries(SecurityContext,string)</text><ellipse cx="1558.75" cy="297.207" fill="#84BE84" rx="3" ry="3" style="stroke: #038048; stroke-width: 1.0;"/><text fill="#000000" font-family="sans-serif" font-size="11" lengthAdjust="spacingAndGlyphs" textLength="286" x="1567.75" y="299.5151">Promise getRegistry(SecurityContext,string,string)</text><ellipse cx="1558.75" cy="310.0117" fill="#84BE84" rx="3" ry="3" style="stroke: #038048; stroke-width: 1.0;"/><text fill="#000000" font-family="sans-serif" font-size="11" lengthAdjust="spacingAndGlyphs" textLength="326" x="1567.75" y="312.3198">Promise addRegistry(SecurityContext,string,string,string)</text><ellipse cx="1558.75" cy="322.8164" fill="#84BE84" rx="3" ry="3" style="stroke: #038048; stroke-width: 1.0;"/><text fill="#000000" font-family="sans-serif" font-size="11" lengthAdjust="spacingAndGlyphs" textLength="207" x="1567.75" y="325.1245">void constructor(string,string,string)</text><ellipse cx="1558.75" cy="335.6211" fill="#84BE84" rx="3" ry="3" style="stroke: #038048; stroke-width: 1.0;"/><text fill="#000000" font-family="sans-serif" font-size="11" lengthAdjust="spacingAndGlyphs" textLength="243" x="1567.75" y="337.9292">Promise add(SecurityContext,string,string)</text><ellipse cx="1558.75" cy="348.4258" fill="#84BE84" rx="3" ry="3" style="stroke: #038048; stroke-width: 1.0;"/><text fill="#000000" font-family="sans-serif" font-size="11" lengthAdjust="spacingAndGlyphs" textLength="261" x="1567.75" y="350.7339">Promise update(SecurityContext,string,string)</text><ellipse cx="1558.75" cy="361.2305" fill="#84BE84" rx="3" ry="3" style="stroke: #038048; stroke-width: 1.0;"/><text fill="#000000" font-family="sans-serif" font-size="11" lengthAdjust="spacingAndGlyphs" textLength="228" x="1567.75" y="363.5386">Promise remove(SecurityContext,string)</text><ellipse cx="1558.75" cy="374.0352" fill="#84BE84" rx="3" ry="3" style="stroke: #038048; stroke-width: 1.0;"/><text fill="#000000" font-family="sans-serif" font-size="11" lengthAdjust="spacingAndGlyphs" textLength="179" x="1567.75" y="376.3433">Promise getAll(SecurityContext)</text><ellipse cx="1558.75" cy="386.8398" fill="#84BE84" rx="3" ry="3" style="stroke: #038048; stroke-width: 1.0;"/><text fill="#000000" font-family="sans-serif" font-size="11" lengthAdjust="spacingAndGlyphs" textLength="203" x="1567.75" y="389.1479">Promise get(SecurityContext,string)</text><!--class AssetRegistry--><rect fill="#FEFECE" filter="url(#ftuijsh)" height="163.2422" style="stroke: #A80036; stroke-width: 1.5;" width="535" x="1456" y="8.5"/><ellipse cx="1676.75" cy="24.5" fill="#ADD1B2" rx="11" ry="11" style="stroke: #A80036; stroke-width: 1.0;"/><path d="M1679.7188,30.1406 Q1679.1406,30.4375 1678.5,30.5859 Q1677.8594,30.7344 1677.1563,30.7344 Q1674.6563,30.7344 1673.3359,29.0859 Q1672.0156,27.4375 1672.0156,24.3125 Q1672.0156,21.1875 1673.3359,19.5313 Q1674.6563,17.875 1677.1563,17.875 Q1677.8594,17.875 1678.5078,18.0313 Q1679.1563,18.1875 1679.7188,18.4844 L1679.7188,21.2031 Q1679.0938,20.625 1678.5,20.3516 Q1677.9063,20.0781 1677.2813,20.0781 Q1675.9375,20.0781 1675.25,21.1484 Q1674.5625,22.2188 1674.5625,24.3125 Q1674.5625,26.4063 1675.25,27.4766 Q1675.9375,28.5469 1677.2813,28.5469 Q1677.9063,28.5469 1678.5,28.2734 Q1679.0938,28 1679.7188,27.4219 L1679.7188,30.1406 Z "/><text fill="#000000" font-family="sans-serif" font-size="12" lengthAdjust="spacingAndGlyphs" textLength="85" x="1697.25" y="28.6543">AssetRegistry</text><line style="stroke: #A80036; stroke-width: 1.5;" x1="1457" x2="1990" y1="40.5" y2="40.5"/><line style="stroke: #A80036; stroke-width: 1.5;" x1="1457" x2="1990" y1="48.5" y2="48.5"/><ellipse cx="1467" cy="60.4023" fill="#84BE84" rx="3" ry="3" style="stroke: #038048; stroke-width: 1.0;"/><text fill="#000000" font-family="sans-serif" font-size="11" lengthAdjust="spacingAndGlyphs" textLength="456" x="1476" y="62.7104">Promise getAllAssetRegistries(SecurityContext,ModelManager,Factory,Serializer)</text><ellipse cx="1467" cy="73.207" fill="#84BE84" rx="3" ry="3" style="stroke: #038048; stroke-width: 1.0;"/><text fill="#000000" font-family="sans-serif" font-size="11" lengthAdjust="spacingAndGlyphs" textLength="469" x="1476" y="75.5151">Promise getAssetRegistry(SecurityContext,string,ModelManager,Factory,Serializer)</text><ellipse cx="1467" cy="86.0117" fill="#84BE84" rx="3" ry="3" style="stroke: #038048; stroke-width: 1.0;"/><text fill="#000000" font-family="sans-serif" font-size="11" lengthAdjust="spacingAndGlyphs" textLength="509" x="1476" y="88.3198">Promise addAssetRegistry(SecurityContext,string,string,ModelManager,Factory,Serializer)</text><ellipse cx="1467" cy="98.8164" fill="#84BE84" rx="3" ry="3" style="stroke: #038048; stroke-width: 1.0;"/><text fill="#000000" font-family="sans-serif" font-size="11" lengthAdjust="spacingAndGlyphs" textLength="358" x="1476" y="101.1245">void constructor(string,string,ModelManager,Factory,Serializer)</text><ellipse cx="1467" cy="111.6211" fill="#84BE84" rx="3" ry="3" style="stroke: #038048; stroke-width: 1.0;"/><text fill="#000000" font-family="sans-serif" font-size="11" lengthAdjust="spacingAndGlyphs" textLength="217" x="1476" y="113.9292">Promise add(SecurityContext,CObject)</text><ellipse cx="1467" cy="124.4258" fill="#84BE84" rx="3" ry="3" style="stroke: #038048; stroke-width: 1.0;"/><text fill="#000000" font-family="sans-serif" font-size="11" lengthAdjust="spacingAndGlyphs" textLength="235" x="1476" y="126.7339">Promise update(SecurityContext,CObject)</text><ellipse cx="1467" cy="137.2305" fill="#84BE84" rx="3" ry="3" style="stroke: #038048; stroke-width: 1.0;"/><text fill="#000000" font-family="sans-serif" font-size="11" lengthAdjust="spacingAndGlyphs" textLength="284" x="1476" y="139.5386">Promise remove(SecurityContext,(CObject|string))</text><ellipse cx="1467" cy="150.0352" fill="#84BE84" rx="3" ry="3" style="stroke: #038048; stroke-width: 1.0;"/><text fill="#000000" font-family="sans-serif" font-size="11" lengthAdjust="spacingAndGlyphs" textLength="179" x="1476" y="152.3433">Promise getAll(SecurityContext)</text><ellipse cx="1467" cy="162.8398" fill="#84BE84" rx="3" ry="3" style="stroke: #038048; stroke-width: 1.0;"/><text fill="#000000" font-family="sans-serif" font-size="11" lengthAdjust="spacingAndGlyphs" textLength="203" x="1476" y="165.1479">Promise get(SecurityContext,string)</text><path d="M189.121,120.94 C212.478,150.235 249.04,196.092 280.58,235.652 " fill="none" style="stroke: #A80036; stroke-width: 1.0;"/><polygon fill="none" points="286.063,231.299,293.058,251.301,275.116,240.027,286.063,231.299" style="stroke: #A80036; stroke-width: 1.0;"/><path d="M460.065,165.231 C442.025,187.858 422.153,212.783 403.951,235.613 " fill="none" style="stroke: #A80036; stroke-width: 1.0;"/><polygon fill="none" points="409.293,240.141,391.351,251.415,398.346,231.413,409.293,240.141" style="stroke: #A80036; stroke-width: 1.0;"/><path d="M793.25,344.699 C793.25,370.149 793.25,407.1359 793.25,435.8532 " fill="none" style="stroke: #A80036; stroke-width: 1.0;"/><polygon fill="none" points="800.25,435.8737,793.25,455.8737,786.25,435.8736,800.25,435.8737" style="stroke: #A80036; stroke-width: 1.0;"/><path d="M793.25,120.94 C793.25,157.371 793.25,219.415 793.25,263.109 " fill="none" style="stroke: #A80036; stroke-width: 1.0;"/><polygon fill="none" points="800.25,263.181,793.25,283.181,786.25,263.181,800.25,263.181" style="stroke: #A80036; stroke-width: 1.0;"/><path d="M1723.25,171.775 C1723.25,184.865 1723.25,198.562 1723.25,212.059 " fill="none" style="stroke: #A80036; stroke-width: 1.0;"/><polygon fill="none" points="1730.25,212.285,1723.25,232.285,1716.25,212.285,1730.25,212.285" style="stroke: #A80036; stroke-width: 1.0;"/></g></svg>