<?xml version="1.0" encoding="UTF-8" standalone="no"?><svg xmlns="http://www.w3.org/2000/svg" xmlns:xlink="http://www.w3.org/1999/xlink" contentScriptType="application/ecmascript" contentStyleType="text/css" height="142px" preserveAspectRatio="none" style="width:334px;height:142px;" version="1.1" viewBox="0 0 334 142" width="334px" zoomAndPan="magnify"><defs><filter height="300%" id="f6o8jts" width="300%" x="-1" y="-1"><feGaussianBlur result="blurOut" stdDeviation="2.0"/><feColorMatrix in="blurOut" result="blurOut2" type="matrix" values="0 0 0 0 0 0 0 0 0 0 0 0 0 0 0 0 0 0 .4 0"/><feOffset dx="4.0" dy="4.0" in="blurOut2" result="blurOut3"/><feBlend in="SourceGraphic" in2="blurOut3" mode="normal"/></filter></defs><g><!--class CBase--><rect fill="#FEFECE" filter="url(#f6o8jts)" height="124.8281" style="stroke: #A80036; stroke-width: 1.5;" width="319" x="6" y="8.5"/><ellipse cx="141.75" cy="24.5" fill="#ADD1B2" rx="11" ry="11" style="stroke: #A80036; stroke-width: 1.0;"/><path d="M144.7188,30.1406 Q144.1406,30.4375 143.5,30.5859 Q142.8594,30.7344 142.1563,30.7344 Q139.6563,30.7344 138.3359,29.0859 Q137.0156,27.4375 137.0156,24.3125 Q137.0156,21.1875 138.3359,19.5313 Q139.6563,17.875 142.1563,17.875 Q142.8594,17.875 143.5078,18.0313 Q144.1563,18.1875 144.7188,18.4844 L144.7188,21.2031 Q144.0938,20.625 143.5,20.3516 Q142.9063,20.0781 142.2813,20.0781 Q140.9375,20.0781 140.25,21.1484 Q139.5625,22.2188 139.5625,24.3125 Q139.5625,26.4063 140.25,27.4766 Q140.9375,28.5469 142.2813,28.5469 Q142.9063,28.5469 143.5,28.2734 Q144.0938,28 144.7188,27.4219 L144.7188,30.1406 Z "/><text fill="#000000" font-family="sans-serif" font-size="12" lengthAdjust="spacingAndGlyphs" textLength="39" x="162.25" y="28.6543">CBase</text><line style="stroke: #A80036; stroke-width: 1.5;" x1="7" x2="324" y1="40.5" y2="40.5"/><line style="stroke: #A80036; stroke-width: 1.5;" x1="7" x2="324" y1="48.5" y2="48.5"/><rect fill="#F24D5C" height="6" style="stroke: #C82930; stroke-width: 1.0;" width="6" x="14" y="57.4023"/><text fill="#000000" font-family="sans-serif" font-size="11" lengthAdjust="spacingAndGlyphs" textLength="293" x="26" y="62.7104">void constructor(ModelManager,string,string,string)</text><ellipse cx="17" cy="73.207" fill="#84BE84" rx="3" ry="3" style="stroke: #038048; stroke-width: 1.0;"/><text fill="#000000" font-family="sans-serif" font-size="11" lengthAdjust="spacingAndGlyphs" textLength="113" x="26" y="75.5151">string getIdentifier()</text><ellipse cx="17" cy="86.0117" fill="#84BE84" rx="3" ry="3" style="stroke: #038048; stroke-width: 1.0;"/><text fill="#000000" font-family="sans-serif" font-size="11" lengthAdjust="spacingAndGlyphs" textLength="188" x="26" y="88.3198">string getFullyQualifiedIdentifier()</text><ellipse cx="17" cy="98.8164" fill="#84BE84" rx="3" ry="3" style="stroke: #038048; stroke-width: 1.0;"/><text fill="#000000" font-family="sans-serif" font-size="11" lengthAdjust="spacingAndGlyphs" textLength="90" x="26" y="101.1245">string getType()</text><ellipse cx="17" cy="111.6211" fill="#84BE84" rx="3" ry="3" style="stroke: #038048; stroke-width: 1.0;"/><text fill="#000000" font-family="sans-serif" font-size="11" lengthAdjust="spacingAndGlyphs" textLength="165" x="26" y="113.9292">string getFullyQualifiedType()</text><ellipse cx="17" cy="124.4258" fill="#84BE84" rx="3" ry="3" style="stroke: #038048; stroke-width: 1.0;"/><text fill="#000000" font-family="sans-serif" font-size="11" lengthAdjust="spacingAndGlyphs" textLength="130" x="26" y="126.7339">string getNamespace()</text></g></svg>