<?xml version="1.0" encoding="UTF-8" standalone="no"?><svg xmlns="http://www.w3.org/2000/svg" xmlns:xlink="http://www.w3.org/1999/xlink" contentScriptType="application/ecmascript" contentStyleType="text/css" height="428px" preserveAspectRatio="none" style="width:825px;height:428px;" version="1.1" viewBox="0 0 825 428" width="825px" zoomAndPan="magnify"><defs><filter height="300%" id="fiywkk3" width="300%" x="-1" y="-1"><feGaussianBlur result="blurOut" stdDeviation="2.0"/><feColorMatrix in="blurOut" result="blurOut2" type="matrix" values="0 0 0 0 0 0 0 0 0 0 0 0 0 0 0 0 0 0 .4 0"/><feOffset dx="4.0" dy="4.0" in="blurOut2" result="blurOut3"/><feBlend in="SourceGraphic" in2="blurOut3" mode="normal"/></filter></defs><g><!--class Property--><rect fill="#FEFECE" filter="url(#fiywkk3)" height="137.6328" style="stroke: #A80036; stroke-width: 1.5;" width="201" x="84.75" y="282"/><ellipse cx="154.5" cy="298" fill="#ADD1B2" rx="11" ry="11" style="stroke: #A80036; stroke-width: 1.0;"/><path d="M157.4688,303.6406 Q156.8906,303.9375 156.25,304.0859 Q155.6094,304.2344 154.9063,304.2344 Q152.4063,304.2344 151.0859,302.5859 Q149.7656,300.9375 149.7656,297.8125 Q149.7656,294.6875 151.0859,293.0313 Q152.4063,291.375 154.9063,291.375 Q155.6094,291.375 156.2578,291.5313 Q156.9063,291.6875 157.4688,291.9844 L157.4688,294.7031 Q156.8438,294.125 156.25,293.8516 Q155.6563,293.5781 155.0313,293.5781 Q153.6875,293.5781 153,294.6484 Q152.3125,295.7188 152.3125,297.8125 Q152.3125,299.9063 153,300.9766 Q153.6875,302.0469 155.0313,302.0469 Q155.6563,302.0469 156.25,301.7734 Q156.8438,301.5 157.4688,300.9219 L157.4688,303.6406 Z "/><text fill="#000000" font-family="sans-serif" font-size="12" lengthAdjust="spacingAndGlyphs" textLength="53" x="175" y="302.1543">Property</text><line style="stroke: #A80036; stroke-width: 1.5;" x1="85.75" x2="284.75" y1="314" y2="314"/><line style="stroke: #A80036; stroke-width: 1.5;" x1="85.75" x2="284.75" y1="322" y2="322"/><ellipse cx="95.75" cy="333.9023" fill="#84BE84" rx="3" ry="3" style="stroke: #038048; stroke-width: 1.0;"/><text fill="#000000" font-family="sans-serif" font-size="11" lengthAdjust="spacingAndGlyphs" textLength="136" x="104.75" y="336.2104">void constructor(Object)</text><rect fill="#F24D5C" height="6" style="stroke: #C82930; stroke-width: 1.0;" width="6" x="92.75" y="343.707"/><text fill="#000000" font-family="sans-serif" font-size="11" lengthAdjust="spacingAndGlyphs" textLength="161" x="104.75" y="349.0151">Object accept(Object,Object)</text><rect fill="#F24D5C" height="6" style="stroke: #C82930; stroke-width: 1.0;" width="6" x="92.75" y="356.5117"/><text fill="#000000" font-family="sans-serif" font-size="11" lengthAdjust="spacingAndGlyphs" textLength="81" x="104.75" y="361.8198">void process()</text><rect fill="#F24D5C" height="6" style="stroke: #C82930; stroke-width: 1.0;" width="6" x="92.75" y="369.3164"/><text fill="#000000" font-family="sans-serif" font-size="11" lengthAdjust="spacingAndGlyphs" textLength="175" x="104.75" y="374.6245">void validate(ClassDeclaration)</text><ellipse cx="95.75" cy="385.1211" fill="#84BE84" rx="3" ry="3" style="stroke: #038048; stroke-width: 1.0;"/><text fill="#000000" font-family="sans-serif" font-size="11" lengthAdjust="spacingAndGlyphs" textLength="96" x="104.75" y="387.4292">string getName()</text><ellipse cx="95.75" cy="397.9258" fill="#84BE84" rx="3" ry="3" style="stroke: #038048; stroke-width: 1.0;"/><text fill="#000000" font-family="sans-serif" font-size="11" lengthAdjust="spacingAndGlyphs" textLength="90" x="104.75" y="400.2339">string getType()</text><ellipse cx="95.75" cy="410.7305" fill="#84BE84" rx="3" ry="3" style="stroke: #038048; stroke-width: 1.0;"/><text fill="#000000" font-family="sans-serif" font-size="11" lengthAdjust="spacingAndGlyphs" textLength="97" x="104.75" y="413.0386">boolean isArray()</text><!--class Field--><rect fill="#FEFECE" filter="url(#fiywkk3)" height="112.0234" style="stroke: #A80036; stroke-width: 1.5;" width="162" x="6" y="59"/><ellipse cx="68.25" cy="75" fill="#ADD1B2" rx="11" ry="11" style="stroke: #A80036; stroke-width: 1.0;"/><path d="M71.2188,80.6406 Q70.6406,80.9375 70,81.0859 Q69.3594,81.2344 68.6563,81.2344 Q66.1563,81.2344 64.8359,79.5859 Q63.5156,77.9375 63.5156,74.8125 Q63.5156,71.6875 64.8359,70.0313 Q66.1563,68.375 68.6563,68.375 Q69.3594,68.375 70.0078,68.5313 Q70.6563,68.6875 71.2188,68.9844 L71.2188,71.7031 Q70.5938,71.125 70,70.8516 Q69.4063,70.5781 68.7813,70.5781 Q67.4375,70.5781 66.75,71.6484 Q66.0625,72.7188 66.0625,74.8125 Q66.0625,76.9063 66.75,77.9766 Q67.4375,79.0469 68.7813,79.0469 Q69.4063,79.0469 70,78.7734 Q70.5938,78.5 71.2188,77.9219 L71.2188,80.6406 Z "/><text fill="#000000" font-family="sans-serif" font-size="12" lengthAdjust="spacingAndGlyphs" textLength="29" x="88.75" y="79.1543">Field</text><line style="stroke: #A80036; stroke-width: 1.5;" x1="7" x2="167" y1="91" y2="91"/><line style="stroke: #A80036; stroke-width: 1.5;" x1="7" x2="167" y1="99" y2="99"/><ellipse cx="17" cy="110.9023" fill="#84BE84" rx="3" ry="3" style="stroke: #038048; stroke-width: 1.0;"/><text fill="#000000" font-family="sans-serif" font-size="11" lengthAdjust="spacingAndGlyphs" textLength="136" x="26" y="113.2104">void constructor(Object)</text><rect fill="#F24D5C" height="6" style="stroke: #C82930; stroke-width: 1.0;" width="6" x="14" y="120.707"/><text fill="#000000" font-family="sans-serif" font-size="11" lengthAdjust="spacingAndGlyphs" textLength="81" x="26" y="126.0151">void process()</text><ellipse cx="17" cy="136.5117" fill="#84BE84" rx="3" ry="3" style="stroke: #038048; stroke-width: 1.0;"/><text fill="#000000" font-family="sans-serif" font-size="11" lengthAdjust="spacingAndGlyphs" textLength="113" x="26" y="138.8198">string getValidator()</text><ellipse cx="17" cy="149.3164" fill="#84BE84" rx="3" ry="3" style="stroke: #038048; stroke-width: 1.0;"/><text fill="#000000" font-family="sans-serif" font-size="11" lengthAdjust="spacingAndGlyphs" textLength="114" x="26" y="151.6245">boolean isOptional()</text><ellipse cx="17" cy="162.1211" fill="#84BE84" rx="3" ry="3" style="stroke: #038048; stroke-width: 1.0;"/><text fill="#000000" font-family="sans-serif" font-size="11" lengthAdjust="spacingAndGlyphs" textLength="134" x="26" y="164.4292">string getDefaultValue()</text><!--class Relationship--><rect fill="#FEFECE" filter="url(#fiywkk3)" height="60.8047" style="stroke: #A80036; stroke-width: 1.5;" width="162" x="203" y="84.5"/><ellipse cx="241.85" cy="100.5" fill="#ADD1B2" rx="11" ry="11" style="stroke: #A80036; stroke-width: 1.0;"/><path d="M244.8188,106.1406 Q244.2406,106.4375 243.6,106.5859 Q242.9594,106.7344 242.2563,106.7344 Q239.7563,106.7344 238.4359,105.0859 Q237.1156,103.4375 237.1156,100.3125 Q237.1156,97.1875 238.4359,95.5313 Q239.7563,93.875 242.2563,93.875 Q242.9594,93.875 243.6078,94.0313 Q244.2563,94.1875 244.8188,94.4844 L244.8188,97.2031 Q244.1938,96.625 243.6,96.3516 Q243.0063,96.0781 242.3813,96.0781 Q241.0375,96.0781 240.35,97.1484 Q239.6625,98.2188 239.6625,100.3125 Q239.6625,102.4063 240.35,103.4766 Q241.0375,104.5469 242.3813,104.5469 Q243.0063,104.5469 243.6,104.2734 Q244.1938,104 244.8188,103.4219 L244.8188,106.1406 Z "/><text fill="#000000" font-family="sans-serif" font-size="12" lengthAdjust="spacingAndGlyphs" textLength="77" x="261.15" y="104.6543">Relationship</text><line style="stroke: #A80036; stroke-width: 1.5;" x1="204" x2="364" y1="116.5" y2="116.5"/><line style="stroke: #A80036; stroke-width: 1.5;" x1="204" x2="364" y1="124.5" y2="124.5"/><ellipse cx="214" cy="136.4023" fill="#84BE84" rx="3" ry="3" style="stroke: #038048; stroke-width: 1.0;"/><text fill="#000000" font-family="sans-serif" font-size="11" lengthAdjust="spacingAndGlyphs" textLength="136" x="223" y="138.7104">void constructor(Object)</text><!--class IllegalModelException--><rect fill="#FEFECE" filter="url(#fiywkk3)" height="60.8047" style="stroke: #A80036; stroke-width: 1.5;" width="166" x="400" y="84.5"/><ellipse cx="415" cy="100.5" fill="#ADD1B2" rx="11" ry="11" style="stroke: #A80036; stroke-width: 1.0;"/><path d="M417.9688,106.1406 Q417.3906,106.4375 416.75,106.5859 Q416.1094,106.7344 415.4063,106.7344 Q412.9063,106.7344 411.5859,105.0859 Q410.2656,103.4375 410.2656,100.3125 Q410.2656,97.1875 411.5859,95.5313 Q412.9063,93.875 415.4063,93.875 Q416.1094,93.875 416.7578,94.0313 Q417.4063,94.1875 417.9688,94.4844 L417.9688,97.2031 Q417.3438,96.625 416.75,96.3516 Q416.1563,96.0781 415.5313,96.0781 Q414.1875,96.0781 413.5,97.1484 Q412.8125,98.2188 412.8125,100.3125 Q412.8125,102.4063 413.5,103.4766 Q414.1875,104.5469 415.5313,104.5469 Q416.1563,104.5469 416.75,104.2734 Q417.3438,104 417.9688,103.4219 L417.9688,106.1406 Z "/><text fill="#000000" font-family="sans-serif" font-size="12" lengthAdjust="spacingAndGlyphs" textLength="134" x="429" y="104.6543">IllegalModelException</text><line style="stroke: #A80036; stroke-width: 1.5;" x1="401" x2="565" y1="116.5" y2="116.5"/><line style="stroke: #A80036; stroke-width: 1.5;" x1="401" x2="565" y1="124.5" y2="124.5"/><ellipse cx="411" cy="136.4023" fill="#84BE84" rx="3" ry="3" style="stroke: #038048; stroke-width: 1.0;"/><text fill="#000000" font-family="sans-serif" font-size="11" lengthAdjust="spacingAndGlyphs" textLength="133" x="420" y="138.7104">void constructor(string)</text><!--class BaseException--><rect fill="#FEFECE" filter="url(#fiywkk3)" height="48" style="stroke: #A80036; stroke-width: 1.5;" width="124" x="421.5" y="327"/><ellipse cx="436.5" cy="343" fill="#ADD1B2" rx="11" ry="11" style="stroke: #A80036; stroke-width: 1.0;"/><path d="M439.4688,348.6406 Q438.8906,348.9375 438.25,349.0859 Q437.6094,349.2344 436.9063,349.2344 Q434.4063,349.2344 433.0859,347.5859 Q431.7656,345.9375 431.7656,342.8125 Q431.7656,339.6875 433.0859,338.0313 Q434.4063,336.375 436.9063,336.375 Q437.6094,336.375 438.2578,336.5313 Q438.9063,336.6875 439.4688,336.9844 L439.4688,339.7031 Q438.8438,339.125 438.25,338.8516 Q437.6563,338.5781 437.0313,338.5781 Q435.6875,338.5781 435,339.6484 Q434.3125,340.7188 434.3125,342.8125 Q434.3125,344.9063 435,345.9766 Q435.6875,347.0469 437.0313,347.0469 Q437.6563,347.0469 438.25,346.7734 Q438.8438,346.5 439.4688,345.9219 L439.4688,348.6406 Z "/><text fill="#000000" font-family="sans-serif" font-size="12" lengthAdjust="spacingAndGlyphs" textLength="92" x="450.5" y="347.1543">BaseException</text><line style="stroke: #A80036; stroke-width: 1.5;" x1="422.5" x2="544.5" y1="359" y2="359"/><line style="stroke: #A80036; stroke-width: 1.5;" x1="422.5" x2="544.5" y1="367" y2="367"/><!--class ClassDeclaration--><rect fill="#FEFECE" filter="url(#fiywkk3)" height="214.4609" style="stroke: #A80036; stroke-width: 1.5;" width="215" x="601.75" y="8"/><ellipse cx="652.5" cy="24" fill="#ADD1B2" rx="11" ry="11" style="stroke: #A80036; stroke-width: 1.0;"/><path d="M655.4688,29.6406 Q654.8906,29.9375 654.25,30.0859 Q653.6094,30.2344 652.9063,30.2344 Q650.4063,30.2344 649.0859,28.5859 Q647.7656,26.9375 647.7656,23.8125 Q647.7656,20.6875 649.0859,19.0313 Q650.4063,17.375 652.9063,17.375 Q653.6094,17.375 654.2578,17.5313 Q654.9063,17.6875 655.4688,17.9844 L655.4688,20.7031 Q654.8438,20.125 654.25,19.8516 Q653.6563,19.5781 653.0313,19.5781 Q651.6875,19.5781 651,20.6484 Q650.3125,21.7188 650.3125,23.8125 Q650.3125,25.9063 651,26.9766 Q651.6875,28.0469 653.0313,28.0469 Q653.6563,28.0469 654.25,27.7734 Q654.8438,27.5 655.4688,26.9219 L655.4688,29.6406 Z "/><text fill="#000000" font-family="sans-serif" font-size="12" lengthAdjust="spacingAndGlyphs" textLength="105" x="673" y="28.1543">ClassDeclaration</text><line style="stroke: #A80036; stroke-width: 1.5;" x1="602.75" x2="815.75" y1="40" y2="40"/><line style="stroke: #A80036; stroke-width: 1.5;" x1="602.75" x2="815.75" y1="48" y2="48"/><ellipse cx="612.75" cy="59.9023" fill="#84BE84" rx="3" ry="3" style="stroke: #038048; stroke-width: 1.0;"/><text fill="#000000" font-family="sans-serif" font-size="11" lengthAdjust="spacingAndGlyphs" textLength="189" x="621.75" y="62.2104">void constructor(ModelFile,string)</text><rect fill="#F24D5C" height="6" style="stroke: #C82930; stroke-width: 1.0;" width="6" x="609.75" y="69.707"/><text fill="#000000" font-family="sans-serif" font-size="11" lengthAdjust="spacingAndGlyphs" textLength="161" x="621.75" y="75.0151">Object accept(Object,Object)</text><ellipse cx="612.75" cy="85.5117" fill="#84BE84" rx="3" ry="3" style="stroke: #038048; stroke-width: 1.0;"/><text fill="#000000" font-family="sans-serif" font-size="11" lengthAdjust="spacingAndGlyphs" textLength="134" x="621.75" y="87.8198">ModelFile getModelFile()</text><rect fill="#F24D5C" height="6" style="stroke: #C82930; stroke-width: 1.0;" width="6" x="609.75" y="95.3164"/><text fill="#000000" font-family="sans-serif" font-size="11" lengthAdjust="spacingAndGlyphs" textLength="81" x="621.75" y="100.6245">void process()</text><rect fill="#F24D5C" height="6" style="stroke: #C82930; stroke-width: 1.0;" width="6" x="609.75" y="108.1211"/><text fill="#000000" font-family="sans-serif" font-size="11" lengthAdjust="spacingAndGlyphs" textLength="79" x="621.75" y="113.4292">void validate()</text><ellipse cx="612.75" cy="123.9258" fill="#84BE84" rx="3" ry="3" style="stroke: #038048; stroke-width: 1.0;"/><text fill="#000000" font-family="sans-serif" font-size="11" lengthAdjust="spacingAndGlyphs" textLength="96" x="621.75" y="126.2339">string getName()</text><ellipse cx="612.75" cy="136.7305" fill="#84BE84" rx="3" ry="3" style="stroke: #038048; stroke-width: 1.0;"/><text fill="#000000" font-family="sans-serif" font-size="11" lengthAdjust="spacingAndGlyphs" textLength="171" x="621.75" y="139.0386">string getFullyQualifiedName()</text><ellipse cx="612.75" cy="149.5352" fill="#84BE84" rx="3" ry="3" style="stroke: #038048; stroke-width: 1.0;"/><text fill="#000000" font-family="sans-serif" font-size="11" lengthAdjust="spacingAndGlyphs" textLength="172" x="621.75" y="151.8433">string getIdentifierFieldName()</text><ellipse cx="612.75" cy="162.3398" fill="#84BE84" rx="3" ry="3" style="stroke: #038048; stroke-width: 1.0;"/><text fill="#000000" font-family="sans-serif" font-size="11" lengthAdjust="spacingAndGlyphs" textLength="140" x="621.75" y="164.6479">Field getOwnField(string)</text><ellipse cx="612.75" cy="175.1445" fill="#84BE84" rx="3" ry="3" style="stroke: #038048; stroke-width: 1.0;"/><text fill="#000000" font-family="sans-serif" font-size="11" lengthAdjust="spacingAndGlyphs" textLength="122" x="621.75" y="177.4526">Field[] getOwnFields()</text><ellipse cx="612.75" cy="187.9492" fill="#84BE84" rx="3" ry="3" style="stroke: #038048; stroke-width: 1.0;"/><text fill="#000000" font-family="sans-serif" font-size="11" lengthAdjust="spacingAndGlyphs" textLength="124" x="621.75" y="190.2573">string getSuperType()</text><ellipse cx="612.75" cy="200.7539" fill="#84BE84" rx="3" ry="3" style="stroke: #038048; stroke-width: 1.0;"/><text fill="#000000" font-family="sans-serif" font-size="11" lengthAdjust="spacingAndGlyphs" textLength="115" x="621.75" y="203.062">Field getField(string)</text><ellipse cx="612.75" cy="213.5586" fill="#84BE84" rx="3" ry="3" style="stroke: #038048; stroke-width: 1.0;"/><text fill="#000000" font-family="sans-serif" font-size="11" lengthAdjust="spacingAndGlyphs" textLength="97" x="621.75" y="215.8667">Field[] getFields()</text><path d="M110.101,171.158 C121.582,198.573 135.725,232.344 148.618,263.128 " fill="none" style="stroke: #A80036; stroke-width: 1.0;"/><polygon fill="none" points="155.18,260.675,156.449,281.827,142.266,266.083,155.18,260.675" style="stroke: #A80036; stroke-width: 1.0;"/><path d="M271.462,145.636 C258.963,175.178 239.161,221.983 221.66,263.35 " fill="none" style="stroke: #A80036; stroke-width: 1.0;"/><polygon fill="none" points="228.054,266.201,213.815,281.893,215.161,260.746,228.054,266.201" style="stroke: #A80036; stroke-width: 1.0;"/><path d="M483,145.636 C483,186.404 483,260.051 483,306.911 " fill="none" style="stroke: #A80036; stroke-width: 1.0;"/><polygon fill="none" points="490,306.923,483,326.9228,476,306.923,490,306.923" style="stroke: #A80036; stroke-width: 1.0;"/></g></svg>