<?xml version="1.0" encoding="UTF-8" standalone="no"?><svg xmlns="http://www.w3.org/2000/svg" xmlns:xlink="http://www.w3.org/1999/xlink" contentScriptType="application/ecmascript" contentStyleType="text/css" height="352px" preserveAspectRatio="none" style="width:688px;height:352px;" version="1.1" viewBox="0 0 688 352" width="688px" zoomAndPan="magnify"><defs><filter height="300%" id="fswndsy" width="300%" x="-1" y="-1"><feGaussianBlur result="blurOut" stdDeviation="2.0"/><feColorMatrix in="blurOut" result="blurOut2" type="matrix" values="0 0 0 0 0 0 0 0 0 0 0 0 0 0 0 0 0 0 .4 0"/><feOffset dx="4.0" dy="4.0" in="blurOut2" result="blurOut3"/><feBlend in="SourceGraphic" in2="blurOut3" mode="normal"/></filter></defs><g><!--class CBase--><rect fill="#FEFECE" filter="url(#fswndsy)" height="124.8281" style="stroke: #A80036; stroke-width: 1.5;" width="319" x="183" y="218.5"/><ellipse cx="318.75" cy="234.5" fill="#ADD1B2" rx="11" ry="11" style="stroke: #A80036; stroke-width: 1.0;"/><path d="M321.7188,240.1406 Q321.1406,240.4375 320.5,240.5859 Q319.8594,240.7344 319.1563,240.7344 Q316.6563,240.7344 315.3359,239.0859 Q314.0156,237.4375 314.0156,234.3125 Q314.0156,231.1875 315.3359,229.5313 Q316.6563,227.875 319.1563,227.875 Q319.8594,227.875 320.5078,228.0313 Q321.1563,228.1875 321.7188,228.4844 L321.7188,231.2031 Q321.0938,230.625 320.5,230.3516 Q319.9063,230.0781 319.2813,230.0781 Q317.9375,230.0781 317.25,231.1484 Q316.5625,232.2188 316.5625,234.3125 Q316.5625,236.4063 317.25,237.4766 Q317.9375,238.5469 319.2813,238.5469 Q319.9063,238.5469 320.5,238.2734 Q321.0938,238 321.7188,237.4219 L321.7188,240.1406 Z "/><text fill="#000000" font-family="sans-serif" font-size="12" lengthAdjust="spacingAndGlyphs" textLength="39" x="339.25" y="238.6543">CBase</text><line style="stroke: #A80036; stroke-width: 1.5;" x1="184" x2="501" y1="250.5" y2="250.5"/><line style="stroke: #A80036; stroke-width: 1.5;" x1="184" x2="501" y1="258.5" y2="258.5"/><rect fill="#F24D5C" height="6" style="stroke: #C82930; stroke-width: 1.0;" width="6" x="191" y="267.4023"/><text fill="#000000" font-family="sans-serif" font-size="11" lengthAdjust="spacingAndGlyphs" textLength="293" x="203" y="272.7104">void constructor(ModelManager,string,string,string)</text><ellipse cx="194" cy="283.207" fill="#84BE84" rx="3" ry="3" style="stroke: #038048; stroke-width: 1.0;"/><text fill="#000000" font-family="sans-serif" font-size="11" lengthAdjust="spacingAndGlyphs" textLength="113" x="203" y="285.5151">string getIdentifier()</text><ellipse cx="194" cy="296.0117" fill="#84BE84" rx="3" ry="3" style="stroke: #038048; stroke-width: 1.0;"/><text fill="#000000" font-family="sans-serif" font-size="11" lengthAdjust="spacingAndGlyphs" textLength="188" x="203" y="298.3198">string getFullyQualifiedIdentifier()</text><ellipse cx="194" cy="308.8164" fill="#84BE84" rx="3" ry="3" style="stroke: #038048; stroke-width: 1.0;"/><text fill="#000000" font-family="sans-serif" font-size="11" lengthAdjust="spacingAndGlyphs" textLength="90" x="203" y="311.1245">string getType()</text><ellipse cx="194" cy="321.6211" fill="#84BE84" rx="3" ry="3" style="stroke: #038048; stroke-width: 1.0;"/><text fill="#000000" font-family="sans-serif" font-size="11" lengthAdjust="spacingAndGlyphs" textLength="165" x="203" y="323.9292">string getFullyQualifiedType()</text><ellipse cx="194" cy="334.4258" fill="#84BE84" rx="3" ry="3" style="stroke: #038048; stroke-width: 1.0;"/><text fill="#000000" font-family="sans-serif" font-size="11" lengthAdjust="spacingAndGlyphs" textLength="130" x="203" y="336.7339">string getNamespace()</text><!--class CRelationship--><rect fill="#FEFECE" filter="url(#fswndsy)" height="60.8047" style="stroke: #A80036; stroke-width: 1.5;" width="319" x="6" y="52.5"/><ellipse cx="118.75" cy="68.5" fill="#ADD1B2" rx="11" ry="11" style="stroke: #A80036; stroke-width: 1.0;"/><path d="M121.7188,74.1406 Q121.1406,74.4375 120.5,74.5859 Q119.8594,74.7344 119.1563,74.7344 Q116.6563,74.7344 115.3359,73.0859 Q114.0156,71.4375 114.0156,68.3125 Q114.0156,65.1875 115.3359,63.5313 Q116.6563,61.875 119.1563,61.875 Q119.8594,61.875 120.5078,62.0313 Q121.1563,62.1875 121.7188,62.4844 L121.7188,65.2031 Q121.0938,64.625 120.5,64.3516 Q119.9063,64.0781 119.2813,64.0781 Q117.9375,64.0781 117.25,65.1484 Q116.5625,66.2188 116.5625,68.3125 Q116.5625,70.4063 117.25,71.4766 Q117.9375,72.5469 119.2813,72.5469 Q119.9063,72.5469 120.5,72.2734 Q121.0938,72 121.7188,71.4219 L121.7188,74.1406 Z "/><text fill="#000000" font-family="sans-serif" font-size="12" lengthAdjust="spacingAndGlyphs" textLength="85" x="139.25" y="72.6543">CRelationship</text><line style="stroke: #A80036; stroke-width: 1.5;" x1="7" x2="324" y1="84.5" y2="84.5"/><line style="stroke: #A80036; stroke-width: 1.5;" x1="7" x2="324" y1="92.5" y2="92.5"/><rect fill="#F24D5C" height="6" style="stroke: #C82930; stroke-width: 1.0;" width="6" x="14" y="101.4023"/><text fill="#000000" font-family="sans-serif" font-size="11" lengthAdjust="spacingAndGlyphs" textLength="293" x="26" y="106.7104">void constructor(ModelManager,string,string,string)</text><!--class CObject--><rect fill="#FEFECE" filter="url(#fswndsy)" height="150.4375" style="stroke: #A80036; stroke-width: 1.5;" width="319" x="360" y="8"/><ellipse cx="491.25" cy="24" fill="#ADD1B2" rx="11" ry="11" style="stroke: #A80036; stroke-width: 1.0;"/><path d="M494.2188,29.6406 Q493.6406,29.9375 493,30.0859 Q492.3594,30.2344 491.6563,30.2344 Q489.1563,30.2344 487.8359,28.5859 Q486.5156,26.9375 486.5156,23.8125 Q486.5156,20.6875 487.8359,19.0313 Q489.1563,17.375 491.6563,17.375 Q492.3594,17.375 493.0078,17.5313 Q493.6563,17.6875 494.2188,17.9844 L494.2188,20.7031 Q493.5938,20.125 493,19.8516 Q492.4063,19.5781 491.7813,19.5781 Q490.4375,19.5781 489.75,20.6484 Q489.0625,21.7188 489.0625,23.8125 Q489.0625,25.9063 489.75,26.9766 Q490.4375,28.0469 491.7813,28.0469 Q492.4063,28.0469 493,27.7734 Q493.5938,27.5 494.2188,26.9219 L494.2188,29.6406 Z "/><text fill="#000000" font-family="sans-serif" font-size="12" lengthAdjust="spacingAndGlyphs" textLength="48" x="511.75" y="28.1543">CObject</text><line style="stroke: #A80036; stroke-width: 1.5;" x1="361" x2="678" y1="40" y2="40"/><line style="stroke: #A80036; stroke-width: 1.5;" x1="361" x2="678" y1="48" y2="48"/><rect fill="#F24D5C" height="6" style="stroke: #C82930; stroke-width: 1.0;" width="6" x="368" y="56.9023"/><text fill="#000000" font-family="sans-serif" font-size="11" lengthAdjust="spacingAndGlyphs" textLength="293" x="380" y="62.2104">void constructor(ModelManager,string,string,string)</text><ellipse cx="371" cy="72.707" fill="#84BE84" rx="3" ry="3" style="stroke: #038048; stroke-width: 1.0;"/><text fill="#000000" font-family="sans-serif" font-size="11" lengthAdjust="spacingAndGlyphs" textLength="180" x="380" y="75.0151">void setFieldValue(string,string)</text><rect fill="#F24D5C" height="6" style="stroke: #C82930; stroke-width: 1.0;" width="6" x="368" y="82.5117"/><text fill="#000000" font-family="sans-serif" font-size="11" lengthAdjust="spacingAndGlyphs" textLength="146" x="380" y="87.8198">void assignFieldDefaults()</text><rect fill="#F24D5C" height="6" style="stroke: #C82930; stroke-width: 1.0;" width="6" x="368" y="95.3164"/><text fill="#000000" font-family="sans-serif" font-size="11" lengthAdjust="spacingAndGlyphs" textLength="222" x="380" y="100.6245">ClassDeclaration getClassDeclaration()</text><rect fill="#F24D5C" height="6" style="stroke: #C82930; stroke-width: 1.0;" width="6" x="368" y="108.1211"/><text fill="#000000" font-family="sans-serif" font-size="11" lengthAdjust="spacingAndGlyphs" textLength="79" x="380" y="113.4292">void validate()</text><rect fill="#F24D5C" height="6" style="stroke: #C82930; stroke-width: 1.0;" width="6" x="368" y="120.9258"/><text fill="#000000" font-family="sans-serif" font-size="11" lengthAdjust="spacingAndGlyphs" textLength="178" x="380" y="126.2339">void validateField(string,Field,*)</text><rect fill="#F24D5C" height="6" style="stroke: #C82930; stroke-width: 1.0;" width="6" x="368" y="133.7305"/><text fill="#000000" font-family="sans-serif" font-size="11" lengthAdjust="spacingAndGlyphs" textLength="261" x="380" y="139.0386">void reportModelViolation(string,string,*,Field)</text><rect fill="#F24D5C" height="6" style="stroke: #C82930; stroke-width: 1.0;" width="6" x="368" y="146.5352"/><text fill="#000000" font-family="sans-serif" font-size="11" lengthAdjust="spacingAndGlyphs" textLength="252" x="380" y="151.8433">void reportMissingRequiredField(string,Field)</text><path d="M192.132,113.768 C213.575,137.512 244.597,171.865 272.882,203.185 " fill="none" style="stroke: #A80036; stroke-width: 1.0;"/><polygon fill="none" points="278.284,198.723,286.493,218.258,267.893,208.106,278.284,198.723" style="stroke: #A80036; stroke-width: 1.0;"/><path d="M452.334,158.099 C439.037,172.823 425.049,188.313 411.671,203.127 " fill="none" style="stroke: #A80036; stroke-width: 1.0;"/><polygon fill="none" points="416.605,208.108,398.005,218.26,406.215,198.725,416.605,208.108" style="stroke: #A80036; stroke-width: 1.0;"/></g></svg>