<?xml version="1.0" encoding="UTF-8" standalone="no"?><svg xmlns="http://www.w3.org/2000/svg" xmlns:xlink="http://www.w3.org/1999/xlink" contentScriptType="application/ecmascript" contentStyleType="text/css" height="289px" preserveAspectRatio="none" style="width:600px;height:289px;" version="1.1" viewBox="0 0 600 289" width="600px" zoomAndPan="magnify"><defs><filter height="300%" id="fvkrsdp" width="300%" x="-1" y="-1"><feGaussianBlur result="blurOut" stdDeviation="2.0"/><feColorMatrix in="blurOut" result="blurOut2" type="matrix" values="0 0 0 0 0 0 0 0 0 0 0 0 0 0 0 0 0 0 .4 0"/><feOffset dx="4.0" dy="4.0" in="blurOut2" result="blurOut3"/><feBlend in="SourceGraphic" in2="blurOut3" mode="normal"/></filter></defs><g><!--class GoLangVisitor--><rect fill="#FEFECE" filter="url(#fvkrsdp)" height="163.2422" style="stroke: #A80036; stroke-width: 1.5;" width="329" x="6" y="8.5"/><ellipse cx="123.25" cy="24.5" fill="#ADD1B2" rx="11" ry="11" style="stroke: #A80036; stroke-width: 1.0;"/><path d="M126.2188,30.1406 Q125.6406,30.4375 125,30.5859 Q124.3594,30.7344 123.6563,30.7344 Q121.1563,30.7344 119.8359,29.0859 Q118.5156,27.4375 118.5156,24.3125 Q118.5156,21.1875 119.8359,19.5313 Q121.1563,17.875 123.6563,17.875 Q124.3594,17.875 125.0078,18.0313 Q125.6563,18.1875 126.2188,18.4844 L126.2188,21.2031 Q125.5938,20.625 125,20.3516 Q124.4063,20.0781 123.7813,20.0781 Q122.4375,20.0781 121.75,21.1484 Q121.0625,22.2188 121.0625,24.3125 Q121.0625,26.4063 121.75,27.4766 Q122.4375,28.5469 123.7813,28.5469 Q124.4063,28.5469 125,28.2734 Q125.5938,28 126.2188,27.4219 L126.2188,30.1406 Z "/><text fill="#000000" font-family="sans-serif" font-size="12" lengthAdjust="spacingAndGlyphs" textLength="86" x="143.75" y="28.6543">GoLangVisitor</text><line style="stroke: #A80036; stroke-width: 1.5;" x1="7" x2="334" y1="40.5" y2="40.5"/><line style="stroke: #A80036; stroke-width: 1.5;" x1="7" x2="334" y1="48.5" y2="48.5"/><rect fill="#F24D5C" height="6" style="stroke: #C82930; stroke-width: 1.0;" width="6" x="14" y="57.4023"/><text fill="#000000" font-family="sans-serif" font-size="11" lengthAdjust="spacingAndGlyphs" textLength="147" x="26" y="62.7104">Object visit(Object,Object)</text><rect fill="#F24D5C" height="6" style="stroke: #C82930; stroke-width: 1.0;" width="6" x="14" y="70.207"/><text fill="#000000" font-family="sans-serif" font-size="11" lengthAdjust="spacingAndGlyphs" textLength="275" x="26" y="75.5151">Object visitModelManager(ModelManager,Object)</text><rect fill="#F24D5C" height="6" style="stroke: #C82930; stroke-width: 1.0;" width="6" x="14" y="83.0117"/><text fill="#000000" font-family="sans-serif" font-size="11" lengthAdjust="spacingAndGlyphs" textLength="215" x="26" y="88.3198">Object visitModelFile(ModelFile,Object)</text><rect fill="#F24D5C" height="6" style="stroke: #C82930; stroke-width: 1.0;" width="6" x="14" y="95.8164"/><text fill="#000000" font-family="sans-serif" font-size="11" lengthAdjust="spacingAndGlyphs" textLength="303" x="26" y="101.1245">Object visitClassDeclaration(ClassDeclaration,Object)</text><rect fill="#F24D5C" height="6" style="stroke: #C82930; stroke-width: 1.0;" width="6" x="14" y="108.6211"/><text fill="#000000" font-family="sans-serif" font-size="11" lengthAdjust="spacingAndGlyphs" textLength="163" x="26" y="113.9292">Object visitField(Field,Object)</text><rect fill="#F24D5C" height="6" style="stroke: #C82930; stroke-width: 1.0;" width="6" x="14" y="121.4258"/><text fill="#000000" font-family="sans-serif" font-size="11" lengthAdjust="spacingAndGlyphs" textLength="249" x="26" y="126.7339">Object visitRelationship(Relationship,Object)</text><rect fill="#F24D5C" height="6" style="stroke: #C82930; stroke-width: 1.0;" width="6" x="14" y="134.2305"/><text fill="#000000" font-family="sans-serif" font-size="11" lengthAdjust="spacingAndGlyphs" textLength="237" x="26" y="139.5386">boolean containsDateTimeField(ModelFile)</text><rect fill="#F24D5C" height="6" style="stroke: #C82930; stroke-width: 1.0;" width="6" x="14" y="147.0352"/><text fill="#000000" font-family="sans-serif" font-size="11" lengthAdjust="spacingAndGlyphs" textLength="132" x="26" y="152.3433">string toGoType(string)</text><rect fill="#F24D5C" height="6" style="stroke: #C82930; stroke-width: 1.0;" width="6" x="14" y="159.8398"/><text fill="#000000" font-family="sans-serif" font-size="11" lengthAdjust="spacingAndGlyphs" textLength="185" x="26" y="165.1479">string toGoPackageName(string)</text><!--class FileWriter--><rect fill="#FEFECE" filter="url(#fvkrsdp)" height="124.8281" style="stroke: #A80036; stroke-width: 1.5;" width="222" x="369.75" y="27.5"/><ellipse cx="447.5" cy="43.5" fill="#ADD1B2" rx="11" ry="11" style="stroke: #A80036; stroke-width: 1.0;"/><path d="M450.4688,49.1406 Q449.8906,49.4375 449.25,49.5859 Q448.6094,49.7344 447.9063,49.7344 Q445.4063,49.7344 444.0859,48.0859 Q442.7656,46.4375 442.7656,43.3125 Q442.7656,40.1875 444.0859,38.5313 Q445.4063,36.875 447.9063,36.875 Q448.6094,36.875 449.2578,37.0313 Q449.9063,37.1875 450.4688,37.4844 L450.4688,40.2031 Q449.8438,39.625 449.25,39.3516 Q448.6563,39.0781 448.0313,39.0781 Q446.6875,39.0781 446,40.1484 Q445.3125,41.2188 445.3125,43.3125 Q445.3125,45.4063 446,46.4766 Q446.6875,47.5469 448.0313,47.5469 Q448.6563,47.5469 449.25,47.2734 Q449.8438,47 450.4688,46.4219 L450.4688,49.1406 Z "/><text fill="#000000" font-family="sans-serif" font-size="12" lengthAdjust="spacingAndGlyphs" textLength="58" x="468" y="47.6543">FileWriter</text><line style="stroke: #A80036; stroke-width: 1.5;" x1="370.75" x2="590.75" y1="59.5" y2="59.5"/><line style="stroke: #A80036; stroke-width: 1.5;" x1="370.75" x2="590.75" y1="67.5" y2="67.5"/><ellipse cx="380.75" cy="79.4023" fill="#84BE84" rx="3" ry="3" style="stroke: #038048; stroke-width: 1.0;"/><text fill="#000000" font-family="sans-serif" font-size="11" lengthAdjust="spacingAndGlyphs" textLength="133" x="389.75" y="81.7104">void constructor(string)</text><ellipse cx="380.75" cy="92.207" fill="#84BE84" rx="3" ry="3" style="stroke: #038048; stroke-width: 1.0;"/><text fill="#000000" font-family="sans-serif" font-size="11" lengthAdjust="spacingAndGlyphs" textLength="115" x="389.75" y="94.5151">void openFile(string)</text><ellipse cx="380.75" cy="105.0117" fill="#84BE84" rx="3" ry="3" style="stroke: #038048; stroke-width: 1.0;"/><text fill="#000000" font-family="sans-serif" font-size="11" lengthAdjust="spacingAndGlyphs" textLength="196" x="389.75" y="107.3198">void openRelativeFile(string,string)</text><ellipse cx="380.75" cy="117.8164" fill="#84BE84" rx="3" ry="3" style="stroke: #038048; stroke-width: 1.0;"/><text fill="#000000" font-family="sans-serif" font-size="11" lengthAdjust="spacingAndGlyphs" textLength="175" x="389.75" y="120.1245">void writeBeforeLine(int,string)</text><ellipse cx="380.75" cy="130.6211" fill="#84BE84" rx="3" ry="3" style="stroke: #038048; stroke-width: 1.0;"/><text fill="#000000" font-family="sans-serif" font-size="11" lengthAdjust="spacingAndGlyphs" textLength="137" x="389.75" y="132.9292">void writeLine(int,string)</text><ellipse cx="380.75" cy="143.4258" fill="#84BE84" rx="3" ry="3" style="stroke: #038048; stroke-width: 1.0;"/><text fill="#000000" font-family="sans-serif" font-size="11" lengthAdjust="spacingAndGlyphs" textLength="84" x="389.75" y="145.7339">void closeFile()</text><!--class codegen--><rect fill="#FEFECE" filter="url(#fvkrsdp)" height="48" style="stroke: #A80036; stroke-width: 1.5;" width="87" x="127" y="232"/><ellipse cx="142" cy="248" fill="#DA70D6" rx="11" ry="11" style="stroke: #A80036; stroke-width: 1.0;"/><path d="M141.7969,243.6719 L141.7969,247.2969 L142.7969,247.2969 Q144,247.2969 144.4844,246.8906 Q144.9688,246.4844 144.9688,245.4844 Q144.9688,244.4844 144.4844,244.0781 Q144,243.6719 142.7969,243.6719 L141.7969,243.6719 Z M139.3438,241.6094 L142.7031,241.6094 Q145.2656,241.6094 146.3906,242.5234 Q147.5156,243.4375 147.5156,245.4844 Q147.5156,247.5313 146.3906,248.4453 Q145.2656,249.3594 142.7031,249.3594 L141.7969,249.3594 L141.7969,254 L139.3438,254 L139.3438,241.6094 Z "/><text fill="#000000" font-family="sans-serif" font-size="12" lengthAdjust="spacingAndGlyphs" textLength="55" x="156" y="252.1543">codegen</text><line style="stroke: #A80036; stroke-width: 1.5;" x1="128" x2="213" y1="264" y2="264"/><line style="stroke: #A80036; stroke-width: 1.5;" x1="128" x2="213" y1="272" y2="272"/></g></svg>