<?xml version="1.0" encoding="UTF-8" standalone="no"?><svg xmlns="http://www.w3.org/2000/svg" xmlns:xlink="http://www.w3.org/1999/xlink" contentScriptType="application/ecmascript" contentStyleType="text/css" height="264px" preserveAspectRatio="none" style="width:334px;height:264px;" version="1.1" viewBox="0 0 334 264" width="334px" zoomAndPan="magnify"><defs><filter height="300%" id="fksxdv6" width="300%" x="-1" y="-1"><feGaussianBlur result="blurOut" stdDeviation="2.0"/><feColorMatrix in="blurOut" result="blurOut2" type="matrix" values="0 0 0 0 0 0 0 0 0 0 0 0 0 0 0 0 0 0 .4 0"/><feOffset dx="4.0" dy="4.0" in="blurOut2" result="blurOut3"/><feBlend in="SourceGraphic" in2="blurOut3" mode="normal"/></filter></defs><g><!--class CBase--><rect fill="#FEFECE" filter="url(#fksxdv6)" height="124.8281" style="stroke: #A80036; stroke-width: 1.5;" width="319" x="6" y="130.5"/><ellipse cx="141.75" cy="146.5" fill="#ADD1B2" rx="11" ry="11" style="stroke: #A80036; stroke-width: 1.0;"/><path d="M144.7188,152.1406 Q144.1406,152.4375 143.5,152.5859 Q142.8594,152.7344 142.1563,152.7344 Q139.6563,152.7344 138.3359,151.0859 Q137.0156,149.4375 137.0156,146.3125 Q137.0156,143.1875 138.3359,141.5313 Q139.6563,139.875 142.1563,139.875 Q142.8594,139.875 143.5078,140.0313 Q144.1563,140.1875 144.7188,140.4844 L144.7188,143.2031 Q144.0938,142.625 143.5,142.3516 Q142.9063,142.0781 142.2813,142.0781 Q140.9375,142.0781 140.25,143.1484 Q139.5625,144.2188 139.5625,146.3125 Q139.5625,148.4063 140.25,149.4766 Q140.9375,150.5469 142.2813,150.5469 Q142.9063,150.5469 143.5,150.2734 Q144.0938,150 144.7188,149.4219 L144.7188,152.1406 Z "/><text fill="#000000" font-family="sans-serif" font-size="12" lengthAdjust="spacingAndGlyphs" textLength="39" x="162.25" y="150.6543">CBase</text><line style="stroke: #A80036; stroke-width: 1.5;" x1="7" x2="324" y1="162.5" y2="162.5"/><line style="stroke: #A80036; stroke-width: 1.5;" x1="7" x2="324" y1="170.5" y2="170.5"/><rect fill="#F24D5C" height="6" style="stroke: #C82930; stroke-width: 1.0;" width="6" x="14" y="179.4023"/><text fill="#000000" font-family="sans-serif" font-size="11" lengthAdjust="spacingAndGlyphs" textLength="293" x="26" y="184.7104">void constructor(ModelManager,string,string,string)</text><ellipse cx="17" cy="195.207" fill="#84BE84" rx="3" ry="3" style="stroke: #038048; stroke-width: 1.0;"/><text fill="#000000" font-family="sans-serif" font-size="11" lengthAdjust="spacingAndGlyphs" textLength="113" x="26" y="197.5151">string getIdentifier()</text><ellipse cx="17" cy="208.0117" fill="#84BE84" rx="3" ry="3" style="stroke: #038048; stroke-width: 1.0;"/><text fill="#000000" font-family="sans-serif" font-size="11" lengthAdjust="spacingAndGlyphs" textLength="188" x="26" y="210.3198">string getFullyQualifiedIdentifier()</text><ellipse cx="17" cy="220.8164" fill="#84BE84" rx="3" ry="3" style="stroke: #038048; stroke-width: 1.0;"/><text fill="#000000" font-family="sans-serif" font-size="11" lengthAdjust="spacingAndGlyphs" textLength="90" x="26" y="223.1245">string getType()</text><ellipse cx="17" cy="233.6211" fill="#84BE84" rx="3" ry="3" style="stroke: #038048; stroke-width: 1.0;"/><text fill="#000000" font-family="sans-serif" font-size="11" lengthAdjust="spacingAndGlyphs" textLength="165" x="26" y="235.9292">string getFullyQualifiedType()</text><ellipse cx="17" cy="246.4258" fill="#84BE84" rx="3" ry="3" style="stroke: #038048; stroke-width: 1.0;"/><text fill="#000000" font-family="sans-serif" font-size="11" lengthAdjust="spacingAndGlyphs" textLength="130" x="26" y="248.7339">string getNamespace()</text><!--class CRelationship--><rect fill="#FEFECE" filter="url(#fksxdv6)" height="60.8047" style="stroke: #A80036; stroke-width: 1.5;" width="319" x="6" y="8.5"/><ellipse cx="118.75" cy="24.5" fill="#ADD1B2" rx="11" ry="11" style="stroke: #A80036; stroke-width: 1.0;"/><path d="M121.7188,30.1406 Q121.1406,30.4375 120.5,30.5859 Q119.8594,30.7344 119.1563,30.7344 Q116.6563,30.7344 115.3359,29.0859 Q114.0156,27.4375 114.0156,24.3125 Q114.0156,21.1875 115.3359,19.5313 Q116.6563,17.875 119.1563,17.875 Q119.8594,17.875 120.5078,18.0313 Q121.1563,18.1875 121.7188,18.4844 L121.7188,21.2031 Q121.0938,20.625 120.5,20.3516 Q119.9063,20.0781 119.2813,20.0781 Q117.9375,20.0781 117.25,21.1484 Q116.5625,22.2188 116.5625,24.3125 Q116.5625,26.4063 117.25,27.4766 Q117.9375,28.5469 119.2813,28.5469 Q119.9063,28.5469 120.5,28.2734 Q121.0938,28 121.7188,27.4219 L121.7188,30.1406 Z "/><text fill="#000000" font-family="sans-serif" font-size="12" lengthAdjust="spacingAndGlyphs" textLength="85" x="139.25" y="28.6543">CRelationship</text><line style="stroke: #A80036; stroke-width: 1.5;" x1="7" x2="324" y1="40.5" y2="40.5"/><line style="stroke: #A80036; stroke-width: 1.5;" x1="7" x2="324" y1="48.5" y2="48.5"/><rect fill="#F24D5C" height="6" style="stroke: #C82930; stroke-width: 1.0;" width="6" x="14" y="57.4023"/><text fill="#000000" font-family="sans-serif" font-size="11" lengthAdjust="spacingAndGlyphs" textLength="293" x="26" y="62.7104">void constructor(ModelManager,string,string,string)</text><path d="M165.25,69.668 C165.25,81.412 165.25,95.544 165.25,109.967 " fill="none" style="stroke: #A80036; stroke-width: 1.0;"/><polygon fill="none" points="172.25,110.333,165.25,130.333,158.25,110.333,172.25,110.333" style="stroke: #A80036; stroke-width: 1.0;"/></g></svg>