<?xml version="1.0" encoding="UTF-8" standalone="no"?><svg xmlns="http://www.w3.org/2000/svg" xmlns:xlink="http://www.w3.org/1999/xlink" contentScriptType="application/ecmascript" contentStyleType="text/css" height="461px" preserveAspectRatio="none" style="width:1586px;height:461px;" version="1.1" viewBox="0 0 1586 461" width="1586px" zoomAndPan="magnify"><defs><filter height="300%" id="fiw1ged" width="300%" x="-1" y="-1"><feGaussianBlur result="blurOut" stdDeviation="2.0"/><feColorMatrix in="blurOut" result="blurOut2" type="matrix" values="0 0 0 0 0 0 0 0 0 0 0 0 0 0 0 0 0 0 .4 0"/><feOffset dx="4.0" dy="4.0" in="blurOut2" result="blurOut3"/><feBlend in="SourceGraphic" in2="blurOut3" mode="normal"/></filter></defs><g><!--class CBase--><rect fill="#FEFECE" filter="url(#fiw1ged)" height="124.8281" style="stroke: #A80036; stroke-width: 1.5;" width="319" x="887" y="218.5"/><ellipse cx="1022.75" cy="234.5" fill="#ADD1B2" rx="11" ry="11" style="stroke: #A80036; stroke-width: 1.0;"/><path d="M1025.7188,240.1406 Q1025.1406,240.4375 1024.5,240.5859 Q1023.8594,240.7344 1023.1563,240.7344 Q1020.6563,240.7344 1019.3359,239.0859 Q1018.0156,237.4375 1018.0156,234.3125 Q1018.0156,231.1875 1019.3359,229.5313 Q1020.6563,227.875 1023.1563,227.875 Q1023.8594,227.875 1024.5078,228.0313 Q1025.1563,228.1875 1025.7188,228.4844 L1025.7188,231.2031 Q1025.0938,230.625 1024.5,230.3516 Q1023.9063,230.0781 1023.2813,230.0781 Q1021.9375,230.0781 1021.25,231.1484 Q1020.5625,232.2188 1020.5625,234.3125 Q1020.5625,236.4063 1021.25,237.4766 Q1021.9375,238.5469 1023.2813,238.5469 Q1023.9063,238.5469 1024.5,238.2734 Q1025.0938,238 1025.7188,237.4219 L1025.7188,240.1406 Z "/><text fill="#000000" font-family="sans-serif" font-size="12" lengthAdjust="spacingAndGlyphs" textLength="39" x="1043.25" y="238.6543">CBase</text><line style="stroke: #A80036; stroke-width: 1.5;" x1="888" x2="1205" y1="250.5" y2="250.5"/><line style="stroke: #A80036; stroke-width: 1.5;" x1="888" x2="1205" y1="258.5" y2="258.5"/><rect fill="#F24D5C" height="6" style="stroke: #C82930; stroke-width: 1.0;" width="6" x="895" y="267.4023"/><text fill="#000000" font-family="sans-serif" font-size="11" lengthAdjust="spacingAndGlyphs" textLength="293" x="907" y="272.7104">void constructor(ModelManager,string,string,string)</text><ellipse cx="898" cy="283.207" fill="#84BE84" rx="3" ry="3" style="stroke: #038048; stroke-width: 1.0;"/><text fill="#000000" font-family="sans-serif" font-size="11" lengthAdjust="spacingAndGlyphs" textLength="113" x="907" y="285.5151">string getIdentifier()</text><ellipse cx="898" cy="296.0117" fill="#84BE84" rx="3" ry="3" style="stroke: #038048; stroke-width: 1.0;"/><text fill="#000000" font-family="sans-serif" font-size="11" lengthAdjust="spacingAndGlyphs" textLength="188" x="907" y="298.3198">string getFullyQualifiedIdentifier()</text><ellipse cx="898" cy="308.8164" fill="#84BE84" rx="3" ry="3" style="stroke: #038048; stroke-width: 1.0;"/><text fill="#000000" font-family="sans-serif" font-size="11" lengthAdjust="spacingAndGlyphs" textLength="90" x="907" y="311.1245">string getType()</text><ellipse cx="898" cy="321.6211" fill="#84BE84" rx="3" ry="3" style="stroke: #038048; stroke-width: 1.0;"/><text fill="#000000" font-family="sans-serif" font-size="11" lengthAdjust="spacingAndGlyphs" textLength="165" x="907" y="323.9292">string getFullyQualifiedType()</text><ellipse cx="898" cy="334.4258" fill="#84BE84" rx="3" ry="3" style="stroke: #038048; stroke-width: 1.0;"/><text fill="#000000" font-family="sans-serif" font-size="11" lengthAdjust="spacingAndGlyphs" textLength="130" x="907" y="336.7339">string getNamespace()</text><!--class CRelationship--><rect fill="#FEFECE" filter="url(#fiw1ged)" height="60.8047" style="stroke: #A80036; stroke-width: 1.5;" width="319" x="710" y="52.5"/><ellipse cx="822.75" cy="68.5" fill="#ADD1B2" rx="11" ry="11" style="stroke: #A80036; stroke-width: 1.0;"/><path d="M825.7188,74.1406 Q825.1406,74.4375 824.5,74.5859 Q823.8594,74.7344 823.1563,74.7344 Q820.6563,74.7344 819.3359,73.0859 Q818.0156,71.4375 818.0156,68.3125 Q818.0156,65.1875 819.3359,63.5313 Q820.6563,61.875 823.1563,61.875 Q823.8594,61.875 824.5078,62.0313 Q825.1563,62.1875 825.7188,62.4844 L825.7188,65.2031 Q825.0938,64.625 824.5,64.3516 Q823.9063,64.0781 823.2813,64.0781 Q821.9375,64.0781 821.25,65.1484 Q820.5625,66.2188 820.5625,68.3125 Q820.5625,70.4063 821.25,71.4766 Q821.9375,72.5469 823.2813,72.5469 Q823.9063,72.5469 824.5,72.2734 Q825.0938,72 825.7188,71.4219 L825.7188,74.1406 Z "/><text fill="#000000" font-family="sans-serif" font-size="12" lengthAdjust="spacingAndGlyphs" textLength="85" x="843.25" y="72.6543">CRelationship</text><line style="stroke: #A80036; stroke-width: 1.5;" x1="711" x2="1028" y1="84.5" y2="84.5"/><line style="stroke: #A80036; stroke-width: 1.5;" x1="711" x2="1028" y1="92.5" y2="92.5"/><rect fill="#F24D5C" height="6" style="stroke: #C82930; stroke-width: 1.0;" width="6" x="718" y="101.4023"/><text fill="#000000" font-family="sans-serif" font-size="11" lengthAdjust="spacingAndGlyphs" textLength="293" x="730" y="106.7104">void constructor(ModelManager,string,string,string)</text><!--class CObject--><rect fill="#FEFECE" filter="url(#fiw1ged)" height="150.4375" style="stroke: #A80036; stroke-width: 1.5;" width="319" x="1064" y="8"/><ellipse cx="1195.25" cy="24" fill="#ADD1B2" rx="11" ry="11" style="stroke: #A80036; stroke-width: 1.0;"/><path d="M1198.2188,29.6406 Q1197.6406,29.9375 1197,30.0859 Q1196.3594,30.2344 1195.6563,30.2344 Q1193.1563,30.2344 1191.8359,28.5859 Q1190.5156,26.9375 1190.5156,23.8125 Q1190.5156,20.6875 1191.8359,19.0313 Q1193.1563,17.375 1195.6563,17.375 Q1196.3594,17.375 1197.0078,17.5313 Q1197.6563,17.6875 1198.2188,17.9844 L1198.2188,20.7031 Q1197.5938,20.125 1197,19.8516 Q1196.4063,19.5781 1195.7813,19.5781 Q1194.4375,19.5781 1193.75,20.6484 Q1193.0625,21.7188 1193.0625,23.8125 Q1193.0625,25.9063 1193.75,26.9766 Q1194.4375,28.0469 1195.7813,28.0469 Q1196.4063,28.0469 1197,27.7734 Q1197.5938,27.5 1198.2188,26.9219 L1198.2188,29.6406 Z "/><text fill="#000000" font-family="sans-serif" font-size="12" lengthAdjust="spacingAndGlyphs" textLength="48" x="1215.75" y="28.1543">CObject</text><line style="stroke: #A80036; stroke-width: 1.5;" x1="1065" x2="1382" y1="40" y2="40"/><line style="stroke: #A80036; stroke-width: 1.5;" x1="1065" x2="1382" y1="48" y2="48"/><rect fill="#F24D5C" height="6" style="stroke: #C82930; stroke-width: 1.0;" width="6" x="1072" y="56.9023"/><text fill="#000000" font-family="sans-serif" font-size="11" lengthAdjust="spacingAndGlyphs" textLength="293" x="1084" y="62.2104">void constructor(ModelManager,string,string,string)</text><ellipse cx="1075" cy="72.707" fill="#84BE84" rx="3" ry="3" style="stroke: #038048; stroke-width: 1.0;"/><text fill="#000000" font-family="sans-serif" font-size="11" lengthAdjust="spacingAndGlyphs" textLength="180" x="1084" y="75.0151">void setFieldValue(string,string)</text><rect fill="#F24D5C" height="6" style="stroke: #C82930; stroke-width: 1.0;" width="6" x="1072" y="82.5117"/><text fill="#000000" font-family="sans-serif" font-size="11" lengthAdjust="spacingAndGlyphs" textLength="146" x="1084" y="87.8198">void assignFieldDefaults()</text><rect fill="#F24D5C" height="6" style="stroke: #C82930; stroke-width: 1.0;" width="6" x="1072" y="95.3164"/><text fill="#000000" font-family="sans-serif" font-size="11" lengthAdjust="spacingAndGlyphs" textLength="222" x="1084" y="100.6245">ClassDeclaration getClassDeclaration()</text><rect fill="#F24D5C" height="6" style="stroke: #C82930; stroke-width: 1.0;" width="6" x="1072" y="108.1211"/><text fill="#000000" font-family="sans-serif" font-size="11" lengthAdjust="spacingAndGlyphs" textLength="79" x="1084" y="113.4292">void validate()</text><rect fill="#F24D5C" height="6" style="stroke: #C82930; stroke-width: 1.0;" width="6" x="1072" y="120.9258"/><text fill="#000000" font-family="sans-serif" font-size="11" lengthAdjust="spacingAndGlyphs" textLength="178" x="1084" y="126.2339">void validateField(string,Field,*)</text><rect fill="#F24D5C" height="6" style="stroke: #C82930; stroke-width: 1.0;" width="6" x="1072" y="133.7305"/><text fill="#000000" font-family="sans-serif" font-size="11" lengthAdjust="spacingAndGlyphs" textLength="261" x="1084" y="139.0386">void reportModelViolation(string,string,*,Field)</text><rect fill="#F24D5C" height="6" style="stroke: #C82930; stroke-width: 1.0;" width="6" x="1072" y="146.5352"/><text fill="#000000" font-family="sans-serif" font-size="11" lengthAdjust="spacingAndGlyphs" textLength="252" x="1084" y="151.8433">void reportMissingRequiredField(string,Field)</text><!--class BaseException--><rect fill="#FEFECE" filter="url(#fiw1ged)" height="60.8047" style="stroke: #A80036; stroke-width: 1.5;" width="159" x="1418" y="250.5"/><ellipse cx="1448.75" cy="266.5" fill="#ADD1B2" rx="11" ry="11" style="stroke: #A80036; stroke-width: 1.0;"/><path d="M1451.7188,272.1406 Q1451.1406,272.4375 1450.5,272.5859 Q1449.8594,272.7344 1449.1563,272.7344 Q1446.6563,272.7344 1445.3359,271.0859 Q1444.0156,269.4375 1444.0156,266.3125 Q1444.0156,263.1875 1445.3359,261.5313 Q1446.6563,259.875 1449.1563,259.875 Q1449.8594,259.875 1450.5078,260.0313 Q1451.1563,260.1875 1451.7188,260.4844 L1451.7188,263.2031 Q1451.0938,262.625 1450.5,262.3516 Q1449.9063,262.0781 1449.2813,262.0781 Q1447.9375,262.0781 1447.25,263.1484 Q1446.5625,264.2188 1446.5625,266.3125 Q1446.5625,268.4063 1447.25,269.4766 Q1447.9375,270.5469 1449.2813,270.5469 Q1449.9063,270.5469 1450.5,270.2734 Q1451.0938,270 1451.7188,269.4219 L1451.7188,272.1406 Z "/><text fill="#000000" font-family="sans-serif" font-size="12" lengthAdjust="spacingAndGlyphs" textLength="92" x="1466.25" y="270.6543">BaseException</text><line style="stroke: #A80036; stroke-width: 1.5;" x1="1419" x2="1576" y1="282.5" y2="282.5"/><line style="stroke: #A80036; stroke-width: 1.5;" x1="1419" x2="1576" y1="290.5" y2="290.5"/><ellipse cx="1429" cy="302.4023" fill="#84BE84" rx="3" ry="3" style="stroke: #038048; stroke-width: 1.0;"/><text fill="#000000" font-family="sans-serif" font-size="11" lengthAdjust="spacingAndGlyphs" textLength="133" x="1438" y="304.7104">void constructor(string)</text><!--class Error--><rect fill="#FEFECE" filter="url(#fiw1ged)" height="48" style="stroke: #A80036; stroke-width: 1.5;" width="63" x="1466" y="404"/><ellipse cx="1481" cy="420" fill="#ADD1B2" rx="11" ry="11" style="stroke: #A80036; stroke-width: 1.0;"/><path d="M1483.9688,425.6406 Q1483.3906,425.9375 1482.75,426.0859 Q1482.1094,426.2344 1481.4063,426.2344 Q1478.9063,426.2344 1477.5859,424.5859 Q1476.2656,422.9375 1476.2656,419.8125 Q1476.2656,416.6875 1477.5859,415.0313 Q1478.9063,413.375 1481.4063,413.375 Q1482.1094,413.375 1482.7578,413.5313 Q1483.4063,413.6875 1483.9688,413.9844 L1483.9688,416.7031 Q1483.3438,416.125 1482.75,415.8516 Q1482.1563,415.5781 1481.5313,415.5781 Q1480.1875,415.5781 1479.5,416.6484 Q1478.8125,417.7188 1478.8125,419.8125 Q1478.8125,421.9063 1479.5,422.9766 Q1480.1875,424.0469 1481.5313,424.0469 Q1482.1563,424.0469 1482.75,423.7734 Q1483.3438,423.5 1483.9688,422.9219 L1483.9688,425.6406 Z "/><text fill="#000000" font-family="sans-serif" font-size="12" lengthAdjust="spacingAndGlyphs" textLength="31" x="1495" y="424.1543">Error</text><line style="stroke: #A80036; stroke-width: 1.5;" x1="1467" x2="1528" y1="436" y2="436"/><line style="stroke: #A80036; stroke-width: 1.5;" x1="1467" x2="1528" y1="444" y2="444"/><!--class SecurityException--><rect fill="#FEFECE" filter="url(#fiw1ged)" height="60.8047" style="stroke: #A80036; stroke-width: 1.5;" width="159" x="1418" y="52.5"/><ellipse cx="1440.2" cy="68.5" fill="#ADD1B2" rx="11" ry="11" style="stroke: #A80036; stroke-width: 1.0;"/><path d="M1443.1688,74.1406 Q1442.5906,74.4375 1441.95,74.5859 Q1441.3094,74.7344 1440.6063,74.7344 Q1438.1063,74.7344 1436.7859,73.0859 Q1435.4656,71.4375 1435.4656,68.3125 Q1435.4656,65.1875 1436.7859,63.5313 Q1438.1063,61.875 1440.6063,61.875 Q1441.3094,61.875 1441.9578,62.0313 Q1442.6063,62.1875 1443.1688,62.4844 L1443.1688,65.2031 Q1442.5438,64.625 1441.95,64.3516 Q1441.3563,64.0781 1440.7313,64.0781 Q1439.3875,64.0781 1438.7,65.1484 Q1438.0125,66.2188 1438.0125,68.3125 Q1438.0125,70.4063 1438.7,71.4766 Q1439.3875,72.5469 1440.7313,72.5469 Q1441.3563,72.5469 1441.95,72.2734 Q1442.5438,72 1443.1688,71.4219 L1443.1688,74.1406 Z "/><text fill="#000000" font-family="sans-serif" font-size="12" lengthAdjust="spacingAndGlyphs" textLength="111" x="1455.8" y="72.6543">SecurityException</text><line style="stroke: #A80036; stroke-width: 1.5;" x1="1419" x2="1576" y1="84.5" y2="84.5"/><line style="stroke: #A80036; stroke-width: 1.5;" x1="1419" x2="1576" y1="92.5" y2="92.5"/><ellipse cx="1429" cy="104.4023" fill="#84BE84" rx="3" ry="3" style="stroke: #038048; stroke-width: 1.0;"/><text fill="#000000" font-family="sans-serif" font-size="11" lengthAdjust="spacingAndGlyphs" textLength="133" x="1438" y="106.7104">void constructor(string)</text><!--class globalize--><rect fill="#FEFECE" filter="url(#fiw1ged)" height="48" style="stroke: #A80036; stroke-width: 1.5;" width="86" x="162.25" y="59"/><ellipse cx="177.25" cy="75" fill="#DA70D6" rx="11" ry="11" style="stroke: #A80036; stroke-width: 1.0;"/><path d="M177.0469,70.6719 L177.0469,74.2969 L178.0469,74.2969 Q179.25,74.2969 179.7344,73.8906 Q180.2188,73.4844 180.2188,72.4844 Q180.2188,71.4844 179.7344,71.0781 Q179.25,70.6719 178.0469,70.6719 L177.0469,70.6719 Z M174.5938,68.6094 L177.9531,68.6094 Q180.5156,68.6094 181.6406,69.5234 Q182.7656,70.4375 182.7656,72.4844 Q182.7656,74.5313 181.6406,75.4453 Q180.5156,76.3594 177.9531,76.3594 L177.0469,76.3594 L177.0469,81 L174.5938,81 L174.5938,68.6094 Z "/><text fill="#000000" font-family="sans-serif" font-size="12" lengthAdjust="spacingAndGlyphs" textLength="54" x="191.25" y="79.1543">globalize</text><line style="stroke: #A80036; stroke-width: 1.5;" x1="163.25" x2="247.25" y1="91" y2="91"/><line style="stroke: #A80036; stroke-width: 1.5;" x1="163.25" x2="247.25" y1="99" y2="99"/><!--class Util--><rect fill="#FEFECE" filter="url(#fiw1ged)" height="99.2188" style="stroke: #A80036; stroke-width: 1.5;" width="391" x="284" y="33.5"/><ellipse cx="465.25" cy="49.5" fill="#ADD1B2" rx="11" ry="11" style="stroke: #A80036; stroke-width: 1.0;"/><path d="M468.2188,55.1406 Q467.6406,55.4375 467,55.5859 Q466.3594,55.7344 465.6563,55.7344 Q463.1563,55.7344 461.8359,54.0859 Q460.5156,52.4375 460.5156,49.3125 Q460.5156,46.1875 461.8359,44.5313 Q463.1563,42.875 465.6563,42.875 Q466.3594,42.875 467.0078,43.0313 Q467.6563,43.1875 468.2188,43.4844 L468.2188,46.2031 Q467.5938,45.625 467,45.3516 Q466.4063,45.0781 465.7813,45.0781 Q464.4375,45.0781 463.75,46.1484 Q463.0625,47.2188 463.0625,49.3125 Q463.0625,51.4063 463.75,52.4766 Q464.4375,53.5469 465.7813,53.5469 Q466.4063,53.5469 467,53.2734 Q467.5938,53 468.2188,52.4219 L468.2188,55.1406 Z "/><text fill="#000000" font-family="sans-serif" font-size="12" lengthAdjust="spacingAndGlyphs" textLength="20" x="485.75" y="53.6543">Util</text><line style="stroke: #A80036; stroke-width: 1.5;" x1="285" x2="674" y1="65.5" y2="65.5"/><line style="stroke: #A80036; stroke-width: 1.5;" x1="285" x2="674" y1="73.5" y2="73.5"/><ellipse cx="295" cy="85.4023" fill="#84BE84" rx="3" ry="3" style="stroke: #038048; stroke-width: 1.0;"/><text fill="#000000" font-family="sans-serif" font-size="11" lengthAdjust="spacingAndGlyphs" textLength="203" x="304" y="87.7104">void securityCheck(SecurityContext)</text><ellipse cx="295" cy="98.207" fill="#84BE84" rx="3" ry="3" style="stroke: #038048; stroke-width: 1.0;"/><text fill="#000000" font-family="sans-serif" font-size="11" lengthAdjust="spacingAndGlyphs" textLength="323" x="304" y="100.5151">Promise queryChainCode(SecurityContext,string,string[])</text><ellipse cx="295" cy="111.0117" fill="#84BE84" rx="3" ry="3" style="stroke: #038048; stroke-width: 1.0;"/><text fill="#000000" font-family="sans-serif" font-size="11" lengthAdjust="spacingAndGlyphs" textLength="327" x="304" y="113.3198">Promise invokeChainCode(SecurityContext,string,string[])</text><ellipse cx="295" cy="123.8164" fill="#84BE84" rx="3" ry="3" style="stroke: #038048; stroke-width: 1.0;"/><text fill="#000000" font-family="sans-serif" font-size="11" lengthAdjust="spacingAndGlyphs" textLength="365" x="304" y="126.1245">Promise deployChainCode(SecurityContext,string,string,string[])</text><!--class Factory--><rect fill="#FEFECE" filter="url(#fiw1ged)" height="86.4141" style="stroke: #A80036; stroke-width: 1.5;" width="399" x="6" y="238"/><ellipse cx="178.25" cy="254" fill="#ADD1B2" rx="11" ry="11" style="stroke: #A80036; stroke-width: 1.0;"/><path d="M181.2188,259.6406 Q180.6406,259.9375 180,260.0859 Q179.3594,260.2344 178.6563,260.2344 Q176.1563,260.2344 174.8359,258.5859 Q173.5156,256.9375 173.5156,253.8125 Q173.5156,250.6875 174.8359,249.0313 Q176.1563,247.375 178.6563,247.375 Q179.3594,247.375 180.0078,247.5313 Q180.6563,247.6875 181.2188,247.9844 L181.2188,250.7031 Q180.5938,250.125 180,249.8516 Q179.4063,249.5781 178.7813,249.5781 Q177.4375,249.5781 176.75,250.6484 Q176.0625,251.7188 176.0625,253.8125 Q176.0625,255.9063 176.75,256.9766 Q177.4375,258.0469 178.7813,258.0469 Q179.4063,258.0469 180,257.7734 Q180.5938,257.5 181.2188,256.9219 L181.2188,259.6406 Z "/><text fill="#000000" font-family="sans-serif" font-size="12" lengthAdjust="spacingAndGlyphs" textLength="46" x="198.75" y="258.1543">Factory</text><line style="stroke: #A80036; stroke-width: 1.5;" x1="7" x2="404" y1="270" y2="270"/><line style="stroke: #A80036; stroke-width: 1.5;" x1="7" x2="404" y1="278" y2="278"/><ellipse cx="17" cy="289.9023" fill="#84BE84" rx="3" ry="3" style="stroke: #038048; stroke-width: 1.0;"/><text fill="#000000" font-family="sans-serif" font-size="11" lengthAdjust="spacingAndGlyphs" textLength="182" x="26" y="292.2104">void constructor(ModelManager)</text><ellipse cx="17" cy="302.707" fill="#84BE84" rx="3" ry="3" style="stroke: #038048; stroke-width: 1.0;"/><text fill="#000000" font-family="sans-serif" font-size="11" lengthAdjust="spacingAndGlyphs" textLength="327" x="26" y="305.0151">CObject newInstance(SecurityContext,string,string,string)</text><ellipse cx="17" cy="315.5117" fill="#84BE84" rx="3" ry="3" style="stroke: #038048; stroke-width: 1.0;"/><text fill="#000000" font-family="sans-serif" font-size="11" lengthAdjust="spacingAndGlyphs" textLength="373" x="26" y="317.8198">Relationship newRelationship(SecurityContext,string,string,string)</text><path d="M896.132,113.768 C917.575,137.512 948.597,171.865 976.882,203.185 " fill="none" style="stroke: #A80036; stroke-width: 1.0;"/><polygon fill="none" points="982.284,198.723,990.493,218.258,971.893,208.106,982.284,198.723" style="stroke: #A80036; stroke-width: 1.0;"/><path d="M1156.33,158.099 C1143.04,172.823 1129.05,188.313 1115.67,203.127 " fill="none" style="stroke: #A80036; stroke-width: 1.0;"/><polygon fill="none" points="1120.6,208.108,1102.01,218.26,1110.21,198.725,1120.6,208.108" style="stroke: #A80036; stroke-width: 1.0;"/><path d="M1497.25,311.693 C1497.25,332.394 1497.25,360.3484 1497.25,383.5484 " fill="none" style="stroke: #A80036; stroke-width: 1.0;"/><polygon fill="none" points="1504.25,383.5572,1497.25,403.5572,1490.25,383.5572,1504.25,383.5572" style="stroke: #A80036; stroke-width: 1.0;"/><path d="M1497.25,113.768 C1497.25,144.653 1497.25,193.487 1497.25,230.25 " fill="none" style="stroke: #A80036; stroke-width: 1.0;"/><polygon fill="none" points="1504.25,230.273,1497.25,250.273,1490.25,230.273,1504.25,230.273" style="stroke: #A80036; stroke-width: 1.0;"/></g></svg>