<?xml version="1.0" encoding="UTF-8" standalone="no"?><svg xmlns="http://www.w3.org/2000/svg" xmlns:xlink="http://www.w3.org/1999/xlink" contentScriptType="application/ecmascript" contentStyleType="text/css" height="570px" preserveAspectRatio="none" style="width:2089px;height:570px;" version="1.1" viewBox="0 0 2089 570" width="2089px" zoomAndPan="magnify"><defs><filter height="300%" id="f4wdgmb" width="300%" x="-1" y="-1"><feGaussianBlur result="blurOut" stdDeviation="2.0"/><feColorMatrix in="blurOut" result="blurOut2" type="matrix" values="0 0 0 0 0 0 0 0 0 0 0 0 0 0 0 0 0 0 .4 0"/><feOffset dx="4.0" dy="4.0" in="blurOut2" result="blurOut3"/><feBlend in="SourceGraphic" in2="blurOut3" mode="normal"/></filter></defs><g><!--class globalize--><rect fill="#FEFECE" filter="url(#f4wdgmb)" height="48" style="stroke: #A80036; stroke-width: 1.5;" width="86" x="138.25" y="40"/><ellipse cx="153.25" cy="56" fill="#DA70D6" rx="11" ry="11" style="stroke: #A80036; stroke-width: 1.0;"/><path d="M153.0469,51.6719 L153.0469,55.2969 L154.0469,55.2969 Q155.25,55.2969 155.7344,54.8906 Q156.2188,54.4844 156.2188,53.4844 Q156.2188,52.4844 155.7344,52.0781 Q155.25,51.6719 154.0469,51.6719 L153.0469,51.6719 Z M150.5938,49.6094 L153.9531,49.6094 Q156.5156,49.6094 157.6406,50.5234 Q158.7656,51.4375 158.7656,53.4844 Q158.7656,55.5313 157.6406,56.4453 Q156.5156,57.3594 153.9531,57.3594 L153.0469,57.3594 L153.0469,62 L150.5938,62 L150.5938,49.6094 Z "/><text fill="#000000" font-family="sans-serif" font-size="12" lengthAdjust="spacingAndGlyphs" textLength="54" x="167.25" y="60.1543">globalize</text><line style="stroke: #A80036; stroke-width: 1.5;" x1="139.25" x2="223.25" y1="72" y2="72"/><line style="stroke: #A80036; stroke-width: 1.5;" x1="139.25" x2="223.25" y1="80" y2="80"/><!--class ModelUtil--><rect fill="#FEFECE" filter="url(#f4wdgmb)" height="99.2188" style="stroke: #A80036; stroke-width: 1.5;" width="214" x="341.75" y="14.5"/><ellipse cx="416" cy="30.5" fill="#ADD1B2" rx="11" ry="11" style="stroke: #A80036; stroke-width: 1.0;"/><path d="M418.9688,36.1406 Q418.3906,36.4375 417.75,36.5859 Q417.1094,36.7344 416.4063,36.7344 Q413.9063,36.7344 412.5859,35.0859 Q411.2656,33.4375 411.2656,30.3125 Q411.2656,27.1875 412.5859,25.5313 Q413.9063,23.875 416.4063,23.875 Q417.1094,23.875 417.7578,24.0313 Q418.4063,24.1875 418.9688,24.4844 L418.9688,27.2031 Q418.3438,26.625 417.75,26.3516 Q417.1563,26.0781 416.5313,26.0781 Q415.1875,26.0781 414.5,27.1484 Q413.8125,28.2188 413.8125,30.3125 Q413.8125,32.4063 414.5,33.4766 Q415.1875,34.5469 416.5313,34.5469 Q417.1563,34.5469 417.75,34.2734 Q418.3438,34 418.9688,33.4219 L418.9688,36.1406 Z "/><text fill="#000000" font-family="sans-serif" font-size="12" lengthAdjust="spacingAndGlyphs" textLength="57" x="436.5" y="34.6543">ModelUtil</text><line style="stroke: #A80036; stroke-width: 1.5;" x1="342.75" x2="554.75" y1="46.5" y2="46.5"/><line style="stroke: #A80036; stroke-width: 1.5;" x1="342.75" x2="554.75" y1="54.5" y2="54.5"/><rect fill="#F24D5C" height="6" style="stroke: #C82930; stroke-width: 1.0;" width="6" x="349.75" y="63.4023"/><text fill="#000000" font-family="sans-serif" font-size="11" lengthAdjust="spacingAndGlyphs" textLength="160" x="361.75" y="68.7104">string getShortName(string)</text><rect fill="#F24D5C" height="6" style="stroke: #C82930; stroke-width: 1.0;" width="6" x="349.75" y="76.207"/><text fill="#000000" font-family="sans-serif" font-size="11" lengthAdjust="spacingAndGlyphs" textLength="163" x="361.75" y="81.5151">string getNamespace(string)</text><rect fill="#F24D5C" height="6" style="stroke: #C82930; stroke-width: 1.0;" width="6" x="349.75" y="89.0117"/><text fill="#000000" font-family="sans-serif" font-size="11" lengthAdjust="spacingAndGlyphs" textLength="176" x="361.75" y="94.3198">boolean isPrimitiveType(string)</text><rect fill="#F24D5C" height="6" style="stroke: #C82930; stroke-width: 1.0;" width="6" x="349.75" y="101.8164"/><text fill="#000000" font-family="sans-serif" font-size="11" lengthAdjust="spacingAndGlyphs" textLength="188" x="361.75" y="107.1245">string capitalizeFirstLetter(string)</text><!--class parser--><rect fill="#FEFECE" filter="url(#f4wdgmb)" height="48" style="stroke: #A80036; stroke-width: 1.5;" width="73" x="632" y="40"/><ellipse cx="647" cy="56" fill="#DA70D6" rx="11" ry="11" style="stroke: #A80036; stroke-width: 1.0;"/><path d="M646.7969,51.6719 L646.7969,55.2969 L647.7969,55.2969 Q649,55.2969 649.4844,54.8906 Q649.9688,54.4844 649.9688,53.4844 Q649.9688,52.4844 649.4844,52.0781 Q649,51.6719 647.7969,51.6719 L646.7969,51.6719 Z M644.3438,49.6094 L647.7031,49.6094 Q650.2656,49.6094 651.3906,50.5234 Q652.5156,51.4375 652.5156,53.4844 Q652.5156,55.5313 651.3906,56.4453 Q650.2656,57.3594 647.7031,57.3594 L646.7969,57.3594 L646.7969,62 L644.3438,62 L644.3438,49.6094 Z "/><text fill="#000000" font-family="sans-serif" font-size="12" lengthAdjust="spacingAndGlyphs" textLength="41" x="661" y="60.1543">parser</text><line style="stroke: #A80036; stroke-width: 1.5;" x1="633" x2="704" y1="72" y2="72"/><line style="stroke: #A80036; stroke-width: 1.5;" x1="633" x2="704" y1="80" y2="80"/><!--class Property--><rect fill="#FEFECE" filter="url(#f4wdgmb)" height="137.6328" style="stroke: #A80036; stroke-width: 1.5;" width="201" x="763" y="302"/><ellipse cx="832.75" cy="318" fill="#ADD1B2" rx="11" ry="11" style="stroke: #A80036; stroke-width: 1.0;"/><path d="M835.7188,323.6406 Q835.1406,323.9375 834.5,324.0859 Q833.8594,324.2344 833.1563,324.2344 Q830.6563,324.2344 829.3359,322.5859 Q828.0156,320.9375 828.0156,317.8125 Q828.0156,314.6875 829.3359,313.0313 Q830.6563,311.375 833.1563,311.375 Q833.8594,311.375 834.5078,311.5313 Q835.1563,311.6875 835.7188,311.9844 L835.7188,314.7031 Q835.0938,314.125 834.5,313.8516 Q833.9063,313.5781 833.2813,313.5781 Q831.9375,313.5781 831.25,314.6484 Q830.5625,315.7188 830.5625,317.8125 Q830.5625,319.9063 831.25,320.9766 Q831.9375,322.0469 833.2813,322.0469 Q833.9063,322.0469 834.5,321.7734 Q835.0938,321.5 835.7188,320.9219 L835.7188,323.6406 Z "/><text fill="#000000" font-family="sans-serif" font-size="12" lengthAdjust="spacingAndGlyphs" textLength="53" x="853.25" y="322.1543">Property</text><line style="stroke: #A80036; stroke-width: 1.5;" x1="764" x2="963" y1="334" y2="334"/><line style="stroke: #A80036; stroke-width: 1.5;" x1="764" x2="963" y1="342" y2="342"/><ellipse cx="774" cy="353.9023" fill="#84BE84" rx="3" ry="3" style="stroke: #038048; stroke-width: 1.0;"/><text fill="#000000" font-family="sans-serif" font-size="11" lengthAdjust="spacingAndGlyphs" textLength="136" x="783" y="356.2104">void constructor(Object)</text><rect fill="#F24D5C" height="6" style="stroke: #C82930; stroke-width: 1.0;" width="6" x="771" y="363.707"/><text fill="#000000" font-family="sans-serif" font-size="11" lengthAdjust="spacingAndGlyphs" textLength="161" x="783" y="369.0151">Object accept(Object,Object)</text><rect fill="#F24D5C" height="6" style="stroke: #C82930; stroke-width: 1.0;" width="6" x="771" y="376.5117"/><text fill="#000000" font-family="sans-serif" font-size="11" lengthAdjust="spacingAndGlyphs" textLength="81" x="783" y="381.8198">void process()</text><rect fill="#F24D5C" height="6" style="stroke: #C82930; stroke-width: 1.0;" width="6" x="771" y="389.3164"/><text fill="#000000" font-family="sans-serif" font-size="11" lengthAdjust="spacingAndGlyphs" textLength="175" x="783" y="394.6245">void validate(ClassDeclaration)</text><ellipse cx="774" cy="405.1211" fill="#84BE84" rx="3" ry="3" style="stroke: #038048; stroke-width: 1.0;"/><text fill="#000000" font-family="sans-serif" font-size="11" lengthAdjust="spacingAndGlyphs" textLength="96" x="783" y="407.4292">string getName()</text><ellipse cx="774" cy="417.9258" fill="#84BE84" rx="3" ry="3" style="stroke: #038048; stroke-width: 1.0;"/><text fill="#000000" font-family="sans-serif" font-size="11" lengthAdjust="spacingAndGlyphs" textLength="90" x="783" y="420.2339">string getType()</text><ellipse cx="774" cy="430.7305" fill="#84BE84" rx="3" ry="3" style="stroke: #038048; stroke-width: 1.0;"/><text fill="#000000" font-family="sans-serif" font-size="11" lengthAdjust="spacingAndGlyphs" textLength="97" x="783" y="433.0386">boolean isArray()</text><!--class Field--><rect fill="#FEFECE" filter="url(#f4wdgmb)" height="112.0234" style="stroke: #A80036; stroke-width: 1.5;" width="162" x="761.25" y="8"/><ellipse cx="823.5" cy="24" fill="#ADD1B2" rx="11" ry="11" style="stroke: #A80036; stroke-width: 1.0;"/><path d="M826.4688,29.6406 Q825.8906,29.9375 825.25,30.0859 Q824.6094,30.2344 823.9063,30.2344 Q821.4063,30.2344 820.0859,28.5859 Q818.7656,26.9375 818.7656,23.8125 Q818.7656,20.6875 820.0859,19.0313 Q821.4063,17.375 823.9063,17.375 Q824.6094,17.375 825.2578,17.5313 Q825.9063,17.6875 826.4688,17.9844 L826.4688,20.7031 Q825.8438,20.125 825.25,19.8516 Q824.6563,19.5781 824.0313,19.5781 Q822.6875,19.5781 822,20.6484 Q821.3125,21.7188 821.3125,23.8125 Q821.3125,25.9063 822,26.9766 Q822.6875,28.0469 824.0313,28.0469 Q824.6563,28.0469 825.25,27.7734 Q825.8438,27.5 826.4688,26.9219 L826.4688,29.6406 Z "/><text fill="#000000" font-family="sans-serif" font-size="12" lengthAdjust="spacingAndGlyphs" textLength="29" x="844" y="28.1543">Field</text><line style="stroke: #A80036; stroke-width: 1.5;" x1="762.25" x2="922.25" y1="40" y2="40"/><line style="stroke: #A80036; stroke-width: 1.5;" x1="762.25" x2="922.25" y1="48" y2="48"/><ellipse cx="772.25" cy="59.9023" fill="#84BE84" rx="3" ry="3" style="stroke: #038048; stroke-width: 1.0;"/><text fill="#000000" font-family="sans-serif" font-size="11" lengthAdjust="spacingAndGlyphs" textLength="136" x="781.25" y="62.2104">void constructor(Object)</text><rect fill="#F24D5C" height="6" style="stroke: #C82930; stroke-width: 1.0;" width="6" x="769.25" y="69.707"/><text fill="#000000" font-family="sans-serif" font-size="11" lengthAdjust="spacingAndGlyphs" textLength="81" x="781.25" y="75.0151">void process()</text><ellipse cx="772.25" cy="85.5117" fill="#84BE84" rx="3" ry="3" style="stroke: #038048; stroke-width: 1.0;"/><text fill="#000000" font-family="sans-serif" font-size="11" lengthAdjust="spacingAndGlyphs" textLength="113" x="781.25" y="87.8198">string getValidator()</text><ellipse cx="772.25" cy="98.3164" fill="#84BE84" rx="3" ry="3" style="stroke: #038048; stroke-width: 1.0;"/><text fill="#000000" font-family="sans-serif" font-size="11" lengthAdjust="spacingAndGlyphs" textLength="114" x="781.25" y="100.6245">boolean isOptional()</text><ellipse cx="772.25" cy="111.1211" fill="#84BE84" rx="3" ry="3" style="stroke: #038048; stroke-width: 1.0;"/><text fill="#000000" font-family="sans-serif" font-size="11" lengthAdjust="spacingAndGlyphs" textLength="134" x="781.25" y="113.4292">string getDefaultValue()</text><!--class Relationship--><rect fill="#FEFECE" filter="url(#f4wdgmb)" height="60.8047" style="stroke: #A80036; stroke-width: 1.5;" width="162" x="958.25" y="33.5"/><ellipse cx="997.1" cy="49.5" fill="#ADD1B2" rx="11" ry="11" style="stroke: #A80036; stroke-width: 1.0;"/><path d="M1000.0688,55.1406 Q999.4906,55.4375 998.85,55.5859 Q998.2094,55.7344 997.5063,55.7344 Q995.0063,55.7344 993.6859,54.0859 Q992.3656,52.4375 992.3656,49.3125 Q992.3656,46.1875 993.6859,44.5313 Q995.0063,42.875 997.5063,42.875 Q998.2094,42.875 998.8578,43.0313 Q999.5063,43.1875 1000.0688,43.4844 L1000.0688,46.2031 Q999.4438,45.625 998.85,45.3516 Q998.2563,45.0781 997.6313,45.0781 Q996.2875,45.0781 995.6,46.1484 Q994.9125,47.2188 994.9125,49.3125 Q994.9125,51.4063 995.6,52.4766 Q996.2875,53.5469 997.6313,53.5469 Q998.2563,53.5469 998.85,53.2734 Q999.4438,53 1000.0688,52.4219 L1000.0688,55.1406 Z "/><text fill="#000000" font-family="sans-serif" font-size="12" lengthAdjust="spacingAndGlyphs" textLength="77" x="1016.4" y="53.6543">Relationship</text><line style="stroke: #A80036; stroke-width: 1.5;" x1="959.25" x2="1119.25" y1="65.5" y2="65.5"/><line style="stroke: #A80036; stroke-width: 1.5;" x1="959.25" x2="1119.25" y1="73.5" y2="73.5"/><ellipse cx="969.25" cy="85.4023" fill="#84BE84" rx="3" ry="3" style="stroke: #038048; stroke-width: 1.0;"/><text fill="#000000" font-family="sans-serif" font-size="11" lengthAdjust="spacingAndGlyphs" textLength="136" x="978.25" y="87.7104">void constructor(Object)</text><!--class IllegalModelException--><rect fill="#FEFECE" filter="url(#f4wdgmb)" height="60.8047" style="stroke: #A80036; stroke-width: 1.5;" width="166" x="1155.25" y="33.5"/><ellipse cx="1170.25" cy="49.5" fill="#ADD1B2" rx="11" ry="11" style="stroke: #A80036; stroke-width: 1.0;"/><path d="M1173.2188,55.1406 Q1172.6406,55.4375 1172,55.5859 Q1171.3594,55.7344 1170.6563,55.7344 Q1168.1563,55.7344 1166.8359,54.0859 Q1165.5156,52.4375 1165.5156,49.3125 Q1165.5156,46.1875 1166.8359,44.5313 Q1168.1563,42.875 1170.6563,42.875 Q1171.3594,42.875 1172.0078,43.0313 Q1172.6563,43.1875 1173.2188,43.4844 L1173.2188,46.2031 Q1172.5938,45.625 1172,45.3516 Q1171.4063,45.0781 1170.7813,45.0781 Q1169.4375,45.0781 1168.75,46.1484 Q1168.0625,47.2188 1168.0625,49.3125 Q1168.0625,51.4063 1168.75,52.4766 Q1169.4375,53.5469 1170.7813,53.5469 Q1171.4063,53.5469 1172,53.2734 Q1172.5938,53 1173.2188,52.4219 L1173.2188,55.1406 Z "/><text fill="#000000" font-family="sans-serif" font-size="12" lengthAdjust="spacingAndGlyphs" textLength="134" x="1184.25" y="53.6543">IllegalModelException</text><line style="stroke: #A80036; stroke-width: 1.5;" x1="1156.25" x2="1320.25" y1="65.5" y2="65.5"/><line style="stroke: #A80036; stroke-width: 1.5;" x1="1156.25" x2="1320.25" y1="73.5" y2="73.5"/><ellipse cx="1166.25" cy="85.4023" fill="#84BE84" rx="3" ry="3" style="stroke: #038048; stroke-width: 1.0;"/><text fill="#000000" font-family="sans-serif" font-size="11" lengthAdjust="spacingAndGlyphs" textLength="133" x="1175.25" y="87.7104">void constructor(string)</text><!--class BaseException--><rect fill="#FEFECE" filter="url(#f4wdgmb)" height="48" style="stroke: #A80036; stroke-width: 1.5;" width="124" x="1176.75" y="347"/><ellipse cx="1191.75" cy="363" fill="#ADD1B2" rx="11" ry="11" style="stroke: #A80036; stroke-width: 1.0;"/><path d="M1194.7188,368.6406 Q1194.1406,368.9375 1193.5,369.0859 Q1192.8594,369.2344 1192.1563,369.2344 Q1189.6563,369.2344 1188.3359,367.5859 Q1187.0156,365.9375 1187.0156,362.8125 Q1187.0156,359.6875 1188.3359,358.0313 Q1189.6563,356.375 1192.1563,356.375 Q1192.8594,356.375 1193.5078,356.5313 Q1194.1563,356.6875 1194.7188,356.9844 L1194.7188,359.7031 Q1194.0938,359.125 1193.5,358.8516 Q1192.9063,358.5781 1192.2813,358.5781 Q1190.9375,358.5781 1190.25,359.6484 Q1189.5625,360.7188 1189.5625,362.8125 Q1189.5625,364.9063 1190.25,365.9766 Q1190.9375,367.0469 1192.2813,367.0469 Q1192.9063,367.0469 1193.5,366.7734 Q1194.0938,366.5 1194.7188,365.9219 L1194.7188,368.6406 Z "/><text fill="#000000" font-family="sans-serif" font-size="12" lengthAdjust="spacingAndGlyphs" textLength="92" x="1205.75" y="367.1543">BaseException</text><line style="stroke: #A80036; stroke-width: 1.5;" x1="1177.75" x2="1299.75" y1="379" y2="379"/><line style="stroke: #A80036; stroke-width: 1.5;" x1="1177.75" x2="1299.75" y1="387" y2="387"/><!--class ClassDeclaration--><rect fill="#FEFECE" filter="url(#f4wdgmb)" height="214.4609" style="stroke: #A80036; stroke-width: 1.5;" width="215" x="1611" y="264"/><ellipse cx="1661.75" cy="280" fill="#ADD1B2" rx="11" ry="11" style="stroke: #A80036; stroke-width: 1.0;"/><path d="M1664.7188,285.6406 Q1664.1406,285.9375 1663.5,286.0859 Q1662.8594,286.2344 1662.1563,286.2344 Q1659.6563,286.2344 1658.3359,284.5859 Q1657.0156,282.9375 1657.0156,279.8125 Q1657.0156,276.6875 1658.3359,275.0313 Q1659.6563,273.375 1662.1563,273.375 Q1662.8594,273.375 1663.5078,273.5313 Q1664.1563,273.6875 1664.7188,273.9844 L1664.7188,276.7031 Q1664.0938,276.125 1663.5,275.8516 Q1662.9063,275.5781 1662.2813,275.5781 Q1660.9375,275.5781 1660.25,276.6484 Q1659.5625,277.7188 1659.5625,279.8125 Q1659.5625,281.9063 1660.25,282.9766 Q1660.9375,284.0469 1662.2813,284.0469 Q1662.9063,284.0469 1663.5,283.7734 Q1664.0938,283.5 1664.7188,282.9219 L1664.7188,285.6406 Z "/><text fill="#000000" font-family="sans-serif" font-size="12" lengthAdjust="spacingAndGlyphs" textLength="105" x="1682.25" y="284.1543">ClassDeclaration</text><line style="stroke: #A80036; stroke-width: 1.5;" x1="1612" x2="1825" y1="296" y2="296"/><line style="stroke: #A80036; stroke-width: 1.5;" x1="1612" x2="1825" y1="304" y2="304"/><ellipse cx="1622" cy="315.9023" fill="#84BE84" rx="3" ry="3" style="stroke: #038048; stroke-width: 1.0;"/><text fill="#000000" font-family="sans-serif" font-size="11" lengthAdjust="spacingAndGlyphs" textLength="189" x="1631" y="318.2104">void constructor(ModelFile,string)</text><rect fill="#F24D5C" height="6" style="stroke: #C82930; stroke-width: 1.0;" width="6" x="1619" y="325.707"/><text fill="#000000" font-family="sans-serif" font-size="11" lengthAdjust="spacingAndGlyphs" textLength="161" x="1631" y="331.0151">Object accept(Object,Object)</text><ellipse cx="1622" cy="341.5117" fill="#84BE84" rx="3" ry="3" style="stroke: #038048; stroke-width: 1.0;"/><text fill="#000000" font-family="sans-serif" font-size="11" lengthAdjust="spacingAndGlyphs" textLength="134" x="1631" y="343.8198">ModelFile getModelFile()</text><rect fill="#F24D5C" height="6" style="stroke: #C82930; stroke-width: 1.0;" width="6" x="1619" y="351.3164"/><text fill="#000000" font-family="sans-serif" font-size="11" lengthAdjust="spacingAndGlyphs" textLength="81" x="1631" y="356.6245">void process()</text><rect fill="#F24D5C" height="6" style="stroke: #C82930; stroke-width: 1.0;" width="6" x="1619" y="364.1211"/><text fill="#000000" font-family="sans-serif" font-size="11" lengthAdjust="spacingAndGlyphs" textLength="79" x="1631" y="369.4292">void validate()</text><ellipse cx="1622" cy="379.9258" fill="#84BE84" rx="3" ry="3" style="stroke: #038048; stroke-width: 1.0;"/><text fill="#000000" font-family="sans-serif" font-size="11" lengthAdjust="spacingAndGlyphs" textLength="96" x="1631" y="382.2339">string getName()</text><ellipse cx="1622" cy="392.7305" fill="#84BE84" rx="3" ry="3" style="stroke: #038048; stroke-width: 1.0;"/><text fill="#000000" font-family="sans-serif" font-size="11" lengthAdjust="spacingAndGlyphs" textLength="171" x="1631" y="395.0386">string getFullyQualifiedName()</text><ellipse cx="1622" cy="405.5352" fill="#84BE84" rx="3" ry="3" style="stroke: #038048; stroke-width: 1.0;"/><text fill="#000000" font-family="sans-serif" font-size="11" lengthAdjust="spacingAndGlyphs" textLength="172" x="1631" y="407.8433">string getIdentifierFieldName()</text><ellipse cx="1622" cy="418.3398" fill="#84BE84" rx="3" ry="3" style="stroke: #038048; stroke-width: 1.0;"/><text fill="#000000" font-family="sans-serif" font-size="11" lengthAdjust="spacingAndGlyphs" textLength="140" x="1631" y="420.6479">Field getOwnField(string)</text><ellipse cx="1622" cy="431.1445" fill="#84BE84" rx="3" ry="3" style="stroke: #038048; stroke-width: 1.0;"/><text fill="#000000" font-family="sans-serif" font-size="11" lengthAdjust="spacingAndGlyphs" textLength="122" x="1631" y="433.4526">Field[] getOwnFields()</text><ellipse cx="1622" cy="443.9492" fill="#84BE84" rx="3" ry="3" style="stroke: #038048; stroke-width: 1.0;"/><text fill="#000000" font-family="sans-serif" font-size="11" lengthAdjust="spacingAndGlyphs" textLength="124" x="1631" y="446.2573">string getSuperType()</text><ellipse cx="1622" cy="456.7539" fill="#84BE84" rx="3" ry="3" style="stroke: #038048; stroke-width: 1.0;"/><text fill="#000000" font-family="sans-serif" font-size="11" lengthAdjust="spacingAndGlyphs" textLength="115" x="1631" y="459.062">Field getField(string)</text><ellipse cx="1622" cy="469.5586" fill="#84BE84" rx="3" ry="3" style="stroke: #038048; stroke-width: 1.0;"/><text fill="#000000" font-family="sans-serif" font-size="11" lengthAdjust="spacingAndGlyphs" textLength="97" x="1631" y="471.8667">Field[] getFields()</text><!--class AssetDeclaration--><rect fill="#FEFECE" filter="url(#f4wdgmb)" height="60.8047" style="stroke: #A80036; stroke-width: 1.5;" width="218" x="1356.25" y="33.5"/><ellipse cx="1407.5" cy="49.5" fill="#ADD1B2" rx="11" ry="11" style="stroke: #A80036; stroke-width: 1.0;"/><path d="M1410.4688,55.1406 Q1409.8906,55.4375 1409.25,55.5859 Q1408.6094,55.7344 1407.9063,55.7344 Q1405.4063,55.7344 1404.0859,54.0859 Q1402.7656,52.4375 1402.7656,49.3125 Q1402.7656,46.1875 1404.0859,44.5313 Q1405.4063,42.875 1407.9063,42.875 Q1408.6094,42.875 1409.2578,43.0313 Q1409.9063,43.1875 1410.4688,43.4844 L1410.4688,46.2031 Q1409.8438,45.625 1409.25,45.3516 Q1408.6563,45.0781 1408.0313,45.0781 Q1406.6875,45.0781 1406,46.1484 Q1405.3125,47.2188 1405.3125,49.3125 Q1405.3125,51.4063 1406,52.4766 Q1406.6875,53.5469 1408.0313,53.5469 Q1408.6563,53.5469 1409.25,53.2734 Q1409.8438,53 1410.4688,52.4219 L1410.4688,55.1406 Z "/><text fill="#000000" font-family="sans-serif" font-size="12" lengthAdjust="spacingAndGlyphs" textLength="107" x="1428" y="53.6543">AssetDeclaration</text><line style="stroke: #A80036; stroke-width: 1.5;" x1="1357.25" x2="1573.25" y1="65.5" y2="65.5"/><line style="stroke: #A80036; stroke-width: 1.5;" x1="1357.25" x2="1573.25" y1="73.5" y2="73.5"/><ellipse cx="1367.25" cy="85.4023" fill="#84BE84" rx="3" ry="3" style="stroke: #038048; stroke-width: 1.0;"/><text fill="#000000" font-family="sans-serif" font-size="11" lengthAdjust="spacingAndGlyphs" textLength="192" x="1376.25" y="87.7104">void constructor(ModelFile,Object)</text><!--class ParticipantDeclaration--><rect fill="#FEFECE" filter="url(#f4wdgmb)" height="60.8047" style="stroke: #A80036; stroke-width: 1.5;" width="218" x="1609.25" y="33.5"/><ellipse cx="1644.95" cy="49.5" fill="#ADD1B2" rx="11" ry="11" style="stroke: #A80036; stroke-width: 1.0;"/><path d="M1647.9188,55.1406 Q1647.3406,55.4375 1646.7,55.5859 Q1646.0594,55.7344 1645.3563,55.7344 Q1642.8563,55.7344 1641.5359,54.0859 Q1640.2156,52.4375 1640.2156,49.3125 Q1640.2156,46.1875 1641.5359,44.5313 Q1642.8563,42.875 1645.3563,42.875 Q1646.0594,42.875 1646.7078,43.0313 Q1647.3563,43.1875 1647.9188,43.4844 L1647.9188,46.2031 Q1647.2938,45.625 1646.7,45.3516 Q1646.1063,45.0781 1645.4813,45.0781 Q1644.1375,45.0781 1643.45,46.1484 Q1642.7625,47.2188 1642.7625,49.3125 Q1642.7625,51.4063 1643.45,52.4766 Q1644.1375,53.5469 1645.4813,53.5469 Q1646.1063,53.5469 1646.7,53.2734 Q1647.2938,53 1647.9188,52.4219 L1647.9188,55.1406 Z "/><text fill="#000000" font-family="sans-serif" font-size="12" lengthAdjust="spacingAndGlyphs" textLength="140" x="1663.55" y="53.6543">ParticipantDeclaration</text><line style="stroke: #A80036; stroke-width: 1.5;" x1="1610.25" x2="1826.25" y1="65.5" y2="65.5"/><line style="stroke: #A80036; stroke-width: 1.5;" x1="1610.25" x2="1826.25" y1="73.5" y2="73.5"/><ellipse cx="1620.25" cy="85.4023" fill="#84BE84" rx="3" ry="3" style="stroke: #038048; stroke-width: 1.0;"/><text fill="#000000" font-family="sans-serif" font-size="11" lengthAdjust="spacingAndGlyphs" textLength="192" x="1629.25" y="87.7104">void constructor(ModelFile,Object)</text><!--class TransactionDeclaration--><rect fill="#FEFECE" filter="url(#f4wdgmb)" height="73.6094" style="stroke: #A80036; stroke-width: 1.5;" width="218" x="1862.25" y="27"/><ellipse cx="1895.25" cy="43" fill="#ADD1B2" rx="11" ry="11" style="stroke: #A80036; stroke-width: 1.0;"/><path d="M1898.2188,48.6406 Q1897.6406,48.9375 1897,49.0859 Q1896.3594,49.2344 1895.6563,49.2344 Q1893.1563,49.2344 1891.8359,47.5859 Q1890.5156,45.9375 1890.5156,42.8125 Q1890.5156,39.6875 1891.8359,38.0313 Q1893.1563,36.375 1895.6563,36.375 Q1896.3594,36.375 1897.0078,36.5313 Q1897.6563,36.6875 1898.2188,36.9844 L1898.2188,39.7031 Q1897.5938,39.125 1897,38.8516 Q1896.4063,38.5781 1895.7813,38.5781 Q1894.4375,38.5781 1893.75,39.6484 Q1893.0625,40.7188 1893.0625,42.8125 Q1893.0625,44.9063 1893.75,45.9766 Q1894.4375,47.0469 1895.7813,47.0469 Q1896.4063,47.0469 1897,46.7734 Q1897.5938,46.5 1898.2188,45.9219 L1898.2188,48.6406 Z "/><text fill="#000000" font-family="sans-serif" font-size="12" lengthAdjust="spacingAndGlyphs" textLength="146" x="1913.25" y="47.1543">TransactionDeclaration</text><line style="stroke: #A80036; stroke-width: 1.5;" x1="1863.25" x2="2079.25" y1="59" y2="59"/><line style="stroke: #A80036; stroke-width: 1.5;" x1="1863.25" x2="2079.25" y1="67" y2="67"/><ellipse cx="1873.25" cy="78.9023" fill="#84BE84" rx="3" ry="3" style="stroke: #038048; stroke-width: 1.0;"/><text fill="#000000" font-family="sans-serif" font-size="11" lengthAdjust="spacingAndGlyphs" textLength="192" x="1882.25" y="81.2104">void constructor(ModelFile,Object)</text><rect fill="#F24D5C" height="6" style="stroke: #C82930; stroke-width: 1.0;" width="6" x="1870.25" y="88.707"/><text fill="#000000" font-family="sans-serif" font-size="11" lengthAdjust="spacingAndGlyphs" textLength="162" x="1882.25" y="94.0151">void getIdentifierFieldName()</text><!--class ModelFile--><rect fill="#FEFECE" filter="url(#f4wdgmb)" height="380.9219" style="stroke: #A80036; stroke-width: 1.5;" width="351" x="6" y="180.5"/><ellipse cx="148.25" cy="196.5" fill="#ADD1B2" rx="11" ry="11" style="stroke: #A80036; stroke-width: 1.0;"/><path d="M151.2188,202.1406 Q150.6406,202.4375 150,202.5859 Q149.3594,202.7344 148.6563,202.7344 Q146.1563,202.7344 144.8359,201.0859 Q143.5156,199.4375 143.5156,196.3125 Q143.5156,193.1875 144.8359,191.5313 Q146.1563,189.875 148.6563,189.875 Q149.3594,189.875 150.0078,190.0313 Q150.6563,190.1875 151.2188,190.4844 L151.2188,193.2031 Q150.5938,192.625 150,192.3516 Q149.4063,192.0781 148.7813,192.0781 Q147.4375,192.0781 146.75,193.1484 Q146.0625,194.2188 146.0625,196.3125 Q146.0625,198.4063 146.75,199.4766 Q147.4375,200.5469 148.7813,200.5469 Q149.4063,200.5469 150,200.2734 Q150.5938,200 151.2188,199.4219 L151.2188,202.1406 Z "/><text fill="#000000" font-family="sans-serif" font-size="12" lengthAdjust="spacingAndGlyphs" textLength="58" x="168.75" y="200.6543">ModelFile</text><line style="stroke: #A80036; stroke-width: 1.5;" x1="7" x2="356" y1="212.5" y2="212.5"/><line style="stroke: #A80036; stroke-width: 1.5;" x1="7" x2="356" y1="220.5" y2="220.5"/><ellipse cx="17" cy="232.4023" fill="#84BE84" rx="3" ry="3" style="stroke: #038048; stroke-width: 1.0;"/><text fill="#000000" font-family="sans-serif" font-size="11" lengthAdjust="spacingAndGlyphs" textLength="238" x="26" y="234.7104">ModelFile fromJSON(ModelManager,string)</text><ellipse cx="17" cy="245.207" fill="#84BE84" rx="3" ry="3" style="stroke: #038048; stroke-width: 1.0;"/><text fill="#000000" font-family="sans-serif" font-size="11" lengthAdjust="spacingAndGlyphs" textLength="293" x="26" y="247.5151">void constructor(ModelManager,string,string,string)</text><rect fill="#F24D5C" height="6" style="stroke: #C82930; stroke-width: 1.0;" width="6" x="14" y="255.0117"/><text fill="#000000" font-family="sans-serif" font-size="11" lengthAdjust="spacingAndGlyphs" textLength="161" x="26" y="260.3198">Object accept(Object,Object)</text><ellipse cx="17" cy="270.8164" fill="#84BE84" rx="3" ry="3" style="stroke: #038048; stroke-width: 1.0;"/><text fill="#000000" font-family="sans-serif" font-size="11" lengthAdjust="spacingAndGlyphs" textLength="194" x="26" y="273.1245">ModelManager getModelManager()</text><ellipse cx="17" cy="283.6211" fill="#84BE84" rx="3" ry="3" style="stroke: #038048; stroke-width: 1.0;"/><text fill="#000000" font-family="sans-serif" font-size="11" lengthAdjust="spacingAndGlyphs" textLength="115" x="26" y="285.9292">string[] getImports()</text><rect fill="#F24D5C" height="6" style="stroke: #C82930; stroke-width: 1.0;" width="6" x="14" y="293.4258"/><text fill="#000000" font-family="sans-serif" font-size="11" lengthAdjust="spacingAndGlyphs" textLength="79" x="26" y="298.7339">void validate()</text><rect fill="#F24D5C" height="6" style="stroke: #C82930; stroke-width: 1.0;" width="6" x="14" y="306.2305"/><text fill="#000000" font-family="sans-serif" font-size="11" lengthAdjust="spacingAndGlyphs" textLength="184" x="26" y="311.5386">string resolveType(string,string)</text><rect fill="#F24D5C" height="6" style="stroke: #C82930; stroke-width: 1.0;" width="6" x="14" y="319.0352"/><text fill="#000000" font-family="sans-serif" font-size="11" lengthAdjust="spacingAndGlyphs" textLength="156" x="26" y="324.3433">boolean isLocalType(string)</text><rect fill="#F24D5C" height="6" style="stroke: #C82930; stroke-width: 1.0;" width="6" x="14" y="331.8398"/><text fill="#000000" font-family="sans-serif" font-size="11" lengthAdjust="spacingAndGlyphs" textLength="178" x="26" y="337.1479">boolean isImportedType(string)</text><rect fill="#F24D5C" height="6" style="stroke: #C82930; stroke-width: 1.0;" width="6" x="14" y="344.6445"/><text fill="#000000" font-family="sans-serif" font-size="11" lengthAdjust="spacingAndGlyphs" textLength="157" x="26" y="349.9526">string resolveImport(string)</text><ellipse cx="17" cy="360.4492" fill="#84BE84" rx="3" ry="3" style="stroke: #038048; stroke-width: 1.0;"/><text fill="#000000" font-family="sans-serif" font-size="11" lengthAdjust="spacingAndGlyphs" textLength="143" x="26" y="362.7573">boolean isDefined(string)</text><ellipse cx="17" cy="373.2539" fill="#84BE84" rx="3" ry="3" style="stroke: #038048; stroke-width: 1.0;"/><text fill="#000000" font-family="sans-serif" font-size="11" lengthAdjust="spacingAndGlyphs" textLength="186" x="26" y="375.562">ClassDeclaration getType(string)</text><ellipse cx="17" cy="386.0586" fill="#84BE84" rx="3" ry="3" style="stroke: #038048; stroke-width: 1.0;"/><text fill="#000000" font-family="sans-serif" font-size="11" lengthAdjust="spacingAndGlyphs" textLength="255" x="26" y="388.3667">AssetDeclaration getAssetDeclaration(string)</text><ellipse cx="17" cy="398.8633" fill="#84BE84" rx="3" ry="3" style="stroke: #038048; stroke-width: 1.0;"/><text fill="#000000" font-family="sans-serif" font-size="11" lengthAdjust="spacingAndGlyphs" textLength="325" x="26" y="401.1714">TransactionDeclaration getTransactionDeclaration(string)</text><ellipse cx="17" cy="411.668" fill="#84BE84" rx="3" ry="3" style="stroke: #038048; stroke-width: 1.0;"/><text fill="#000000" font-family="sans-serif" font-size="11" lengthAdjust="spacingAndGlyphs" textLength="311" x="26" y="413.9761">ParticipantDeclaration getParticipantDeclaration(string)</text><ellipse cx="17" cy="424.4727" fill="#84BE84" rx="3" ry="3" style="stroke: #038048; stroke-width: 1.0;"/><text fill="#000000" font-family="sans-serif" font-size="11" lengthAdjust="spacingAndGlyphs" textLength="130" x="26" y="426.7808">string getNamespace()</text><ellipse cx="17" cy="437.2773" fill="#84BE84" rx="3" ry="3" style="stroke: #038048; stroke-width: 1.0;"/><text fill="#000000" font-family="sans-serif" font-size="11" lengthAdjust="spacingAndGlyphs" textLength="237" x="26" y="439.5854">AssetDeclaration[] getAssetDeclarations()</text><ellipse cx="17" cy="450.082" fill="#84BE84" rx="3" ry="3" style="stroke: #038048; stroke-width: 1.0;"/><text fill="#000000" font-family="sans-serif" font-size="11" lengthAdjust="spacingAndGlyphs" textLength="307" x="26" y="452.3901">TransactionDeclaration[] getTransactionDeclarations()</text><ellipse cx="17" cy="462.8867" fill="#84BE84" rx="3" ry="3" style="stroke: #038048; stroke-width: 1.0;"/><text fill="#000000" font-family="sans-serif" font-size="11" lengthAdjust="spacingAndGlyphs" textLength="293" x="26" y="465.1948">ParticipantDeclaration[] getParticipantDeclarations()</text><ellipse cx="17" cy="475.6914" fill="#84BE84" rx="3" ry="3" style="stroke: #038048; stroke-width: 1.0;"/><text fill="#000000" font-family="sans-serif" font-size="11" lengthAdjust="spacingAndGlyphs" textLength="252" x="26" y="477.9995">ClassDeclaration[] getDeclarations(Function)</text><ellipse cx="17" cy="488.4961" fill="#84BE84" rx="3" ry="3" style="stroke: #038048; stroke-width: 1.0;"/><text fill="#000000" font-family="sans-serif" font-size="11" lengthAdjust="spacingAndGlyphs" textLength="218" x="26" y="490.8042">ClassDeclaration[] getAllDeclarations()</text><ellipse cx="17" cy="501.3008" fill="#84BE84" rx="3" ry="3" style="stroke: #038048; stroke-width: 1.0;"/><text fill="#000000" font-family="sans-serif" font-size="11" lengthAdjust="spacingAndGlyphs" textLength="113" x="26" y="503.6089">string getIdentifier()</text><ellipse cx="17" cy="514.1055" fill="#84BE84" rx="3" ry="3" style="stroke: #038048; stroke-width: 1.0;"/><text fill="#000000" font-family="sans-serif" font-size="11" lengthAdjust="spacingAndGlyphs" textLength="96" x="26" y="516.4136">string getName()</text><ellipse cx="17" cy="526.9102" fill="#84BE84" rx="3" ry="3" style="stroke: #038048; stroke-width: 1.0;"/><text fill="#000000" font-family="sans-serif" font-size="11" lengthAdjust="spacingAndGlyphs" textLength="123" x="26" y="529.2183">string getDefinitions()</text><ellipse cx="17" cy="539.7148" fill="#84BE84" rx="3" ry="3" style="stroke: #038048; stroke-width: 1.0;"/><text fill="#000000" font-family="sans-serif" font-size="11" lengthAdjust="spacingAndGlyphs" textLength="87" x="26" y="542.0229">Object toJSON()</text><ellipse cx="17" cy="552.5195" fill="#84BE84" rx="3" ry="3" style="stroke: #038048; stroke-width: 1.0;"/><text fill="#000000" font-family="sans-serif" font-size="11" lengthAdjust="spacingAndGlyphs" textLength="118" x="26" y="554.8276">string toJSONString()</text><!--class ModelManager--><rect fill="#FEFECE" filter="url(#f4wdgmb)" height="163.2422" style="stroke: #A80036; stroke-width: 1.5;" width="241" x="424" y="289.5"/><ellipse cx="494.25" cy="305.5" fill="#ADD1B2" rx="11" ry="11" style="stroke: #A80036; stroke-width: 1.0;"/><path d="M497.2188,311.1406 Q496.6406,311.4375 496,311.5859 Q495.3594,311.7344 494.6563,311.7344 Q492.1563,311.7344 490.8359,310.0859 Q489.5156,308.4375 489.5156,305.3125 Q489.5156,302.1875 490.8359,300.5313 Q492.1563,298.875 494.6563,298.875 Q495.3594,298.875 496.0078,299.0313 Q496.6563,299.1875 497.2188,299.4844 L497.2188,302.2031 Q496.5938,301.625 496,301.3516 Q495.4063,301.0781 494.7813,301.0781 Q493.4375,301.0781 492.75,302.1484 Q492.0625,303.2188 492.0625,305.3125 Q492.0625,307.4063 492.75,308.4766 Q493.4375,309.5469 494.7813,309.5469 Q495.4063,309.5469 496,309.2734 Q496.5938,309 497.2188,308.4219 L497.2188,311.1406 Z "/><text fill="#000000" font-family="sans-serif" font-size="12" lengthAdjust="spacingAndGlyphs" textLength="92" x="514.75" y="309.6543">ModelManager</text><line style="stroke: #A80036; stroke-width: 1.5;" x1="425" x2="664" y1="321.5" y2="321.5"/><line style="stroke: #A80036; stroke-width: 1.5;" x1="425" x2="664" y1="329.5" y2="329.5"/><ellipse cx="435" cy="341.4023" fill="#84BE84" rx="3" ry="3" style="stroke: #038048; stroke-width: 1.0;"/><text fill="#000000" font-family="sans-serif" font-size="11" lengthAdjust="spacingAndGlyphs" textLength="100" x="444" y="343.7104">void constructor()</text><rect fill="#F24D5C" height="6" style="stroke: #C82930; stroke-width: 1.0;" width="6" x="432" y="351.207"/><text fill="#000000" font-family="sans-serif" font-size="11" lengthAdjust="spacingAndGlyphs" textLength="161" x="444" y="356.5151">Object accept(Object,Object)</text><ellipse cx="435" cy="367.0117" fill="#84BE84" rx="3" ry="3" style="stroke: #038048; stroke-width: 1.0;"/><text fill="#000000" font-family="sans-serif" font-size="11" lengthAdjust="spacingAndGlyphs" textLength="215" x="444" y="369.3198">void addModelFile(string,string,string)</text><ellipse cx="435" cy="379.8164" fill="#84BE84" rx="3" ry="3" style="stroke: #038048; stroke-width: 1.0;"/><text fill="#000000" font-family="sans-serif" font-size="11" lengthAdjust="spacingAndGlyphs" textLength="175" x="444" y="382.1245">void addModelFiles(ModelFile[])</text><ellipse cx="435" cy="392.6211" fill="#84BE84" rx="3" ry="3" style="stroke: #038048; stroke-width: 1.0;"/><text fill="#000000" font-family="sans-serif" font-size="11" lengthAdjust="spacingAndGlyphs" textLength="149" x="444" y="394.9292">ModelFile[] getModelFiles()</text><rect fill="#F24D5C" height="6" style="stroke: #C82930; stroke-width: 1.0;" width="6" x="432" y="402.4258"/><text fill="#000000" font-family="sans-serif" font-size="11" lengthAdjust="spacingAndGlyphs" textLength="184" x="444" y="407.7339">string resolveType(string,string)</text><ellipse cx="435" cy="418.2305" fill="#84BE84" rx="3" ry="3" style="stroke: #038048; stroke-width: 1.0;"/><text fill="#000000" font-family="sans-serif" font-size="11" lengthAdjust="spacingAndGlyphs" textLength="122" x="444" y="420.5386">void clearModelFiles()</text><ellipse cx="435" cy="431.0352" fill="#84BE84" rx="3" ry="3" style="stroke: #038048; stroke-width: 1.0;"/><text fill="#000000" font-family="sans-serif" font-size="11" lengthAdjust="spacingAndGlyphs" textLength="167" x="444" y="433.3433">ModelFile getModelFile(string)</text><ellipse cx="435" cy="443.8398" fill="#84BE84" rx="3" ry="3" style="stroke: #038048; stroke-width: 1.0;"/><text fill="#000000" font-family="sans-serif" font-size="11" lengthAdjust="spacingAndGlyphs" textLength="186" x="444" y="446.1479">ClassDeclaration getType(string)</text><path d="M846.053,120.233 C849.152,165.243 853.587,229.654 857.177,281.792 " fill="none" style="stroke: #A80036; stroke-width: 1.0;"/><polygon fill="none" points="864.166,281.399,858.556,301.832,850.199,282.36,864.166,281.399" style="stroke: #A80036; stroke-width: 1.0;"/><path d="M1022.21,94.522 C997.139,137.977 949.3,220.879 912.626,284.433 " fill="none" style="stroke: #A80036; stroke-width: 1.0;"/><polygon fill="none" points="918.666,287.973,902.607,301.797,906.54,280.975,918.666,287.973" style="stroke: #A80036; stroke-width: 1.0;"/><path d="M1238.25,94.522 C1238.25,148.565 1238.25,263.619 1238.25,326.592 " fill="none" style="stroke: #A80036; stroke-width: 1.0;"/><polygon fill="none" points="1245.25,326.868,1238.25,346.868,1231.25,326.868,1245.25,326.868" style="stroke: #A80036; stroke-width: 1.0;"/><path d="M1489.74,94.522 C1519.21,130.051 1570.56,191.95 1617.12,248.084 " fill="none" style="stroke: #A80036; stroke-width: 1.0;"/><polygon fill="none" points="1622.72,243.875,1630.1,263.737,1611.95,252.813,1622.72,243.875" style="stroke: #A80036; stroke-width: 1.0;"/><path d="M1718.25,94.522 C1718.25,129.064 1718.25,188.532 1718.25,243.394 " fill="none" style="stroke: #A80036; stroke-width: 1.0;"/><polygon fill="none" points="1725.25,243.737,1718.25,263.737,1711.25,243.737,1725.25,243.737" style="stroke: #A80036; stroke-width: 1.0;"/><path d="M1941.23,101.185 C1911.09,137.521 1862.96,195.546 1819.12,248.402 " fill="none" style="stroke: #A80036; stroke-width: 1.0;"/><polygon fill="none" points="1824.44,252.953,1806.28,263.878,1813.66,244.015,1824.44,252.953" style="stroke: #A80036; stroke-width: 1.0;"/></g></svg>