<?xml version="1.0" encoding="UTF-8" standalone="no"?><svg xmlns="http://www.w3.org/2000/svg" xmlns:xlink="http://www.w3.org/1999/xlink" contentScriptType="application/ecmascript" contentStyleType="text/css" height="781px" preserveAspectRatio="none" style="width:2613px;height:781px;" version="1.1" viewBox="0 0 2613 781" width="2613px" zoomAndPan="magnify"><defs><filter height="300%" id="fj228jy" width="300%" x="-1" y="-1"><feGaussianBlur result="blurOut" stdDeviation="2.0"/><feColorMatrix in="blurOut" result="blurOut2" type="matrix" values="0 0 0 0 0 0 0 0 0 0 0 0 0 0 0 0 0 0 .4 0"/><feOffset dx="4.0" dy="4.0" in="blurOut2" result="blurOut3"/><feBlend in="SourceGraphic" in2="blurOut3" mode="normal"/></filter></defs><g><!--class parser--><rect fill="#FEFECE" filter="url(#fj228jy)" height="48" style="stroke: #A80036; stroke-width: 1.5;" width="73" x="12.75" y="175"/><ellipse cx="27.75" cy="191" fill="#DA70D6" rx="11" ry="11" style="stroke: #A80036; stroke-width: 1.0;"/><path d="M27.5469,186.6719 L27.5469,190.2969 L28.5469,190.2969 Q29.75,190.2969 30.2344,189.8906 Q30.7188,189.4844 30.7188,188.4844 Q30.7188,187.4844 30.2344,187.0781 Q29.75,186.6719 28.5469,186.6719 L27.5469,186.6719 Z M25.0938,184.6094 L28.4531,184.6094 Q31.0156,184.6094 32.1406,185.5234 Q33.2656,186.4375 33.2656,188.4844 Q33.2656,190.5313 32.1406,191.4453 Q31.0156,192.3594 28.4531,192.3594 L27.5469,192.3594 L27.5469,197 L25.0938,197 L25.0938,184.6094 Z "/><text fill="#000000" font-family="sans-serif" font-size="12" lengthAdjust="spacingAndGlyphs" textLength="41" x="41.75" y="195.1543">parser</text><line style="stroke: #A80036; stroke-width: 1.5;" x1="13.75" x2="84.75" y1="207" y2="207"/><line style="stroke: #A80036; stroke-width: 1.5;" x1="13.75" x2="84.75" y1="215" y2="215"/><!--class Property--><rect fill="#FEFECE" filter="url(#fj228jy)" height="137.6328" style="stroke: #A80036; stroke-width: 1.5;" width="201" x="639.75" y="488"/><ellipse cx="709.5" cy="504" fill="#ADD1B2" rx="11" ry="11" style="stroke: #A80036; stroke-width: 1.0;"/><path d="M712.4688,509.6406 Q711.8906,509.9375 711.25,510.0859 Q710.6094,510.2344 709.9063,510.2344 Q707.4063,510.2344 706.0859,508.5859 Q704.7656,506.9375 704.7656,503.8125 Q704.7656,500.6875 706.0859,499.0313 Q707.4063,497.375 709.9063,497.375 Q710.6094,497.375 711.2578,497.5313 Q711.9063,497.6875 712.4688,497.9844 L712.4688,500.7031 Q711.8438,500.125 711.25,499.8516 Q710.6563,499.5781 710.0313,499.5781 Q708.6875,499.5781 708,500.6484 Q707.3125,501.7188 707.3125,503.8125 Q707.3125,505.9063 708,506.9766 Q708.6875,508.0469 710.0313,508.0469 Q710.6563,508.0469 711.25,507.7734 Q711.8438,507.5 712.4688,506.9219 L712.4688,509.6406 Z "/><text fill="#000000" font-family="sans-serif" font-size="12" lengthAdjust="spacingAndGlyphs" textLength="53" x="730" y="508.1543">Property</text><line style="stroke: #A80036; stroke-width: 1.5;" x1="640.75" x2="839.75" y1="520" y2="520"/><line style="stroke: #A80036; stroke-width: 1.5;" x1="640.75" x2="839.75" y1="528" y2="528"/><ellipse cx="650.75" cy="539.9023" fill="#84BE84" rx="3" ry="3" style="stroke: #038048; stroke-width: 1.0;"/><text fill="#000000" font-family="sans-serif" font-size="11" lengthAdjust="spacingAndGlyphs" textLength="136" x="659.75" y="542.2104">void constructor(Object)</text><rect fill="#F24D5C" height="6" style="stroke: #C82930; stroke-width: 1.0;" width="6" x="647.75" y="549.707"/><text fill="#000000" font-family="sans-serif" font-size="11" lengthAdjust="spacingAndGlyphs" textLength="161" x="659.75" y="555.0151">Object accept(Object,Object)</text><rect fill="#F24D5C" height="6" style="stroke: #C82930; stroke-width: 1.0;" width="6" x="647.75" y="562.5117"/><text fill="#000000" font-family="sans-serif" font-size="11" lengthAdjust="spacingAndGlyphs" textLength="81" x="659.75" y="567.8198">void process()</text><rect fill="#F24D5C" height="6" style="stroke: #C82930; stroke-width: 1.0;" width="6" x="647.75" y="575.3164"/><text fill="#000000" font-family="sans-serif" font-size="11" lengthAdjust="spacingAndGlyphs" textLength="175" x="659.75" y="580.6245">void validate(ClassDeclaration)</text><ellipse cx="650.75" cy="591.1211" fill="#84BE84" rx="3" ry="3" style="stroke: #038048; stroke-width: 1.0;"/><text fill="#000000" font-family="sans-serif" font-size="11" lengthAdjust="spacingAndGlyphs" textLength="96" x="659.75" y="593.4292">string getName()</text><ellipse cx="650.75" cy="603.9258" fill="#84BE84" rx="3" ry="3" style="stroke: #038048; stroke-width: 1.0;"/><text fill="#000000" font-family="sans-serif" font-size="11" lengthAdjust="spacingAndGlyphs" textLength="90" x="659.75" y="606.2339">string getType()</text><ellipse cx="650.75" cy="616.7305" fill="#84BE84" rx="3" ry="3" style="stroke: #038048; stroke-width: 1.0;"/><text fill="#000000" font-family="sans-serif" font-size="11" lengthAdjust="spacingAndGlyphs" textLength="97" x="659.75" y="619.0386">boolean isArray()</text><!--class Field--><rect fill="#FEFECE" filter="url(#fj228jy)" height="112.0234" style="stroke: #A80036; stroke-width: 1.5;" width="162" x="621" y="143"/><ellipse cx="683.25" cy="159" fill="#ADD1B2" rx="11" ry="11" style="stroke: #A80036; stroke-width: 1.0;"/><path d="M686.2188,164.6406 Q685.6406,164.9375 685,165.0859 Q684.3594,165.2344 683.6563,165.2344 Q681.1563,165.2344 679.8359,163.5859 Q678.5156,161.9375 678.5156,158.8125 Q678.5156,155.6875 679.8359,154.0313 Q681.1563,152.375 683.6563,152.375 Q684.3594,152.375 685.0078,152.5313 Q685.6563,152.6875 686.2188,152.9844 L686.2188,155.7031 Q685.5938,155.125 685,154.8516 Q684.4063,154.5781 683.7813,154.5781 Q682.4375,154.5781 681.75,155.6484 Q681.0625,156.7188 681.0625,158.8125 Q681.0625,160.9063 681.75,161.9766 Q682.4375,163.0469 683.7813,163.0469 Q684.4063,163.0469 685,162.7734 Q685.5938,162.5 686.2188,161.9219 L686.2188,164.6406 Z "/><text fill="#000000" font-family="sans-serif" font-size="12" lengthAdjust="spacingAndGlyphs" textLength="29" x="703.75" y="163.1543">Field</text><line style="stroke: #A80036; stroke-width: 1.5;" x1="622" x2="782" y1="175" y2="175"/><line style="stroke: #A80036; stroke-width: 1.5;" x1="622" x2="782" y1="183" y2="183"/><ellipse cx="632" cy="194.9023" fill="#84BE84" rx="3" ry="3" style="stroke: #038048; stroke-width: 1.0;"/><text fill="#000000" font-family="sans-serif" font-size="11" lengthAdjust="spacingAndGlyphs" textLength="136" x="641" y="197.2104">void constructor(Object)</text><rect fill="#F24D5C" height="6" style="stroke: #C82930; stroke-width: 1.0;" width="6" x="629" y="204.707"/><text fill="#000000" font-family="sans-serif" font-size="11" lengthAdjust="spacingAndGlyphs" textLength="81" x="641" y="210.0151">void process()</text><ellipse cx="632" cy="220.5117" fill="#84BE84" rx="3" ry="3" style="stroke: #038048; stroke-width: 1.0;"/><text fill="#000000" font-family="sans-serif" font-size="11" lengthAdjust="spacingAndGlyphs" textLength="113" x="641" y="222.8198">string getValidator()</text><ellipse cx="632" cy="233.3164" fill="#84BE84" rx="3" ry="3" style="stroke: #038048; stroke-width: 1.0;"/><text fill="#000000" font-family="sans-serif" font-size="11" lengthAdjust="spacingAndGlyphs" textLength="114" x="641" y="235.6245">boolean isOptional()</text><ellipse cx="632" cy="246.1211" fill="#84BE84" rx="3" ry="3" style="stroke: #038048; stroke-width: 1.0;"/><text fill="#000000" font-family="sans-serif" font-size="11" lengthAdjust="spacingAndGlyphs" textLength="134" x="641" y="248.4292">string getDefaultValue()</text><!--class Relationship--><rect fill="#FEFECE" filter="url(#fj228jy)" height="60.8047" style="stroke: #A80036; stroke-width: 1.5;" width="162" x="818" y="168.5"/><ellipse cx="856.85" cy="184.5" fill="#ADD1B2" rx="11" ry="11" style="stroke: #A80036; stroke-width: 1.0;"/><path d="M859.8188,190.1406 Q859.2406,190.4375 858.6,190.5859 Q857.9594,190.7344 857.2563,190.7344 Q854.7563,190.7344 853.4359,189.0859 Q852.1156,187.4375 852.1156,184.3125 Q852.1156,181.1875 853.4359,179.5313 Q854.7563,177.875 857.2563,177.875 Q857.9594,177.875 858.6078,178.0313 Q859.2563,178.1875 859.8188,178.4844 L859.8188,181.2031 Q859.1938,180.625 858.6,180.3516 Q858.0063,180.0781 857.3813,180.0781 Q856.0375,180.0781 855.35,181.1484 Q854.6625,182.2188 854.6625,184.3125 Q854.6625,186.4063 855.35,187.4766 Q856.0375,188.5469 857.3813,188.5469 Q858.0063,188.5469 858.6,188.2734 Q859.1938,188 859.8188,187.4219 L859.8188,190.1406 Z "/><text fill="#000000" font-family="sans-serif" font-size="12" lengthAdjust="spacingAndGlyphs" textLength="77" x="876.15" y="188.6543">Relationship</text><line style="stroke: #A80036; stroke-width: 1.5;" x1="819" x2="979" y1="200.5" y2="200.5"/><line style="stroke: #A80036; stroke-width: 1.5;" x1="819" x2="979" y1="208.5" y2="208.5"/><ellipse cx="829" cy="220.4023" fill="#84BE84" rx="3" ry="3" style="stroke: #038048; stroke-width: 1.0;"/><text fill="#000000" font-family="sans-serif" font-size="11" lengthAdjust="spacingAndGlyphs" textLength="136" x="838" y="222.7104">void constructor(Object)</text><!--class IllegalModelException--><rect fill="#FEFECE" filter="url(#fj228jy)" height="60.8047" style="stroke: #A80036; stroke-width: 1.5;" width="166" x="1015" y="168.5"/><ellipse cx="1030" cy="184.5" fill="#ADD1B2" rx="11" ry="11" style="stroke: #A80036; stroke-width: 1.0;"/><path d="M1032.9688,190.1406 Q1032.3906,190.4375 1031.75,190.5859 Q1031.1094,190.7344 1030.4063,190.7344 Q1027.9063,190.7344 1026.5859,189.0859 Q1025.2656,187.4375 1025.2656,184.3125 Q1025.2656,181.1875 1026.5859,179.5313 Q1027.9063,177.875 1030.4063,177.875 Q1031.1094,177.875 1031.7578,178.0313 Q1032.4063,178.1875 1032.9688,178.4844 L1032.9688,181.2031 Q1032.3438,180.625 1031.75,180.3516 Q1031.1563,180.0781 1030.5313,180.0781 Q1029.1875,180.0781 1028.5,181.1484 Q1027.8125,182.2188 1027.8125,184.3125 Q1027.8125,186.4063 1028.5,187.4766 Q1029.1875,188.5469 1030.5313,188.5469 Q1031.1563,188.5469 1031.75,188.2734 Q1032.3438,188 1032.9688,187.4219 L1032.9688,190.1406 Z "/><text fill="#000000" font-family="sans-serif" font-size="12" lengthAdjust="spacingAndGlyphs" textLength="134" x="1044" y="188.6543">IllegalModelException</text><line style="stroke: #A80036; stroke-width: 1.5;" x1="1016" x2="1180" y1="200.5" y2="200.5"/><line style="stroke: #A80036; stroke-width: 1.5;" x1="1016" x2="1180" y1="208.5" y2="208.5"/><ellipse cx="1026" cy="220.4023" fill="#84BE84" rx="3" ry="3" style="stroke: #038048; stroke-width: 1.0;"/><text fill="#000000" font-family="sans-serif" font-size="11" lengthAdjust="spacingAndGlyphs" textLength="133" x="1035" y="222.7104">void constructor(string)</text><!--class BaseException--><rect fill="#FEFECE" filter="url(#fj228jy)" height="60.8047" style="stroke: #A80036; stroke-width: 1.5;" width="159" x="1117.75" y="526.5"/><ellipse cx="1148.5" cy="542.5" fill="#ADD1B2" rx="11" ry="11" style="stroke: #A80036; stroke-width: 1.0;"/><path d="M1151.4688,548.1406 Q1150.8906,548.4375 1150.25,548.5859 Q1149.6094,548.7344 1148.9063,548.7344 Q1146.4063,548.7344 1145.0859,547.0859 Q1143.7656,545.4375 1143.7656,542.3125 Q1143.7656,539.1875 1145.0859,537.5313 Q1146.4063,535.875 1148.9063,535.875 Q1149.6094,535.875 1150.2578,536.0313 Q1150.9063,536.1875 1151.4688,536.4844 L1151.4688,539.2031 Q1150.8438,538.625 1150.25,538.3516 Q1149.6563,538.0781 1149.0313,538.0781 Q1147.6875,538.0781 1147,539.1484 Q1146.3125,540.2188 1146.3125,542.3125 Q1146.3125,544.4063 1147,545.4766 Q1147.6875,546.5469 1149.0313,546.5469 Q1149.6563,546.5469 1150.25,546.2734 Q1150.8438,546 1151.4688,545.4219 L1151.4688,548.1406 Z "/><text fill="#000000" font-family="sans-serif" font-size="12" lengthAdjust="spacingAndGlyphs" textLength="92" x="1166" y="546.6543">BaseException</text><line style="stroke: #A80036; stroke-width: 1.5;" x1="1118.75" x2="1275.75" y1="558.5" y2="558.5"/><line style="stroke: #A80036; stroke-width: 1.5;" x1="1118.75" x2="1275.75" y1="566.5" y2="566.5"/><ellipse cx="1128.75" cy="578.4023" fill="#84BE84" rx="3" ry="3" style="stroke: #038048; stroke-width: 1.0;"/><text fill="#000000" font-family="sans-serif" font-size="11" lengthAdjust="spacingAndGlyphs" textLength="133" x="1137.75" y="580.7104">void constructor(string)</text><!--class ClassDeclaration--><rect fill="#FEFECE" filter="url(#fj228jy)" height="214.4609" style="stroke: #A80036; stroke-width: 1.5;" width="215" x="1665.75" y="450"/><ellipse cx="1716.5" cy="466" fill="#ADD1B2" rx="11" ry="11" style="stroke: #A80036; stroke-width: 1.0;"/><path d="M1719.4688,471.6406 Q1718.8906,471.9375 1718.25,472.0859 Q1717.6094,472.2344 1716.9063,472.2344 Q1714.4063,472.2344 1713.0859,470.5859 Q1711.7656,468.9375 1711.7656,465.8125 Q1711.7656,462.6875 1713.0859,461.0313 Q1714.4063,459.375 1716.9063,459.375 Q1717.6094,459.375 1718.2578,459.5313 Q1718.9063,459.6875 1719.4688,459.9844 L1719.4688,462.7031 Q1718.8438,462.125 1718.25,461.8516 Q1717.6563,461.5781 1717.0313,461.5781 Q1715.6875,461.5781 1715,462.6484 Q1714.3125,463.7188 1714.3125,465.8125 Q1714.3125,467.9063 1715,468.9766 Q1715.6875,470.0469 1717.0313,470.0469 Q1717.6563,470.0469 1718.25,469.7734 Q1718.8438,469.5 1719.4688,468.9219 L1719.4688,471.6406 Z "/><text fill="#000000" font-family="sans-serif" font-size="12" lengthAdjust="spacingAndGlyphs" textLength="105" x="1737" y="470.1543">ClassDeclaration</text><line style="stroke: #A80036; stroke-width: 1.5;" x1="1666.75" x2="1879.75" y1="482" y2="482"/><line style="stroke: #A80036; stroke-width: 1.5;" x1="1666.75" x2="1879.75" y1="490" y2="490"/><ellipse cx="1676.75" cy="501.9023" fill="#84BE84" rx="3" ry="3" style="stroke: #038048; stroke-width: 1.0;"/><text fill="#000000" font-family="sans-serif" font-size="11" lengthAdjust="spacingAndGlyphs" textLength="189" x="1685.75" y="504.2104">void constructor(ModelFile,string)</text><rect fill="#F24D5C" height="6" style="stroke: #C82930; stroke-width: 1.0;" width="6" x="1673.75" y="511.707"/><text fill="#000000" font-family="sans-serif" font-size="11" lengthAdjust="spacingAndGlyphs" textLength="161" x="1685.75" y="517.0151">Object accept(Object,Object)</text><ellipse cx="1676.75" cy="527.5117" fill="#84BE84" rx="3" ry="3" style="stroke: #038048; stroke-width: 1.0;"/><text fill="#000000" font-family="sans-serif" font-size="11" lengthAdjust="spacingAndGlyphs" textLength="134" x="1685.75" y="529.8198">ModelFile getModelFile()</text><rect fill="#F24D5C" height="6" style="stroke: #C82930; stroke-width: 1.0;" width="6" x="1673.75" y="537.3164"/><text fill="#000000" font-family="sans-serif" font-size="11" lengthAdjust="spacingAndGlyphs" textLength="81" x="1685.75" y="542.6245">void process()</text><rect fill="#F24D5C" height="6" style="stroke: #C82930; stroke-width: 1.0;" width="6" x="1673.75" y="550.1211"/><text fill="#000000" font-family="sans-serif" font-size="11" lengthAdjust="spacingAndGlyphs" textLength="79" x="1685.75" y="555.4292">void validate()</text><ellipse cx="1676.75" cy="565.9258" fill="#84BE84" rx="3" ry="3" style="stroke: #038048; stroke-width: 1.0;"/><text fill="#000000" font-family="sans-serif" font-size="11" lengthAdjust="spacingAndGlyphs" textLength="96" x="1685.75" y="568.2339">string getName()</text><ellipse cx="1676.75" cy="578.7305" fill="#84BE84" rx="3" ry="3" style="stroke: #038048; stroke-width: 1.0;"/><text fill="#000000" font-family="sans-serif" font-size="11" lengthAdjust="spacingAndGlyphs" textLength="171" x="1685.75" y="581.0386">string getFullyQualifiedName()</text><ellipse cx="1676.75" cy="591.5352" fill="#84BE84" rx="3" ry="3" style="stroke: #038048; stroke-width: 1.0;"/><text fill="#000000" font-family="sans-serif" font-size="11" lengthAdjust="spacingAndGlyphs" textLength="172" x="1685.75" y="593.8433">string getIdentifierFieldName()</text><ellipse cx="1676.75" cy="604.3398" fill="#84BE84" rx="3" ry="3" style="stroke: #038048; stroke-width: 1.0;"/><text fill="#000000" font-family="sans-serif" font-size="11" lengthAdjust="spacingAndGlyphs" textLength="140" x="1685.75" y="606.6479">Field getOwnField(string)</text><ellipse cx="1676.75" cy="617.1445" fill="#84BE84" rx="3" ry="3" style="stroke: #038048; stroke-width: 1.0;"/><text fill="#000000" font-family="sans-serif" font-size="11" lengthAdjust="spacingAndGlyphs" textLength="122" x="1685.75" y="619.4526">Field[] getOwnFields()</text><ellipse cx="1676.75" cy="629.9492" fill="#84BE84" rx="3" ry="3" style="stroke: #038048; stroke-width: 1.0;"/><text fill="#000000" font-family="sans-serif" font-size="11" lengthAdjust="spacingAndGlyphs" textLength="124" x="1685.75" y="632.2573">string getSuperType()</text><ellipse cx="1676.75" cy="642.7539" fill="#84BE84" rx="3" ry="3" style="stroke: #038048; stroke-width: 1.0;"/><text fill="#000000" font-family="sans-serif" font-size="11" lengthAdjust="spacingAndGlyphs" textLength="115" x="1685.75" y="645.062">Field getField(string)</text><ellipse cx="1676.75" cy="655.5586" fill="#84BE84" rx="3" ry="3" style="stroke: #038048; stroke-width: 1.0;"/><text fill="#000000" font-family="sans-serif" font-size="11" lengthAdjust="spacingAndGlyphs" textLength="97" x="1685.75" y="657.8667">Field[] getFields()</text><!--class AssetDeclaration--><rect fill="#FEFECE" filter="url(#fj228jy)" height="60.8047" style="stroke: #A80036; stroke-width: 1.5;" width="218" x="1411" y="168.5"/><ellipse cx="1462.25" cy="184.5" fill="#ADD1B2" rx="11" ry="11" style="stroke: #A80036; stroke-width: 1.0;"/><path d="M1465.2188,190.1406 Q1464.6406,190.4375 1464,190.5859 Q1463.3594,190.7344 1462.6563,190.7344 Q1460.1563,190.7344 1458.8359,189.0859 Q1457.5156,187.4375 1457.5156,184.3125 Q1457.5156,181.1875 1458.8359,179.5313 Q1460.1563,177.875 1462.6563,177.875 Q1463.3594,177.875 1464.0078,178.0313 Q1464.6563,178.1875 1465.2188,178.4844 L1465.2188,181.2031 Q1464.5938,180.625 1464,180.3516 Q1463.4063,180.0781 1462.7813,180.0781 Q1461.4375,180.0781 1460.75,181.1484 Q1460.0625,182.2188 1460.0625,184.3125 Q1460.0625,186.4063 1460.75,187.4766 Q1461.4375,188.5469 1462.7813,188.5469 Q1463.4063,188.5469 1464,188.2734 Q1464.5938,188 1465.2188,187.4219 L1465.2188,190.1406 Z "/><text fill="#000000" font-family="sans-serif" font-size="12" lengthAdjust="spacingAndGlyphs" textLength="107" x="1482.75" y="188.6543">AssetDeclaration</text><line style="stroke: #A80036; stroke-width: 1.5;" x1="1412" x2="1628" y1="200.5" y2="200.5"/><line style="stroke: #A80036; stroke-width: 1.5;" x1="1412" x2="1628" y1="208.5" y2="208.5"/><ellipse cx="1422" cy="220.4023" fill="#84BE84" rx="3" ry="3" style="stroke: #038048; stroke-width: 1.0;"/><text fill="#000000" font-family="sans-serif" font-size="11" lengthAdjust="spacingAndGlyphs" textLength="192" x="1431" y="222.7104">void constructor(ModelFile,Object)</text><!--class ParticipantDeclaration--><rect fill="#FEFECE" filter="url(#fj228jy)" height="60.8047" style="stroke: #A80036; stroke-width: 1.5;" width="218" x="1664" y="168.5"/><ellipse cx="1699.7" cy="184.5" fill="#ADD1B2" rx="11" ry="11" style="stroke: #A80036; stroke-width: 1.0;"/><path d="M1702.6688,190.1406 Q1702.0906,190.4375 1701.45,190.5859 Q1700.8094,190.7344 1700.1063,190.7344 Q1697.6063,190.7344 1696.2859,189.0859 Q1694.9656,187.4375 1694.9656,184.3125 Q1694.9656,181.1875 1696.2859,179.5313 Q1697.6063,177.875 1700.1063,177.875 Q1700.8094,177.875 1701.4578,178.0313 Q1702.1063,178.1875 1702.6688,178.4844 L1702.6688,181.2031 Q1702.0438,180.625 1701.45,180.3516 Q1700.8563,180.0781 1700.2313,180.0781 Q1698.8875,180.0781 1698.2,181.1484 Q1697.5125,182.2188 1697.5125,184.3125 Q1697.5125,186.4063 1698.2,187.4766 Q1698.8875,188.5469 1700.2313,188.5469 Q1700.8563,188.5469 1701.45,188.2734 Q1702.0438,188 1702.6688,187.4219 L1702.6688,190.1406 Z "/><text fill="#000000" font-family="sans-serif" font-size="12" lengthAdjust="spacingAndGlyphs" textLength="140" x="1718.3" y="188.6543">ParticipantDeclaration</text><line style="stroke: #A80036; stroke-width: 1.5;" x1="1665" x2="1881" y1="200.5" y2="200.5"/><line style="stroke: #A80036; stroke-width: 1.5;" x1="1665" x2="1881" y1="208.5" y2="208.5"/><ellipse cx="1675" cy="220.4023" fill="#84BE84" rx="3" ry="3" style="stroke: #038048; stroke-width: 1.0;"/><text fill="#000000" font-family="sans-serif" font-size="11" lengthAdjust="spacingAndGlyphs" textLength="192" x="1684" y="222.7104">void constructor(ModelFile,Object)</text><!--class TransactionDeclaration--><rect fill="#FEFECE" filter="url(#fj228jy)" height="73.6094" style="stroke: #A80036; stroke-width: 1.5;" width="218" x="1917" y="162"/><ellipse cx="1950" cy="178" fill="#ADD1B2" rx="11" ry="11" style="stroke: #A80036; stroke-width: 1.0;"/><path d="M1952.9688,183.6406 Q1952.3906,183.9375 1951.75,184.0859 Q1951.1094,184.2344 1950.4063,184.2344 Q1947.9063,184.2344 1946.5859,182.5859 Q1945.2656,180.9375 1945.2656,177.8125 Q1945.2656,174.6875 1946.5859,173.0313 Q1947.9063,171.375 1950.4063,171.375 Q1951.1094,171.375 1951.7578,171.5313 Q1952.4063,171.6875 1952.9688,171.9844 L1952.9688,174.7031 Q1952.3438,174.125 1951.75,173.8516 Q1951.1563,173.5781 1950.5313,173.5781 Q1949.1875,173.5781 1948.5,174.6484 Q1947.8125,175.7188 1947.8125,177.8125 Q1947.8125,179.9063 1948.5,180.9766 Q1949.1875,182.0469 1950.5313,182.0469 Q1951.1563,182.0469 1951.75,181.7734 Q1952.3438,181.5 1952.9688,180.9219 L1952.9688,183.6406 Z "/><text fill="#000000" font-family="sans-serif" font-size="12" lengthAdjust="spacingAndGlyphs" textLength="146" x="1968" y="182.1543">TransactionDeclaration</text><line style="stroke: #A80036; stroke-width: 1.5;" x1="1918" x2="2134" y1="194" y2="194"/><line style="stroke: #A80036; stroke-width: 1.5;" x1="1918" x2="2134" y1="202" y2="202"/><ellipse cx="1928" cy="213.9023" fill="#84BE84" rx="3" ry="3" style="stroke: #038048; stroke-width: 1.0;"/><text fill="#000000" font-family="sans-serif" font-size="11" lengthAdjust="spacingAndGlyphs" textLength="192" x="1937" y="216.2104">void constructor(ModelFile,Object)</text><rect fill="#F24D5C" height="6" style="stroke: #C82930; stroke-width: 1.0;" width="6" x="1925" y="223.707"/><text fill="#000000" font-family="sans-serif" font-size="11" lengthAdjust="spacingAndGlyphs" textLength="162" x="1937" y="229.0151">void getIdentifierFieldName()</text><!--class ModelFile--><rect fill="#FEFECE" filter="url(#fj228jy)" height="380.9219" style="stroke: #A80036; stroke-width: 1.5;" width="351" x="196.75" y="8.5"/><ellipse cx="339" cy="24.5" fill="#ADD1B2" rx="11" ry="11" style="stroke: #A80036; stroke-width: 1.0;"/><path d="M341.9688,30.1406 Q341.3906,30.4375 340.75,30.5859 Q340.1094,30.7344 339.4063,30.7344 Q336.9063,30.7344 335.5859,29.0859 Q334.2656,27.4375 334.2656,24.3125 Q334.2656,21.1875 335.5859,19.5313 Q336.9063,17.875 339.4063,17.875 Q340.1094,17.875 340.7578,18.0313 Q341.4063,18.1875 341.9688,18.4844 L341.9688,21.2031 Q341.3438,20.625 340.75,20.3516 Q340.1563,20.0781 339.5313,20.0781 Q338.1875,20.0781 337.5,21.1484 Q336.8125,22.2188 336.8125,24.3125 Q336.8125,26.4063 337.5,27.4766 Q338.1875,28.5469 339.5313,28.5469 Q340.1563,28.5469 340.75,28.2734 Q341.3438,28 341.9688,27.4219 L341.9688,30.1406 Z "/><text fill="#000000" font-family="sans-serif" font-size="12" lengthAdjust="spacingAndGlyphs" textLength="58" x="359.5" y="28.6543">ModelFile</text><line style="stroke: #A80036; stroke-width: 1.5;" x1="197.75" x2="546.75" y1="40.5" y2="40.5"/><line style="stroke: #A80036; stroke-width: 1.5;" x1="197.75" x2="546.75" y1="48.5" y2="48.5"/><ellipse cx="207.75" cy="60.4023" fill="#84BE84" rx="3" ry="3" style="stroke: #038048; stroke-width: 1.0;"/><text fill="#000000" font-family="sans-serif" font-size="11" lengthAdjust="spacingAndGlyphs" textLength="238" x="216.75" y="62.7104">ModelFile fromJSON(ModelManager,string)</text><ellipse cx="207.75" cy="73.207" fill="#84BE84" rx="3" ry="3" style="stroke: #038048; stroke-width: 1.0;"/><text fill="#000000" font-family="sans-serif" font-size="11" lengthAdjust="spacingAndGlyphs" textLength="293" x="216.75" y="75.5151">void constructor(ModelManager,string,string,string)</text><rect fill="#F24D5C" height="6" style="stroke: #C82930; stroke-width: 1.0;" width="6" x="204.75" y="83.0117"/><text fill="#000000" font-family="sans-serif" font-size="11" lengthAdjust="spacingAndGlyphs" textLength="161" x="216.75" y="88.3198">Object accept(Object,Object)</text><ellipse cx="207.75" cy="98.8164" fill="#84BE84" rx="3" ry="3" style="stroke: #038048; stroke-width: 1.0;"/><text fill="#000000" font-family="sans-serif" font-size="11" lengthAdjust="spacingAndGlyphs" textLength="194" x="216.75" y="101.1245">ModelManager getModelManager()</text><ellipse cx="207.75" cy="111.6211" fill="#84BE84" rx="3" ry="3" style="stroke: #038048; stroke-width: 1.0;"/><text fill="#000000" font-family="sans-serif" font-size="11" lengthAdjust="spacingAndGlyphs" textLength="115" x="216.75" y="113.9292">string[] getImports()</text><rect fill="#F24D5C" height="6" style="stroke: #C82930; stroke-width: 1.0;" width="6" x="204.75" y="121.4258"/><text fill="#000000" font-family="sans-serif" font-size="11" lengthAdjust="spacingAndGlyphs" textLength="79" x="216.75" y="126.7339">void validate()</text><rect fill="#F24D5C" height="6" style="stroke: #C82930; stroke-width: 1.0;" width="6" x="204.75" y="134.2305"/><text fill="#000000" font-family="sans-serif" font-size="11" lengthAdjust="spacingAndGlyphs" textLength="184" x="216.75" y="139.5386">string resolveType(string,string)</text><rect fill="#F24D5C" height="6" style="stroke: #C82930; stroke-width: 1.0;" width="6" x="204.75" y="147.0352"/><text fill="#000000" font-family="sans-serif" font-size="11" lengthAdjust="spacingAndGlyphs" textLength="156" x="216.75" y="152.3433">boolean isLocalType(string)</text><rect fill="#F24D5C" height="6" style="stroke: #C82930; stroke-width: 1.0;" width="6" x="204.75" y="159.8398"/><text fill="#000000" font-family="sans-serif" font-size="11" lengthAdjust="spacingAndGlyphs" textLength="178" x="216.75" y="165.1479">boolean isImportedType(string)</text><rect fill="#F24D5C" height="6" style="stroke: #C82930; stroke-width: 1.0;" width="6" x="204.75" y="172.6445"/><text fill="#000000" font-family="sans-serif" font-size="11" lengthAdjust="spacingAndGlyphs" textLength="157" x="216.75" y="177.9526">string resolveImport(string)</text><ellipse cx="207.75" cy="188.4492" fill="#84BE84" rx="3" ry="3" style="stroke: #038048; stroke-width: 1.0;"/><text fill="#000000" font-family="sans-serif" font-size="11" lengthAdjust="spacingAndGlyphs" textLength="143" x="216.75" y="190.7573">boolean isDefined(string)</text><ellipse cx="207.75" cy="201.2539" fill="#84BE84" rx="3" ry="3" style="stroke: #038048; stroke-width: 1.0;"/><text fill="#000000" font-family="sans-serif" font-size="11" lengthAdjust="spacingAndGlyphs" textLength="186" x="216.75" y="203.562">ClassDeclaration getType(string)</text><ellipse cx="207.75" cy="214.0586" fill="#84BE84" rx="3" ry="3" style="stroke: #038048; stroke-width: 1.0;"/><text fill="#000000" font-family="sans-serif" font-size="11" lengthAdjust="spacingAndGlyphs" textLength="255" x="216.75" y="216.3667">AssetDeclaration getAssetDeclaration(string)</text><ellipse cx="207.75" cy="226.8633" fill="#84BE84" rx="3" ry="3" style="stroke: #038048; stroke-width: 1.0;"/><text fill="#000000" font-family="sans-serif" font-size="11" lengthAdjust="spacingAndGlyphs" textLength="325" x="216.75" y="229.1714">TransactionDeclaration getTransactionDeclaration(string)</text><ellipse cx="207.75" cy="239.668" fill="#84BE84" rx="3" ry="3" style="stroke: #038048; stroke-width: 1.0;"/><text fill="#000000" font-family="sans-serif" font-size="11" lengthAdjust="spacingAndGlyphs" textLength="311" x="216.75" y="241.9761">ParticipantDeclaration getParticipantDeclaration(string)</text><ellipse cx="207.75" cy="252.4727" fill="#84BE84" rx="3" ry="3" style="stroke: #038048; stroke-width: 1.0;"/><text fill="#000000" font-family="sans-serif" font-size="11" lengthAdjust="spacingAndGlyphs" textLength="130" x="216.75" y="254.7808">string getNamespace()</text><ellipse cx="207.75" cy="265.2773" fill="#84BE84" rx="3" ry="3" style="stroke: #038048; stroke-width: 1.0;"/><text fill="#000000" font-family="sans-serif" font-size="11" lengthAdjust="spacingAndGlyphs" textLength="237" x="216.75" y="267.5854">AssetDeclaration[] getAssetDeclarations()</text><ellipse cx="207.75" cy="278.082" fill="#84BE84" rx="3" ry="3" style="stroke: #038048; stroke-width: 1.0;"/><text fill="#000000" font-family="sans-serif" font-size="11" lengthAdjust="spacingAndGlyphs" textLength="307" x="216.75" y="280.3901">TransactionDeclaration[] getTransactionDeclarations()</text><ellipse cx="207.75" cy="290.8867" fill="#84BE84" rx="3" ry="3" style="stroke: #038048; stroke-width: 1.0;"/><text fill="#000000" font-family="sans-serif" font-size="11" lengthAdjust="spacingAndGlyphs" textLength="293" x="216.75" y="293.1948">ParticipantDeclaration[] getParticipantDeclarations()</text><ellipse cx="207.75" cy="303.6914" fill="#84BE84" rx="3" ry="3" style="stroke: #038048; stroke-width: 1.0;"/><text fill="#000000" font-family="sans-serif" font-size="11" lengthAdjust="spacingAndGlyphs" textLength="252" x="216.75" y="305.9995">ClassDeclaration[] getDeclarations(Function)</text><ellipse cx="207.75" cy="316.4961" fill="#84BE84" rx="3" ry="3" style="stroke: #038048; stroke-width: 1.0;"/><text fill="#000000" font-family="sans-serif" font-size="11" lengthAdjust="spacingAndGlyphs" textLength="218" x="216.75" y="318.8042">ClassDeclaration[] getAllDeclarations()</text><ellipse cx="207.75" cy="329.3008" fill="#84BE84" rx="3" ry="3" style="stroke: #038048; stroke-width: 1.0;"/><text fill="#000000" font-family="sans-serif" font-size="11" lengthAdjust="spacingAndGlyphs" textLength="113" x="216.75" y="331.6089">string getIdentifier()</text><ellipse cx="207.75" cy="342.1055" fill="#84BE84" rx="3" ry="3" style="stroke: #038048; stroke-width: 1.0;"/><text fill="#000000" font-family="sans-serif" font-size="11" lengthAdjust="spacingAndGlyphs" textLength="96" x="216.75" y="344.4136">string getName()</text><ellipse cx="207.75" cy="354.9102" fill="#84BE84" rx="3" ry="3" style="stroke: #038048; stroke-width: 1.0;"/><text fill="#000000" font-family="sans-serif" font-size="11" lengthAdjust="spacingAndGlyphs" textLength="123" x="216.75" y="357.2183">string getDefinitions()</text><ellipse cx="207.75" cy="367.7148" fill="#84BE84" rx="3" ry="3" style="stroke: #038048; stroke-width: 1.0;"/><text fill="#000000" font-family="sans-serif" font-size="11" lengthAdjust="spacingAndGlyphs" textLength="87" x="216.75" y="370.0229">Object toJSON()</text><ellipse cx="207.75" cy="380.5195" fill="#84BE84" rx="3" ry="3" style="stroke: #038048; stroke-width: 1.0;"/><text fill="#000000" font-family="sans-serif" font-size="11" lengthAdjust="spacingAndGlyphs" textLength="118" x="216.75" y="382.8276">string toJSONString()</text><!--class Error--><rect fill="#FEFECE" filter="url(#fj228jy)" height="48" style="stroke: #A80036; stroke-width: 1.5;" width="63" x="1165.75" y="724"/><ellipse cx="1180.75" cy="740" fill="#ADD1B2" rx="11" ry="11" style="stroke: #A80036; stroke-width: 1.0;"/><path d="M1183.7188,745.6406 Q1183.1406,745.9375 1182.5,746.0859 Q1181.8594,746.2344 1181.1563,746.2344 Q1178.6563,746.2344 1177.3359,744.5859 Q1176.0156,742.9375 1176.0156,739.8125 Q1176.0156,736.6875 1177.3359,735.0313 Q1178.6563,733.375 1181.1563,733.375 Q1181.8594,733.375 1182.5078,733.5313 Q1183.1563,733.6875 1183.7188,733.9844 L1183.7188,736.7031 Q1183.0938,736.125 1182.5,735.8516 Q1181.9063,735.5781 1181.2813,735.5781 Q1179.9375,735.5781 1179.25,736.6484 Q1178.5625,737.7188 1178.5625,739.8125 Q1178.5625,741.9063 1179.25,742.9766 Q1179.9375,744.0469 1181.2813,744.0469 Q1181.9063,744.0469 1182.5,743.7734 Q1183.0938,743.5 1183.7188,742.9219 L1183.7188,745.6406 Z "/><text fill="#000000" font-family="sans-serif" font-size="12" lengthAdjust="spacingAndGlyphs" textLength="31" x="1194.75" y="744.1543">Error</text><line style="stroke: #A80036; stroke-width: 1.5;" x1="1166.75" x2="1227.75" y1="756" y2="756"/><line style="stroke: #A80036; stroke-width: 1.5;" x1="1166.75" x2="1227.75" y1="764" y2="764"/><!--class SecurityException--><rect fill="#FEFECE" filter="url(#fj228jy)" height="60.8047" style="stroke: #A80036; stroke-width: 1.5;" width="159" x="1216.75" y="168.5"/><ellipse cx="1238.95" cy="184.5" fill="#ADD1B2" rx="11" ry="11" style="stroke: #A80036; stroke-width: 1.0;"/><path d="M1241.9188,190.1406 Q1241.3406,190.4375 1240.7,190.5859 Q1240.0594,190.7344 1239.3563,190.7344 Q1236.8563,190.7344 1235.5359,189.0859 Q1234.2156,187.4375 1234.2156,184.3125 Q1234.2156,181.1875 1235.5359,179.5313 Q1236.8563,177.875 1239.3563,177.875 Q1240.0594,177.875 1240.7078,178.0313 Q1241.3563,178.1875 1241.9188,178.4844 L1241.9188,181.2031 Q1241.2938,180.625 1240.7,180.3516 Q1240.1063,180.0781 1239.4813,180.0781 Q1238.1375,180.0781 1237.45,181.1484 Q1236.7625,182.2188 1236.7625,184.3125 Q1236.7625,186.4063 1237.45,187.4766 Q1238.1375,188.5469 1239.4813,188.5469 Q1240.1063,188.5469 1240.7,188.2734 Q1241.2938,188 1241.9188,187.4219 L1241.9188,190.1406 Z "/><text fill="#000000" font-family="sans-serif" font-size="12" lengthAdjust="spacingAndGlyphs" textLength="111" x="1254.55" y="188.6543">SecurityException</text><line style="stroke: #A80036; stroke-width: 1.5;" x1="1217.75" x2="1374.75" y1="200.5" y2="200.5"/><line style="stroke: #A80036; stroke-width: 1.5;" x1="1217.75" x2="1374.75" y1="208.5" y2="208.5"/><ellipse cx="1227.75" cy="220.4023" fill="#84BE84" rx="3" ry="3" style="stroke: #038048; stroke-width: 1.0;"/><text fill="#000000" font-family="sans-serif" font-size="11" lengthAdjust="spacingAndGlyphs" textLength="133" x="1236.75" y="222.7104">void constructor(string)</text><!--class globalize--><rect fill="#FEFECE" filter="url(#fj228jy)" height="48" style="stroke: #A80036; stroke-width: 1.5;" width="86" x="6" y="533"/><ellipse cx="21" cy="549" fill="#DA70D6" rx="11" ry="11" style="stroke: #A80036; stroke-width: 1.0;"/><path d="M20.7969,544.6719 L20.7969,548.2969 L21.7969,548.2969 Q23,548.2969 23.4844,547.8906 Q23.9688,547.4844 23.9688,546.4844 Q23.9688,545.4844 23.4844,545.0781 Q23,544.6719 21.7969,544.6719 L20.7969,544.6719 Z M18.3438,542.6094 L21.7031,542.6094 Q24.2656,542.6094 25.3906,543.5234 Q26.5156,544.4375 26.5156,546.4844 Q26.5156,548.5313 25.3906,549.4453 Q24.2656,550.3594 21.7031,550.3594 L20.7969,550.3594 L20.7969,555 L18.3438,555 L18.3438,542.6094 Z "/><text fill="#000000" font-family="sans-serif" font-size="12" lengthAdjust="spacingAndGlyphs" textLength="54" x="35" y="553.1543">globalize</text><line style="stroke: #A80036; stroke-width: 1.5;" x1="7" x2="91" y1="565" y2="565"/><line style="stroke: #A80036; stroke-width: 1.5;" x1="7" x2="91" y1="573" y2="573"/><!--class Util--><rect fill="#FEFECE" filter="url(#fj228jy)" height="99.2188" style="stroke: #A80036; stroke-width: 1.5;" width="391" x="156.75" y="507.5"/><ellipse cx="338" cy="523.5" fill="#ADD1B2" rx="11" ry="11" style="stroke: #A80036; stroke-width: 1.0;"/><path d="M340.9688,529.1406 Q340.3906,529.4375 339.75,529.5859 Q339.1094,529.7344 338.4063,529.7344 Q335.9063,529.7344 334.5859,528.0859 Q333.2656,526.4375 333.2656,523.3125 Q333.2656,520.1875 334.5859,518.5313 Q335.9063,516.875 338.4063,516.875 Q339.1094,516.875 339.7578,517.0313 Q340.4063,517.1875 340.9688,517.4844 L340.9688,520.2031 Q340.3438,519.625 339.75,519.3516 Q339.1563,519.0781 338.5313,519.0781 Q337.1875,519.0781 336.5,520.1484 Q335.8125,521.2188 335.8125,523.3125 Q335.8125,525.4063 336.5,526.4766 Q337.1875,527.5469 338.5313,527.5469 Q339.1563,527.5469 339.75,527.2734 Q340.3438,527 340.9688,526.4219 L340.9688,529.1406 Z "/><text fill="#000000" font-family="sans-serif" font-size="12" lengthAdjust="spacingAndGlyphs" textLength="20" x="358.5" y="527.6543">Util</text><line style="stroke: #A80036; stroke-width: 1.5;" x1="157.75" x2="546.75" y1="539.5" y2="539.5"/><line style="stroke: #A80036; stroke-width: 1.5;" x1="157.75" x2="546.75" y1="547.5" y2="547.5"/><ellipse cx="167.75" cy="559.4023" fill="#84BE84" rx="3" ry="3" style="stroke: #038048; stroke-width: 1.0;"/><text fill="#000000" font-family="sans-serif" font-size="11" lengthAdjust="spacingAndGlyphs" textLength="203" x="176.75" y="561.7104">void securityCheck(SecurityContext)</text><ellipse cx="167.75" cy="572.207" fill="#84BE84" rx="3" ry="3" style="stroke: #038048; stroke-width: 1.0;"/><text fill="#000000" font-family="sans-serif" font-size="11" lengthAdjust="spacingAndGlyphs" textLength="323" x="176.75" y="574.5151">Promise queryChainCode(SecurityContext,string,string[])</text><ellipse cx="167.75" cy="585.0117" fill="#84BE84" rx="3" ry="3" style="stroke: #038048; stroke-width: 1.0;"/><text fill="#000000" font-family="sans-serif" font-size="11" lengthAdjust="spacingAndGlyphs" textLength="327" x="176.75" y="587.3198">Promise invokeChainCode(SecurityContext,string,string[])</text><ellipse cx="167.75" cy="597.8164" fill="#84BE84" rx="3" ry="3" style="stroke: #038048; stroke-width: 1.0;"/><text fill="#000000" font-family="sans-serif" font-size="11" lengthAdjust="spacingAndGlyphs" textLength="365" x="176.75" y="600.1245">Promise deployChainCode(SecurityContext,string,string,string[])</text><!--class Registry--><rect fill="#FEFECE" filter="url(#fj228jy)" height="163.2422" style="stroke: #A80036; stroke-width: 1.5;" width="352" x="2211.5" y="475.5"/><ellipse cx="2358.25" cy="491.5" fill="#ADD1B2" rx="11" ry="11" style="stroke: #A80036; stroke-width: 1.0;"/><path d="M2361.2188,497.1406 Q2360.6406,497.4375 2360,497.5859 Q2359.3594,497.7344 2358.6563,497.7344 Q2356.1563,497.7344 2354.8359,496.0859 Q2353.5156,494.4375 2353.5156,491.3125 Q2353.5156,488.1875 2354.8359,486.5313 Q2356.1563,484.875 2358.6563,484.875 Q2359.3594,484.875 2360.0078,485.0313 Q2360.6563,485.1875 2361.2188,485.4844 L2361.2188,488.2031 Q2360.5938,487.625 2360,487.3516 Q2359.4063,487.0781 2358.7813,487.0781 Q2357.4375,487.0781 2356.75,488.1484 Q2356.0625,489.2188 2356.0625,491.3125 Q2356.0625,493.4063 2356.75,494.4766 Q2357.4375,495.5469 2358.7813,495.5469 Q2359.4063,495.5469 2360,495.2734 Q2360.5938,495 2361.2188,494.4219 L2361.2188,497.1406 Z "/><text fill="#000000" font-family="sans-serif" font-size="12" lengthAdjust="spacingAndGlyphs" textLength="50" x="2378.75" y="495.6543">Registry</text><line style="stroke: #A80036; stroke-width: 1.5;" x1="2212.5" x2="2562.5" y1="507.5" y2="507.5"/><line style="stroke: #A80036; stroke-width: 1.5;" x1="2212.5" x2="2562.5" y1="515.5" y2="515.5"/><ellipse cx="2222.5" cy="527.4023" fill="#84BE84" rx="3" ry="3" style="stroke: #038048; stroke-width: 1.0;"/><text fill="#000000" font-family="sans-serif" font-size="11" lengthAdjust="spacingAndGlyphs" textLength="273" x="2231.5" y="529.7104">Promise getAllRegistries(SecurityContext,string)</text><ellipse cx="2222.5" cy="540.207" fill="#84BE84" rx="3" ry="3" style="stroke: #038048; stroke-width: 1.0;"/><text fill="#000000" font-family="sans-serif" font-size="11" lengthAdjust="spacingAndGlyphs" textLength="286" x="2231.5" y="542.5151">Promise getRegistry(SecurityContext,string,string)</text><ellipse cx="2222.5" cy="553.0117" fill="#84BE84" rx="3" ry="3" style="stroke: #038048; stroke-width: 1.0;"/><text fill="#000000" font-family="sans-serif" font-size="11" lengthAdjust="spacingAndGlyphs" textLength="326" x="2231.5" y="555.3198">Promise addRegistry(SecurityContext,string,string,string)</text><ellipse cx="2222.5" cy="565.8164" fill="#84BE84" rx="3" ry="3" style="stroke: #038048; stroke-width: 1.0;"/><text fill="#000000" font-family="sans-serif" font-size="11" lengthAdjust="spacingAndGlyphs" textLength="207" x="2231.5" y="568.1245">void constructor(string,string,string)</text><ellipse cx="2222.5" cy="578.6211" fill="#84BE84" rx="3" ry="3" style="stroke: #038048; stroke-width: 1.0;"/><text fill="#000000" font-family="sans-serif" font-size="11" lengthAdjust="spacingAndGlyphs" textLength="243" x="2231.5" y="580.9292">Promise add(SecurityContext,string,string)</text><ellipse cx="2222.5" cy="591.4258" fill="#84BE84" rx="3" ry="3" style="stroke: #038048; stroke-width: 1.0;"/><text fill="#000000" font-family="sans-serif" font-size="11" lengthAdjust="spacingAndGlyphs" textLength="261" x="2231.5" y="593.7339">Promise update(SecurityContext,string,string)</text><ellipse cx="2222.5" cy="604.2305" fill="#84BE84" rx="3" ry="3" style="stroke: #038048; stroke-width: 1.0;"/><text fill="#000000" font-family="sans-serif" font-size="11" lengthAdjust="spacingAndGlyphs" textLength="228" x="2231.5" y="606.5386">Promise remove(SecurityContext,string)</text><ellipse cx="2222.5" cy="617.0352" fill="#84BE84" rx="3" ry="3" style="stroke: #038048; stroke-width: 1.0;"/><text fill="#000000" font-family="sans-serif" font-size="11" lengthAdjust="spacingAndGlyphs" textLength="179" x="2231.5" y="619.3433">Promise getAll(SecurityContext)</text><ellipse cx="2222.5" cy="629.8398" fill="#84BE84" rx="3" ry="3" style="stroke: #038048; stroke-width: 1.0;"/><text fill="#000000" font-family="sans-serif" font-size="11" lengthAdjust="spacingAndGlyphs" textLength="203" x="2231.5" y="632.1479">Promise get(SecurityContext,string)</text><!--class ModelRegistry--><rect fill="#FEFECE" filter="url(#fj228jy)" height="163.2422" style="stroke: #A80036; stroke-width: 1.5;" width="434" x="2170" y="117.5"/><ellipse cx="2339.25" cy="133.5" fill="#ADD1B2" rx="11" ry="11" style="stroke: #A80036; stroke-width: 1.0;"/><path d="M2342.2188,139.1406 Q2341.6406,139.4375 2341,139.5859 Q2340.3594,139.7344 2339.6563,139.7344 Q2337.1563,139.7344 2335.8359,138.0859 Q2334.5156,136.4375 2334.5156,133.3125 Q2334.5156,130.1875 2335.8359,128.5313 Q2337.1563,126.875 2339.6563,126.875 Q2340.3594,126.875 2341.0078,127.0313 Q2341.6563,127.1875 2342.2188,127.4844 L2342.2188,130.2031 Q2341.5938,129.625 2341,129.3516 Q2340.4063,129.0781 2339.7813,129.0781 Q2338.4375,129.0781 2337.75,130.1484 Q2337.0625,131.2188 2337.0625,133.3125 Q2337.0625,135.4063 2337.75,136.4766 Q2338.4375,137.5469 2339.7813,137.5469 Q2340.4063,137.5469 2341,137.2734 Q2341.5938,137 2342.2188,136.4219 L2342.2188,139.1406 Z "/><text fill="#000000" font-family="sans-serif" font-size="12" lengthAdjust="spacingAndGlyphs" textLength="87" x="2359.75" y="137.6543">ModelRegistry</text><line style="stroke: #A80036; stroke-width: 1.5;" x1="2171" x2="2603" y1="149.5" y2="149.5"/><line style="stroke: #A80036; stroke-width: 1.5;" x1="2171" x2="2603" y1="157.5" y2="157.5"/><ellipse cx="2181" cy="169.4023" fill="#84BE84" rx="3" ry="3" style="stroke: #038048; stroke-width: 1.0;"/><text fill="#000000" font-family="sans-serif" font-size="11" lengthAdjust="spacingAndGlyphs" textLength="355" x="2190" y="171.7104">Promise getAllModelRegistries(SecurityContext,ModelManager)</text><ellipse cx="2181" cy="182.207" fill="#84BE84" rx="3" ry="3" style="stroke: #038048; stroke-width: 1.0;"/><text fill="#000000" font-family="sans-serif" font-size="11" lengthAdjust="spacingAndGlyphs" textLength="368" x="2190" y="184.5151">Promise getModelRegistry(SecurityContext,string,ModelManager)</text><ellipse cx="2181" cy="195.0117" fill="#84BE84" rx="3" ry="3" style="stroke: #038048; stroke-width: 1.0;"/><text fill="#000000" font-family="sans-serif" font-size="11" lengthAdjust="spacingAndGlyphs" textLength="408" x="2190" y="197.3198">Promise addModelRegistry(SecurityContext,string,string,ModelManager)</text><ellipse cx="2181" cy="207.8164" fill="#84BE84" rx="3" ry="3" style="stroke: #038048; stroke-width: 1.0;"/><text fill="#000000" font-family="sans-serif" font-size="11" lengthAdjust="spacingAndGlyphs" textLength="256" x="2190" y="210.1245">void constructor(string,string,ModelManager)</text><ellipse cx="2181" cy="220.6211" fill="#84BE84" rx="3" ry="3" style="stroke: #038048; stroke-width: 1.0;"/><text fill="#000000" font-family="sans-serif" font-size="11" lengthAdjust="spacingAndGlyphs" textLength="225" x="2190" y="222.9292">Promise add(SecurityContext,ModelFile)</text><ellipse cx="2181" cy="233.4258" fill="#84BE84" rx="3" ry="3" style="stroke: #038048; stroke-width: 1.0;"/><text fill="#000000" font-family="sans-serif" font-size="11" lengthAdjust="spacingAndGlyphs" textLength="243" x="2190" y="235.7339">Promise update(SecurityContext,ModelFile)</text><ellipse cx="2181" cy="246.2305" fill="#84BE84" rx="3" ry="3" style="stroke: #038048; stroke-width: 1.0;"/><text fill="#000000" font-family="sans-serif" font-size="11" lengthAdjust="spacingAndGlyphs" textLength="292" x="2190" y="248.5386">Promise remove(SecurityContext,(ModelFile|string))</text><ellipse cx="2181" cy="259.0352" fill="#84BE84" rx="3" ry="3" style="stroke: #038048; stroke-width: 1.0;"/><text fill="#000000" font-family="sans-serif" font-size="11" lengthAdjust="spacingAndGlyphs" textLength="179" x="2190" y="261.3433">Promise getAll(SecurityContext)</text><ellipse cx="2181" cy="271.8398" fill="#84BE84" rx="3" ry="3" style="stroke: #038048; stroke-width: 1.0;"/><text fill="#000000" font-family="sans-serif" font-size="11" lengthAdjust="spacingAndGlyphs" textLength="203" x="2190" y="274.1479">Promise get(SecurityContext,string)</text><path d="M707.896,255.234 C713.947,311.926 723.456,401.011 730.557,467.536 " fill="none" style="stroke: #A80036; stroke-width: 1.0;"/><polygon fill="none" points="737.561,467.204,732.724,487.834,723.641,468.69,737.561,467.204" style="stroke: #A80036; stroke-width: 1.0;"/><path d="M885.717,229.74 C862.446,281.844 813.48,391.48 778.743,469.255 " fill="none" style="stroke: #A80036; stroke-width: 1.0;"/><polygon fill="none" points="785.011,472.386,770.463,487.793,772.228,466.677,785.011,472.386" style="stroke: #A80036; stroke-width: 1.0;"/><path d="M1106.27,229.74 C1123.33,291.069 1162.55,432.106 1183.39,507.074 " fill="none" style="stroke: #A80036; stroke-width: 1.0;"/><polygon fill="none" points="1190.14,505.201,1188.75,526.345,1176.65,508.952,1190.14,505.201" style="stroke: #A80036; stroke-width: 1.0;"/><path d="M1538.82,229.711 C1562.94,267.464 1606.37,334.405 1646,390 C1656.1,404.169 1666.87,418.854 1677.71,433.365 " fill="none" style="stroke: #A80036; stroke-width: 1.0;"/><polygon fill="none" points="1683.52,429.445,1689.94,449.638,1672.33,437.857,1683.52,429.445" style="stroke: #A80036; stroke-width: 1.0;"/><path d="M1773,229.74 C1773,273.409 1773,357.492 1773,429.359 " fill="none" style="stroke: #A80036; stroke-width: 1.0;"/><polygon fill="none" points="1780,429.747,1773,449.747,1766,429.747,1780,429.747" style="stroke: #A80036; stroke-width: 1.0;"/><path d="M2002.76,236.155 C1977.76,274.708 1936.54,337.336 1899,390 C1888.85,404.236 1878.05,419.011 1867.2,433.615 " fill="none" style="stroke: #A80036; stroke-width: 1.0;"/><polygon fill="none" points="1872.53,438.164,1854.95,449.992,1861.32,429.782,1872.53,438.164" style="stroke: #A80036; stroke-width: 1.0;"/><path d="M1197,587.531 C1197,618.741 1197,668.274 1197,703.8561 " fill="none" style="stroke: #A80036; stroke-width: 1.0;"/><polygon fill="none" points="1204,703.9195,1197,723.9194,1190,703.9194,1204,703.9195" style="stroke: #A80036; stroke-width: 1.0;"/><path d="M1287.73,229.74 C1270.67,291.069 1231.45,432.106 1210.61,507.074 " fill="none" style="stroke: #A80036; stroke-width: 1.0;"/><polygon fill="none" points="1217.35,508.952,1205.25,526.345,1203.86,505.201,1217.35,508.952" style="stroke: #A80036; stroke-width: 1.0;"/><path d="M2387,280.782 C2387,332.466 2387,399.925 2387,455.119 " fill="none" style="stroke: #A80036; stroke-width: 1.0;"/><polygon fill="none" points="2394,455.23,2387,475.23,2380,455.23,2394,455.23" style="stroke: #A80036; stroke-width: 1.0;"/></g></svg>