<?xml version="1.0" encoding="UTF-8" standalone="no"?><svg xmlns="http://www.w3.org/2000/svg" xmlns:xlink="http://www.w3.org/1999/xlink" contentScriptType="application/ecmascript" contentStyleType="text/css" height="116px" preserveAspectRatio="none" style="width:350px;height:116px;" version="1.1" viewBox="0 0 350 116" width="350px" zoomAndPan="magnify"><defs><filter height="300%" id="fp02cqe" width="300%" x="-1" y="-1"><feGaussianBlur result="blurOut" stdDeviation="2.0"/><feColorMatrix in="blurOut" result="blurOut2" type="matrix" values="0 0 0 0 0 0 0 0 0 0 0 0 0 0 0 0 0 0 .4 0"/><feOffset dx="4.0" dy="4.0" in="blurOut2" result="blurOut3"/><feBlend in="SourceGraphic" in2="blurOut3" mode="normal"/></filter></defs><g><!--class globalize--><rect fill="#FEFECE" filter="url(#fp02cqe)" height="48" style="stroke: #A80036; stroke-width: 1.5;" width="86" x="6" y="34"/><ellipse cx="21" cy="50" fill="#DA70D6" rx="11" ry="11" style="stroke: #A80036; stroke-width: 1.0;"/><path d="M20.7969,45.6719 L20.7969,49.2969 L21.7969,49.2969 Q23,49.2969 23.4844,48.8906 Q23.9688,48.4844 23.9688,47.4844 Q23.9688,46.4844 23.4844,46.0781 Q23,45.6719 21.7969,45.6719 L20.7969,45.6719 Z M18.3438,43.6094 L21.7031,43.6094 Q24.2656,43.6094 25.3906,44.5234 Q26.5156,45.4375 26.5156,47.4844 Q26.5156,49.5313 25.3906,50.4453 Q24.2656,51.3594 21.7031,51.3594 L20.7969,51.3594 L20.7969,56 L18.3438,56 L18.3438,43.6094 Z "/><text fill="#000000" font-family="sans-serif" font-size="12" lengthAdjust="spacingAndGlyphs" textLength="54" x="35" y="54.1543">globalize</text><line style="stroke: #A80036; stroke-width: 1.5;" x1="7" x2="91" y1="66" y2="66"/><line style="stroke: #A80036; stroke-width: 1.5;" x1="7" x2="91" y1="74" y2="74"/><!--class ModelUtil--><rect fill="#FEFECE" filter="url(#fp02cqe)" height="99.2188" style="stroke: #A80036; stroke-width: 1.5;" width="214" x="127.5" y="8.5"/><ellipse cx="201.75" cy="24.5" fill="#ADD1B2" rx="11" ry="11" style="stroke: #A80036; stroke-width: 1.0;"/><path d="M204.7188,30.1406 Q204.1406,30.4375 203.5,30.5859 Q202.8594,30.7344 202.1563,30.7344 Q199.6563,30.7344 198.3359,29.0859 Q197.0156,27.4375 197.0156,24.3125 Q197.0156,21.1875 198.3359,19.5313 Q199.6563,17.875 202.1563,17.875 Q202.8594,17.875 203.5078,18.0313 Q204.1563,18.1875 204.7188,18.4844 L204.7188,21.2031 Q204.0938,20.625 203.5,20.3516 Q202.9063,20.0781 202.2813,20.0781 Q200.9375,20.0781 200.25,21.1484 Q199.5625,22.2188 199.5625,24.3125 Q199.5625,26.4063 200.25,27.4766 Q200.9375,28.5469 202.2813,28.5469 Q202.9063,28.5469 203.5,28.2734 Q204.0938,28 204.7188,27.4219 L204.7188,30.1406 Z "/><text fill="#000000" font-family="sans-serif" font-size="12" lengthAdjust="spacingAndGlyphs" textLength="57" x="222.25" y="28.6543">ModelUtil</text><line style="stroke: #A80036; stroke-width: 1.5;" x1="128.5" x2="340.5" y1="40.5" y2="40.5"/><line style="stroke: #A80036; stroke-width: 1.5;" x1="128.5" x2="340.5" y1="48.5" y2="48.5"/><rect fill="#F24D5C" height="6" style="stroke: #C82930; stroke-width: 1.0;" width="6" x="135.5" y="57.4023"/><text fill="#000000" font-family="sans-serif" font-size="11" lengthAdjust="spacingAndGlyphs" textLength="160" x="147.5" y="62.7104">string getShortName(string)</text><rect fill="#F24D5C" height="6" style="stroke: #C82930; stroke-width: 1.0;" width="6" x="135.5" y="70.207"/><text fill="#000000" font-family="sans-serif" font-size="11" lengthAdjust="spacingAndGlyphs" textLength="163" x="147.5" y="75.5151">string getNamespace(string)</text><rect fill="#F24D5C" height="6" style="stroke: #C82930; stroke-width: 1.0;" width="6" x="135.5" y="83.0117"/><text fill="#000000" font-family="sans-serif" font-size="11" lengthAdjust="spacingAndGlyphs" textLength="176" x="147.5" y="88.3198">boolean isPrimitiveType(string)</text><rect fill="#F24D5C" height="6" style="stroke: #C82930; stroke-width: 1.0;" width="6" x="135.5" y="95.8164"/><text fill="#000000" font-family="sans-serif" font-size="11" lengthAdjust="spacingAndGlyphs" textLength="188" x="147.5" y="101.1245">string capitalizeFirstLetter(string)</text></g></svg>