<?xml version="1.0" encoding="UTF-8" standalone="no"?><svg xmlns="http://www.w3.org/2000/svg" xmlns:xlink="http://www.w3.org/1999/xlink" contentScriptType="application/ecmascript" contentStyleType="text/css" height="673px" preserveAspectRatio="none" style="width:1829px;height:673px;" version="1.1" viewBox="0 0 1829 673" width="1829px" zoomAndPan="magnify"><defs><filter height="300%" id="fzhu05i" width="300%" x="-1" y="-1"><feGaussianBlur result="blurOut" stdDeviation="2.0"/><feColorMatrix in="blurOut" result="blurOut2" type="matrix" values="0 0 0 0 0 0 0 0 0 0 0 0 0 0 0 0 0 0 .4 0"/><feOffset dx="4.0" dy="4.0" in="blurOut2" result="blurOut3"/><feBlend in="SourceGraphic" in2="blurOut3" mode="normal"/></filter></defs><g><!--class parser--><rect fill="#FEFECE" filter="url(#fzhu05i)" height="48" style="stroke: #A80036; stroke-width: 1.5;" width="73" x="6" y="175"/><ellipse cx="21" cy="191" fill="#DA70D6" rx="11" ry="11" style="stroke: #A80036; stroke-width: 1.0;"/><path d="M20.7969,186.6719 L20.7969,190.2969 L21.7969,190.2969 Q23,190.2969 23.4844,189.8906 Q23.9688,189.4844 23.9688,188.4844 Q23.9688,187.4844 23.4844,187.0781 Q23,186.6719 21.7969,186.6719 L20.7969,186.6719 Z M18.3438,184.6094 L21.7031,184.6094 Q24.2656,184.6094 25.3906,185.5234 Q26.5156,186.4375 26.5156,188.4844 Q26.5156,190.5313 25.3906,191.4453 Q24.2656,192.3594 21.7031,192.3594 L20.7969,192.3594 L20.7969,197 L18.3438,197 L18.3438,184.6094 Z "/><text fill="#000000" font-family="sans-serif" font-size="12" lengthAdjust="spacingAndGlyphs" textLength="41" x="35" y="195.1543">parser</text><line style="stroke: #A80036; stroke-width: 1.5;" x1="7" x2="78" y1="207" y2="207"/><line style="stroke: #A80036; stroke-width: 1.5;" x1="7" x2="78" y1="215" y2="215"/><!--class Property--><rect fill="#FEFECE" filter="url(#fzhu05i)" height="137.6328" style="stroke: #A80036; stroke-width: 1.5;" width="201" x="193" y="488"/><ellipse cx="262.75" cy="504" fill="#ADD1B2" rx="11" ry="11" style="stroke: #A80036; stroke-width: 1.0;"/><path d="M265.7188,509.6406 Q265.1406,509.9375 264.5,510.0859 Q263.8594,510.2344 263.1563,510.2344 Q260.6563,510.2344 259.3359,508.5859 Q258.0156,506.9375 258.0156,503.8125 Q258.0156,500.6875 259.3359,499.0313 Q260.6563,497.375 263.1563,497.375 Q263.8594,497.375 264.5078,497.5313 Q265.1563,497.6875 265.7188,497.9844 L265.7188,500.7031 Q265.0938,500.125 264.5,499.8516 Q263.9063,499.5781 263.2813,499.5781 Q261.9375,499.5781 261.25,500.6484 Q260.5625,501.7188 260.5625,503.8125 Q260.5625,505.9063 261.25,506.9766 Q261.9375,508.0469 263.2813,508.0469 Q263.9063,508.0469 264.5,507.7734 Q265.0938,507.5 265.7188,506.9219 L265.7188,509.6406 Z "/><text fill="#000000" font-family="sans-serif" font-size="12" lengthAdjust="spacingAndGlyphs" textLength="53" x="283.25" y="508.1543">Property</text><line style="stroke: #A80036; stroke-width: 1.5;" x1="194" x2="393" y1="520" y2="520"/><line style="stroke: #A80036; stroke-width: 1.5;" x1="194" x2="393" y1="528" y2="528"/><ellipse cx="204" cy="539.9023" fill="#84BE84" rx="3" ry="3" style="stroke: #038048; stroke-width: 1.0;"/><text fill="#000000" font-family="sans-serif" font-size="11" lengthAdjust="spacingAndGlyphs" textLength="136" x="213" y="542.2104">void constructor(Object)</text><rect fill="#F24D5C" height="6" style="stroke: #C82930; stroke-width: 1.0;" width="6" x="201" y="549.707"/><text fill="#000000" font-family="sans-serif" font-size="11" lengthAdjust="spacingAndGlyphs" textLength="161" x="213" y="555.0151">Object accept(Object,Object)</text><rect fill="#F24D5C" height="6" style="stroke: #C82930; stroke-width: 1.0;" width="6" x="201" y="562.5117"/><text fill="#000000" font-family="sans-serif" font-size="11" lengthAdjust="spacingAndGlyphs" textLength="81" x="213" y="567.8198">void process()</text><rect fill="#F24D5C" height="6" style="stroke: #C82930; stroke-width: 1.0;" width="6" x="201" y="575.3164"/><text fill="#000000" font-family="sans-serif" font-size="11" lengthAdjust="spacingAndGlyphs" textLength="175" x="213" y="580.6245">void validate(ClassDeclaration)</text><ellipse cx="204" cy="591.1211" fill="#84BE84" rx="3" ry="3" style="stroke: #038048; stroke-width: 1.0;"/><text fill="#000000" font-family="sans-serif" font-size="11" lengthAdjust="spacingAndGlyphs" textLength="96" x="213" y="593.4292">string getName()</text><ellipse cx="204" cy="603.9258" fill="#84BE84" rx="3" ry="3" style="stroke: #038048; stroke-width: 1.0;"/><text fill="#000000" font-family="sans-serif" font-size="11" lengthAdjust="spacingAndGlyphs" textLength="90" x="213" y="606.2339">string getType()</text><ellipse cx="204" cy="616.7305" fill="#84BE84" rx="3" ry="3" style="stroke: #038048; stroke-width: 1.0;"/><text fill="#000000" font-family="sans-serif" font-size="11" lengthAdjust="spacingAndGlyphs" textLength="97" x="213" y="619.0386">boolean isArray()</text><!--class Field--><rect fill="#FEFECE" filter="url(#fzhu05i)" height="112.0234" style="stroke: #A80036; stroke-width: 1.5;" width="162" x="114.25" y="143"/><ellipse cx="176.5" cy="159" fill="#ADD1B2" rx="11" ry="11" style="stroke: #A80036; stroke-width: 1.0;"/><path d="M179.4688,164.6406 Q178.8906,164.9375 178.25,165.0859 Q177.6094,165.2344 176.9063,165.2344 Q174.4063,165.2344 173.0859,163.5859 Q171.7656,161.9375 171.7656,158.8125 Q171.7656,155.6875 173.0859,154.0313 Q174.4063,152.375 176.9063,152.375 Q177.6094,152.375 178.2578,152.5313 Q178.9063,152.6875 179.4688,152.9844 L179.4688,155.7031 Q178.8438,155.125 178.25,154.8516 Q177.6563,154.5781 177.0313,154.5781 Q175.6875,154.5781 175,155.6484 Q174.3125,156.7188 174.3125,158.8125 Q174.3125,160.9063 175,161.9766 Q175.6875,163.0469 177.0313,163.0469 Q177.6563,163.0469 178.25,162.7734 Q178.8438,162.5 179.4688,161.9219 L179.4688,164.6406 Z "/><text fill="#000000" font-family="sans-serif" font-size="12" lengthAdjust="spacingAndGlyphs" textLength="29" x="197" y="163.1543">Field</text><line style="stroke: #A80036; stroke-width: 1.5;" x1="115.25" x2="275.25" y1="175" y2="175"/><line style="stroke: #A80036; stroke-width: 1.5;" x1="115.25" x2="275.25" y1="183" y2="183"/><ellipse cx="125.25" cy="194.9023" fill="#84BE84" rx="3" ry="3" style="stroke: #038048; stroke-width: 1.0;"/><text fill="#000000" font-family="sans-serif" font-size="11" lengthAdjust="spacingAndGlyphs" textLength="136" x="134.25" y="197.2104">void constructor(Object)</text><rect fill="#F24D5C" height="6" style="stroke: #C82930; stroke-width: 1.0;" width="6" x="122.25" y="204.707"/><text fill="#000000" font-family="sans-serif" font-size="11" lengthAdjust="spacingAndGlyphs" textLength="81" x="134.25" y="210.0151">void process()</text><ellipse cx="125.25" cy="220.5117" fill="#84BE84" rx="3" ry="3" style="stroke: #038048; stroke-width: 1.0;"/><text fill="#000000" font-family="sans-serif" font-size="11" lengthAdjust="spacingAndGlyphs" textLength="113" x="134.25" y="222.8198">string getValidator()</text><ellipse cx="125.25" cy="233.3164" fill="#84BE84" rx="3" ry="3" style="stroke: #038048; stroke-width: 1.0;"/><text fill="#000000" font-family="sans-serif" font-size="11" lengthAdjust="spacingAndGlyphs" textLength="114" x="134.25" y="235.6245">boolean isOptional()</text><ellipse cx="125.25" cy="246.1211" fill="#84BE84" rx="3" ry="3" style="stroke: #038048; stroke-width: 1.0;"/><text fill="#000000" font-family="sans-serif" font-size="11" lengthAdjust="spacingAndGlyphs" textLength="134" x="134.25" y="248.4292">string getDefaultValue()</text><!--class Relationship--><rect fill="#FEFECE" filter="url(#fzhu05i)" height="60.8047" style="stroke: #A80036; stroke-width: 1.5;" width="162" x="311.25" y="168.5"/><ellipse cx="350.1" cy="184.5" fill="#ADD1B2" rx="11" ry="11" style="stroke: #A80036; stroke-width: 1.0;"/><path d="M353.0688,190.1406 Q352.4906,190.4375 351.85,190.5859 Q351.2094,190.7344 350.5063,190.7344 Q348.0063,190.7344 346.6859,189.0859 Q345.3656,187.4375 345.3656,184.3125 Q345.3656,181.1875 346.6859,179.5313 Q348.0063,177.875 350.5063,177.875 Q351.2094,177.875 351.8578,178.0313 Q352.5063,178.1875 353.0688,178.4844 L353.0688,181.2031 Q352.4438,180.625 351.85,180.3516 Q351.2563,180.0781 350.6313,180.0781 Q349.2875,180.0781 348.6,181.1484 Q347.9125,182.2188 347.9125,184.3125 Q347.9125,186.4063 348.6,187.4766 Q349.2875,188.5469 350.6313,188.5469 Q351.2563,188.5469 351.85,188.2734 Q352.4438,188 353.0688,187.4219 L353.0688,190.1406 Z "/><text fill="#000000" font-family="sans-serif" font-size="12" lengthAdjust="spacingAndGlyphs" textLength="77" x="369.4" y="188.6543">Relationship</text><line style="stroke: #A80036; stroke-width: 1.5;" x1="312.25" x2="472.25" y1="200.5" y2="200.5"/><line style="stroke: #A80036; stroke-width: 1.5;" x1="312.25" x2="472.25" y1="208.5" y2="208.5"/><ellipse cx="322.25" cy="220.4023" fill="#84BE84" rx="3" ry="3" style="stroke: #038048; stroke-width: 1.0;"/><text fill="#000000" font-family="sans-serif" font-size="11" lengthAdjust="spacingAndGlyphs" textLength="136" x="331.25" y="222.7104">void constructor(Object)</text><!--class IllegalModelException--><rect fill="#FEFECE" filter="url(#fzhu05i)" height="60.8047" style="stroke: #A80036; stroke-width: 1.5;" width="166" x="508.25" y="168.5"/><ellipse cx="523.25" cy="184.5" fill="#ADD1B2" rx="11" ry="11" style="stroke: #A80036; stroke-width: 1.0;"/><path d="M526.2188,190.1406 Q525.6406,190.4375 525,190.5859 Q524.3594,190.7344 523.6563,190.7344 Q521.1563,190.7344 519.8359,189.0859 Q518.5156,187.4375 518.5156,184.3125 Q518.5156,181.1875 519.8359,179.5313 Q521.1563,177.875 523.6563,177.875 Q524.3594,177.875 525.0078,178.0313 Q525.6563,178.1875 526.2188,178.4844 L526.2188,181.2031 Q525.5938,180.625 525,180.3516 Q524.4063,180.0781 523.7813,180.0781 Q522.4375,180.0781 521.75,181.1484 Q521.0625,182.2188 521.0625,184.3125 Q521.0625,186.4063 521.75,187.4766 Q522.4375,188.5469 523.7813,188.5469 Q524.4063,188.5469 525,188.2734 Q525.5938,188 526.2188,187.4219 L526.2188,190.1406 Z "/><text fill="#000000" font-family="sans-serif" font-size="12" lengthAdjust="spacingAndGlyphs" textLength="134" x="537.25" y="188.6543">IllegalModelException</text><line style="stroke: #A80036; stroke-width: 1.5;" x1="509.25" x2="673.25" y1="200.5" y2="200.5"/><line style="stroke: #A80036; stroke-width: 1.5;" x1="509.25" x2="673.25" y1="208.5" y2="208.5"/><ellipse cx="519.25" cy="220.4023" fill="#84BE84" rx="3" ry="3" style="stroke: #038048; stroke-width: 1.0;"/><text fill="#000000" font-family="sans-serif" font-size="11" lengthAdjust="spacingAndGlyphs" textLength="133" x="528.25" y="222.7104">void constructor(string)</text><!--class BaseException--><rect fill="#FEFECE" filter="url(#fzhu05i)" height="48" style="stroke: #A80036; stroke-width: 1.5;" width="124" x="529.75" y="533"/><ellipse cx="544.75" cy="549" fill="#ADD1B2" rx="11" ry="11" style="stroke: #A80036; stroke-width: 1.0;"/><path d="M547.7188,554.6406 Q547.1406,554.9375 546.5,555.0859 Q545.8594,555.2344 545.1563,555.2344 Q542.6563,555.2344 541.3359,553.5859 Q540.0156,551.9375 540.0156,548.8125 Q540.0156,545.6875 541.3359,544.0313 Q542.6563,542.375 545.1563,542.375 Q545.8594,542.375 546.5078,542.5313 Q547.1563,542.6875 547.7188,542.9844 L547.7188,545.7031 Q547.0938,545.125 546.5,544.8516 Q545.9063,544.5781 545.2813,544.5781 Q543.9375,544.5781 543.25,545.6484 Q542.5625,546.7188 542.5625,548.8125 Q542.5625,550.9063 543.25,551.9766 Q543.9375,553.0469 545.2813,553.0469 Q545.9063,553.0469 546.5,552.7734 Q547.0938,552.5 547.7188,551.9219 L547.7188,554.6406 Z "/><text fill="#000000" font-family="sans-serif" font-size="12" lengthAdjust="spacingAndGlyphs" textLength="92" x="558.75" y="553.1543">BaseException</text><line style="stroke: #A80036; stroke-width: 1.5;" x1="530.75" x2="652.75" y1="565" y2="565"/><line style="stroke: #A80036; stroke-width: 1.5;" x1="530.75" x2="652.75" y1="573" y2="573"/><!--class ClassDeclaration--><rect fill="#FEFECE" filter="url(#fzhu05i)" height="214.4609" style="stroke: #A80036; stroke-width: 1.5;" width="215" x="964" y="450"/><ellipse cx="1014.75" cy="466" fill="#ADD1B2" rx="11" ry="11" style="stroke: #A80036; stroke-width: 1.0;"/><path d="M1017.7188,471.6406 Q1017.1406,471.9375 1016.5,472.0859 Q1015.8594,472.2344 1015.1563,472.2344 Q1012.6563,472.2344 1011.3359,470.5859 Q1010.0156,468.9375 1010.0156,465.8125 Q1010.0156,462.6875 1011.3359,461.0313 Q1012.6563,459.375 1015.1563,459.375 Q1015.8594,459.375 1016.5078,459.5313 Q1017.1563,459.6875 1017.7188,459.9844 L1017.7188,462.7031 Q1017.0938,462.125 1016.5,461.8516 Q1015.9063,461.5781 1015.2813,461.5781 Q1013.9375,461.5781 1013.25,462.6484 Q1012.5625,463.7188 1012.5625,465.8125 Q1012.5625,467.9063 1013.25,468.9766 Q1013.9375,470.0469 1015.2813,470.0469 Q1015.9063,470.0469 1016.5,469.7734 Q1017.0938,469.5 1017.7188,468.9219 L1017.7188,471.6406 Z "/><text fill="#000000" font-family="sans-serif" font-size="12" lengthAdjust="spacingAndGlyphs" textLength="105" x="1035.25" y="470.1543">ClassDeclaration</text><line style="stroke: #A80036; stroke-width: 1.5;" x1="965" x2="1178" y1="482" y2="482"/><line style="stroke: #A80036; stroke-width: 1.5;" x1="965" x2="1178" y1="490" y2="490"/><ellipse cx="975" cy="501.9023" fill="#84BE84" rx="3" ry="3" style="stroke: #038048; stroke-width: 1.0;"/><text fill="#000000" font-family="sans-serif" font-size="11" lengthAdjust="spacingAndGlyphs" textLength="189" x="984" y="504.2104">void constructor(ModelFile,string)</text><rect fill="#F24D5C" height="6" style="stroke: #C82930; stroke-width: 1.0;" width="6" x="972" y="511.707"/><text fill="#000000" font-family="sans-serif" font-size="11" lengthAdjust="spacingAndGlyphs" textLength="161" x="984" y="517.0151">Object accept(Object,Object)</text><ellipse cx="975" cy="527.5117" fill="#84BE84" rx="3" ry="3" style="stroke: #038048; stroke-width: 1.0;"/><text fill="#000000" font-family="sans-serif" font-size="11" lengthAdjust="spacingAndGlyphs" textLength="134" x="984" y="529.8198">ModelFile getModelFile()</text><rect fill="#F24D5C" height="6" style="stroke: #C82930; stroke-width: 1.0;" width="6" x="972" y="537.3164"/><text fill="#000000" font-family="sans-serif" font-size="11" lengthAdjust="spacingAndGlyphs" textLength="81" x="984" y="542.6245">void process()</text><rect fill="#F24D5C" height="6" style="stroke: #C82930; stroke-width: 1.0;" width="6" x="972" y="550.1211"/><text fill="#000000" font-family="sans-serif" font-size="11" lengthAdjust="spacingAndGlyphs" textLength="79" x="984" y="555.4292">void validate()</text><ellipse cx="975" cy="565.9258" fill="#84BE84" rx="3" ry="3" style="stroke: #038048; stroke-width: 1.0;"/><text fill="#000000" font-family="sans-serif" font-size="11" lengthAdjust="spacingAndGlyphs" textLength="96" x="984" y="568.2339">string getName()</text><ellipse cx="975" cy="578.7305" fill="#84BE84" rx="3" ry="3" style="stroke: #038048; stroke-width: 1.0;"/><text fill="#000000" font-family="sans-serif" font-size="11" lengthAdjust="spacingAndGlyphs" textLength="171" x="984" y="581.0386">string getFullyQualifiedName()</text><ellipse cx="975" cy="591.5352" fill="#84BE84" rx="3" ry="3" style="stroke: #038048; stroke-width: 1.0;"/><text fill="#000000" font-family="sans-serif" font-size="11" lengthAdjust="spacingAndGlyphs" textLength="172" x="984" y="593.8433">string getIdentifierFieldName()</text><ellipse cx="975" cy="604.3398" fill="#84BE84" rx="3" ry="3" style="stroke: #038048; stroke-width: 1.0;"/><text fill="#000000" font-family="sans-serif" font-size="11" lengthAdjust="spacingAndGlyphs" textLength="140" x="984" y="606.6479">Field getOwnField(string)</text><ellipse cx="975" cy="617.1445" fill="#84BE84" rx="3" ry="3" style="stroke: #038048; stroke-width: 1.0;"/><text fill="#000000" font-family="sans-serif" font-size="11" lengthAdjust="spacingAndGlyphs" textLength="122" x="984" y="619.4526">Field[] getOwnFields()</text><ellipse cx="975" cy="629.9492" fill="#84BE84" rx="3" ry="3" style="stroke: #038048; stroke-width: 1.0;"/><text fill="#000000" font-family="sans-serif" font-size="11" lengthAdjust="spacingAndGlyphs" textLength="124" x="984" y="632.2573">string getSuperType()</text><ellipse cx="975" cy="642.7539" fill="#84BE84" rx="3" ry="3" style="stroke: #038048; stroke-width: 1.0;"/><text fill="#000000" font-family="sans-serif" font-size="11" lengthAdjust="spacingAndGlyphs" textLength="115" x="984" y="645.062">Field getField(string)</text><ellipse cx="975" cy="655.5586" fill="#84BE84" rx="3" ry="3" style="stroke: #038048; stroke-width: 1.0;"/><text fill="#000000" font-family="sans-serif" font-size="11" lengthAdjust="spacingAndGlyphs" textLength="97" x="984" y="657.8667">Field[] getFields()</text><!--class AssetDeclaration--><rect fill="#FEFECE" filter="url(#fzhu05i)" height="60.8047" style="stroke: #A80036; stroke-width: 1.5;" width="218" x="709.25" y="168.5"/><ellipse cx="760.5" cy="184.5" fill="#ADD1B2" rx="11" ry="11" style="stroke: #A80036; stroke-width: 1.0;"/><path d="M763.4688,190.1406 Q762.8906,190.4375 762.25,190.5859 Q761.6094,190.7344 760.9063,190.7344 Q758.4063,190.7344 757.0859,189.0859 Q755.7656,187.4375 755.7656,184.3125 Q755.7656,181.1875 757.0859,179.5313 Q758.4063,177.875 760.9063,177.875 Q761.6094,177.875 762.2578,178.0313 Q762.9063,178.1875 763.4688,178.4844 L763.4688,181.2031 Q762.8438,180.625 762.25,180.3516 Q761.6563,180.0781 761.0313,180.0781 Q759.6875,180.0781 759,181.1484 Q758.3125,182.2188 758.3125,184.3125 Q758.3125,186.4063 759,187.4766 Q759.6875,188.5469 761.0313,188.5469 Q761.6563,188.5469 762.25,188.2734 Q762.8438,188 763.4688,187.4219 L763.4688,190.1406 Z "/><text fill="#000000" font-family="sans-serif" font-size="12" lengthAdjust="spacingAndGlyphs" textLength="107" x="781" y="188.6543">AssetDeclaration</text><line style="stroke: #A80036; stroke-width: 1.5;" x1="710.25" x2="926.25" y1="200.5" y2="200.5"/><line style="stroke: #A80036; stroke-width: 1.5;" x1="710.25" x2="926.25" y1="208.5" y2="208.5"/><ellipse cx="720.25" cy="220.4023" fill="#84BE84" rx="3" ry="3" style="stroke: #038048; stroke-width: 1.0;"/><text fill="#000000" font-family="sans-serif" font-size="11" lengthAdjust="spacingAndGlyphs" textLength="192" x="729.25" y="222.7104">void constructor(ModelFile,Object)</text><!--class ParticipantDeclaration--><rect fill="#FEFECE" filter="url(#fzhu05i)" height="60.8047" style="stroke: #A80036; stroke-width: 1.5;" width="218" x="962.25" y="168.5"/><ellipse cx="997.95" cy="184.5" fill="#ADD1B2" rx="11" ry="11" style="stroke: #A80036; stroke-width: 1.0;"/><path d="M1000.9188,190.1406 Q1000.3406,190.4375 999.7,190.5859 Q999.0594,190.7344 998.3563,190.7344 Q995.8563,190.7344 994.5359,189.0859 Q993.2156,187.4375 993.2156,184.3125 Q993.2156,181.1875 994.5359,179.5313 Q995.8563,177.875 998.3563,177.875 Q999.0594,177.875 999.7078,178.0313 Q1000.3563,178.1875 1000.9188,178.4844 L1000.9188,181.2031 Q1000.2938,180.625 999.7,180.3516 Q999.1063,180.0781 998.4813,180.0781 Q997.1375,180.0781 996.45,181.1484 Q995.7625,182.2188 995.7625,184.3125 Q995.7625,186.4063 996.45,187.4766 Q997.1375,188.5469 998.4813,188.5469 Q999.1063,188.5469 999.7,188.2734 Q1000.2938,188 1000.9188,187.4219 L1000.9188,190.1406 Z "/><text fill="#000000" font-family="sans-serif" font-size="12" lengthAdjust="spacingAndGlyphs" textLength="140" x="1016.55" y="188.6543">ParticipantDeclaration</text><line style="stroke: #A80036; stroke-width: 1.5;" x1="963.25" x2="1179.25" y1="200.5" y2="200.5"/><line style="stroke: #A80036; stroke-width: 1.5;" x1="963.25" x2="1179.25" y1="208.5" y2="208.5"/><ellipse cx="973.25" cy="220.4023" fill="#84BE84" rx="3" ry="3" style="stroke: #038048; stroke-width: 1.0;"/><text fill="#000000" font-family="sans-serif" font-size="11" lengthAdjust="spacingAndGlyphs" textLength="192" x="982.25" y="222.7104">void constructor(ModelFile,Object)</text><!--class TransactionDeclaration--><rect fill="#FEFECE" filter="url(#fzhu05i)" height="73.6094" style="stroke: #A80036; stroke-width: 1.5;" width="218" x="1215.25" y="162"/><ellipse cx="1248.25" cy="178" fill="#ADD1B2" rx="11" ry="11" style="stroke: #A80036; stroke-width: 1.0;"/><path d="M1251.2188,183.6406 Q1250.6406,183.9375 1250,184.0859 Q1249.3594,184.2344 1248.6563,184.2344 Q1246.1563,184.2344 1244.8359,182.5859 Q1243.5156,180.9375 1243.5156,177.8125 Q1243.5156,174.6875 1244.8359,173.0313 Q1246.1563,171.375 1248.6563,171.375 Q1249.3594,171.375 1250.0078,171.5313 Q1250.6563,171.6875 1251.2188,171.9844 L1251.2188,174.7031 Q1250.5938,174.125 1250,173.8516 Q1249.4063,173.5781 1248.7813,173.5781 Q1247.4375,173.5781 1246.75,174.6484 Q1246.0625,175.7188 1246.0625,177.8125 Q1246.0625,179.9063 1246.75,180.9766 Q1247.4375,182.0469 1248.7813,182.0469 Q1249.4063,182.0469 1250,181.7734 Q1250.5938,181.5 1251.2188,180.9219 L1251.2188,183.6406 Z "/><text fill="#000000" font-family="sans-serif" font-size="12" lengthAdjust="spacingAndGlyphs" textLength="146" x="1266.25" y="182.1543">TransactionDeclaration</text><line style="stroke: #A80036; stroke-width: 1.5;" x1="1216.25" x2="1432.25" y1="194" y2="194"/><line style="stroke: #A80036; stroke-width: 1.5;" x1="1216.25" x2="1432.25" y1="202" y2="202"/><ellipse cx="1226.25" cy="213.9023" fill="#84BE84" rx="3" ry="3" style="stroke: #038048; stroke-width: 1.0;"/><text fill="#000000" font-family="sans-serif" font-size="11" lengthAdjust="spacingAndGlyphs" textLength="192" x="1235.25" y="216.2104">void constructor(ModelFile,Object)</text><rect fill="#F24D5C" height="6" style="stroke: #C82930; stroke-width: 1.0;" width="6" x="1223.25" y="223.707"/><text fill="#000000" font-family="sans-serif" font-size="11" lengthAdjust="spacingAndGlyphs" textLength="162" x="1235.25" y="229.0151">void getIdentifierFieldName()</text><!--class ModelFile--><rect fill="#FEFECE" filter="url(#fzhu05i)" height="380.9219" style="stroke: #A80036; stroke-width: 1.5;" width="351" x="1469" y="8.5"/><ellipse cx="1611.25" cy="24.5" fill="#ADD1B2" rx="11" ry="11" style="stroke: #A80036; stroke-width: 1.0;"/><path d="M1614.2188,30.1406 Q1613.6406,30.4375 1613,30.5859 Q1612.3594,30.7344 1611.6563,30.7344 Q1609.1563,30.7344 1607.8359,29.0859 Q1606.5156,27.4375 1606.5156,24.3125 Q1606.5156,21.1875 1607.8359,19.5313 Q1609.1563,17.875 1611.6563,17.875 Q1612.3594,17.875 1613.0078,18.0313 Q1613.6563,18.1875 1614.2188,18.4844 L1614.2188,21.2031 Q1613.5938,20.625 1613,20.3516 Q1612.4063,20.0781 1611.7813,20.0781 Q1610.4375,20.0781 1609.75,21.1484 Q1609.0625,22.2188 1609.0625,24.3125 Q1609.0625,26.4063 1609.75,27.4766 Q1610.4375,28.5469 1611.7813,28.5469 Q1612.4063,28.5469 1613,28.2734 Q1613.5938,28 1614.2188,27.4219 L1614.2188,30.1406 Z "/><text fill="#000000" font-family="sans-serif" font-size="12" lengthAdjust="spacingAndGlyphs" textLength="58" x="1631.75" y="28.6543">ModelFile</text><line style="stroke: #A80036; stroke-width: 1.5;" x1="1470" x2="1819" y1="40.5" y2="40.5"/><line style="stroke: #A80036; stroke-width: 1.5;" x1="1470" x2="1819" y1="48.5" y2="48.5"/><ellipse cx="1480" cy="60.4023" fill="#84BE84" rx="3" ry="3" style="stroke: #038048; stroke-width: 1.0;"/><text fill="#000000" font-family="sans-serif" font-size="11" lengthAdjust="spacingAndGlyphs" textLength="238" x="1489" y="62.7104">ModelFile fromJSON(ModelManager,string)</text><ellipse cx="1480" cy="73.207" fill="#84BE84" rx="3" ry="3" style="stroke: #038048; stroke-width: 1.0;"/><text fill="#000000" font-family="sans-serif" font-size="11" lengthAdjust="spacingAndGlyphs" textLength="293" x="1489" y="75.5151">void constructor(ModelManager,string,string,string)</text><rect fill="#F24D5C" height="6" style="stroke: #C82930; stroke-width: 1.0;" width="6" x="1477" y="83.0117"/><text fill="#000000" font-family="sans-serif" font-size="11" lengthAdjust="spacingAndGlyphs" textLength="161" x="1489" y="88.3198">Object accept(Object,Object)</text><ellipse cx="1480" cy="98.8164" fill="#84BE84" rx="3" ry="3" style="stroke: #038048; stroke-width: 1.0;"/><text fill="#000000" font-family="sans-serif" font-size="11" lengthAdjust="spacingAndGlyphs" textLength="194" x="1489" y="101.1245">ModelManager getModelManager()</text><ellipse cx="1480" cy="111.6211" fill="#84BE84" rx="3" ry="3" style="stroke: #038048; stroke-width: 1.0;"/><text fill="#000000" font-family="sans-serif" font-size="11" lengthAdjust="spacingAndGlyphs" textLength="115" x="1489" y="113.9292">string[] getImports()</text><rect fill="#F24D5C" height="6" style="stroke: #C82930; stroke-width: 1.0;" width="6" x="1477" y="121.4258"/><text fill="#000000" font-family="sans-serif" font-size="11" lengthAdjust="spacingAndGlyphs" textLength="79" x="1489" y="126.7339">void validate()</text><rect fill="#F24D5C" height="6" style="stroke: #C82930; stroke-width: 1.0;" width="6" x="1477" y="134.2305"/><text fill="#000000" font-family="sans-serif" font-size="11" lengthAdjust="spacingAndGlyphs" textLength="184" x="1489" y="139.5386">string resolveType(string,string)</text><rect fill="#F24D5C" height="6" style="stroke: #C82930; stroke-width: 1.0;" width="6" x="1477" y="147.0352"/><text fill="#000000" font-family="sans-serif" font-size="11" lengthAdjust="spacingAndGlyphs" textLength="156" x="1489" y="152.3433">boolean isLocalType(string)</text><rect fill="#F24D5C" height="6" style="stroke: #C82930; stroke-width: 1.0;" width="6" x="1477" y="159.8398"/><text fill="#000000" font-family="sans-serif" font-size="11" lengthAdjust="spacingAndGlyphs" textLength="178" x="1489" y="165.1479">boolean isImportedType(string)</text><rect fill="#F24D5C" height="6" style="stroke: #C82930; stroke-width: 1.0;" width="6" x="1477" y="172.6445"/><text fill="#000000" font-family="sans-serif" font-size="11" lengthAdjust="spacingAndGlyphs" textLength="157" x="1489" y="177.9526">string resolveImport(string)</text><ellipse cx="1480" cy="188.4492" fill="#84BE84" rx="3" ry="3" style="stroke: #038048; stroke-width: 1.0;"/><text fill="#000000" font-family="sans-serif" font-size="11" lengthAdjust="spacingAndGlyphs" textLength="143" x="1489" y="190.7573">boolean isDefined(string)</text><ellipse cx="1480" cy="201.2539" fill="#84BE84" rx="3" ry="3" style="stroke: #038048; stroke-width: 1.0;"/><text fill="#000000" font-family="sans-serif" font-size="11" lengthAdjust="spacingAndGlyphs" textLength="186" x="1489" y="203.562">ClassDeclaration getType(string)</text><ellipse cx="1480" cy="214.0586" fill="#84BE84" rx="3" ry="3" style="stroke: #038048; stroke-width: 1.0;"/><text fill="#000000" font-family="sans-serif" font-size="11" lengthAdjust="spacingAndGlyphs" textLength="255" x="1489" y="216.3667">AssetDeclaration getAssetDeclaration(string)</text><ellipse cx="1480" cy="226.8633" fill="#84BE84" rx="3" ry="3" style="stroke: #038048; stroke-width: 1.0;"/><text fill="#000000" font-family="sans-serif" font-size="11" lengthAdjust="spacingAndGlyphs" textLength="325" x="1489" y="229.1714">TransactionDeclaration getTransactionDeclaration(string)</text><ellipse cx="1480" cy="239.668" fill="#84BE84" rx="3" ry="3" style="stroke: #038048; stroke-width: 1.0;"/><text fill="#000000" font-family="sans-serif" font-size="11" lengthAdjust="spacingAndGlyphs" textLength="311" x="1489" y="241.9761">ParticipantDeclaration getParticipantDeclaration(string)</text><ellipse cx="1480" cy="252.4727" fill="#84BE84" rx="3" ry="3" style="stroke: #038048; stroke-width: 1.0;"/><text fill="#000000" font-family="sans-serif" font-size="11" lengthAdjust="spacingAndGlyphs" textLength="130" x="1489" y="254.7808">string getNamespace()</text><ellipse cx="1480" cy="265.2773" fill="#84BE84" rx="3" ry="3" style="stroke: #038048; stroke-width: 1.0;"/><text fill="#000000" font-family="sans-serif" font-size="11" lengthAdjust="spacingAndGlyphs" textLength="237" x="1489" y="267.5854">AssetDeclaration[] getAssetDeclarations()</text><ellipse cx="1480" cy="278.082" fill="#84BE84" rx="3" ry="3" style="stroke: #038048; stroke-width: 1.0;"/><text fill="#000000" font-family="sans-serif" font-size="11" lengthAdjust="spacingAndGlyphs" textLength="307" x="1489" y="280.3901">TransactionDeclaration[] getTransactionDeclarations()</text><ellipse cx="1480" cy="290.8867" fill="#84BE84" rx="3" ry="3" style="stroke: #038048; stroke-width: 1.0;"/><text fill="#000000" font-family="sans-serif" font-size="11" lengthAdjust="spacingAndGlyphs" textLength="293" x="1489" y="293.1948">ParticipantDeclaration[] getParticipantDeclarations()</text><ellipse cx="1480" cy="303.6914" fill="#84BE84" rx="3" ry="3" style="stroke: #038048; stroke-width: 1.0;"/><text fill="#000000" font-family="sans-serif" font-size="11" lengthAdjust="spacingAndGlyphs" textLength="252" x="1489" y="305.9995">ClassDeclaration[] getDeclarations(Function)</text><ellipse cx="1480" cy="316.4961" fill="#84BE84" rx="3" ry="3" style="stroke: #038048; stroke-width: 1.0;"/><text fill="#000000" font-family="sans-serif" font-size="11" lengthAdjust="spacingAndGlyphs" textLength="218" x="1489" y="318.8042">ClassDeclaration[] getAllDeclarations()</text><ellipse cx="1480" cy="329.3008" fill="#84BE84" rx="3" ry="3" style="stroke: #038048; stroke-width: 1.0;"/><text fill="#000000" font-family="sans-serif" font-size="11" lengthAdjust="spacingAndGlyphs" textLength="113" x="1489" y="331.6089">string getIdentifier()</text><ellipse cx="1480" cy="342.1055" fill="#84BE84" rx="3" ry="3" style="stroke: #038048; stroke-width: 1.0;"/><text fill="#000000" font-family="sans-serif" font-size="11" lengthAdjust="spacingAndGlyphs" textLength="96" x="1489" y="344.4136">string getName()</text><ellipse cx="1480" cy="354.9102" fill="#84BE84" rx="3" ry="3" style="stroke: #038048; stroke-width: 1.0;"/><text fill="#000000" font-family="sans-serif" font-size="11" lengthAdjust="spacingAndGlyphs" textLength="123" x="1489" y="357.2183">string getDefinitions()</text><ellipse cx="1480" cy="367.7148" fill="#84BE84" rx="3" ry="3" style="stroke: #038048; stroke-width: 1.0;"/><text fill="#000000" font-family="sans-serif" font-size="11" lengthAdjust="spacingAndGlyphs" textLength="87" x="1489" y="370.0229">Object toJSON()</text><ellipse cx="1480" cy="380.5195" fill="#84BE84" rx="3" ry="3" style="stroke: #038048; stroke-width: 1.0;"/><text fill="#000000" font-family="sans-serif" font-size="11" lengthAdjust="spacingAndGlyphs" textLength="118" x="1489" y="382.8276">string toJSONString()</text><path d="M210.455,255.234 C226.129,312.171 250.797,401.781 269.135,468.397 " fill="none" style="stroke: #A80036; stroke-width: 1.0;"/><polygon fill="none" points="275.926,466.694,274.485,487.834,262.428,470.409,275.926,466.694" style="stroke: #A80036; stroke-width: 1.0;"/><path d="M383.98,229.74 C369.551,281.624 339.259,390.554 317.648,468.267 " fill="none" style="stroke: #A80036; stroke-width: 1.0;"/><polygon fill="none" points="324.32,470.4,312.218,487.793,310.832,466.649,324.32,470.4" style="stroke: #A80036; stroke-width: 1.0;"/><path d="M591.25,229.74 C591.25,292.59 591.25,439.148 591.25,512.525 " fill="none" style="stroke: #A80036; stroke-width: 1.0;"/><polygon fill="none" points="598.25,512.774,591.25,532.774,584.25,512.774,598.25,512.774" style="stroke: #A80036; stroke-width: 1.0;"/><path d="M837.071,229.711 C861.186,267.464 904.617,334.405 944.25,390 C954.351,404.169 965.123,418.854 975.962,433.365 " fill="none" style="stroke: #A80036; stroke-width: 1.0;"/><polygon fill="none" points="981.772,429.445,988.195,449.638,970.582,437.857,981.772,429.445" style="stroke: #A80036; stroke-width: 1.0;"/><path d="M1071.25,229.74 C1071.25,273.409 1071.25,357.492 1071.25,429.359 " fill="none" style="stroke: #A80036; stroke-width: 1.0;"/><polygon fill="none" points="1078.25,429.747,1071.25,449.747,1064.25,429.747,1078.25,429.747" style="stroke: #A80036; stroke-width: 1.0;"/><path d="M1301.27,236.207 C1276.54,274.803 1235.7,337.466 1198.25,390 C1188.15,404.169 1177.38,418.854 1166.54,433.365 " fill="none" style="stroke: #A80036; stroke-width: 1.0;"/><polygon fill="none" points="1171.92,437.857,1154.31,449.638,1160.73,429.445,1171.92,437.857" style="stroke: #A80036; stroke-width: 1.0;"/></g></svg>