<?xml version="1.0" encoding="UTF-8" standalone="no"?><svg xmlns="http://www.w3.org/2000/svg" xmlns:xlink="http://www.w3.org/1999/xlink" contentScriptType="application/ecmascript" contentStyleType="text/css" height="449px" preserveAspectRatio="none" style="width:854px;height:449px;" version="1.1" viewBox="0 0 854 449" width="854px" zoomAndPan="magnify"><defs><filter height="300%" id="f749u0p" width="300%" x="-1" y="-1"><feGaussianBlur result="blurOut" stdDeviation="2.0"/><feColorMatrix in="blurOut" result="blurOut2" type="matrix" values="0 0 0 0 0 0 0 0 0 0 0 0 0 0 0 0 0 0 .4 0"/><feOffset dx="4.0" dy="4.0" in="blurOut2" result="blurOut3"/><feBlend in="SourceGraphic" in2="blurOut3" mode="normal"/></filter></defs><g><!--class BaseException--><rect fill="#FEFECE" filter="url(#f749u0p)" height="60.8047" style="stroke: #A80036; stroke-width: 1.5;" width="159" x="686.75" y="219.5"/><ellipse cx="717.5" cy="235.5" fill="#ADD1B2" rx="11" ry="11" style="stroke: #A80036; stroke-width: 1.0;"/><path d="M720.4688,241.1406 Q719.8906,241.4375 719.25,241.5859 Q718.6094,241.7344 717.9063,241.7344 Q715.4063,241.7344 714.0859,240.0859 Q712.7656,238.4375 712.7656,235.3125 Q712.7656,232.1875 714.0859,230.5313 Q715.4063,228.875 717.9063,228.875 Q718.6094,228.875 719.2578,229.0313 Q719.9063,229.1875 720.4688,229.4844 L720.4688,232.2031 Q719.8438,231.625 719.25,231.3516 Q718.6563,231.0781 718.0313,231.0781 Q716.6875,231.0781 716,232.1484 Q715.3125,233.2188 715.3125,235.3125 Q715.3125,237.4063 716,238.4766 Q716.6875,239.5469 718.0313,239.5469 Q718.6563,239.5469 719.25,239.2734 Q719.8438,239 720.4688,238.4219 L720.4688,241.1406 Z "/><text fill="#000000" font-family="sans-serif" font-size="12" lengthAdjust="spacingAndGlyphs" textLength="92" x="735" y="239.6543">BaseException</text><line style="stroke: #A80036; stroke-width: 1.5;" x1="687.75" x2="844.75" y1="251.5" y2="251.5"/><line style="stroke: #A80036; stroke-width: 1.5;" x1="687.75" x2="844.75" y1="259.5" y2="259.5"/><ellipse cx="697.75" cy="271.4023" fill="#84BE84" rx="3" ry="3" style="stroke: #038048; stroke-width: 1.0;"/><text fill="#000000" font-family="sans-serif" font-size="11" lengthAdjust="spacingAndGlyphs" textLength="133" x="706.75" y="273.7104">void constructor(string)</text><!--class Error--><rect fill="#FEFECE" filter="url(#f749u0p)" height="48" style="stroke: #A80036; stroke-width: 1.5;" width="63" x="734.75" y="392"/><ellipse cx="749.75" cy="408" fill="#ADD1B2" rx="11" ry="11" style="stroke: #A80036; stroke-width: 1.0;"/><path d="M752.7188,413.6406 Q752.1406,413.9375 751.5,414.0859 Q750.8594,414.2344 750.1563,414.2344 Q747.6563,414.2344 746.3359,412.5859 Q745.0156,410.9375 745.0156,407.8125 Q745.0156,404.6875 746.3359,403.0313 Q747.6563,401.375 750.1563,401.375 Q750.8594,401.375 751.5078,401.5313 Q752.1563,401.6875 752.7188,401.9844 L752.7188,404.7031 Q752.0938,404.125 751.5,403.8516 Q750.9063,403.5781 750.2813,403.5781 Q748.9375,403.5781 748.25,404.6484 Q747.5625,405.7188 747.5625,407.8125 Q747.5625,409.9063 748.25,410.9766 Q748.9375,412.0469 750.2813,412.0469 Q750.9063,412.0469 751.5,411.7734 Q752.0938,411.5 752.7188,410.9219 L752.7188,413.6406 Z "/><text fill="#000000" font-family="sans-serif" font-size="12" lengthAdjust="spacingAndGlyphs" textLength="31" x="763.75" y="412.1543">Error</text><line style="stroke: #A80036; stroke-width: 1.5;" x1="735.75" x2="796.75" y1="424" y2="424"/><line style="stroke: #A80036; stroke-width: 1.5;" x1="735.75" x2="796.75" y1="432" y2="432"/><!--class SecurityException--><rect fill="#FEFECE" filter="url(#f749u0p)" height="60.8047" style="stroke: #A80036; stroke-width: 1.5;" width="159" x="686.75" y="27.5"/><ellipse cx="708.95" cy="43.5" fill="#ADD1B2" rx="11" ry="11" style="stroke: #A80036; stroke-width: 1.0;"/><path d="M711.9188,49.1406 Q711.3406,49.4375 710.7,49.5859 Q710.0594,49.7344 709.3563,49.7344 Q706.8563,49.7344 705.5359,48.0859 Q704.2156,46.4375 704.2156,43.3125 Q704.2156,40.1875 705.5359,38.5313 Q706.8563,36.875 709.3563,36.875 Q710.0594,36.875 710.7078,37.0313 Q711.3563,37.1875 711.9188,37.4844 L711.9188,40.2031 Q711.2938,39.625 710.7,39.3516 Q710.1063,39.0781 709.4813,39.0781 Q708.1375,39.0781 707.45,40.1484 Q706.7625,41.2188 706.7625,43.3125 Q706.7625,45.4063 707.45,46.4766 Q708.1375,47.5469 709.4813,47.5469 Q710.1063,47.5469 710.7,47.2734 Q711.2938,47 711.9188,46.4219 L711.9188,49.1406 Z "/><text fill="#000000" font-family="sans-serif" font-size="12" lengthAdjust="spacingAndGlyphs" textLength="111" x="724.55" y="47.6543">SecurityException</text><line style="stroke: #A80036; stroke-width: 1.5;" x1="687.75" x2="844.75" y1="59.5" y2="59.5"/><line style="stroke: #A80036; stroke-width: 1.5;" x1="687.75" x2="844.75" y1="67.5" y2="67.5"/><ellipse cx="697.75" cy="79.4023" fill="#84BE84" rx="3" ry="3" style="stroke: #038048; stroke-width: 1.0;"/><text fill="#000000" font-family="sans-serif" font-size="11" lengthAdjust="spacingAndGlyphs" textLength="133" x="706.75" y="81.7104">void constructor(string)</text><!--class globalize--><rect fill="#FEFECE" filter="url(#f749u0p)" height="48" style="stroke: #A80036; stroke-width: 1.5;" width="86" x="139" y="34"/><ellipse cx="154" cy="50" fill="#DA70D6" rx="11" ry="11" style="stroke: #A80036; stroke-width: 1.0;"/><path d="M153.7969,45.6719 L153.7969,49.2969 L154.7969,49.2969 Q156,49.2969 156.4844,48.8906 Q156.9688,48.4844 156.9688,47.4844 Q156.9688,46.4844 156.4844,46.0781 Q156,45.6719 154.7969,45.6719 L153.7969,45.6719 Z M151.3438,43.6094 L154.7031,43.6094 Q157.2656,43.6094 158.3906,44.5234 Q159.5156,45.4375 159.5156,47.4844 Q159.5156,49.5313 158.3906,50.4453 Q157.2656,51.3594 154.7031,51.3594 L153.7969,51.3594 L153.7969,56 L151.3438,56 L151.3438,43.6094 Z "/><text fill="#000000" font-family="sans-serif" font-size="12" lengthAdjust="spacingAndGlyphs" textLength="54" x="168" y="54.1543">globalize</text><line style="stroke: #A80036; stroke-width: 1.5;" x1="140" x2="224" y1="66" y2="66"/><line style="stroke: #A80036; stroke-width: 1.5;" x1="140" x2="224" y1="74" y2="74"/><!--class Util--><rect fill="#FEFECE" filter="url(#f749u0p)" height="99.2188" style="stroke: #A80036; stroke-width: 1.5;" width="391" x="260.75" y="8.5"/><ellipse cx="442" cy="24.5" fill="#ADD1B2" rx="11" ry="11" style="stroke: #A80036; stroke-width: 1.0;"/><path d="M444.9688,30.1406 Q444.3906,30.4375 443.75,30.5859 Q443.1094,30.7344 442.4063,30.7344 Q439.9063,30.7344 438.5859,29.0859 Q437.2656,27.4375 437.2656,24.3125 Q437.2656,21.1875 438.5859,19.5313 Q439.9063,17.875 442.4063,17.875 Q443.1094,17.875 443.7578,18.0313 Q444.4063,18.1875 444.9688,18.4844 L444.9688,21.2031 Q444.3438,20.625 443.75,20.3516 Q443.1563,20.0781 442.5313,20.0781 Q441.1875,20.0781 440.5,21.1484 Q439.8125,22.2188 439.8125,24.3125 Q439.8125,26.4063 440.5,27.4766 Q441.1875,28.5469 442.5313,28.5469 Q443.1563,28.5469 443.75,28.2734 Q444.3438,28 444.9688,27.4219 L444.9688,30.1406 Z "/><text fill="#000000" font-family="sans-serif" font-size="12" lengthAdjust="spacingAndGlyphs" textLength="20" x="462.5" y="28.6543">Util</text><line style="stroke: #A80036; stroke-width: 1.5;" x1="261.75" x2="650.75" y1="40.5" y2="40.5"/><line style="stroke: #A80036; stroke-width: 1.5;" x1="261.75" x2="650.75" y1="48.5" y2="48.5"/><ellipse cx="271.75" cy="60.4023" fill="#84BE84" rx="3" ry="3" style="stroke: #038048; stroke-width: 1.0;"/><text fill="#000000" font-family="sans-serif" font-size="11" lengthAdjust="spacingAndGlyphs" textLength="203" x="280.75" y="62.7104">void securityCheck(SecurityContext)</text><ellipse cx="271.75" cy="73.207" fill="#84BE84" rx="3" ry="3" style="stroke: #038048; stroke-width: 1.0;"/><text fill="#000000" font-family="sans-serif" font-size="11" lengthAdjust="spacingAndGlyphs" textLength="323" x="280.75" y="75.5151">Promise queryChainCode(SecurityContext,string,string[])</text><ellipse cx="271.75" cy="86.0117" fill="#84BE84" rx="3" ry="3" style="stroke: #038048; stroke-width: 1.0;"/><text fill="#000000" font-family="sans-serif" font-size="11" lengthAdjust="spacingAndGlyphs" textLength="327" x="280.75" y="88.3198">Promise invokeChainCode(SecurityContext,string,string[])</text><ellipse cx="271.75" cy="98.8164" fill="#84BE84" rx="3" ry="3" style="stroke: #038048; stroke-width: 1.0;"/><text fill="#000000" font-family="sans-serif" font-size="11" lengthAdjust="spacingAndGlyphs" textLength="365" x="280.75" y="101.1245">Promise deployChainCode(SecurityContext,string,string,string[])</text><!--class Registry--><rect fill="#FEFECE" filter="url(#f749u0p)" height="163.2422" style="stroke: #A80036; stroke-width: 1.5;" width="352" x="6.5" y="168.5"/><ellipse cx="153.25" cy="184.5" fill="#ADD1B2" rx="11" ry="11" style="stroke: #A80036; stroke-width: 1.0;"/><path d="M156.2188,190.1406 Q155.6406,190.4375 155,190.5859 Q154.3594,190.7344 153.6563,190.7344 Q151.1563,190.7344 149.8359,189.0859 Q148.5156,187.4375 148.5156,184.3125 Q148.5156,181.1875 149.8359,179.5313 Q151.1563,177.875 153.6563,177.875 Q154.3594,177.875 155.0078,178.0313 Q155.6563,178.1875 156.2188,178.4844 L156.2188,181.2031 Q155.5938,180.625 155,180.3516 Q154.4063,180.0781 153.7813,180.0781 Q152.4375,180.0781 151.75,181.1484 Q151.0625,182.2188 151.0625,184.3125 Q151.0625,186.4063 151.75,187.4766 Q152.4375,188.5469 153.7813,188.5469 Q154.4063,188.5469 155,188.2734 Q155.5938,188 156.2188,187.4219 L156.2188,190.1406 Z "/><text fill="#000000" font-family="sans-serif" font-size="12" lengthAdjust="spacingAndGlyphs" textLength="50" x="173.75" y="188.6543">Registry</text><line style="stroke: #A80036; stroke-width: 1.5;" x1="7.5" x2="357.5" y1="200.5" y2="200.5"/><line style="stroke: #A80036; stroke-width: 1.5;" x1="7.5" x2="357.5" y1="208.5" y2="208.5"/><ellipse cx="17.5" cy="220.4023" fill="#84BE84" rx="3" ry="3" style="stroke: #038048; stroke-width: 1.0;"/><text fill="#000000" font-family="sans-serif" font-size="11" lengthAdjust="spacingAndGlyphs" textLength="273" x="26.5" y="222.7104">Promise getAllRegistries(SecurityContext,string)</text><ellipse cx="17.5" cy="233.207" fill="#84BE84" rx="3" ry="3" style="stroke: #038048; stroke-width: 1.0;"/><text fill="#000000" font-family="sans-serif" font-size="11" lengthAdjust="spacingAndGlyphs" textLength="286" x="26.5" y="235.5151">Promise getRegistry(SecurityContext,string,string)</text><ellipse cx="17.5" cy="246.0117" fill="#84BE84" rx="3" ry="3" style="stroke: #038048; stroke-width: 1.0;"/><text fill="#000000" font-family="sans-serif" font-size="11" lengthAdjust="spacingAndGlyphs" textLength="326" x="26.5" y="248.3198">Promise addRegistry(SecurityContext,string,string,string)</text><ellipse cx="17.5" cy="258.8164" fill="#84BE84" rx="3" ry="3" style="stroke: #038048; stroke-width: 1.0;"/><text fill="#000000" font-family="sans-serif" font-size="11" lengthAdjust="spacingAndGlyphs" textLength="207" x="26.5" y="261.1245">void constructor(string,string,string)</text><ellipse cx="17.5" cy="271.6211" fill="#84BE84" rx="3" ry="3" style="stroke: #038048; stroke-width: 1.0;"/><text fill="#000000" font-family="sans-serif" font-size="11" lengthAdjust="spacingAndGlyphs" textLength="243" x="26.5" y="273.9292">Promise add(SecurityContext,string,string)</text><ellipse cx="17.5" cy="284.4258" fill="#84BE84" rx="3" ry="3" style="stroke: #038048; stroke-width: 1.0;"/><text fill="#000000" font-family="sans-serif" font-size="11" lengthAdjust="spacingAndGlyphs" textLength="261" x="26.5" y="286.7339">Promise update(SecurityContext,string,string)</text><ellipse cx="17.5" cy="297.2305" fill="#84BE84" rx="3" ry="3" style="stroke: #038048; stroke-width: 1.0;"/><text fill="#000000" font-family="sans-serif" font-size="11" lengthAdjust="spacingAndGlyphs" textLength="228" x="26.5" y="299.5386">Promise remove(SecurityContext,string)</text><ellipse cx="17.5" cy="310.0352" fill="#84BE84" rx="3" ry="3" style="stroke: #038048; stroke-width: 1.0;"/><text fill="#000000" font-family="sans-serif" font-size="11" lengthAdjust="spacingAndGlyphs" textLength="179" x="26.5" y="312.3433">Promise getAll(SecurityContext)</text><ellipse cx="17.5" cy="322.8398" fill="#84BE84" rx="3" ry="3" style="stroke: #038048; stroke-width: 1.0;"/><text fill="#000000" font-family="sans-serif" font-size="11" lengthAdjust="spacingAndGlyphs" textLength="203" x="26.5" y="325.1479">Promise get(SecurityContext,string)</text><path d="M766,280.699 C766,306.149 766,343.1359 766,371.8532 " fill="none" style="stroke: #A80036; stroke-width: 1.0;"/><polygon fill="none" points="773,371.8737,766,391.8737,759,371.8736,773,371.8737" style="stroke: #A80036; stroke-width: 1.0;"/><path d="M766,88.688 C766,118.161 766,163.89 766,198.977 " fill="none" style="stroke: #A80036; stroke-width: 1.0;"/><polygon fill="none" points="773,199.208,766,219.208,759,199.208,773,199.208" style="stroke: #A80036; stroke-width: 1.0;"/></g></svg>