<?xml version="1.0" encoding="UTF-8" standalone="no"?><svg xmlns="http://www.w3.org/2000/svg" xmlns:xlink="http://www.w3.org/1999/xlink" contentScriptType="application/ecmascript" contentStyleType="text/css" height="276px" preserveAspectRatio="none" style="width:216px;height:276px;" version="1.1" viewBox="0 0 216 276" width="216px" zoomAndPan="magnify"><defs><filter height="300%" id="f6djbhc" width="300%" x="-1" y="-1"><feGaussianBlur result="blurOut" stdDeviation="2.0"/><feColorMatrix in="blurOut" result="blurOut2" type="matrix" values="0 0 0 0 0 0 0 0 0 0 0 0 0 0 0 0 0 0 .4 0"/><feOffset dx="4.0" dy="4.0" in="blurOut2" result="blurOut3"/><feBlend in="SourceGraphic" in2="blurOut3" mode="normal"/></filter></defs><g><!--class Property--><rect fill="#FEFECE" filter="url(#f6djbhc)" height="137.6328" style="stroke: #A80036; stroke-width: 1.5;" width="201" x="6" y="130"/><ellipse cx="75.75" cy="146" fill="#ADD1B2" rx="11" ry="11" style="stroke: #A80036; stroke-width: 1.0;"/><path d="M78.7188,151.6406 Q78.1406,151.9375 77.5,152.0859 Q76.8594,152.2344 76.1563,152.2344 Q73.6563,152.2344 72.3359,150.5859 Q71.0156,148.9375 71.0156,145.8125 Q71.0156,142.6875 72.3359,141.0313 Q73.6563,139.375 76.1563,139.375 Q76.8594,139.375 77.5078,139.5313 Q78.1563,139.6875 78.7188,139.9844 L78.7188,142.7031 Q78.0938,142.125 77.5,141.8516 Q76.9063,141.5781 76.2813,141.5781 Q74.9375,141.5781 74.25,142.6484 Q73.5625,143.7188 73.5625,145.8125 Q73.5625,147.9063 74.25,148.9766 Q74.9375,150.0469 76.2813,150.0469 Q76.9063,150.0469 77.5,149.7734 Q78.0938,149.5 78.7188,148.9219 L78.7188,151.6406 Z "/><text fill="#000000" font-family="sans-serif" font-size="12" lengthAdjust="spacingAndGlyphs" textLength="53" x="96.25" y="150.1543">Property</text><line style="stroke: #A80036; stroke-width: 1.5;" x1="7" x2="206" y1="162" y2="162"/><line style="stroke: #A80036; stroke-width: 1.5;" x1="7" x2="206" y1="170" y2="170"/><ellipse cx="17" cy="181.9023" fill="#84BE84" rx="3" ry="3" style="stroke: #038048; stroke-width: 1.0;"/><text fill="#000000" font-family="sans-serif" font-size="11" lengthAdjust="spacingAndGlyphs" textLength="136" x="26" y="184.2104">void constructor(Object)</text><rect fill="#F24D5C" height="6" style="stroke: #C82930; stroke-width: 1.0;" width="6" x="14" y="191.707"/><text fill="#000000" font-family="sans-serif" font-size="11" lengthAdjust="spacingAndGlyphs" textLength="161" x="26" y="197.0151">Object accept(Object,Object)</text><rect fill="#F24D5C" height="6" style="stroke: #C82930; stroke-width: 1.0;" width="6" x="14" y="204.5117"/><text fill="#000000" font-family="sans-serif" font-size="11" lengthAdjust="spacingAndGlyphs" textLength="81" x="26" y="209.8198">void process()</text><rect fill="#F24D5C" height="6" style="stroke: #C82930; stroke-width: 1.0;" width="6" x="14" y="217.3164"/><text fill="#000000" font-family="sans-serif" font-size="11" lengthAdjust="spacingAndGlyphs" textLength="175" x="26" y="222.6245">void validate(ClassDeclaration)</text><ellipse cx="17" cy="233.1211" fill="#84BE84" rx="3" ry="3" style="stroke: #038048; stroke-width: 1.0;"/><text fill="#000000" font-family="sans-serif" font-size="11" lengthAdjust="spacingAndGlyphs" textLength="96" x="26" y="235.4292">string getName()</text><ellipse cx="17" cy="245.9258" fill="#84BE84" rx="3" ry="3" style="stroke: #038048; stroke-width: 1.0;"/><text fill="#000000" font-family="sans-serif" font-size="11" lengthAdjust="spacingAndGlyphs" textLength="90" x="26" y="248.2339">string getType()</text><ellipse cx="17" cy="258.7305" fill="#84BE84" rx="3" ry="3" style="stroke: #038048; stroke-width: 1.0;"/><text fill="#000000" font-family="sans-serif" font-size="11" lengthAdjust="spacingAndGlyphs" textLength="97" x="26" y="261.0386">boolean isArray()</text><!--class Relationship--><rect fill="#FEFECE" filter="url(#f6djbhc)" height="60.8047" style="stroke: #A80036; stroke-width: 1.5;" width="162" x="25.25" y="8.5"/><ellipse cx="64.1" cy="24.5" fill="#ADD1B2" rx="11" ry="11" style="stroke: #A80036; stroke-width: 1.0;"/><path d="M67.0688,30.1406 Q66.4906,30.4375 65.85,30.5859 Q65.2094,30.7344 64.5063,30.7344 Q62.0062,30.7344 60.6859,29.0859 Q59.3656,27.4375 59.3656,24.3125 Q59.3656,21.1875 60.6859,19.5313 Q62.0062,17.875 64.5063,17.875 Q65.2094,17.875 65.8578,18.0313 Q66.5063,18.1875 67.0688,18.4844 L67.0688,21.2031 Q66.4438,20.625 65.85,20.3516 Q65.2563,20.0781 64.6313,20.0781 Q63.2875,20.0781 62.6,21.1484 Q61.9125,22.2188 61.9125,24.3125 Q61.9125,26.4063 62.6,27.4766 Q63.2875,28.5469 64.6313,28.5469 Q65.2563,28.5469 65.85,28.2734 Q66.4438,28 67.0688,27.4219 L67.0688,30.1406 Z "/><text fill="#000000" font-family="sans-serif" font-size="12" lengthAdjust="spacingAndGlyphs" textLength="77" x="83.4" y="28.6543">Relationship</text><line style="stroke: #A80036; stroke-width: 1.5;" x1="26.25" x2="186.25" y1="40.5" y2="40.5"/><line style="stroke: #A80036; stroke-width: 1.5;" x1="26.25" x2="186.25" y1="48.5" y2="48.5"/><ellipse cx="36.25" cy="60.4023" fill="#84BE84" rx="3" ry="3" style="stroke: #038048; stroke-width: 1.0;"/><text fill="#000000" font-family="sans-serif" font-size="11" lengthAdjust="spacingAndGlyphs" textLength="136" x="45.25" y="62.7104">void constructor(Object)</text><path d="M106.25,69.719 C106.25,81.263 106.25,95.144 106.25,109.45 " fill="none" style="stroke: #A80036; stroke-width: 1.0;"/><polygon fill="none" points="113.25,109.758,106.25,129.758,99.2501,109.758,113.25,109.758" style="stroke: #A80036; stroke-width: 1.0;"/></g></svg>