<?xml version="1.0" encoding="UTF-8" standalone="no"?><svg xmlns="http://www.w3.org/2000/svg" xmlns:xlink="http://www.w3.org/1999/xlink" contentScriptType="application/ecmascript" contentStyleType="text/css" height="403px" preserveAspectRatio="none" style="width:828px;height:403px;" version="1.1" viewBox="0 0 828 403" width="828px" zoomAndPan="magnify"><defs><filter height="300%" id="fnctgzp" width="300%" x="-1" y="-1"><feGaussianBlur result="blurOut" stdDeviation="2.0"/><feColorMatrix in="blurOut" result="blurOut2" type="matrix" values="0 0 0 0 0 0 0 0 0 0 0 0 0 0 0 0 0 0 .4 0"/><feOffset dx="4.0" dy="4.0" in="blurOut2" result="blurOut3"/><feBlend in="SourceGraphic" in2="blurOut3" mode="normal"/></filter></defs><g><!--class Property--><rect fill="#FEFECE" filter="url(#fnctgzp)" height="137.6328" style="stroke: #A80036; stroke-width: 1.5;" width="201" x="84.75" y="218"/><ellipse cx="154.5" cy="234" fill="#ADD1B2" rx="11" ry="11" style="stroke: #A80036; stroke-width: 1.0;"/><path d="M157.4688,239.6406 Q156.8906,239.9375 156.25,240.0859 Q155.6094,240.2344 154.9063,240.2344 Q152.4063,240.2344 151.0859,238.5859 Q149.7656,236.9375 149.7656,233.8125 Q149.7656,230.6875 151.0859,229.0313 Q152.4063,227.375 154.9063,227.375 Q155.6094,227.375 156.2578,227.5313 Q156.9063,227.6875 157.4688,227.9844 L157.4688,230.7031 Q156.8438,230.125 156.25,229.8516 Q155.6563,229.5781 155.0313,229.5781 Q153.6875,229.5781 153,230.6484 Q152.3125,231.7188 152.3125,233.8125 Q152.3125,235.9063 153,236.9766 Q153.6875,238.0469 155.0313,238.0469 Q155.6563,238.0469 156.25,237.7734 Q156.8438,237.5 157.4688,236.9219 L157.4688,239.6406 Z "/><text fill="#000000" font-family="sans-serif" font-size="12" lengthAdjust="spacingAndGlyphs" textLength="53" x="175" y="238.1543">Property</text><line style="stroke: #A80036; stroke-width: 1.5;" x1="85.75" x2="284.75" y1="250" y2="250"/><line style="stroke: #A80036; stroke-width: 1.5;" x1="85.75" x2="284.75" y1="258" y2="258"/><ellipse cx="95.75" cy="269.9023" fill="#84BE84" rx="3" ry="3" style="stroke: #038048; stroke-width: 1.0;"/><text fill="#000000" font-family="sans-serif" font-size="11" lengthAdjust="spacingAndGlyphs" textLength="136" x="104.75" y="272.2104">void constructor(Object)</text><rect fill="#F24D5C" height="6" style="stroke: #C82930; stroke-width: 1.0;" width="6" x="92.75" y="279.707"/><text fill="#000000" font-family="sans-serif" font-size="11" lengthAdjust="spacingAndGlyphs" textLength="161" x="104.75" y="285.0151">Object accept(Object,Object)</text><rect fill="#F24D5C" height="6" style="stroke: #C82930; stroke-width: 1.0;" width="6" x="92.75" y="292.5117"/><text fill="#000000" font-family="sans-serif" font-size="11" lengthAdjust="spacingAndGlyphs" textLength="81" x="104.75" y="297.8198">void process()</text><rect fill="#F24D5C" height="6" style="stroke: #C82930; stroke-width: 1.0;" width="6" x="92.75" y="305.3164"/><text fill="#000000" font-family="sans-serif" font-size="11" lengthAdjust="spacingAndGlyphs" textLength="175" x="104.75" y="310.6245">void validate(ClassDeclaration)</text><ellipse cx="95.75" cy="321.1211" fill="#84BE84" rx="3" ry="3" style="stroke: #038048; stroke-width: 1.0;"/><text fill="#000000" font-family="sans-serif" font-size="11" lengthAdjust="spacingAndGlyphs" textLength="96" x="104.75" y="323.4292">string getName()</text><ellipse cx="95.75" cy="333.9258" fill="#84BE84" rx="3" ry="3" style="stroke: #038048; stroke-width: 1.0;"/><text fill="#000000" font-family="sans-serif" font-size="11" lengthAdjust="spacingAndGlyphs" textLength="90" x="104.75" y="336.2339">string getType()</text><ellipse cx="95.75" cy="346.7305" fill="#84BE84" rx="3" ry="3" style="stroke: #038048; stroke-width: 1.0;"/><text fill="#000000" font-family="sans-serif" font-size="11" lengthAdjust="spacingAndGlyphs" textLength="97" x="104.75" y="349.0386">boolean isArray()</text><!--class Field--><rect fill="#FEFECE" filter="url(#fnctgzp)" height="112.0234" style="stroke: #A80036; stroke-width: 1.5;" width="162" x="6" y="8"/><ellipse cx="68.25" cy="24" fill="#ADD1B2" rx="11" ry="11" style="stroke: #A80036; stroke-width: 1.0;"/><path d="M71.2188,29.6406 Q70.6406,29.9375 70,30.0859 Q69.3594,30.2344 68.6563,30.2344 Q66.1563,30.2344 64.8359,28.5859 Q63.5156,26.9375 63.5156,23.8125 Q63.5156,20.6875 64.8359,19.0313 Q66.1563,17.375 68.6563,17.375 Q69.3594,17.375 70.0078,17.5313 Q70.6563,17.6875 71.2188,17.9844 L71.2188,20.7031 Q70.5938,20.125 70,19.8516 Q69.4063,19.5781 68.7813,19.5781 Q67.4375,19.5781 66.75,20.6484 Q66.0625,21.7188 66.0625,23.8125 Q66.0625,25.9063 66.75,26.9766 Q67.4375,28.0469 68.7813,28.0469 Q69.4063,28.0469 70,27.7734 Q70.5938,27.5 71.2188,26.9219 L71.2188,29.6406 Z "/><text fill="#000000" font-family="sans-serif" font-size="12" lengthAdjust="spacingAndGlyphs" textLength="29" x="88.75" y="28.1543">Field</text><line style="stroke: #A80036; stroke-width: 1.5;" x1="7" x2="167" y1="40" y2="40"/><line style="stroke: #A80036; stroke-width: 1.5;" x1="7" x2="167" y1="48" y2="48"/><ellipse cx="17" cy="59.9023" fill="#84BE84" rx="3" ry="3" style="stroke: #038048; stroke-width: 1.0;"/><text fill="#000000" font-family="sans-serif" font-size="11" lengthAdjust="spacingAndGlyphs" textLength="136" x="26" y="62.2104">void constructor(Object)</text><rect fill="#F24D5C" height="6" style="stroke: #C82930; stroke-width: 1.0;" width="6" x="14" y="69.707"/><text fill="#000000" font-family="sans-serif" font-size="11" lengthAdjust="spacingAndGlyphs" textLength="81" x="26" y="75.0151">void process()</text><ellipse cx="17" cy="85.5117" fill="#84BE84" rx="3" ry="3" style="stroke: #038048; stroke-width: 1.0;"/><text fill="#000000" font-family="sans-serif" font-size="11" lengthAdjust="spacingAndGlyphs" textLength="113" x="26" y="87.8198">string getValidator()</text><ellipse cx="17" cy="98.3164" fill="#84BE84" rx="3" ry="3" style="stroke: #038048; stroke-width: 1.0;"/><text fill="#000000" font-family="sans-serif" font-size="11" lengthAdjust="spacingAndGlyphs" textLength="114" x="26" y="100.6245">boolean isOptional()</text><ellipse cx="17" cy="111.1211" fill="#84BE84" rx="3" ry="3" style="stroke: #038048; stroke-width: 1.0;"/><text fill="#000000" font-family="sans-serif" font-size="11" lengthAdjust="spacingAndGlyphs" textLength="134" x="26" y="113.4292">string getDefaultValue()</text><!--class Relationship--><rect fill="#FEFECE" filter="url(#fnctgzp)" height="60.8047" style="stroke: #A80036; stroke-width: 1.5;" width="162" x="203" y="33.5"/><ellipse cx="241.85" cy="49.5" fill="#ADD1B2" rx="11" ry="11" style="stroke: #A80036; stroke-width: 1.0;"/><path d="M244.8188,55.1406 Q244.2406,55.4375 243.6,55.5859 Q242.9594,55.7344 242.2563,55.7344 Q239.7563,55.7344 238.4359,54.0859 Q237.1156,52.4375 237.1156,49.3125 Q237.1156,46.1875 238.4359,44.5313 Q239.7563,42.875 242.2563,42.875 Q242.9594,42.875 243.6078,43.0313 Q244.2563,43.1875 244.8188,43.4844 L244.8188,46.2031 Q244.1938,45.625 243.6,45.3516 Q243.0063,45.0781 242.3813,45.0781 Q241.0375,45.0781 240.35,46.1484 Q239.6625,47.2188 239.6625,49.3125 Q239.6625,51.4063 240.35,52.4766 Q241.0375,53.5469 242.3813,53.5469 Q243.0063,53.5469 243.6,53.2734 Q244.1938,53 244.8188,52.4219 L244.8188,55.1406 Z "/><text fill="#000000" font-family="sans-serif" font-size="12" lengthAdjust="spacingAndGlyphs" textLength="77" x="261.15" y="53.6543">Relationship</text><line style="stroke: #A80036; stroke-width: 1.5;" x1="204" x2="364" y1="65.5" y2="65.5"/><line style="stroke: #A80036; stroke-width: 1.5;" x1="204" x2="364" y1="73.5" y2="73.5"/><ellipse cx="214" cy="85.4023" fill="#84BE84" rx="3" ry="3" style="stroke: #038048; stroke-width: 1.0;"/><text fill="#000000" font-family="sans-serif" font-size="11" lengthAdjust="spacingAndGlyphs" textLength="136" x="223" y="87.7104">void constructor(Object)</text><!--class IllegalModelException--><rect fill="#FEFECE" filter="url(#fnctgzp)" height="60.8047" style="stroke: #A80036; stroke-width: 1.5;" width="166" x="400" y="33.5"/><ellipse cx="415" cy="49.5" fill="#ADD1B2" rx="11" ry="11" style="stroke: #A80036; stroke-width: 1.0;"/><path d="M417.9688,55.1406 Q417.3906,55.4375 416.75,55.5859 Q416.1094,55.7344 415.4063,55.7344 Q412.9063,55.7344 411.5859,54.0859 Q410.2656,52.4375 410.2656,49.3125 Q410.2656,46.1875 411.5859,44.5313 Q412.9063,42.875 415.4063,42.875 Q416.1094,42.875 416.7578,43.0313 Q417.4063,43.1875 417.9688,43.4844 L417.9688,46.2031 Q417.3438,45.625 416.75,45.3516 Q416.1563,45.0781 415.5313,45.0781 Q414.1875,45.0781 413.5,46.1484 Q412.8125,47.2188 412.8125,49.3125 Q412.8125,51.4063 413.5,52.4766 Q414.1875,53.5469 415.5313,53.5469 Q416.1563,53.5469 416.75,53.2734 Q417.3438,53 417.9688,52.4219 L417.9688,55.1406 Z "/><text fill="#000000" font-family="sans-serif" font-size="12" lengthAdjust="spacingAndGlyphs" textLength="134" x="429" y="53.6543">IllegalModelException</text><line style="stroke: #A80036; stroke-width: 1.5;" x1="401" x2="565" y1="65.5" y2="65.5"/><line style="stroke: #A80036; stroke-width: 1.5;" x1="401" x2="565" y1="73.5" y2="73.5"/><ellipse cx="411" cy="85.4023" fill="#84BE84" rx="3" ry="3" style="stroke: #038048; stroke-width: 1.0;"/><text fill="#000000" font-family="sans-serif" font-size="11" lengthAdjust="spacingAndGlyphs" textLength="133" x="420" y="87.7104">void constructor(string)</text><!--class BaseException--><rect fill="#FEFECE" filter="url(#fnctgzp)" height="48" style="stroke: #A80036; stroke-width: 1.5;" width="124" x="421.5" y="263"/><ellipse cx="436.5" cy="279" fill="#ADD1B2" rx="11" ry="11" style="stroke: #A80036; stroke-width: 1.0;"/><path d="M439.4688,284.6406 Q438.8906,284.9375 438.25,285.0859 Q437.6094,285.2344 436.9063,285.2344 Q434.4063,285.2344 433.0859,283.5859 Q431.7656,281.9375 431.7656,278.8125 Q431.7656,275.6875 433.0859,274.0313 Q434.4063,272.375 436.9063,272.375 Q437.6094,272.375 438.2578,272.5313 Q438.9063,272.6875 439.4688,272.9844 L439.4688,275.7031 Q438.8438,275.125 438.25,274.8516 Q437.6563,274.5781 437.0313,274.5781 Q435.6875,274.5781 435,275.6484 Q434.3125,276.7188 434.3125,278.8125 Q434.3125,280.9063 435,281.9766 Q435.6875,283.0469 437.0313,283.0469 Q437.6563,283.0469 438.25,282.7734 Q438.8438,282.5 439.4688,281.9219 L439.4688,284.6406 Z "/><text fill="#000000" font-family="sans-serif" font-size="12" lengthAdjust="spacingAndGlyphs" textLength="92" x="450.5" y="283.1543">BaseException</text><line style="stroke: #A80036; stroke-width: 1.5;" x1="422.5" x2="544.5" y1="295" y2="295"/><line style="stroke: #A80036; stroke-width: 1.5;" x1="422.5" x2="544.5" y1="303" y2="303"/><!--class ClassDeclaration--><rect fill="#FEFECE" filter="url(#fnctgzp)" height="214.4609" style="stroke: #A80036; stroke-width: 1.5;" width="215" x="602.75" y="180"/><ellipse cx="653.5" cy="196" fill="#ADD1B2" rx="11" ry="11" style="stroke: #A80036; stroke-width: 1.0;"/><path d="M656.4688,201.6406 Q655.8906,201.9375 655.25,202.0859 Q654.6094,202.2344 653.9063,202.2344 Q651.4063,202.2344 650.0859,200.5859 Q648.7656,198.9375 648.7656,195.8125 Q648.7656,192.6875 650.0859,191.0313 Q651.4063,189.375 653.9063,189.375 Q654.6094,189.375 655.2578,189.5313 Q655.9063,189.6875 656.4688,189.9844 L656.4688,192.7031 Q655.8438,192.125 655.25,191.8516 Q654.6563,191.5781 654.0313,191.5781 Q652.6875,191.5781 652,192.6484 Q651.3125,193.7188 651.3125,195.8125 Q651.3125,197.9063 652,198.9766 Q652.6875,200.0469 654.0313,200.0469 Q654.6563,200.0469 655.25,199.7734 Q655.8438,199.5 656.4688,198.9219 L656.4688,201.6406 Z "/><text fill="#000000" font-family="sans-serif" font-size="12" lengthAdjust="spacingAndGlyphs" textLength="105" x="674" y="200.1543">ClassDeclaration</text><line style="stroke: #A80036; stroke-width: 1.5;" x1="603.75" x2="816.75" y1="212" y2="212"/><line style="stroke: #A80036; stroke-width: 1.5;" x1="603.75" x2="816.75" y1="220" y2="220"/><ellipse cx="613.75" cy="231.9023" fill="#84BE84" rx="3" ry="3" style="stroke: #038048; stroke-width: 1.0;"/><text fill="#000000" font-family="sans-serif" font-size="11" lengthAdjust="spacingAndGlyphs" textLength="189" x="622.75" y="234.2104">void constructor(ModelFile,string)</text><rect fill="#F24D5C" height="6" style="stroke: #C82930; stroke-width: 1.0;" width="6" x="610.75" y="241.707"/><text fill="#000000" font-family="sans-serif" font-size="11" lengthAdjust="spacingAndGlyphs" textLength="161" x="622.75" y="247.0151">Object accept(Object,Object)</text><ellipse cx="613.75" cy="257.5117" fill="#84BE84" rx="3" ry="3" style="stroke: #038048; stroke-width: 1.0;"/><text fill="#000000" font-family="sans-serif" font-size="11" lengthAdjust="spacingAndGlyphs" textLength="134" x="622.75" y="259.8198">ModelFile getModelFile()</text><rect fill="#F24D5C" height="6" style="stroke: #C82930; stroke-width: 1.0;" width="6" x="610.75" y="267.3164"/><text fill="#000000" font-family="sans-serif" font-size="11" lengthAdjust="spacingAndGlyphs" textLength="81" x="622.75" y="272.6245">void process()</text><rect fill="#F24D5C" height="6" style="stroke: #C82930; stroke-width: 1.0;" width="6" x="610.75" y="280.1211"/><text fill="#000000" font-family="sans-serif" font-size="11" lengthAdjust="spacingAndGlyphs" textLength="79" x="622.75" y="285.4292">void validate()</text><ellipse cx="613.75" cy="295.9258" fill="#84BE84" rx="3" ry="3" style="stroke: #038048; stroke-width: 1.0;"/><text fill="#000000" font-family="sans-serif" font-size="11" lengthAdjust="spacingAndGlyphs" textLength="96" x="622.75" y="298.2339">string getName()</text><ellipse cx="613.75" cy="308.7305" fill="#84BE84" rx="3" ry="3" style="stroke: #038048; stroke-width: 1.0;"/><text fill="#000000" font-family="sans-serif" font-size="11" lengthAdjust="spacingAndGlyphs" textLength="171" x="622.75" y="311.0386">string getFullyQualifiedName()</text><ellipse cx="613.75" cy="321.5352" fill="#84BE84" rx="3" ry="3" style="stroke: #038048; stroke-width: 1.0;"/><text fill="#000000" font-family="sans-serif" font-size="11" lengthAdjust="spacingAndGlyphs" textLength="172" x="622.75" y="323.8433">string getIdentifierFieldName()</text><ellipse cx="613.75" cy="334.3398" fill="#84BE84" rx="3" ry="3" style="stroke: #038048; stroke-width: 1.0;"/><text fill="#000000" font-family="sans-serif" font-size="11" lengthAdjust="spacingAndGlyphs" textLength="140" x="622.75" y="336.6479">Field getOwnField(string)</text><ellipse cx="613.75" cy="347.1445" fill="#84BE84" rx="3" ry="3" style="stroke: #038048; stroke-width: 1.0;"/><text fill="#000000" font-family="sans-serif" font-size="11" lengthAdjust="spacingAndGlyphs" textLength="122" x="622.75" y="349.4526">Field[] getOwnFields()</text><ellipse cx="613.75" cy="359.9492" fill="#84BE84" rx="3" ry="3" style="stroke: #038048; stroke-width: 1.0;"/><text fill="#000000" font-family="sans-serif" font-size="11" lengthAdjust="spacingAndGlyphs" textLength="124" x="622.75" y="362.2573">string getSuperType()</text><ellipse cx="613.75" cy="372.7539" fill="#84BE84" rx="3" ry="3" style="stroke: #038048; stroke-width: 1.0;"/><text fill="#000000" font-family="sans-serif" font-size="11" lengthAdjust="spacingAndGlyphs" textLength="115" x="622.75" y="375.062">Field getField(string)</text><ellipse cx="613.75" cy="385.5586" fill="#84BE84" rx="3" ry="3" style="stroke: #038048; stroke-width: 1.0;"/><text fill="#000000" font-family="sans-serif" font-size="11" lengthAdjust="spacingAndGlyphs" textLength="97" x="622.75" y="387.8667">Field[] getFields()</text><!--class TransactionDeclaration--><rect fill="#FEFECE" filter="url(#fnctgzp)" height="73.6094" style="stroke: #A80036; stroke-width: 1.5;" width="218" x="601" y="27"/><ellipse cx="634" cy="43" fill="#ADD1B2" rx="11" ry="11" style="stroke: #A80036; stroke-width: 1.0;"/><path d="M636.9688,48.6406 Q636.3906,48.9375 635.75,49.0859 Q635.1094,49.2344 634.4063,49.2344 Q631.9063,49.2344 630.5859,47.5859 Q629.2656,45.9375 629.2656,42.8125 Q629.2656,39.6875 630.5859,38.0313 Q631.9063,36.375 634.4063,36.375 Q635.1094,36.375 635.7578,36.5313 Q636.4063,36.6875 636.9688,36.9844 L636.9688,39.7031 Q636.3438,39.125 635.75,38.8516 Q635.1563,38.5781 634.5313,38.5781 Q633.1875,38.5781 632.5,39.6484 Q631.8125,40.7188 631.8125,42.8125 Q631.8125,44.9063 632.5,45.9766 Q633.1875,47.0469 634.5313,47.0469 Q635.1563,47.0469 635.75,46.7734 Q636.3438,46.5 636.9688,45.9219 L636.9688,48.6406 Z "/><text fill="#000000" font-family="sans-serif" font-size="12" lengthAdjust="spacingAndGlyphs" textLength="146" x="652" y="47.1543">TransactionDeclaration</text><line style="stroke: #A80036; stroke-width: 1.5;" x1="602" x2="818" y1="59" y2="59"/><line style="stroke: #A80036; stroke-width: 1.5;" x1="602" x2="818" y1="67" y2="67"/><ellipse cx="612" cy="78.9023" fill="#84BE84" rx="3" ry="3" style="stroke: #038048; stroke-width: 1.0;"/><text fill="#000000" font-family="sans-serif" font-size="11" lengthAdjust="spacingAndGlyphs" textLength="192" x="621" y="81.2104">void constructor(ModelFile,Object)</text><rect fill="#F24D5C" height="6" style="stroke: #C82930; stroke-width: 1.0;" width="6" x="609" y="88.707"/><text fill="#000000" font-family="sans-serif" font-size="11" lengthAdjust="spacingAndGlyphs" textLength="162" x="621" y="94.0151">void getIdentifierFieldName()</text><path d="M111.477,120.198 C122.066,144.078 134.714,172.601 146.51,199.201 " fill="none" style="stroke: #A80036; stroke-width: 1.0;"/><polygon fill="none" points="152.996,196.56,154.705,217.681,140.198,202.235,152.996,196.56" style="stroke: #A80036; stroke-width: 1.0;"/><path d="M270.648,94.805 C258.638,121.615 240.386,162.361 223.812,199.359 " fill="none" style="stroke: #A80036; stroke-width: 1.0;"/><polygon fill="none" points="230.158,202.315,215.593,217.706,217.382,196.592,230.158,202.315" style="stroke: #A80036; stroke-width: 1.0;"/><path d="M483,94.805 C483,132.817 483,198.841 483,242.482 " fill="none" style="stroke: #A80036; stroke-width: 1.0;"/><polygon fill="none" points="490,242.718,483,262.718,476,242.718,490,242.718" style="stroke: #A80036; stroke-width: 1.0;"/><path d="M710,101.494 C710,117.929 710,138.408 710,159.685 " fill="none" style="stroke: #A80036; stroke-width: 1.0;"/><polygon fill="none" points="717,159.789,710,179.788,703,159.788,717,159.789" style="stroke: #A80036; stroke-width: 1.0;"/></g></svg>