<?xml version="1.0" encoding="UTF-8" standalone="no"?><svg xmlns="http://www.w3.org/2000/svg" xmlns:xlink="http://www.w3.org/1999/xlink" contentScriptType="application/ecmascript" contentStyleType="text/css" height="142px" preserveAspectRatio="none" style="width:349px;height:142px;" version="1.1" viewBox="0 0 349 142" width="349px" zoomAndPan="magnify"><defs><filter height="300%" id="fu3doa0" width="300%" x="-1" y="-1"><feGaussianBlur result="blurOut" stdDeviation="2.0"/><feColorMatrix in="blurOut" result="blurOut2" type="matrix" values="0 0 0 0 0 0 0 0 0 0 0 0 0 0 0 0 0 0 .4 0"/><feOffset dx="4.0" dy="4.0" in="blurOut2" result="blurOut3"/><feBlend in="SourceGraphic" in2="blurOut3" mode="normal"/></filter></defs><g><!--class FileWriter--><rect fill="#FEFECE" filter="url(#fu3doa0)" height="124.8281" style="stroke: #A80036; stroke-width: 1.5;" width="222" x="6" y="8.5"/><ellipse cx="83.75" cy="24.5" fill="#ADD1B2" rx="11" ry="11" style="stroke: #A80036; stroke-width: 1.0;"/><path d="M86.7188,30.1406 Q86.1406,30.4375 85.5,30.5859 Q84.8594,30.7344 84.1563,30.7344 Q81.6563,30.7344 80.3359,29.0859 Q79.0156,27.4375 79.0156,24.3125 Q79.0156,21.1875 80.3359,19.5313 Q81.6563,17.875 84.1563,17.875 Q84.8594,17.875 85.5078,18.0313 Q86.1563,18.1875 86.7188,18.4844 L86.7188,21.2031 Q86.0938,20.625 85.5,20.3516 Q84.9063,20.0781 84.2813,20.0781 Q82.9375,20.0781 82.25,21.1484 Q81.5625,22.2188 81.5625,24.3125 Q81.5625,26.4063 82.25,27.4766 Q82.9375,28.5469 84.2813,28.5469 Q84.9063,28.5469 85.5,28.2734 Q86.0938,28 86.7188,27.4219 L86.7188,30.1406 Z "/><text fill="#000000" font-family="sans-serif" font-size="12" lengthAdjust="spacingAndGlyphs" textLength="58" x="104.25" y="28.6543">FileWriter</text><line style="stroke: #A80036; stroke-width: 1.5;" x1="7" x2="227" y1="40.5" y2="40.5"/><line style="stroke: #A80036; stroke-width: 1.5;" x1="7" x2="227" y1="48.5" y2="48.5"/><ellipse cx="17" cy="60.4023" fill="#84BE84" rx="3" ry="3" style="stroke: #038048; stroke-width: 1.0;"/><text fill="#000000" font-family="sans-serif" font-size="11" lengthAdjust="spacingAndGlyphs" textLength="133" x="26" y="62.7104">void constructor(string)</text><ellipse cx="17" cy="73.207" fill="#84BE84" rx="3" ry="3" style="stroke: #038048; stroke-width: 1.0;"/><text fill="#000000" font-family="sans-serif" font-size="11" lengthAdjust="spacingAndGlyphs" textLength="115" x="26" y="75.5151">void openFile(string)</text><ellipse cx="17" cy="86.0117" fill="#84BE84" rx="3" ry="3" style="stroke: #038048; stroke-width: 1.0;"/><text fill="#000000" font-family="sans-serif" font-size="11" lengthAdjust="spacingAndGlyphs" textLength="196" x="26" y="88.3198">void openRelativeFile(string,string)</text><ellipse cx="17" cy="98.8164" fill="#84BE84" rx="3" ry="3" style="stroke: #038048; stroke-width: 1.0;"/><text fill="#000000" font-family="sans-serif" font-size="11" lengthAdjust="spacingAndGlyphs" textLength="175" x="26" y="101.1245">void writeBeforeLine(int,string)</text><ellipse cx="17" cy="111.6211" fill="#84BE84" rx="3" ry="3" style="stroke: #038048; stroke-width: 1.0;"/><text fill="#000000" font-family="sans-serif" font-size="11" lengthAdjust="spacingAndGlyphs" textLength="137" x="26" y="113.9292">void writeLine(int,string)</text><ellipse cx="17" cy="124.4258" fill="#84BE84" rx="3" ry="3" style="stroke: #038048; stroke-width: 1.0;"/><text fill="#000000" font-family="sans-serif" font-size="11" lengthAdjust="spacingAndGlyphs" textLength="84" x="26" y="126.7339">void closeFile()</text><!--class umlgen--><rect fill="#FEFECE" filter="url(#fu3doa0)" height="48" style="stroke: #A80036; stroke-width: 1.5;" width="78" x="262.5" y="47"/><ellipse cx="277.5" cy="63" fill="#DA70D6" rx="11" ry="11" style="stroke: #A80036; stroke-width: 1.0;"/><path d="M277.2969,58.6719 L277.2969,62.2969 L278.2969,62.2969 Q279.5,62.2969 279.9844,61.8906 Q280.4688,61.4844 280.4688,60.4844 Q280.4688,59.4844 279.9844,59.0781 Q279.5,58.6719 278.2969,58.6719 L277.2969,58.6719 Z M274.8438,56.6094 L278.2031,56.6094 Q280.7656,56.6094 281.8906,57.5234 Q283.0156,58.4375 283.0156,60.4844 Q283.0156,62.5313 281.8906,63.4453 Q280.7656,64.3594 278.2031,64.3594 L277.2969,64.3594 L277.2969,69 L274.8438,69 L274.8438,56.6094 Z "/><text fill="#000000" font-family="sans-serif" font-size="12" lengthAdjust="spacingAndGlyphs" textLength="46" x="291.5" y="67.1543">umlgen</text><line style="stroke: #A80036; stroke-width: 1.5;" x1="263.5" x2="339.5" y1="79" y2="79"/><line style="stroke: #A80036; stroke-width: 1.5;" x1="263.5" x2="339.5" y1="87" y2="87"/></g></svg>