<?xml version="1.0" encoding="UTF-8" standalone="no"?><svg xmlns="http://www.w3.org/2000/svg" xmlns:xlink="http://www.w3.org/1999/xlink" contentScriptType="application/ecmascript" contentStyleType="text/css" height="116px" preserveAspectRatio="none" style="width:229px;height:116px;" version="1.1" viewBox="0 0 229 116" width="229px" zoomAndPan="magnify"><defs><filter height="300%" id="f9irmje" width="300%" x="-1" y="-1"><feGaussianBlur result="blurOut" stdDeviation="2.0"/><feColorMatrix in="blurOut" result="blurOut2" type="matrix" values="0 0 0 0 0 0 0 0 0 0 0 0 0 0 0 0 0 0 .4 0"/><feOffset dx="4.0" dy="4.0" in="blurOut2" result="blurOut3"/><feBlend in="SourceGraphic" in2="blurOut3" mode="normal"/></filter></defs><g><!--class ModelUtil--><rect fill="#FEFECE" filter="url(#f9irmje)" height="99.2188" style="stroke: #A80036; stroke-width: 1.5;" width="214" x="6" y="8.5"/><ellipse cx="80.25" cy="24.5" fill="#ADD1B2" rx="11" ry="11" style="stroke: #A80036; stroke-width: 1.0;"/><path d="M83.2188,30.1406 Q82.6406,30.4375 82,30.5859 Q81.3594,30.7344 80.6563,30.7344 Q78.1563,30.7344 76.8359,29.0859 Q75.5156,27.4375 75.5156,24.3125 Q75.5156,21.1875 76.8359,19.5313 Q78.1563,17.875 80.6563,17.875 Q81.3594,17.875 82.0078,18.0313 Q82.6563,18.1875 83.2188,18.4844 L83.2188,21.2031 Q82.5938,20.625 82,20.3516 Q81.4063,20.0781 80.7813,20.0781 Q79.4375,20.0781 78.75,21.1484 Q78.0625,22.2188 78.0625,24.3125 Q78.0625,26.4063 78.75,27.4766 Q79.4375,28.5469 80.7813,28.5469 Q81.4063,28.5469 82,28.2734 Q82.5938,28 83.2188,27.4219 L83.2188,30.1406 Z "/><text fill="#000000" font-family="sans-serif" font-size="12" lengthAdjust="spacingAndGlyphs" textLength="57" x="100.75" y="28.6543">ModelUtil</text><line style="stroke: #A80036; stroke-width: 1.5;" x1="7" x2="219" y1="40.5" y2="40.5"/><line style="stroke: #A80036; stroke-width: 1.5;" x1="7" x2="219" y1="48.5" y2="48.5"/><rect fill="#F24D5C" height="6" style="stroke: #C82930; stroke-width: 1.0;" width="6" x="14" y="57.4023"/><text fill="#000000" font-family="sans-serif" font-size="11" lengthAdjust="spacingAndGlyphs" textLength="160" x="26" y="62.7104">string getShortName(string)</text><rect fill="#F24D5C" height="6" style="stroke: #C82930; stroke-width: 1.0;" width="6" x="14" y="70.207"/><text fill="#000000" font-family="sans-serif" font-size="11" lengthAdjust="spacingAndGlyphs" textLength="163" x="26" y="75.5151">string getNamespace(string)</text><rect fill="#F24D5C" height="6" style="stroke: #C82930; stroke-width: 1.0;" width="6" x="14" y="83.0117"/><text fill="#000000" font-family="sans-serif" font-size="11" lengthAdjust="spacingAndGlyphs" textLength="176" x="26" y="88.3198">boolean isPrimitiveType(string)</text><rect fill="#F24D5C" height="6" style="stroke: #C82930; stroke-width: 1.0;" width="6" x="14" y="95.8164"/><text fill="#000000" font-family="sans-serif" font-size="11" lengthAdjust="spacingAndGlyphs" textLength="188" x="26" y="101.1245">string capitalizeFirstLetter(string)</text></g></svg>