<?xml version="1.0" encoding="UTF-8" standalone="no"?><svg xmlns="http://www.w3.org/2000/svg" xmlns:xlink="http://www.w3.org/1999/xlink" contentScriptType="application/ecmascript" contentStyleType="text/css" height="595px" preserveAspectRatio="none" style="width:1970px;height:595px;" version="1.1" viewBox="0 0 1970 595" width="1970px" zoomAndPan="magnify"><defs><filter height="300%" id="f2ya3h0" width="300%" x="-1" y="-1"><feGaussianBlur result="blurOut" stdDeviation="2.0"/><feColorMatrix in="blurOut" result="blurOut2" type="matrix" values="0 0 0 0 0 0 0 0 0 0 0 0 0 0 0 0 0 0 .4 0"/><feOffset dx="4.0" dy="4.0" in="blurOut2" result="blurOut3"/><feBlend in="SourceGraphic" in2="blurOut3" mode="normal"/></filter></defs><g><!--class ModelUtil--><rect fill="#FEFECE" filter="url(#f2ya3h0)" height="99.2188" style="stroke: #A80036; stroke-width: 1.5;" width="214" x="6.5" y="110.5"/><ellipse cx="80.75" cy="126.5" fill="#ADD1B2" rx="11" ry="11" style="stroke: #A80036; stroke-width: 1.0;"/><path d="M83.7188,132.1406 Q83.1406,132.4375 82.5,132.5859 Q81.8594,132.7344 81.1563,132.7344 Q78.6563,132.7344 77.3359,131.0859 Q76.0156,129.4375 76.0156,126.3125 Q76.0156,123.1875 77.3359,121.5313 Q78.6563,119.875 81.1563,119.875 Q81.8594,119.875 82.5078,120.0313 Q83.1563,120.1875 83.7188,120.4844 L83.7188,123.2031 Q83.0938,122.625 82.5,122.3516 Q81.9063,122.0781 81.2813,122.0781 Q79.9375,122.0781 79.25,123.1484 Q78.5625,124.2188 78.5625,126.3125 Q78.5625,128.4063 79.25,129.4766 Q79.9375,130.5469 81.2813,130.5469 Q81.9063,130.5469 82.5,130.2734 Q83.0938,130 83.7188,129.4219 L83.7188,132.1406 Z "/><text fill="#000000" font-family="sans-serif" font-size="12" lengthAdjust="spacingAndGlyphs" textLength="57" x="101.25" y="130.6543">ModelUtil</text><line style="stroke: #A80036; stroke-width: 1.5;" x1="7.5" x2="219.5" y1="142.5" y2="142.5"/><line style="stroke: #A80036; stroke-width: 1.5;" x1="7.5" x2="219.5" y1="150.5" y2="150.5"/><rect fill="#F24D5C" height="6" style="stroke: #C82930; stroke-width: 1.0;" width="6" x="14.5" y="159.4023"/><text fill="#000000" font-family="sans-serif" font-size="11" lengthAdjust="spacingAndGlyphs" textLength="160" x="26.5" y="164.7104">string getShortName(string)</text><rect fill="#F24D5C" height="6" style="stroke: #C82930; stroke-width: 1.0;" width="6" x="14.5" y="172.207"/><text fill="#000000" font-family="sans-serif" font-size="11" lengthAdjust="spacingAndGlyphs" textLength="163" x="26.5" y="177.5151">string getNamespace(string)</text><rect fill="#F24D5C" height="6" style="stroke: #C82930; stroke-width: 1.0;" width="6" x="14.5" y="185.0117"/><text fill="#000000" font-family="sans-serif" font-size="11" lengthAdjust="spacingAndGlyphs" textLength="176" x="26.5" y="190.3198">boolean isPrimitiveType(string)</text><rect fill="#F24D5C" height="6" style="stroke: #C82930; stroke-width: 1.0;" width="6" x="14.5" y="197.8164"/><text fill="#000000" font-family="sans-serif" font-size="11" lengthAdjust="spacingAndGlyphs" textLength="188" x="26.5" y="203.1245">string capitalizeFirstLetter(string)</text><!--class Property--><rect fill="#FEFECE" filter="url(#f2ya3h0)" height="137.6328" style="stroke: #A80036; stroke-width: 1.5;" width="201" x="720.75" y="410"/><ellipse cx="790.5" cy="426" fill="#ADD1B2" rx="11" ry="11" style="stroke: #A80036; stroke-width: 1.0;"/><path d="M793.4688,431.6406 Q792.8906,431.9375 792.25,432.0859 Q791.6094,432.2344 790.9063,432.2344 Q788.4063,432.2344 787.0859,430.5859 Q785.7656,428.9375 785.7656,425.8125 Q785.7656,422.6875 787.0859,421.0313 Q788.4063,419.375 790.9063,419.375 Q791.6094,419.375 792.2578,419.5313 Q792.9063,419.6875 793.4688,419.9844 L793.4688,422.7031 Q792.8438,422.125 792.25,421.8516 Q791.6563,421.5781 791.0313,421.5781 Q789.6875,421.5781 789,422.6484 Q788.3125,423.7188 788.3125,425.8125 Q788.3125,427.9063 789,428.9766 Q789.6875,430.0469 791.0313,430.0469 Q791.6563,430.0469 792.25,429.7734 Q792.8438,429.5 793.4688,428.9219 L793.4688,431.6406 Z "/><text fill="#000000" font-family="sans-serif" font-size="12" lengthAdjust="spacingAndGlyphs" textLength="53" x="811" y="430.1543">Property</text><line style="stroke: #A80036; stroke-width: 1.5;" x1="721.75" x2="920.75" y1="442" y2="442"/><line style="stroke: #A80036; stroke-width: 1.5;" x1="721.75" x2="920.75" y1="450" y2="450"/><ellipse cx="731.75" cy="461.9023" fill="#84BE84" rx="3" ry="3" style="stroke: #038048; stroke-width: 1.0;"/><text fill="#000000" font-family="sans-serif" font-size="11" lengthAdjust="spacingAndGlyphs" textLength="136" x="740.75" y="464.2104">void constructor(Object)</text><rect fill="#F24D5C" height="6" style="stroke: #C82930; stroke-width: 1.0;" width="6" x="728.75" y="471.707"/><text fill="#000000" font-family="sans-serif" font-size="11" lengthAdjust="spacingAndGlyphs" textLength="161" x="740.75" y="477.0151">Object accept(Object,Object)</text><rect fill="#F24D5C" height="6" style="stroke: #C82930; stroke-width: 1.0;" width="6" x="728.75" y="484.5117"/><text fill="#000000" font-family="sans-serif" font-size="11" lengthAdjust="spacingAndGlyphs" textLength="81" x="740.75" y="489.8198">void process()</text><rect fill="#F24D5C" height="6" style="stroke: #C82930; stroke-width: 1.0;" width="6" x="728.75" y="497.3164"/><text fill="#000000" font-family="sans-serif" font-size="11" lengthAdjust="spacingAndGlyphs" textLength="175" x="740.75" y="502.6245">void validate(ClassDeclaration)</text><ellipse cx="731.75" cy="513.1211" fill="#84BE84" rx="3" ry="3" style="stroke: #038048; stroke-width: 1.0;"/><text fill="#000000" font-family="sans-serif" font-size="11" lengthAdjust="spacingAndGlyphs" textLength="96" x="740.75" y="515.4292">string getName()</text><ellipse cx="731.75" cy="525.9258" fill="#84BE84" rx="3" ry="3" style="stroke: #038048; stroke-width: 1.0;"/><text fill="#000000" font-family="sans-serif" font-size="11" lengthAdjust="spacingAndGlyphs" textLength="90" x="740.75" y="528.2339">string getType()</text><ellipse cx="731.75" cy="538.7305" fill="#84BE84" rx="3" ry="3" style="stroke: #038048; stroke-width: 1.0;"/><text fill="#000000" font-family="sans-serif" font-size="11" lengthAdjust="spacingAndGlyphs" textLength="97" x="740.75" y="541.0386">boolean isArray()</text><!--class Field--><rect fill="#FEFECE" filter="url(#f2ya3h0)" height="112.0234" style="stroke: #A80036; stroke-width: 1.5;" width="162" x="642" y="104"/><ellipse cx="704.25" cy="120" fill="#ADD1B2" rx="11" ry="11" style="stroke: #A80036; stroke-width: 1.0;"/><path d="M707.2188,125.6406 Q706.6406,125.9375 706,126.0859 Q705.3594,126.2344 704.6563,126.2344 Q702.1563,126.2344 700.8359,124.5859 Q699.5156,122.9375 699.5156,119.8125 Q699.5156,116.6875 700.8359,115.0313 Q702.1563,113.375 704.6563,113.375 Q705.3594,113.375 706.0078,113.5313 Q706.6563,113.6875 707.2188,113.9844 L707.2188,116.7031 Q706.5938,116.125 706,115.8516 Q705.4063,115.5781 704.7813,115.5781 Q703.4375,115.5781 702.75,116.6484 Q702.0625,117.7188 702.0625,119.8125 Q702.0625,121.9063 702.75,122.9766 Q703.4375,124.0469 704.7813,124.0469 Q705.4063,124.0469 706,123.7734 Q706.5938,123.5 707.2188,122.9219 L707.2188,125.6406 Z "/><text fill="#000000" font-family="sans-serif" font-size="12" lengthAdjust="spacingAndGlyphs" textLength="29" x="724.75" y="124.1543">Field</text><line style="stroke: #A80036; stroke-width: 1.5;" x1="643" x2="803" y1="136" y2="136"/><line style="stroke: #A80036; stroke-width: 1.5;" x1="643" x2="803" y1="144" y2="144"/><ellipse cx="653" cy="155.9023" fill="#84BE84" rx="3" ry="3" style="stroke: #038048; stroke-width: 1.0;"/><text fill="#000000" font-family="sans-serif" font-size="11" lengthAdjust="spacingAndGlyphs" textLength="136" x="662" y="158.2104">void constructor(Object)</text><rect fill="#F24D5C" height="6" style="stroke: #C82930; stroke-width: 1.0;" width="6" x="650" y="165.707"/><text fill="#000000" font-family="sans-serif" font-size="11" lengthAdjust="spacingAndGlyphs" textLength="81" x="662" y="171.0151">void process()</text><ellipse cx="653" cy="181.5117" fill="#84BE84" rx="3" ry="3" style="stroke: #038048; stroke-width: 1.0;"/><text fill="#000000" font-family="sans-serif" font-size="11" lengthAdjust="spacingAndGlyphs" textLength="113" x="662" y="183.8198">string getValidator()</text><ellipse cx="653" cy="194.3164" fill="#84BE84" rx="3" ry="3" style="stroke: #038048; stroke-width: 1.0;"/><text fill="#000000" font-family="sans-serif" font-size="11" lengthAdjust="spacingAndGlyphs" textLength="114" x="662" y="196.6245">boolean isOptional()</text><ellipse cx="653" cy="207.1211" fill="#84BE84" rx="3" ry="3" style="stroke: #038048; stroke-width: 1.0;"/><text fill="#000000" font-family="sans-serif" font-size="11" lengthAdjust="spacingAndGlyphs" textLength="134" x="662" y="209.4292">string getDefaultValue()</text><!--class Relationship--><rect fill="#FEFECE" filter="url(#f2ya3h0)" height="60.8047" style="stroke: #A80036; stroke-width: 1.5;" width="162" x="839" y="129.5"/><ellipse cx="877.85" cy="145.5" fill="#ADD1B2" rx="11" ry="11" style="stroke: #A80036; stroke-width: 1.0;"/><path d="M880.8188,151.1406 Q880.2406,151.4375 879.6,151.5859 Q878.9594,151.7344 878.2563,151.7344 Q875.7563,151.7344 874.4359,150.0859 Q873.1156,148.4375 873.1156,145.3125 Q873.1156,142.1875 874.4359,140.5313 Q875.7563,138.875 878.2563,138.875 Q878.9594,138.875 879.6078,139.0313 Q880.2563,139.1875 880.8188,139.4844 L880.8188,142.2031 Q880.1938,141.625 879.6,141.3516 Q879.0063,141.0781 878.3813,141.0781 Q877.0375,141.0781 876.35,142.1484 Q875.6625,143.2188 875.6625,145.3125 Q875.6625,147.4063 876.35,148.4766 Q877.0375,149.5469 878.3813,149.5469 Q879.0063,149.5469 879.6,149.2734 Q880.1938,149 880.8188,148.4219 L880.8188,151.1406 Z "/><text fill="#000000" font-family="sans-serif" font-size="12" lengthAdjust="spacingAndGlyphs" textLength="77" x="897.15" y="149.6543">Relationship</text><line style="stroke: #A80036; stroke-width: 1.5;" x1="840" x2="1000" y1="161.5" y2="161.5"/><line style="stroke: #A80036; stroke-width: 1.5;" x1="840" x2="1000" y1="169.5" y2="169.5"/><ellipse cx="850" cy="181.4023" fill="#84BE84" rx="3" ry="3" style="stroke: #038048; stroke-width: 1.0;"/><text fill="#000000" font-family="sans-serif" font-size="11" lengthAdjust="spacingAndGlyphs" textLength="136" x="859" y="183.7104">void constructor(Object)</text><!--class IllegalModelException--><rect fill="#FEFECE" filter="url(#f2ya3h0)" height="60.8047" style="stroke: #A80036; stroke-width: 1.5;" width="166" x="1036" y="129.5"/><ellipse cx="1051" cy="145.5" fill="#ADD1B2" rx="11" ry="11" style="stroke: #A80036; stroke-width: 1.0;"/><path d="M1053.9688,151.1406 Q1053.3906,151.4375 1052.75,151.5859 Q1052.1094,151.7344 1051.4063,151.7344 Q1048.9063,151.7344 1047.5859,150.0859 Q1046.2656,148.4375 1046.2656,145.3125 Q1046.2656,142.1875 1047.5859,140.5313 Q1048.9063,138.875 1051.4063,138.875 Q1052.1094,138.875 1052.7578,139.0313 Q1053.4063,139.1875 1053.9688,139.4844 L1053.9688,142.2031 Q1053.3438,141.625 1052.75,141.3516 Q1052.1563,141.0781 1051.5313,141.0781 Q1050.1875,141.0781 1049.5,142.1484 Q1048.8125,143.2188 1048.8125,145.3125 Q1048.8125,147.4063 1049.5,148.4766 Q1050.1875,149.5469 1051.5313,149.5469 Q1052.1563,149.5469 1052.75,149.2734 Q1053.3438,149 1053.9688,148.4219 L1053.9688,151.1406 Z "/><text fill="#000000" font-family="sans-serif" font-size="12" lengthAdjust="spacingAndGlyphs" textLength="134" x="1065" y="149.6543">IllegalModelException</text><line style="stroke: #A80036; stroke-width: 1.5;" x1="1037" x2="1201" y1="161.5" y2="161.5"/><line style="stroke: #A80036; stroke-width: 1.5;" x1="1037" x2="1201" y1="169.5" y2="169.5"/><ellipse cx="1047" cy="181.4023" fill="#84BE84" rx="3" ry="3" style="stroke: #038048; stroke-width: 1.0;"/><text fill="#000000" font-family="sans-serif" font-size="11" lengthAdjust="spacingAndGlyphs" textLength="133" x="1056" y="183.7104">void constructor(string)</text><!--class BaseException--><rect fill="#FEFECE" filter="url(#f2ya3h0)" height="48" style="stroke: #A80036; stroke-width: 1.5;" width="124" x="1057.5" y="455"/><ellipse cx="1072.5" cy="471" fill="#ADD1B2" rx="11" ry="11" style="stroke: #A80036; stroke-width: 1.0;"/><path d="M1075.4688,476.6406 Q1074.8906,476.9375 1074.25,477.0859 Q1073.6094,477.2344 1072.9063,477.2344 Q1070.4063,477.2344 1069.0859,475.5859 Q1067.7656,473.9375 1067.7656,470.8125 Q1067.7656,467.6875 1069.0859,466.0313 Q1070.4063,464.375 1072.9063,464.375 Q1073.6094,464.375 1074.2578,464.5313 Q1074.9063,464.6875 1075.4688,464.9844 L1075.4688,467.7031 Q1074.8438,467.125 1074.25,466.8516 Q1073.6563,466.5781 1073.0313,466.5781 Q1071.6875,466.5781 1071,467.6484 Q1070.3125,468.7188 1070.3125,470.8125 Q1070.3125,472.9063 1071,473.9766 Q1071.6875,475.0469 1073.0313,475.0469 Q1073.6563,475.0469 1074.25,474.7734 Q1074.8438,474.5 1075.4688,473.9219 L1075.4688,476.6406 Z "/><text fill="#000000" font-family="sans-serif" font-size="12" lengthAdjust="spacingAndGlyphs" textLength="92" x="1086.5" y="475.1543">BaseException</text><line style="stroke: #A80036; stroke-width: 1.5;" x1="1058.5" x2="1180.5" y1="487" y2="487"/><line style="stroke: #A80036; stroke-width: 1.5;" x1="1058.5" x2="1180.5" y1="495" y2="495"/><!--class ClassDeclaration--><rect fill="#FEFECE" filter="url(#f2ya3h0)" height="214.4609" style="stroke: #A80036; stroke-width: 1.5;" width="215" x="1491.75" y="372"/><ellipse cx="1542.5" cy="388" fill="#ADD1B2" rx="11" ry="11" style="stroke: #A80036; stroke-width: 1.0;"/><path d="M1545.4688,393.6406 Q1544.8906,393.9375 1544.25,394.0859 Q1543.6094,394.2344 1542.9063,394.2344 Q1540.4063,394.2344 1539.0859,392.5859 Q1537.7656,390.9375 1537.7656,387.8125 Q1537.7656,384.6875 1539.0859,383.0313 Q1540.4063,381.375 1542.9063,381.375 Q1543.6094,381.375 1544.2578,381.5313 Q1544.9063,381.6875 1545.4688,381.9844 L1545.4688,384.7031 Q1544.8438,384.125 1544.25,383.8516 Q1543.6563,383.5781 1543.0313,383.5781 Q1541.6875,383.5781 1541,384.6484 Q1540.3125,385.7188 1540.3125,387.8125 Q1540.3125,389.9063 1541,390.9766 Q1541.6875,392.0469 1543.0313,392.0469 Q1543.6563,392.0469 1544.25,391.7734 Q1544.8438,391.5 1545.4688,390.9219 L1545.4688,393.6406 Z "/><text fill="#000000" font-family="sans-serif" font-size="12" lengthAdjust="spacingAndGlyphs" textLength="105" x="1563" y="392.1543">ClassDeclaration</text><line style="stroke: #A80036; stroke-width: 1.5;" x1="1492.75" x2="1705.75" y1="404" y2="404"/><line style="stroke: #A80036; stroke-width: 1.5;" x1="1492.75" x2="1705.75" y1="412" y2="412"/><ellipse cx="1502.75" cy="423.9023" fill="#84BE84" rx="3" ry="3" style="stroke: #038048; stroke-width: 1.0;"/><text fill="#000000" font-family="sans-serif" font-size="11" lengthAdjust="spacingAndGlyphs" textLength="189" x="1511.75" y="426.2104">void constructor(ModelFile,string)</text><rect fill="#F24D5C" height="6" style="stroke: #C82930; stroke-width: 1.0;" width="6" x="1499.75" y="433.707"/><text fill="#000000" font-family="sans-serif" font-size="11" lengthAdjust="spacingAndGlyphs" textLength="161" x="1511.75" y="439.0151">Object accept(Object,Object)</text><ellipse cx="1502.75" cy="449.5117" fill="#84BE84" rx="3" ry="3" style="stroke: #038048; stroke-width: 1.0;"/><text fill="#000000" font-family="sans-serif" font-size="11" lengthAdjust="spacingAndGlyphs" textLength="134" x="1511.75" y="451.8198">ModelFile getModelFile()</text><rect fill="#F24D5C" height="6" style="stroke: #C82930; stroke-width: 1.0;" width="6" x="1499.75" y="459.3164"/><text fill="#000000" font-family="sans-serif" font-size="11" lengthAdjust="spacingAndGlyphs" textLength="81" x="1511.75" y="464.6245">void process()</text><rect fill="#F24D5C" height="6" style="stroke: #C82930; stroke-width: 1.0;" width="6" x="1499.75" y="472.1211"/><text fill="#000000" font-family="sans-serif" font-size="11" lengthAdjust="spacingAndGlyphs" textLength="79" x="1511.75" y="477.4292">void validate()</text><ellipse cx="1502.75" cy="487.9258" fill="#84BE84" rx="3" ry="3" style="stroke: #038048; stroke-width: 1.0;"/><text fill="#000000" font-family="sans-serif" font-size="11" lengthAdjust="spacingAndGlyphs" textLength="96" x="1511.75" y="490.2339">string getName()</text><ellipse cx="1502.75" cy="500.7305" fill="#84BE84" rx="3" ry="3" style="stroke: #038048; stroke-width: 1.0;"/><text fill="#000000" font-family="sans-serif" font-size="11" lengthAdjust="spacingAndGlyphs" textLength="171" x="1511.75" y="503.0386">string getFullyQualifiedName()</text><ellipse cx="1502.75" cy="513.5352" fill="#84BE84" rx="3" ry="3" style="stroke: #038048; stroke-width: 1.0;"/><text fill="#000000" font-family="sans-serif" font-size="11" lengthAdjust="spacingAndGlyphs" textLength="172" x="1511.75" y="515.8433">string getIdentifierFieldName()</text><ellipse cx="1502.75" cy="526.3398" fill="#84BE84" rx="3" ry="3" style="stroke: #038048; stroke-width: 1.0;"/><text fill="#000000" font-family="sans-serif" font-size="11" lengthAdjust="spacingAndGlyphs" textLength="140" x="1511.75" y="528.6479">Field getOwnField(string)</text><ellipse cx="1502.75" cy="539.1445" fill="#84BE84" rx="3" ry="3" style="stroke: #038048; stroke-width: 1.0;"/><text fill="#000000" font-family="sans-serif" font-size="11" lengthAdjust="spacingAndGlyphs" textLength="122" x="1511.75" y="541.4526">Field[] getOwnFields()</text><ellipse cx="1502.75" cy="551.9492" fill="#84BE84" rx="3" ry="3" style="stroke: #038048; stroke-width: 1.0;"/><text fill="#000000" font-family="sans-serif" font-size="11" lengthAdjust="spacingAndGlyphs" textLength="124" x="1511.75" y="554.2573">string getSuperType()</text><ellipse cx="1502.75" cy="564.7539" fill="#84BE84" rx="3" ry="3" style="stroke: #038048; stroke-width: 1.0;"/><text fill="#000000" font-family="sans-serif" font-size="11" lengthAdjust="spacingAndGlyphs" textLength="115" x="1511.75" y="567.062">Field getField(string)</text><ellipse cx="1502.75" cy="577.5586" fill="#84BE84" rx="3" ry="3" style="stroke: #038048; stroke-width: 1.0;"/><text fill="#000000" font-family="sans-serif" font-size="11" lengthAdjust="spacingAndGlyphs" textLength="97" x="1511.75" y="579.8667">Field[] getFields()</text><!--class AssetDeclaration--><rect fill="#FEFECE" filter="url(#f2ya3h0)" height="60.8047" style="stroke: #A80036; stroke-width: 1.5;" width="218" x="1237" y="129.5"/><ellipse cx="1288.25" cy="145.5" fill="#ADD1B2" rx="11" ry="11" style="stroke: #A80036; stroke-width: 1.0;"/><path d="M1291.2188,151.1406 Q1290.6406,151.4375 1290,151.5859 Q1289.3594,151.7344 1288.6563,151.7344 Q1286.1563,151.7344 1284.8359,150.0859 Q1283.5156,148.4375 1283.5156,145.3125 Q1283.5156,142.1875 1284.8359,140.5313 Q1286.1563,138.875 1288.6563,138.875 Q1289.3594,138.875 1290.0078,139.0313 Q1290.6563,139.1875 1291.2188,139.4844 L1291.2188,142.2031 Q1290.5938,141.625 1290,141.3516 Q1289.4063,141.0781 1288.7813,141.0781 Q1287.4375,141.0781 1286.75,142.1484 Q1286.0625,143.2188 1286.0625,145.3125 Q1286.0625,147.4063 1286.75,148.4766 Q1287.4375,149.5469 1288.7813,149.5469 Q1289.4063,149.5469 1290,149.2734 Q1290.5938,149 1291.2188,148.4219 L1291.2188,151.1406 Z "/><text fill="#000000" font-family="sans-serif" font-size="12" lengthAdjust="spacingAndGlyphs" textLength="107" x="1308.75" y="149.6543">AssetDeclaration</text><line style="stroke: #A80036; stroke-width: 1.5;" x1="1238" x2="1454" y1="161.5" y2="161.5"/><line style="stroke: #A80036; stroke-width: 1.5;" x1="1238" x2="1454" y1="169.5" y2="169.5"/><ellipse cx="1248" cy="181.4023" fill="#84BE84" rx="3" ry="3" style="stroke: #038048; stroke-width: 1.0;"/><text fill="#000000" font-family="sans-serif" font-size="11" lengthAdjust="spacingAndGlyphs" textLength="192" x="1257" y="183.7104">void constructor(ModelFile,Object)</text><!--class ParticipantDeclaration--><rect fill="#FEFECE" filter="url(#f2ya3h0)" height="60.8047" style="stroke: #A80036; stroke-width: 1.5;" width="218" x="1490" y="129.5"/><ellipse cx="1525.7" cy="145.5" fill="#ADD1B2" rx="11" ry="11" style="stroke: #A80036; stroke-width: 1.0;"/><path d="M1528.6688,151.1406 Q1528.0906,151.4375 1527.45,151.5859 Q1526.8094,151.7344 1526.1063,151.7344 Q1523.6063,151.7344 1522.2859,150.0859 Q1520.9656,148.4375 1520.9656,145.3125 Q1520.9656,142.1875 1522.2859,140.5313 Q1523.6063,138.875 1526.1063,138.875 Q1526.8094,138.875 1527.4578,139.0313 Q1528.1063,139.1875 1528.6688,139.4844 L1528.6688,142.2031 Q1528.0438,141.625 1527.45,141.3516 Q1526.8563,141.0781 1526.2313,141.0781 Q1524.8875,141.0781 1524.2,142.1484 Q1523.5125,143.2188 1523.5125,145.3125 Q1523.5125,147.4063 1524.2,148.4766 Q1524.8875,149.5469 1526.2313,149.5469 Q1526.8563,149.5469 1527.45,149.2734 Q1528.0438,149 1528.6688,148.4219 L1528.6688,151.1406 Z "/><text fill="#000000" font-family="sans-serif" font-size="12" lengthAdjust="spacingAndGlyphs" textLength="140" x="1544.3" y="149.6543">ParticipantDeclaration</text><line style="stroke: #A80036; stroke-width: 1.5;" x1="1491" x2="1707" y1="161.5" y2="161.5"/><line style="stroke: #A80036; stroke-width: 1.5;" x1="1491" x2="1707" y1="169.5" y2="169.5"/><ellipse cx="1501" cy="181.4023" fill="#84BE84" rx="3" ry="3" style="stroke: #038048; stroke-width: 1.0;"/><text fill="#000000" font-family="sans-serif" font-size="11" lengthAdjust="spacingAndGlyphs" textLength="192" x="1510" y="183.7104">void constructor(ModelFile,Object)</text><!--class TransactionDeclaration--><rect fill="#FEFECE" filter="url(#f2ya3h0)" height="73.6094" style="stroke: #A80036; stroke-width: 1.5;" width="218" x="1743" y="123"/><ellipse cx="1776" cy="139" fill="#ADD1B2" rx="11" ry="11" style="stroke: #A80036; stroke-width: 1.0;"/><path d="M1778.9688,144.6406 Q1778.3906,144.9375 1777.75,145.0859 Q1777.1094,145.2344 1776.4063,145.2344 Q1773.9063,145.2344 1772.5859,143.5859 Q1771.2656,141.9375 1771.2656,138.8125 Q1771.2656,135.6875 1772.5859,134.0313 Q1773.9063,132.375 1776.4063,132.375 Q1777.1094,132.375 1777.7578,132.5313 Q1778.4063,132.6875 1778.9688,132.9844 L1778.9688,135.7031 Q1778.3438,135.125 1777.75,134.8516 Q1777.1563,134.5781 1776.5313,134.5781 Q1775.1875,134.5781 1774.5,135.6484 Q1773.8125,136.7188 1773.8125,138.8125 Q1773.8125,140.9063 1774.5,141.9766 Q1775.1875,143.0469 1776.5313,143.0469 Q1777.1563,143.0469 1777.75,142.7734 Q1778.3438,142.5 1778.9688,141.9219 L1778.9688,144.6406 Z "/><text fill="#000000" font-family="sans-serif" font-size="12" lengthAdjust="spacingAndGlyphs" textLength="146" x="1794" y="143.1543">TransactionDeclaration</text><line style="stroke: #A80036; stroke-width: 1.5;" x1="1744" x2="1960" y1="155" y2="155"/><line style="stroke: #A80036; stroke-width: 1.5;" x1="1744" x2="1960" y1="163" y2="163"/><ellipse cx="1754" cy="174.9023" fill="#84BE84" rx="3" ry="3" style="stroke: #038048; stroke-width: 1.0;"/><text fill="#000000" font-family="sans-serif" font-size="11" lengthAdjust="spacingAndGlyphs" textLength="192" x="1763" y="177.2104">void constructor(ModelFile,Object)</text><rect fill="#F24D5C" height="6" style="stroke: #C82930; stroke-width: 1.0;" width="6" x="1751" y="184.707"/><text fill="#000000" font-family="sans-serif" font-size="11" lengthAdjust="spacingAndGlyphs" textLength="162" x="1763" y="190.0151">void getIdentifierFieldName()</text><!--class ModelFile--><rect fill="#FEFECE" filter="url(#f2ya3h0)" height="304.0938" style="stroke: #A80036; stroke-width: 1.5;" width="351" x="255.75" y="8"/><ellipse cx="398" cy="24" fill="#ADD1B2" rx="11" ry="11" style="stroke: #A80036; stroke-width: 1.0;"/><path d="M400.9688,29.6406 Q400.3906,29.9375 399.75,30.0859 Q399.1094,30.2344 398.4063,30.2344 Q395.9063,30.2344 394.5859,28.5859 Q393.2656,26.9375 393.2656,23.8125 Q393.2656,20.6875 394.5859,19.0313 Q395.9063,17.375 398.4063,17.375 Q399.1094,17.375 399.7578,17.5313 Q400.4063,17.6875 400.9688,17.9844 L400.9688,20.7031 Q400.3438,20.125 399.75,19.8516 Q399.1563,19.5781 398.5313,19.5781 Q397.1875,19.5781 396.5,20.6484 Q395.8125,21.7188 395.8125,23.8125 Q395.8125,25.9063 396.5,26.9766 Q397.1875,28.0469 398.5313,28.0469 Q399.1563,28.0469 399.75,27.7734 Q400.3438,27.5 400.9688,26.9219 L400.9688,29.6406 Z "/><text fill="#000000" font-family="sans-serif" font-size="12" lengthAdjust="spacingAndGlyphs" textLength="58" x="418.5" y="28.1543">ModelFile</text><line style="stroke: #A80036; stroke-width: 1.5;" x1="256.75" x2="605.75" y1="40" y2="40"/><line style="stroke: #A80036; stroke-width: 1.5;" x1="256.75" x2="605.75" y1="48" y2="48"/><ellipse cx="266.75" cy="59.9023" fill="#84BE84" rx="3" ry="3" style="stroke: #038048; stroke-width: 1.0;"/><text fill="#000000" font-family="sans-serif" font-size="11" lengthAdjust="spacingAndGlyphs" textLength="219" x="275.75" y="62.2104">void constructor(ModelManager,string)</text><rect fill="#F24D5C" height="6" style="stroke: #C82930; stroke-width: 1.0;" width="6" x="263.75" y="69.707"/><text fill="#000000" font-family="sans-serif" font-size="11" lengthAdjust="spacingAndGlyphs" textLength="161" x="275.75" y="75.0151">Object accept(Object,Object)</text><ellipse cx="266.75" cy="85.5117" fill="#84BE84" rx="3" ry="3" style="stroke: #038048; stroke-width: 1.0;"/><text fill="#000000" font-family="sans-serif" font-size="11" lengthAdjust="spacingAndGlyphs" textLength="194" x="275.75" y="87.8198">ModelManager getModelManager()</text><ellipse cx="266.75" cy="98.3164" fill="#84BE84" rx="3" ry="3" style="stroke: #038048; stroke-width: 1.0;"/><text fill="#000000" font-family="sans-serif" font-size="11" lengthAdjust="spacingAndGlyphs" textLength="115" x="275.75" y="100.6245">string[] getImports()</text><rect fill="#F24D5C" height="6" style="stroke: #C82930; stroke-width: 1.0;" width="6" x="263.75" y="108.1211"/><text fill="#000000" font-family="sans-serif" font-size="11" lengthAdjust="spacingAndGlyphs" textLength="79" x="275.75" y="113.4292">void validate()</text><rect fill="#F24D5C" height="6" style="stroke: #C82930; stroke-width: 1.0;" width="6" x="263.75" y="120.9258"/><text fill="#000000" font-family="sans-serif" font-size="11" lengthAdjust="spacingAndGlyphs" textLength="184" x="275.75" y="126.2339">string resolveType(string,string)</text><rect fill="#F24D5C" height="6" style="stroke: #C82930; stroke-width: 1.0;" width="6" x="263.75" y="133.7305"/><text fill="#000000" font-family="sans-serif" font-size="11" lengthAdjust="spacingAndGlyphs" textLength="156" x="275.75" y="139.0386">boolean isLocalType(string)</text><rect fill="#F24D5C" height="6" style="stroke: #C82930; stroke-width: 1.0;" width="6" x="263.75" y="146.5352"/><text fill="#000000" font-family="sans-serif" font-size="11" lengthAdjust="spacingAndGlyphs" textLength="178" x="275.75" y="151.8433">boolean isImportedType(string)</text><rect fill="#F24D5C" height="6" style="stroke: #C82930; stroke-width: 1.0;" width="6" x="263.75" y="159.3398"/><text fill="#000000" font-family="sans-serif" font-size="11" lengthAdjust="spacingAndGlyphs" textLength="157" x="275.75" y="164.6479">string resolveImport(string)</text><ellipse cx="266.75" cy="175.1445" fill="#84BE84" rx="3" ry="3" style="stroke: #038048; stroke-width: 1.0;"/><text fill="#000000" font-family="sans-serif" font-size="11" lengthAdjust="spacingAndGlyphs" textLength="143" x="275.75" y="177.4526">boolean isDefined(string)</text><ellipse cx="266.75" cy="187.9492" fill="#84BE84" rx="3" ry="3" style="stroke: #038048; stroke-width: 1.0;"/><text fill="#000000" font-family="sans-serif" font-size="11" lengthAdjust="spacingAndGlyphs" textLength="186" x="275.75" y="190.2573">ClassDeclaration getType(string)</text><ellipse cx="266.75" cy="200.7539" fill="#84BE84" rx="3" ry="3" style="stroke: #038048; stroke-width: 1.0;"/><text fill="#000000" font-family="sans-serif" font-size="11" lengthAdjust="spacingAndGlyphs" textLength="255" x="275.75" y="203.062">AssetDeclaration getAssetDeclaration(string)</text><ellipse cx="266.75" cy="213.5586" fill="#84BE84" rx="3" ry="3" style="stroke: #038048; stroke-width: 1.0;"/><text fill="#000000" font-family="sans-serif" font-size="11" lengthAdjust="spacingAndGlyphs" textLength="325" x="275.75" y="215.8667">TransactionDeclaration getTransactionDeclaration(string)</text><ellipse cx="266.75" cy="226.3633" fill="#84BE84" rx="3" ry="3" style="stroke: #038048; stroke-width: 1.0;"/><text fill="#000000" font-family="sans-serif" font-size="11" lengthAdjust="spacingAndGlyphs" textLength="311" x="275.75" y="228.6714">ParticipantDeclaration getParticipantDeclaration(string)</text><ellipse cx="266.75" cy="239.168" fill="#84BE84" rx="3" ry="3" style="stroke: #038048; stroke-width: 1.0;"/><text fill="#000000" font-family="sans-serif" font-size="11" lengthAdjust="spacingAndGlyphs" textLength="130" x="275.75" y="241.4761">string getNamespace()</text><ellipse cx="266.75" cy="251.9727" fill="#84BE84" rx="3" ry="3" style="stroke: #038048; stroke-width: 1.0;"/><text fill="#000000" font-family="sans-serif" font-size="11" lengthAdjust="spacingAndGlyphs" textLength="237" x="275.75" y="254.2808">AssetDeclaration[] getAssetDeclarations()</text><ellipse cx="266.75" cy="264.7773" fill="#84BE84" rx="3" ry="3" style="stroke: #038048; stroke-width: 1.0;"/><text fill="#000000" font-family="sans-serif" font-size="11" lengthAdjust="spacingAndGlyphs" textLength="307" x="275.75" y="267.0854">TransactionDeclaration[] getTransactionDeclarations()</text><ellipse cx="266.75" cy="277.582" fill="#84BE84" rx="3" ry="3" style="stroke: #038048; stroke-width: 1.0;"/><text fill="#000000" font-family="sans-serif" font-size="11" lengthAdjust="spacingAndGlyphs" textLength="293" x="275.75" y="279.8901">ParticipantDeclaration[] getParticipantDeclarations()</text><ellipse cx="266.75" cy="290.3867" fill="#84BE84" rx="3" ry="3" style="stroke: #038048; stroke-width: 1.0;"/><text fill="#000000" font-family="sans-serif" font-size="11" lengthAdjust="spacingAndGlyphs" textLength="252" x="275.75" y="292.6948">ClassDeclaration[] getDeclarations(Function)</text><ellipse cx="266.75" cy="303.1914" fill="#84BE84" rx="3" ry="3" style="stroke: #038048; stroke-width: 1.0;"/><text fill="#000000" font-family="sans-serif" font-size="11" lengthAdjust="spacingAndGlyphs" textLength="218" x="275.75" y="305.4995">ClassDeclaration[] getAllDeclarations()</text><!--class ModelManager--><rect fill="#FEFECE" filter="url(#f2ya3h0)" height="150.4375" style="stroke: #A80036; stroke-width: 1.5;" width="212" x="7.5" y="404"/><ellipse cx="63.25" cy="420" fill="#ADD1B2" rx="11" ry="11" style="stroke: #A80036; stroke-width: 1.0;"/><path d="M66.2188,425.6406 Q65.6406,425.9375 65,426.0859 Q64.3594,426.2344 63.6563,426.2344 Q61.1563,426.2344 59.8359,424.5859 Q58.5156,422.9375 58.5156,419.8125 Q58.5156,416.6875 59.8359,415.0313 Q61.1563,413.375 63.6563,413.375 Q64.3594,413.375 65.0078,413.5313 Q65.6563,413.6875 66.2188,413.9844 L66.2188,416.7031 Q65.5938,416.125 65,415.8516 Q64.4063,415.5781 63.7813,415.5781 Q62.4375,415.5781 61.75,416.6484 Q61.0625,417.7188 61.0625,419.8125 Q61.0625,421.9063 61.75,422.9766 Q62.4375,424.0469 63.7813,424.0469 Q64.4063,424.0469 65,423.7734 Q65.5938,423.5 66.2188,422.9219 L66.2188,425.6406 Z "/><text fill="#000000" font-family="sans-serif" font-size="12" lengthAdjust="spacingAndGlyphs" textLength="92" x="83.75" y="424.1543">ModelManager</text><line style="stroke: #A80036; stroke-width: 1.5;" x1="8.5" x2="218.5" y1="436" y2="436"/><line style="stroke: #A80036; stroke-width: 1.5;" x1="8.5" x2="218.5" y1="444" y2="444"/><ellipse cx="18.5" cy="455.9023" fill="#84BE84" rx="3" ry="3" style="stroke: #038048; stroke-width: 1.0;"/><text fill="#000000" font-family="sans-serif" font-size="11" lengthAdjust="spacingAndGlyphs" textLength="100" x="27.5" y="458.2104">void constructor()</text><rect fill="#F24D5C" height="6" style="stroke: #C82930; stroke-width: 1.0;" width="6" x="15.5" y="465.707"/><text fill="#000000" font-family="sans-serif" font-size="11" lengthAdjust="spacingAndGlyphs" textLength="161" x="27.5" y="471.0151">Object accept(Object,Object)</text><ellipse cx="18.5" cy="481.5117" fill="#84BE84" rx="3" ry="3" style="stroke: #038048; stroke-width: 1.0;"/><text fill="#000000" font-family="sans-serif" font-size="11" lengthAdjust="spacingAndGlyphs" textLength="141" x="27.5" y="483.8198">void addModelFile(string)</text><ellipse cx="18.5" cy="494.3164" fill="#84BE84" rx="3" ry="3" style="stroke: #038048; stroke-width: 1.0;"/><text fill="#000000" font-family="sans-serif" font-size="11" lengthAdjust="spacingAndGlyphs" textLength="149" x="27.5" y="496.6245">ModelFile[] getModelFiles()</text><rect fill="#F24D5C" height="6" style="stroke: #C82930; stroke-width: 1.0;" width="6" x="15.5" y="504.1211"/><text fill="#000000" font-family="sans-serif" font-size="11" lengthAdjust="spacingAndGlyphs" textLength="184" x="27.5" y="509.4292">string resolveType(string,string)</text><ellipse cx="18.5" cy="519.9258" fill="#84BE84" rx="3" ry="3" style="stroke: #038048; stroke-width: 1.0;"/><text fill="#000000" font-family="sans-serif" font-size="11" lengthAdjust="spacingAndGlyphs" textLength="122" x="27.5" y="522.2339">void clearModelFiles()</text><ellipse cx="18.5" cy="532.7305" fill="#84BE84" rx="3" ry="3" style="stroke: #038048; stroke-width: 1.0;"/><text fill="#000000" font-family="sans-serif" font-size="11" lengthAdjust="spacingAndGlyphs" textLength="167" x="27.5" y="535.0386">ModelFile getModelFile(string)</text><ellipse cx="18.5" cy="545.5352" fill="#84BE84" rx="3" ry="3" style="stroke: #038048; stroke-width: 1.0;"/><text fill="#000000" font-family="sans-serif" font-size="11" lengthAdjust="spacingAndGlyphs" textLength="186" x="27.5" y="547.8433">ClassDeclaration getType(string)</text><path d="M740.07,216.217 C754.926,264.271 776.717,334.759 793.946,390.489 " fill="none" style="stroke: #A80036; stroke-width: 1.0;"/><polygon fill="none" points="800.729,388.729,799.948,409.904,787.353,392.864,800.729,388.729" style="stroke: #A80036; stroke-width: 1.0;"/><path d="M910.775,190.538 C896.664,235.723 869.16,323.791 848.295,390.6 " fill="none" style="stroke: #A80036; stroke-width: 1.0;"/><polygon fill="none" points="854.974,392.697,842.33,409.701,841.61,388.524,854.974,392.697" style="stroke: #A80036; stroke-width: 1.0;"/><path d="M1119,190.538 C1119,246.757 1119,369.357 1119,434.804 " fill="none" style="stroke: #A80036; stroke-width: 1.0;"/><polygon fill="none" points="1126,434.999,1119,454.999,1112,434.999,1126,434.999" style="stroke: #A80036; stroke-width: 1.0;"/><path d="M1369.57,190.538 C1399.64,228.21 1453.5,295.689 1501.47,355.805 " fill="none" style="stroke: #A80036; stroke-width: 1.0;"/><polygon fill="none" points="1507.17,351.719,1514.18,371.718,1496.23,360.452,1507.17,351.719" style="stroke: #A80036; stroke-width: 1.0;"/><path d="M1599,190.538 C1599,227.328 1599,292.547 1599,351.572 " fill="none" style="stroke: #A80036; stroke-width: 1.0;"/><polygon fill="none" points="1606,351.718,1599,371.718,1592,351.718,1606,351.718" style="stroke: #A80036; stroke-width: 1.0;"/><path d="M1823.22,197.055 C1792.39,235.695 1741.73,299.159 1696.37,356.001 " fill="none" style="stroke: #A80036; stroke-width: 1.0;"/><polygon fill="none" points="1701.68,360.566,1683.73,371.831,1690.74,351.833,1701.68,360.566" style="stroke: #A80036; stroke-width: 1.0;"/></g></svg>