<?xml version="1.0" encoding="UTF-8" standalone="no"?><svg xmlns="http://www.w3.org/2000/svg" xmlns:xlink="http://www.w3.org/1999/xlink" contentScriptType="application/ecmascript" contentStyleType="text/css" height="373px" preserveAspectRatio="none" style="width:1019px;height:373px;" version="1.1" viewBox="0 0 1019 373" width="1019px" zoomAndPan="magnify"><defs><filter height="300%" id="fj5zudv" width="300%" x="-1" y="-1"><feGaussianBlur result="blurOut" stdDeviation="2.0"/><feColorMatrix in="blurOut" result="blurOut2" type="matrix" values="0 0 0 0 0 0 0 0 0 0 0 0 0 0 0 0 0 0 .4 0"/><feOffset dx="4.0" dy="4.0" in="blurOut2" result="blurOut3"/><feBlend in="SourceGraphic" in2="blurOut3" mode="normal"/></filter></defs><g><!--class BaseException--><rect fill="#FEFECE" filter="url(#fj5zudv)" height="60.8047" style="stroke: #A80036; stroke-width: 1.5;" width="159" x="6" y="194.5"/><ellipse cx="36.75" cy="210.5" fill="#ADD1B2" rx="11" ry="11" style="stroke: #A80036; stroke-width: 1.0;"/><path d="M39.7188,216.1406 Q39.1406,216.4375 38.5,216.5859 Q37.8594,216.7344 37.1563,216.7344 Q34.6563,216.7344 33.3359,215.0859 Q32.0156,213.4375 32.0156,210.3125 Q32.0156,207.1875 33.3359,205.5313 Q34.6563,203.875 37.1563,203.875 Q37.8594,203.875 38.5078,204.0313 Q39.1563,204.1875 39.7188,204.4844 L39.7188,207.2031 Q39.0938,206.625 38.5,206.3516 Q37.9063,206.0781 37.2813,206.0781 Q35.9375,206.0781 35.25,207.1484 Q34.5625,208.2188 34.5625,210.3125 Q34.5625,212.4063 35.25,213.4766 Q35.9375,214.5469 37.2813,214.5469 Q37.9063,214.5469 38.5,214.2734 Q39.0938,214 39.7188,213.4219 L39.7188,216.1406 Z "/><text fill="#000000" font-family="sans-serif" font-size="12" lengthAdjust="spacingAndGlyphs" textLength="92" x="54.25" y="214.6543">BaseException</text><line style="stroke: #A80036; stroke-width: 1.5;" x1="7" x2="164" y1="226.5" y2="226.5"/><line style="stroke: #A80036; stroke-width: 1.5;" x1="7" x2="164" y1="234.5" y2="234.5"/><ellipse cx="17" cy="246.4023" fill="#84BE84" rx="3" ry="3" style="stroke: #038048; stroke-width: 1.0;"/><text fill="#000000" font-family="sans-serif" font-size="11" lengthAdjust="spacingAndGlyphs" textLength="133" x="26" y="248.7104">void constructor(string)</text><!--class Error--><rect fill="#FEFECE" filter="url(#fj5zudv)" height="48" style="stroke: #A80036; stroke-width: 1.5;" width="63" x="54" y="316"/><ellipse cx="69" cy="332" fill="#ADD1B2" rx="11" ry="11" style="stroke: #A80036; stroke-width: 1.0;"/><path d="M71.9688,337.6406 Q71.3906,337.9375 70.75,338.0859 Q70.1094,338.2344 69.4063,338.2344 Q66.9063,338.2344 65.5859,336.5859 Q64.2656,334.9375 64.2656,331.8125 Q64.2656,328.6875 65.5859,327.0313 Q66.9063,325.375 69.4063,325.375 Q70.1094,325.375 70.7578,325.5313 Q71.4063,325.6875 71.9688,325.9844 L71.9688,328.7031 Q71.3438,328.125 70.75,327.8516 Q70.1563,327.5781 69.5313,327.5781 Q68.1875,327.5781 67.5,328.6484 Q66.8125,329.7188 66.8125,331.8125 Q66.8125,333.9063 67.5,334.9766 Q68.1875,336.0469 69.5313,336.0469 Q70.1563,336.0469 70.75,335.7734 Q71.3438,335.5 71.9688,334.9219 L71.9688,337.6406 Z "/><text fill="#000000" font-family="sans-serif" font-size="12" lengthAdjust="spacingAndGlyphs" textLength="31" x="83" y="336.1543">Error</text><line style="stroke: #A80036; stroke-width: 1.5;" x1="55" x2="116" y1="348" y2="348"/><line style="stroke: #A80036; stroke-width: 1.5;" x1="55" x2="116" y1="356" y2="356"/><!--class SecurityException--><rect fill="#FEFECE" filter="url(#fj5zudv)" height="60.8047" style="stroke: #A80036; stroke-width: 1.5;" width="159" x="6" y="40.5"/><ellipse cx="28.2" cy="56.5" fill="#ADD1B2" rx="11" ry="11" style="stroke: #A80036; stroke-width: 1.0;"/><path d="M31.1688,62.1406 Q30.5906,62.4375 29.95,62.5859 Q29.3094,62.7344 28.6063,62.7344 Q26.1063,62.7344 24.7859,61.0859 Q23.4656,59.4375 23.4656,56.3125 Q23.4656,53.1875 24.7859,51.5313 Q26.1063,49.875 28.6063,49.875 Q29.3094,49.875 29.9578,50.0313 Q30.6063,50.1875 31.1688,50.4844 L31.1688,53.2031 Q30.5438,52.625 29.95,52.3516 Q29.3563,52.0781 28.7313,52.0781 Q27.3875,52.0781 26.7,53.1484 Q26.0125,54.2188 26.0125,56.3125 Q26.0125,58.4063 26.7,59.4766 Q27.3875,60.5469 28.7313,60.5469 Q29.3563,60.5469 29.95,60.2734 Q30.5438,60 31.1688,59.4219 L31.1688,62.1406 Z "/><text fill="#000000" font-family="sans-serif" font-size="12" lengthAdjust="spacingAndGlyphs" textLength="111" x="43.8" y="60.6543">SecurityException</text><line style="stroke: #A80036; stroke-width: 1.5;" x1="7" x2="164" y1="72.5" y2="72.5"/><line style="stroke: #A80036; stroke-width: 1.5;" x1="7" x2="164" y1="80.5" y2="80.5"/><ellipse cx="17" cy="92.4023" fill="#84BE84" rx="3" ry="3" style="stroke: #038048; stroke-width: 1.0;"/><text fill="#000000" font-family="sans-serif" font-size="11" lengthAdjust="spacingAndGlyphs" textLength="133" x="26" y="94.7104">void constructor(string)</text><!--class Util--><rect fill="#FEFECE" filter="url(#fj5zudv)" height="99.2188" style="stroke: #A80036; stroke-width: 1.5;" width="391" x="200" y="21.5"/><ellipse cx="381.25" cy="37.5" fill="#ADD1B2" rx="11" ry="11" style="stroke: #A80036; stroke-width: 1.0;"/><path d="M384.2188,43.1406 Q383.6406,43.4375 383,43.5859 Q382.3594,43.7344 381.6563,43.7344 Q379.1563,43.7344 377.8359,42.0859 Q376.5156,40.4375 376.5156,37.3125 Q376.5156,34.1875 377.8359,32.5313 Q379.1563,30.875 381.6563,30.875 Q382.3594,30.875 383.0078,31.0313 Q383.6563,31.1875 384.2188,31.4844 L384.2188,34.2031 Q383.5938,33.625 383,33.3516 Q382.4063,33.0781 381.7813,33.0781 Q380.4375,33.0781 379.75,34.1484 Q379.0625,35.2188 379.0625,37.3125 Q379.0625,39.4063 379.75,40.4766 Q380.4375,41.5469 381.7813,41.5469 Q382.4063,41.5469 383,41.2734 Q383.5938,41 384.2188,40.4219 L384.2188,43.1406 Z "/><text fill="#000000" font-family="sans-serif" font-size="12" lengthAdjust="spacingAndGlyphs" textLength="20" x="401.75" y="41.6543">Util</text><line style="stroke: #A80036; stroke-width: 1.5;" x1="201" x2="590" y1="53.5" y2="53.5"/><line style="stroke: #A80036; stroke-width: 1.5;" x1="201" x2="590" y1="61.5" y2="61.5"/><ellipse cx="211" cy="73.4023" fill="#84BE84" rx="3" ry="3" style="stroke: #038048; stroke-width: 1.0;"/><text fill="#000000" font-family="sans-serif" font-size="11" lengthAdjust="spacingAndGlyphs" textLength="203" x="220" y="75.7104">void securityCheck(SecurityContext)</text><ellipse cx="211" cy="86.207" fill="#84BE84" rx="3" ry="3" style="stroke: #038048; stroke-width: 1.0;"/><text fill="#000000" font-family="sans-serif" font-size="11" lengthAdjust="spacingAndGlyphs" textLength="323" x="220" y="88.5151">Promise queryChainCode(SecurityContext,string,string[])</text><ellipse cx="211" cy="99.0117" fill="#84BE84" rx="3" ry="3" style="stroke: #038048; stroke-width: 1.0;"/><text fill="#000000" font-family="sans-serif" font-size="11" lengthAdjust="spacingAndGlyphs" textLength="327" x="220" y="101.3198">Promise invokeChainCode(SecurityContext,string,string[])</text><ellipse cx="211" cy="111.8164" fill="#84BE84" rx="3" ry="3" style="stroke: #038048; stroke-width: 1.0;"/><text fill="#000000" font-family="sans-serif" font-size="11" lengthAdjust="spacingAndGlyphs" textLength="365" x="220" y="114.1245">Promise deployChainCode(SecurityContext,string,string,string[])</text><!--class Registry--><rect fill="#FEFECE" filter="url(#fj5zudv)" height="124.8281" style="stroke: #A80036; stroke-width: 1.5;" width="384" x="626.25" y="8.5"/><ellipse cx="789" cy="24.5" fill="#ADD1B2" rx="11" ry="11" style="stroke: #A80036; stroke-width: 1.0;"/><path d="M791.9688,30.1406 Q791.3906,30.4375 790.75,30.5859 Q790.1094,30.7344 789.4063,30.7344 Q786.9063,30.7344 785.5859,29.0859 Q784.2656,27.4375 784.2656,24.3125 Q784.2656,21.1875 785.5859,19.5313 Q786.9063,17.875 789.4063,17.875 Q790.1094,17.875 790.7578,18.0313 Q791.4063,18.1875 791.9688,18.4844 L791.9688,21.2031 Q791.3438,20.625 790.75,20.3516 Q790.1563,20.0781 789.5313,20.0781 Q788.1875,20.0781 787.5,21.1484 Q786.8125,22.2188 786.8125,24.3125 Q786.8125,26.4063 787.5,27.4766 Q788.1875,28.5469 789.5313,28.5469 Q790.1563,28.5469 790.75,28.2734 Q791.3438,28 791.9688,27.4219 L791.9688,30.1406 Z "/><text fill="#000000" font-family="sans-serif" font-size="12" lengthAdjust="spacingAndGlyphs" textLength="50" x="809.5" y="28.6543">Registry</text><line style="stroke: #A80036; stroke-width: 1.5;" x1="627.25" x2="1009.25" y1="40.5" y2="40.5"/><line style="stroke: #A80036; stroke-width: 1.5;" x1="627.25" x2="1009.25" y1="48.5" y2="48.5"/><ellipse cx="637.25" cy="60.4023" fill="#84BE84" rx="3" ry="3" style="stroke: #038048; stroke-width: 1.0;"/><text fill="#000000" font-family="sans-serif" font-size="11" lengthAdjust="spacingAndGlyphs" textLength="358" x="646.25" y="62.7104">void constructor(ModelManager,Factory,Serializer,string,string)</text><ellipse cx="637.25" cy="73.207" fill="#84BE84" rx="3" ry="3" style="stroke: #038048; stroke-width: 1.0;"/><text fill="#000000" font-family="sans-serif" font-size="11" lengthAdjust="spacingAndGlyphs" textLength="217" x="646.25" y="75.5151">Promise add(SecurityContext,CObject)</text><ellipse cx="637.25" cy="86.0117" fill="#84BE84" rx="3" ry="3" style="stroke: #038048; stroke-width: 1.0;"/><text fill="#000000" font-family="sans-serif" font-size="11" lengthAdjust="spacingAndGlyphs" textLength="235" x="646.25" y="88.3198">Promise update(SecurityContext,CObject)</text><ellipse cx="637.25" cy="98.8164" fill="#84BE84" rx="3" ry="3" style="stroke: #038048; stroke-width: 1.0;"/><text fill="#000000" font-family="sans-serif" font-size="11" lengthAdjust="spacingAndGlyphs" textLength="228" x="646.25" y="101.1245">Promise remove(SecurityContext,string)</text><ellipse cx="637.25" cy="111.6211" fill="#84BE84" rx="3" ry="3" style="stroke: #038048; stroke-width: 1.0;"/><text fill="#000000" font-family="sans-serif" font-size="11" lengthAdjust="spacingAndGlyphs" textLength="179" x="646.25" y="113.9292">Promise getAll(SecurityContext)</text><ellipse cx="637.25" cy="124.4258" fill="#84BE84" rx="3" ry="3" style="stroke: #038048; stroke-width: 1.0;"/><text fill="#000000" font-family="sans-serif" font-size="11" lengthAdjust="spacingAndGlyphs" textLength="203" x="646.25" y="126.7339">Promise get(SecurityContext,string)</text><path d="M85.25,255.689 C85.25,267.9011 85.25,282.2881 85.25,295.6388 " fill="none" style="stroke: #A80036; stroke-width: 1.0;"/><polygon fill="none" points="92.2501,295.9284,85.25,315.9284,78.2501,295.9283,92.2501,295.9284" style="stroke: #A80036; stroke-width: 1.0;"/><path d="M85.25,101.668 C85.25,122.278 85.25,150.239 85.25,174.228 " fill="none" style="stroke: #A80036; stroke-width: 1.0;"/><polygon fill="none" points="92.2501,174.407,85.25,194.407,78.2501,174.407,92.2501,174.407" style="stroke: #A80036; stroke-width: 1.0;"/></g></svg>