<?xml version="1.0" encoding="UTF-8" standalone="no"?><svg xmlns="http://www.w3.org/2000/svg" xmlns:xlink="http://www.w3.org/1999/xlink" contentScriptType="application/ecmascript" contentStyleType="text/css" height="180px" preserveAspectRatio="none" style="width:229px;height:180px;" version="1.1" viewBox="0 0 229 180" width="229px" zoomAndPan="magnify"><defs><filter height="300%" id="ffljelq" width="300%" x="-1" y="-1"><feGaussianBlur result="blurOut" stdDeviation="2.0"/><feColorMatrix in="blurOut" result="blurOut2" type="matrix" values="0 0 0 0 0 0 0 0 0 0 0 0 0 0 0 0 0 0 .4 0"/><feOffset dx="4.0" dy="4.0" in="blurOut2" result="blurOut3"/><feBlend in="SourceGraphic" in2="blurOut3" mode="normal"/></filter></defs><g><!--class Identifiable--><rect fill="#FEFECE" filter="url(#ffljelq)" height="163.2422" style="stroke: #A80036; stroke-width: 1.5;" width="214" x="6" y="8.5"/><ellipse cx="74.25" cy="24.5" fill="#ADD1B2" rx="11" ry="11" style="stroke: #A80036; stroke-width: 1.0;"/><path d="M77.2188,30.1406 Q76.6406,30.4375 76,30.5859 Q75.3594,30.7344 74.6563,30.7344 Q72.1563,30.7344 70.8359,29.0859 Q69.5156,27.4375 69.5156,24.3125 Q69.5156,21.1875 70.8359,19.5313 Q72.1563,17.875 74.6563,17.875 Q75.3594,17.875 76.0078,18.0313 Q76.6563,18.1875 77.2188,18.4844 L77.2188,21.2031 Q76.5938,20.625 76,20.3516 Q75.4063,20.0781 74.7813,20.0781 Q73.4375,20.0781 72.75,21.1484 Q72.0625,22.2188 72.0625,24.3125 Q72.0625,26.4063 72.75,27.4766 Q73.4375,28.5469 74.7813,28.5469 Q75.4063,28.5469 76,28.2734 Q76.5938,28 77.2188,27.4219 L77.2188,30.1406 Z "/><text fill="#000000" font-family="sans-serif" font-size="12" lengthAdjust="spacingAndGlyphs" textLength="69" x="94.75" y="28.6543">Identifiable</text><line style="stroke: #A80036; stroke-width: 1.5;" x1="7" x2="219" y1="40.5" y2="40.5"/><line style="stroke: #A80036; stroke-width: 1.5;" x1="7" x2="219" y1="48.5" y2="48.5"/><ellipse cx="17" cy="60.4023" fill="#84BE84" rx="3" ry="3" style="stroke: #038048; stroke-width: 1.0;"/><text fill="#000000" font-family="sans-serif" font-size="11" lengthAdjust="spacingAndGlyphs" textLength="113" x="26" y="62.7104">string getIdentifier()</text><ellipse cx="17" cy="73.207" fill="#84BE84" rx="3" ry="3" style="stroke: #038048; stroke-width: 1.0;"/><text fill="#000000" font-family="sans-serif" font-size="11" lengthAdjust="spacingAndGlyphs" textLength="136" x="26" y="75.5151">void setIdentifier(string)</text><ellipse cx="17" cy="86.0117" fill="#84BE84" rx="3" ry="3" style="stroke: #038048; stroke-width: 1.0;"/><text fill="#000000" font-family="sans-serif" font-size="11" lengthAdjust="spacingAndGlyphs" textLength="188" x="26" y="88.3198">string getFullyQualifiedIdentifier()</text><ellipse cx="17" cy="98.8164" fill="#84BE84" rx="3" ry="3" style="stroke: #038048; stroke-width: 1.0;"/><text fill="#000000" font-family="sans-serif" font-size="11" lengthAdjust="spacingAndGlyphs" textLength="90" x="26" y="101.1245">string getType()</text><ellipse cx="17" cy="111.6211" fill="#84BE84" rx="3" ry="3" style="stroke: #038048; stroke-width: 1.0;"/><text fill="#000000" font-family="sans-serif" font-size="11" lengthAdjust="spacingAndGlyphs" textLength="165" x="26" y="113.9292">string getFullyQualifiedType()</text><ellipse cx="17" cy="124.4258" fill="#84BE84" rx="3" ry="3" style="stroke: #038048; stroke-width: 1.0;"/><text fill="#000000" font-family="sans-serif" font-size="11" lengthAdjust="spacingAndGlyphs" textLength="130" x="26" y="126.7339">string getNamespace()</text><ellipse cx="17" cy="137.2305" fill="#84BE84" rx="3" ry="3" style="stroke: #038048; stroke-width: 1.0;"/><text fill="#000000" font-family="sans-serif" font-size="11" lengthAdjust="spacingAndGlyphs" textLength="91" x="26" y="139.5386">String toString()</text><ellipse cx="17" cy="150.0352" fill="#84BE84" rx="3" ry="3" style="stroke: #038048; stroke-width: 1.0;"/><text fill="#000000" font-family="sans-serif" font-size="11" lengthAdjust="spacingAndGlyphs" textLength="136" x="26" y="152.3433">boolean isRelationship()</text><ellipse cx="17" cy="162.8398" fill="#84BE84" rx="3" ry="3" style="stroke: #038048; stroke-width: 1.0;"/><text fill="#000000" font-family="sans-serif" font-size="11" lengthAdjust="spacingAndGlyphs" textLength="120" x="26" y="165.1479">boolean isResource()</text></g></svg>