<?xml version="1.0" encoding="UTF-8" standalone="no"?><svg xmlns="http://www.w3.org/2000/svg" xmlns:xlink="http://www.w3.org/1999/xlink" contentScriptType="application/ecmascript" contentStyleType="text/css" height="187px" preserveAspectRatio="none" style="width:132px;height:187px;" version="1.1" viewBox="0 0 132 187" width="132px" zoomAndPan="magnify"><defs><filter height="300%" id="fqlpri0" width="300%" x="-1" y="-1"><feGaussianBlur result="blurOut" stdDeviation="2.0"/><feColorMatrix in="blurOut" result="blurOut2" type="matrix" values="0 0 0 0 0 0 0 0 0 0 0 0 0 0 0 0 0 0 .4 0"/><feOffset dx="4.0" dy="4.0" in="blurOut2" result="blurOut3"/><feBlend in="SourceGraphic" in2="blurOut3" mode="normal"/></filter></defs><g><!--class Relationship--><rect fill="#FEFECE" filter="url(#fqlpri0)" height="60.8047" style="stroke: #A80036; stroke-width: 1.5;" width="117" x="6" y="8.5"/><ellipse cx="24.6" cy="24.5" fill="#ADD1B2" rx="11" ry="11" style="stroke: #A80036; stroke-width: 1.0;"/><path d="M27.5688,30.1406 Q26.9906,30.4375 26.35,30.5859 Q25.7094,30.7344 25.0063,30.7344 Q22.5063,30.7344 21.1859,29.0859 Q19.8656,27.4375 19.8656,24.3125 Q19.8656,21.1875 21.1859,19.5313 Q22.5063,17.875 25.0063,17.875 Q25.7094,17.875 26.3578,18.0313 Q27.0063,18.1875 27.5688,18.4844 L27.5688,21.2031 Q26.9438,20.625 26.35,20.3516 Q25.7563,20.0781 25.1313,20.0781 Q23.7875,20.0781 23.1,21.1484 Q22.4125,22.2188 22.4125,24.3125 Q22.4125,26.4063 23.1,27.4766 Q23.7875,28.5469 25.1313,28.5469 Q25.7563,28.5469 26.35,28.2734 Q26.9438,28 27.5688,27.4219 L27.5688,30.1406 Z "/><text fill="#000000" font-family="sans-serif" font-size="12" lengthAdjust="spacingAndGlyphs" textLength="77" x="39.4" y="28.6543">Relationship</text><line style="stroke: #A80036; stroke-width: 1.5;" x1="7" x2="122" y1="40.5" y2="40.5"/><line style="stroke: #A80036; stroke-width: 1.5;" x1="7" x2="122" y1="48.5" y2="48.5"/><ellipse cx="17" cy="60.4023" fill="#84BE84" rx="3" ry="3" style="stroke: #038048; stroke-width: 1.0;"/><text fill="#000000" font-family="sans-serif" font-size="11" lengthAdjust="spacingAndGlyphs" textLength="91" x="26" y="62.7104">String toString()</text><!--class Identifiable--><rect fill="#FEFECE" filter="url(#fqlpri0)" height="48" style="stroke: #A80036; stroke-width: 1.5;" width="101" x="14" y="130"/><ellipse cx="29" cy="146" fill="#ADD1B2" rx="11" ry="11" style="stroke: #A80036; stroke-width: 1.0;"/><path d="M31.9688,151.6406 Q31.3906,151.9375 30.75,152.0859 Q30.1094,152.2344 29.4063,152.2344 Q26.9063,152.2344 25.5859,150.5859 Q24.2656,148.9375 24.2656,145.8125 Q24.2656,142.6875 25.5859,141.0313 Q26.9063,139.375 29.4063,139.375 Q30.1094,139.375 30.7578,139.5313 Q31.4063,139.6875 31.9688,139.9844 L31.9688,142.7031 Q31.3438,142.125 30.75,141.8516 Q30.1563,141.5781 29.5313,141.5781 Q28.1875,141.5781 27.5,142.6484 Q26.8125,143.7188 26.8125,145.8125 Q26.8125,147.9063 27.5,148.9766 Q28.1875,150.0469 29.5313,150.0469 Q30.1563,150.0469 30.75,149.7734 Q31.3438,149.5 31.9688,148.9219 L31.9688,151.6406 Z "/><text fill="#000000" font-family="sans-serif" font-size="12" lengthAdjust="spacingAndGlyphs" textLength="69" x="43" y="150.1543">Identifiable</text><line style="stroke: #A80036; stroke-width: 1.5;" x1="15" x2="114" y1="162" y2="162"/><line style="stroke: #A80036; stroke-width: 1.5;" x1="15" x2="114" y1="170" y2="170"/><path d="M64.25,69.689 C64.25,81.9011 64.25,96.2881 64.25,109.6388 " fill="none" style="stroke: #A80036; stroke-width: 1.0;"/><polygon fill="none" points="71.2501,109.9284,64.25,129.9284,57.2501,109.9283,71.2501,109.9284" style="stroke: #A80036; stroke-width: 1.0;"/></g></svg>