<?xml version="1.0" encoding="UTF-8" standalone="no"?><svg xmlns="http://www.w3.org/2000/svg" xmlns:xlink="http://www.w3.org/1999/xlink" contentScriptType="application/ecmascript" contentStyleType="text/css" height="225px" preserveAspectRatio="none" style="width:243px;height:225px;" version="1.1" viewBox="0 0 243 225" width="243px" zoomAndPan="magnify"><defs><filter height="300%" id="fpgh2jc" width="300%" x="-1" y="-1"><feGaussianBlur result="blurOut" stdDeviation="2.0"/><feColorMatrix in="blurOut" result="blurOut2" type="matrix" values="0 0 0 0 0 0 0 0 0 0 0 0 0 0 0 0 0 0 .4 0"/><feOffset dx="4.0" dy="4.0" in="blurOut2" result="blurOut3"/><feBlend in="SourceGraphic" in2="blurOut3" mode="normal"/></filter></defs><g><!--class Resource--><rect fill="#FEFECE" filter="url(#fpgh2jc)" height="99.2188" style="stroke: #A80036; stroke-width: 1.5;" width="228" x="6" y="8.5"/><ellipse cx="86.25" cy="24.5" fill="#ADD1B2" rx="11" ry="11" style="stroke: #A80036; stroke-width: 1.0;"/><path d="M89.2188,30.1406 Q88.6406,30.4375 88,30.5859 Q87.3594,30.7344 86.6563,30.7344 Q84.1563,30.7344 82.8359,29.0859 Q81.5156,27.4375 81.5156,24.3125 Q81.5156,21.1875 82.8359,19.5313 Q84.1563,17.875 86.6563,17.875 Q87.3594,17.875 88.0078,18.0313 Q88.6563,18.1875 89.2188,18.4844 L89.2188,21.2031 Q88.5938,20.625 88,20.3516 Q87.4063,20.0781 86.7813,20.0781 Q85.4375,20.0781 84.75,21.1484 Q84.0625,22.2188 84.0625,24.3125 Q84.0625,26.4063 84.75,27.4766 Q85.4375,28.5469 86.7813,28.5469 Q87.4063,28.5469 88,28.2734 Q88.5938,28 89.2188,27.4219 L89.2188,30.1406 Z "/><text fill="#000000" font-family="sans-serif" font-size="12" lengthAdjust="spacingAndGlyphs" textLength="59" x="106.75" y="28.6543">Resource</text><line style="stroke: #A80036; stroke-width: 1.5;" x1="7" x2="233" y1="40.5" y2="40.5"/><line style="stroke: #A80036; stroke-width: 1.5;" x1="7" x2="233" y1="48.5" y2="48.5"/><ellipse cx="17" cy="60.4023" fill="#84BE84" rx="3" ry="3" style="stroke: #038048; stroke-width: 1.0;"/><text fill="#000000" font-family="sans-serif" font-size="11" lengthAdjust="spacingAndGlyphs" textLength="202" x="26" y="62.7104">void setPropertyValue(string,string)</text><ellipse cx="17" cy="73.207" fill="#84BE84" rx="3" ry="3" style="stroke: #038048; stroke-width: 1.0;"/><text fill="#000000" font-family="sans-serif" font-size="11" lengthAdjust="spacingAndGlyphs" textLength="187" x="26" y="75.5151">void addArrayValue(string,string)</text><ellipse cx="17" cy="86.0117" fill="#84BE84" rx="3" ry="3" style="stroke: #038048; stroke-width: 1.0;"/><text fill="#000000" font-family="sans-serif" font-size="11" lengthAdjust="spacingAndGlyphs" textLength="91" x="26" y="88.3198">String toString()</text><ellipse cx="17" cy="98.8164" fill="#84BE84" rx="3" ry="3" style="stroke: #038048; stroke-width: 1.0;"/><text fill="#000000" font-family="sans-serif" font-size="11" lengthAdjust="spacingAndGlyphs" textLength="120" x="26" y="101.1245">boolean isResource()</text><!--class Identifiable--><rect fill="#FEFECE" filter="url(#fpgh2jc)" height="48" style="stroke: #A80036; stroke-width: 1.5;" width="101" x="69.75" y="168"/><ellipse cx="84.75" cy="184" fill="#ADD1B2" rx="11" ry="11" style="stroke: #A80036; stroke-width: 1.0;"/><path d="M87.7188,189.6406 Q87.1406,189.9375 86.5,190.0859 Q85.8594,190.2344 85.1563,190.2344 Q82.6563,190.2344 81.3359,188.5859 Q80.0156,186.9375 80.0156,183.8125 Q80.0156,180.6875 81.3359,179.0313 Q82.6563,177.375 85.1563,177.375 Q85.8594,177.375 86.5078,177.5313 Q87.1563,177.6875 87.7188,177.9844 L87.7188,180.7031 Q87.0938,180.125 86.5,179.8516 Q85.9063,179.5781 85.2813,179.5781 Q83.9375,179.5781 83.25,180.6484 Q82.5625,181.7188 82.5625,183.8125 Q82.5625,185.9063 83.25,186.9766 Q83.9375,188.0469 85.2813,188.0469 Q85.9063,188.0469 86.5,187.7734 Q87.0938,187.5 87.7188,186.9219 L87.7188,189.6406 Z "/><text fill="#000000" font-family="sans-serif" font-size="12" lengthAdjust="spacingAndGlyphs" textLength="69" x="98.75" y="188.1543">Identifiable</text><line style="stroke: #A80036; stroke-width: 1.5;" x1="70.75" x2="169.75" y1="200" y2="200"/><line style="stroke: #A80036; stroke-width: 1.5;" x1="70.75" x2="169.75" y1="208" y2="208"/><path d="M120,107.777 C120,120.7898 120,134.763 120,147.4735 " fill="none" style="stroke: #A80036; stroke-width: 1.0;"/><polygon fill="none" points="127,147.8894,120,167.8894,113,147.8893,127,147.8894" style="stroke: #A80036; stroke-width: 1.0;"/></g></svg>