<?xml version="1.0" encoding="UTF-8" standalone="no"?><svg xmlns="http://www.w3.org/2000/svg" xmlns:xlink="http://www.w3.org/1999/xlink" contentScriptType="application/ecmascript" contentStyleType="text/css" height="429px" preserveAspectRatio="none" style="width:277px;height:429px;" version="1.1" viewBox="0 0 277 429" width="277px" zoomAndPan="magnify"><defs><filter height="300%" id="ffx9vj3" width="300%" x="-1" y="-1"><feGaussianBlur result="blurOut" stdDeviation="2.0"/><feColorMatrix in="blurOut" result="blurOut2" type="matrix" values="0 0 0 0 0 0 0 0 0 0 0 0 0 0 0 0 0 0 .4 0"/><feOffset dx="4.0" dy="4.0" in="blurOut2" result="blurOut3"/><feBlend in="SourceGraphic" in2="blurOut3" mode="normal"/></filter></defs><g><!--class Property--><rect fill="#FEFECE" filter="url(#ffx9vj3)" height="240.0703" style="stroke: #A80036; stroke-width: 1.5;" width="262" x="6" y="180"/><ellipse cx="106.25" cy="196" fill="#ADD1B2" rx="11" ry="11" style="stroke: #A80036; stroke-width: 1.0;"/><path d="M109.2188,201.6406 Q108.6406,201.9375 108,202.0859 Q107.3594,202.2344 106.6563,202.2344 Q104.1563,202.2344 102.8359,200.5859 Q101.5156,198.9375 101.5156,195.8125 Q101.5156,192.6875 102.8359,191.0313 Q104.1563,189.375 106.6563,189.375 Q107.3594,189.375 108.0078,189.5313 Q108.6563,189.6875 109.2188,189.9844 L109.2188,192.7031 Q108.5938,192.125 108,191.8516 Q107.4063,191.5781 106.7813,191.5781 Q105.4375,191.5781 104.75,192.6484 Q104.0625,193.7188 104.0625,195.8125 Q104.0625,197.9063 104.75,198.9766 Q105.4375,200.0469 106.7813,200.0469 Q107.4063,200.0469 108,199.7734 Q108.5938,199.5 109.2188,198.9219 L109.2188,201.6406 Z "/><text fill="#000000" font-family="sans-serif" font-size="12" lengthAdjust="spacingAndGlyphs" textLength="53" x="126.75" y="200.1543">Property</text><line style="stroke: #A80036; stroke-width: 1.5;" x1="7" x2="267" y1="212" y2="212"/><line style="stroke: #A80036; stroke-width: 1.5;" x1="7" x2="267" y1="220" y2="220"/><ellipse cx="17" cy="231.9023" fill="#84BE84" rx="3" ry="3" style="stroke: #038048; stroke-width: 1.0;"/><text fill="#000000" font-family="sans-serif" font-size="11" lengthAdjust="spacingAndGlyphs" textLength="236" x="26" y="234.2104">void constructor(ClassDeclaration,Object)</text><rect fill="#F24D5C" height="6" style="stroke: #C82930; stroke-width: 1.0;" width="6" x="14" y="241.707"/><text fill="#000000" font-family="sans-serif" font-size="11" lengthAdjust="spacingAndGlyphs" textLength="161" x="26" y="247.0151">Object accept(Object,Object)</text><ellipse cx="17" cy="257.5117" fill="#84BE84" rx="3" ry="3" style="stroke: #038048; stroke-width: 1.0;"/><text fill="#000000" font-family="sans-serif" font-size="11" lengthAdjust="spacingAndGlyphs" textLength="163" x="26" y="259.8198">ClassDeclaration getParent()</text><rect fill="#F24D5C" height="6" style="stroke: #C82930; stroke-width: 1.0;" width="6" x="14" y="267.3164"/><text fill="#000000" font-family="sans-serif" font-size="11" lengthAdjust="spacingAndGlyphs" textLength="81" x="26" y="272.6245">void process()</text><rect fill="#F24D5C" height="6" style="stroke: #C82930; stroke-width: 1.0;" width="6" x="14" y="280.1211"/><text fill="#000000" font-family="sans-serif" font-size="11" lengthAdjust="spacingAndGlyphs" textLength="175" x="26" y="285.4292">void validate(ClassDeclaration)</text><ellipse cx="17" cy="295.9258" fill="#84BE84" rx="3" ry="3" style="stroke: #038048; stroke-width: 1.0;"/><text fill="#000000" font-family="sans-serif" font-size="11" lengthAdjust="spacingAndGlyphs" textLength="96" x="26" y="298.2339">string getName()</text><ellipse cx="17" cy="308.7305" fill="#84BE84" rx="3" ry="3" style="stroke: #038048; stroke-width: 1.0;"/><text fill="#000000" font-family="sans-serif" font-size="11" lengthAdjust="spacingAndGlyphs" textLength="90" x="26" y="311.0386">string getType()</text><ellipse cx="17" cy="321.5352" fill="#84BE84" rx="3" ry="3" style="stroke: #038048; stroke-width: 1.0;"/><text fill="#000000" font-family="sans-serif" font-size="11" lengthAdjust="spacingAndGlyphs" textLength="114" x="26" y="323.8433">boolean isOptional()</text><ellipse cx="17" cy="334.3398" fill="#84BE84" rx="3" ry="3" style="stroke: #038048; stroke-width: 1.0;"/><text fill="#000000" font-family="sans-serif" font-size="11" lengthAdjust="spacingAndGlyphs" textLength="198" x="26" y="336.6479">string getFullyQualifiedTypeName()</text><ellipse cx="17" cy="347.1445" fill="#84BE84" rx="3" ry="3" style="stroke: #038048; stroke-width: 1.0;"/><text fill="#000000" font-family="sans-serif" font-size="11" lengthAdjust="spacingAndGlyphs" textLength="130" x="26" y="349.4526">string getNamespace()</text><ellipse cx="17" cy="359.9492" fill="#84BE84" rx="3" ry="3" style="stroke: #038048; stroke-width: 1.0;"/><text fill="#000000" font-family="sans-serif" font-size="11" lengthAdjust="spacingAndGlyphs" textLength="97" x="26" y="362.2573">boolean isArray()</text><ellipse cx="17" cy="372.7539" fill="#84BE84" rx="3" ry="3" style="stroke: #038048; stroke-width: 1.0;"/><text fill="#000000" font-family="sans-serif" font-size="11" lengthAdjust="spacingAndGlyphs" textLength="126" x="26" y="375.062">boolean isTypeEnum()</text><ellipse cx="17" cy="385.5586" fill="#84BE84" rx="3" ry="3" style="stroke: #038048; stroke-width: 1.0;"/><text fill="#000000" font-family="sans-serif" font-size="11" lengthAdjust="spacingAndGlyphs" textLength="116" x="26" y="387.8667">boolean isPrimitive()</text><ellipse cx="17" cy="398.3633" fill="#84BE84" rx="3" ry="3" style="stroke: #038048; stroke-width: 1.0;"/><text fill="#000000" font-family="sans-serif" font-size="11" lengthAdjust="spacingAndGlyphs" textLength="91" x="26" y="400.6714">String toString()</text><ellipse cx="17" cy="411.168" fill="#84BE84" rx="3" ry="3" style="stroke: #038048; stroke-width: 1.0;"/><text fill="#000000" font-family="sans-serif" font-size="11" lengthAdjust="spacingAndGlyphs" textLength="87" x="26" y="413.4761">Object toJSON()</text><!--class Field--><rect fill="#FEFECE" filter="url(#ffx9vj3)" height="112.0234" style="stroke: #A80036; stroke-width: 1.5;" width="262" x="6" y="8"/><ellipse cx="118.25" cy="24" fill="#ADD1B2" rx="11" ry="11" style="stroke: #A80036; stroke-width: 1.0;"/><path d="M121.2188,29.6406 Q120.6406,29.9375 120,30.0859 Q119.3594,30.2344 118.6563,30.2344 Q116.1563,30.2344 114.8359,28.5859 Q113.5156,26.9375 113.5156,23.8125 Q113.5156,20.6875 114.8359,19.0313 Q116.1563,17.375 118.6563,17.375 Q119.3594,17.375 120.0078,17.5313 Q120.6563,17.6875 121.2188,17.9844 L121.2188,20.7031 Q120.5938,20.125 120,19.8516 Q119.4063,19.5781 118.7813,19.5781 Q117.4375,19.5781 116.75,20.6484 Q116.0625,21.7188 116.0625,23.8125 Q116.0625,25.9063 116.75,26.9766 Q117.4375,28.0469 118.7813,28.0469 Q119.4063,28.0469 120,27.7734 Q120.5938,27.5 121.2188,26.9219 L121.2188,29.6406 Z "/><text fill="#000000" font-family="sans-serif" font-size="12" lengthAdjust="spacingAndGlyphs" textLength="29" x="138.75" y="28.1543">Field</text><line style="stroke: #A80036; stroke-width: 1.5;" x1="7" x2="267" y1="40" y2="40"/><line style="stroke: #A80036; stroke-width: 1.5;" x1="7" x2="267" y1="48" y2="48"/><ellipse cx="17" cy="59.9023" fill="#84BE84" rx="3" ry="3" style="stroke: #038048; stroke-width: 1.0;"/><text fill="#000000" font-family="sans-serif" font-size="11" lengthAdjust="spacingAndGlyphs" textLength="236" x="26" y="62.2104">void constructor(ClassDeclaration,Object)</text><rect fill="#F24D5C" height="6" style="stroke: #C82930; stroke-width: 1.0;" width="6" x="14" y="69.707"/><text fill="#000000" font-family="sans-serif" font-size="11" lengthAdjust="spacingAndGlyphs" textLength="81" x="26" y="75.0151">void process()</text><ellipse cx="17" cy="85.5117" fill="#84BE84" rx="3" ry="3" style="stroke: #038048; stroke-width: 1.0;"/><text fill="#000000" font-family="sans-serif" font-size="11" lengthAdjust="spacingAndGlyphs" textLength="113" x="26" y="87.8198">string getValidator()</text><ellipse cx="17" cy="98.3164" fill="#84BE84" rx="3" ry="3" style="stroke: #038048; stroke-width: 1.0;"/><text fill="#000000" font-family="sans-serif" font-size="11" lengthAdjust="spacingAndGlyphs" textLength="134" x="26" y="100.6245">string getDefaultValue()</text><ellipse cx="17" cy="111.1211" fill="#84BE84" rx="3" ry="3" style="stroke: #038048; stroke-width: 1.0;"/><text fill="#000000" font-family="sans-serif" font-size="11" lengthAdjust="spacingAndGlyphs" textLength="87" x="26" y="113.4292">Object toJSON()</text><path d="M137,120.158 C137,132.233 137,145.54 137,159.282 " fill="none" style="stroke: #A80036; stroke-width: 1.0;"/><polygon fill="none" points="144,159.634,137,179.634,130,159.633,144,159.634" style="stroke: #A80036; stroke-width: 1.0;"/></g></svg>