<?xml version="1.0" encoding="UTF-8" standalone="no"?><svg xmlns="http://www.w3.org/2000/svg" xmlns:xlink="http://www.w3.org/1999/xlink" contentScriptType="application/ecmascript" contentStyleType="text/css" height="142px" preserveAspectRatio="none" style="width:446px;height:142px;" version="1.1" viewBox="0 0 446 142" width="446px" zoomAndPan="magnify"><defs><filter height="300%" id="f7rqsmt" width="300%" x="-1" y="-1"><feGaussianBlur result="blurOut" stdDeviation="2.0"/><feColorMatrix in="blurOut" result="blurOut2" type="matrix" values="0 0 0 0 0 0 0 0 0 0 0 0 0 0 0 0 0 0 .4 0"/><feOffset dx="4.0" dy="4.0" in="blurOut2" result="blurOut3"/><feBlend in="SourceGraphic" in2="blurOut3" mode="normal"/></filter></defs><g><!--class globalize--><rect fill="#FEFECE" filter="url(#f7rqsmt)" height="48" style="stroke: #A80036; stroke-width: 1.5;" width="86" x="6" y="47"/><ellipse cx="21" cy="63" fill="#DA70D6" rx="11" ry="11" style="stroke: #A80036; stroke-width: 1.0;"/><path d="M20.7969,58.6719 L20.7969,62.2969 L21.7969,62.2969 Q23,62.2969 23.4844,61.8906 Q23.9688,61.4844 23.9688,60.4844 Q23.9688,59.4844 23.4844,59.0781 Q23,58.6719 21.7969,58.6719 L20.7969,58.6719 Z M18.3438,56.6094 L21.7031,56.6094 Q24.2656,56.6094 25.3906,57.5234 Q26.5156,58.4375 26.5156,60.4844 Q26.5156,62.5313 25.3906,63.4453 Q24.2656,64.3594 21.7031,64.3594 L20.7969,64.3594 L20.7969,69 L18.3438,69 L18.3438,56.6094 Z "/><text fill="#000000" font-family="sans-serif" font-size="12" lengthAdjust="spacingAndGlyphs" textLength="54" x="35" y="67.1543">globalize</text><line style="stroke: #A80036; stroke-width: 1.5;" x1="7" x2="91" y1="79" y2="79"/><line style="stroke: #A80036; stroke-width: 1.5;" x1="7" x2="91" y1="87" y2="87"/><!--class ModelUtil--><rect fill="#FEFECE" filter="url(#f7rqsmt)" height="124.8281" style="stroke: #A80036; stroke-width: 1.5;" width="310" x="127" y="8.5"/><ellipse cx="249.25" cy="24.5" fill="#ADD1B2" rx="11" ry="11" style="stroke: #A80036; stroke-width: 1.0;"/><path d="M252.2188,30.1406 Q251.6406,30.4375 251,30.5859 Q250.3594,30.7344 249.6563,30.7344 Q247.1563,30.7344 245.8359,29.0859 Q244.5156,27.4375 244.5156,24.3125 Q244.5156,21.1875 245.8359,19.5313 Q247.1563,17.875 249.6563,17.875 Q250.3594,17.875 251.0078,18.0313 Q251.6563,18.1875 252.2188,18.4844 L252.2188,21.2031 Q251.5938,20.625 251,20.3516 Q250.4063,20.0781 249.7813,20.0781 Q248.4375,20.0781 247.75,21.1484 Q247.0625,22.2188 247.0625,24.3125 Q247.0625,26.4063 247.75,27.4766 Q248.4375,28.5469 249.7813,28.5469 Q250.4063,28.5469 251,28.2734 Q251.5938,28 252.2188,27.4219 L252.2188,30.1406 Z "/><text fill="#000000" font-family="sans-serif" font-size="12" lengthAdjust="spacingAndGlyphs" textLength="57" x="269.75" y="28.6543">ModelUtil</text><line style="stroke: #A80036; stroke-width: 1.5;" x1="128" x2="436" y1="40.5" y2="40.5"/><line style="stroke: #A80036; stroke-width: 1.5;" x1="128" x2="436" y1="48.5" y2="48.5"/><rect fill="#F24D5C" height="6" style="stroke: #C82930; stroke-width: 1.0;" width="6" x="135" y="57.4023"/><text fill="#000000" font-family="sans-serif" font-size="11" lengthAdjust="spacingAndGlyphs" textLength="160" x="147" y="62.7104">string getShortName(string)</text><rect fill="#F24D5C" height="6" style="stroke: #C82930; stroke-width: 1.0;" width="6" x="135" y="70.207"/><text fill="#000000" font-family="sans-serif" font-size="11" lengthAdjust="spacingAndGlyphs" textLength="163" x="147" y="75.5151">string getNamespace(string)</text><rect fill="#F24D5C" height="6" style="stroke: #C82930; stroke-width: 1.0;" width="6" x="135" y="83.0117"/><text fill="#000000" font-family="sans-serif" font-size="11" lengthAdjust="spacingAndGlyphs" textLength="176" x="147" y="88.3198">boolean isPrimitiveType(string)</text><rect fill="#F24D5C" height="6" style="stroke: #C82930; stroke-width: 1.0;" width="6" x="135" y="95.8164"/><text fill="#000000" font-family="sans-serif" font-size="11" lengthAdjust="spacingAndGlyphs" textLength="284" x="147" y="101.1245">boolean isAssignableTo(ModelFile,string,Property)</text><rect fill="#F24D5C" height="6" style="stroke: #C82930; stroke-width: 1.0;" width="6" x="135" y="108.6211"/><text fill="#000000" font-family="sans-serif" font-size="11" lengthAdjust="spacingAndGlyphs" textLength="188" x="147" y="113.9292">string capitalizeFirstLetter(string)</text><rect fill="#F24D5C" height="6" style="stroke: #C82930; stroke-width: 1.0;" width="6" x="135" y="121.4258"/><text fill="#000000" font-family="sans-serif" font-size="11" lengthAdjust="spacingAndGlyphs" textLength="125" x="147" y="126.7339">boolean isEnum(Field)</text></g></svg>