<?xml version="1.0" encoding="UTF-8" standalone="no"?><svg xmlns="http://www.w3.org/2000/svg" xmlns:xlink="http://www.w3.org/1999/xlink" contentScriptType="application/ecmascript" contentStyleType="text/css" height="513px" preserveAspectRatio="none" style="width:987px;height:513px;" version="1.1" viewBox="0 0 987 513" width="987px" zoomAndPan="magnify"><defs><filter height="300%" id="fb3dc7t" width="300%" x="-1" y="-1"><feGaussianBlur result="blurOut" stdDeviation="2.0"/><feColorMatrix in="blurOut" result="blurOut2" type="matrix" values="0 0 0 0 0 0 0 0 0 0 0 0 0 0 0 0 0 0 .4 0"/><feOffset dx="4.0" dy="4.0" in="blurOut2" result="blurOut3"/><feBlend in="SourceGraphic" in2="blurOut3" mode="normal"/></filter></defs><g><!--class SecurityContext--><rect fill="#FEFECE" filter="url(#fb3dc7t)" height="163.2422" style="stroke: #A80036; stroke-width: 1.5;" width="238" x="82.25" y="8.5"/><ellipse cx="148" cy="24.5" fill="#ADD1B2" rx="11" ry="11" style="stroke: #A80036; stroke-width: 1.0;"/><path d="M150.9688,30.1406 Q150.3906,30.4375 149.75,30.5859 Q149.1094,30.7344 148.4063,30.7344 Q145.9063,30.7344 144.5859,29.0859 Q143.2656,27.4375 143.2656,24.3125 Q143.2656,21.1875 144.5859,19.5313 Q145.9063,17.875 148.4063,17.875 Q149.1094,17.875 149.7578,18.0313 Q150.4063,18.1875 150.9688,18.4844 L150.9688,21.2031 Q150.3438,20.625 149.75,20.3516 Q149.1563,20.0781 148.5313,20.0781 Q147.1875,20.0781 146.5,21.1484 Q145.8125,22.2188 145.8125,24.3125 Q145.8125,26.4063 146.5,27.4766 Q147.1875,28.5469 148.5313,28.5469 Q149.1563,28.5469 149.75,28.2734 Q150.3438,28 150.9688,27.4219 L150.9688,30.1406 Z "/><text fill="#000000" font-family="sans-serif" font-size="12" lengthAdjust="spacingAndGlyphs" textLength="98" x="168.5" y="28.6543">SecurityContext</text><line style="stroke: #A80036; stroke-width: 1.5;" x1="83.25" x2="319.25" y1="40.5" y2="40.5"/><line style="stroke: #A80036; stroke-width: 1.5;" x1="83.25" x2="319.25" y1="48.5" y2="48.5"/><ellipse cx="93.25" cy="60.4023" fill="#84BE84" rx="3" ry="3" style="stroke: #038048; stroke-width: 1.0;"/><text fill="#000000" font-family="sans-serif" font-size="11" lengthAdjust="spacingAndGlyphs" textLength="170" x="102.25" y="62.7104">void constructor(string,string)</text><ellipse cx="93.25" cy="73.207" fill="#84BE84" rx="3" ry="3" style="stroke: #038048; stroke-width: 1.0;"/><text fill="#000000" font-family="sans-serif" font-size="11" lengthAdjust="spacingAndGlyphs" textLength="90" x="102.25" y="75.5151">string getUser()</text><ellipse cx="93.25" cy="86.0117" fill="#84BE84" rx="3" ry="3" style="stroke: #038048; stroke-width: 1.0;"/><text fill="#000000" font-family="sans-serif" font-size="11" lengthAdjust="spacingAndGlyphs" textLength="119" x="102.25" y="88.3198">string getPassword()</text><ellipse cx="93.25" cy="98.8164" fill="#84BE84" rx="3" ry="3" style="stroke: #038048; stroke-width: 1.0;"/><text fill="#000000" font-family="sans-serif" font-size="11" lengthAdjust="spacingAndGlyphs" textLength="189" x="102.25" y="101.1245">hfc.Member getEnrolledMember()</text><ellipse cx="93.25" cy="111.6211" fill="#84BE84" rx="3" ry="3" style="stroke: #038048; stroke-width: 1.0;"/><text fill="#000000" font-family="sans-serif" font-size="11" lengthAdjust="spacingAndGlyphs" textLength="212" x="102.25" y="113.9292">void setEnrolledMember(hfc.Member)</text><ellipse cx="93.25" cy="124.4258" fill="#84BE84" rx="3" ry="3" style="stroke: #038048; stroke-width: 1.0;"/><text fill="#000000" font-family="sans-serif" font-size="11" lengthAdjust="spacingAndGlyphs" textLength="133" x="102.25" y="126.7339">string getChaincodeID()</text><ellipse cx="93.25" cy="137.2305" fill="#84BE84" rx="3" ry="3" style="stroke: #038048; stroke-width: 1.0;"/><text fill="#000000" font-family="sans-serif" font-size="11" lengthAdjust="spacingAndGlyphs" textLength="156" x="102.25" y="139.5386">void setChaincodeID(string)</text><ellipse cx="93.25" cy="150.0352" fill="#84BE84" rx="3" ry="3" style="stroke: #038048; stroke-width: 1.0;"/><text fill="#000000" font-family="sans-serif" font-size="11" lengthAdjust="spacingAndGlyphs" textLength="157" x="102.25" y="152.3433">hfc.EventHub getEventHub()</text><ellipse cx="93.25" cy="162.8398" fill="#84BE84" rx="3" ry="3" style="stroke: #038048; stroke-width: 1.0;"/><text fill="#000000" font-family="sans-serif" font-size="11" lengthAdjust="spacingAndGlyphs" textLength="180" x="102.25" y="165.1479">void setEventHub(hfc.EventHub)</text><!--class BaseException--><rect fill="#FEFECE" filter="url(#fb3dc7t)" height="60.8047" style="stroke: #A80036; stroke-width: 1.5;" width="159" x="819" y="283.5"/><ellipse cx="849.75" cy="299.5" fill="#ADD1B2" rx="11" ry="11" style="stroke: #A80036; stroke-width: 1.0;"/><path d="M852.7188,305.1406 Q852.1406,305.4375 851.5,305.5859 Q850.8594,305.7344 850.1563,305.7344 Q847.6563,305.7344 846.3359,304.0859 Q845.0156,302.4375 845.0156,299.3125 Q845.0156,296.1875 846.3359,294.5313 Q847.6563,292.875 850.1563,292.875 Q850.8594,292.875 851.5078,293.0313 Q852.1563,293.1875 852.7188,293.4844 L852.7188,296.2031 Q852.0938,295.625 851.5,295.3516 Q850.9063,295.0781 850.2813,295.0781 Q848.9375,295.0781 848.25,296.1484 Q847.5625,297.2188 847.5625,299.3125 Q847.5625,301.4063 848.25,302.4766 Q848.9375,303.5469 850.2813,303.5469 Q850.9063,303.5469 851.5,303.2734 Q852.0938,303 852.7188,302.4219 L852.7188,305.1406 Z "/><text fill="#000000" font-family="sans-serif" font-size="12" lengthAdjust="spacingAndGlyphs" textLength="92" x="867.25" y="303.6543">BaseException</text><line style="stroke: #A80036; stroke-width: 1.5;" x1="820" x2="977" y1="315.5" y2="315.5"/><line style="stroke: #A80036; stroke-width: 1.5;" x1="820" x2="977" y1="323.5" y2="323.5"/><ellipse cx="830" cy="335.4023" fill="#84BE84" rx="3" ry="3" style="stroke: #038048; stroke-width: 1.0;"/><text fill="#000000" font-family="sans-serif" font-size="11" lengthAdjust="spacingAndGlyphs" textLength="133" x="839" y="337.7104">void constructor(string)</text><!--class Error--><rect fill="#FEFECE" filter="url(#fb3dc7t)" height="48" style="stroke: #A80036; stroke-width: 1.5;" width="63" x="867" y="456"/><ellipse cx="882" cy="472" fill="#ADD1B2" rx="11" ry="11" style="stroke: #A80036; stroke-width: 1.0;"/><path d="M884.9688,477.6406 Q884.3906,477.9375 883.75,478.0859 Q883.1094,478.2344 882.4063,478.2344 Q879.9063,478.2344 878.5859,476.5859 Q877.2656,474.9375 877.2656,471.8125 Q877.2656,468.6875 878.5859,467.0313 Q879.9063,465.375 882.4063,465.375 Q883.1094,465.375 883.7578,465.5313 Q884.4063,465.6875 884.9688,465.9844 L884.9688,468.7031 Q884.3438,468.125 883.75,467.8516 Q883.1563,467.5781 882.5313,467.5781 Q881.1875,467.5781 880.5,468.6484 Q879.8125,469.7188 879.8125,471.8125 Q879.8125,473.9063 880.5,474.9766 Q881.1875,476.0469 882.5313,476.0469 Q883.1563,476.0469 883.75,475.7734 Q884.3438,475.5 884.9688,474.9219 L884.9688,477.6406 Z "/><text fill="#000000" font-family="sans-serif" font-size="12" lengthAdjust="spacingAndGlyphs" textLength="31" x="896" y="476.1543">Error</text><line style="stroke: #A80036; stroke-width: 1.5;" x1="868" x2="929" y1="488" y2="488"/><line style="stroke: #A80036; stroke-width: 1.5;" x1="868" x2="929" y1="496" y2="496"/><!--class SecurityException--><rect fill="#FEFECE" filter="url(#fb3dc7t)" height="60.8047" style="stroke: #A80036; stroke-width: 1.5;" width="159" x="819" y="59.5"/><ellipse cx="841.2" cy="75.5" fill="#ADD1B2" rx="11" ry="11" style="stroke: #A80036; stroke-width: 1.0;"/><path d="M844.1688,81.1406 Q843.5906,81.4375 842.95,81.5859 Q842.3094,81.7344 841.6063,81.7344 Q839.1063,81.7344 837.7859,80.0859 Q836.4656,78.4375 836.4656,75.3125 Q836.4656,72.1875 837.7859,70.5313 Q839.1063,68.875 841.6063,68.875 Q842.3094,68.875 842.9578,69.0313 Q843.6063,69.1875 844.1688,69.4844 L844.1688,72.2031 Q843.5438,71.625 842.95,71.3516 Q842.3563,71.0781 841.7313,71.0781 Q840.3875,71.0781 839.7,72.1484 Q839.0125,73.2188 839.0125,75.3125 Q839.0125,77.4063 839.7,78.4766 Q840.3875,79.5469 841.7313,79.5469 Q842.3563,79.5469 842.95,79.2734 Q843.5438,79 844.1688,78.4219 L844.1688,81.1406 Z "/><text fill="#000000" font-family="sans-serif" font-size="12" lengthAdjust="spacingAndGlyphs" textLength="111" x="856.8" y="79.6543">SecurityException</text><line style="stroke: #A80036; stroke-width: 1.5;" x1="820" x2="977" y1="91.5" y2="91.5"/><line style="stroke: #A80036; stroke-width: 1.5;" x1="820" x2="977" y1="99.5" y2="99.5"/><ellipse cx="830" cy="111.4023" fill="#84BE84" rx="3" ry="3" style="stroke: #038048; stroke-width: 1.0;"/><text fill="#000000" font-family="sans-serif" font-size="11" lengthAdjust="spacingAndGlyphs" textLength="133" x="839" y="113.7104">void constructor(string)</text><!--class globalize--><rect fill="#FEFECE" filter="url(#fb3dc7t)" height="48" style="stroke: #A80036; stroke-width: 1.5;" width="86" x="526.25" y="66"/><ellipse cx="541.25" cy="82" fill="#DA70D6" rx="11" ry="11" style="stroke: #A80036; stroke-width: 1.0;"/><path d="M541.0469,77.6719 L541.0469,81.2969 L542.0469,81.2969 Q543.25,81.2969 543.7344,80.8906 Q544.2188,80.4844 544.2188,79.4844 Q544.2188,78.4844 543.7344,78.0781 Q543.25,77.6719 542.0469,77.6719 L541.0469,77.6719 Z M538.5938,75.6094 L541.9531,75.6094 Q544.5156,75.6094 545.6406,76.5234 Q546.7656,77.4375 546.7656,79.4844 Q546.7656,81.5313 545.6406,82.4453 Q544.5156,83.3594 541.9531,83.3594 L541.0469,83.3594 L541.0469,88 L538.5938,88 L538.5938,75.6094 Z "/><text fill="#000000" font-family="sans-serif" font-size="12" lengthAdjust="spacingAndGlyphs" textLength="54" x="555.25" y="86.1543">globalize</text><line style="stroke: #A80036; stroke-width: 1.5;" x1="527.25" x2="611.25" y1="98" y2="98"/><line style="stroke: #A80036; stroke-width: 1.5;" x1="527.25" x2="611.25" y1="106" y2="106"/><!--class Util--><rect fill="#FEFECE" filter="url(#fb3dc7t)" height="112.0234" style="stroke: #A80036; stroke-width: 1.5;" width="391" x="6" y="258"/><ellipse cx="187.25" cy="274" fill="#ADD1B2" rx="11" ry="11" style="stroke: #A80036; stroke-width: 1.0;"/><path d="M190.2188,279.6406 Q189.6406,279.9375 189,280.0859 Q188.3594,280.2344 187.6563,280.2344 Q185.1563,280.2344 183.8359,278.5859 Q182.5156,276.9375 182.5156,273.8125 Q182.5156,270.6875 183.8359,269.0313 Q185.1563,267.375 187.6563,267.375 Q188.3594,267.375 189.0078,267.5313 Q189.6563,267.6875 190.2188,267.9844 L190.2188,270.7031 Q189.5938,270.125 189,269.8516 Q188.4063,269.5781 187.7813,269.5781 Q186.4375,269.5781 185.75,270.6484 Q185.0625,271.7188 185.0625,273.8125 Q185.0625,275.9063 185.75,276.9766 Q186.4375,278.0469 187.7813,278.0469 Q188.4063,278.0469 189,277.7734 Q189.5938,277.5 190.2188,276.9219 L190.2188,279.6406 Z "/><text fill="#000000" font-family="sans-serif" font-size="12" lengthAdjust="spacingAndGlyphs" textLength="20" x="207.75" y="278.1543">Util</text><line style="stroke: #A80036; stroke-width: 1.5;" x1="7" x2="396" y1="290" y2="290"/><line style="stroke: #A80036; stroke-width: 1.5;" x1="7" x2="396" y1="298" y2="298"/><ellipse cx="17" cy="309.9023" fill="#84BE84" rx="3" ry="3" style="stroke: #038048; stroke-width: 1.0;"/><text fill="#000000" font-family="sans-serif" font-size="11" lengthAdjust="spacingAndGlyphs" textLength="203" x="26" y="312.2104">void securityCheck(SecurityContext)</text><ellipse cx="17" cy="322.707" fill="#84BE84" rx="3" ry="3" style="stroke: #038048; stroke-width: 1.0;"/><text fill="#000000" font-family="sans-serif" font-size="11" lengthAdjust="spacingAndGlyphs" textLength="323" x="26" y="325.0151">Promise queryChainCode(SecurityContext,string,string[])</text><ellipse cx="17" cy="335.5117" fill="#84BE84" rx="3" ry="3" style="stroke: #038048; stroke-width: 1.0;"/><text fill="#000000" font-family="sans-serif" font-size="11" lengthAdjust="spacingAndGlyphs" textLength="327" x="26" y="337.8198">Promise invokeChainCode(SecurityContext,string,string[])</text><ellipse cx="17" cy="348.3164" fill="#84BE84" rx="3" ry="3" style="stroke: #038048; stroke-width: 1.0;"/><text fill="#000000" font-family="sans-serif" font-size="11" lengthAdjust="spacingAndGlyphs" textLength="102" x="26" y="350.6245">void isNull(Object)</text><ellipse cx="17" cy="361.1211" fill="#84BE84" rx="3" ry="3" style="stroke: #038048; stroke-width: 1.0;"/><text fill="#000000" font-family="sans-serif" font-size="11" lengthAdjust="spacingAndGlyphs" textLength="365" x="26" y="363.4292">Promise deployChainCode(SecurityContext,string,string,string[])</text><!--class Registry--><rect fill="#FEFECE" filter="url(#fb3dc7t)" height="163.2422" style="stroke: #A80036; stroke-width: 1.5;" width="352" x="432.75" y="232.5"/><ellipse cx="579.5" cy="248.5" fill="#ADD1B2" rx="11" ry="11" style="stroke: #A80036; stroke-width: 1.0;"/><path d="M582.4688,254.1406 Q581.8906,254.4375 581.25,254.5859 Q580.6094,254.7344 579.9063,254.7344 Q577.4063,254.7344 576.0859,253.0859 Q574.7656,251.4375 574.7656,248.3125 Q574.7656,245.1875 576.0859,243.5313 Q577.4063,241.875 579.9063,241.875 Q580.6094,241.875 581.2578,242.0313 Q581.9063,242.1875 582.4688,242.4844 L582.4688,245.2031 Q581.8438,244.625 581.25,244.3516 Q580.6563,244.0781 580.0313,244.0781 Q578.6875,244.0781 578,245.1484 Q577.3125,246.2188 577.3125,248.3125 Q577.3125,250.4063 578,251.4766 Q578.6875,252.5469 580.0313,252.5469 Q580.6563,252.5469 581.25,252.2734 Q581.8438,252 582.4688,251.4219 L582.4688,254.1406 Z "/><text fill="#000000" font-family="sans-serif" font-size="12" lengthAdjust="spacingAndGlyphs" textLength="50" x="600" y="252.6543">Registry</text><line style="stroke: #A80036; stroke-width: 1.5;" x1="433.75" x2="783.75" y1="264.5" y2="264.5"/><line style="stroke: #A80036; stroke-width: 1.5;" x1="433.75" x2="783.75" y1="272.5" y2="272.5"/><ellipse cx="443.75" cy="284.4023" fill="#84BE84" rx="3" ry="3" style="stroke: #038048; stroke-width: 1.0;"/><text fill="#000000" font-family="sans-serif" font-size="11" lengthAdjust="spacingAndGlyphs" textLength="273" x="452.75" y="286.7104">Promise getAllRegistries(SecurityContext,string)</text><ellipse cx="443.75" cy="297.207" fill="#84BE84" rx="3" ry="3" style="stroke: #038048; stroke-width: 1.0;"/><text fill="#000000" font-family="sans-serif" font-size="11" lengthAdjust="spacingAndGlyphs" textLength="286" x="452.75" y="299.5151">Promise getRegistry(SecurityContext,string,string)</text><ellipse cx="443.75" cy="310.0117" fill="#84BE84" rx="3" ry="3" style="stroke: #038048; stroke-width: 1.0;"/><text fill="#000000" font-family="sans-serif" font-size="11" lengthAdjust="spacingAndGlyphs" textLength="326" x="452.75" y="312.3198">Promise addRegistry(SecurityContext,string,string,string)</text><ellipse cx="443.75" cy="322.8164" fill="#84BE84" rx="3" ry="3" style="stroke: #038048; stroke-width: 1.0;"/><text fill="#000000" font-family="sans-serif" font-size="11" lengthAdjust="spacingAndGlyphs" textLength="207" x="452.75" y="325.1245">void constructor(string,string,string)</text><ellipse cx="443.75" cy="335.6211" fill="#84BE84" rx="3" ry="3" style="stroke: #038048; stroke-width: 1.0;"/><text fill="#000000" font-family="sans-serif" font-size="11" lengthAdjust="spacingAndGlyphs" textLength="243" x="452.75" y="337.9292">Promise add(SecurityContext,string,string)</text><ellipse cx="443.75" cy="348.4258" fill="#84BE84" rx="3" ry="3" style="stroke: #038048; stroke-width: 1.0;"/><text fill="#000000" font-family="sans-serif" font-size="11" lengthAdjust="spacingAndGlyphs" textLength="261" x="452.75" y="350.7339">Promise update(SecurityContext,string,string)</text><ellipse cx="443.75" cy="361.2305" fill="#84BE84" rx="3" ry="3" style="stroke: #038048; stroke-width: 1.0;"/><text fill="#000000" font-family="sans-serif" font-size="11" lengthAdjust="spacingAndGlyphs" textLength="228" x="452.75" y="363.5386">Promise remove(SecurityContext,string)</text><ellipse cx="443.75" cy="374.0352" fill="#84BE84" rx="3" ry="3" style="stroke: #038048; stroke-width: 1.0;"/><text fill="#000000" font-family="sans-serif" font-size="11" lengthAdjust="spacingAndGlyphs" textLength="179" x="452.75" y="376.3433">Promise getAll(SecurityContext)</text><ellipse cx="443.75" cy="386.8398" fill="#84BE84" rx="3" ry="3" style="stroke: #038048; stroke-width: 1.0;"/><text fill="#000000" font-family="sans-serif" font-size="11" lengthAdjust="spacingAndGlyphs" textLength="203" x="452.75" y="389.1479">Promise get(SecurityContext,string)</text><path d="M898.25,344.699 C898.25,370.149 898.25,407.1359 898.25,435.8532 " fill="none" style="stroke: #A80036; stroke-width: 1.0;"/><polygon fill="none" points="905.25,435.8737,898.25,455.8737,891.25,435.8736,905.25,435.8737" style="stroke: #A80036; stroke-width: 1.0;"/><path d="M898.25,120.94 C898.25,157.371 898.25,219.415 898.25,263.109 " fill="none" style="stroke: #A80036; stroke-width: 1.0;"/><polygon fill="none" points="905.25,263.181,898.25,283.181,891.25,263.181,905.25,263.181" style="stroke: #A80036; stroke-width: 1.0;"/></g></svg>