<?xml version="1.0" encoding="UTF-8" standalone="no"?><svg xmlns="http://www.w3.org/2000/svg" xmlns:xlink="http://www.w3.org/1999/xlink" contentScriptType="application/ecmascript" contentStyleType="text/css" height="531px" preserveAspectRatio="none" style="width:1769px;height:531px;" version="1.1" viewBox="0 0 1769 531" width="1769px" zoomAndPan="magnify"><defs><filter height="300%" id="filjxl9" width="300%" x="-1" y="-1"><feGaussianBlur result="blurOut" stdDeviation="2.0"/><feColorMatrix in="blurOut" result="blurOut2" type="matrix" values="0 0 0 0 0 0 0 0 0 0 0 0 0 0 0 0 0 0 .4 0"/><feOffset dx="4.0" dy="4.0" in="blurOut2" result="blurOut3"/><feBlend in="SourceGraphic" in2="blurOut3" mode="normal"/></filter></defs><g><!--class Identifiable--><rect fill="#FEFECE" filter="url(#filjxl9)" height="176.0469" style="stroke: #A80036; stroke-width: 1.5;" width="319" x="1162" y="327"/><ellipse cx="1282.75" cy="343" fill="#ADD1B2" rx="11" ry="11" style="stroke: #A80036; stroke-width: 1.0;"/><path d="M1285.7188,348.6406 Q1285.1406,348.9375 1284.5,349.0859 Q1283.8594,349.2344 1283.1563,349.2344 Q1280.6563,349.2344 1279.3359,347.5859 Q1278.0156,345.9375 1278.0156,342.8125 Q1278.0156,339.6875 1279.3359,338.0313 Q1280.6563,336.375 1283.1563,336.375 Q1283.8594,336.375 1284.5078,336.5313 Q1285.1563,336.6875 1285.7188,336.9844 L1285.7188,339.7031 Q1285.0938,339.125 1284.5,338.8516 Q1283.9063,338.5781 1283.2813,338.5781 Q1281.9375,338.5781 1281.25,339.6484 Q1280.5625,340.7188 1280.5625,342.8125 Q1280.5625,344.9063 1281.25,345.9766 Q1281.9375,347.0469 1283.2813,347.0469 Q1283.9063,347.0469 1284.5,346.7734 Q1285.0938,346.5 1285.7188,345.9219 L1285.7188,348.6406 Z "/><text fill="#000000" font-family="sans-serif" font-size="12" lengthAdjust="spacingAndGlyphs" textLength="69" x="1303.25" y="347.1543">Identifiable</text><line style="stroke: #A80036; stroke-width: 1.5;" x1="1163" x2="1480" y1="359" y2="359"/><line style="stroke: #A80036; stroke-width: 1.5;" x1="1163" x2="1480" y1="367" y2="367"/><rect fill="#F24D5C" height="6" style="stroke: #C82930; stroke-width: 1.0;" width="6" x="1170" y="375.9023"/><text fill="#000000" font-family="sans-serif" font-size="11" lengthAdjust="spacingAndGlyphs" textLength="293" x="1182" y="381.2104">void constructor(ModelManager,string,string,string)</text><rect fill="#F24D5C" height="6" style="stroke: #C82930; stroke-width: 1.0;" width="6" x="1170" y="388.707"/><text fill="#000000" font-family="sans-serif" font-size="11" lengthAdjust="spacingAndGlyphs" textLength="161" x="1182" y="394.0151">Object accept(Object,Object)</text><rect fill="#F24D5C" height="6" style="stroke: #C82930; stroke-width: 1.0;" width="6" x="1170" y="401.5117"/><text fill="#000000" font-family="sans-serif" font-size="11" lengthAdjust="spacingAndGlyphs" textLength="194" x="1182" y="406.8198">ModelManager getModelManager()</text><ellipse cx="1173" cy="417.3164" fill="#84BE84" rx="3" ry="3" style="stroke: #038048; stroke-width: 1.0;"/><text fill="#000000" font-family="sans-serif" font-size="11" lengthAdjust="spacingAndGlyphs" textLength="113" x="1182" y="419.6245">string getIdentifier()</text><ellipse cx="1173" cy="430.1211" fill="#84BE84" rx="3" ry="3" style="stroke: #038048; stroke-width: 1.0;"/><text fill="#000000" font-family="sans-serif" font-size="11" lengthAdjust="spacingAndGlyphs" textLength="188" x="1182" y="432.4292">string getFullyQualifiedIdentifier()</text><ellipse cx="1173" cy="442.9258" fill="#84BE84" rx="3" ry="3" style="stroke: #038048; stroke-width: 1.0;"/><text fill="#000000" font-family="sans-serif" font-size="11" lengthAdjust="spacingAndGlyphs" textLength="90" x="1182" y="445.2339">string getType()</text><ellipse cx="1173" cy="455.7305" fill="#84BE84" rx="3" ry="3" style="stroke: #038048; stroke-width: 1.0;"/><text fill="#000000" font-family="sans-serif" font-size="11" lengthAdjust="spacingAndGlyphs" textLength="165" x="1182" y="458.0386">string getFullyQualifiedType()</text><ellipse cx="1173" cy="468.5352" fill="#84BE84" rx="3" ry="3" style="stroke: #038048; stroke-width: 1.0;"/><text fill="#000000" font-family="sans-serif" font-size="11" lengthAdjust="spacingAndGlyphs" textLength="130" x="1182" y="470.8433">string getNamespace()</text><ellipse cx="1173" cy="481.3398" fill="#84BE84" rx="3" ry="3" style="stroke: #038048; stroke-width: 1.0;"/><text fill="#000000" font-family="sans-serif" font-size="11" lengthAdjust="spacingAndGlyphs" textLength="91" x="1182" y="483.6479">String toString()</text><rect fill="#F24D5C" height="6" style="stroke: #C82930; stroke-width: 1.0;" width="6" x="1170" y="491.1445"/><text fill="#000000" font-family="sans-serif" font-size="11" lengthAdjust="spacingAndGlyphs" textLength="191" x="1182" y="496.4526">boolean isSystemProperty(string)</text><!--class Resource--><rect fill="#FEFECE" filter="url(#filjxl9)" height="112.0234" style="stroke: #A80036; stroke-width: 1.5;" width="319" x="1162" y="72"/><ellipse cx="1287.75" cy="88" fill="#ADD1B2" rx="11" ry="11" style="stroke: #A80036; stroke-width: 1.0;"/><path d="M1290.7188,93.6406 Q1290.1406,93.9375 1289.5,94.0859 Q1288.8594,94.2344 1288.1563,94.2344 Q1285.6563,94.2344 1284.3359,92.5859 Q1283.0156,90.9375 1283.0156,87.8125 Q1283.0156,84.6875 1284.3359,83.0313 Q1285.6563,81.375 1288.1563,81.375 Q1288.8594,81.375 1289.5078,81.5313 Q1290.1563,81.6875 1290.7188,81.9844 L1290.7188,84.7031 Q1290.0938,84.125 1289.5,83.8516 Q1288.9063,83.5781 1288.2813,83.5781 Q1286.9375,83.5781 1286.25,84.6484 Q1285.5625,85.7188 1285.5625,87.8125 Q1285.5625,89.9063 1286.25,90.9766 Q1286.9375,92.0469 1288.2813,92.0469 Q1288.9063,92.0469 1289.5,91.7734 Q1290.0938,91.5 1290.7188,90.9219 L1290.7188,93.6406 Z "/><text fill="#000000" font-family="sans-serif" font-size="12" lengthAdjust="spacingAndGlyphs" textLength="59" x="1308.25" y="92.1543">Resource</text><line style="stroke: #A80036; stroke-width: 1.5;" x1="1163" x2="1480" y1="104" y2="104"/><line style="stroke: #A80036; stroke-width: 1.5;" x1="1163" x2="1480" y1="112" y2="112"/><rect fill="#F24D5C" height="6" style="stroke: #C82930; stroke-width: 1.0;" width="6" x="1170" y="120.9023"/><text fill="#000000" font-family="sans-serif" font-size="11" lengthAdjust="spacingAndGlyphs" textLength="293" x="1182" y="126.2104">void constructor(ModelManager,string,string,string)</text><ellipse cx="1173" cy="136.707" fill="#84BE84" rx="3" ry="3" style="stroke: #038048; stroke-width: 1.0;"/><text fill="#000000" font-family="sans-serif" font-size="11" lengthAdjust="spacingAndGlyphs" textLength="202" x="1182" y="139.0151">void setPropertyValue(string,string)</text><ellipse cx="1173" cy="149.5117" fill="#84BE84" rx="3" ry="3" style="stroke: #038048; stroke-width: 1.0;"/><text fill="#000000" font-family="sans-serif" font-size="11" lengthAdjust="spacingAndGlyphs" textLength="187" x="1182" y="151.8198">void addArrayValue(string,string)</text><rect fill="#F24D5C" height="6" style="stroke: #C82930; stroke-width: 1.0;" width="6" x="1170" y="159.3164"/><text fill="#000000" font-family="sans-serif" font-size="11" lengthAdjust="spacingAndGlyphs" textLength="146" x="1182" y="164.6245">void assignFieldDefaults()</text><rect fill="#F24D5C" height="6" style="stroke: #C82930; stroke-width: 1.0;" width="6" x="1170" y="172.1211"/><text fill="#000000" font-family="sans-serif" font-size="11" lengthAdjust="spacingAndGlyphs" textLength="222" x="1182" y="177.4292">ClassDeclaration getClassDeclaration()</text><!--class globalize--><rect fill="#FEFECE" filter="url(#filjxl9)" height="48" style="stroke: #A80036; stroke-width: 1.5;" width="86" x="164.25" y="104"/><ellipse cx="179.25" cy="120" fill="#DA70D6" rx="11" ry="11" style="stroke: #A80036; stroke-width: 1.0;"/><path d="M179.0469,115.6719 L179.0469,119.2969 L180.0469,119.2969 Q181.25,119.2969 181.7344,118.8906 Q182.2188,118.4844 182.2188,117.4844 Q182.2188,116.4844 181.7344,116.0781 Q181.25,115.6719 180.0469,115.6719 L179.0469,115.6719 Z M176.5938,113.6094 L179.9531,113.6094 Q182.5156,113.6094 183.6406,114.5234 Q184.7656,115.4375 184.7656,117.4844 Q184.7656,119.5313 183.6406,120.4453 Q182.5156,121.3594 179.9531,121.3594 L179.0469,121.3594 L179.0469,126 L176.5938,126 L176.5938,113.6094 Z "/><text fill="#000000" font-family="sans-serif" font-size="12" lengthAdjust="spacingAndGlyphs" textLength="54" x="193.25" y="124.1543">globalize</text><line style="stroke: #A80036; stroke-width: 1.5;" x1="165.25" x2="249.25" y1="136" y2="136"/><line style="stroke: #A80036; stroke-width: 1.5;" x1="165.25" x2="249.25" y1="144" y2="144"/><!--class JSONGenerator--><rect fill="#FEFECE" filter="url(#filjxl9)" height="150.4375" style="stroke: #A80036; stroke-width: 1.5;" width="403" x="286" y="53"/><ellipse cx="436.75" cy="69" fill="#ADD1B2" rx="11" ry="11" style="stroke: #A80036; stroke-width: 1.0;"/><path d="M439.7188,74.6406 Q439.1406,74.9375 438.5,75.0859 Q437.8594,75.2344 437.1563,75.2344 Q434.6563,75.2344 433.3359,73.5859 Q432.0156,71.9375 432.0156,68.8125 Q432.0156,65.6875 433.3359,64.0313 Q434.6563,62.375 437.1563,62.375 Q437.8594,62.375 438.5078,62.5313 Q439.1563,62.6875 439.7188,62.9844 L439.7188,65.7031 Q439.0938,65.125 438.5,64.8516 Q437.9063,64.5781 437.2813,64.5781 Q435.9375,64.5781 435.25,65.6484 Q434.5625,66.7188 434.5625,68.8125 Q434.5625,70.9063 435.25,71.9766 Q435.9375,73.0469 437.2813,73.0469 Q437.9063,73.0469 438.5,72.7734 Q439.0938,72.5 439.7188,71.9219 L439.7188,74.6406 Z "/><text fill="#000000" font-family="sans-serif" font-size="12" lengthAdjust="spacingAndGlyphs" textLength="93" x="457.25" y="73.1543">JSONGenerator</text><line style="stroke: #A80036; stroke-width: 1.5;" x1="287" x2="688" y1="85" y2="85"/><line style="stroke: #A80036; stroke-width: 1.5;" x1="287" x2="688" y1="93" y2="93"/><rect fill="#F24D5C" height="6" style="stroke: #C82930; stroke-width: 1.0;" width="6" x="294" y="101.9023"/><text fill="#000000" font-family="sans-serif" font-size="11" lengthAdjust="spacingAndGlyphs" textLength="147" x="306" y="107.2104">Object visit(Object,Object)</text><rect fill="#F24D5C" height="6" style="stroke: #C82930; stroke-width: 1.0;" width="6" x="294" y="114.707"/><text fill="#000000" font-family="sans-serif" font-size="11" lengthAdjust="spacingAndGlyphs" textLength="303" x="306" y="120.0151">Object visitClassDeclaration(ClassDeclaration,Object)</text><rect fill="#F24D5C" height="6" style="stroke: #C82930; stroke-width: 1.0;" width="6" x="294" y="127.5117"/><text fill="#000000" font-family="sans-serif" font-size="11" lengthAdjust="spacingAndGlyphs" textLength="163" x="306" y="132.8198">Object visitField(Field,Object)</text><ellipse cx="297" cy="143.3164" fill="#84BE84" rx="3" ry="3" style="stroke: #038048; stroke-width: 1.0;"/><text fill="#000000" font-family="sans-serif" font-size="11" lengthAdjust="spacingAndGlyphs" textLength="195" x="306" y="145.6245">string convertToJSON(Field,Object)</text><rect fill="#F24D5C" height="6" style="stroke: #C82930; stroke-width: 1.0;" width="6" x="294" y="153.1211"/><text fill="#000000" font-family="sans-serif" font-size="11" lengthAdjust="spacingAndGlyphs" textLength="303" x="306" y="158.4292">Object visitEnumDeclaration(EnumDeclaration,Object)</text><rect fill="#F24D5C" height="6" style="stroke: #C82930; stroke-width: 1.0;" width="6" x="294" y="165.9258"/><text fill="#000000" font-family="sans-serif" font-size="11" lengthAdjust="spacingAndGlyphs" textLength="334" x="306" y="171.2339">Object visitEnumValueDeclaration(EnumDeclaration,Object)</text><rect fill="#F24D5C" height="6" style="stroke: #C82930; stroke-width: 1.0;" width="6" x="294" y="178.7305"/><text fill="#000000" font-family="sans-serif" font-size="11" lengthAdjust="spacingAndGlyphs" textLength="377" x="306" y="184.0386">Object visitRelationshipDeclaration(RelationshipDeclaration,Object)</text><ellipse cx="297" cy="194.5352" fill="#84BE84" rx="3" ry="3" style="stroke: #038048; stroke-width: 1.0;"/><text fill="#000000" font-family="sans-serif" font-size="11" lengthAdjust="spacingAndGlyphs" textLength="352" x="306" y="196.8433">void getRelationshipText(RelationshipDeclaration,Relationship)</text><!--class JSONPopulator--><rect fill="#FEFECE" filter="url(#filjxl9)" height="124.8281" style="stroke: #A80036; stroke-width: 1.5;" width="403" x="724" y="65.5"/><ellipse cx="876.25" cy="81.5" fill="#ADD1B2" rx="11" ry="11" style="stroke: #A80036; stroke-width: 1.0;"/><path d="M879.2188,87.1406 Q878.6406,87.4375 878,87.5859 Q877.3594,87.7344 876.6563,87.7344 Q874.1563,87.7344 872.8359,86.0859 Q871.5156,84.4375 871.5156,81.3125 Q871.5156,78.1875 872.8359,76.5313 Q874.1563,74.875 876.6563,74.875 Q877.3594,74.875 878.0078,75.0313 Q878.6563,75.1875 879.2188,75.4844 L879.2188,78.2031 Q878.5938,77.625 878,77.3516 Q877.4063,77.0781 876.7813,77.0781 Q875.4375,77.0781 874.75,78.1484 Q874.0625,79.2188 874.0625,81.3125 Q874.0625,83.4063 874.75,84.4766 Q875.4375,85.5469 876.7813,85.5469 Q877.4063,85.5469 878,85.2734 Q878.5938,85 879.2188,84.4219 L879.2188,87.1406 Z "/><text fill="#000000" font-family="sans-serif" font-size="12" lengthAdjust="spacingAndGlyphs" textLength="90" x="896.75" y="85.6543">JSONPopulator</text><line style="stroke: #A80036; stroke-width: 1.5;" x1="725" x2="1126" y1="97.5" y2="97.5"/><line style="stroke: #A80036; stroke-width: 1.5;" x1="725" x2="1126" y1="105.5" y2="105.5"/><rect fill="#F24D5C" height="6" style="stroke: #C82930; stroke-width: 1.0;" width="6" x="732" y="114.4023"/><text fill="#000000" font-family="sans-serif" font-size="11" lengthAdjust="spacingAndGlyphs" textLength="147" x="744" y="119.7104">Object visit(Object,Object)</text><rect fill="#F24D5C" height="6" style="stroke: #C82930; stroke-width: 1.0;" width="6" x="732" y="127.207"/><text fill="#000000" font-family="sans-serif" font-size="11" lengthAdjust="spacingAndGlyphs" textLength="303" x="744" y="132.5151">Object visitClassDeclaration(ClassDeclaration,Object)</text><rect fill="#F24D5C" height="6" style="stroke: #C82930; stroke-width: 1.0;" width="6" x="732" y="140.0117"/><text fill="#000000" font-family="sans-serif" font-size="11" lengthAdjust="spacingAndGlyphs" textLength="163" x="744" y="145.3198">Object visitField(Field,Object)</text><ellipse cx="735" cy="155.8164" fill="#84BE84" rx="3" ry="3" style="stroke: #038048; stroke-width: 1.0;"/><text fill="#000000" font-family="sans-serif" font-size="11" lengthAdjust="spacingAndGlyphs" textLength="221" x="744" y="158.1245">Object convertItem(Field,Object,Object)</text><ellipse cx="735" cy="168.6211" fill="#84BE84" rx="3" ry="3" style="stroke: #038048; stroke-width: 1.0;"/><text fill="#000000" font-family="sans-serif" font-size="11" lengthAdjust="spacingAndGlyphs" textLength="203" x="744" y="170.9292">string convertToObject(Field,Object)</text><rect fill="#F24D5C" height="6" style="stroke: #C82930; stroke-width: 1.0;" width="6" x="732" y="178.4258"/><text fill="#000000" font-family="sans-serif" font-size="11" lengthAdjust="spacingAndGlyphs" textLength="377" x="744" y="183.7339">Object visitRelationshipDeclaration(RelationshipDeclaration,Object)</text><!--class ResourceValidator--><rect fill="#FEFECE" filter="url(#filjxl9)" height="214.4609" style="stroke: #A80036; stroke-width: 1.5;" width="403" x="6" y="308"/><ellipse cx="145.75" cy="324" fill="#ADD1B2" rx="11" ry="11" style="stroke: #A80036; stroke-width: 1.0;"/><path d="M148.7188,329.6406 Q148.1406,329.9375 147.5,330.0859 Q146.8594,330.2344 146.1563,330.2344 Q143.6563,330.2344 142.3359,328.5859 Q141.0156,326.9375 141.0156,323.8125 Q141.0156,320.6875 142.3359,319.0313 Q143.6563,317.375 146.1563,317.375 Q146.8594,317.375 147.5078,317.5313 Q148.1563,317.6875 148.7188,317.9844 L148.7188,320.7031 Q148.0938,320.125 147.5,319.8516 Q146.9063,319.5781 146.2813,319.5781 Q144.9375,319.5781 144.25,320.6484 Q143.5625,321.7188 143.5625,323.8125 Q143.5625,325.9063 144.25,326.9766 Q144.9375,328.0469 146.2813,328.0469 Q146.9063,328.0469 147.5,327.7734 Q148.0938,327.5 148.7188,326.9219 L148.7188,329.6406 Z "/><text fill="#000000" font-family="sans-serif" font-size="12" lengthAdjust="spacingAndGlyphs" textLength="115" x="166.25" y="328.1543">ResourceValidator</text><line style="stroke: #A80036; stroke-width: 1.5;" x1="7" x2="408" y1="340" y2="340"/><line style="stroke: #A80036; stroke-width: 1.5;" x1="7" x2="408" y1="348" y2="348"/><rect fill="#F24D5C" height="6" style="stroke: #C82930; stroke-width: 1.0;" width="6" x="14" y="356.9023"/><text fill="#000000" font-family="sans-serif" font-size="11" lengthAdjust="spacingAndGlyphs" textLength="147" x="26" y="362.2104">Object visit(Object,Object)</text><rect fill="#F24D5C" height="6" style="stroke: #C82930; stroke-width: 1.0;" width="6" x="14" y="369.707"/><text fill="#000000" font-family="sans-serif" font-size="11" lengthAdjust="spacingAndGlyphs" textLength="303" x="26" y="375.0151">Object visitEnumDeclaration(EnumDeclaration,Object)</text><rect fill="#F24D5C" height="6" style="stroke: #C82930; stroke-width: 1.0;" width="6" x="14" y="382.5117"/><text fill="#000000" font-family="sans-serif" font-size="11" lengthAdjust="spacingAndGlyphs" textLength="303" x="26" y="387.8198">Object visitClassDeclaration(ClassDeclaration,Object)</text><rect fill="#F24D5C" height="6" style="stroke: #C82930; stroke-width: 1.0;" width="6" x="14" y="395.3164"/><text fill="#000000" font-family="sans-serif" font-size="11" lengthAdjust="spacingAndGlyphs" textLength="163" x="26" y="400.6245">Object visitField(Field,Object)</text><rect fill="#F24D5C" height="6" style="stroke: #C82930; stroke-width: 1.0;" width="6" x="14" y="408.1211"/><text fill="#000000" font-family="sans-serif" font-size="11" lengthAdjust="spacingAndGlyphs" textLength="205" x="26" y="413.4292">void checkEnum(Object,Field,Object)</text><rect fill="#F24D5C" height="6" style="stroke: #C82930; stroke-width: 1.0;" width="6" x="14" y="420.9258"/><text fill="#000000" font-family="sans-serif" font-size="11" lengthAdjust="spacingAndGlyphs" textLength="203" x="26" y="426.2339">void checkArray(Object,Field,Object)</text><rect fill="#F24D5C" height="6" style="stroke: #C82930; stroke-width: 1.0;" width="6" x="14" y="433.7305"/><text fill="#000000" font-family="sans-serif" font-size="11" lengthAdjust="spacingAndGlyphs" textLength="198" x="26" y="439.0386">void checkItem(Object,Field,Object)</text><rect fill="#F24D5C" height="6" style="stroke: #C82930; stroke-width: 1.0;" width="6" x="14" y="446.5352"/><text fill="#000000" font-family="sans-serif" font-size="11" lengthAdjust="spacingAndGlyphs" textLength="377" x="26" y="451.8433">Object visitRelationshipDeclaration(RelationshipDeclaration,Object)</text><ellipse cx="17" cy="462.3398" fill="#84BE84" rx="3" ry="3" style="stroke: #038048; stroke-width: 1.0;"/><text fill="#000000" font-family="sans-serif" font-size="11" lengthAdjust="spacingAndGlyphs" textLength="124" x="26" y="464.6479">void log(String,String)</text><rect fill="#F24D5C" height="6" style="stroke: #C82930; stroke-width: 1.0;" width="6" x="14" y="472.1445"/><text fill="#000000" font-family="sans-serif" font-size="11" lengthAdjust="spacingAndGlyphs" textLength="261" x="26" y="477.4526">void reportModelViolation(string,string,*,Field)</text><rect fill="#F24D5C" height="6" style="stroke: #C82930; stroke-width: 1.0;" width="6" x="14" y="484.9492"/><text fill="#000000" font-family="sans-serif" font-size="11" lengthAdjust="spacingAndGlyphs" textLength="321" x="26" y="490.2573">void reportClassViolation(string,classDeclaration,Object)</text><rect fill="#F24D5C" height="6" style="stroke: #C82930; stroke-width: 1.0;" width="6" x="14" y="497.7539"/><text fill="#000000" font-family="sans-serif" font-size="11" lengthAdjust="spacingAndGlyphs" textLength="274" x="26" y="503.062">void reportMissingRequiredProperty(string,Field)</text><rect fill="#F24D5C" height="6" style="stroke: #C82930; stroke-width: 1.0;" width="6" x="14" y="510.5586"/><text fill="#000000" font-family="sans-serif" font-size="11" lengthAdjust="spacingAndGlyphs" textLength="269" x="26" y="515.8667">void reportInvalidEnumValue(string,Field,string)</text><!--class TypedStack--><rect fill="#FEFECE" filter="url(#filjxl9)" height="99.2188" style="stroke: #A80036; stroke-width: 1.5;" width="165" x="501" y="365.5"/><ellipse cx="543.45" cy="381.5" fill="#ADD1B2" rx="11" ry="11" style="stroke: #A80036; stroke-width: 1.0;"/><path d="M546.4188,387.1406 Q545.8406,387.4375 545.2,387.5859 Q544.5594,387.7344 543.8563,387.7344 Q541.3563,387.7344 540.0359,386.0859 Q538.7156,384.4375 538.7156,381.3125 Q538.7156,378.1875 540.0359,376.5313 Q541.3563,374.875 543.8563,374.875 Q544.5594,374.875 545.2078,375.0313 Q545.8563,375.1875 546.4188,375.4844 L546.4188,378.2031 Q545.7938,377.625 545.2,377.3516 Q544.6063,377.0781 543.9813,377.0781 Q542.6375,377.0781 541.95,378.1484 Q541.2625,379.2188 541.2625,381.3125 Q541.2625,383.4063 541.95,384.4766 Q542.6375,385.5469 543.9813,385.5469 Q544.6063,385.5469 545.2,385.2734 Q545.7938,385 546.4188,384.4219 L546.4188,387.1406 Z "/><text fill="#000000" font-family="sans-serif" font-size="12" lengthAdjust="spacingAndGlyphs" textLength="72" x="563.55" y="385.6543">TypedStack</text><line style="stroke: #A80036; stroke-width: 1.5;" x1="502" x2="665" y1="397.5" y2="397.5"/><line style="stroke: #A80036; stroke-width: 1.5;" x1="502" x2="665" y1="405.5" y2="405.5"/><ellipse cx="512" cy="417.4023" fill="#84BE84" rx="3" ry="3" style="stroke: #038048; stroke-width: 1.0;"/><text fill="#000000" font-family="sans-serif" font-size="11" lengthAdjust="spacingAndGlyphs" textLength="136" x="521" y="419.7104">void constructor(Object)</text><ellipse cx="512" cy="430.207" fill="#84BE84" rx="3" ry="3" style="stroke: #038048; stroke-width: 1.0;"/><text fill="#000000" font-family="sans-serif" font-size="11" lengthAdjust="spacingAndGlyphs" textLength="139" x="521" y="432.5151">void push(Object,Object)</text><ellipse cx="512" cy="443.0117" fill="#84BE84" rx="3" ry="3" style="stroke: #038048; stroke-width: 1.0;"/><text fill="#000000" font-family="sans-serif" font-size="11" lengthAdjust="spacingAndGlyphs" textLength="105" x="521" y="445.3198">Object pop(Object)</text><ellipse cx="512" cy="455.8164" fill="#84BE84" rx="3" ry="3" style="stroke: #038048; stroke-width: 1.0;"/><text fill="#000000" font-family="sans-serif" font-size="11" lengthAdjust="spacingAndGlyphs" textLength="63" x="521" y="458.1245">void clear()</text><!--class Writer--><rect fill="#FEFECE" filter="url(#filjxl9)" height="150.4375" style="stroke: #A80036; stroke-width: 1.5;" width="201" x="1538" y="340"/><ellipse cx="1615.75" cy="356" fill="#ADD1B2" rx="11" ry="11" style="stroke: #A80036; stroke-width: 1.0;"/><path d="M1618.7188,361.6406 Q1618.1406,361.9375 1617.5,362.0859 Q1616.8594,362.2344 1616.1563,362.2344 Q1613.6563,362.2344 1612.3359,360.5859 Q1611.0156,358.9375 1611.0156,355.8125 Q1611.0156,352.6875 1612.3359,351.0313 Q1613.6563,349.375 1616.1563,349.375 Q1616.8594,349.375 1617.5078,349.5313 Q1618.1563,349.6875 1618.7188,349.9844 L1618.7188,352.7031 Q1618.0938,352.125 1617.5,351.8516 Q1616.9063,351.5781 1616.2813,351.5781 Q1614.9375,351.5781 1614.25,352.6484 Q1613.5625,353.7188 1613.5625,355.8125 Q1613.5625,357.9063 1614.25,358.9766 Q1614.9375,360.0469 1616.2813,360.0469 Q1616.9063,360.0469 1617.5,359.7734 Q1618.0938,359.5 1618.7188,358.9219 L1618.7188,361.6406 Z "/><text fill="#000000" font-family="sans-serif" font-size="12" lengthAdjust="spacingAndGlyphs" textLength="37" x="1636.25" y="360.1543">Writer</text><line style="stroke: #A80036; stroke-width: 1.5;" x1="1539" x2="1738" y1="372" y2="372"/><line style="stroke: #A80036; stroke-width: 1.5;" x1="1539" x2="1738" y1="380" y2="380"/><ellipse cx="1549" cy="391.9023" fill="#84BE84" rx="3" ry="3" style="stroke: #038048; stroke-width: 1.0;"/><text fill="#000000" font-family="sans-serif" font-size="11" lengthAdjust="spacingAndGlyphs" textLength="100" x="1558" y="394.2104">void constructor()</text><ellipse cx="1549" cy="404.707" fill="#84BE84" rx="3" ry="3" style="stroke: #038048; stroke-width: 1.0;"/><text fill="#000000" font-family="sans-serif" font-size="11" lengthAdjust="spacingAndGlyphs" textLength="175" x="1558" y="407.0151">void writeBeforeLine(int,string)</text><ellipse cx="1549" cy="417.5117" fill="#84BE84" rx="3" ry="3" style="stroke: #038048; stroke-width: 1.0;"/><text fill="#000000" font-family="sans-serif" font-size="11" lengthAdjust="spacingAndGlyphs" textLength="137" x="1558" y="419.8198">void writeLine(int,string)</text><ellipse cx="1549" cy="430.3164" fill="#84BE84" rx="3" ry="3" style="stroke: #038048; stroke-width: 1.0;"/><text fill="#000000" font-family="sans-serif" font-size="11" lengthAdjust="spacingAndGlyphs" textLength="100" x="1558" y="432.6245">int getLineCount()</text><ellipse cx="1549" cy="443.1211" fill="#84BE84" rx="3" ry="3" style="stroke: #038048; stroke-width: 1.0;"/><text fill="#000000" font-family="sans-serif" font-size="11" lengthAdjust="spacingAndGlyphs" textLength="163" x="1558" y="445.4292">void writeIndented(int,string)</text><ellipse cx="1549" cy="455.9258" fill="#84BE84" rx="3" ry="3" style="stroke: #038048; stroke-width: 1.0;"/><text fill="#000000" font-family="sans-serif" font-size="11" lengthAdjust="spacingAndGlyphs" textLength="96" x="1558" y="458.2339">void write(string)</text><ellipse cx="1549" cy="468.7305" fill="#84BE84" rx="3" ry="3" style="stroke: #038048; stroke-width: 1.0;"/><text fill="#000000" font-family="sans-serif" font-size="11" lengthAdjust="spacingAndGlyphs" textLength="98" x="1558" y="471.0386">string getBuffer()</text><ellipse cx="1549" cy="481.5352" fill="#84BE84" rx="3" ry="3" style="stroke: #038048; stroke-width: 1.0;"/><text fill="#000000" font-family="sans-serif" font-size="11" lengthAdjust="spacingAndGlyphs" textLength="98" x="1558" y="483.8433">void clearBuffer()</text><!--class JSONWriter--><rect fill="#FEFECE" filter="url(#filjxl9)" height="240.0703" style="stroke: #A80036; stroke-width: 1.5;" width="244" x="1516.25" y="8"/><ellipse cx="1601" cy="24" fill="#ADD1B2" rx="11" ry="11" style="stroke: #A80036; stroke-width: 1.0;"/><path d="M1603.9688,29.6406 Q1603.3906,29.9375 1602.75,30.0859 Q1602.1094,30.2344 1601.4063,30.2344 Q1598.9063,30.2344 1597.5859,28.5859 Q1596.2656,26.9375 1596.2656,23.8125 Q1596.2656,20.6875 1597.5859,19.0313 Q1598.9063,17.375 1601.4063,17.375 Q1602.1094,17.375 1602.7578,17.5313 Q1603.4063,17.6875 1603.9688,17.9844 L1603.9688,20.7031 Q1603.3438,20.125 1602.75,19.8516 Q1602.1563,19.5781 1601.5313,19.5781 Q1600.1875,19.5781 1599.5,20.6484 Q1598.8125,21.7188 1598.8125,23.8125 Q1598.8125,25.9063 1599.5,26.9766 Q1600.1875,28.0469 1601.5313,28.0469 Q1602.1563,28.0469 1602.75,27.7734 Q1603.3438,27.5 1603.9688,26.9219 L1603.9688,29.6406 Z "/><text fill="#000000" font-family="sans-serif" font-size="12" lengthAdjust="spacingAndGlyphs" textLength="66" x="1621.5" y="28.1543">JSONWriter</text><line style="stroke: #A80036; stroke-width: 1.5;" x1="1517.25" x2="1759.25" y1="40" y2="40"/><line style="stroke: #A80036; stroke-width: 1.5;" x1="1517.25" x2="1759.25" y1="48" y2="48"/><ellipse cx="1527.25" cy="59.9023" fill="#84BE84" rx="3" ry="3" style="stroke: #038048; stroke-width: 1.0;"/><text fill="#000000" font-family="sans-serif" font-size="11" lengthAdjust="spacingAndGlyphs" textLength="100" x="1536.25" y="62.2104">void constructor()</text><ellipse cx="1527.25" cy="72.707" fill="#84BE84" rx="3" ry="3" style="stroke: #038048; stroke-width: 1.0;"/><text fill="#000000" font-family="sans-serif" font-size="11" lengthAdjust="spacingAndGlyphs" textLength="132" x="1536.25" y="75.0151">void openObject(string)</text><ellipse cx="1527.25" cy="85.5117" fill="#84BE84" rx="3" ry="3" style="stroke: #038048; stroke-width: 1.0;"/><text fill="#000000" font-family="sans-serif" font-size="11" lengthAdjust="spacingAndGlyphs" textLength="101" x="1536.25" y="87.8198">void closeObject()</text><ellipse cx="1527.25" cy="98.3164" fill="#84BE84" rx="3" ry="3" style="stroke: #038048; stroke-width: 1.0;"/><text fill="#000000" font-family="sans-serif" font-size="11" lengthAdjust="spacingAndGlyphs" textLength="116" x="1536.25" y="100.6245">void writeKey(string)</text><ellipse cx="1527.25" cy="111.1211" fill="#84BE84" rx="3" ry="3" style="stroke: #038048; stroke-width: 1.0;"/><text fill="#000000" font-family="sans-serif" font-size="11" lengthAdjust="spacingAndGlyphs" textLength="107" x="1536.25" y="113.4292">void writeComma()</text><ellipse cx="1527.25" cy="123.9258" fill="#84BE84" rx="3" ry="3" style="stroke: #038048; stroke-width: 1.0;"/><text fill="#000000" font-family="sans-serif" font-size="11" lengthAdjust="spacingAndGlyphs" textLength="161" x="1536.25" y="126.2339">void writeStringValue(string)</text><ellipse cx="1527.25" cy="136.7305" fill="#84BE84" rx="3" ry="3" style="stroke: #038048; stroke-width: 1.0;"/><text fill="#000000" font-family="sans-serif" font-size="11" lengthAdjust="spacingAndGlyphs" textLength="127" x="1536.25" y="139.0386">void writeValue(string)</text><ellipse cx="1527.25" cy="149.5352" fill="#84BE84" rx="3" ry="3" style="stroke: #038048; stroke-width: 1.0;"/><text fill="#000000" font-family="sans-serif" font-size="11" lengthAdjust="spacingAndGlyphs" textLength="218" x="1536.25" y="151.8433">void writeKeyStringValue(string,string)</text><ellipse cx="1527.25" cy="162.3398" fill="#84BE84" rx="3" ry="3" style="stroke: #038048; stroke-width: 1.0;"/><text fill="#000000" font-family="sans-serif" font-size="11" lengthAdjust="spacingAndGlyphs" textLength="184" x="1536.25" y="164.6479">void writeKeyValue(string,string)</text><ellipse cx="1527.25" cy="175.1445" fill="#84BE84" rx="3" ry="3" style="stroke: #038048; stroke-width: 1.0;"/><text fill="#000000" font-family="sans-serif" font-size="11" lengthAdjust="spacingAndGlyphs" textLength="191" x="1536.25" y="177.4526">void writeArrayStringValue(string)</text><ellipse cx="1527.25" cy="187.9492" fill="#84BE84" rx="3" ry="3" style="stroke: #038048; stroke-width: 1.0;"/><text fill="#000000" font-family="sans-serif" font-size="11" lengthAdjust="spacingAndGlyphs" textLength="157" x="1536.25" y="190.2573">void writeArrayValue(string)</text><ellipse cx="1527.25" cy="200.7539" fill="#84BE84" rx="3" ry="3" style="stroke: #038048; stroke-width: 1.0;"/><text fill="#000000" font-family="sans-serif" font-size="11" lengthAdjust="spacingAndGlyphs" textLength="93" x="1536.25" y="203.062">void openArray()</text><ellipse cx="1527.25" cy="213.5586" fill="#84BE84" rx="3" ry="3" style="stroke: #038048; stroke-width: 1.0;"/><text fill="#000000" font-family="sans-serif" font-size="11" lengthAdjust="spacingAndGlyphs" textLength="95" x="1536.25" y="215.8667">void closeArray()</text><ellipse cx="1527.25" cy="226.3633" fill="#84BE84" rx="3" ry="3" style="stroke: #038048; stroke-width: 1.0;"/><text fill="#000000" font-family="sans-serif" font-size="11" lengthAdjust="spacingAndGlyphs" textLength="91" x="1536.25" y="228.6714">String toString()</text><ellipse cx="1527.25" cy="239.168" fill="#84BE84" rx="3" ry="3" style="stroke: #038048; stroke-width: 1.0;"/><text fill="#000000" font-family="sans-serif" font-size="11" lengthAdjust="spacingAndGlyphs" textLength="124" x="1536.25" y="241.4761">void log(String,String)</text><!--class Serializer--><rect fill="#FEFECE" filter="url(#filjxl9)" height="86.4141" style="stroke: #A80036; stroke-width: 1.5;" width="253" x="816" y="372"/><ellipse cx="910.25" cy="388" fill="#ADD1B2" rx="11" ry="11" style="stroke: #A80036; stroke-width: 1.0;"/><path d="M913.2188,393.6406 Q912.6406,393.9375 912,394.0859 Q911.3594,394.2344 910.6563,394.2344 Q908.1563,394.2344 906.8359,392.5859 Q905.5156,390.9375 905.5156,387.8125 Q905.5156,384.6875 906.8359,383.0313 Q908.1563,381.375 910.6563,381.375 Q911.3594,381.375 912.0078,381.5313 Q912.6563,381.6875 913.2188,381.9844 L913.2188,384.7031 Q912.5938,384.125 912,383.8516 Q911.4063,383.5781 910.7813,383.5781 Q909.4375,383.5781 908.75,384.6484 Q908.0625,385.7188 908.0625,387.8125 Q908.0625,389.9063 908.75,390.9766 Q909.4375,392.0469 910.7813,392.0469 Q911.4063,392.0469 912,391.7734 Q912.5938,391.5 913.2188,390.9219 L913.2188,393.6406 Z "/><text fill="#000000" font-family="sans-serif" font-size="12" lengthAdjust="spacingAndGlyphs" textLength="56" x="930.75" y="392.1543">Serializer</text><line style="stroke: #A80036; stroke-width: 1.5;" x1="817" x2="1068" y1="404" y2="404"/><line style="stroke: #A80036; stroke-width: 1.5;" x1="817" x2="1068" y1="412" y2="412"/><ellipse cx="827" cy="423.9023" fill="#84BE84" rx="3" ry="3" style="stroke: #038048; stroke-width: 1.0;"/><text fill="#000000" font-family="sans-serif" font-size="11" lengthAdjust="spacingAndGlyphs" textLength="227" x="836" y="426.2104">void constructor(Factory,ModelManager)</text><ellipse cx="827" cy="436.707" fill="#84BE84" rx="3" ry="3" style="stroke: #038048; stroke-width: 1.0;"/><text fill="#000000" font-family="sans-serif" font-size="11" lengthAdjust="spacingAndGlyphs" textLength="177" x="836" y="439.0151">string toJSON(Resource,Object)</text><ellipse cx="827" cy="449.5117" fill="#84BE84" rx="3" ry="3" style="stroke: #038048; stroke-width: 1.0;"/><text fill="#000000" font-family="sans-serif" font-size="11" lengthAdjust="spacingAndGlyphs" textLength="193" x="836" y="451.8198">Resource fromJSON(string,Object)</text><path d="M1321.25,184.289 C1321.25,219.066 1321.25,265.105 1321.25,306.83 " fill="none" style="stroke: #A80036; stroke-width: 1.0;"/><polygon fill="none" points="1328.25,306.898,1321.25,326.898,1314.25,306.898,1328.25,306.898" style="stroke: #A80036; stroke-width: 1.0;"/><path d="M1638.25,248.214 C1638.25,272.16 1638.25,297.007 1638.25,319.952 " fill="none" style="stroke: #A80036; stroke-width: 1.0;"/><polygon fill="none" points="1645.25,319.98,1638.25,339.98,1631.25,319.98,1645.25,319.98" style="stroke: #A80036; stroke-width: 1.0;"/></g></svg>