<?xml version="1.0" encoding="UTF-8" standalone="no"?><svg xmlns="http://www.w3.org/2000/svg" xmlns:xlink="http://www.w3.org/1999/xlink" contentScriptType="application/ecmascript" contentStyleType="text/css" height="525px" preserveAspectRatio="none" style="width:1569px;height:525px;" version="1.1" viewBox="0 0 1569 525" width="1569px" zoomAndPan="magnify"><defs><filter height="300%" id="fkh1az0" width="300%" x="-1" y="-1"><feGaussianBlur result="blurOut" stdDeviation="2.0"/><feColorMatrix in="blurOut" result="blurOut2" type="matrix" values="0 0 0 0 0 0 0 0 0 0 0 0 0 0 0 0 0 0 .4 0"/><feOffset dx="4.0" dy="4.0" in="blurOut2" result="blurOut3"/><feBlend in="SourceGraphic" in2="blurOut3" mode="normal"/></filter></defs><g><!--class Identifiable--><rect fill="#FEFECE" filter="url(#fkh1az0)" height="176.0469" style="stroke: #A80036; stroke-width: 1.5;" width="319" x="477" y="232"/><ellipse cx="597.75" cy="248" fill="#ADD1B2" rx="11" ry="11" style="stroke: #A80036; stroke-width: 1.0;"/><path d="M600.7188,253.6406 Q600.1406,253.9375 599.5,254.0859 Q598.8594,254.2344 598.1563,254.2344 Q595.6563,254.2344 594.3359,252.5859 Q593.0156,250.9375 593.0156,247.8125 Q593.0156,244.6875 594.3359,243.0313 Q595.6563,241.375 598.1563,241.375 Q598.8594,241.375 599.5078,241.5313 Q600.1563,241.6875 600.7188,241.9844 L600.7188,244.7031 Q600.0938,244.125 599.5,243.8516 Q598.9063,243.5781 598.2813,243.5781 Q596.9375,243.5781 596.25,244.6484 Q595.5625,245.7188 595.5625,247.8125 Q595.5625,249.9063 596.25,250.9766 Q596.9375,252.0469 598.2813,252.0469 Q598.9063,252.0469 599.5,251.7734 Q600.0938,251.5 600.7188,250.9219 L600.7188,253.6406 Z "/><text fill="#000000" font-family="sans-serif" font-size="12" lengthAdjust="spacingAndGlyphs" textLength="69" x="618.25" y="252.1543">Identifiable</text><line style="stroke: #A80036; stroke-width: 1.5;" x1="478" x2="795" y1="264" y2="264"/><line style="stroke: #A80036; stroke-width: 1.5;" x1="478" x2="795" y1="272" y2="272"/><rect fill="#F24D5C" height="6" style="stroke: #C82930; stroke-width: 1.0;" width="6" x="485" y="280.9023"/><text fill="#000000" font-family="sans-serif" font-size="11" lengthAdjust="spacingAndGlyphs" textLength="293" x="497" y="286.2104">void constructor(ModelManager,string,string,string)</text><rect fill="#F24D5C" height="6" style="stroke: #C82930; stroke-width: 1.0;" width="6" x="485" y="293.707"/><text fill="#000000" font-family="sans-serif" font-size="11" lengthAdjust="spacingAndGlyphs" textLength="161" x="497" y="299.0151">Object accept(Object,Object)</text><rect fill="#F24D5C" height="6" style="stroke: #C82930; stroke-width: 1.0;" width="6" x="485" y="306.5117"/><text fill="#000000" font-family="sans-serif" font-size="11" lengthAdjust="spacingAndGlyphs" textLength="194" x="497" y="311.8198">ModelManager getModelManager()</text><ellipse cx="488" cy="322.3164" fill="#84BE84" rx="3" ry="3" style="stroke: #038048; stroke-width: 1.0;"/><text fill="#000000" font-family="sans-serif" font-size="11" lengthAdjust="spacingAndGlyphs" textLength="113" x="497" y="324.6245">string getIdentifier()</text><ellipse cx="488" cy="335.1211" fill="#84BE84" rx="3" ry="3" style="stroke: #038048; stroke-width: 1.0;"/><text fill="#000000" font-family="sans-serif" font-size="11" lengthAdjust="spacingAndGlyphs" textLength="188" x="497" y="337.4292">string getFullyQualifiedIdentifier()</text><ellipse cx="488" cy="347.9258" fill="#84BE84" rx="3" ry="3" style="stroke: #038048; stroke-width: 1.0;"/><text fill="#000000" font-family="sans-serif" font-size="11" lengthAdjust="spacingAndGlyphs" textLength="90" x="497" y="350.2339">string getType()</text><ellipse cx="488" cy="360.7305" fill="#84BE84" rx="3" ry="3" style="stroke: #038048; stroke-width: 1.0;"/><text fill="#000000" font-family="sans-serif" font-size="11" lengthAdjust="spacingAndGlyphs" textLength="165" x="497" y="363.0386">string getFullyQualifiedType()</text><ellipse cx="488" cy="373.5352" fill="#84BE84" rx="3" ry="3" style="stroke: #038048; stroke-width: 1.0;"/><text fill="#000000" font-family="sans-serif" font-size="11" lengthAdjust="spacingAndGlyphs" textLength="130" x="497" y="375.8433">string getNamespace()</text><ellipse cx="488" cy="386.3398" fill="#84BE84" rx="3" ry="3" style="stroke: #038048; stroke-width: 1.0;"/><text fill="#000000" font-family="sans-serif" font-size="11" lengthAdjust="spacingAndGlyphs" textLength="91" x="497" y="388.6479">String toString()</text><rect fill="#F24D5C" height="6" style="stroke: #C82930; stroke-width: 1.0;" width="6" x="485" y="396.1445"/><text fill="#000000" font-family="sans-serif" font-size="11" lengthAdjust="spacingAndGlyphs" textLength="191" x="497" y="401.4526">boolean isSystemProperty(string)</text><!--class Resource--><rect fill="#FEFECE" filter="url(#fkh1az0)" height="124.8281" style="stroke: #A80036; stroke-width: 1.5;" width="319" x="477" y="27.5"/><ellipse cx="602.75" cy="43.5" fill="#ADD1B2" rx="11" ry="11" style="stroke: #A80036; stroke-width: 1.0;"/><path d="M605.7188,49.1406 Q605.1406,49.4375 604.5,49.5859 Q603.8594,49.7344 603.1563,49.7344 Q600.6563,49.7344 599.3359,48.0859 Q598.0156,46.4375 598.0156,43.3125 Q598.0156,40.1875 599.3359,38.5313 Q600.6563,36.875 603.1563,36.875 Q603.8594,36.875 604.5078,37.0313 Q605.1563,37.1875 605.7188,37.4844 L605.7188,40.2031 Q605.0938,39.625 604.5,39.3516 Q603.9063,39.0781 603.2813,39.0781 Q601.9375,39.0781 601.25,40.1484 Q600.5625,41.2188 600.5625,43.3125 Q600.5625,45.4063 601.25,46.4766 Q601.9375,47.5469 603.2813,47.5469 Q603.9063,47.5469 604.5,47.2734 Q605.0938,47 605.7188,46.4219 L605.7188,49.1406 Z "/><text fill="#000000" font-family="sans-serif" font-size="12" lengthAdjust="spacingAndGlyphs" textLength="59" x="623.25" y="47.6543">Resource</text><line style="stroke: #A80036; stroke-width: 1.5;" x1="478" x2="795" y1="59.5" y2="59.5"/><line style="stroke: #A80036; stroke-width: 1.5;" x1="478" x2="795" y1="67.5" y2="67.5"/><rect fill="#F24D5C" height="6" style="stroke: #C82930; stroke-width: 1.0;" width="6" x="485" y="76.4023"/><text fill="#000000" font-family="sans-serif" font-size="11" lengthAdjust="spacingAndGlyphs" textLength="293" x="497" y="81.7104">void constructor(ModelManager,string,string,string)</text><ellipse cx="488" cy="92.207" fill="#84BE84" rx="3" ry="3" style="stroke: #038048; stroke-width: 1.0;"/><text fill="#000000" font-family="sans-serif" font-size="11" lengthAdjust="spacingAndGlyphs" textLength="202" x="497" y="94.5151">void setPropertyValue(string,string)</text><ellipse cx="488" cy="105.0117" fill="#84BE84" rx="3" ry="3" style="stroke: #038048; stroke-width: 1.0;"/><text fill="#000000" font-family="sans-serif" font-size="11" lengthAdjust="spacingAndGlyphs" textLength="187" x="497" y="107.3198">void addArrayValue(string,string)</text><rect fill="#F24D5C" height="6" style="stroke: #C82930; stroke-width: 1.0;" width="6" x="485" y="114.8164"/><text fill="#000000" font-family="sans-serif" font-size="11" lengthAdjust="spacingAndGlyphs" textLength="146" x="497" y="120.1245">void assignFieldDefaults()</text><rect fill="#F24D5C" height="6" style="stroke: #C82930; stroke-width: 1.0;" width="6" x="485" y="127.6211"/><text fill="#000000" font-family="sans-serif" font-size="11" lengthAdjust="spacingAndGlyphs" textLength="222" x="497" y="132.9292">ClassDeclaration getClassDeclaration()</text><rect fill="#F24D5C" height="6" style="stroke: #C82930; stroke-width: 1.0;" width="6" x="485" y="140.4258"/><text fill="#000000" font-family="sans-serif" font-size="11" lengthAdjust="spacingAndGlyphs" textLength="74" x="497" y="145.7339">void toJSON()</text><!--class SecurityContext--><rect fill="#FEFECE" filter="url(#fkh1az0)" height="163.2422" style="stroke: #A80036; stroke-width: 1.5;" width="238" x="82.25" y="8.5"/><ellipse cx="148" cy="24.5" fill="#ADD1B2" rx="11" ry="11" style="stroke: #A80036; stroke-width: 1.0;"/><path d="M150.9688,30.1406 Q150.3906,30.4375 149.75,30.5859 Q149.1094,30.7344 148.4063,30.7344 Q145.9063,30.7344 144.5859,29.0859 Q143.2656,27.4375 143.2656,24.3125 Q143.2656,21.1875 144.5859,19.5313 Q145.9063,17.875 148.4063,17.875 Q149.1094,17.875 149.7578,18.0313 Q150.4063,18.1875 150.9688,18.4844 L150.9688,21.2031 Q150.3438,20.625 149.75,20.3516 Q149.1563,20.0781 148.5313,20.0781 Q147.1875,20.0781 146.5,21.1484 Q145.8125,22.2188 145.8125,24.3125 Q145.8125,26.4063 146.5,27.4766 Q147.1875,28.5469 148.5313,28.5469 Q149.1563,28.5469 149.75,28.2734 Q150.3438,28 150.9688,27.4219 L150.9688,30.1406 Z "/><text fill="#000000" font-family="sans-serif" font-size="12" lengthAdjust="spacingAndGlyphs" textLength="98" x="168.5" y="28.6543">SecurityContext</text><line style="stroke: #A80036; stroke-width: 1.5;" x1="83.25" x2="319.25" y1="40.5" y2="40.5"/><line style="stroke: #A80036; stroke-width: 1.5;" x1="83.25" x2="319.25" y1="48.5" y2="48.5"/><ellipse cx="93.25" cy="60.4023" fill="#84BE84" rx="3" ry="3" style="stroke: #038048; stroke-width: 1.0;"/><text fill="#000000" font-family="sans-serif" font-size="11" lengthAdjust="spacingAndGlyphs" textLength="170" x="102.25" y="62.7104">void constructor(string,string)</text><ellipse cx="93.25" cy="73.207" fill="#84BE84" rx="3" ry="3" style="stroke: #038048; stroke-width: 1.0;"/><text fill="#000000" font-family="sans-serif" font-size="11" lengthAdjust="spacingAndGlyphs" textLength="90" x="102.25" y="75.5151">string getUser()</text><ellipse cx="93.25" cy="86.0117" fill="#84BE84" rx="3" ry="3" style="stroke: #038048; stroke-width: 1.0;"/><text fill="#000000" font-family="sans-serif" font-size="11" lengthAdjust="spacingAndGlyphs" textLength="119" x="102.25" y="88.3198">string getPassword()</text><ellipse cx="93.25" cy="98.8164" fill="#84BE84" rx="3" ry="3" style="stroke: #038048; stroke-width: 1.0;"/><text fill="#000000" font-family="sans-serif" font-size="11" lengthAdjust="spacingAndGlyphs" textLength="189" x="102.25" y="101.1245">hfc.Member getEnrolledMember()</text><ellipse cx="93.25" cy="111.6211" fill="#84BE84" rx="3" ry="3" style="stroke: #038048; stroke-width: 1.0;"/><text fill="#000000" font-family="sans-serif" font-size="11" lengthAdjust="spacingAndGlyphs" textLength="212" x="102.25" y="113.9292">void setEnrolledMember(hfc.Member)</text><ellipse cx="93.25" cy="124.4258" fill="#84BE84" rx="3" ry="3" style="stroke: #038048; stroke-width: 1.0;"/><text fill="#000000" font-family="sans-serif" font-size="11" lengthAdjust="spacingAndGlyphs" textLength="133" x="102.25" y="126.7339">string getChaincodeID()</text><ellipse cx="93.25" cy="137.2305" fill="#84BE84" rx="3" ry="3" style="stroke: #038048; stroke-width: 1.0;"/><text fill="#000000" font-family="sans-serif" font-size="11" lengthAdjust="spacingAndGlyphs" textLength="156" x="102.25" y="139.5386">void setChaincodeID(string)</text><ellipse cx="93.25" cy="150.0352" fill="#84BE84" rx="3" ry="3" style="stroke: #038048; stroke-width: 1.0;"/><text fill="#000000" font-family="sans-serif" font-size="11" lengthAdjust="spacingAndGlyphs" textLength="157" x="102.25" y="152.3433">hfc.EventHub getEventHub()</text><ellipse cx="93.25" cy="162.8398" fill="#84BE84" rx="3" ry="3" style="stroke: #038048; stroke-width: 1.0;"/><text fill="#000000" font-family="sans-serif" font-size="11" lengthAdjust="spacingAndGlyphs" textLength="180" x="102.25" y="165.1479">void setEventHub(hfc.EventHub)</text><!--class BaseException--><rect fill="#FEFECE" filter="url(#fkh1az0)" height="60.8047" style="stroke: #A80036; stroke-width: 1.5;" width="159" x="831" y="289.5"/><ellipse cx="861.75" cy="305.5" fill="#ADD1B2" rx="11" ry="11" style="stroke: #A80036; stroke-width: 1.0;"/><path d="M864.7188,311.1406 Q864.1406,311.4375 863.5,311.5859 Q862.8594,311.7344 862.1563,311.7344 Q859.6563,311.7344 858.3359,310.0859 Q857.0156,308.4375 857.0156,305.3125 Q857.0156,302.1875 858.3359,300.5313 Q859.6563,298.875 862.1563,298.875 Q862.8594,298.875 863.5078,299.0313 Q864.1563,299.1875 864.7188,299.4844 L864.7188,302.2031 Q864.0938,301.625 863.5,301.3516 Q862.9063,301.0781 862.2813,301.0781 Q860.9375,301.0781 860.25,302.1484 Q859.5625,303.2188 859.5625,305.3125 Q859.5625,307.4063 860.25,308.4766 Q860.9375,309.5469 862.2813,309.5469 Q862.9063,309.5469 863.5,309.2734 Q864.0938,309 864.7188,308.4219 L864.7188,311.1406 Z "/><text fill="#000000" font-family="sans-serif" font-size="12" lengthAdjust="spacingAndGlyphs" textLength="92" x="879.25" y="309.6543">BaseException</text><line style="stroke: #A80036; stroke-width: 1.5;" x1="832" x2="989" y1="321.5" y2="321.5"/><line style="stroke: #A80036; stroke-width: 1.5;" x1="832" x2="989" y1="329.5" y2="329.5"/><ellipse cx="842" cy="341.4023" fill="#84BE84" rx="3" ry="3" style="stroke: #038048; stroke-width: 1.0;"/><text fill="#000000" font-family="sans-serif" font-size="11" lengthAdjust="spacingAndGlyphs" textLength="133" x="851" y="343.7104">void constructor(string)</text><!--class Error--><rect fill="#FEFECE" filter="url(#fkh1az0)" height="48" style="stroke: #A80036; stroke-width: 1.5;" width="63" x="879" y="468"/><ellipse cx="894" cy="484" fill="#ADD1B2" rx="11" ry="11" style="stroke: #A80036; stroke-width: 1.0;"/><path d="M896.9688,489.6406 Q896.3906,489.9375 895.75,490.0859 Q895.1094,490.2344 894.4063,490.2344 Q891.9063,490.2344 890.5859,488.5859 Q889.2656,486.9375 889.2656,483.8125 Q889.2656,480.6875 890.5859,479.0313 Q891.9063,477.375 894.4063,477.375 Q895.1094,477.375 895.7578,477.5313 Q896.4063,477.6875 896.9688,477.9844 L896.9688,480.7031 Q896.3438,480.125 895.75,479.8516 Q895.1563,479.5781 894.5313,479.5781 Q893.1875,479.5781 892.5,480.6484 Q891.8125,481.7188 891.8125,483.8125 Q891.8125,485.9063 892.5,486.9766 Q893.1875,488.0469 894.5313,488.0469 Q895.1563,488.0469 895.75,487.7734 Q896.3438,487.5 896.9688,486.9219 L896.9688,489.6406 Z "/><text fill="#000000" font-family="sans-serif" font-size="12" lengthAdjust="spacingAndGlyphs" textLength="31" x="908" y="488.1543">Error</text><line style="stroke: #A80036; stroke-width: 1.5;" x1="880" x2="941" y1="500" y2="500"/><line style="stroke: #A80036; stroke-width: 1.5;" x1="880" x2="941" y1="508" y2="508"/><!--class SecurityException--><rect fill="#FEFECE" filter="url(#fkh1az0)" height="60.8047" style="stroke: #A80036; stroke-width: 1.5;" width="159" x="831" y="59.5"/><ellipse cx="853.2" cy="75.5" fill="#ADD1B2" rx="11" ry="11" style="stroke: #A80036; stroke-width: 1.0;"/><path d="M856.1688,81.1406 Q855.5906,81.4375 854.95,81.5859 Q854.3094,81.7344 853.6063,81.7344 Q851.1063,81.7344 849.7859,80.0859 Q848.4656,78.4375 848.4656,75.3125 Q848.4656,72.1875 849.7859,70.5313 Q851.1063,68.875 853.6063,68.875 Q854.3094,68.875 854.9578,69.0313 Q855.6063,69.1875 856.1688,69.4844 L856.1688,72.2031 Q855.5438,71.625 854.95,71.3516 Q854.3563,71.0781 853.7313,71.0781 Q852.3875,71.0781 851.7,72.1484 Q851.0125,73.2188 851.0125,75.3125 Q851.0125,77.4063 851.7,78.4766 Q852.3875,79.5469 853.7313,79.5469 Q854.3563,79.5469 854.95,79.2734 Q855.5438,79 856.1688,78.4219 L856.1688,81.1406 Z "/><text fill="#000000" font-family="sans-serif" font-size="12" lengthAdjust="spacingAndGlyphs" textLength="111" x="868.8" y="79.6543">SecurityException</text><line style="stroke: #A80036; stroke-width: 1.5;" x1="832" x2="989" y1="91.5" y2="91.5"/><line style="stroke: #A80036; stroke-width: 1.5;" x1="832" x2="989" y1="99.5" y2="99.5"/><ellipse cx="842" cy="111.4023" fill="#84BE84" rx="3" ry="3" style="stroke: #038048; stroke-width: 1.0;"/><text fill="#000000" font-family="sans-serif" font-size="11" lengthAdjust="spacingAndGlyphs" textLength="133" x="851" y="113.7104">void constructor(string)</text><!--class globalize--><rect fill="#FEFECE" filter="url(#fkh1az0)" height="48" style="stroke: #A80036; stroke-width: 1.5;" width="86" x="355.25" y="66"/><ellipse cx="370.25" cy="82" fill="#DA70D6" rx="11" ry="11" style="stroke: #A80036; stroke-width: 1.0;"/><path d="M370.0469,77.6719 L370.0469,81.2969 L371.0469,81.2969 Q372.25,81.2969 372.7344,80.8906 Q373.2188,80.4844 373.2188,79.4844 Q373.2188,78.4844 372.7344,78.0781 Q372.25,77.6719 371.0469,77.6719 L370.0469,77.6719 Z M367.5938,75.6094 L370.9531,75.6094 Q373.5156,75.6094 374.6406,76.5234 Q375.7656,77.4375 375.7656,79.4844 Q375.7656,81.5313 374.6406,82.4453 Q373.5156,83.3594 370.9531,83.3594 L370.0469,83.3594 L370.0469,88 L367.5938,88 L367.5938,75.6094 Z "/><text fill="#000000" font-family="sans-serif" font-size="12" lengthAdjust="spacingAndGlyphs" textLength="54" x="384.25" y="86.1543">globalize</text><line style="stroke: #A80036; stroke-width: 1.5;" x1="356.25" x2="440.25" y1="98" y2="98"/><line style="stroke: #A80036; stroke-width: 1.5;" x1="356.25" x2="440.25" y1="106" y2="106"/><!--class Util--><rect fill="#FEFECE" filter="url(#fkh1az0)" height="112.0234" style="stroke: #A80036; stroke-width: 1.5;" width="391" x="6" y="264"/><ellipse cx="187.25" cy="280" fill="#ADD1B2" rx="11" ry="11" style="stroke: #A80036; stroke-width: 1.0;"/><path d="M190.2188,285.6406 Q189.6406,285.9375 189,286.0859 Q188.3594,286.2344 187.6563,286.2344 Q185.1563,286.2344 183.8359,284.5859 Q182.5156,282.9375 182.5156,279.8125 Q182.5156,276.6875 183.8359,275.0313 Q185.1563,273.375 187.6563,273.375 Q188.3594,273.375 189.0078,273.5313 Q189.6563,273.6875 190.2188,273.9844 L190.2188,276.7031 Q189.5938,276.125 189,275.8516 Q188.4063,275.5781 187.7813,275.5781 Q186.4375,275.5781 185.75,276.6484 Q185.0625,277.7188 185.0625,279.8125 Q185.0625,281.9063 185.75,282.9766 Q186.4375,284.0469 187.7813,284.0469 Q188.4063,284.0469 189,283.7734 Q189.5938,283.5 190.2188,282.9219 L190.2188,285.6406 Z "/><text fill="#000000" font-family="sans-serif" font-size="12" lengthAdjust="spacingAndGlyphs" textLength="20" x="207.75" y="284.1543">Util</text><line style="stroke: #A80036; stroke-width: 1.5;" x1="7" x2="396" y1="296" y2="296"/><line style="stroke: #A80036; stroke-width: 1.5;" x1="7" x2="396" y1="304" y2="304"/><ellipse cx="17" cy="315.9023" fill="#84BE84" rx="3" ry="3" style="stroke: #038048; stroke-width: 1.0;"/><text fill="#000000" font-family="sans-serif" font-size="11" lengthAdjust="spacingAndGlyphs" textLength="203" x="26" y="318.2104">void securityCheck(SecurityContext)</text><ellipse cx="17" cy="328.707" fill="#84BE84" rx="3" ry="3" style="stroke: #038048; stroke-width: 1.0;"/><text fill="#000000" font-family="sans-serif" font-size="11" lengthAdjust="spacingAndGlyphs" textLength="323" x="26" y="331.0151">Promise queryChainCode(SecurityContext,string,string[])</text><ellipse cx="17" cy="341.5117" fill="#84BE84" rx="3" ry="3" style="stroke: #038048; stroke-width: 1.0;"/><text fill="#000000" font-family="sans-serif" font-size="11" lengthAdjust="spacingAndGlyphs" textLength="327" x="26" y="343.8198">Promise invokeChainCode(SecurityContext,string,string[])</text><ellipse cx="17" cy="354.3164" fill="#84BE84" rx="3" ry="3" style="stroke: #038048; stroke-width: 1.0;"/><text fill="#000000" font-family="sans-serif" font-size="11" lengthAdjust="spacingAndGlyphs" textLength="102" x="26" y="356.6245">void isNull(Object)</text><ellipse cx="17" cy="367.1211" fill="#84BE84" rx="3" ry="3" style="stroke: #038048; stroke-width: 1.0;"/><text fill="#000000" font-family="sans-serif" font-size="11" lengthAdjust="spacingAndGlyphs" textLength="365" x="26" y="369.4292">Promise deployChainCode(SecurityContext,string,string,string[])</text><!--class Registry--><rect fill="#FEFECE" filter="url(#fkh1az0)" height="163.2422" style="stroke: #A80036; stroke-width: 1.5;" width="352" x="1116.75" y="238.5"/><ellipse cx="1263.5" cy="254.5" fill="#ADD1B2" rx="11" ry="11" style="stroke: #A80036; stroke-width: 1.0;"/><path d="M1266.4688,260.1406 Q1265.8906,260.4375 1265.25,260.5859 Q1264.6094,260.7344 1263.9063,260.7344 Q1261.4063,260.7344 1260.0859,259.0859 Q1258.7656,257.4375 1258.7656,254.3125 Q1258.7656,251.1875 1260.0859,249.5313 Q1261.4063,247.875 1263.9063,247.875 Q1264.6094,247.875 1265.2578,248.0313 Q1265.9063,248.1875 1266.4688,248.4844 L1266.4688,251.2031 Q1265.8438,250.625 1265.25,250.3516 Q1264.6563,250.0781 1264.0313,250.0781 Q1262.6875,250.0781 1262,251.1484 Q1261.3125,252.2188 1261.3125,254.3125 Q1261.3125,256.4063 1262,257.4766 Q1262.6875,258.5469 1264.0313,258.5469 Q1264.6563,258.5469 1265.25,258.2734 Q1265.8438,258 1266.4688,257.4219 L1266.4688,260.1406 Z "/><text fill="#000000" font-family="sans-serif" font-size="12" lengthAdjust="spacingAndGlyphs" textLength="50" x="1284" y="258.6543">Registry</text><line style="stroke: #A80036; stroke-width: 1.5;" x1="1117.75" x2="1467.75" y1="270.5" y2="270.5"/><line style="stroke: #A80036; stroke-width: 1.5;" x1="1117.75" x2="1467.75" y1="278.5" y2="278.5"/><ellipse cx="1127.75" cy="290.4023" fill="#84BE84" rx="3" ry="3" style="stroke: #038048; stroke-width: 1.0;"/><text fill="#000000" font-family="sans-serif" font-size="11" lengthAdjust="spacingAndGlyphs" textLength="273" x="1136.75" y="292.7104">Promise getAllRegistries(SecurityContext,string)</text><ellipse cx="1127.75" cy="303.207" fill="#84BE84" rx="3" ry="3" style="stroke: #038048; stroke-width: 1.0;"/><text fill="#000000" font-family="sans-serif" font-size="11" lengthAdjust="spacingAndGlyphs" textLength="286" x="1136.75" y="305.5151">Promise getRegistry(SecurityContext,string,string)</text><ellipse cx="1127.75" cy="316.0117" fill="#84BE84" rx="3" ry="3" style="stroke: #038048; stroke-width: 1.0;"/><text fill="#000000" font-family="sans-serif" font-size="11" lengthAdjust="spacingAndGlyphs" textLength="326" x="1136.75" y="318.3198">Promise addRegistry(SecurityContext,string,string,string)</text><ellipse cx="1127.75" cy="328.8164" fill="#84BE84" rx="3" ry="3" style="stroke: #038048; stroke-width: 1.0;"/><text fill="#000000" font-family="sans-serif" font-size="11" lengthAdjust="spacingAndGlyphs" textLength="207" x="1136.75" y="331.1245">void constructor(string,string,string)</text><ellipse cx="1127.75" cy="341.6211" fill="#84BE84" rx="3" ry="3" style="stroke: #038048; stroke-width: 1.0;"/><text fill="#000000" font-family="sans-serif" font-size="11" lengthAdjust="spacingAndGlyphs" textLength="243" x="1136.75" y="343.9292">Promise add(SecurityContext,string,string)</text><ellipse cx="1127.75" cy="354.4258" fill="#84BE84" rx="3" ry="3" style="stroke: #038048; stroke-width: 1.0;"/><text fill="#000000" font-family="sans-serif" font-size="11" lengthAdjust="spacingAndGlyphs" textLength="261" x="1136.75" y="356.7339">Promise update(SecurityContext,string,string)</text><ellipse cx="1127.75" cy="367.2305" fill="#84BE84" rx="3" ry="3" style="stroke: #038048; stroke-width: 1.0;"/><text fill="#000000" font-family="sans-serif" font-size="11" lengthAdjust="spacingAndGlyphs" textLength="228" x="1136.75" y="369.5386">Promise remove(SecurityContext,string)</text><ellipse cx="1127.75" cy="380.0352" fill="#84BE84" rx="3" ry="3" style="stroke: #038048; stroke-width: 1.0;"/><text fill="#000000" font-family="sans-serif" font-size="11" lengthAdjust="spacingAndGlyphs" textLength="179" x="1136.75" y="382.3433">Promise getAll(SecurityContext)</text><ellipse cx="1127.75" cy="392.8398" fill="#84BE84" rx="3" ry="3" style="stroke: #038048; stroke-width: 1.0;"/><text fill="#000000" font-family="sans-serif" font-size="11" lengthAdjust="spacingAndGlyphs" textLength="203" x="1136.75" y="395.1479">Promise get(SecurityContext,string)</text><!--class AssetRegistry--><rect fill="#FEFECE" filter="url(#fkh1az0)" height="163.2422" style="stroke: #A80036; stroke-width: 1.5;" width="535" x="1025" y="8.5"/><ellipse cx="1245.75" cy="24.5" fill="#ADD1B2" rx="11" ry="11" style="stroke: #A80036; stroke-width: 1.0;"/><path d="M1248.7188,30.1406 Q1248.1406,30.4375 1247.5,30.5859 Q1246.8594,30.7344 1246.1563,30.7344 Q1243.6563,30.7344 1242.3359,29.0859 Q1241.0156,27.4375 1241.0156,24.3125 Q1241.0156,21.1875 1242.3359,19.5313 Q1243.6563,17.875 1246.1563,17.875 Q1246.8594,17.875 1247.5078,18.0313 Q1248.1563,18.1875 1248.7188,18.4844 L1248.7188,21.2031 Q1248.0938,20.625 1247.5,20.3516 Q1246.9063,20.0781 1246.2813,20.0781 Q1244.9375,20.0781 1244.25,21.1484 Q1243.5625,22.2188 1243.5625,24.3125 Q1243.5625,26.4063 1244.25,27.4766 Q1244.9375,28.5469 1246.2813,28.5469 Q1246.9063,28.5469 1247.5,28.2734 Q1248.0938,28 1248.7188,27.4219 L1248.7188,30.1406 Z "/><text fill="#000000" font-family="sans-serif" font-size="12" lengthAdjust="spacingAndGlyphs" textLength="85" x="1266.25" y="28.6543">AssetRegistry</text><line style="stroke: #A80036; stroke-width: 1.5;" x1="1026" x2="1559" y1="40.5" y2="40.5"/><line style="stroke: #A80036; stroke-width: 1.5;" x1="1026" x2="1559" y1="48.5" y2="48.5"/><ellipse cx="1036" cy="60.4023" fill="#84BE84" rx="3" ry="3" style="stroke: #038048; stroke-width: 1.0;"/><text fill="#000000" font-family="sans-serif" font-size="11" lengthAdjust="spacingAndGlyphs" textLength="456" x="1045" y="62.7104">Promise getAllAssetRegistries(SecurityContext,ModelManager,Factory,Serializer)</text><ellipse cx="1036" cy="73.207" fill="#84BE84" rx="3" ry="3" style="stroke: #038048; stroke-width: 1.0;"/><text fill="#000000" font-family="sans-serif" font-size="11" lengthAdjust="spacingAndGlyphs" textLength="469" x="1045" y="75.5151">Promise getAssetRegistry(SecurityContext,string,ModelManager,Factory,Serializer)</text><ellipse cx="1036" cy="86.0117" fill="#84BE84" rx="3" ry="3" style="stroke: #038048; stroke-width: 1.0;"/><text fill="#000000" font-family="sans-serif" font-size="11" lengthAdjust="spacingAndGlyphs" textLength="509" x="1045" y="88.3198">Promise addAssetRegistry(SecurityContext,string,string,ModelManager,Factory,Serializer)</text><ellipse cx="1036" cy="98.8164" fill="#84BE84" rx="3" ry="3" style="stroke: #038048; stroke-width: 1.0;"/><text fill="#000000" font-family="sans-serif" font-size="11" lengthAdjust="spacingAndGlyphs" textLength="358" x="1045" y="101.1245">void constructor(string,string,ModelManager,Factory,Serializer)</text><ellipse cx="1036" cy="111.6211" fill="#84BE84" rx="3" ry="3" style="stroke: #038048; stroke-width: 1.0;"/><text fill="#000000" font-family="sans-serif" font-size="11" lengthAdjust="spacingAndGlyphs" textLength="226" x="1045" y="113.9292">Promise add(SecurityContext,Resource)</text><ellipse cx="1036" cy="124.4258" fill="#84BE84" rx="3" ry="3" style="stroke: #038048; stroke-width: 1.0;"/><text fill="#000000" font-family="sans-serif" font-size="11" lengthAdjust="spacingAndGlyphs" textLength="244" x="1045" y="126.7339">Promise update(SecurityContext,Resource)</text><ellipse cx="1036" cy="137.2305" fill="#84BE84" rx="3" ry="3" style="stroke: #038048; stroke-width: 1.0;"/><text fill="#000000" font-family="sans-serif" font-size="11" lengthAdjust="spacingAndGlyphs" textLength="293" x="1045" y="139.5386">Promise remove(SecurityContext,(Resource|string))</text><ellipse cx="1036" cy="150.0352" fill="#84BE84" rx="3" ry="3" style="stroke: #038048; stroke-width: 1.0;"/><text fill="#000000" font-family="sans-serif" font-size="11" lengthAdjust="spacingAndGlyphs" textLength="179" x="1045" y="152.3433">Promise getAll(SecurityContext)</text><ellipse cx="1036" cy="162.8398" fill="#84BE84" rx="3" ry="3" style="stroke: #038048; stroke-width: 1.0;"/><text fill="#000000" font-family="sans-serif" font-size="11" lengthAdjust="spacingAndGlyphs" textLength="203" x="1045" y="165.1479">Promise get(SecurityContext,string)</text><path d="M636.25,152.7 C636.25,170.9 636.25,191.37 636.25,211.564 " fill="none" style="stroke: #A80036; stroke-width: 1.0;"/><polygon fill="none" points="643.25,211.573,636.25,231.573,629.25,211.573,643.25,211.573" style="stroke: #A80036; stroke-width: 1.0;"/><path d="M910.25,350.612 C910.25,377.481 910.25,417.4277 910.25,447.8472 " fill="none" style="stroke: #A80036; stroke-width: 1.0;"/><polygon fill="none" points="917.25,447.9902,910.25,467.9902,903.25,447.9901,917.25,447.9902" style="stroke: #A80036; stroke-width: 1.0;"/><path d="M910.25,120.807 C910.25,158.444 910.25,223.743 910.25,269.054 " fill="none" style="stroke: #A80036; stroke-width: 1.0;"/><polygon fill="none" points="917.25,269.186,910.25,289.186,903.25,269.186,917.25,269.186" style="stroke: #A80036; stroke-width: 1.0;"/><path d="M1292.25,171.705 C1292.25,186.758 1292.25,202.66 1292.25,218.229 " fill="none" style="stroke: #A80036; stroke-width: 1.0;"/><polygon fill="none" points="1299.25,218.403,1292.25,238.403,1285.25,218.403,1299.25,218.403" style="stroke: #A80036; stroke-width: 1.0;"/></g></svg>