<?xml version="1.0" encoding="UTF-8" standalone="no"?><svg xmlns="http://www.w3.org/2000/svg" xmlns:xlink="http://www.w3.org/1999/xlink" contentScriptType="application/ecmascript" contentStyleType="text/css" height="571px" preserveAspectRatio="none" style="width:1322px;height:571px;" version="1.1" viewBox="0 0 1322 571" width="1322px" zoomAndPan="magnify"><defs><filter height="300%" id="fd5yrz1" width="300%" x="-1" y="-1"><feGaussianBlur result="blurOut" stdDeviation="2.0"/><feColorMatrix in="blurOut" result="blurOut2" type="matrix" values="0 0 0 0 0 0 0 0 0 0 0 0 0 0 0 0 0 0 .4 0"/><feOffset dx="4.0" dy="4.0" in="blurOut2" result="blurOut3"/><feBlend in="SourceGraphic" in2="blurOut3" mode="normal"/></filter></defs><g><!--class Property--><rect fill="#FEFECE" filter="url(#fd5yrz1)" height="240.0703" style="stroke: #A80036; stroke-width: 1.5;" width="262" x="303" y="322"/><ellipse cx="403.25" cy="338" fill="#ADD1B2" rx="11" ry="11" style="stroke: #A80036; stroke-width: 1.0;"/><path d="M406.2188,343.6406 Q405.6406,343.9375 405,344.0859 Q404.3594,344.2344 403.6563,344.2344 Q401.1563,344.2344 399.8359,342.5859 Q398.5156,340.9375 398.5156,337.8125 Q398.5156,334.6875 399.8359,333.0313 Q401.1563,331.375 403.6563,331.375 Q404.3594,331.375 405.0078,331.5313 Q405.6563,331.6875 406.2188,331.9844 L406.2188,334.7031 Q405.5938,334.125 405,333.8516 Q404.4063,333.5781 403.7813,333.5781 Q402.4375,333.5781 401.75,334.6484 Q401.0625,335.7188 401.0625,337.8125 Q401.0625,339.9063 401.75,340.9766 Q402.4375,342.0469 403.7813,342.0469 Q404.4063,342.0469 405,341.7734 Q405.5938,341.5 406.2188,340.9219 L406.2188,343.6406 Z "/><text fill="#000000" font-family="sans-serif" font-size="12" lengthAdjust="spacingAndGlyphs" textLength="53" x="423.75" y="342.1543">Property</text><line style="stroke: #A80036; stroke-width: 1.5;" x1="304" x2="564" y1="354" y2="354"/><line style="stroke: #A80036; stroke-width: 1.5;" x1="304" x2="564" y1="362" y2="362"/><ellipse cx="314" cy="373.9023" fill="#84BE84" rx="3" ry="3" style="stroke: #038048; stroke-width: 1.0;"/><text fill="#000000" font-family="sans-serif" font-size="11" lengthAdjust="spacingAndGlyphs" textLength="236" x="323" y="376.2104">void constructor(ClassDeclaration,Object)</text><rect fill="#F24D5C" height="6" style="stroke: #C82930; stroke-width: 1.0;" width="6" x="311" y="383.707"/><text fill="#000000" font-family="sans-serif" font-size="11" lengthAdjust="spacingAndGlyphs" textLength="161" x="323" y="389.0151">Object accept(Object,Object)</text><ellipse cx="314" cy="399.5117" fill="#84BE84" rx="3" ry="3" style="stroke: #038048; stroke-width: 1.0;"/><text fill="#000000" font-family="sans-serif" font-size="11" lengthAdjust="spacingAndGlyphs" textLength="163" x="323" y="401.8198">ClassDeclaration getParent()</text><rect fill="#F24D5C" height="6" style="stroke: #C82930; stroke-width: 1.0;" width="6" x="311" y="409.3164"/><text fill="#000000" font-family="sans-serif" font-size="11" lengthAdjust="spacingAndGlyphs" textLength="81" x="323" y="414.6245">void process()</text><rect fill="#F24D5C" height="6" style="stroke: #C82930; stroke-width: 1.0;" width="6" x="311" y="422.1211"/><text fill="#000000" font-family="sans-serif" font-size="11" lengthAdjust="spacingAndGlyphs" textLength="175" x="323" y="427.4292">void validate(ClassDeclaration)</text><ellipse cx="314" cy="437.9258" fill="#84BE84" rx="3" ry="3" style="stroke: #038048; stroke-width: 1.0;"/><text fill="#000000" font-family="sans-serif" font-size="11" lengthAdjust="spacingAndGlyphs" textLength="96" x="323" y="440.2339">string getName()</text><ellipse cx="314" cy="450.7305" fill="#84BE84" rx="3" ry="3" style="stroke: #038048; stroke-width: 1.0;"/><text fill="#000000" font-family="sans-serif" font-size="11" lengthAdjust="spacingAndGlyphs" textLength="90" x="323" y="453.0386">string getType()</text><ellipse cx="314" cy="463.5352" fill="#84BE84" rx="3" ry="3" style="stroke: #038048; stroke-width: 1.0;"/><text fill="#000000" font-family="sans-serif" font-size="11" lengthAdjust="spacingAndGlyphs" textLength="114" x="323" y="465.8433">boolean isOptional()</text><ellipse cx="314" cy="476.3398" fill="#84BE84" rx="3" ry="3" style="stroke: #038048; stroke-width: 1.0;"/><text fill="#000000" font-family="sans-serif" font-size="11" lengthAdjust="spacingAndGlyphs" textLength="198" x="323" y="478.6479">string getFullyQualifiedTypeName()</text><ellipse cx="314" cy="489.1445" fill="#84BE84" rx="3" ry="3" style="stroke: #038048; stroke-width: 1.0;"/><text fill="#000000" font-family="sans-serif" font-size="11" lengthAdjust="spacingAndGlyphs" textLength="130" x="323" y="491.4526">string getNamespace()</text><ellipse cx="314" cy="501.9492" fill="#84BE84" rx="3" ry="3" style="stroke: #038048; stroke-width: 1.0;"/><text fill="#000000" font-family="sans-serif" font-size="11" lengthAdjust="spacingAndGlyphs" textLength="97" x="323" y="504.2573">boolean isArray()</text><ellipse cx="314" cy="514.7539" fill="#84BE84" rx="3" ry="3" style="stroke: #038048; stroke-width: 1.0;"/><text fill="#000000" font-family="sans-serif" font-size="11" lengthAdjust="spacingAndGlyphs" textLength="126" x="323" y="517.062">boolean isTypeEnum()</text><ellipse cx="314" cy="527.5586" fill="#84BE84" rx="3" ry="3" style="stroke: #038048; stroke-width: 1.0;"/><text fill="#000000" font-family="sans-serif" font-size="11" lengthAdjust="spacingAndGlyphs" textLength="116" x="323" y="529.8667">boolean isPrimitive()</text><ellipse cx="314" cy="540.3633" fill="#84BE84" rx="3" ry="3" style="stroke: #038048; stroke-width: 1.0;"/><text fill="#000000" font-family="sans-serif" font-size="11" lengthAdjust="spacingAndGlyphs" textLength="91" x="323" y="542.6714">String toString()</text><ellipse cx="314" cy="553.168" fill="#84BE84" rx="3" ry="3" style="stroke: #038048; stroke-width: 1.0;"/><text fill="#000000" font-family="sans-serif" font-size="11" lengthAdjust="spacingAndGlyphs" textLength="87" x="323" y="555.4761">Object toJSON()</text><!--class Field--><rect fill="#FEFECE" filter="url(#fd5yrz1)" height="112.0234" style="stroke: #A80036; stroke-width: 1.5;" width="262" x="6" y="79"/><ellipse cx="118.25" cy="95" fill="#ADD1B2" rx="11" ry="11" style="stroke: #A80036; stroke-width: 1.0;"/><path d="M121.2188,100.6406 Q120.6406,100.9375 120,101.0859 Q119.3594,101.2344 118.6563,101.2344 Q116.1563,101.2344 114.8359,99.5859 Q113.5156,97.9375 113.5156,94.8125 Q113.5156,91.6875 114.8359,90.0313 Q116.1563,88.375 118.6563,88.375 Q119.3594,88.375 120.0078,88.5313 Q120.6563,88.6875 121.2188,88.9844 L121.2188,91.7031 Q120.5938,91.125 120,90.8516 Q119.4063,90.5781 118.7813,90.5781 Q117.4375,90.5781 116.75,91.6484 Q116.0625,92.7188 116.0625,94.8125 Q116.0625,96.9063 116.75,97.9766 Q117.4375,99.0469 118.7813,99.0469 Q119.4063,99.0469 120,98.7734 Q120.5938,98.5 121.2188,97.9219 L121.2188,100.6406 Z "/><text fill="#000000" font-family="sans-serif" font-size="12" lengthAdjust="spacingAndGlyphs" textLength="29" x="138.75" y="99.1543">Field</text><line style="stroke: #A80036; stroke-width: 1.5;" x1="7" x2="267" y1="111" y2="111"/><line style="stroke: #A80036; stroke-width: 1.5;" x1="7" x2="267" y1="119" y2="119"/><ellipse cx="17" cy="130.9023" fill="#84BE84" rx="3" ry="3" style="stroke: #038048; stroke-width: 1.0;"/><text fill="#000000" font-family="sans-serif" font-size="11" lengthAdjust="spacingAndGlyphs" textLength="236" x="26" y="133.2104">void constructor(ClassDeclaration,Object)</text><rect fill="#F24D5C" height="6" style="stroke: #C82930; stroke-width: 1.0;" width="6" x="14" y="140.707"/><text fill="#000000" font-family="sans-serif" font-size="11" lengthAdjust="spacingAndGlyphs" textLength="81" x="26" y="146.0151">void process()</text><ellipse cx="17" cy="156.5117" fill="#84BE84" rx="3" ry="3" style="stroke: #038048; stroke-width: 1.0;"/><text fill="#000000" font-family="sans-serif" font-size="11" lengthAdjust="spacingAndGlyphs" textLength="113" x="26" y="158.8198">string getValidator()</text><ellipse cx="17" cy="169.3164" fill="#84BE84" rx="3" ry="3" style="stroke: #038048; stroke-width: 1.0;"/><text fill="#000000" font-family="sans-serif" font-size="11" lengthAdjust="spacingAndGlyphs" textLength="134" x="26" y="171.6245">string getDefaultValue()</text><ellipse cx="17" cy="182.1211" fill="#84BE84" rx="3" ry="3" style="stroke: #038048; stroke-width: 1.0;"/><text fill="#000000" font-family="sans-serif" font-size="11" lengthAdjust="spacingAndGlyphs" textLength="87" x="26" y="184.4292">Object toJSON()</text><!--class EnumValueDeclaration--><rect fill="#FEFECE" filter="url(#fd5yrz1)" height="73.6094" style="stroke: #A80036; stroke-width: 1.5;" width="262" x="303" y="98"/><ellipse cx="358.75" cy="114" fill="#ADD1B2" rx="11" ry="11" style="stroke: #A80036; stroke-width: 1.0;"/><path d="M361.7188,119.6406 Q361.1406,119.9375 360.5,120.0859 Q359.8594,120.2344 359.1563,120.2344 Q356.6563,120.2344 355.3359,118.5859 Q354.0156,116.9375 354.0156,113.8125 Q354.0156,110.6875 355.3359,109.0313 Q356.6563,107.375 359.1563,107.375 Q359.8594,107.375 360.5078,107.5313 Q361.1563,107.6875 361.7188,107.9844 L361.7188,110.7031 Q361.0938,110.125 360.5,109.8516 Q359.9063,109.5781 359.2813,109.5781 Q357.9375,109.5781 357.25,110.6484 Q356.5625,111.7188 356.5625,113.8125 Q356.5625,115.9063 357.25,116.9766 Q357.9375,118.0469 359.2813,118.0469 Q359.9063,118.0469 360.5,117.7734 Q361.0938,117.5 361.7188,116.9219 L361.7188,119.6406 Z "/><text fill="#000000" font-family="sans-serif" font-size="12" lengthAdjust="spacingAndGlyphs" textLength="142" x="379.25" y="118.1543">EnumValueDeclaration</text><line style="stroke: #A80036; stroke-width: 1.5;" x1="304" x2="564" y1="130" y2="130"/><line style="stroke: #A80036; stroke-width: 1.5;" x1="304" x2="564" y1="138" y2="138"/><ellipse cx="314" cy="149.9023" fill="#84BE84" rx="3" ry="3" style="stroke: #038048; stroke-width: 1.0;"/><text fill="#000000" font-family="sans-serif" font-size="11" lengthAdjust="spacingAndGlyphs" textLength="236" x="323" y="152.2104">void constructor(ClassDeclaration,Object)</text><rect fill="#F24D5C" height="6" style="stroke: #C82930; stroke-width: 1.0;" width="6" x="311" y="159.707"/><text fill="#000000" font-family="sans-serif" font-size="11" lengthAdjust="spacingAndGlyphs" textLength="175" x="323" y="165.0151">void validate(ClassDeclaration)</text><!--class IllegalModelException--><rect fill="#FEFECE" filter="url(#fd5yrz1)" height="60.8047" style="stroke: #A80036; stroke-width: 1.5;" width="166" x="897" y="104.5"/><ellipse cx="912" cy="120.5" fill="#ADD1B2" rx="11" ry="11" style="stroke: #A80036; stroke-width: 1.0;"/><path d="M914.9688,126.1406 Q914.3906,126.4375 913.75,126.5859 Q913.1094,126.7344 912.4063,126.7344 Q909.9063,126.7344 908.5859,125.0859 Q907.2656,123.4375 907.2656,120.3125 Q907.2656,117.1875 908.5859,115.5313 Q909.9063,113.875 912.4063,113.875 Q913.1094,113.875 913.7578,114.0313 Q914.4063,114.1875 914.9688,114.4844 L914.9688,117.2031 Q914.3438,116.625 913.75,116.3516 Q913.1563,116.0781 912.5313,116.0781 Q911.1875,116.0781 910.5,117.1484 Q909.8125,118.2188 909.8125,120.3125 Q909.8125,122.4063 910.5,123.4766 Q911.1875,124.5469 912.5313,124.5469 Q913.1563,124.5469 913.75,124.2734 Q914.3438,124 914.9688,123.4219 L914.9688,126.1406 Z "/><text fill="#000000" font-family="sans-serif" font-size="12" lengthAdjust="spacingAndGlyphs" textLength="134" x="926" y="124.6543">IllegalModelException</text><line style="stroke: #A80036; stroke-width: 1.5;" x1="898" x2="1062" y1="136.5" y2="136.5"/><line style="stroke: #A80036; stroke-width: 1.5;" x1="898" x2="1062" y1="144.5" y2="144.5"/><ellipse cx="908" cy="156.4023" fill="#84BE84" rx="3" ry="3" style="stroke: #038048; stroke-width: 1.0;"/><text fill="#000000" font-family="sans-serif" font-size="11" lengthAdjust="spacingAndGlyphs" textLength="133" x="917" y="158.7104">void constructor(string)</text><!--class BaseException--><rect fill="#FEFECE" filter="url(#fd5yrz1)" height="48" style="stroke: #A80036; stroke-width: 1.5;" width="124" x="918.5" y="418"/><ellipse cx="933.5" cy="434" fill="#ADD1B2" rx="11" ry="11" style="stroke: #A80036; stroke-width: 1.0;"/><path d="M936.4688,439.6406 Q935.8906,439.9375 935.25,440.0859 Q934.6094,440.2344 933.9063,440.2344 Q931.4063,440.2344 930.0859,438.5859 Q928.7656,436.9375 928.7656,433.8125 Q928.7656,430.6875 930.0859,429.0313 Q931.4063,427.375 933.9063,427.375 Q934.6094,427.375 935.2578,427.5313 Q935.9063,427.6875 936.4688,427.9844 L936.4688,430.7031 Q935.8438,430.125 935.25,429.8516 Q934.6563,429.5781 934.0313,429.5781 Q932.6875,429.5781 932,430.6484 Q931.3125,431.7188 931.3125,433.8125 Q931.3125,435.9063 932,436.9766 Q932.6875,438.0469 934.0313,438.0469 Q934.6563,438.0469 935.25,437.7734 Q935.8438,437.5 936.4688,436.9219 L936.4688,439.6406 Z "/><text fill="#000000" font-family="sans-serif" font-size="12" lengthAdjust="spacingAndGlyphs" textLength="92" x="947.5" y="438.1543">BaseException</text><line style="stroke: #A80036; stroke-width: 1.5;" x1="919.5" x2="1041.5" y1="450" y2="450"/><line style="stroke: #A80036; stroke-width: 1.5;" x1="919.5" x2="1041.5" y1="458" y2="458"/><!--class RelationshipDeclaration--><rect fill="#FEFECE" filter="url(#fd5yrz1)" height="73.6094" style="stroke: #A80036; stroke-width: 1.5;" width="262" x="600" y="98"/><ellipse cx="652.25" cy="114" fill="#ADD1B2" rx="11" ry="11" style="stroke: #A80036; stroke-width: 1.0;"/><path d="M655.2188,119.6406 Q654.6406,119.9375 654,120.0859 Q653.3594,120.2344 652.6563,120.2344 Q650.1563,120.2344 648.8359,118.5859 Q647.5156,116.9375 647.5156,113.8125 Q647.5156,110.6875 648.8359,109.0313 Q650.1563,107.375 652.6563,107.375 Q653.3594,107.375 654.0078,107.5313 Q654.6563,107.6875 655.2188,107.9844 L655.2188,110.7031 Q654.5938,110.125 654,109.8516 Q653.4063,109.5781 652.7813,109.5781 Q651.4375,109.5781 650.75,110.6484 Q650.0625,111.7188 650.0625,113.8125 Q650.0625,115.9063 650.75,116.9766 Q651.4375,118.0469 652.7813,118.0469 Q653.4063,118.0469 654,117.7734 Q654.5938,117.5 655.2188,116.9219 L655.2188,119.6406 Z "/><text fill="#000000" font-family="sans-serif" font-size="12" lengthAdjust="spacingAndGlyphs" textLength="149" x="672.75" y="118.1543">RelationshipDeclaration</text><line style="stroke: #A80036; stroke-width: 1.5;" x1="601" x2="861" y1="130" y2="130"/><line style="stroke: #A80036; stroke-width: 1.5;" x1="601" x2="861" y1="138" y2="138"/><ellipse cx="611" cy="149.9023" fill="#84BE84" rx="3" ry="3" style="stroke: #038048; stroke-width: 1.0;"/><text fill="#000000" font-family="sans-serif" font-size="11" lengthAdjust="spacingAndGlyphs" textLength="236" x="620" y="152.2104">void constructor(ClassDeclaration,Object)</text><rect fill="#F24D5C" height="6" style="stroke: #C82930; stroke-width: 1.0;" width="6" x="608" y="159.707"/><text fill="#000000" font-family="sans-serif" font-size="11" lengthAdjust="spacingAndGlyphs" textLength="175" x="620" y="165.0151">void validate(ClassDeclaration)</text><!--class ClassDeclaration--><rect fill="#FEFECE" filter="url(#fd5yrz1)" height="252.875" style="stroke: #A80036; stroke-width: 1.5;" width="215" x="1098.75" y="8.5"/><ellipse cx="1149.5" cy="24.5" fill="#ADD1B2" rx="11" ry="11" style="stroke: #A80036; stroke-width: 1.0;"/><path d="M1152.4688,30.1406 Q1151.8906,30.4375 1151.25,30.5859 Q1150.6094,30.7344 1149.9063,30.7344 Q1147.4063,30.7344 1146.0859,29.0859 Q1144.7656,27.4375 1144.7656,24.3125 Q1144.7656,21.1875 1146.0859,19.5313 Q1147.4063,17.875 1149.9063,17.875 Q1150.6094,17.875 1151.2578,18.0313 Q1151.9063,18.1875 1152.4688,18.4844 L1152.4688,21.2031 Q1151.8438,20.625 1151.25,20.3516 Q1150.6563,20.0781 1150.0313,20.0781 Q1148.6875,20.0781 1148,21.1484 Q1147.3125,22.2188 1147.3125,24.3125 Q1147.3125,26.4063 1148,27.4766 Q1148.6875,28.5469 1150.0313,28.5469 Q1150.6563,28.5469 1151.25,28.2734 Q1151.8438,28 1152.4688,27.4219 L1152.4688,30.1406 Z "/><text fill="#000000" font-family="sans-serif" font-size="12" lengthAdjust="spacingAndGlyphs" textLength="105" x="1170" y="28.6543">ClassDeclaration</text><line style="stroke: #A80036; stroke-width: 1.5;" x1="1099.75" x2="1312.75" y1="40.5" y2="40.5"/><line style="stroke: #A80036; stroke-width: 1.5;" x1="1099.75" x2="1312.75" y1="48.5" y2="48.5"/><ellipse cx="1109.75" cy="60.4023" fill="#84BE84" rx="3" ry="3" style="stroke: #038048; stroke-width: 1.0;"/><text fill="#000000" font-family="sans-serif" font-size="11" lengthAdjust="spacingAndGlyphs" textLength="189" x="1118.75" y="62.7104">void constructor(ModelFile,string)</text><rect fill="#F24D5C" height="6" style="stroke: #C82930; stroke-width: 1.0;" width="6" x="1106.75" y="70.207"/><text fill="#000000" font-family="sans-serif" font-size="11" lengthAdjust="spacingAndGlyphs" textLength="161" x="1118.75" y="75.5151">Object accept(Object,Object)</text><ellipse cx="1109.75" cy="86.0117" fill="#84BE84" rx="3" ry="3" style="stroke: #038048; stroke-width: 1.0;"/><text fill="#000000" font-family="sans-serif" font-size="11" lengthAdjust="spacingAndGlyphs" textLength="134" x="1118.75" y="88.3198">ModelFile getModelFile()</text><rect fill="#F24D5C" height="6" style="stroke: #C82930; stroke-width: 1.0;" width="6" x="1106.75" y="95.8164"/><text fill="#000000" font-family="sans-serif" font-size="11" lengthAdjust="spacingAndGlyphs" textLength="81" x="1118.75" y="101.1245">void process()</text><rect fill="#F24D5C" height="6" style="stroke: #C82930; stroke-width: 1.0;" width="6" x="1106.75" y="108.6211"/><text fill="#000000" font-family="sans-serif" font-size="11" lengthAdjust="spacingAndGlyphs" textLength="79" x="1118.75" y="113.9292">void validate()</text><ellipse cx="1109.75" cy="124.4258" fill="#84BE84" rx="3" ry="3" style="stroke: #038048; stroke-width: 1.0;"/><text fill="#000000" font-family="sans-serif" font-size="11" lengthAdjust="spacingAndGlyphs" textLength="114" x="1118.75" y="126.7339">boolean isAbstract()</text><ellipse cx="1109.75" cy="137.2305" fill="#84BE84" rx="3" ry="3" style="stroke: #038048; stroke-width: 1.0;"/><text fill="#000000" font-family="sans-serif" font-size="11" lengthAdjust="spacingAndGlyphs" textLength="99" x="1118.75" y="139.5386">boolean isEnum()</text><ellipse cx="1109.75" cy="150.0352" fill="#84BE84" rx="3" ry="3" style="stroke: #038048; stroke-width: 1.0;"/><text fill="#000000" font-family="sans-serif" font-size="11" lengthAdjust="spacingAndGlyphs" textLength="96" x="1118.75" y="152.3433">string getName()</text><ellipse cx="1109.75" cy="162.8398" fill="#84BE84" rx="3" ry="3" style="stroke: #038048; stroke-width: 1.0;"/><text fill="#000000" font-family="sans-serif" font-size="11" lengthAdjust="spacingAndGlyphs" textLength="171" x="1118.75" y="165.1479">string getFullyQualifiedName()</text><ellipse cx="1109.75" cy="175.6445" fill="#84BE84" rx="3" ry="3" style="stroke: #038048; stroke-width: 1.0;"/><text fill="#000000" font-family="sans-serif" font-size="11" lengthAdjust="spacingAndGlyphs" textLength="172" x="1118.75" y="177.9526">string getIdentifierFieldName()</text><ellipse cx="1109.75" cy="188.4492" fill="#84BE84" rx="3" ry="3" style="stroke: #038048; stroke-width: 1.0;"/><text fill="#000000" font-family="sans-serif" font-size="11" lengthAdjust="spacingAndGlyphs" textLength="184" x="1118.75" y="190.7573">Property getOwnProperty(string)</text><ellipse cx="1109.75" cy="201.2539" fill="#84BE84" rx="3" ry="3" style="stroke: #038048; stroke-width: 1.0;"/><text fill="#000000" font-family="sans-serif" font-size="11" lengthAdjust="spacingAndGlyphs" textLength="170" x="1118.75" y="203.562">Property[] getOwnProperties()</text><ellipse cx="1109.75" cy="214.0586" fill="#84BE84" rx="3" ry="3" style="stroke: #038048; stroke-width: 1.0;"/><text fill="#000000" font-family="sans-serif" font-size="11" lengthAdjust="spacingAndGlyphs" textLength="124" x="1118.75" y="216.3667">string getSuperType()</text><ellipse cx="1109.75" cy="226.8633" fill="#84BE84" rx="3" ry="3" style="stroke: #038048; stroke-width: 1.0;"/><text fill="#000000" font-family="sans-serif" font-size="11" lengthAdjust="spacingAndGlyphs" textLength="159" x="1118.75" y="229.1714">Property getProperty(string)</text><ellipse cx="1109.75" cy="239.668" fill="#84BE84" rx="3" ry="3" style="stroke: #038048; stroke-width: 1.0;"/><text fill="#000000" font-family="sans-serif" font-size="11" lengthAdjust="spacingAndGlyphs" textLength="145" x="1118.75" y="241.9761">Property[] getProperties()</text><ellipse cx="1109.75" cy="252.4727" fill="#84BE84" rx="3" ry="3" style="stroke: #038048; stroke-width: 1.0;"/><text fill="#000000" font-family="sans-serif" font-size="11" lengthAdjust="spacingAndGlyphs" textLength="87" x="1118.75" y="254.7808">Object toJSON()</text><path d="M190.784,191.233 C222.485,223.788 264.069,266.492 303.866,307.361 " fill="none" style="stroke: #A80036; stroke-width: 1.0;"/><polygon fill="none" points="308.912,302.508,317.849,321.721,298.881,312.276,308.912,302.508" style="stroke: #A80036; stroke-width: 1.0;"/><path d="M434,172.185 C434,204.494 434,253.951 434,301.675 " fill="none" style="stroke: #A80036; stroke-width: 1.0;"/><polygon fill="none" points="441,301.967,434,321.967,427,301.967,441,301.967" style="stroke: #A80036; stroke-width: 1.0;"/><path d="M980,165.522 C980,219.565 980,334.619 980,397.592 " fill="none" style="stroke: #A80036; stroke-width: 1.0;"/><polygon fill="none" points="987,397.868,980,417.868,973,397.868,987,397.868" style="stroke: #A80036; stroke-width: 1.0;"/><path d="M695.764,172.185 C663.039,205.792 612.246,257.953 564.079,307.418 " fill="none" style="stroke: #A80036; stroke-width: 1.0;"/><polygon fill="none" points="568.879,312.521,549.911,321.967,558.849,302.754,568.879,312.521" style="stroke: #A80036; stroke-width: 1.0;"/></g></svg>