<?xml version="1.0" encoding="UTF-8" standalone="no"?><svg xmlns="http://www.w3.org/2000/svg" xmlns:xlink="http://www.w3.org/1999/xlink" contentScriptType="application/ecmascript" contentStyleType="text/css" height="429px" preserveAspectRatio="none" style="width:1089px;height:429px;" version="1.1" viewBox="0 0 1089 429" width="1089px" zoomAndPan="magnify"><defs><filter height="300%" id="fqwhdpq" width="300%" x="-1" y="-1"><feGaussianBlur result="blurOut" stdDeviation="2.0"/><feColorMatrix in="blurOut" result="blurOut2" type="matrix" values="0 0 0 0 0 0 0 0 0 0 0 0 0 0 0 0 0 0 .4 0"/><feOffset dx="4.0" dy="4.0" in="blurOut2" result="blurOut3"/><feBlend in="SourceGraphic" in2="blurOut3" mode="normal"/></filter></defs><g><!--class GoLangVisitor--><rect fill="#FEFECE" filter="url(#fqwhdpq)" height="188.8516" style="stroke: #A80036; stroke-width: 1.5;" width="391" x="6" y="14.5"/><ellipse cx="154.25" cy="30.5" fill="#ADD1B2" rx="11" ry="11" style="stroke: #A80036; stroke-width: 1.0;"/><path d="M157.2188,36.1406 Q156.6406,36.4375 156,36.5859 Q155.3594,36.7344 154.6563,36.7344 Q152.1563,36.7344 150.8359,35.0859 Q149.5156,33.4375 149.5156,30.3125 Q149.5156,27.1875 150.8359,25.5313 Q152.1563,23.875 154.6563,23.875 Q155.3594,23.875 156.0078,24.0313 Q156.6563,24.1875 157.2188,24.4844 L157.2188,27.2031 Q156.5938,26.625 156,26.3516 Q155.4063,26.0781 154.7813,26.0781 Q153.4375,26.0781 152.75,27.1484 Q152.0625,28.2188 152.0625,30.3125 Q152.0625,32.4063 152.75,33.4766 Q153.4375,34.5469 154.7813,34.5469 Q155.4063,34.5469 156,34.2734 Q156.5938,34 157.2188,33.4219 L157.2188,36.1406 Z "/><text fill="#000000" font-family="sans-serif" font-size="12" lengthAdjust="spacingAndGlyphs" textLength="86" x="174.75" y="34.6543">GoLangVisitor</text><line style="stroke: #A80036; stroke-width: 1.5;" x1="7" x2="396" y1="46.5" y2="46.5"/><line style="stroke: #A80036; stroke-width: 1.5;" x1="7" x2="396" y1="54.5" y2="54.5"/><rect fill="#F24D5C" height="6" style="stroke: #C82930; stroke-width: 1.0;" width="6" x="14" y="63.4023"/><text fill="#000000" font-family="sans-serif" font-size="11" lengthAdjust="spacingAndGlyphs" textLength="147" x="26" y="68.7104">Object visit(Object,Object)</text><rect fill="#F24D5C" height="6" style="stroke: #C82930; stroke-width: 1.0;" width="6" x="14" y="76.207"/><text fill="#000000" font-family="sans-serif" font-size="11" lengthAdjust="spacingAndGlyphs" textLength="275" x="26" y="81.5151">Object visitModelManager(ModelManager,Object)</text><rect fill="#F24D5C" height="6" style="stroke: #C82930; stroke-width: 1.0;" width="6" x="14" y="89.0117"/><text fill="#000000" font-family="sans-serif" font-size="11" lengthAdjust="spacingAndGlyphs" textLength="215" x="26" y="94.3198">Object visitModelFile(ModelFile,Object)</text><rect fill="#F24D5C" height="6" style="stroke: #C82930; stroke-width: 1.0;" width="6" x="14" y="101.8164"/><text fill="#000000" font-family="sans-serif" font-size="11" lengthAdjust="spacingAndGlyphs" textLength="303" x="26" y="107.1245">Object visitEnumDeclaration(EnumDeclaration,Object)</text><rect fill="#F24D5C" height="6" style="stroke: #C82930; stroke-width: 1.0;" width="6" x="14" y="114.6211"/><text fill="#000000" font-family="sans-serif" font-size="11" lengthAdjust="spacingAndGlyphs" textLength="303" x="26" y="119.9292">Object visitClassDeclaration(ClassDeclaration,Object)</text><rect fill="#F24D5C" height="6" style="stroke: #C82930; stroke-width: 1.0;" width="6" x="14" y="127.4258"/><text fill="#000000" font-family="sans-serif" font-size="11" lengthAdjust="spacingAndGlyphs" textLength="163" x="26" y="132.7339">Object visitField(Field,Object)</text><rect fill="#F24D5C" height="6" style="stroke: #C82930; stroke-width: 1.0;" width="6" x="14" y="140.2305"/><text fill="#000000" font-family="sans-serif" font-size="11" lengthAdjust="spacingAndGlyphs" textLength="365" x="26" y="145.5386">Object visitEnumValueDeclaration(EnumValueDeclaration,Object)</text><rect fill="#F24D5C" height="6" style="stroke: #C82930; stroke-width: 1.0;" width="6" x="14" y="153.0352"/><text fill="#000000" font-family="sans-serif" font-size="11" lengthAdjust="spacingAndGlyphs" textLength="249" x="26" y="158.3433">Object visitRelationship(Relationship,Object)</text><rect fill="#F24D5C" height="6" style="stroke: #C82930; stroke-width: 1.0;" width="6" x="14" y="165.8398"/><text fill="#000000" font-family="sans-serif" font-size="11" lengthAdjust="spacingAndGlyphs" textLength="237" x="26" y="171.1479">boolean containsDateTimeField(ModelFile)</text><rect fill="#F24D5C" height="6" style="stroke: #C82930; stroke-width: 1.0;" width="6" x="14" y="178.6445"/><text fill="#000000" font-family="sans-serif" font-size="11" lengthAdjust="spacingAndGlyphs" textLength="132" x="26" y="183.9526">string toGoType(string)</text><rect fill="#F24D5C" height="6" style="stroke: #C82930; stroke-width: 1.0;" width="6" x="14" y="191.4492"/><text fill="#000000" font-family="sans-serif" font-size="11" lengthAdjust="spacingAndGlyphs" textLength="185" x="26" y="196.7573">string toGoPackageName(string)</text><!--class PlantUMLVisitor--><rect fill="#FEFECE" filter="url(#fqwhdpq)" height="201.6563" style="stroke: #A80036; stroke-width: 1.5;" width="391" x="432" y="8"/><ellipse cx="575.25" cy="24" fill="#ADD1B2" rx="11" ry="11" style="stroke: #A80036; stroke-width: 1.0;"/><path d="M578.2188,29.6406 Q577.6406,29.9375 577,30.0859 Q576.3594,30.2344 575.6563,30.2344 Q573.1563,30.2344 571.8359,28.5859 Q570.5156,26.9375 570.5156,23.8125 Q570.5156,20.6875 571.8359,19.0313 Q573.1563,17.375 575.6563,17.375 Q576.3594,17.375 577.0078,17.5313 Q577.6563,17.6875 578.2188,17.9844 L578.2188,20.7031 Q577.5938,20.125 577,19.8516 Q576.4063,19.5781 575.7813,19.5781 Q574.4375,19.5781 573.75,20.6484 Q573.0625,21.7188 573.0625,23.8125 Q573.0625,25.9063 573.75,26.9766 Q574.4375,28.0469 575.7813,28.0469 Q576.4063,28.0469 577,27.7734 Q577.5938,27.5 578.2188,26.9219 L578.2188,29.6406 Z "/><text fill="#000000" font-family="sans-serif" font-size="12" lengthAdjust="spacingAndGlyphs" textLength="96" x="595.75" y="28.1543">PlantUMLVisitor</text><line style="stroke: #A80036; stroke-width: 1.5;" x1="433" x2="822" y1="40" y2="40"/><line style="stroke: #A80036; stroke-width: 1.5;" x1="433" x2="822" y1="48" y2="48"/><rect fill="#F24D5C" height="6" style="stroke: #C82930; stroke-width: 1.0;" width="6" x="440" y="56.9023"/><text fill="#000000" font-family="sans-serif" font-size="11" lengthAdjust="spacingAndGlyphs" textLength="147" x="452" y="62.2104">Object visit(Object,Object)</text><rect fill="#F24D5C" height="6" style="stroke: #C82930; stroke-width: 1.0;" width="6" x="440" y="69.707"/><text fill="#000000" font-family="sans-serif" font-size="11" lengthAdjust="spacingAndGlyphs" textLength="275" x="452" y="75.0151">Object visitModelManager(ModelManager,Object)</text><rect fill="#F24D5C" height="6" style="stroke: #C82930; stroke-width: 1.0;" width="6" x="440" y="82.5117"/><text fill="#000000" font-family="sans-serif" font-size="11" lengthAdjust="spacingAndGlyphs" textLength="215" x="452" y="87.8198">Object visitModelFile(ModelFile,Object)</text><rect fill="#F24D5C" height="6" style="stroke: #C82930; stroke-width: 1.0;" width="6" x="440" y="95.3164"/><text fill="#000000" font-family="sans-serif" font-size="11" lengthAdjust="spacingAndGlyphs" textLength="303" x="452" y="100.6245">Object visitAssetDeclaration(ClassDeclaration,Object)</text><rect fill="#F24D5C" height="6" style="stroke: #C82930; stroke-width: 1.0;" width="6" x="440" y="108.1211"/><text fill="#000000" font-family="sans-serif" font-size="11" lengthAdjust="spacingAndGlyphs" textLength="303" x="452" y="113.4292">Object visitEnumDeclaration(ClassDeclaration,Object)</text><rect fill="#F24D5C" height="6" style="stroke: #C82930; stroke-width: 1.0;" width="6" x="440" y="120.9258"/><text fill="#000000" font-family="sans-serif" font-size="11" lengthAdjust="spacingAndGlyphs" textLength="331" x="452" y="126.2339">Object visitParticipantDeclaration(ClassDeclaration,Object)</text><rect fill="#F24D5C" height="6" style="stroke: #C82930; stroke-width: 1.0;" width="6" x="440" y="133.7305"/><text fill="#000000" font-family="sans-serif" font-size="11" lengthAdjust="spacingAndGlyphs" textLength="338" x="452" y="139.0386">Object visitTransactionDeclaration(ClassDeclaration,Object)</text><rect fill="#F24D5C" height="6" style="stroke: #C82930; stroke-width: 1.0;" width="6" x="440" y="146.5352"/><text fill="#000000" font-family="sans-serif" font-size="11" lengthAdjust="spacingAndGlyphs" textLength="303" x="452" y="151.8433">Object visitClassDeclaration(ClassDeclaration,Object)</text><rect fill="#F24D5C" height="6" style="stroke: #C82930; stroke-width: 1.0;" width="6" x="440" y="159.3398"/><text fill="#000000" font-family="sans-serif" font-size="11" lengthAdjust="spacingAndGlyphs" textLength="163" x="452" y="164.6479">Object visitField(Field,Object)</text><rect fill="#F24D5C" height="6" style="stroke: #C82930; stroke-width: 1.0;" width="6" x="440" y="172.1445"/><text fill="#000000" font-family="sans-serif" font-size="11" lengthAdjust="spacingAndGlyphs" textLength="333" x="452" y="177.4526">Object visitFunctionDeclaration(FunctionDeclaration,Object)</text><rect fill="#F24D5C" height="6" style="stroke: #C82930; stroke-width: 1.0;" width="6" x="440" y="184.9492"/><text fill="#000000" font-family="sans-serif" font-size="11" lengthAdjust="spacingAndGlyphs" textLength="365" x="452" y="190.2573">Object visitEnumValueDeclaration(EnumValueDeclaration,Object)</text><rect fill="#F24D5C" height="6" style="stroke: #C82930; stroke-width: 1.0;" width="6" x="440" y="197.7539"/><text fill="#000000" font-family="sans-serif" font-size="11" lengthAdjust="spacingAndGlyphs" textLength="249" x="452" y="203.062">Object visitRelationship(Relationship,Object)</text><!--class Writer--><rect fill="#FEFECE" filter="url(#fqwhdpq)" height="150.4375" style="stroke: #A80036; stroke-width: 1.5;" width="201" x="869" y="270"/><ellipse cx="946.75" cy="286" fill="#ADD1B2" rx="11" ry="11" style="stroke: #A80036; stroke-width: 1.0;"/><path d="M949.7188,291.6406 Q949.1406,291.9375 948.5,292.0859 Q947.8594,292.2344 947.1563,292.2344 Q944.6563,292.2344 943.3359,290.5859 Q942.0156,288.9375 942.0156,285.8125 Q942.0156,282.6875 943.3359,281.0313 Q944.6563,279.375 947.1563,279.375 Q947.8594,279.375 948.5078,279.5313 Q949.1563,279.6875 949.7188,279.9844 L949.7188,282.7031 Q949.0938,282.125 948.5,281.8516 Q947.9063,281.5781 947.2813,281.5781 Q945.9375,281.5781 945.25,282.6484 Q944.5625,283.7188 944.5625,285.8125 Q944.5625,287.9063 945.25,288.9766 Q945.9375,290.0469 947.2813,290.0469 Q947.9063,290.0469 948.5,289.7734 Q949.0938,289.5 949.7188,288.9219 L949.7188,291.6406 Z "/><text fill="#000000" font-family="sans-serif" font-size="12" lengthAdjust="spacingAndGlyphs" textLength="37" x="967.25" y="290.1543">Writer</text><line style="stroke: #A80036; stroke-width: 1.5;" x1="870" x2="1069" y1="302" y2="302"/><line style="stroke: #A80036; stroke-width: 1.5;" x1="870" x2="1069" y1="310" y2="310"/><ellipse cx="880" cy="321.9023" fill="#84BE84" rx="3" ry="3" style="stroke: #038048; stroke-width: 1.0;"/><text fill="#000000" font-family="sans-serif" font-size="11" lengthAdjust="spacingAndGlyphs" textLength="100" x="889" y="324.2104">void constructor()</text><ellipse cx="880" cy="334.707" fill="#84BE84" rx="3" ry="3" style="stroke: #038048; stroke-width: 1.0;"/><text fill="#000000" font-family="sans-serif" font-size="11" lengthAdjust="spacingAndGlyphs" textLength="175" x="889" y="337.0151">void writeBeforeLine(int,string)</text><ellipse cx="880" cy="347.5117" fill="#84BE84" rx="3" ry="3" style="stroke: #038048; stroke-width: 1.0;"/><text fill="#000000" font-family="sans-serif" font-size="11" lengthAdjust="spacingAndGlyphs" textLength="137" x="889" y="349.8198">void writeLine(int,string)</text><ellipse cx="880" cy="360.3164" fill="#84BE84" rx="3" ry="3" style="stroke: #038048; stroke-width: 1.0;"/><text fill="#000000" font-family="sans-serif" font-size="11" lengthAdjust="spacingAndGlyphs" textLength="100" x="889" y="362.6245">int getLineCount()</text><ellipse cx="880" cy="373.1211" fill="#84BE84" rx="3" ry="3" style="stroke: #038048; stroke-width: 1.0;"/><text fill="#000000" font-family="sans-serif" font-size="11" lengthAdjust="spacingAndGlyphs" textLength="163" x="889" y="375.4292">void writeIndented(int,string)</text><ellipse cx="880" cy="385.9258" fill="#84BE84" rx="3" ry="3" style="stroke: #038048; stroke-width: 1.0;"/><text fill="#000000" font-family="sans-serif" font-size="11" lengthAdjust="spacingAndGlyphs" textLength="96" x="889" y="388.2339">void write(string)</text><ellipse cx="880" cy="398.7305" fill="#84BE84" rx="3" ry="3" style="stroke: #038048; stroke-width: 1.0;"/><text fill="#000000" font-family="sans-serif" font-size="11" lengthAdjust="spacingAndGlyphs" textLength="98" x="889" y="401.0386">string getBuffer()</text><ellipse cx="880" cy="411.5352" fill="#84BE84" rx="3" ry="3" style="stroke: #038048; stroke-width: 1.0;"/><text fill="#000000" font-family="sans-serif" font-size="11" lengthAdjust="spacingAndGlyphs" textLength="98" x="889" y="413.8433">void clearBuffer()</text><!--class FileWriter--><rect fill="#FEFECE" filter="url(#fqwhdpq)" height="124.8281" style="stroke: #A80036; stroke-width: 1.5;" width="222" x="858.75" y="46.5"/><ellipse cx="936.5" cy="62.5" fill="#ADD1B2" rx="11" ry="11" style="stroke: #A80036; stroke-width: 1.0;"/><path d="M939.4688,68.1406 Q938.8906,68.4375 938.25,68.5859 Q937.6094,68.7344 936.9063,68.7344 Q934.4063,68.7344 933.0859,67.0859 Q931.7656,65.4375 931.7656,62.3125 Q931.7656,59.1875 933.0859,57.5313 Q934.4063,55.875 936.9063,55.875 Q937.6094,55.875 938.2578,56.0313 Q938.9063,56.1875 939.4688,56.4844 L939.4688,59.2031 Q938.8438,58.625 938.25,58.3516 Q937.6563,58.0781 937.0313,58.0781 Q935.6875,58.0781 935,59.1484 Q934.3125,60.2188 934.3125,62.3125 Q934.3125,64.4063 935,65.4766 Q935.6875,66.5469 937.0313,66.5469 Q937.6563,66.5469 938.25,66.2734 Q938.8438,66 939.4688,65.4219 L939.4688,68.1406 Z "/><text fill="#000000" font-family="sans-serif" font-size="12" lengthAdjust="spacingAndGlyphs" textLength="58" x="957" y="66.6543">FileWriter</text><line style="stroke: #A80036; stroke-width: 1.5;" x1="859.75" x2="1079.75" y1="78.5" y2="78.5"/><line style="stroke: #A80036; stroke-width: 1.5;" x1="859.75" x2="1079.75" y1="86.5" y2="86.5"/><ellipse cx="869.75" cy="98.4023" fill="#84BE84" rx="3" ry="3" style="stroke: #038048; stroke-width: 1.0;"/><text fill="#000000" font-family="sans-serif" font-size="11" lengthAdjust="spacingAndGlyphs" textLength="133" x="878.75" y="100.7104">void constructor(string)</text><ellipse cx="869.75" cy="111.207" fill="#84BE84" rx="3" ry="3" style="stroke: #038048; stroke-width: 1.0;"/><text fill="#000000" font-family="sans-serif" font-size="11" lengthAdjust="spacingAndGlyphs" textLength="115" x="878.75" y="113.5151">void openFile(string)</text><ellipse cx="869.75" cy="124.0117" fill="#84BE84" rx="3" ry="3" style="stroke: #038048; stroke-width: 1.0;"/><text fill="#000000" font-family="sans-serif" font-size="11" lengthAdjust="spacingAndGlyphs" textLength="196" x="878.75" y="126.3198">void openRelativeFile(string,string)</text><ellipse cx="869.75" cy="136.8164" fill="#84BE84" rx="3" ry="3" style="stroke: #038048; stroke-width: 1.0;"/><text fill="#000000" font-family="sans-serif" font-size="11" lengthAdjust="spacingAndGlyphs" textLength="137" x="878.75" y="139.1245">void writeLine(int,string)</text><ellipse cx="869.75" cy="149.6211" fill="#84BE84" rx="3" ry="3" style="stroke: #038048; stroke-width: 1.0;"/><text fill="#000000" font-family="sans-serif" font-size="11" lengthAdjust="spacingAndGlyphs" textLength="175" x="878.75" y="151.9292">void writeBeforeLine(int,string)</text><ellipse cx="869.75" cy="162.4258" fill="#84BE84" rx="3" ry="3" style="stroke: #038048; stroke-width: 1.0;"/><text fill="#000000" font-family="sans-serif" font-size="11" lengthAdjust="spacingAndGlyphs" textLength="84" x="878.75" y="164.7339">void closeFile()</text><!--class codegen--><rect fill="#FEFECE" filter="url(#fqwhdpq)" height="48" style="stroke: #A80036; stroke-width: 1.5;" width="87" x="158" y="321"/><ellipse cx="173" cy="337" fill="#DA70D6" rx="11" ry="11" style="stroke: #A80036; stroke-width: 1.0;"/><path d="M172.7969,332.6719 L172.7969,336.2969 L173.7969,336.2969 Q175,336.2969 175.4844,335.8906 Q175.9688,335.4844 175.9688,334.4844 Q175.9688,333.4844 175.4844,333.0781 Q175,332.6719 173.7969,332.6719 L172.7969,332.6719 Z M170.3438,330.6094 L173.7031,330.6094 Q176.2656,330.6094 177.3906,331.5234 Q178.5156,332.4375 178.5156,334.4844 Q178.5156,336.5313 177.3906,337.4453 Q176.2656,338.3594 173.7031,338.3594 L172.7969,338.3594 L172.7969,343 L170.3438,343 L170.3438,330.6094 Z "/><text fill="#000000" font-family="sans-serif" font-size="12" lengthAdjust="spacingAndGlyphs" textLength="55" x="187" y="341.1543">codegen</text><line style="stroke: #A80036; stroke-width: 1.5;" x1="159" x2="244" y1="353" y2="353"/><line style="stroke: #A80036; stroke-width: 1.5;" x1="159" x2="244" y1="361" y2="361"/><path d="M969.25,171.787 C969.25,195.623 969.25,223.427 969.25,249.652 " fill="none" style="stroke: #A80036; stroke-width: 1.0;"/><polygon fill="none" points="976.25,249.771,969.25,269.771,962.25,249.771,976.25,249.771" style="stroke: #A80036; stroke-width: 1.0;"/></g></svg>