<?xml version="1.0" encoding="UTF-8" standalone="no"?><svg xmlns="http://www.w3.org/2000/svg" xmlns:xlink="http://www.w3.org/1999/xlink" contentScriptType="application/ecmascript" contentStyleType="text/css" height="653px" preserveAspectRatio="none" style="width:1301px;height:653px;" version="1.1" viewBox="0 0 1301 653" width="1301px" zoomAndPan="magnify"><defs><filter height="300%" id="f70hixb" width="300%" x="-1" y="-1"><feGaussianBlur result="blurOut" stdDeviation="2.0"/><feColorMatrix in="blurOut" result="blurOut2" type="matrix" values="0 0 0 0 0 0 0 0 0 0 0 0 0 0 0 0 0 0 .4 0"/><feOffset dx="4.0" dy="4.0" in="blurOut2" result="blurOut3"/><feBlend in="SourceGraphic" in2="blurOut3" mode="normal"/></filter></defs><g><!--class Identifiable--><rect fill="#FEFECE" filter="url(#f70hixb)" height="176.0469" style="stroke: #A80036; stroke-width: 1.5;" width="319" x="796" y="468"/><ellipse cx="916.75" cy="484" fill="#ADD1B2" rx="11" ry="11" style="stroke: #A80036; stroke-width: 1.0;"/><path d="M919.7188,489.6406 Q919.1406,489.9375 918.5,490.0859 Q917.8594,490.2344 917.1563,490.2344 Q914.6563,490.2344 913.3359,488.5859 Q912.0156,486.9375 912.0156,483.8125 Q912.0156,480.6875 913.3359,479.0313 Q914.6563,477.375 917.1563,477.375 Q917.8594,477.375 918.5078,477.5313 Q919.1563,477.6875 919.7188,477.9844 L919.7188,480.7031 Q919.0938,480.125 918.5,479.8516 Q917.9063,479.5781 917.2813,479.5781 Q915.9375,479.5781 915.25,480.6484 Q914.5625,481.7188 914.5625,483.8125 Q914.5625,485.9063 915.25,486.9766 Q915.9375,488.0469 917.2813,488.0469 Q917.9063,488.0469 918.5,487.7734 Q919.0938,487.5 919.7188,486.9219 L919.7188,489.6406 Z "/><text fill="#000000" font-family="sans-serif" font-size="12" lengthAdjust="spacingAndGlyphs" textLength="69" x="937.25" y="488.1543">Identifiable</text><line style="stroke: #A80036; stroke-width: 1.5;" x1="797" x2="1114" y1="500" y2="500"/><line style="stroke: #A80036; stroke-width: 1.5;" x1="797" x2="1114" y1="508" y2="508"/><rect fill="#F24D5C" height="6" style="stroke: #C82930; stroke-width: 1.0;" width="6" x="804" y="516.9023"/><text fill="#000000" font-family="sans-serif" font-size="11" lengthAdjust="spacingAndGlyphs" textLength="293" x="816" y="522.2104">void constructor(ModelManager,string,string,string)</text><rect fill="#F24D5C" height="6" style="stroke: #C82930; stroke-width: 1.0;" width="6" x="804" y="529.707"/><text fill="#000000" font-family="sans-serif" font-size="11" lengthAdjust="spacingAndGlyphs" textLength="161" x="816" y="535.0151">Object accept(Object,Object)</text><rect fill="#F24D5C" height="6" style="stroke: #C82930; stroke-width: 1.0;" width="6" x="804" y="542.5117"/><text fill="#000000" font-family="sans-serif" font-size="11" lengthAdjust="spacingAndGlyphs" textLength="194" x="816" y="547.8198">ModelManager getModelManager()</text><ellipse cx="807" cy="558.3164" fill="#84BE84" rx="3" ry="3" style="stroke: #038048; stroke-width: 1.0;"/><text fill="#000000" font-family="sans-serif" font-size="11" lengthAdjust="spacingAndGlyphs" textLength="113" x="816" y="560.6245">string getIdentifier()</text><ellipse cx="807" cy="571.1211" fill="#84BE84" rx="3" ry="3" style="stroke: #038048; stroke-width: 1.0;"/><text fill="#000000" font-family="sans-serif" font-size="11" lengthAdjust="spacingAndGlyphs" textLength="188" x="816" y="573.4292">string getFullyQualifiedIdentifier()</text><ellipse cx="807" cy="583.9258" fill="#84BE84" rx="3" ry="3" style="stroke: #038048; stroke-width: 1.0;"/><text fill="#000000" font-family="sans-serif" font-size="11" lengthAdjust="spacingAndGlyphs" textLength="90" x="816" y="586.2339">string getType()</text><ellipse cx="807" cy="596.7305" fill="#84BE84" rx="3" ry="3" style="stroke: #038048; stroke-width: 1.0;"/><text fill="#000000" font-family="sans-serif" font-size="11" lengthAdjust="spacingAndGlyphs" textLength="165" x="816" y="599.0386">string getFullyQualifiedType()</text><ellipse cx="807" cy="609.5352" fill="#84BE84" rx="3" ry="3" style="stroke: #038048; stroke-width: 1.0;"/><text fill="#000000" font-family="sans-serif" font-size="11" lengthAdjust="spacingAndGlyphs" textLength="130" x="816" y="611.8433">string getNamespace()</text><ellipse cx="807" cy="622.3398" fill="#84BE84" rx="3" ry="3" style="stroke: #038048; stroke-width: 1.0;"/><text fill="#000000" font-family="sans-serif" font-size="11" lengthAdjust="spacingAndGlyphs" textLength="91" x="816" y="624.6479">String toString()</text><rect fill="#F24D5C" height="6" style="stroke: #C82930; stroke-width: 1.0;" width="6" x="804" y="632.1445"/><text fill="#000000" font-family="sans-serif" font-size="11" lengthAdjust="spacingAndGlyphs" textLength="191" x="816" y="637.4526">boolean isSystemProperty(string)</text><!--class Resource--><rect fill="#FEFECE" filter="url(#f70hixb)" height="124.8281" style="stroke: #A80036; stroke-width: 1.5;" width="319" x="619" y="282.5"/><ellipse cx="744.75" cy="298.5" fill="#ADD1B2" rx="11" ry="11" style="stroke: #A80036; stroke-width: 1.0;"/><path d="M747.7188,304.1406 Q747.1406,304.4375 746.5,304.5859 Q745.8594,304.7344 745.1563,304.7344 Q742.6563,304.7344 741.3359,303.0859 Q740.0156,301.4375 740.0156,298.3125 Q740.0156,295.1875 741.3359,293.5313 Q742.6563,291.875 745.1563,291.875 Q745.8594,291.875 746.5078,292.0313 Q747.1563,292.1875 747.7188,292.4844 L747.7188,295.2031 Q747.0938,294.625 746.5,294.3516 Q745.9063,294.0781 745.2813,294.0781 Q743.9375,294.0781 743.25,295.1484 Q742.5625,296.2188 742.5625,298.3125 Q742.5625,300.4063 743.25,301.4766 Q743.9375,302.5469 745.2813,302.5469 Q745.9063,302.5469 746.5,302.2734 Q747.0938,302 747.7188,301.4219 L747.7188,304.1406 Z "/><text fill="#000000" font-family="sans-serif" font-size="12" lengthAdjust="spacingAndGlyphs" textLength="59" x="765.25" y="302.6543">Resource</text><line style="stroke: #A80036; stroke-width: 1.5;" x1="620" x2="937" y1="314.5" y2="314.5"/><line style="stroke: #A80036; stroke-width: 1.5;" x1="620" x2="937" y1="322.5" y2="322.5"/><rect fill="#F24D5C" height="6" style="stroke: #C82930; stroke-width: 1.0;" width="6" x="627" y="331.4023"/><text fill="#000000" font-family="sans-serif" font-size="11" lengthAdjust="spacingAndGlyphs" textLength="293" x="639" y="336.7104">void constructor(ModelManager,string,string,string)</text><ellipse cx="630" cy="347.207" fill="#84BE84" rx="3" ry="3" style="stroke: #038048; stroke-width: 1.0;"/><text fill="#000000" font-family="sans-serif" font-size="11" lengthAdjust="spacingAndGlyphs" textLength="202" x="639" y="349.5151">void setPropertyValue(string,string)</text><ellipse cx="630" cy="360.0117" fill="#84BE84" rx="3" ry="3" style="stroke: #038048; stroke-width: 1.0;"/><text fill="#000000" font-family="sans-serif" font-size="11" lengthAdjust="spacingAndGlyphs" textLength="187" x="639" y="362.3198">void addArrayValue(string,string)</text><rect fill="#F24D5C" height="6" style="stroke: #C82930; stroke-width: 1.0;" width="6" x="627" y="369.8164"/><text fill="#000000" font-family="sans-serif" font-size="11" lengthAdjust="spacingAndGlyphs" textLength="146" x="639" y="375.1245">void assignFieldDefaults()</text><rect fill="#F24D5C" height="6" style="stroke: #C82930; stroke-width: 1.0;" width="6" x="627" y="382.6211"/><text fill="#000000" font-family="sans-serif" font-size="11" lengthAdjust="spacingAndGlyphs" textLength="222" x="639" y="387.9292">ClassDeclaration getClassDeclaration()</text><rect fill="#F24D5C" height="6" style="stroke: #C82930; stroke-width: 1.0;" width="6" x="627" y="395.4258"/><text fill="#000000" font-family="sans-serif" font-size="11" lengthAdjust="spacingAndGlyphs" textLength="74" x="639" y="400.7339">void toJSON()</text><!--class ResourceValidator--><rect fill="#FEFECE" filter="url(#f70hixb)" height="214.4609" style="stroke: #A80036; stroke-width: 1.5;" width="403" x="6" y="8"/><ellipse cx="145.75" cy="24" fill="#ADD1B2" rx="11" ry="11" style="stroke: #A80036; stroke-width: 1.0;"/><path d="M148.7188,29.6406 Q148.1406,29.9375 147.5,30.0859 Q146.8594,30.2344 146.1563,30.2344 Q143.6563,30.2344 142.3359,28.5859 Q141.0156,26.9375 141.0156,23.8125 Q141.0156,20.6875 142.3359,19.0313 Q143.6563,17.375 146.1563,17.375 Q146.8594,17.375 147.5078,17.5313 Q148.1563,17.6875 148.7188,17.9844 L148.7188,20.7031 Q148.0938,20.125 147.5,19.8516 Q146.9063,19.5781 146.2813,19.5781 Q144.9375,19.5781 144.25,20.6484 Q143.5625,21.7188 143.5625,23.8125 Q143.5625,25.9063 144.25,26.9766 Q144.9375,28.0469 146.2813,28.0469 Q146.9063,28.0469 147.5,27.7734 Q148.0938,27.5 148.7188,26.9219 L148.7188,29.6406 Z "/><text fill="#000000" font-family="sans-serif" font-size="12" lengthAdjust="spacingAndGlyphs" textLength="115" x="166.25" y="28.1543">ResourceValidator</text><line style="stroke: #A80036; stroke-width: 1.5;" x1="7" x2="408" y1="40" y2="40"/><line style="stroke: #A80036; stroke-width: 1.5;" x1="7" x2="408" y1="48" y2="48"/><rect fill="#F24D5C" height="6" style="stroke: #C82930; stroke-width: 1.0;" width="6" x="14" y="56.9023"/><text fill="#000000" font-family="sans-serif" font-size="11" lengthAdjust="spacingAndGlyphs" textLength="147" x="26" y="62.2104">Object visit(Object,Object)</text><rect fill="#F24D5C" height="6" style="stroke: #C82930; stroke-width: 1.0;" width="6" x="14" y="69.707"/><text fill="#000000" font-family="sans-serif" font-size="11" lengthAdjust="spacingAndGlyphs" textLength="303" x="26" y="75.0151">Object visitEnumDeclaration(EnumDeclaration,Object)</text><rect fill="#F24D5C" height="6" style="stroke: #C82930; stroke-width: 1.0;" width="6" x="14" y="82.5117"/><text fill="#000000" font-family="sans-serif" font-size="11" lengthAdjust="spacingAndGlyphs" textLength="303" x="26" y="87.8198">Object visitClassDeclaration(ClassDeclaration,Object)</text><rect fill="#F24D5C" height="6" style="stroke: #C82930; stroke-width: 1.0;" width="6" x="14" y="95.3164"/><text fill="#000000" font-family="sans-serif" font-size="11" lengthAdjust="spacingAndGlyphs" textLength="163" x="26" y="100.6245">Object visitField(Field,Object)</text><rect fill="#F24D5C" height="6" style="stroke: #C82930; stroke-width: 1.0;" width="6" x="14" y="108.1211"/><text fill="#000000" font-family="sans-serif" font-size="11" lengthAdjust="spacingAndGlyphs" textLength="205" x="26" y="113.4292">void checkEnum(Object,Field,Object)</text><rect fill="#F24D5C" height="6" style="stroke: #C82930; stroke-width: 1.0;" width="6" x="14" y="120.9258"/><text fill="#000000" font-family="sans-serif" font-size="11" lengthAdjust="spacingAndGlyphs" textLength="203" x="26" y="126.2339">void checkArray(Object,Field,Object)</text><rect fill="#F24D5C" height="6" style="stroke: #C82930; stroke-width: 1.0;" width="6" x="14" y="133.7305"/><text fill="#000000" font-family="sans-serif" font-size="11" lengthAdjust="spacingAndGlyphs" textLength="198" x="26" y="139.0386">void checkItem(Object,Field,Object)</text><rect fill="#F24D5C" height="6" style="stroke: #C82930; stroke-width: 1.0;" width="6" x="14" y="146.5352"/><text fill="#000000" font-family="sans-serif" font-size="11" lengthAdjust="spacingAndGlyphs" textLength="377" x="26" y="151.8433">Object visitRelationshipDeclaration(RelationshipDeclaration,Object)</text><ellipse cx="17" cy="162.3398" fill="#84BE84" rx="3" ry="3" style="stroke: #038048; stroke-width: 1.0;"/><text fill="#000000" font-family="sans-serif" font-size="11" lengthAdjust="spacingAndGlyphs" textLength="124" x="26" y="164.6479">void log(String,String)</text><rect fill="#F24D5C" height="6" style="stroke: #C82930; stroke-width: 1.0;" width="6" x="14" y="172.1445"/><text fill="#000000" font-family="sans-serif" font-size="11" lengthAdjust="spacingAndGlyphs" textLength="261" x="26" y="177.4526">void reportModelViolation(string,string,*,Field)</text><rect fill="#F24D5C" height="6" style="stroke: #C82930; stroke-width: 1.0;" width="6" x="14" y="184.9492"/><text fill="#000000" font-family="sans-serif" font-size="11" lengthAdjust="spacingAndGlyphs" textLength="321" x="26" y="190.2573">void reportClassViolation(string,classDeclaration,Object)</text><rect fill="#F24D5C" height="6" style="stroke: #C82930; stroke-width: 1.0;" width="6" x="14" y="197.7539"/><text fill="#000000" font-family="sans-serif" font-size="11" lengthAdjust="spacingAndGlyphs" textLength="274" x="26" y="203.062">void reportMissingRequiredProperty(string,Field)</text><rect fill="#F24D5C" height="6" style="stroke: #C82930; stroke-width: 1.0;" width="6" x="14" y="210.5586"/><text fill="#000000" font-family="sans-serif" font-size="11" lengthAdjust="spacingAndGlyphs" textLength="269" x="26" y="215.8667">void reportInvalidEnumValue(string,Field,string)</text><!--class ValidatedResource--><rect fill="#FEFECE" filter="url(#f70hixb)" height="99.2188" style="stroke: #A80036; stroke-width: 1.5;" width="426" x="565.75" y="65.5"/><ellipse cx="715.5" cy="81.5" fill="#ADD1B2" rx="11" ry="11" style="stroke: #A80036; stroke-width: 1.0;"/><path d="M718.4688,87.1406 Q717.8906,87.4375 717.25,87.5859 Q716.6094,87.7344 715.9063,87.7344 Q713.4063,87.7344 712.0859,86.0859 Q710.7656,84.4375 710.7656,81.3125 Q710.7656,78.1875 712.0859,76.5313 Q713.4063,74.875 715.9063,74.875 Q716.6094,74.875 717.2578,75.0313 Q717.9063,75.1875 718.4688,75.4844 L718.4688,78.2031 Q717.8438,77.625 717.25,77.3516 Q716.6563,77.0781 716.0313,77.0781 Q714.6875,77.0781 714,78.1484 Q713.3125,79.2188 713.3125,81.3125 Q713.3125,83.4063 714,84.4766 Q714.6875,85.5469 716.0313,85.5469 Q716.6563,85.5469 717.25,85.2734 Q717.8438,85 718.4688,84.4219 L718.4688,87.1406 Z "/><text fill="#000000" font-family="sans-serif" font-size="12" lengthAdjust="spacingAndGlyphs" textLength="118" x="736" y="85.6543">ValidatedResource</text><line style="stroke: #A80036; stroke-width: 1.5;" x1="566.75" x2="990.75" y1="97.5" y2="97.5"/><line style="stroke: #A80036; stroke-width: 1.5;" x1="566.75" x2="990.75" y1="105.5" y2="105.5"/><rect fill="#F24D5C" height="6" style="stroke: #C82930; stroke-width: 1.0;" width="6" x="573.75" y="114.4023"/><text fill="#000000" font-family="sans-serif" font-size="11" lengthAdjust="spacingAndGlyphs" textLength="400" x="585.75" y="119.7104">void constructor(ModelManager,string,string,string,ResourceValidator)</text><ellipse cx="576.75" cy="130.207" fill="#84BE84" rx="3" ry="3" style="stroke: #038048; stroke-width: 1.0;"/><text fill="#000000" font-family="sans-serif" font-size="11" lengthAdjust="spacingAndGlyphs" textLength="202" x="585.75" y="132.5151">void setPropertyValue(string,string)</text><ellipse cx="576.75" cy="143.0117" fill="#84BE84" rx="3" ry="3" style="stroke: #038048; stroke-width: 1.0;"/><text fill="#000000" font-family="sans-serif" font-size="11" lengthAdjust="spacingAndGlyphs" textLength="187" x="585.75" y="145.3198">void addArrayValue(string,string)</text><ellipse cx="576.75" cy="155.8164" fill="#84BE84" rx="3" ry="3" style="stroke: #038048; stroke-width: 1.0;"/><text fill="#000000" font-family="sans-serif" font-size="11" lengthAdjust="spacingAndGlyphs" textLength="79" x="585.75" y="158.1245">void validate()</text><!--class Relationship--><rect fill="#FEFECE" filter="url(#f70hixb)" height="60.8047" style="stroke: #A80036; stroke-width: 1.5;" width="319" x="973" y="314.5"/><ellipse cx="1089.75" cy="330.5" fill="#ADD1B2" rx="11" ry="11" style="stroke: #A80036; stroke-width: 1.0;"/><path d="M1092.7188,336.1406 Q1092.1406,336.4375 1091.5,336.5859 Q1090.8594,336.7344 1090.1563,336.7344 Q1087.6563,336.7344 1086.3359,335.0859 Q1085.0156,333.4375 1085.0156,330.3125 Q1085.0156,327.1875 1086.3359,325.5313 Q1087.6563,323.875 1090.1563,323.875 Q1090.8594,323.875 1091.5078,324.0313 Q1092.1563,324.1875 1092.7188,324.4844 L1092.7188,327.2031 Q1092.0938,326.625 1091.5,326.3516 Q1090.9063,326.0781 1090.2813,326.0781 Q1088.9375,326.0781 1088.25,327.1484 Q1087.5625,328.2188 1087.5625,330.3125 Q1087.5625,332.4063 1088.25,333.4766 Q1088.9375,334.5469 1090.2813,334.5469 Q1090.9063,334.5469 1091.5,334.2734 Q1092.0938,334 1092.7188,333.4219 L1092.7188,336.1406 Z "/><text fill="#000000" font-family="sans-serif" font-size="12" lengthAdjust="spacingAndGlyphs" textLength="77" x="1110.25" y="334.6543">Relationship</text><line style="stroke: #A80036; stroke-width: 1.5;" x1="974" x2="1291" y1="346.5" y2="346.5"/><line style="stroke: #A80036; stroke-width: 1.5;" x1="974" x2="1291" y1="354.5" y2="354.5"/><rect fill="#F24D5C" height="6" style="stroke: #C82930; stroke-width: 1.0;" width="6" x="981" y="363.4023"/><text fill="#000000" font-family="sans-serif" font-size="11" lengthAdjust="spacingAndGlyphs" textLength="293" x="993" y="368.7104">void constructor(ModelManager,string,string,string)</text><!--class globalize--><rect fill="#FEFECE" filter="url(#f70hixb)" height="48" style="stroke: #A80036; stroke-width: 1.5;" width="86" x="444.25" y="91"/><ellipse cx="459.25" cy="107" fill="#DA70D6" rx="11" ry="11" style="stroke: #A80036; stroke-width: 1.0;"/><path d="M459.0469,102.6719 L459.0469,106.2969 L460.0469,106.2969 Q461.25,106.2969 461.7344,105.8906 Q462.2188,105.4844 462.2188,104.4844 Q462.2188,103.4844 461.7344,103.0781 Q461.25,102.6719 460.0469,102.6719 L459.0469,102.6719 Z M456.5938,100.6094 L459.9531,100.6094 Q462.5156,100.6094 463.6406,101.5234 Q464.7656,102.4375 464.7656,104.4844 Q464.7656,106.5313 463.6406,107.4453 Q462.5156,108.3594 459.9531,108.3594 L459.0469,108.3594 L459.0469,113 L456.5938,113 L456.5938,100.6094 Z "/><text fill="#000000" font-family="sans-serif" font-size="12" lengthAdjust="spacingAndGlyphs" textLength="54" x="473.25" y="111.1543">globalize</text><line style="stroke: #A80036; stroke-width: 1.5;" x1="445.25" x2="529.25" y1="123" y2="123"/><line style="stroke: #A80036; stroke-width: 1.5;" x1="445.25" x2="529.25" y1="131" y2="131"/><!--class Factory--><rect fill="#FEFECE" filter="url(#f70hixb)" height="86.4141" style="stroke: #A80036; stroke-width: 1.5;" width="318" x="48.75" y="302"/><ellipse cx="180.5" cy="318" fill="#ADD1B2" rx="11" ry="11" style="stroke: #A80036; stroke-width: 1.0;"/><path d="M183.4688,323.6406 Q182.8906,323.9375 182.25,324.0859 Q181.6094,324.2344 180.9063,324.2344 Q178.4063,324.2344 177.0859,322.5859 Q175.7656,320.9375 175.7656,317.8125 Q175.7656,314.6875 177.0859,313.0313 Q178.4063,311.375 180.9063,311.375 Q181.6094,311.375 182.2578,311.5313 Q182.9063,311.6875 183.4688,311.9844 L183.4688,314.7031 Q182.8438,314.125 182.25,313.8516 Q181.6563,313.5781 181.0313,313.5781 Q179.6875,313.5781 179,314.6484 Q178.3125,315.7188 178.3125,317.8125 Q178.3125,319.9063 179,320.9766 Q179.6875,322.0469 181.0313,322.0469 Q181.6563,322.0469 182.25,321.7734 Q182.8438,321.5 183.4688,320.9219 L183.4688,323.6406 Z "/><text fill="#000000" font-family="sans-serif" font-size="12" lengthAdjust="spacingAndGlyphs" textLength="46" x="201" y="322.1543">Factory</text><line style="stroke: #A80036; stroke-width: 1.5;" x1="49.75" x2="365.75" y1="334" y2="334"/><line style="stroke: #A80036; stroke-width: 1.5;" x1="49.75" x2="365.75" y1="342" y2="342"/><ellipse cx="59.75" cy="353.9023" fill="#84BE84" rx="3" ry="3" style="stroke: #038048; stroke-width: 1.0;"/><text fill="#000000" font-family="sans-serif" font-size="11" lengthAdjust="spacingAndGlyphs" textLength="182" x="68.75" y="356.2104">void constructor(ModelManager)</text><ellipse cx="59.75" cy="366.707" fill="#84BE84" rx="3" ry="3" style="stroke: #038048; stroke-width: 1.0;"/><text fill="#000000" font-family="sans-serif" font-size="11" lengthAdjust="spacingAndGlyphs" textLength="292" x="68.75" y="369.0151">Resource newInstance(string,string,string,boolean)</text><ellipse cx="59.75" cy="379.5117" fill="#84BE84" rx="3" ry="3" style="stroke: #038048; stroke-width: 1.0;"/><text fill="#000000" font-family="sans-serif" font-size="11" lengthAdjust="spacingAndGlyphs" textLength="280" x="68.75" y="381.8198">Relationship newRelationship(string,string,string)</text><path d="M830.399,407.576 C842.406,421.755 855.494,437.209 868.53,452.602 " fill="none" style="stroke: #A80036; stroke-width: 1.0;"/><polygon fill="none" points="873.924,448.14,881.508,467.926,863.241,457.188,873.924,448.14" style="stroke: #A80036; stroke-width: 1.0;"/><path d="M778.25,164.632 C778.25,192.982 778.25,229.478 778.25,262.14 " fill="none" style="stroke: #A80036; stroke-width: 1.0;"/><polygon fill="none" points="785.25,262.399,778.25,282.399,771.25,262.399,785.25,262.399" style="stroke: #A80036; stroke-width: 1.0;"/><path d="M1107.27,375.501 C1090.06,395.818 1066.08,424.13 1042.25,452.27 " fill="none" style="stroke: #A80036; stroke-width: 1.0;"/><polygon fill="none" points="1047.34,457.095,1029.07,467.834,1036.65,448.048,1047.34,457.095" style="stroke: #A80036; stroke-width: 1.0;"/></g></svg>