<?xml version="1.0" encoding="UTF-8" standalone="no"?><svg xmlns="http://www.w3.org/2000/svg" xmlns:xlink="http://www.w3.org/1999/xlink" contentScriptType="application/ecmascript" contentStyleType="text/css" height="520px" preserveAspectRatio="none" style="width:1613px;height:520px;" version="1.1" viewBox="0 0 1613 520" width="1613px" zoomAndPan="magnify"><defs><filter height="300%" id="futgo63" width="300%" x="-1" y="-1"><feGaussianBlur result="blurOut" stdDeviation="2.0"/><feColorMatrix in="blurOut" result="blurOut2" type="matrix" values="0 0 0 0 0 0 0 0 0 0 0 0 0 0 0 0 0 0 .4 0"/><feOffset dx="4.0" dy="4.0" in="blurOut2" result="blurOut3"/><feBlend in="SourceGraphic" in2="blurOut3" mode="normal"/></filter></defs><g><!--class Property--><rect fill="#FEFECE" filter="url(#futgo63)" height="240.0703" style="stroke: #A80036; stroke-width: 1.5;" width="262" x="303" y="265"/><ellipse cx="403.25" cy="281" fill="#ADD1B2" rx="11" ry="11" style="stroke: #A80036; stroke-width: 1.0;"/><path d="M406.2188,286.6406 Q405.6406,286.9375 405,287.0859 Q404.3594,287.2344 403.6563,287.2344 Q401.1563,287.2344 399.8359,285.5859 Q398.5156,283.9375 398.5156,280.8125 Q398.5156,277.6875 399.8359,276.0313 Q401.1563,274.375 403.6563,274.375 Q404.3594,274.375 405.0078,274.5313 Q405.6563,274.6875 406.2188,274.9844 L406.2188,277.7031 Q405.5938,277.125 405,276.8516 Q404.4063,276.5781 403.7813,276.5781 Q402.4375,276.5781 401.75,277.6484 Q401.0625,278.7188 401.0625,280.8125 Q401.0625,282.9063 401.75,283.9766 Q402.4375,285.0469 403.7813,285.0469 Q404.4063,285.0469 405,284.7734 Q405.5938,284.5 406.2188,283.9219 L406.2188,286.6406 Z "/><text fill="#000000" font-family="sans-serif" font-size="12" lengthAdjust="spacingAndGlyphs" textLength="53" x="423.75" y="285.1543">Property</text><line style="stroke: #A80036; stroke-width: 1.5;" x1="304" x2="564" y1="297" y2="297"/><line style="stroke: #A80036; stroke-width: 1.5;" x1="304" x2="564" y1="305" y2="305"/><ellipse cx="314" cy="316.9023" fill="#84BE84" rx="3" ry="3" style="stroke: #038048; stroke-width: 1.0;"/><text fill="#000000" font-family="sans-serif" font-size="11" lengthAdjust="spacingAndGlyphs" textLength="236" x="323" y="319.2104">void constructor(ClassDeclaration,Object)</text><rect fill="#F24D5C" height="6" style="stroke: #C82930; stroke-width: 1.0;" width="6" x="311" y="326.707"/><text fill="#000000" font-family="sans-serif" font-size="11" lengthAdjust="spacingAndGlyphs" textLength="161" x="323" y="332.0151">Object accept(Object,Object)</text><ellipse cx="314" cy="342.5117" fill="#84BE84" rx="3" ry="3" style="stroke: #038048; stroke-width: 1.0;"/><text fill="#000000" font-family="sans-serif" font-size="11" lengthAdjust="spacingAndGlyphs" textLength="163" x="323" y="344.8198">ClassDeclaration getParent()</text><rect fill="#F24D5C" height="6" style="stroke: #C82930; stroke-width: 1.0;" width="6" x="311" y="352.3164"/><text fill="#000000" font-family="sans-serif" font-size="11" lengthAdjust="spacingAndGlyphs" textLength="81" x="323" y="357.6245">void process()</text><rect fill="#F24D5C" height="6" style="stroke: #C82930; stroke-width: 1.0;" width="6" x="311" y="365.1211"/><text fill="#000000" font-family="sans-serif" font-size="11" lengthAdjust="spacingAndGlyphs" textLength="175" x="323" y="370.4292">void validate(ClassDeclaration)</text><ellipse cx="314" cy="380.9258" fill="#84BE84" rx="3" ry="3" style="stroke: #038048; stroke-width: 1.0;"/><text fill="#000000" font-family="sans-serif" font-size="11" lengthAdjust="spacingAndGlyphs" textLength="96" x="323" y="383.2339">string getName()</text><ellipse cx="314" cy="393.7305" fill="#84BE84" rx="3" ry="3" style="stroke: #038048; stroke-width: 1.0;"/><text fill="#000000" font-family="sans-serif" font-size="11" lengthAdjust="spacingAndGlyphs" textLength="90" x="323" y="396.0386">string getType()</text><ellipse cx="314" cy="406.5352" fill="#84BE84" rx="3" ry="3" style="stroke: #038048; stroke-width: 1.0;"/><text fill="#000000" font-family="sans-serif" font-size="11" lengthAdjust="spacingAndGlyphs" textLength="114" x="323" y="408.8433">boolean isOptional()</text><ellipse cx="314" cy="419.3398" fill="#84BE84" rx="3" ry="3" style="stroke: #038048; stroke-width: 1.0;"/><text fill="#000000" font-family="sans-serif" font-size="11" lengthAdjust="spacingAndGlyphs" textLength="198" x="323" y="421.6479">string getFullyQualifiedTypeName()</text><ellipse cx="314" cy="432.1445" fill="#84BE84" rx="3" ry="3" style="stroke: #038048; stroke-width: 1.0;"/><text fill="#000000" font-family="sans-serif" font-size="11" lengthAdjust="spacingAndGlyphs" textLength="130" x="323" y="434.4526">string getNamespace()</text><ellipse cx="314" cy="444.9492" fill="#84BE84" rx="3" ry="3" style="stroke: #038048; stroke-width: 1.0;"/><text fill="#000000" font-family="sans-serif" font-size="11" lengthAdjust="spacingAndGlyphs" textLength="97" x="323" y="447.2573">boolean isArray()</text><ellipse cx="314" cy="457.7539" fill="#84BE84" rx="3" ry="3" style="stroke: #038048; stroke-width: 1.0;"/><text fill="#000000" font-family="sans-serif" font-size="11" lengthAdjust="spacingAndGlyphs" textLength="126" x="323" y="460.062">boolean isTypeEnum()</text><ellipse cx="314" cy="470.5586" fill="#84BE84" rx="3" ry="3" style="stroke: #038048; stroke-width: 1.0;"/><text fill="#000000" font-family="sans-serif" font-size="11" lengthAdjust="spacingAndGlyphs" textLength="116" x="323" y="472.8667">boolean isPrimitive()</text><ellipse cx="314" cy="483.3633" fill="#84BE84" rx="3" ry="3" style="stroke: #038048; stroke-width: 1.0;"/><text fill="#000000" font-family="sans-serif" font-size="11" lengthAdjust="spacingAndGlyphs" textLength="91" x="323" y="485.6714">String toString()</text><ellipse cx="314" cy="496.168" fill="#84BE84" rx="3" ry="3" style="stroke: #038048; stroke-width: 1.0;"/><text fill="#000000" font-family="sans-serif" font-size="11" lengthAdjust="spacingAndGlyphs" textLength="87" x="323" y="498.4761">Object toJSON()</text><!--class Field--><rect fill="#FEFECE" filter="url(#futgo63)" height="112.0234" style="stroke: #A80036; stroke-width: 1.5;" width="262" x="6" y="47"/><ellipse cx="118.25" cy="63" fill="#ADD1B2" rx="11" ry="11" style="stroke: #A80036; stroke-width: 1.0;"/><path d="M121.2188,68.6406 Q120.6406,68.9375 120,69.0859 Q119.3594,69.2344 118.6563,69.2344 Q116.1563,69.2344 114.8359,67.5859 Q113.5156,65.9375 113.5156,62.8125 Q113.5156,59.6875 114.8359,58.0313 Q116.1563,56.375 118.6563,56.375 Q119.3594,56.375 120.0078,56.5313 Q120.6563,56.6875 121.2188,56.9844 L121.2188,59.7031 Q120.5938,59.125 120,58.8516 Q119.4063,58.5781 118.7813,58.5781 Q117.4375,58.5781 116.75,59.6484 Q116.0625,60.7188 116.0625,62.8125 Q116.0625,64.9063 116.75,65.9766 Q117.4375,67.0469 118.7813,67.0469 Q119.4063,67.0469 120,66.7734 Q120.5938,66.5 121.2188,65.9219 L121.2188,68.6406 Z "/><text fill="#000000" font-family="sans-serif" font-size="12" lengthAdjust="spacingAndGlyphs" textLength="29" x="138.75" y="67.1543">Field</text><line style="stroke: #A80036; stroke-width: 1.5;" x1="7" x2="267" y1="79" y2="79"/><line style="stroke: #A80036; stroke-width: 1.5;" x1="7" x2="267" y1="87" y2="87"/><ellipse cx="17" cy="98.9023" fill="#84BE84" rx="3" ry="3" style="stroke: #038048; stroke-width: 1.0;"/><text fill="#000000" font-family="sans-serif" font-size="11" lengthAdjust="spacingAndGlyphs" textLength="236" x="26" y="101.2104">void constructor(ClassDeclaration,Object)</text><rect fill="#F24D5C" height="6" style="stroke: #C82930; stroke-width: 1.0;" width="6" x="14" y="108.707"/><text fill="#000000" font-family="sans-serif" font-size="11" lengthAdjust="spacingAndGlyphs" textLength="81" x="26" y="114.0151">void process()</text><ellipse cx="17" cy="124.5117" fill="#84BE84" rx="3" ry="3" style="stroke: #038048; stroke-width: 1.0;"/><text fill="#000000" font-family="sans-serif" font-size="11" lengthAdjust="spacingAndGlyphs" textLength="113" x="26" y="126.8198">string getValidator()</text><ellipse cx="17" cy="137.3164" fill="#84BE84" rx="3" ry="3" style="stroke: #038048; stroke-width: 1.0;"/><text fill="#000000" font-family="sans-serif" font-size="11" lengthAdjust="spacingAndGlyphs" textLength="134" x="26" y="139.6245">string getDefaultValue()</text><ellipse cx="17" cy="150.1211" fill="#84BE84" rx="3" ry="3" style="stroke: #038048; stroke-width: 1.0;"/><text fill="#000000" font-family="sans-serif" font-size="11" lengthAdjust="spacingAndGlyphs" textLength="87" x="26" y="152.4292">Object toJSON()</text><!--class EnumValueDeclaration--><rect fill="#FEFECE" filter="url(#futgo63)" height="73.6094" style="stroke: #A80036; stroke-width: 1.5;" width="262" x="303" y="66"/><ellipse cx="358.75" cy="82" fill="#ADD1B2" rx="11" ry="11" style="stroke: #A80036; stroke-width: 1.0;"/><path d="M361.7188,87.6406 Q361.1406,87.9375 360.5,88.0859 Q359.8594,88.2344 359.1563,88.2344 Q356.6563,88.2344 355.3359,86.5859 Q354.0156,84.9375 354.0156,81.8125 Q354.0156,78.6875 355.3359,77.0313 Q356.6563,75.375 359.1563,75.375 Q359.8594,75.375 360.5078,75.5313 Q361.1563,75.6875 361.7188,75.9844 L361.7188,78.7031 Q361.0938,78.125 360.5,77.8516 Q359.9063,77.5781 359.2813,77.5781 Q357.9375,77.5781 357.25,78.6484 Q356.5625,79.7188 356.5625,81.8125 Q356.5625,83.9063 357.25,84.9766 Q357.9375,86.0469 359.2813,86.0469 Q359.9063,86.0469 360.5,85.7734 Q361.0938,85.5 361.7188,84.9219 L361.7188,87.6406 Z "/><text fill="#000000" font-family="sans-serif" font-size="12" lengthAdjust="spacingAndGlyphs" textLength="142" x="379.25" y="86.1543">EnumValueDeclaration</text><line style="stroke: #A80036; stroke-width: 1.5;" x1="304" x2="564" y1="98" y2="98"/><line style="stroke: #A80036; stroke-width: 1.5;" x1="304" x2="564" y1="106" y2="106"/><ellipse cx="314" cy="117.9023" fill="#84BE84" rx="3" ry="3" style="stroke: #038048; stroke-width: 1.0;"/><text fill="#000000" font-family="sans-serif" font-size="11" lengthAdjust="spacingAndGlyphs" textLength="236" x="323" y="120.2104">void constructor(ClassDeclaration,Object)</text><rect fill="#F24D5C" height="6" style="stroke: #C82930; stroke-width: 1.0;" width="6" x="311" y="127.707"/><text fill="#000000" font-family="sans-serif" font-size="11" lengthAdjust="spacingAndGlyphs" textLength="175" x="323" y="133.0151">void validate(ClassDeclaration)</text><!--class IllegalModelException--><rect fill="#FEFECE" filter="url(#futgo63)" height="60.8047" style="stroke: #A80036; stroke-width: 1.5;" width="166" x="897" y="72.5"/><ellipse cx="912" cy="88.5" fill="#ADD1B2" rx="11" ry="11" style="stroke: #A80036; stroke-width: 1.0;"/><path d="M914.9688,94.1406 Q914.3906,94.4375 913.75,94.5859 Q913.1094,94.7344 912.4063,94.7344 Q909.9063,94.7344 908.5859,93.0859 Q907.2656,91.4375 907.2656,88.3125 Q907.2656,85.1875 908.5859,83.5313 Q909.9063,81.875 912.4063,81.875 Q913.1094,81.875 913.7578,82.0313 Q914.4063,82.1875 914.9688,82.4844 L914.9688,85.2031 Q914.3438,84.625 913.75,84.3516 Q913.1563,84.0781 912.5313,84.0781 Q911.1875,84.0781 910.5,85.1484 Q909.8125,86.2188 909.8125,88.3125 Q909.8125,90.4063 910.5,91.4766 Q911.1875,92.5469 912.5313,92.5469 Q913.1563,92.5469 913.75,92.2734 Q914.3438,92 914.9688,91.4219 L914.9688,94.1406 Z "/><text fill="#000000" font-family="sans-serif" font-size="12" lengthAdjust="spacingAndGlyphs" textLength="134" x="926" y="92.6543">IllegalModelException</text><line style="stroke: #A80036; stroke-width: 1.5;" x1="898" x2="1062" y1="104.5" y2="104.5"/><line style="stroke: #A80036; stroke-width: 1.5;" x1="898" x2="1062" y1="112.5" y2="112.5"/><ellipse cx="908" cy="124.4023" fill="#84BE84" rx="3" ry="3" style="stroke: #038048; stroke-width: 1.0;"/><text fill="#000000" font-family="sans-serif" font-size="11" lengthAdjust="spacingAndGlyphs" textLength="133" x="917" y="126.7104">void constructor(string)</text><!--class BaseException--><rect fill="#FEFECE" filter="url(#futgo63)" height="48" style="stroke: #A80036; stroke-width: 1.5;" width="124" x="918.5" y="361"/><ellipse cx="933.5" cy="377" fill="#ADD1B2" rx="11" ry="11" style="stroke: #A80036; stroke-width: 1.0;"/><path d="M936.4688,382.6406 Q935.8906,382.9375 935.25,383.0859 Q934.6094,383.2344 933.9063,383.2344 Q931.4063,383.2344 930.0859,381.5859 Q928.7656,379.9375 928.7656,376.8125 Q928.7656,373.6875 930.0859,372.0313 Q931.4063,370.375 933.9063,370.375 Q934.6094,370.375 935.2578,370.5313 Q935.9063,370.6875 936.4688,370.9844 L936.4688,373.7031 Q935.8438,373.125 935.25,372.8516 Q934.6563,372.5781 934.0313,372.5781 Q932.6875,372.5781 932,373.6484 Q931.3125,374.7188 931.3125,376.8125 Q931.3125,378.9063 932,379.9766 Q932.6875,381.0469 934.0313,381.0469 Q934.6563,381.0469 935.25,380.7734 Q935.8438,380.5 936.4688,379.9219 L936.4688,382.6406 Z "/><text fill="#000000" font-family="sans-serif" font-size="12" lengthAdjust="spacingAndGlyphs" textLength="92" x="947.5" y="381.1543">BaseException</text><line style="stroke: #A80036; stroke-width: 1.5;" x1="919.5" x2="1041.5" y1="393" y2="393"/><line style="stroke: #A80036; stroke-width: 1.5;" x1="919.5" x2="1041.5" y1="401" y2="401"/><!--class RelationshipDeclaration--><rect fill="#FEFECE" filter="url(#futgo63)" height="73.6094" style="stroke: #A80036; stroke-width: 1.5;" width="262" x="600" y="66"/><ellipse cx="652.25" cy="82" fill="#ADD1B2" rx="11" ry="11" style="stroke: #A80036; stroke-width: 1.0;"/><path d="M655.2188,87.6406 Q654.6406,87.9375 654,88.0859 Q653.3594,88.2344 652.6563,88.2344 Q650.1563,88.2344 648.8359,86.5859 Q647.5156,84.9375 647.5156,81.8125 Q647.5156,78.6875 648.8359,77.0313 Q650.1563,75.375 652.6563,75.375 Q653.3594,75.375 654.0078,75.5313 Q654.6563,75.6875 655.2188,75.9844 L655.2188,78.7031 Q654.5938,78.125 654,77.8516 Q653.4063,77.5781 652.7813,77.5781 Q651.4375,77.5781 650.75,78.6484 Q650.0625,79.7188 650.0625,81.8125 Q650.0625,83.9063 650.75,84.9766 Q651.4375,86.0469 652.7813,86.0469 Q653.4063,86.0469 654,85.7734 Q654.5938,85.5 655.2188,84.9219 L655.2188,87.6406 Z "/><text fill="#000000" font-family="sans-serif" font-size="12" lengthAdjust="spacingAndGlyphs" textLength="149" x="672.75" y="86.1543">RelationshipDeclaration</text><line style="stroke: #A80036; stroke-width: 1.5;" x1="601" x2="861" y1="98" y2="98"/><line style="stroke: #A80036; stroke-width: 1.5;" x1="601" x2="861" y1="106" y2="106"/><ellipse cx="611" cy="117.9023" fill="#84BE84" rx="3" ry="3" style="stroke: #038048; stroke-width: 1.0;"/><text fill="#000000" font-family="sans-serif" font-size="11" lengthAdjust="spacingAndGlyphs" textLength="236" x="620" y="120.2104">void constructor(ClassDeclaration,Object)</text><rect fill="#F24D5C" height="6" style="stroke: #C82930; stroke-width: 1.0;" width="6" x="608" y="127.707"/><text fill="#000000" font-family="sans-serif" font-size="11" lengthAdjust="spacingAndGlyphs" textLength="175" x="620" y="133.0151">void validate(ClassDeclaration)</text><!--class ClassDeclaration--><rect fill="#FEFECE" filter="url(#futgo63)" height="252.875" style="stroke: #A80036; stroke-width: 1.5;" width="215" x="1099.75" y="258.5"/><ellipse cx="1150.5" cy="274.5" fill="#ADD1B2" rx="11" ry="11" style="stroke: #A80036; stroke-width: 1.0;"/><path d="M1153.4688,280.1406 Q1152.8906,280.4375 1152.25,280.5859 Q1151.6094,280.7344 1150.9063,280.7344 Q1148.4063,280.7344 1147.0859,279.0859 Q1145.7656,277.4375 1145.7656,274.3125 Q1145.7656,271.1875 1147.0859,269.5313 Q1148.4063,267.875 1150.9063,267.875 Q1151.6094,267.875 1152.2578,268.0313 Q1152.9063,268.1875 1153.4688,268.4844 L1153.4688,271.2031 Q1152.8438,270.625 1152.25,270.3516 Q1151.6563,270.0781 1151.0313,270.0781 Q1149.6875,270.0781 1149,271.1484 Q1148.3125,272.2188 1148.3125,274.3125 Q1148.3125,276.4063 1149,277.4766 Q1149.6875,278.5469 1151.0313,278.5469 Q1151.6563,278.5469 1152.25,278.2734 Q1152.8438,278 1153.4688,277.4219 L1153.4688,280.1406 Z "/><text fill="#000000" font-family="sans-serif" font-size="12" lengthAdjust="spacingAndGlyphs" textLength="105" x="1171" y="278.6543">ClassDeclaration</text><line style="stroke: #A80036; stroke-width: 1.5;" x1="1100.75" x2="1313.75" y1="290.5" y2="290.5"/><line style="stroke: #A80036; stroke-width: 1.5;" x1="1100.75" x2="1313.75" y1="298.5" y2="298.5"/><ellipse cx="1110.75" cy="310.4023" fill="#84BE84" rx="3" ry="3" style="stroke: #038048; stroke-width: 1.0;"/><text fill="#000000" font-family="sans-serif" font-size="11" lengthAdjust="spacingAndGlyphs" textLength="189" x="1119.75" y="312.7104">void constructor(ModelFile,string)</text><rect fill="#F24D5C" height="6" style="stroke: #C82930; stroke-width: 1.0;" width="6" x="1107.75" y="320.207"/><text fill="#000000" font-family="sans-serif" font-size="11" lengthAdjust="spacingAndGlyphs" textLength="161" x="1119.75" y="325.5151">Object accept(Object,Object)</text><ellipse cx="1110.75" cy="336.0117" fill="#84BE84" rx="3" ry="3" style="stroke: #038048; stroke-width: 1.0;"/><text fill="#000000" font-family="sans-serif" font-size="11" lengthAdjust="spacingAndGlyphs" textLength="134" x="1119.75" y="338.3198">ModelFile getModelFile()</text><rect fill="#F24D5C" height="6" style="stroke: #C82930; stroke-width: 1.0;" width="6" x="1107.75" y="345.8164"/><text fill="#000000" font-family="sans-serif" font-size="11" lengthAdjust="spacingAndGlyphs" textLength="81" x="1119.75" y="351.1245">void process()</text><rect fill="#F24D5C" height="6" style="stroke: #C82930; stroke-width: 1.0;" width="6" x="1107.75" y="358.6211"/><text fill="#000000" font-family="sans-serif" font-size="11" lengthAdjust="spacingAndGlyphs" textLength="79" x="1119.75" y="363.9292">void validate()</text><ellipse cx="1110.75" cy="374.4258" fill="#84BE84" rx="3" ry="3" style="stroke: #038048; stroke-width: 1.0;"/><text fill="#000000" font-family="sans-serif" font-size="11" lengthAdjust="spacingAndGlyphs" textLength="114" x="1119.75" y="376.7339">boolean isAbstract()</text><ellipse cx="1110.75" cy="387.2305" fill="#84BE84" rx="3" ry="3" style="stroke: #038048; stroke-width: 1.0;"/><text fill="#000000" font-family="sans-serif" font-size="11" lengthAdjust="spacingAndGlyphs" textLength="99" x="1119.75" y="389.5386">boolean isEnum()</text><ellipse cx="1110.75" cy="400.0352" fill="#84BE84" rx="3" ry="3" style="stroke: #038048; stroke-width: 1.0;"/><text fill="#000000" font-family="sans-serif" font-size="11" lengthAdjust="spacingAndGlyphs" textLength="96" x="1119.75" y="402.3433">string getName()</text><ellipse cx="1110.75" cy="412.8398" fill="#84BE84" rx="3" ry="3" style="stroke: #038048; stroke-width: 1.0;"/><text fill="#000000" font-family="sans-serif" font-size="11" lengthAdjust="spacingAndGlyphs" textLength="171" x="1119.75" y="415.1479">string getFullyQualifiedName()</text><ellipse cx="1110.75" cy="425.6445" fill="#84BE84" rx="3" ry="3" style="stroke: #038048; stroke-width: 1.0;"/><text fill="#000000" font-family="sans-serif" font-size="11" lengthAdjust="spacingAndGlyphs" textLength="172" x="1119.75" y="427.9526">string getIdentifierFieldName()</text><ellipse cx="1110.75" cy="438.4492" fill="#84BE84" rx="3" ry="3" style="stroke: #038048; stroke-width: 1.0;"/><text fill="#000000" font-family="sans-serif" font-size="11" lengthAdjust="spacingAndGlyphs" textLength="184" x="1119.75" y="440.7573">Property getOwnProperty(string)</text><ellipse cx="1110.75" cy="451.2539" fill="#84BE84" rx="3" ry="3" style="stroke: #038048; stroke-width: 1.0;"/><text fill="#000000" font-family="sans-serif" font-size="11" lengthAdjust="spacingAndGlyphs" textLength="170" x="1119.75" y="453.562">Property[] getOwnProperties()</text><ellipse cx="1110.75" cy="464.0586" fill="#84BE84" rx="3" ry="3" style="stroke: #038048; stroke-width: 1.0;"/><text fill="#000000" font-family="sans-serif" font-size="11" lengthAdjust="spacingAndGlyphs" textLength="124" x="1119.75" y="466.3667">string getSuperType()</text><ellipse cx="1110.75" cy="476.8633" fill="#84BE84" rx="3" ry="3" style="stroke: #038048; stroke-width: 1.0;"/><text fill="#000000" font-family="sans-serif" font-size="11" lengthAdjust="spacingAndGlyphs" textLength="159" x="1119.75" y="479.1714">Property getProperty(string)</text><ellipse cx="1110.75" cy="489.668" fill="#84BE84" rx="3" ry="3" style="stroke: #038048; stroke-width: 1.0;"/><text fill="#000000" font-family="sans-serif" font-size="11" lengthAdjust="spacingAndGlyphs" textLength="145" x="1119.75" y="491.9761">Property[] getProperties()</text><ellipse cx="1110.75" cy="502.4727" fill="#84BE84" rx="3" ry="3" style="stroke: #038048; stroke-width: 1.0;"/><text fill="#000000" font-family="sans-serif" font-size="11" lengthAdjust="spacingAndGlyphs" textLength="87" x="1119.75" y="504.7808">Object toJSON()</text><!--class TransactionDeclaration--><rect fill="#FEFECE" filter="url(#futgo63)" height="60.8047" style="stroke: #A80036; stroke-width: 1.5;" width="218" x="1098" y="72.5"/><ellipse cx="1131" cy="88.5" fill="#ADD1B2" rx="11" ry="11" style="stroke: #A80036; stroke-width: 1.0;"/><path d="M1133.9688,94.1406 Q1133.3906,94.4375 1132.75,94.5859 Q1132.1094,94.7344 1131.4063,94.7344 Q1128.9063,94.7344 1127.5859,93.0859 Q1126.2656,91.4375 1126.2656,88.3125 Q1126.2656,85.1875 1127.5859,83.5313 Q1128.9063,81.875 1131.4063,81.875 Q1132.1094,81.875 1132.7578,82.0313 Q1133.4063,82.1875 1133.9688,82.4844 L1133.9688,85.2031 Q1133.3438,84.625 1132.75,84.3516 Q1132.1563,84.0781 1131.5313,84.0781 Q1130.1875,84.0781 1129.5,85.1484 Q1128.8125,86.2188 1128.8125,88.3125 Q1128.8125,90.4063 1129.5,91.4766 Q1130.1875,92.5469 1131.5313,92.5469 Q1132.1563,92.5469 1132.75,92.2734 Q1133.3438,92 1133.9688,91.4219 L1133.9688,94.1406 Z "/><text fill="#000000" font-family="sans-serif" font-size="12" lengthAdjust="spacingAndGlyphs" textLength="146" x="1149" y="92.6543">TransactionDeclaration</text><line style="stroke: #A80036; stroke-width: 1.5;" x1="1099" x2="1315" y1="104.5" y2="104.5"/><line style="stroke: #A80036; stroke-width: 1.5;" x1="1099" x2="1315" y1="112.5" y2="112.5"/><ellipse cx="1109" cy="124.4023" fill="#84BE84" rx="3" ry="3" style="stroke: #038048; stroke-width: 1.0;"/><text fill="#000000" font-family="sans-serif" font-size="11" lengthAdjust="spacingAndGlyphs" textLength="192" x="1118" y="126.7104">void constructor(ModelFile,Object)</text><!--class FunctionDeclaration--><rect fill="#FEFECE" filter="url(#futgo63)" height="188.8516" style="stroke: #A80036; stroke-width: 1.5;" width="253" x="1351.75" y="8.5"/><ellipse cx="1411" cy="24.5" fill="#ADD1B2" rx="11" ry="11" style="stroke: #A80036; stroke-width: 1.0;"/><path d="M1413.9688,30.1406 Q1413.3906,30.4375 1412.75,30.5859 Q1412.1094,30.7344 1411.4063,30.7344 Q1408.9063,30.7344 1407.5859,29.0859 Q1406.2656,27.4375 1406.2656,24.3125 Q1406.2656,21.1875 1407.5859,19.5313 Q1408.9063,17.875 1411.4063,17.875 Q1412.1094,17.875 1412.7578,18.0313 Q1413.4063,18.1875 1413.9688,18.4844 L1413.9688,21.2031 Q1413.3438,20.625 1412.75,20.3516 Q1412.1563,20.0781 1411.5313,20.0781 Q1410.1875,20.0781 1409.5,21.1484 Q1408.8125,22.2188 1408.8125,24.3125 Q1408.8125,26.4063 1409.5,27.4766 Q1410.1875,28.5469 1411.5313,28.5469 Q1412.1563,28.5469 1412.75,28.2734 Q1413.3438,28 1413.9688,27.4219 L1413.9688,30.1406 Z "/><text fill="#000000" font-family="sans-serif" font-size="12" lengthAdjust="spacingAndGlyphs" textLength="126" x="1431.5" y="28.6543">FunctionDeclaration</text><line style="stroke: #A80036; stroke-width: 1.5;" x1="1352.75" x2="1603.75" y1="40.5" y2="40.5"/><line style="stroke: #A80036; stroke-width: 1.5;" x1="1352.75" x2="1603.75" y1="48.5" y2="48.5"/><ellipse cx="1362.75" cy="60.4023" fill="#84BE84" rx="3" ry="3" style="stroke: #038048; stroke-width: 1.0;"/><text fill="#000000" font-family="sans-serif" font-size="11" lengthAdjust="spacingAndGlyphs" textLength="189" x="1371.75" y="62.7104">void constructor(ModelFile,string)</text><rect fill="#F24D5C" height="6" style="stroke: #C82930; stroke-width: 1.0;" width="6" x="1359.75" y="70.207"/><text fill="#000000" font-family="sans-serif" font-size="11" lengthAdjust="spacingAndGlyphs" textLength="161" x="1371.75" y="75.5151">Object accept(Object,Object)</text><ellipse cx="1362.75" cy="86.0117" fill="#84BE84" rx="3" ry="3" style="stroke: #038048; stroke-width: 1.0;"/><text fill="#000000" font-family="sans-serif" font-size="11" lengthAdjust="spacingAndGlyphs" textLength="134" x="1371.75" y="88.3198">ModelFile getModelFile()</text><ellipse cx="1362.75" cy="98.8164" fill="#84BE84" rx="3" ry="3" style="stroke: #038048; stroke-width: 1.0;"/><text fill="#000000" font-family="sans-serif" font-size="11" lengthAdjust="spacingAndGlyphs" textLength="134" x="1371.75" y="101.1245">string getFunctionText()</text><rect fill="#F24D5C" height="6" style="stroke: #C82930; stroke-width: 1.0;" width="6" x="1359.75" y="108.6211"/><text fill="#000000" font-family="sans-serif" font-size="11" lengthAdjust="spacingAndGlyphs" textLength="81" x="1371.75" y="113.9292">void process()</text><rect fill="#F24D5C" height="6" style="stroke: #C82930; stroke-width: 1.0;" width="6" x="1359.75" y="121.4258"/><text fill="#000000" font-family="sans-serif" font-size="11" lengthAdjust="spacingAndGlyphs" textLength="79" x="1371.75" y="126.7339">void validate()</text><ellipse cx="1362.75" cy="137.2305" fill="#84BE84" rx="3" ry="3" style="stroke: #038048; stroke-width: 1.0;"/><text fill="#000000" font-family="sans-serif" font-size="11" lengthAdjust="spacingAndGlyphs" textLength="96" x="1371.75" y="139.5386">string getName()</text><ellipse cx="1362.75" cy="150.0352" fill="#84BE84" rx="3" ry="3" style="stroke: #038048; stroke-width: 1.0;"/><text fill="#000000" font-family="sans-serif" font-size="11" lengthAdjust="spacingAndGlyphs" textLength="227" x="1371.75" y="152.3433">string getTransactionDeclarationName()</text><ellipse cx="1362.75" cy="162.8398" fill="#84BE84" rx="3" ry="3" style="stroke: #038048; stroke-width: 1.0;"/><text fill="#000000" font-family="sans-serif" font-size="11" lengthAdjust="spacingAndGlyphs" textLength="138" x="1371.75" y="165.1479">string[] getParameters()</text><ellipse cx="1362.75" cy="175.6445" fill="#84BE84" rx="3" ry="3" style="stroke: #038048; stroke-width: 1.0;"/><text fill="#000000" font-family="sans-serif" font-size="11" lengthAdjust="spacingAndGlyphs" textLength="171" x="1371.75" y="177.9526">string getFullyQualifiedName()</text><ellipse cx="1362.75" cy="188.4492" fill="#84BE84" rx="3" ry="3" style="stroke: #038048; stroke-width: 1.0;"/><text fill="#000000" font-family="sans-serif" font-size="11" lengthAdjust="spacingAndGlyphs" textLength="87" x="1371.75" y="190.7573">Object toJSON()</text><path d="M195.678,159.319 C223.709,185.746 258.579,218.62 292.919,250.995 " fill="none" style="stroke: #A80036; stroke-width: 1.0;"/><polygon fill="none" points="297.832,246.006,307.583,264.819,288.228,256.192,297.832,246.006" style="stroke: #A80036; stroke-width: 1.0;"/><path d="M434,140.032 C434,167.011 434,205.792 434,244.519 " fill="none" style="stroke: #A80036; stroke-width: 1.0;"/><polygon fill="none" points="441,244.704,434,264.704,427,244.704,441,244.704" style="stroke: #A80036; stroke-width: 1.0;"/><path d="M980,133.7 C980,183.261 980,283.047 980,340.528 " fill="none" style="stroke: #A80036; stroke-width: 1.0;"/><polygon fill="none" points="987,340.631,980,360.63,973,340.63,987,340.631" style="stroke: #A80036; stroke-width: 1.0;"/><path d="M692.78,140.032 C662.588,168.496 618.462,210.097 575.168,250.912 " fill="none" style="stroke: #A80036; stroke-width: 1.0;"/><polygon fill="none" points="579.894,256.077,560.539,264.704,570.29,245.891,579.894,256.077" style="stroke: #A80036; stroke-width: 1.0;"/><path d="M1207,133.7 C1207,159.346 1207,198.44 1207,238.161 " fill="none" style="stroke: #A80036; stroke-width: 1.0;"/><polygon fill="none" points="1214,238.286,1207,258.286,1200,238.286,1214,238.286" style="stroke: #A80036; stroke-width: 1.0;"/></g></svg>