<?xml version="1.0" encoding="UTF-8" standalone="no"?><svg xmlns="http://www.w3.org/2000/svg" xmlns:xlink="http://www.w3.org/1999/xlink" contentScriptType="application/ecmascript" contentStyleType="text/css" height="65px" preserveAspectRatio="none" style="width:88px;height:65px;" version="1.1" viewBox="0 0 88 65" width="88px" zoomAndPan="magnify"><defs><filter height="300%" id="frp1fb3" width="300%" x="-1" y="-1"><feGaussianBlur result="blurOut" stdDeviation="2.0"/><feColorMatrix in="blurOut" result="blurOut2" type="matrix" values="0 0 0 0 0 0 0 0 0 0 0 0 0 0 0 0 0 0 .4 0"/><feOffset dx="4.0" dy="4.0" in="blurOut2" result="blurOut3"/><feBlend in="SourceGraphic" in2="blurOut3" mode="normal"/></filter></defs><g><!--class parser--><rect fill="#FEFECE" filter="url(#frp1fb3)" height="48" style="stroke: #A80036; stroke-width: 1.5;" width="73" x="6" y="8"/><ellipse cx="21" cy="24" fill="#DA70D6" rx="11" ry="11" style="stroke: #A80036; stroke-width: 1.0;"/><path d="M20.7969,19.6719 L20.7969,23.2969 L21.7969,23.2969 Q23,23.2969 23.4844,22.8906 Q23.9688,22.4844 23.9688,21.4844 Q23.9688,20.4844 23.4844,20.0781 Q23,19.6719 21.7969,19.6719 L20.7969,19.6719 Z M18.3438,17.6094 L21.7031,17.6094 Q24.2656,17.6094 25.3906,18.5234 Q26.5156,19.4375 26.5156,21.4844 Q26.5156,23.5313 25.3906,24.4453 Q24.2656,25.3594 21.7031,25.3594 L20.7969,25.3594 L20.7969,30 L18.3438,30 L18.3438,17.6094 Z "/><text fill="#000000" font-family="sans-serif" font-size="12" lengthAdjust="spacingAndGlyphs" textLength="41" x="35" y="28.1543">parser</text><line style="stroke: #A80036; stroke-width: 1.5;" x1="7" x2="78" y1="40" y2="40"/><line style="stroke: #A80036; stroke-width: 1.5;" x1="7" x2="78" y1="48" y2="48"/></g></svg>