<?xml version="1.0" encoding="UTF-8" standalone="no"?><svg xmlns="http://www.w3.org/2000/svg" xmlns:xlink="http://www.w3.org/1999/xlink" contentScriptType="application/ecmascript" contentStyleType="text/css" height="315px" preserveAspectRatio="none" style="width:334px;height:315px;" version="1.1" viewBox="0 0 334 315" width="334px" zoomAndPan="magnify"><defs><filter height="300%" id="f9q38ki" width="300%" x="-1" y="-1"><feGaussianBlur result="blurOut" stdDeviation="2.0"/><feColorMatrix in="blurOut" result="blurOut2" type="matrix" values="0 0 0 0 0 0 0 0 0 0 0 0 0 0 0 0 0 0 .4 0"/><feOffset dx="4.0" dy="4.0" in="blurOut2" result="blurOut3"/><feBlend in="SourceGraphic" in2="blurOut3" mode="normal"/></filter></defs><g><!--class Identifiable--><rect fill="#FEFECE" filter="url(#f9q38ki)" height="176.0469" style="stroke: #A80036; stroke-width: 1.5;" width="319" x="6" y="130"/><ellipse cx="126.75" cy="146" fill="#ADD1B2" rx="11" ry="11" style="stroke: #A80036; stroke-width: 1.0;"/><path d="M129.7188,151.6406 Q129.1406,151.9375 128.5,152.0859 Q127.8594,152.2344 127.1563,152.2344 Q124.6563,152.2344 123.3359,150.5859 Q122.0156,148.9375 122.0156,145.8125 Q122.0156,142.6875 123.3359,141.0313 Q124.6563,139.375 127.1563,139.375 Q127.8594,139.375 128.5078,139.5313 Q129.1563,139.6875 129.7188,139.9844 L129.7188,142.7031 Q129.0938,142.125 128.5,141.8516 Q127.9063,141.5781 127.2813,141.5781 Q125.9375,141.5781 125.25,142.6484 Q124.5625,143.7188 124.5625,145.8125 Q124.5625,147.9063 125.25,148.9766 Q125.9375,150.0469 127.2813,150.0469 Q127.9063,150.0469 128.5,149.7734 Q129.0938,149.5 129.7188,148.9219 L129.7188,151.6406 Z "/><text fill="#000000" font-family="sans-serif" font-size="12" lengthAdjust="spacingAndGlyphs" textLength="69" x="147.25" y="150.1543">Identifiable</text><line style="stroke: #A80036; stroke-width: 1.5;" x1="7" x2="324" y1="162" y2="162"/><line style="stroke: #A80036; stroke-width: 1.5;" x1="7" x2="324" y1="170" y2="170"/><rect fill="#F24D5C" height="6" style="stroke: #C82930; stroke-width: 1.0;" width="6" x="14" y="178.9023"/><text fill="#000000" font-family="sans-serif" font-size="11" lengthAdjust="spacingAndGlyphs" textLength="293" x="26" y="184.2104">void constructor(ModelManager,string,string,string)</text><rect fill="#F24D5C" height="6" style="stroke: #C82930; stroke-width: 1.0;" width="6" x="14" y="191.707"/><text fill="#000000" font-family="sans-serif" font-size="11" lengthAdjust="spacingAndGlyphs" textLength="161" x="26" y="197.0151">Object accept(Object,Object)</text><rect fill="#F24D5C" height="6" style="stroke: #C82930; stroke-width: 1.0;" width="6" x="14" y="204.5117"/><text fill="#000000" font-family="sans-serif" font-size="11" lengthAdjust="spacingAndGlyphs" textLength="194" x="26" y="209.8198">ModelManager getModelManager()</text><ellipse cx="17" cy="220.3164" fill="#84BE84" rx="3" ry="3" style="stroke: #038048; stroke-width: 1.0;"/><text fill="#000000" font-family="sans-serif" font-size="11" lengthAdjust="spacingAndGlyphs" textLength="113" x="26" y="222.6245">string getIdentifier()</text><ellipse cx="17" cy="233.1211" fill="#84BE84" rx="3" ry="3" style="stroke: #038048; stroke-width: 1.0;"/><text fill="#000000" font-family="sans-serif" font-size="11" lengthAdjust="spacingAndGlyphs" textLength="188" x="26" y="235.4292">string getFullyQualifiedIdentifier()</text><ellipse cx="17" cy="245.9258" fill="#84BE84" rx="3" ry="3" style="stroke: #038048; stroke-width: 1.0;"/><text fill="#000000" font-family="sans-serif" font-size="11" lengthAdjust="spacingAndGlyphs" textLength="90" x="26" y="248.2339">string getType()</text><ellipse cx="17" cy="258.7305" fill="#84BE84" rx="3" ry="3" style="stroke: #038048; stroke-width: 1.0;"/><text fill="#000000" font-family="sans-serif" font-size="11" lengthAdjust="spacingAndGlyphs" textLength="165" x="26" y="261.0386">string getFullyQualifiedType()</text><ellipse cx="17" cy="271.5352" fill="#84BE84" rx="3" ry="3" style="stroke: #038048; stroke-width: 1.0;"/><text fill="#000000" font-family="sans-serif" font-size="11" lengthAdjust="spacingAndGlyphs" textLength="130" x="26" y="273.8433">string getNamespace()</text><ellipse cx="17" cy="284.3398" fill="#84BE84" rx="3" ry="3" style="stroke: #038048; stroke-width: 1.0;"/><text fill="#000000" font-family="sans-serif" font-size="11" lengthAdjust="spacingAndGlyphs" textLength="91" x="26" y="286.6479">String toString()</text><rect fill="#F24D5C" height="6" style="stroke: #C82930; stroke-width: 1.0;" width="6" x="14" y="294.1445"/><text fill="#000000" font-family="sans-serif" font-size="11" lengthAdjust="spacingAndGlyphs" textLength="191" x="26" y="299.4526">boolean isSystemProperty(string)</text><!--class Relationship--><rect fill="#FEFECE" filter="url(#f9q38ki)" height="60.8047" style="stroke: #A80036; stroke-width: 1.5;" width="319" x="6" y="8.5"/><ellipse cx="122.75" cy="24.5" fill="#ADD1B2" rx="11" ry="11" style="stroke: #A80036; stroke-width: 1.0;"/><path d="M125.7188,30.1406 Q125.1406,30.4375 124.5,30.5859 Q123.8594,30.7344 123.1563,30.7344 Q120.6563,30.7344 119.3359,29.0859 Q118.0156,27.4375 118.0156,24.3125 Q118.0156,21.1875 119.3359,19.5313 Q120.6563,17.875 123.1563,17.875 Q123.8594,17.875 124.5078,18.0313 Q125.1563,18.1875 125.7188,18.4844 L125.7188,21.2031 Q125.0938,20.625 124.5,20.3516 Q123.9063,20.0781 123.2813,20.0781 Q121.9375,20.0781 121.25,21.1484 Q120.5625,22.2188 120.5625,24.3125 Q120.5625,26.4063 121.25,27.4766 Q121.9375,28.5469 123.2813,28.5469 Q123.9063,28.5469 124.5,28.2734 Q125.0938,28 125.7188,27.4219 L125.7188,30.1406 Z "/><text fill="#000000" font-family="sans-serif" font-size="12" lengthAdjust="spacingAndGlyphs" textLength="77" x="143.25" y="28.6543">Relationship</text><line style="stroke: #A80036; stroke-width: 1.5;" x1="7" x2="324" y1="40.5" y2="40.5"/><line style="stroke: #A80036; stroke-width: 1.5;" x1="7" x2="324" y1="48.5" y2="48.5"/><rect fill="#F24D5C" height="6" style="stroke: #C82930; stroke-width: 1.0;" width="6" x="14" y="57.4023"/><text fill="#000000" font-family="sans-serif" font-size="11" lengthAdjust="spacingAndGlyphs" textLength="293" x="26" y="62.7104">void constructor(ModelManager,string,string,string)</text><path d="M165.25,69.626 C165.25,81.193 165.25,95.216 165.25,109.958 " fill="none" style="stroke: #A80036; stroke-width: 1.0;"/><polygon fill="none" points="172.25,109.973,165.25,129.973,158.25,109.973,172.25,109.973" style="stroke: #A80036; stroke-width: 1.0;"/></g></svg>