<?xml version="1.0" encoding="UTF-8" standalone="no"?><svg xmlns="http://www.w3.org/2000/svg" xmlns:xlink="http://www.w3.org/1999/xlink" contentScriptType="application/ecmascript" contentStyleType="text/css" height="539px" preserveAspectRatio="none" style="width:441px;height:539px;" version="1.1" viewBox="0 0 441 539" width="441px" zoomAndPan="magnify"><defs><filter height="300%" id="fkc23ys" width="300%" x="-1" y="-1"><feGaussianBlur result="blurOut" stdDeviation="2.0"/><feColorMatrix in="blurOut" result="blurOut2" type="matrix" values="0 0 0 0 0 0 0 0 0 0 0 0 0 0 0 0 0 0 .4 0"/><feOffset dx="4.0" dy="4.0" in="blurOut2" result="blurOut3"/><feBlend in="SourceGraphic" in2="blurOut3" mode="normal"/></filter></defs><g><!--class Identifiable--><rect fill="#FEFECE" filter="url(#fkc23ys)" height="176.0469" style="stroke: #A80036; stroke-width: 1.5;" width="319" x="59.25" y="354"/><ellipse cx="180" cy="370" fill="#ADD1B2" rx="11" ry="11" style="stroke: #A80036; stroke-width: 1.0;"/><path d="M182.9688,375.6406 Q182.3906,375.9375 181.75,376.0859 Q181.1094,376.2344 180.4063,376.2344 Q177.9063,376.2344 176.5859,374.5859 Q175.2656,372.9375 175.2656,369.8125 Q175.2656,366.6875 176.5859,365.0313 Q177.9063,363.375 180.4063,363.375 Q181.1094,363.375 181.7578,363.5313 Q182.4063,363.6875 182.9688,363.9844 L182.9688,366.7031 Q182.3438,366.125 181.75,365.8516 Q181.1563,365.5781 180.5313,365.5781 Q179.1875,365.5781 178.5,366.6484 Q177.8125,367.7188 177.8125,369.8125 Q177.8125,371.9063 178.5,372.9766 Q179.1875,374.0469 180.5313,374.0469 Q181.1563,374.0469 181.75,373.7734 Q182.3438,373.5 182.9688,372.9219 L182.9688,375.6406 Z "/><text fill="#000000" font-family="sans-serif" font-size="12" lengthAdjust="spacingAndGlyphs" textLength="69" x="200.5" y="374.1543">Identifiable</text><line style="stroke: #A80036; stroke-width: 1.5;" x1="60.25" x2="377.25" y1="386" y2="386"/><line style="stroke: #A80036; stroke-width: 1.5;" x1="60.25" x2="377.25" y1="394" y2="394"/><rect fill="#F24D5C" height="6" style="stroke: #C82930; stroke-width: 1.0;" width="6" x="67.25" y="402.9023"/><text fill="#000000" font-family="sans-serif" font-size="11" lengthAdjust="spacingAndGlyphs" textLength="293" x="79.25" y="408.2104">void constructor(ModelManager,string,string,string)</text><rect fill="#F24D5C" height="6" style="stroke: #C82930; stroke-width: 1.0;" width="6" x="67.25" y="415.707"/><text fill="#000000" font-family="sans-serif" font-size="11" lengthAdjust="spacingAndGlyphs" textLength="161" x="79.25" y="421.0151">Object accept(Object,Object)</text><rect fill="#F24D5C" height="6" style="stroke: #C82930; stroke-width: 1.0;" width="6" x="67.25" y="428.5117"/><text fill="#000000" font-family="sans-serif" font-size="11" lengthAdjust="spacingAndGlyphs" textLength="194" x="79.25" y="433.8198">ModelManager getModelManager()</text><ellipse cx="70.25" cy="444.3164" fill="#84BE84" rx="3" ry="3" style="stroke: #038048; stroke-width: 1.0;"/><text fill="#000000" font-family="sans-serif" font-size="11" lengthAdjust="spacingAndGlyphs" textLength="113" x="79.25" y="446.6245">string getIdentifier()</text><ellipse cx="70.25" cy="457.1211" fill="#84BE84" rx="3" ry="3" style="stroke: #038048; stroke-width: 1.0;"/><text fill="#000000" font-family="sans-serif" font-size="11" lengthAdjust="spacingAndGlyphs" textLength="188" x="79.25" y="459.4292">string getFullyQualifiedIdentifier()</text><ellipse cx="70.25" cy="469.9258" fill="#84BE84" rx="3" ry="3" style="stroke: #038048; stroke-width: 1.0;"/><text fill="#000000" font-family="sans-serif" font-size="11" lengthAdjust="spacingAndGlyphs" textLength="90" x="79.25" y="472.2339">string getType()</text><ellipse cx="70.25" cy="482.7305" fill="#84BE84" rx="3" ry="3" style="stroke: #038048; stroke-width: 1.0;"/><text fill="#000000" font-family="sans-serif" font-size="11" lengthAdjust="spacingAndGlyphs" textLength="165" x="79.25" y="485.0386">string getFullyQualifiedType()</text><ellipse cx="70.25" cy="495.5352" fill="#84BE84" rx="3" ry="3" style="stroke: #038048; stroke-width: 1.0;"/><text fill="#000000" font-family="sans-serif" font-size="11" lengthAdjust="spacingAndGlyphs" textLength="130" x="79.25" y="497.8433">string getNamespace()</text><ellipse cx="70.25" cy="508.3398" fill="#84BE84" rx="3" ry="3" style="stroke: #038048; stroke-width: 1.0;"/><text fill="#000000" font-family="sans-serif" font-size="11" lengthAdjust="spacingAndGlyphs" textLength="91" x="79.25" y="510.6479">String toString()</text><rect fill="#F24D5C" height="6" style="stroke: #C82930; stroke-width: 1.0;" width="6" x="67.25" y="518.1445"/><text fill="#000000" font-family="sans-serif" font-size="11" lengthAdjust="spacingAndGlyphs" textLength="191" x="79.25" y="523.4526">boolean isSystemProperty(string)</text><!--class Resource--><rect fill="#FEFECE" filter="url(#fkc23ys)" height="124.8281" style="stroke: #A80036; stroke-width: 1.5;" width="319" x="59.25" y="168.5"/><ellipse cx="185" cy="184.5" fill="#ADD1B2" rx="11" ry="11" style="stroke: #A80036; stroke-width: 1.0;"/><path d="M187.9688,190.1406 Q187.3906,190.4375 186.75,190.5859 Q186.1094,190.7344 185.4063,190.7344 Q182.9063,190.7344 181.5859,189.0859 Q180.2656,187.4375 180.2656,184.3125 Q180.2656,181.1875 181.5859,179.5313 Q182.9063,177.875 185.4063,177.875 Q186.1094,177.875 186.7578,178.0313 Q187.4063,178.1875 187.9688,178.4844 L187.9688,181.2031 Q187.3438,180.625 186.75,180.3516 Q186.1563,180.0781 185.5313,180.0781 Q184.1875,180.0781 183.5,181.1484 Q182.8125,182.2188 182.8125,184.3125 Q182.8125,186.4063 183.5,187.4766 Q184.1875,188.5469 185.5313,188.5469 Q186.1563,188.5469 186.75,188.2734 Q187.3438,188 187.9688,187.4219 L187.9688,190.1406 Z "/><text fill="#000000" font-family="sans-serif" font-size="12" lengthAdjust="spacingAndGlyphs" textLength="59" x="205.5" y="188.6543">Resource</text><line style="stroke: #A80036; stroke-width: 1.5;" x1="60.25" x2="377.25" y1="200.5" y2="200.5"/><line style="stroke: #A80036; stroke-width: 1.5;" x1="60.25" x2="377.25" y1="208.5" y2="208.5"/><rect fill="#F24D5C" height="6" style="stroke: #C82930; stroke-width: 1.0;" width="6" x="67.25" y="217.4023"/><text fill="#000000" font-family="sans-serif" font-size="11" lengthAdjust="spacingAndGlyphs" textLength="293" x="79.25" y="222.7104">void constructor(ModelManager,string,string,string)</text><ellipse cx="70.25" cy="233.207" fill="#84BE84" rx="3" ry="3" style="stroke: #038048; stroke-width: 1.0;"/><text fill="#000000" font-family="sans-serif" font-size="11" lengthAdjust="spacingAndGlyphs" textLength="202" x="79.25" y="235.5151">void setPropertyValue(string,string)</text><ellipse cx="70.25" cy="246.0117" fill="#84BE84" rx="3" ry="3" style="stroke: #038048; stroke-width: 1.0;"/><text fill="#000000" font-family="sans-serif" font-size="11" lengthAdjust="spacingAndGlyphs" textLength="187" x="79.25" y="248.3198">void addArrayValue(string,string)</text><rect fill="#F24D5C" height="6" style="stroke: #C82930; stroke-width: 1.0;" width="6" x="67.25" y="255.8164"/><text fill="#000000" font-family="sans-serif" font-size="11" lengthAdjust="spacingAndGlyphs" textLength="146" x="79.25" y="261.1245">void assignFieldDefaults()</text><rect fill="#F24D5C" height="6" style="stroke: #C82930; stroke-width: 1.0;" width="6" x="67.25" y="268.6211"/><text fill="#000000" font-family="sans-serif" font-size="11" lengthAdjust="spacingAndGlyphs" textLength="222" x="79.25" y="273.9292">ClassDeclaration getClassDeclaration()</text><rect fill="#F24D5C" height="6" style="stroke: #C82930; stroke-width: 1.0;" width="6" x="67.25" y="281.4258"/><text fill="#000000" font-family="sans-serif" font-size="11" lengthAdjust="spacingAndGlyphs" textLength="74" x="79.25" y="286.7339">void toJSON()</text><!--class ValidatedResource--><rect fill="#FEFECE" filter="url(#fkc23ys)" height="99.2188" style="stroke: #A80036; stroke-width: 1.5;" width="426" x="6" y="8.5"/><ellipse cx="155.75" cy="24.5" fill="#ADD1B2" rx="11" ry="11" style="stroke: #A80036; stroke-width: 1.0;"/><path d="M158.7188,30.1406 Q158.1406,30.4375 157.5,30.5859 Q156.8594,30.7344 156.1563,30.7344 Q153.6563,30.7344 152.3359,29.0859 Q151.0156,27.4375 151.0156,24.3125 Q151.0156,21.1875 152.3359,19.5313 Q153.6563,17.875 156.1563,17.875 Q156.8594,17.875 157.5078,18.0313 Q158.1563,18.1875 158.7188,18.4844 L158.7188,21.2031 Q158.0938,20.625 157.5,20.3516 Q156.9063,20.0781 156.2813,20.0781 Q154.9375,20.0781 154.25,21.1484 Q153.5625,22.2188 153.5625,24.3125 Q153.5625,26.4063 154.25,27.4766 Q154.9375,28.5469 156.2813,28.5469 Q156.9063,28.5469 157.5,28.2734 Q158.0938,28 158.7188,27.4219 L158.7188,30.1406 Z "/><text fill="#000000" font-family="sans-serif" font-size="12" lengthAdjust="spacingAndGlyphs" textLength="118" x="176.25" y="28.6543">ValidatedResource</text><line style="stroke: #A80036; stroke-width: 1.5;" x1="7" x2="431" y1="40.5" y2="40.5"/><line style="stroke: #A80036; stroke-width: 1.5;" x1="7" x2="431" y1="48.5" y2="48.5"/><rect fill="#F24D5C" height="6" style="stroke: #C82930; stroke-width: 1.0;" width="6" x="14" y="57.4023"/><text fill="#000000" font-family="sans-serif" font-size="11" lengthAdjust="spacingAndGlyphs" textLength="400" x="26" y="62.7104">void constructor(ModelManager,string,string,string,ResourceValidator)</text><ellipse cx="17" cy="73.207" fill="#84BE84" rx="3" ry="3" style="stroke: #038048; stroke-width: 1.0;"/><text fill="#000000" font-family="sans-serif" font-size="11" lengthAdjust="spacingAndGlyphs" textLength="202" x="26" y="75.5151">void setPropertyValue(string,string)</text><ellipse cx="17" cy="86.0117" fill="#84BE84" rx="3" ry="3" style="stroke: #038048; stroke-width: 1.0;"/><text fill="#000000" font-family="sans-serif" font-size="11" lengthAdjust="spacingAndGlyphs" textLength="187" x="26" y="88.3198">void addArrayValue(string,string)</text><ellipse cx="17" cy="98.8164" fill="#84BE84" rx="3" ry="3" style="stroke: #038048; stroke-width: 1.0;"/><text fill="#000000" font-family="sans-serif" font-size="11" lengthAdjust="spacingAndGlyphs" textLength="79" x="26" y="101.1245">void validate()</text><path d="M218.5,293.576 C218.5,306.278 218.5,320.003 218.5,333.791 " fill="none" style="stroke: #A80036; stroke-width: 1.0;"/><polygon fill="none" points="225.5,333.926,218.5,353.926,211.5,333.926,225.5,333.926" style="stroke: #A80036; stroke-width: 1.0;"/><path d="M218.5,107.544 C218.5,120.216 218.5,134.228 218.5,148.112 " fill="none" style="stroke: #A80036; stroke-width: 1.0;"/><polygon fill="none" points="225.5,148.193,218.5,168.193,211.5,148.193,225.5,148.193" style="stroke: #A80036; stroke-width: 1.0;"/></g></svg>