<?xml version="1.0" encoding="UTF-8" standalone="no"?><svg xmlns="http://www.w3.org/2000/svg" xmlns:xlink="http://www.w3.org/1999/xlink" contentScriptType="application/ecmascript" contentStyleType="text/css" height="525px" preserveAspectRatio="none" style="width:2000px;height:525px;" version="1.1" viewBox="0 0 2000 525" width="2000px" zoomAndPan="magnify"><defs><filter height="300%" id="f0y7z6a" width="300%" x="-1" y="-1"><feGaussianBlur result="blurOut" stdDeviation="2.0"/><feColorMatrix in="blurOut" result="blurOut2" type="matrix" values="0 0 0 0 0 0 0 0 0 0 0 0 0 0 0 0 0 0 .4 0"/><feOffset dx="4.0" dy="4.0" in="blurOut2" result="blurOut3"/><feBlend in="SourceGraphic" in2="blurOut3" mode="normal"/></filter></defs><g><!--class Identifiable--><rect fill="#FEFECE" filter="url(#f0y7z6a)" height="150.4375" style="stroke: #A80036; stroke-width: 1.5;" width="319" x="183" y="251"/><ellipse cx="303.75" cy="267" fill="#ADD1B2" rx="11" ry="11" style="stroke: #A80036; stroke-width: 1.0;"/><path d="M306.7188,272.6406 Q306.1406,272.9375 305.5,273.0859 Q304.8594,273.2344 304.1563,273.2344 Q301.6563,273.2344 300.3359,271.5859 Q299.0156,269.9375 299.0156,266.8125 Q299.0156,263.6875 300.3359,262.0313 Q301.6563,260.375 304.1563,260.375 Q304.8594,260.375 305.5078,260.5313 Q306.1563,260.6875 306.7188,260.9844 L306.7188,263.7031 Q306.0938,263.125 305.5,262.8516 Q304.9063,262.5781 304.2813,262.5781 Q302.9375,262.5781 302.25,263.6484 Q301.5625,264.7188 301.5625,266.8125 Q301.5625,268.9063 302.25,269.9766 Q302.9375,271.0469 304.2813,271.0469 Q304.9063,271.0469 305.5,270.7734 Q306.0938,270.5 306.7188,269.9219 L306.7188,272.6406 Z "/><text fill="#000000" font-family="sans-serif" font-size="12" lengthAdjust="spacingAndGlyphs" textLength="69" x="324.25" y="271.1543">Identifiable</text><line style="stroke: #A80036; stroke-width: 1.5;" x1="184" x2="501" y1="283" y2="283"/><line style="stroke: #A80036; stroke-width: 1.5;" x1="184" x2="501" y1="291" y2="291"/><rect fill="#F24D5C" height="6" style="stroke: #C82930; stroke-width: 1.0;" width="6" x="191" y="299.9023"/><text fill="#000000" font-family="sans-serif" font-size="11" lengthAdjust="spacingAndGlyphs" textLength="293" x="203" y="305.2104">void constructor(ModelManager,string,string,string)</text><ellipse cx="194" cy="315.707" fill="#84BE84" rx="3" ry="3" style="stroke: #038048; stroke-width: 1.0;"/><text fill="#000000" font-family="sans-serif" font-size="11" lengthAdjust="spacingAndGlyphs" textLength="194" x="203" y="318.0151">ModelManager getModelManager()</text><ellipse cx="194" cy="328.5117" fill="#84BE84" rx="3" ry="3" style="stroke: #038048; stroke-width: 1.0;"/><text fill="#000000" font-family="sans-serif" font-size="11" lengthAdjust="spacingAndGlyphs" textLength="113" x="203" y="330.8198">string getIdentifier()</text><ellipse cx="194" cy="341.3164" fill="#84BE84" rx="3" ry="3" style="stroke: #038048; stroke-width: 1.0;"/><text fill="#000000" font-family="sans-serif" font-size="11" lengthAdjust="spacingAndGlyphs" textLength="188" x="203" y="343.6245">string getFullyQualifiedIdentifier()</text><ellipse cx="194" cy="354.1211" fill="#84BE84" rx="3" ry="3" style="stroke: #038048; stroke-width: 1.0;"/><text fill="#000000" font-family="sans-serif" font-size="11" lengthAdjust="spacingAndGlyphs" textLength="90" x="203" y="356.4292">string getType()</text><ellipse cx="194" cy="366.9258" fill="#84BE84" rx="3" ry="3" style="stroke: #038048; stroke-width: 1.0;"/><text fill="#000000" font-family="sans-serif" font-size="11" lengthAdjust="spacingAndGlyphs" textLength="165" x="203" y="369.2339">string getFullyQualifiedType()</text><ellipse cx="194" cy="379.7305" fill="#84BE84" rx="3" ry="3" style="stroke: #038048; stroke-width: 1.0;"/><text fill="#000000" font-family="sans-serif" font-size="11" lengthAdjust="spacingAndGlyphs" textLength="130" x="203" y="382.0386">string getNamespace()</text><ellipse cx="194" cy="392.5352" fill="#84BE84" rx="3" ry="3" style="stroke: #038048; stroke-width: 1.0;"/><text fill="#000000" font-family="sans-serif" font-size="11" lengthAdjust="spacingAndGlyphs" textLength="191" x="203" y="394.8433">boolean isSystemProperty(string)</text><!--class Relationship--><rect fill="#FEFECE" filter="url(#f0y7z6a)" height="60.8047" style="stroke: #A80036; stroke-width: 1.5;" width="319" x="6" y="65.5"/><ellipse cx="122.75" cy="81.5" fill="#ADD1B2" rx="11" ry="11" style="stroke: #A80036; stroke-width: 1.0;"/><path d="M125.7188,87.1406 Q125.1406,87.4375 124.5,87.5859 Q123.8594,87.7344 123.1563,87.7344 Q120.6563,87.7344 119.3359,86.0859 Q118.0156,84.4375 118.0156,81.3125 Q118.0156,78.1875 119.3359,76.5313 Q120.6563,74.875 123.1563,74.875 Q123.8594,74.875 124.5078,75.0313 Q125.1563,75.1875 125.7188,75.4844 L125.7188,78.2031 Q125.0938,77.625 124.5,77.3516 Q123.9063,77.0781 123.2813,77.0781 Q121.9375,77.0781 121.25,78.1484 Q120.5625,79.2188 120.5625,81.3125 Q120.5625,83.4063 121.25,84.4766 Q121.9375,85.5469 123.2813,85.5469 Q123.9063,85.5469 124.5,85.2734 Q125.0938,85 125.7188,84.4219 L125.7188,87.1406 Z "/><text fill="#000000" font-family="sans-serif" font-size="12" lengthAdjust="spacingAndGlyphs" textLength="77" x="143.25" y="85.6543">Relationship</text><line style="stroke: #A80036; stroke-width: 1.5;" x1="7" x2="324" y1="97.5" y2="97.5"/><line style="stroke: #A80036; stroke-width: 1.5;" x1="7" x2="324" y1="105.5" y2="105.5"/><rect fill="#F24D5C" height="6" style="stroke: #C82930; stroke-width: 1.0;" width="6" x="14" y="114.4023"/><text fill="#000000" font-family="sans-serif" font-size="11" lengthAdjust="spacingAndGlyphs" textLength="293" x="26" y="119.7104">void constructor(ModelManager,string,string,string)</text><!--class Resource--><rect fill="#FEFECE" filter="url(#f0y7z6a)" height="176.0469" style="stroke: #A80036; stroke-width: 1.5;" width="319" x="360" y="8"/><ellipse cx="485.75" cy="24" fill="#ADD1B2" rx="11" ry="11" style="stroke: #A80036; stroke-width: 1.0;"/><path d="M488.7188,29.6406 Q488.1406,29.9375 487.5,30.0859 Q486.8594,30.2344 486.1563,30.2344 Q483.6563,30.2344 482.3359,28.5859 Q481.0156,26.9375 481.0156,23.8125 Q481.0156,20.6875 482.3359,19.0313 Q483.6563,17.375 486.1563,17.375 Q486.8594,17.375 487.5078,17.5313 Q488.1563,17.6875 488.7188,17.9844 L488.7188,20.7031 Q488.0938,20.125 487.5,19.8516 Q486.9063,19.5781 486.2813,19.5781 Q484.9375,19.5781 484.25,20.6484 Q483.5625,21.7188 483.5625,23.8125 Q483.5625,25.9063 484.25,26.9766 Q484.9375,28.0469 486.2813,28.0469 Q486.9063,28.0469 487.5,27.7734 Q488.0938,27.5 488.7188,26.9219 L488.7188,29.6406 Z "/><text fill="#000000" font-family="sans-serif" font-size="12" lengthAdjust="spacingAndGlyphs" textLength="59" x="506.25" y="28.1543">Resource</text><line style="stroke: #A80036; stroke-width: 1.5;" x1="361" x2="678" y1="40" y2="40"/><line style="stroke: #A80036; stroke-width: 1.5;" x1="361" x2="678" y1="48" y2="48"/><rect fill="#F24D5C" height="6" style="stroke: #C82930; stroke-width: 1.0;" width="6" x="368" y="56.9023"/><text fill="#000000" font-family="sans-serif" font-size="11" lengthAdjust="spacingAndGlyphs" textLength="293" x="380" y="62.2104">void constructor(ModelManager,string,string,string)</text><ellipse cx="371" cy="72.707" fill="#84BE84" rx="3" ry="3" style="stroke: #038048; stroke-width: 1.0;"/><text fill="#000000" font-family="sans-serif" font-size="11" lengthAdjust="spacingAndGlyphs" textLength="202" x="380" y="75.0151">void setPropertyValue(string,string)</text><ellipse cx="371" cy="85.5117" fill="#84BE84" rx="3" ry="3" style="stroke: #038048; stroke-width: 1.0;"/><text fill="#000000" font-family="sans-serif" font-size="11" lengthAdjust="spacingAndGlyphs" textLength="187" x="380" y="87.8198">void addArrayValue(string,string)</text><rect fill="#F24D5C" height="6" style="stroke: #C82930; stroke-width: 1.0;" width="6" x="368" y="95.3164"/><text fill="#000000" font-family="sans-serif" font-size="11" lengthAdjust="spacingAndGlyphs" textLength="146" x="380" y="100.6245">void assignFieldDefaults()</text><rect fill="#F24D5C" height="6" style="stroke: #C82930; stroke-width: 1.0;" width="6" x="368" y="108.1211"/><text fill="#000000" font-family="sans-serif" font-size="11" lengthAdjust="spacingAndGlyphs" textLength="222" x="380" y="113.4292">ClassDeclaration getClassDeclaration()</text><rect fill="#F24D5C" height="6" style="stroke: #C82930; stroke-width: 1.0;" width="6" x="368" y="120.9258"/><text fill="#000000" font-family="sans-serif" font-size="11" lengthAdjust="spacingAndGlyphs" textLength="79" x="380" y="126.2339">void validate()</text><rect fill="#F24D5C" height="6" style="stroke: #C82930; stroke-width: 1.0;" width="6" x="368" y="133.7305"/><text fill="#000000" font-family="sans-serif" font-size="11" lengthAdjust="spacingAndGlyphs" textLength="200" x="380" y="139.0386">void validateProperty(string,Field,*)</text><rect fill="#F24D5C" height="6" style="stroke: #C82930; stroke-width: 1.0;" width="6" x="368" y="146.5352"/><text fill="#000000" font-family="sans-serif" font-size="11" lengthAdjust="spacingAndGlyphs" textLength="274" x="380" y="151.8433">void validateNonArrayProperty(string,Property,*)</text><rect fill="#F24D5C" height="6" style="stroke: #C82930; stroke-width: 1.0;" width="6" x="368" y="159.3398"/><text fill="#000000" font-family="sans-serif" font-size="11" lengthAdjust="spacingAndGlyphs" textLength="261" x="380" y="164.6479">void reportModelViolation(string,string,*,Field)</text><rect fill="#F24D5C" height="6" style="stroke: #C82930; stroke-width: 1.0;" width="6" x="368" y="172.1445"/><text fill="#000000" font-family="sans-serif" font-size="11" lengthAdjust="spacingAndGlyphs" textLength="274" x="380" y="177.4526">void reportMissingRequiredProperty(string,Field)</text><!--class BaseException--><rect fill="#FEFECE" filter="url(#f0y7z6a)" height="60.8047" style="stroke: #A80036; stroke-width: 1.5;" width="159" x="714" y="295.5"/><ellipse cx="744.75" cy="311.5" fill="#ADD1B2" rx="11" ry="11" style="stroke: #A80036; stroke-width: 1.0;"/><path d="M747.7188,317.1406 Q747.1406,317.4375 746.5,317.5859 Q745.8594,317.7344 745.1563,317.7344 Q742.6563,317.7344 741.3359,316.0859 Q740.0156,314.4375 740.0156,311.3125 Q740.0156,308.1875 741.3359,306.5313 Q742.6563,304.875 745.1563,304.875 Q745.8594,304.875 746.5078,305.0313 Q747.1563,305.1875 747.7188,305.4844 L747.7188,308.2031 Q747.0938,307.625 746.5,307.3516 Q745.9063,307.0781 745.2813,307.0781 Q743.9375,307.0781 743.25,308.1484 Q742.5625,309.2188 742.5625,311.3125 Q742.5625,313.4063 743.25,314.4766 Q743.9375,315.5469 745.2813,315.5469 Q745.9063,315.5469 746.5,315.2734 Q747.0938,315 747.7188,314.4219 L747.7188,317.1406 Z "/><text fill="#000000" font-family="sans-serif" font-size="12" lengthAdjust="spacingAndGlyphs" textLength="92" x="762.25" y="315.6543">BaseException</text><line style="stroke: #A80036; stroke-width: 1.5;" x1="715" x2="872" y1="327.5" y2="327.5"/><line style="stroke: #A80036; stroke-width: 1.5;" x1="715" x2="872" y1="335.5" y2="335.5"/><ellipse cx="725" cy="347.4023" fill="#84BE84" rx="3" ry="3" style="stroke: #038048; stroke-width: 1.0;"/><text fill="#000000" font-family="sans-serif" font-size="11" lengthAdjust="spacingAndGlyphs" textLength="133" x="734" y="349.7104">void constructor(string)</text><!--class Error--><rect fill="#FEFECE" filter="url(#f0y7z6a)" height="48" style="stroke: #A80036; stroke-width: 1.5;" width="63" x="762" y="468"/><ellipse cx="777" cy="484" fill="#ADD1B2" rx="11" ry="11" style="stroke: #A80036; stroke-width: 1.0;"/><path d="M779.9688,489.6406 Q779.3906,489.9375 778.75,490.0859 Q778.1094,490.2344 777.4063,490.2344 Q774.9063,490.2344 773.5859,488.5859 Q772.2656,486.9375 772.2656,483.8125 Q772.2656,480.6875 773.5859,479.0313 Q774.9063,477.375 777.4063,477.375 Q778.1094,477.375 778.7578,477.5313 Q779.4063,477.6875 779.9688,477.9844 L779.9688,480.7031 Q779.3438,480.125 778.75,479.8516 Q778.1563,479.5781 777.5313,479.5781 Q776.1875,479.5781 775.5,480.6484 Q774.8125,481.7188 774.8125,483.8125 Q774.8125,485.9063 775.5,486.9766 Q776.1875,488.0469 777.5313,488.0469 Q778.1563,488.0469 778.75,487.7734 Q779.3438,487.5 779.9688,486.9219 L779.9688,489.6406 Z "/><text fill="#000000" font-family="sans-serif" font-size="12" lengthAdjust="spacingAndGlyphs" textLength="31" x="791" y="488.1543">Error</text><line style="stroke: #A80036; stroke-width: 1.5;" x1="763" x2="824" y1="500" y2="500"/><line style="stroke: #A80036; stroke-width: 1.5;" x1="763" x2="824" y1="508" y2="508"/><!--class SecurityException--><rect fill="#FEFECE" filter="url(#f0y7z6a)" height="60.8047" style="stroke: #A80036; stroke-width: 1.5;" width="159" x="714" y="65.5"/><ellipse cx="736.2" cy="81.5" fill="#ADD1B2" rx="11" ry="11" style="stroke: #A80036; stroke-width: 1.0;"/><path d="M739.1688,87.1406 Q738.5906,87.4375 737.95,87.5859 Q737.3094,87.7344 736.6063,87.7344 Q734.1063,87.7344 732.7859,86.0859 Q731.4656,84.4375 731.4656,81.3125 Q731.4656,78.1875 732.7859,76.5313 Q734.1063,74.875 736.6063,74.875 Q737.3094,74.875 737.9578,75.0313 Q738.6063,75.1875 739.1688,75.4844 L739.1688,78.2031 Q738.5438,77.625 737.95,77.3516 Q737.3563,77.0781 736.7313,77.0781 Q735.3875,77.0781 734.7,78.1484 Q734.0125,79.2188 734.0125,81.3125 Q734.0125,83.4063 734.7,84.4766 Q735.3875,85.5469 736.7313,85.5469 Q737.3563,85.5469 737.95,85.2734 Q738.5438,85 739.1688,84.4219 L739.1688,87.1406 Z "/><text fill="#000000" font-family="sans-serif" font-size="12" lengthAdjust="spacingAndGlyphs" textLength="111" x="751.8" y="85.6543">SecurityException</text><line style="stroke: #A80036; stroke-width: 1.5;" x1="715" x2="872" y1="97.5" y2="97.5"/><line style="stroke: #A80036; stroke-width: 1.5;" x1="715" x2="872" y1="105.5" y2="105.5"/><ellipse cx="725" cy="117.4023" fill="#84BE84" rx="3" ry="3" style="stroke: #038048; stroke-width: 1.0;"/><text fill="#000000" font-family="sans-serif" font-size="11" lengthAdjust="spacingAndGlyphs" textLength="133" x="734" y="119.7104">void constructor(string)</text><!--class globalize--><rect fill="#FEFECE" filter="url(#f0y7z6a)" height="48" style="stroke: #A80036; stroke-width: 1.5;" width="86" x="908.25" y="72"/><ellipse cx="923.25" cy="88" fill="#DA70D6" rx="11" ry="11" style="stroke: #A80036; stroke-width: 1.0;"/><path d="M923.0469,83.6719 L923.0469,87.2969 L924.0469,87.2969 Q925.25,87.2969 925.7344,86.8906 Q926.2188,86.4844 926.2188,85.4844 Q926.2188,84.4844 925.7344,84.0781 Q925.25,83.6719 924.0469,83.6719 L923.0469,83.6719 Z M920.5938,81.6094 L923.9531,81.6094 Q926.5156,81.6094 927.6406,82.5234 Q928.7656,83.4375 928.7656,85.4844 Q928.7656,87.5313 927.6406,88.4453 Q926.5156,89.3594 923.9531,89.3594 L923.0469,89.3594 L923.0469,94 L920.5938,94 L920.5938,81.6094 Z "/><text fill="#000000" font-family="sans-serif" font-size="12" lengthAdjust="spacingAndGlyphs" textLength="54" x="937.25" y="92.1543">globalize</text><line style="stroke: #A80036; stroke-width: 1.5;" x1="909.25" x2="993.25" y1="104" y2="104"/><line style="stroke: #A80036; stroke-width: 1.5;" x1="909.25" x2="993.25" y1="112" y2="112"/><!--class Util--><rect fill="#FEFECE" filter="url(#f0y7z6a)" height="99.2188" style="stroke: #A80036; stroke-width: 1.5;" width="391" x="1030" y="46.5"/><ellipse cx="1211.25" cy="62.5" fill="#ADD1B2" rx="11" ry="11" style="stroke: #A80036; stroke-width: 1.0;"/><path d="M1214.2188,68.1406 Q1213.6406,68.4375 1213,68.5859 Q1212.3594,68.7344 1211.6563,68.7344 Q1209.1563,68.7344 1207.8359,67.0859 Q1206.5156,65.4375 1206.5156,62.3125 Q1206.5156,59.1875 1207.8359,57.5313 Q1209.1563,55.875 1211.6563,55.875 Q1212.3594,55.875 1213.0078,56.0313 Q1213.6563,56.1875 1214.2188,56.4844 L1214.2188,59.2031 Q1213.5938,58.625 1213,58.3516 Q1212.4063,58.0781 1211.7813,58.0781 Q1210.4375,58.0781 1209.75,59.1484 Q1209.0625,60.2188 1209.0625,62.3125 Q1209.0625,64.4063 1209.75,65.4766 Q1210.4375,66.5469 1211.7813,66.5469 Q1212.4063,66.5469 1213,66.2734 Q1213.5938,66 1214.2188,65.4219 L1214.2188,68.1406 Z "/><text fill="#000000" font-family="sans-serif" font-size="12" lengthAdjust="spacingAndGlyphs" textLength="20" x="1231.75" y="66.6543">Util</text><line style="stroke: #A80036; stroke-width: 1.5;" x1="1031" x2="1420" y1="78.5" y2="78.5"/><line style="stroke: #A80036; stroke-width: 1.5;" x1="1031" x2="1420" y1="86.5" y2="86.5"/><ellipse cx="1041" cy="98.4023" fill="#84BE84" rx="3" ry="3" style="stroke: #038048; stroke-width: 1.0;"/><text fill="#000000" font-family="sans-serif" font-size="11" lengthAdjust="spacingAndGlyphs" textLength="203" x="1050" y="100.7104">void securityCheck(SecurityContext)</text><ellipse cx="1041" cy="111.207" fill="#84BE84" rx="3" ry="3" style="stroke: #038048; stroke-width: 1.0;"/><text fill="#000000" font-family="sans-serif" font-size="11" lengthAdjust="spacingAndGlyphs" textLength="323" x="1050" y="113.5151">Promise queryChainCode(SecurityContext,string,string[])</text><ellipse cx="1041" cy="124.0117" fill="#84BE84" rx="3" ry="3" style="stroke: #038048; stroke-width: 1.0;"/><text fill="#000000" font-family="sans-serif" font-size="11" lengthAdjust="spacingAndGlyphs" textLength="327" x="1050" y="126.3198">Promise invokeChainCode(SecurityContext,string,string[])</text><ellipse cx="1041" cy="136.8164" fill="#84BE84" rx="3" ry="3" style="stroke: #038048; stroke-width: 1.0;"/><text fill="#000000" font-family="sans-serif" font-size="11" lengthAdjust="spacingAndGlyphs" textLength="365" x="1050" y="139.1245">Promise deployChainCode(SecurityContext,string,string,string[])</text><!--class Registry--><rect fill="#FEFECE" filter="url(#f0y7z6a)" height="163.2422" style="stroke: #A80036; stroke-width: 1.5;" width="352" x="1547.75" y="244.5"/><ellipse cx="1694.5" cy="260.5" fill="#ADD1B2" rx="11" ry="11" style="stroke: #A80036; stroke-width: 1.0;"/><path d="M1697.4688,266.1406 Q1696.8906,266.4375 1696.25,266.5859 Q1695.6094,266.7344 1694.9063,266.7344 Q1692.4063,266.7344 1691.0859,265.0859 Q1689.7656,263.4375 1689.7656,260.3125 Q1689.7656,257.1875 1691.0859,255.5313 Q1692.4063,253.875 1694.9063,253.875 Q1695.6094,253.875 1696.2578,254.0313 Q1696.9063,254.1875 1697.4688,254.4844 L1697.4688,257.2031 Q1696.8438,256.625 1696.25,256.3516 Q1695.6563,256.0781 1695.0313,256.0781 Q1693.6875,256.0781 1693,257.1484 Q1692.3125,258.2188 1692.3125,260.3125 Q1692.3125,262.4063 1693,263.4766 Q1693.6875,264.5469 1695.0313,264.5469 Q1695.6563,264.5469 1696.25,264.2734 Q1696.8438,264 1697.4688,263.4219 L1697.4688,266.1406 Z "/><text fill="#000000" font-family="sans-serif" font-size="12" lengthAdjust="spacingAndGlyphs" textLength="50" x="1715" y="264.6543">Registry</text><line style="stroke: #A80036; stroke-width: 1.5;" x1="1548.75" x2="1898.75" y1="276.5" y2="276.5"/><line style="stroke: #A80036; stroke-width: 1.5;" x1="1548.75" x2="1898.75" y1="284.5" y2="284.5"/><ellipse cx="1558.75" cy="296.4023" fill="#84BE84" rx="3" ry="3" style="stroke: #038048; stroke-width: 1.0;"/><text fill="#000000" font-family="sans-serif" font-size="11" lengthAdjust="spacingAndGlyphs" textLength="273" x="1567.75" y="298.7104">Promise getAllRegistries(SecurityContext,string)</text><ellipse cx="1558.75" cy="309.207" fill="#84BE84" rx="3" ry="3" style="stroke: #038048; stroke-width: 1.0;"/><text fill="#000000" font-family="sans-serif" font-size="11" lengthAdjust="spacingAndGlyphs" textLength="286" x="1567.75" y="311.5151">Promise getRegistry(SecurityContext,string,string)</text><ellipse cx="1558.75" cy="322.0117" fill="#84BE84" rx="3" ry="3" style="stroke: #038048; stroke-width: 1.0;"/><text fill="#000000" font-family="sans-serif" font-size="11" lengthAdjust="spacingAndGlyphs" textLength="326" x="1567.75" y="324.3198">Promise addRegistry(SecurityContext,string,string,string)</text><ellipse cx="1558.75" cy="334.8164" fill="#84BE84" rx="3" ry="3" style="stroke: #038048; stroke-width: 1.0;"/><text fill="#000000" font-family="sans-serif" font-size="11" lengthAdjust="spacingAndGlyphs" textLength="207" x="1567.75" y="337.1245">void constructor(string,string,string)</text><ellipse cx="1558.75" cy="347.6211" fill="#84BE84" rx="3" ry="3" style="stroke: #038048; stroke-width: 1.0;"/><text fill="#000000" font-family="sans-serif" font-size="11" lengthAdjust="spacingAndGlyphs" textLength="243" x="1567.75" y="349.9292">Promise add(SecurityContext,string,string)</text><ellipse cx="1558.75" cy="360.4258" fill="#84BE84" rx="3" ry="3" style="stroke: #038048; stroke-width: 1.0;"/><text fill="#000000" font-family="sans-serif" font-size="11" lengthAdjust="spacingAndGlyphs" textLength="261" x="1567.75" y="362.7339">Promise update(SecurityContext,string,string)</text><ellipse cx="1558.75" cy="373.2305" fill="#84BE84" rx="3" ry="3" style="stroke: #038048; stroke-width: 1.0;"/><text fill="#000000" font-family="sans-serif" font-size="11" lengthAdjust="spacingAndGlyphs" textLength="228" x="1567.75" y="375.5386">Promise remove(SecurityContext,string)</text><ellipse cx="1558.75" cy="386.0352" fill="#84BE84" rx="3" ry="3" style="stroke: #038048; stroke-width: 1.0;"/><text fill="#000000" font-family="sans-serif" font-size="11" lengthAdjust="spacingAndGlyphs" textLength="179" x="1567.75" y="388.3433">Promise getAll(SecurityContext)</text><ellipse cx="1558.75" cy="398.8398" fill="#84BE84" rx="3" ry="3" style="stroke: #038048; stroke-width: 1.0;"/><text fill="#000000" font-family="sans-serif" font-size="11" lengthAdjust="spacingAndGlyphs" textLength="203" x="1567.75" y="401.1479">Promise get(SecurityContext,string)</text><!--class AssetRegistry--><rect fill="#FEFECE" filter="url(#f0y7z6a)" height="163.2422" style="stroke: #A80036; stroke-width: 1.5;" width="535" x="1456" y="14.5"/><ellipse cx="1676.75" cy="30.5" fill="#ADD1B2" rx="11" ry="11" style="stroke: #A80036; stroke-width: 1.0;"/><path d="M1679.7188,36.1406 Q1679.1406,36.4375 1678.5,36.5859 Q1677.8594,36.7344 1677.1563,36.7344 Q1674.6563,36.7344 1673.3359,35.0859 Q1672.0156,33.4375 1672.0156,30.3125 Q1672.0156,27.1875 1673.3359,25.5313 Q1674.6563,23.875 1677.1563,23.875 Q1677.8594,23.875 1678.5078,24.0313 Q1679.1563,24.1875 1679.7188,24.4844 L1679.7188,27.2031 Q1679.0938,26.625 1678.5,26.3516 Q1677.9063,26.0781 1677.2813,26.0781 Q1675.9375,26.0781 1675.25,27.1484 Q1674.5625,28.2188 1674.5625,30.3125 Q1674.5625,32.4063 1675.25,33.4766 Q1675.9375,34.5469 1677.2813,34.5469 Q1677.9063,34.5469 1678.5,34.2734 Q1679.0938,34 1679.7188,33.4219 L1679.7188,36.1406 Z "/><text fill="#000000" font-family="sans-serif" font-size="12" lengthAdjust="spacingAndGlyphs" textLength="85" x="1697.25" y="34.6543">AssetRegistry</text><line style="stroke: #A80036; stroke-width: 1.5;" x1="1457" x2="1990" y1="46.5" y2="46.5"/><line style="stroke: #A80036; stroke-width: 1.5;" x1="1457" x2="1990" y1="54.5" y2="54.5"/><ellipse cx="1467" cy="66.4023" fill="#84BE84" rx="3" ry="3" style="stroke: #038048; stroke-width: 1.0;"/><text fill="#000000" font-family="sans-serif" font-size="11" lengthAdjust="spacingAndGlyphs" textLength="456" x="1476" y="68.7104">Promise getAllAssetRegistries(SecurityContext,ModelManager,Factory,Serializer)</text><ellipse cx="1467" cy="79.207" fill="#84BE84" rx="3" ry="3" style="stroke: #038048; stroke-width: 1.0;"/><text fill="#000000" font-family="sans-serif" font-size="11" lengthAdjust="spacingAndGlyphs" textLength="469" x="1476" y="81.5151">Promise getAssetRegistry(SecurityContext,string,ModelManager,Factory,Serializer)</text><ellipse cx="1467" cy="92.0117" fill="#84BE84" rx="3" ry="3" style="stroke: #038048; stroke-width: 1.0;"/><text fill="#000000" font-family="sans-serif" font-size="11" lengthAdjust="spacingAndGlyphs" textLength="509" x="1476" y="94.3198">Promise addAssetRegistry(SecurityContext,string,string,ModelManager,Factory,Serializer)</text><ellipse cx="1467" cy="104.8164" fill="#84BE84" rx="3" ry="3" style="stroke: #038048; stroke-width: 1.0;"/><text fill="#000000" font-family="sans-serif" font-size="11" lengthAdjust="spacingAndGlyphs" textLength="358" x="1476" y="107.1245">void constructor(string,string,ModelManager,Factory,Serializer)</text><ellipse cx="1467" cy="117.6211" fill="#84BE84" rx="3" ry="3" style="stroke: #038048; stroke-width: 1.0;"/><text fill="#000000" font-family="sans-serif" font-size="11" lengthAdjust="spacingAndGlyphs" textLength="226" x="1476" y="119.9292">Promise add(SecurityContext,Resource)</text><ellipse cx="1467" cy="130.4258" fill="#84BE84" rx="3" ry="3" style="stroke: #038048; stroke-width: 1.0;"/><text fill="#000000" font-family="sans-serif" font-size="11" lengthAdjust="spacingAndGlyphs" textLength="244" x="1476" y="132.7339">Promise update(SecurityContext,Resource)</text><ellipse cx="1467" cy="143.2305" fill="#84BE84" rx="3" ry="3" style="stroke: #038048; stroke-width: 1.0;"/><text fill="#000000" font-family="sans-serif" font-size="11" lengthAdjust="spacingAndGlyphs" textLength="293" x="1476" y="145.5386">Promise remove(SecurityContext,(Resource|string))</text><ellipse cx="1467" cy="156.0352" fill="#84BE84" rx="3" ry="3" style="stroke: #038048; stroke-width: 1.0;"/><text fill="#000000" font-family="sans-serif" font-size="11" lengthAdjust="spacingAndGlyphs" textLength="179" x="1476" y="158.3433">Promise getAll(SecurityContext)</text><ellipse cx="1467" cy="168.8398" fill="#84BE84" rx="3" ry="3" style="stroke: #038048; stroke-width: 1.0;"/><text fill="#000000" font-family="sans-serif" font-size="11" lengthAdjust="spacingAndGlyphs" textLength="203" x="1476" y="171.1479">Promise get(SecurityContext,string)</text><path d="M188.39,126.807 C209.673,154.223 242.352,196.318 272.128,234.673 " fill="none" style="stroke: #A80036; stroke-width: 1.0;"/><polygon fill="none" points="277.715,230.456,284.451,250.546,266.657,239.041,277.715,230.456" style="stroke: #A80036; stroke-width: 1.0;"/><path d="M451.576,184.173 C438.7,200.759 425.201,218.148 412.254,234.825 " fill="none" style="stroke: #A80036; stroke-width: 1.0;"/><polygon fill="none" points="417.588,239.37,399.794,250.876,406.529,230.785,417.588,239.37" style="stroke: #A80036; stroke-width: 1.0;"/><path d="M793.25,356.699 C793.25,382.149 793.25,419.1359 793.25,447.8532 " fill="none" style="stroke: #A80036; stroke-width: 1.0;"/><polygon fill="none" points="800.25,447.8737,793.25,467.8737,786.25,447.8736,800.25,447.8737" style="stroke: #A80036; stroke-width: 1.0;"/><path d="M793.25,126.807 C793.25,164.444 793.25,229.743 793.25,275.054 " fill="none" style="stroke: #A80036; stroke-width: 1.0;"/><polygon fill="none" points="800.25,275.186,793.25,295.186,786.25,275.186,800.25,275.186" style="stroke: #A80036; stroke-width: 1.0;"/><path d="M1723.25,177.705 C1723.25,192.758 1723.25,208.66 1723.25,224.229 " fill="none" style="stroke: #A80036; stroke-width: 1.0;"/><polygon fill="none" points="1730.25,224.403,1723.25,244.403,1716.25,224.403,1730.25,224.403" style="stroke: #A80036; stroke-width: 1.0;"/></g></svg>