<?xml version="1.0" encoding="UTF-8" standalone="no"?><svg xmlns="http://www.w3.org/2000/svg" xmlns:xlink="http://www.w3.org/1999/xlink" contentScriptType="application/ecmascript" contentStyleType="text/css" height="441px" preserveAspectRatio="none" style="width:1101px;height:441px;" version="1.1" viewBox="0 0 1101 441" width="1101px" zoomAndPan="magnify"><defs><filter height="300%" id="fg6kroj" width="300%" x="-1" y="-1"><feGaussianBlur result="blurOut" stdDeviation="2.0"/><feColorMatrix in="blurOut" result="blurOut2" type="matrix" values="0 0 0 0 0 0 0 0 0 0 0 0 0 0 0 0 0 0 .4 0"/><feOffset dx="4.0" dy="4.0" in="blurOut2" result="blurOut3"/><feBlend in="SourceGraphic" in2="blurOut3" mode="normal"/></filter></defs><g><!--class Property--><rect fill="#FEFECE" filter="url(#fg6kroj)" height="150.4375" style="stroke: #A80036; stroke-width: 1.5;" width="201" x="203.75" y="282"/><ellipse cx="273.5" cy="298" fill="#ADD1B2" rx="11" ry="11" style="stroke: #A80036; stroke-width: 1.0;"/><path d="M276.4688,303.6406 Q275.8906,303.9375 275.25,304.0859 Q274.6094,304.2344 273.9063,304.2344 Q271.4063,304.2344 270.0859,302.5859 Q268.7656,300.9375 268.7656,297.8125 Q268.7656,294.6875 270.0859,293.0313 Q271.4063,291.375 273.9063,291.375 Q274.6094,291.375 275.2578,291.5313 Q275.9063,291.6875 276.4688,291.9844 L276.4688,294.7031 Q275.8438,294.125 275.25,293.8516 Q274.6563,293.5781 274.0313,293.5781 Q272.6875,293.5781 272,294.6484 Q271.3125,295.7188 271.3125,297.8125 Q271.3125,299.9063 272,300.9766 Q272.6875,302.0469 274.0313,302.0469 Q274.6563,302.0469 275.25,301.7734 Q275.8438,301.5 276.4688,300.9219 L276.4688,303.6406 Z "/><text fill="#000000" font-family="sans-serif" font-size="12" lengthAdjust="spacingAndGlyphs" textLength="53" x="294" y="302.1543">Property</text><line style="stroke: #A80036; stroke-width: 1.5;" x1="204.75" x2="403.75" y1="314" y2="314"/><line style="stroke: #A80036; stroke-width: 1.5;" x1="204.75" x2="403.75" y1="322" y2="322"/><ellipse cx="214.75" cy="333.9023" fill="#84BE84" rx="3" ry="3" style="stroke: #038048; stroke-width: 1.0;"/><text fill="#000000" font-family="sans-serif" font-size="11" lengthAdjust="spacingAndGlyphs" textLength="136" x="223.75" y="336.2104">void constructor(Object)</text><rect fill="#F24D5C" height="6" style="stroke: #C82930; stroke-width: 1.0;" width="6" x="211.75" y="343.707"/><text fill="#000000" font-family="sans-serif" font-size="11" lengthAdjust="spacingAndGlyphs" textLength="161" x="223.75" y="349.0151">Object accept(Object,Object)</text><rect fill="#F24D5C" height="6" style="stroke: #C82930; stroke-width: 1.0;" width="6" x="211.75" y="356.5117"/><text fill="#000000" font-family="sans-serif" font-size="11" lengthAdjust="spacingAndGlyphs" textLength="81" x="223.75" y="361.8198">void process()</text><rect fill="#F24D5C" height="6" style="stroke: #C82930; stroke-width: 1.0;" width="6" x="211.75" y="369.3164"/><text fill="#000000" font-family="sans-serif" font-size="11" lengthAdjust="spacingAndGlyphs" textLength="175" x="223.75" y="374.6245">void validate(ClassDeclaration)</text><ellipse cx="214.75" cy="385.1211" fill="#84BE84" rx="3" ry="3" style="stroke: #038048; stroke-width: 1.0;"/><text fill="#000000" font-family="sans-serif" font-size="11" lengthAdjust="spacingAndGlyphs" textLength="96" x="223.75" y="387.4292">string getName()</text><ellipse cx="214.75" cy="397.9258" fill="#84BE84" rx="3" ry="3" style="stroke: #038048; stroke-width: 1.0;"/><text fill="#000000" font-family="sans-serif" font-size="11" lengthAdjust="spacingAndGlyphs" textLength="90" x="223.75" y="400.2339">string getType()</text><ellipse cx="214.75" cy="410.7305" fill="#84BE84" rx="3" ry="3" style="stroke: #038048; stroke-width: 1.0;"/><text fill="#000000" font-family="sans-serif" font-size="11" lengthAdjust="spacingAndGlyphs" textLength="97" x="223.75" y="413.0386">boolean isArray()</text><ellipse cx="214.75" cy="423.5352" fill="#84BE84" rx="3" ry="3" style="stroke: #038048; stroke-width: 1.0;"/><text fill="#000000" font-family="sans-serif" font-size="11" lengthAdjust="spacingAndGlyphs" textLength="99" x="223.75" y="425.8433">boolean isEnum()</text><!--class Field--><rect fill="#FEFECE" filter="url(#fg6kroj)" height="112.0234" style="stroke: #A80036; stroke-width: 1.5;" width="162" x="6" y="59"/><ellipse cx="68.25" cy="75" fill="#ADD1B2" rx="11" ry="11" style="stroke: #A80036; stroke-width: 1.0;"/><path d="M71.2188,80.6406 Q70.6406,80.9375 70,81.0859 Q69.3594,81.2344 68.6563,81.2344 Q66.1563,81.2344 64.8359,79.5859 Q63.5156,77.9375 63.5156,74.8125 Q63.5156,71.6875 64.8359,70.0313 Q66.1563,68.375 68.6563,68.375 Q69.3594,68.375 70.0078,68.5313 Q70.6563,68.6875 71.2188,68.9844 L71.2188,71.7031 Q70.5938,71.125 70,70.8516 Q69.4063,70.5781 68.7813,70.5781 Q67.4375,70.5781 66.75,71.6484 Q66.0625,72.7188 66.0625,74.8125 Q66.0625,76.9063 66.75,77.9766 Q67.4375,79.0469 68.7813,79.0469 Q69.4063,79.0469 70,78.7734 Q70.5938,78.5 71.2188,77.9219 L71.2188,80.6406 Z "/><text fill="#000000" font-family="sans-serif" font-size="12" lengthAdjust="spacingAndGlyphs" textLength="29" x="88.75" y="79.1543">Field</text><line style="stroke: #A80036; stroke-width: 1.5;" x1="7" x2="167" y1="91" y2="91"/><line style="stroke: #A80036; stroke-width: 1.5;" x1="7" x2="167" y1="99" y2="99"/><ellipse cx="17" cy="110.9023" fill="#84BE84" rx="3" ry="3" style="stroke: #038048; stroke-width: 1.0;"/><text fill="#000000" font-family="sans-serif" font-size="11" lengthAdjust="spacingAndGlyphs" textLength="136" x="26" y="113.2104">void constructor(Object)</text><rect fill="#F24D5C" height="6" style="stroke: #C82930; stroke-width: 1.0;" width="6" x="14" y="120.707"/><text fill="#000000" font-family="sans-serif" font-size="11" lengthAdjust="spacingAndGlyphs" textLength="81" x="26" y="126.0151">void process()</text><ellipse cx="17" cy="136.5117" fill="#84BE84" rx="3" ry="3" style="stroke: #038048; stroke-width: 1.0;"/><text fill="#000000" font-family="sans-serif" font-size="11" lengthAdjust="spacingAndGlyphs" textLength="113" x="26" y="138.8198">string getValidator()</text><ellipse cx="17" cy="149.3164" fill="#84BE84" rx="3" ry="3" style="stroke: #038048; stroke-width: 1.0;"/><text fill="#000000" font-family="sans-serif" font-size="11" lengthAdjust="spacingAndGlyphs" textLength="114" x="26" y="151.6245">boolean isOptional()</text><ellipse cx="17" cy="162.1211" fill="#84BE84" rx="3" ry="3" style="stroke: #038048; stroke-width: 1.0;"/><text fill="#000000" font-family="sans-serif" font-size="11" lengthAdjust="spacingAndGlyphs" textLength="134" x="26" y="164.4292">string getDefaultValue()</text><!--class EnumValueDeclaration--><rect fill="#FEFECE" filter="url(#fg6kroj)" height="73.6094" style="stroke: #A80036; stroke-width: 1.5;" width="201" x="203.75" y="78"/><ellipse cx="230.9" cy="94" fill="#ADD1B2" rx="11" ry="11" style="stroke: #A80036; stroke-width: 1.0;"/><path d="M233.8688,99.6406 Q233.2906,99.9375 232.65,100.0859 Q232.0094,100.2344 231.3063,100.2344 Q228.8063,100.2344 227.4859,98.5859 Q226.1656,96.9375 226.1656,93.8125 Q226.1656,90.6875 227.4859,89.0313 Q228.8063,87.375 231.3063,87.375 Q232.0094,87.375 232.6578,87.5313 Q233.3063,87.6875 233.8688,87.9844 L233.8688,90.7031 Q233.2438,90.125 232.65,89.8516 Q232.0563,89.5781 231.4313,89.5781 Q230.0875,89.5781 229.4,90.6484 Q228.7125,91.7188 228.7125,93.8125 Q228.7125,95.9063 229.4,96.9766 Q230.0875,98.0469 231.4313,98.0469 Q232.0563,98.0469 232.65,97.7734 Q233.2438,97.5 233.8688,96.9219 L233.8688,99.6406 Z "/><text fill="#000000" font-family="sans-serif" font-size="12" lengthAdjust="spacingAndGlyphs" textLength="142" x="247.6" y="98.1543">EnumValueDeclaration</text><line style="stroke: #A80036; stroke-width: 1.5;" x1="204.75" x2="403.75" y1="110" y2="110"/><line style="stroke: #A80036; stroke-width: 1.5;" x1="204.75" x2="403.75" y1="118" y2="118"/><ellipse cx="214.75" cy="129.9023" fill="#84BE84" rx="3" ry="3" style="stroke: #038048; stroke-width: 1.0;"/><text fill="#000000" font-family="sans-serif" font-size="11" lengthAdjust="spacingAndGlyphs" textLength="136" x="223.75" y="132.2104">void constructor(Object)</text><rect fill="#F24D5C" height="6" style="stroke: #C82930; stroke-width: 1.0;" width="6" x="211.75" y="139.707"/><text fill="#000000" font-family="sans-serif" font-size="11" lengthAdjust="spacingAndGlyphs" textLength="175" x="223.75" y="145.0151">void validate(ClassDeclaration)</text><!--class IllegalModelException--><rect fill="#FEFECE" filter="url(#fg6kroj)" height="60.8047" style="stroke: #A80036; stroke-width: 1.5;" width="166" x="676" y="84.5"/><ellipse cx="691" cy="100.5" fill="#ADD1B2" rx="11" ry="11" style="stroke: #A80036; stroke-width: 1.0;"/><path d="M693.9688,106.1406 Q693.3906,106.4375 692.75,106.5859 Q692.1094,106.7344 691.4063,106.7344 Q688.9063,106.7344 687.5859,105.0859 Q686.2656,103.4375 686.2656,100.3125 Q686.2656,97.1875 687.5859,95.5313 Q688.9063,93.875 691.4063,93.875 Q692.1094,93.875 692.7578,94.0313 Q693.4063,94.1875 693.9688,94.4844 L693.9688,97.2031 Q693.3438,96.625 692.75,96.3516 Q692.1563,96.0781 691.5313,96.0781 Q690.1875,96.0781 689.5,97.1484 Q688.8125,98.2188 688.8125,100.3125 Q688.8125,102.4063 689.5,103.4766 Q690.1875,104.5469 691.5313,104.5469 Q692.1563,104.5469 692.75,104.2734 Q693.3438,104 693.9688,103.4219 L693.9688,106.1406 Z "/><text fill="#000000" font-family="sans-serif" font-size="12" lengthAdjust="spacingAndGlyphs" textLength="134" x="705" y="104.6543">IllegalModelException</text><line style="stroke: #A80036; stroke-width: 1.5;" x1="677" x2="841" y1="116.5" y2="116.5"/><line style="stroke: #A80036; stroke-width: 1.5;" x1="677" x2="841" y1="124.5" y2="124.5"/><ellipse cx="687" cy="136.4023" fill="#84BE84" rx="3" ry="3" style="stroke: #038048; stroke-width: 1.0;"/><text fill="#000000" font-family="sans-serif" font-size="11" lengthAdjust="spacingAndGlyphs" textLength="133" x="696" y="138.7104">void constructor(string)</text><!--class BaseException--><rect fill="#FEFECE" filter="url(#fg6kroj)" height="48" style="stroke: #A80036; stroke-width: 1.5;" width="124" x="697.5" y="333"/><ellipse cx="712.5" cy="349" fill="#ADD1B2" rx="11" ry="11" style="stroke: #A80036; stroke-width: 1.0;"/><path d="M715.4688,354.6406 Q714.8906,354.9375 714.25,355.0859 Q713.6094,355.2344 712.9063,355.2344 Q710.4063,355.2344 709.0859,353.5859 Q707.7656,351.9375 707.7656,348.8125 Q707.7656,345.6875 709.0859,344.0313 Q710.4063,342.375 712.9063,342.375 Q713.6094,342.375 714.2578,342.5313 Q714.9063,342.6875 715.4688,342.9844 L715.4688,345.7031 Q714.8438,345.125 714.25,344.8516 Q713.6563,344.5781 713.0313,344.5781 Q711.6875,344.5781 711,345.6484 Q710.3125,346.7188 710.3125,348.8125 Q710.3125,350.9063 711,351.9766 Q711.6875,353.0469 713.0313,353.0469 Q713.6563,353.0469 714.25,352.7734 Q714.8438,352.5 715.4688,351.9219 L715.4688,354.6406 Z "/><text fill="#000000" font-family="sans-serif" font-size="12" lengthAdjust="spacingAndGlyphs" textLength="92" x="726.5" y="353.1543">BaseException</text><line style="stroke: #A80036; stroke-width: 1.5;" x1="698.5" x2="820.5" y1="365" y2="365"/><line style="stroke: #A80036; stroke-width: 1.5;" x1="698.5" x2="820.5" y1="373" y2="373"/><!--class RelationshipDeclaration--><rect fill="#FEFECE" filter="url(#fg6kroj)" height="73.6094" style="stroke: #A80036; stroke-width: 1.5;" width="201" x="439.75" y="78"/><ellipse cx="463.75" cy="94" fill="#ADD1B2" rx="11" ry="11" style="stroke: #A80036; stroke-width: 1.0;"/><path d="M466.7188,99.6406 Q466.1406,99.9375 465.5,100.0859 Q464.8594,100.2344 464.1563,100.2344 Q461.6563,100.2344 460.3359,98.5859 Q459.0156,96.9375 459.0156,93.8125 Q459.0156,90.6875 460.3359,89.0313 Q461.6563,87.375 464.1563,87.375 Q464.8594,87.375 465.5078,87.5313 Q466.1563,87.6875 466.7188,87.9844 L466.7188,90.7031 Q466.0938,90.125 465.5,89.8516 Q464.9063,89.5781 464.2813,89.5781 Q462.9375,89.5781 462.25,90.6484 Q461.5625,91.7188 461.5625,93.8125 Q461.5625,95.9063 462.25,96.9766 Q462.9375,98.0469 464.2813,98.0469 Q464.9063,98.0469 465.5,97.7734 Q466.0938,97.5 466.7188,96.9219 L466.7188,99.6406 Z "/><text fill="#000000" font-family="sans-serif" font-size="12" lengthAdjust="spacingAndGlyphs" textLength="149" x="479.75" y="98.1543">RelationshipDeclaration</text><line style="stroke: #A80036; stroke-width: 1.5;" x1="440.75" x2="639.75" y1="110" y2="110"/><line style="stroke: #A80036; stroke-width: 1.5;" x1="440.75" x2="639.75" y1="118" y2="118"/><ellipse cx="450.75" cy="129.9023" fill="#84BE84" rx="3" ry="3" style="stroke: #038048; stroke-width: 1.0;"/><text fill="#000000" font-family="sans-serif" font-size="11" lengthAdjust="spacingAndGlyphs" textLength="136" x="459.75" y="132.2104">void constructor(Object)</text><rect fill="#F24D5C" height="6" style="stroke: #C82930; stroke-width: 1.0;" width="6" x="447.75" y="139.707"/><text fill="#000000" font-family="sans-serif" font-size="11" lengthAdjust="spacingAndGlyphs" textLength="175" x="459.75" y="145.0151">void validate(ClassDeclaration)</text><!--class ClassDeclaration--><rect fill="#FEFECE" filter="url(#fg6kroj)" height="214.4609" style="stroke: #A80036; stroke-width: 1.5;" width="215" x="877.75" y="8"/><ellipse cx="928.5" cy="24" fill="#ADD1B2" rx="11" ry="11" style="stroke: #A80036; stroke-width: 1.0;"/><path d="M931.4688,29.6406 Q930.8906,29.9375 930.25,30.0859 Q929.6094,30.2344 928.9063,30.2344 Q926.4063,30.2344 925.0859,28.5859 Q923.7656,26.9375 923.7656,23.8125 Q923.7656,20.6875 925.0859,19.0313 Q926.4063,17.375 928.9063,17.375 Q929.6094,17.375 930.2578,17.5313 Q930.9063,17.6875 931.4688,17.9844 L931.4688,20.7031 Q930.8438,20.125 930.25,19.8516 Q929.6563,19.5781 929.0313,19.5781 Q927.6875,19.5781 927,20.6484 Q926.3125,21.7188 926.3125,23.8125 Q926.3125,25.9063 927,26.9766 Q927.6875,28.0469 929.0313,28.0469 Q929.6563,28.0469 930.25,27.7734 Q930.8438,27.5 931.4688,26.9219 L931.4688,29.6406 Z "/><text fill="#000000" font-family="sans-serif" font-size="12" lengthAdjust="spacingAndGlyphs" textLength="105" x="949" y="28.1543">ClassDeclaration</text><line style="stroke: #A80036; stroke-width: 1.5;" x1="878.75" x2="1091.75" y1="40" y2="40"/><line style="stroke: #A80036; stroke-width: 1.5;" x1="878.75" x2="1091.75" y1="48" y2="48"/><ellipse cx="888.75" cy="59.9023" fill="#84BE84" rx="3" ry="3" style="stroke: #038048; stroke-width: 1.0;"/><text fill="#000000" font-family="sans-serif" font-size="11" lengthAdjust="spacingAndGlyphs" textLength="189" x="897.75" y="62.2104">void constructor(ModelFile,string)</text><rect fill="#F24D5C" height="6" style="stroke: #C82930; stroke-width: 1.0;" width="6" x="885.75" y="69.707"/><text fill="#000000" font-family="sans-serif" font-size="11" lengthAdjust="spacingAndGlyphs" textLength="161" x="897.75" y="75.0151">Object accept(Object,Object)</text><ellipse cx="888.75" cy="85.5117" fill="#84BE84" rx="3" ry="3" style="stroke: #038048; stroke-width: 1.0;"/><text fill="#000000" font-family="sans-serif" font-size="11" lengthAdjust="spacingAndGlyphs" textLength="134" x="897.75" y="87.8198">ModelFile getModelFile()</text><rect fill="#F24D5C" height="6" style="stroke: #C82930; stroke-width: 1.0;" width="6" x="885.75" y="95.3164"/><text fill="#000000" font-family="sans-serif" font-size="11" lengthAdjust="spacingAndGlyphs" textLength="81" x="897.75" y="100.6245">void process()</text><rect fill="#F24D5C" height="6" style="stroke: #C82930; stroke-width: 1.0;" width="6" x="885.75" y="108.1211"/><text fill="#000000" font-family="sans-serif" font-size="11" lengthAdjust="spacingAndGlyphs" textLength="79" x="897.75" y="113.4292">void validate()</text><ellipse cx="888.75" cy="123.9258" fill="#84BE84" rx="3" ry="3" style="stroke: #038048; stroke-width: 1.0;"/><text fill="#000000" font-family="sans-serif" font-size="11" lengthAdjust="spacingAndGlyphs" textLength="96" x="897.75" y="126.2339">string getName()</text><ellipse cx="888.75" cy="136.7305" fill="#84BE84" rx="3" ry="3" style="stroke: #038048; stroke-width: 1.0;"/><text fill="#000000" font-family="sans-serif" font-size="11" lengthAdjust="spacingAndGlyphs" textLength="171" x="897.75" y="139.0386">string getFullyQualifiedName()</text><ellipse cx="888.75" cy="149.5352" fill="#84BE84" rx="3" ry="3" style="stroke: #038048; stroke-width: 1.0;"/><text fill="#000000" font-family="sans-serif" font-size="11" lengthAdjust="spacingAndGlyphs" textLength="172" x="897.75" y="151.8433">string getIdentifierFieldName()</text><ellipse cx="888.75" cy="162.3398" fill="#84BE84" rx="3" ry="3" style="stroke: #038048; stroke-width: 1.0;"/><text fill="#000000" font-family="sans-serif" font-size="11" lengthAdjust="spacingAndGlyphs" textLength="184" x="897.75" y="164.6479">Property getOwnProperty(string)</text><ellipse cx="888.75" cy="175.1445" fill="#84BE84" rx="3" ry="3" style="stroke: #038048; stroke-width: 1.0;"/><text fill="#000000" font-family="sans-serif" font-size="11" lengthAdjust="spacingAndGlyphs" textLength="170" x="897.75" y="177.4526">Property[] getOwnProperties()</text><ellipse cx="888.75" cy="187.9492" fill="#84BE84" rx="3" ry="3" style="stroke: #038048; stroke-width: 1.0;"/><text fill="#000000" font-family="sans-serif" font-size="11" lengthAdjust="spacingAndGlyphs" textLength="124" x="897.75" y="190.2573">string getSuperType()</text><ellipse cx="888.75" cy="200.7539" fill="#84BE84" rx="3" ry="3" style="stroke: #038048; stroke-width: 1.0;"/><text fill="#000000" font-family="sans-serif" font-size="11" lengthAdjust="spacingAndGlyphs" textLength="159" x="897.75" y="203.062">Property getProperty(string)</text><ellipse cx="888.75" cy="213.5586" fill="#84BE84" rx="3" ry="3" style="stroke: #038048; stroke-width: 1.0;"/><text fill="#000000" font-family="sans-serif" font-size="11" lengthAdjust="spacingAndGlyphs" textLength="145" x="897.75" y="215.8667">Property[] getProperties()</text><path d="M136.784,171.061 C162.385,199.375 194.227,234.592 223.235,266.674 " fill="none" style="stroke: #A80036; stroke-width: 1.0;"/><polygon fill="none" points="228.546,262.111,236.767,281.641,218.161,271.5,228.546,262.111" style="stroke: #A80036; stroke-width: 1.0;"/><path d="M304,152.19 C304,181.161 304,223.15 304,261.496 " fill="none" style="stroke: #A80036; stroke-width: 1.0;"/><polygon fill="none" points="311,261.722,304,281.722,297,261.722,311,261.722" style="stroke: #A80036; stroke-width: 1.0;"/><path d="M759,145.911 C759,187.878 759,264.488 759,312.688 " fill="none" style="stroke: #A80036; stroke-width: 1.0;"/><polygon fill="none" points="766,312.904,759,332.9044,752,312.904,766,312.904" style="stroke: #A80036; stroke-width: 1.0;"/><path d="M504.413,152.19 C474.481,182.63 430.417,227.44 391.224,267.298 " fill="none" style="stroke: #A80036; stroke-width: 1.0;"/><polygon fill="none" points="396.054,272.37,377.04,281.722,386.072,262.554,396.054,272.37" style="stroke: #A80036; stroke-width: 1.0;"/></g></svg>