<?xml version="1.0" encoding="UTF-8" standalone="no"?><svg xmlns="http://www.w3.org/2000/svg" xmlns:xlink="http://www.w3.org/1999/xlink" contentScriptType="application/ecmascript" contentStyleType="text/css" height="301px" preserveAspectRatio="none" style="width:216px;height:301px;" version="1.1" viewBox="0 0 216 301" width="216px" zoomAndPan="magnify"><defs><filter height="300%" id="fz935bm" width="300%" x="-1" y="-1"><feGaussianBlur result="blurOut" stdDeviation="2.0"/><feColorMatrix in="blurOut" result="blurOut2" type="matrix" values="0 0 0 0 0 0 0 0 0 0 0 0 0 0 0 0 0 0 .4 0"/><feOffset dx="4.0" dy="4.0" in="blurOut2" result="blurOut3"/><feBlend in="SourceGraphic" in2="blurOut3" mode="normal"/></filter></defs><g><!--class Property--><rect fill="#FEFECE" filter="url(#fz935bm)" height="150.4375" style="stroke: #A80036; stroke-width: 1.5;" width="201" x="6" y="142"/><ellipse cx="75.75" cy="158" fill="#ADD1B2" rx="11" ry="11" style="stroke: #A80036; stroke-width: 1.0;"/><path d="M78.7188,163.6406 Q78.1406,163.9375 77.5,164.0859 Q76.8594,164.2344 76.1563,164.2344 Q73.6563,164.2344 72.3359,162.5859 Q71.0156,160.9375 71.0156,157.8125 Q71.0156,154.6875 72.3359,153.0313 Q73.6563,151.375 76.1563,151.375 Q76.8594,151.375 77.5078,151.5313 Q78.1563,151.6875 78.7188,151.9844 L78.7188,154.7031 Q78.0938,154.125 77.5,153.8516 Q76.9063,153.5781 76.2813,153.5781 Q74.9375,153.5781 74.25,154.6484 Q73.5625,155.7188 73.5625,157.8125 Q73.5625,159.9063 74.25,160.9766 Q74.9375,162.0469 76.2813,162.0469 Q76.9063,162.0469 77.5,161.7734 Q78.0938,161.5 78.7188,160.9219 L78.7188,163.6406 Z "/><text fill="#000000" font-family="sans-serif" font-size="12" lengthAdjust="spacingAndGlyphs" textLength="53" x="96.25" y="162.1543">Property</text><line style="stroke: #A80036; stroke-width: 1.5;" x1="7" x2="206" y1="174" y2="174"/><line style="stroke: #A80036; stroke-width: 1.5;" x1="7" x2="206" y1="182" y2="182"/><ellipse cx="17" cy="193.9023" fill="#84BE84" rx="3" ry="3" style="stroke: #038048; stroke-width: 1.0;"/><text fill="#000000" font-family="sans-serif" font-size="11" lengthAdjust="spacingAndGlyphs" textLength="136" x="26" y="196.2104">void constructor(Object)</text><rect fill="#F24D5C" height="6" style="stroke: #C82930; stroke-width: 1.0;" width="6" x="14" y="203.707"/><text fill="#000000" font-family="sans-serif" font-size="11" lengthAdjust="spacingAndGlyphs" textLength="161" x="26" y="209.0151">Object accept(Object,Object)</text><rect fill="#F24D5C" height="6" style="stroke: #C82930; stroke-width: 1.0;" width="6" x="14" y="216.5117"/><text fill="#000000" font-family="sans-serif" font-size="11" lengthAdjust="spacingAndGlyphs" textLength="81" x="26" y="221.8198">void process()</text><rect fill="#F24D5C" height="6" style="stroke: #C82930; stroke-width: 1.0;" width="6" x="14" y="229.3164"/><text fill="#000000" font-family="sans-serif" font-size="11" lengthAdjust="spacingAndGlyphs" textLength="175" x="26" y="234.6245">void validate(ClassDeclaration)</text><ellipse cx="17" cy="245.1211" fill="#84BE84" rx="3" ry="3" style="stroke: #038048; stroke-width: 1.0;"/><text fill="#000000" font-family="sans-serif" font-size="11" lengthAdjust="spacingAndGlyphs" textLength="96" x="26" y="247.4292">string getName()</text><ellipse cx="17" cy="257.9258" fill="#84BE84" rx="3" ry="3" style="stroke: #038048; stroke-width: 1.0;"/><text fill="#000000" font-family="sans-serif" font-size="11" lengthAdjust="spacingAndGlyphs" textLength="90" x="26" y="260.2339">string getType()</text><ellipse cx="17" cy="270.7305" fill="#84BE84" rx="3" ry="3" style="stroke: #038048; stroke-width: 1.0;"/><text fill="#000000" font-family="sans-serif" font-size="11" lengthAdjust="spacingAndGlyphs" textLength="97" x="26" y="273.0386">boolean isArray()</text><ellipse cx="17" cy="283.5352" fill="#84BE84" rx="3" ry="3" style="stroke: #038048; stroke-width: 1.0;"/><text fill="#000000" font-family="sans-serif" font-size="11" lengthAdjust="spacingAndGlyphs" textLength="99" x="26" y="285.8433">boolean isEnum()</text><!--class EnumValueDeclaration--><rect fill="#FEFECE" filter="url(#fz935bm)" height="73.6094" style="stroke: #A80036; stroke-width: 1.5;" width="201" x="6" y="8"/><ellipse cx="33.15" cy="24" fill="#ADD1B2" rx="11" ry="11" style="stroke: #A80036; stroke-width: 1.0;"/><path d="M36.1188,29.6406 Q35.5406,29.9375 34.9,30.0859 Q34.2594,30.2344 33.5563,30.2344 Q31.0563,30.2344 29.7359,28.5859 Q28.4156,26.9375 28.4156,23.8125 Q28.4156,20.6875 29.7359,19.0313 Q31.0563,17.375 33.5563,17.375 Q34.2594,17.375 34.9078,17.5313 Q35.5563,17.6875 36.1188,17.9844 L36.1188,20.7031 Q35.4938,20.125 34.9,19.8516 Q34.3063,19.5781 33.6813,19.5781 Q32.3375,19.5781 31.65,20.6484 Q30.9625,21.7188 30.9625,23.8125 Q30.9625,25.9063 31.65,26.9766 Q32.3375,28.0469 33.6813,28.0469 Q34.3063,28.0469 34.9,27.7734 Q35.4938,27.5 36.1188,26.9219 L36.1188,29.6406 Z "/><text fill="#000000" font-family="sans-serif" font-size="12" lengthAdjust="spacingAndGlyphs" textLength="142" x="49.85" y="28.1543">EnumValueDeclaration</text><line style="stroke: #A80036; stroke-width: 1.5;" x1="7" x2="206" y1="40" y2="40"/><line style="stroke: #A80036; stroke-width: 1.5;" x1="7" x2="206" y1="48" y2="48"/><ellipse cx="17" cy="59.9023" fill="#84BE84" rx="3" ry="3" style="stroke: #038048; stroke-width: 1.0;"/><text fill="#000000" font-family="sans-serif" font-size="11" lengthAdjust="spacingAndGlyphs" textLength="136" x="26" y="62.2104">void constructor(Object)</text><rect fill="#F24D5C" height="6" style="stroke: #C82930; stroke-width: 1.0;" width="6" x="14" y="69.707"/><text fill="#000000" font-family="sans-serif" font-size="11" lengthAdjust="spacingAndGlyphs" textLength="175" x="26" y="75.0151">void validate(ClassDeclaration)</text><path d="M106.25,82.053 C106.25,93.911 106.25,107.696 106.25,121.824 " fill="none" style="stroke: #A80036; stroke-width: 1.0;"/><polygon fill="none" points="113.25,121.861,106.25,141.861,99.2501,121.86,113.25,121.861" style="stroke: #A80036; stroke-width: 1.0;"/></g></svg>