<?xml version="1.0" encoding="UTF-8" standalone="no"?><svg xmlns="http://www.w3.org/2000/svg" xmlns:xlink="http://www.w3.org/1999/xlink" contentScriptType="application/ecmascript" contentStyleType="text/css" height="511px" preserveAspectRatio="none" style="width:1586px;height:511px;" version="1.1" viewBox="0 0 1586 511" width="1586px" zoomAndPan="magnify"><defs><filter height="300%" id="fyjeggd" width="300%" x="-1" y="-1"><feGaussianBlur result="blurOut" stdDeviation="2.0"/><feColorMatrix in="blurOut" result="blurOut2" type="matrix" values="0 0 0 0 0 0 0 0 0 0 0 0 0 0 0 0 0 0 .4 0"/><feOffset dx="4.0" dy="4.0" in="blurOut2" result="blurOut3"/><feBlend in="SourceGraphic" in2="blurOut3" mode="normal"/></filter></defs><g><!--class Identifiable--><rect fill="#FEFECE" filter="url(#fyjeggd)" height="150.4375" style="stroke: #A80036; stroke-width: 1.5;" width="319" x="887" y="244"/><ellipse cx="1007.75" cy="260" fill="#ADD1B2" rx="11" ry="11" style="stroke: #A80036; stroke-width: 1.0;"/><path d="M1010.7188,265.6406 Q1010.1406,265.9375 1009.5,266.0859 Q1008.8594,266.2344 1008.1563,266.2344 Q1005.6563,266.2344 1004.3359,264.5859 Q1003.0156,262.9375 1003.0156,259.8125 Q1003.0156,256.6875 1004.3359,255.0313 Q1005.6563,253.375 1008.1563,253.375 Q1008.8594,253.375 1009.5078,253.5313 Q1010.1563,253.6875 1010.7188,253.9844 L1010.7188,256.7031 Q1010.0938,256.125 1009.5,255.8516 Q1008.9063,255.5781 1008.2813,255.5781 Q1006.9375,255.5781 1006.25,256.6484 Q1005.5625,257.7188 1005.5625,259.8125 Q1005.5625,261.9063 1006.25,262.9766 Q1006.9375,264.0469 1008.2813,264.0469 Q1008.9063,264.0469 1009.5,263.7734 Q1010.0938,263.5 1010.7188,262.9219 L1010.7188,265.6406 Z "/><text fill="#000000" font-family="sans-serif" font-size="12" lengthAdjust="spacingAndGlyphs" textLength="69" x="1028.25" y="264.1543">Identifiable</text><line style="stroke: #A80036; stroke-width: 1.5;" x1="888" x2="1205" y1="276" y2="276"/><line style="stroke: #A80036; stroke-width: 1.5;" x1="888" x2="1205" y1="284" y2="284"/><rect fill="#F24D5C" height="6" style="stroke: #C82930; stroke-width: 1.0;" width="6" x="895" y="292.9023"/><text fill="#000000" font-family="sans-serif" font-size="11" lengthAdjust="spacingAndGlyphs" textLength="293" x="907" y="298.2104">void constructor(ModelManager,string,string,string)</text><ellipse cx="898" cy="308.707" fill="#84BE84" rx="3" ry="3" style="stroke: #038048; stroke-width: 1.0;"/><text fill="#000000" font-family="sans-serif" font-size="11" lengthAdjust="spacingAndGlyphs" textLength="194" x="907" y="311.0151">ModelManager getModelManager()</text><ellipse cx="898" cy="321.5117" fill="#84BE84" rx="3" ry="3" style="stroke: #038048; stroke-width: 1.0;"/><text fill="#000000" font-family="sans-serif" font-size="11" lengthAdjust="spacingAndGlyphs" textLength="113" x="907" y="323.8198">string getIdentifier()</text><ellipse cx="898" cy="334.3164" fill="#84BE84" rx="3" ry="3" style="stroke: #038048; stroke-width: 1.0;"/><text fill="#000000" font-family="sans-serif" font-size="11" lengthAdjust="spacingAndGlyphs" textLength="188" x="907" y="336.6245">string getFullyQualifiedIdentifier()</text><ellipse cx="898" cy="347.1211" fill="#84BE84" rx="3" ry="3" style="stroke: #038048; stroke-width: 1.0;"/><text fill="#000000" font-family="sans-serif" font-size="11" lengthAdjust="spacingAndGlyphs" textLength="90" x="907" y="349.4292">string getType()</text><ellipse cx="898" cy="359.9258" fill="#84BE84" rx="3" ry="3" style="stroke: #038048; stroke-width: 1.0;"/><text fill="#000000" font-family="sans-serif" font-size="11" lengthAdjust="spacingAndGlyphs" textLength="165" x="907" y="362.2339">string getFullyQualifiedType()</text><ellipse cx="898" cy="372.7305" fill="#84BE84" rx="3" ry="3" style="stroke: #038048; stroke-width: 1.0;"/><text fill="#000000" font-family="sans-serif" font-size="11" lengthAdjust="spacingAndGlyphs" textLength="130" x="907" y="375.0386">string getNamespace()</text><ellipse cx="898" cy="385.5352" fill="#84BE84" rx="3" ry="3" style="stroke: #038048; stroke-width: 1.0;"/><text fill="#000000" font-family="sans-serif" font-size="11" lengthAdjust="spacingAndGlyphs" textLength="191" x="907" y="387.8433">boolean isSystemProperty(string)</text><!--class Relationship--><rect fill="#FEFECE" filter="url(#fyjeggd)" height="60.8047" style="stroke: #A80036; stroke-width: 1.5;" width="319" x="710" y="65.5"/><ellipse cx="826.75" cy="81.5" fill="#ADD1B2" rx="11" ry="11" style="stroke: #A80036; stroke-width: 1.0;"/><path d="M829.7188,87.1406 Q829.1406,87.4375 828.5,87.5859 Q827.8594,87.7344 827.1563,87.7344 Q824.6563,87.7344 823.3359,86.0859 Q822.0156,84.4375 822.0156,81.3125 Q822.0156,78.1875 823.3359,76.5313 Q824.6563,74.875 827.1563,74.875 Q827.8594,74.875 828.5078,75.0313 Q829.1563,75.1875 829.7188,75.4844 L829.7188,78.2031 Q829.0938,77.625 828.5,77.3516 Q827.9063,77.0781 827.2813,77.0781 Q825.9375,77.0781 825.25,78.1484 Q824.5625,79.2188 824.5625,81.3125 Q824.5625,83.4063 825.25,84.4766 Q825.9375,85.5469 827.2813,85.5469 Q827.9063,85.5469 828.5,85.2734 Q829.0938,85 829.7188,84.4219 L829.7188,87.1406 Z "/><text fill="#000000" font-family="sans-serif" font-size="12" lengthAdjust="spacingAndGlyphs" textLength="77" x="847.25" y="85.6543">Relationship</text><line style="stroke: #A80036; stroke-width: 1.5;" x1="711" x2="1028" y1="97.5" y2="97.5"/><line style="stroke: #A80036; stroke-width: 1.5;" x1="711" x2="1028" y1="105.5" y2="105.5"/><rect fill="#F24D5C" height="6" style="stroke: #C82930; stroke-width: 1.0;" width="6" x="718" y="114.4023"/><text fill="#000000" font-family="sans-serif" font-size="11" lengthAdjust="spacingAndGlyphs" textLength="293" x="730" y="119.7104">void constructor(ModelManager,string,string,string)</text><!--class Resource--><rect fill="#FEFECE" filter="url(#fyjeggd)" height="176.0469" style="stroke: #A80036; stroke-width: 1.5;" width="319" x="1064" y="8"/><ellipse cx="1189.75" cy="24" fill="#ADD1B2" rx="11" ry="11" style="stroke: #A80036; stroke-width: 1.0;"/><path d="M1192.7188,29.6406 Q1192.1406,29.9375 1191.5,30.0859 Q1190.8594,30.2344 1190.1563,30.2344 Q1187.6563,30.2344 1186.3359,28.5859 Q1185.0156,26.9375 1185.0156,23.8125 Q1185.0156,20.6875 1186.3359,19.0313 Q1187.6563,17.375 1190.1563,17.375 Q1190.8594,17.375 1191.5078,17.5313 Q1192.1563,17.6875 1192.7188,17.9844 L1192.7188,20.7031 Q1192.0938,20.125 1191.5,19.8516 Q1190.9063,19.5781 1190.2813,19.5781 Q1188.9375,19.5781 1188.25,20.6484 Q1187.5625,21.7188 1187.5625,23.8125 Q1187.5625,25.9063 1188.25,26.9766 Q1188.9375,28.0469 1190.2813,28.0469 Q1190.9063,28.0469 1191.5,27.7734 Q1192.0938,27.5 1192.7188,26.9219 L1192.7188,29.6406 Z "/><text fill="#000000" font-family="sans-serif" font-size="12" lengthAdjust="spacingAndGlyphs" textLength="59" x="1210.25" y="28.1543">Resource</text><line style="stroke: #A80036; stroke-width: 1.5;" x1="1065" x2="1382" y1="40" y2="40"/><line style="stroke: #A80036; stroke-width: 1.5;" x1="1065" x2="1382" y1="48" y2="48"/><rect fill="#F24D5C" height="6" style="stroke: #C82930; stroke-width: 1.0;" width="6" x="1072" y="56.9023"/><text fill="#000000" font-family="sans-serif" font-size="11" lengthAdjust="spacingAndGlyphs" textLength="293" x="1084" y="62.2104">void constructor(ModelManager,string,string,string)</text><ellipse cx="1075" cy="72.707" fill="#84BE84" rx="3" ry="3" style="stroke: #038048; stroke-width: 1.0;"/><text fill="#000000" font-family="sans-serif" font-size="11" lengthAdjust="spacingAndGlyphs" textLength="202" x="1084" y="75.0151">void setPropertyValue(string,string)</text><ellipse cx="1075" cy="85.5117" fill="#84BE84" rx="3" ry="3" style="stroke: #038048; stroke-width: 1.0;"/><text fill="#000000" font-family="sans-serif" font-size="11" lengthAdjust="spacingAndGlyphs" textLength="187" x="1084" y="87.8198">void addArrayValue(string,string)</text><rect fill="#F24D5C" height="6" style="stroke: #C82930; stroke-width: 1.0;" width="6" x="1072" y="95.3164"/><text fill="#000000" font-family="sans-serif" font-size="11" lengthAdjust="spacingAndGlyphs" textLength="146" x="1084" y="100.6245">void assignFieldDefaults()</text><rect fill="#F24D5C" height="6" style="stroke: #C82930; stroke-width: 1.0;" width="6" x="1072" y="108.1211"/><text fill="#000000" font-family="sans-serif" font-size="11" lengthAdjust="spacingAndGlyphs" textLength="222" x="1084" y="113.4292">ClassDeclaration getClassDeclaration()</text><rect fill="#F24D5C" height="6" style="stroke: #C82930; stroke-width: 1.0;" width="6" x="1072" y="120.9258"/><text fill="#000000" font-family="sans-serif" font-size="11" lengthAdjust="spacingAndGlyphs" textLength="79" x="1084" y="126.2339">void validate()</text><rect fill="#F24D5C" height="6" style="stroke: #C82930; stroke-width: 1.0;" width="6" x="1072" y="133.7305"/><text fill="#000000" font-family="sans-serif" font-size="11" lengthAdjust="spacingAndGlyphs" textLength="200" x="1084" y="139.0386">void validateProperty(string,Field,*)</text><rect fill="#F24D5C" height="6" style="stroke: #C82930; stroke-width: 1.0;" width="6" x="1072" y="146.5352"/><text fill="#000000" font-family="sans-serif" font-size="11" lengthAdjust="spacingAndGlyphs" textLength="274" x="1084" y="151.8433">void validateNonArrayProperty(string,Property,*)</text><rect fill="#F24D5C" height="6" style="stroke: #C82930; stroke-width: 1.0;" width="6" x="1072" y="159.3398"/><text fill="#000000" font-family="sans-serif" font-size="11" lengthAdjust="spacingAndGlyphs" textLength="261" x="1084" y="164.6479">void reportModelViolation(string,string,*,Field)</text><rect fill="#F24D5C" height="6" style="stroke: #C82930; stroke-width: 1.0;" width="6" x="1072" y="172.1445"/><text fill="#000000" font-family="sans-serif" font-size="11" lengthAdjust="spacingAndGlyphs" textLength="274" x="1084" y="177.4526">void reportMissingRequiredProperty(string,Field)</text><!--class BaseException--><rect fill="#FEFECE" filter="url(#fyjeggd)" height="60.8047" style="stroke: #A80036; stroke-width: 1.5;" width="159" x="1418" y="288.5"/><ellipse cx="1448.75" cy="304.5" fill="#ADD1B2" rx="11" ry="11" style="stroke: #A80036; stroke-width: 1.0;"/><path d="M1451.7188,310.1406 Q1451.1406,310.4375 1450.5,310.5859 Q1449.8594,310.7344 1449.1563,310.7344 Q1446.6563,310.7344 1445.3359,309.0859 Q1444.0156,307.4375 1444.0156,304.3125 Q1444.0156,301.1875 1445.3359,299.5313 Q1446.6563,297.875 1449.1563,297.875 Q1449.8594,297.875 1450.5078,298.0313 Q1451.1563,298.1875 1451.7188,298.4844 L1451.7188,301.2031 Q1451.0938,300.625 1450.5,300.3516 Q1449.9063,300.0781 1449.2813,300.0781 Q1447.9375,300.0781 1447.25,301.1484 Q1446.5625,302.2188 1446.5625,304.3125 Q1446.5625,306.4063 1447.25,307.4766 Q1447.9375,308.5469 1449.2813,308.5469 Q1449.9063,308.5469 1450.5,308.2734 Q1451.0938,308 1451.7188,307.4219 L1451.7188,310.1406 Z "/><text fill="#000000" font-family="sans-serif" font-size="12" lengthAdjust="spacingAndGlyphs" textLength="92" x="1466.25" y="308.6543">BaseException</text><line style="stroke: #A80036; stroke-width: 1.5;" x1="1419" x2="1576" y1="320.5" y2="320.5"/><line style="stroke: #A80036; stroke-width: 1.5;" x1="1419" x2="1576" y1="328.5" y2="328.5"/><ellipse cx="1429" cy="340.4023" fill="#84BE84" rx="3" ry="3" style="stroke: #038048; stroke-width: 1.0;"/><text fill="#000000" font-family="sans-serif" font-size="11" lengthAdjust="spacingAndGlyphs" textLength="133" x="1438" y="342.7104">void constructor(string)</text><!--class Error--><rect fill="#FEFECE" filter="url(#fyjeggd)" height="48" style="stroke: #A80036; stroke-width: 1.5;" width="63" x="1466" y="454"/><ellipse cx="1481" cy="470" fill="#ADD1B2" rx="11" ry="11" style="stroke: #A80036; stroke-width: 1.0;"/><path d="M1483.9688,475.6406 Q1483.3906,475.9375 1482.75,476.0859 Q1482.1094,476.2344 1481.4063,476.2344 Q1478.9063,476.2344 1477.5859,474.5859 Q1476.2656,472.9375 1476.2656,469.8125 Q1476.2656,466.6875 1477.5859,465.0313 Q1478.9063,463.375 1481.4063,463.375 Q1482.1094,463.375 1482.7578,463.5313 Q1483.4063,463.6875 1483.9688,463.9844 L1483.9688,466.7031 Q1483.3438,466.125 1482.75,465.8516 Q1482.1563,465.5781 1481.5313,465.5781 Q1480.1875,465.5781 1479.5,466.6484 Q1478.8125,467.7188 1478.8125,469.8125 Q1478.8125,471.9063 1479.5,472.9766 Q1480.1875,474.0469 1481.5313,474.0469 Q1482.1563,474.0469 1482.75,473.7734 Q1483.3438,473.5 1483.9688,472.9219 L1483.9688,475.6406 Z "/><text fill="#000000" font-family="sans-serif" font-size="12" lengthAdjust="spacingAndGlyphs" textLength="31" x="1495" y="474.1543">Error</text><line style="stroke: #A80036; stroke-width: 1.5;" x1="1467" x2="1528" y1="486" y2="486"/><line style="stroke: #A80036; stroke-width: 1.5;" x1="1467" x2="1528" y1="494" y2="494"/><!--class SecurityException--><rect fill="#FEFECE" filter="url(#fyjeggd)" height="60.8047" style="stroke: #A80036; stroke-width: 1.5;" width="159" x="1418" y="65.5"/><ellipse cx="1440.2" cy="81.5" fill="#ADD1B2" rx="11" ry="11" style="stroke: #A80036; stroke-width: 1.0;"/><path d="M1443.1688,87.1406 Q1442.5906,87.4375 1441.95,87.5859 Q1441.3094,87.7344 1440.6063,87.7344 Q1438.1063,87.7344 1436.7859,86.0859 Q1435.4656,84.4375 1435.4656,81.3125 Q1435.4656,78.1875 1436.7859,76.5313 Q1438.1063,74.875 1440.6063,74.875 Q1441.3094,74.875 1441.9578,75.0313 Q1442.6063,75.1875 1443.1688,75.4844 L1443.1688,78.2031 Q1442.5438,77.625 1441.95,77.3516 Q1441.3563,77.0781 1440.7313,77.0781 Q1439.3875,77.0781 1438.7,78.1484 Q1438.0125,79.2188 1438.0125,81.3125 Q1438.0125,83.4063 1438.7,84.4766 Q1439.3875,85.5469 1440.7313,85.5469 Q1441.3563,85.5469 1441.95,85.2734 Q1442.5438,85 1443.1688,84.4219 L1443.1688,87.1406 Z "/><text fill="#000000" font-family="sans-serif" font-size="12" lengthAdjust="spacingAndGlyphs" textLength="111" x="1455.8" y="85.6543">SecurityException</text><line style="stroke: #A80036; stroke-width: 1.5;" x1="1419" x2="1576" y1="97.5" y2="97.5"/><line style="stroke: #A80036; stroke-width: 1.5;" x1="1419" x2="1576" y1="105.5" y2="105.5"/><ellipse cx="1429" cy="117.4023" fill="#84BE84" rx="3" ry="3" style="stroke: #038048; stroke-width: 1.0;"/><text fill="#000000" font-family="sans-serif" font-size="11" lengthAdjust="spacingAndGlyphs" textLength="133" x="1438" y="119.7104">void constructor(string)</text><!--class globalize--><rect fill="#FEFECE" filter="url(#fyjeggd)" height="48" style="stroke: #A80036; stroke-width: 1.5;" width="86" x="162.25" y="72"/><ellipse cx="177.25" cy="88" fill="#DA70D6" rx="11" ry="11" style="stroke: #A80036; stroke-width: 1.0;"/><path d="M177.0469,83.6719 L177.0469,87.2969 L178.0469,87.2969 Q179.25,87.2969 179.7344,86.8906 Q180.2188,86.4844 180.2188,85.4844 Q180.2188,84.4844 179.7344,84.0781 Q179.25,83.6719 178.0469,83.6719 L177.0469,83.6719 Z M174.5938,81.6094 L177.9531,81.6094 Q180.5156,81.6094 181.6406,82.5234 Q182.7656,83.4375 182.7656,85.4844 Q182.7656,87.5313 181.6406,88.4453 Q180.5156,89.3594 177.9531,89.3594 L177.0469,89.3594 L177.0469,94 L174.5938,94 L174.5938,81.6094 Z "/><text fill="#000000" font-family="sans-serif" font-size="12" lengthAdjust="spacingAndGlyphs" textLength="54" x="191.25" y="92.1543">globalize</text><line style="stroke: #A80036; stroke-width: 1.5;" x1="163.25" x2="247.25" y1="104" y2="104"/><line style="stroke: #A80036; stroke-width: 1.5;" x1="163.25" x2="247.25" y1="112" y2="112"/><!--class Util--><rect fill="#FEFECE" filter="url(#fyjeggd)" height="99.2188" style="stroke: #A80036; stroke-width: 1.5;" width="391" x="284" y="46.5"/><ellipse cx="465.25" cy="62.5" fill="#ADD1B2" rx="11" ry="11" style="stroke: #A80036; stroke-width: 1.0;"/><path d="M468.2188,68.1406 Q467.6406,68.4375 467,68.5859 Q466.3594,68.7344 465.6563,68.7344 Q463.1563,68.7344 461.8359,67.0859 Q460.5156,65.4375 460.5156,62.3125 Q460.5156,59.1875 461.8359,57.5313 Q463.1563,55.875 465.6563,55.875 Q466.3594,55.875 467.0078,56.0313 Q467.6563,56.1875 468.2188,56.4844 L468.2188,59.2031 Q467.5938,58.625 467,58.3516 Q466.4063,58.0781 465.7813,58.0781 Q464.4375,58.0781 463.75,59.1484 Q463.0625,60.2188 463.0625,62.3125 Q463.0625,64.4063 463.75,65.4766 Q464.4375,66.5469 465.7813,66.5469 Q466.4063,66.5469 467,66.2734 Q467.5938,66 468.2188,65.4219 L468.2188,68.1406 Z "/><text fill="#000000" font-family="sans-serif" font-size="12" lengthAdjust="spacingAndGlyphs" textLength="20" x="485.75" y="66.6543">Util</text><line style="stroke: #A80036; stroke-width: 1.5;" x1="285" x2="674" y1="78.5" y2="78.5"/><line style="stroke: #A80036; stroke-width: 1.5;" x1="285" x2="674" y1="86.5" y2="86.5"/><ellipse cx="295" cy="98.4023" fill="#84BE84" rx="3" ry="3" style="stroke: #038048; stroke-width: 1.0;"/><text fill="#000000" font-family="sans-serif" font-size="11" lengthAdjust="spacingAndGlyphs" textLength="203" x="304" y="100.7104">void securityCheck(SecurityContext)</text><ellipse cx="295" cy="111.207" fill="#84BE84" rx="3" ry="3" style="stroke: #038048; stroke-width: 1.0;"/><text fill="#000000" font-family="sans-serif" font-size="11" lengthAdjust="spacingAndGlyphs" textLength="323" x="304" y="113.5151">Promise queryChainCode(SecurityContext,string,string[])</text><ellipse cx="295" cy="124.0117" fill="#84BE84" rx="3" ry="3" style="stroke: #038048; stroke-width: 1.0;"/><text fill="#000000" font-family="sans-serif" font-size="11" lengthAdjust="spacingAndGlyphs" textLength="327" x="304" y="126.3198">Promise invokeChainCode(SecurityContext,string,string[])</text><ellipse cx="295" cy="136.8164" fill="#84BE84" rx="3" ry="3" style="stroke: #038048; stroke-width: 1.0;"/><text fill="#000000" font-family="sans-serif" font-size="11" lengthAdjust="spacingAndGlyphs" textLength="365" x="304" y="139.1245">Promise deployChainCode(SecurityContext,string,string,string[])</text><!--class Factory--><rect fill="#FEFECE" filter="url(#fyjeggd)" height="86.4141" style="stroke: #A80036; stroke-width: 1.5;" width="399" x="6" y="276"/><ellipse cx="178.25" cy="292" fill="#ADD1B2" rx="11" ry="11" style="stroke: #A80036; stroke-width: 1.0;"/><path d="M181.2188,297.6406 Q180.6406,297.9375 180,298.0859 Q179.3594,298.2344 178.6563,298.2344 Q176.1563,298.2344 174.8359,296.5859 Q173.5156,294.9375 173.5156,291.8125 Q173.5156,288.6875 174.8359,287.0313 Q176.1563,285.375 178.6563,285.375 Q179.3594,285.375 180.0078,285.5313 Q180.6563,285.6875 181.2188,285.9844 L181.2188,288.7031 Q180.5938,288.125 180,287.8516 Q179.4063,287.5781 178.7813,287.5781 Q177.4375,287.5781 176.75,288.6484 Q176.0625,289.7188 176.0625,291.8125 Q176.0625,293.9063 176.75,294.9766 Q177.4375,296.0469 178.7813,296.0469 Q179.4063,296.0469 180,295.7734 Q180.5938,295.5 181.2188,294.9219 L181.2188,297.6406 Z "/><text fill="#000000" font-family="sans-serif" font-size="12" lengthAdjust="spacingAndGlyphs" textLength="46" x="198.75" y="296.1543">Factory</text><line style="stroke: #A80036; stroke-width: 1.5;" x1="7" x2="404" y1="308" y2="308"/><line style="stroke: #A80036; stroke-width: 1.5;" x1="7" x2="404" y1="316" y2="316"/><ellipse cx="17" cy="327.9023" fill="#84BE84" rx="3" ry="3" style="stroke: #038048; stroke-width: 1.0;"/><text fill="#000000" font-family="sans-serif" font-size="11" lengthAdjust="spacingAndGlyphs" textLength="182" x="26" y="330.2104">void constructor(ModelManager)</text><ellipse cx="17" cy="340.707" fill="#84BE84" rx="3" ry="3" style="stroke: #038048; stroke-width: 1.0;"/><text fill="#000000" font-family="sans-serif" font-size="11" lengthAdjust="spacingAndGlyphs" textLength="336" x="26" y="343.0151">Resource newInstance(SecurityContext,string,string,string)</text><ellipse cx="17" cy="353.5117" fill="#84BE84" rx="3" ry="3" style="stroke: #038048; stroke-width: 1.0;"/><text fill="#000000" font-family="sans-serif" font-size="11" lengthAdjust="spacingAndGlyphs" textLength="373" x="26" y="355.8198">Relationship newRelationship(SecurityContext,string,string,string)</text><path d="M893.121,126.805 C913.917,152.771 945.182,191.808 974.05,227.852 " fill="none" style="stroke: #A80036; stroke-width: 1.0;"/><polygon fill="none" points="979.628,223.619,986.667,243.605,968.701,232.371,979.628,223.619" style="stroke: #A80036; stroke-width: 1.0;"/><path d="M1153.55,184.028 C1142.02,198.421 1130.05,213.37 1118.46,227.838 " fill="none" style="stroke: #A80036; stroke-width: 1.0;"/><polygon fill="none" points="1123.55,232.679,1105.59,243.913,1112.63,223.927,1123.55,232.679" style="stroke: #A80036; stroke-width: 1.0;"/><path d="M1497.25,349.53 C1497.25,373.243 1497.25,406.8811 1497.25,433.6482 " fill="none" style="stroke: #A80036; stroke-width: 1.0;"/><polygon fill="none" points="1504.25,433.7338,1497.25,453.7338,1490.25,433.7337,1504.25,433.7338" style="stroke: #A80036; stroke-width: 1.0;"/><path d="M1497.25,126.805 C1497.25,162.989 1497.25,224.556 1497.25,268.036 " fill="none" style="stroke: #A80036; stroke-width: 1.0;"/><polygon fill="none" points="1504.25,268.315,1497.25,288.315,1490.25,268.315,1504.25,268.315" style="stroke: #A80036; stroke-width: 1.0;"/></g></svg>