<?xml version="1.0" encoding="UTF-8" standalone="no"?><svg xmlns="http://www.w3.org/2000/svg" xmlns:xlink="http://www.w3.org/1999/xlink" contentScriptType="application/ecmascript" contentStyleType="text/css" height="339px" preserveAspectRatio="none" style="width:216px;height:339px;" version="1.1" viewBox="0 0 216 339" width="216px" zoomAndPan="magnify"><defs><filter height="300%" id="fq4meag" width="300%" x="-1" y="-1"><feGaussianBlur result="blurOut" stdDeviation="2.0"/><feColorMatrix in="blurOut" result="blurOut2" type="matrix" values="0 0 0 0 0 0 0 0 0 0 0 0 0 0 0 0 0 0 .4 0"/><feOffset dx="4.0" dy="4.0" in="blurOut2" result="blurOut3"/><feBlend in="SourceGraphic" in2="blurOut3" mode="normal"/></filter></defs><g><!--class Property--><rect fill="#FEFECE" filter="url(#fq4meag)" height="150.4375" style="stroke: #A80036; stroke-width: 1.5;" width="201" x="6" y="180"/><ellipse cx="75.75" cy="196" fill="#ADD1B2" rx="11" ry="11" style="stroke: #A80036; stroke-width: 1.0;"/><path d="M78.7188,201.6406 Q78.1406,201.9375 77.5,202.0859 Q76.8594,202.2344 76.1563,202.2344 Q73.6563,202.2344 72.3359,200.5859 Q71.0156,198.9375 71.0156,195.8125 Q71.0156,192.6875 72.3359,191.0313 Q73.6563,189.375 76.1563,189.375 Q76.8594,189.375 77.5078,189.5313 Q78.1563,189.6875 78.7188,189.9844 L78.7188,192.7031 Q78.0938,192.125 77.5,191.8516 Q76.9063,191.5781 76.2813,191.5781 Q74.9375,191.5781 74.25,192.6484 Q73.5625,193.7188 73.5625,195.8125 Q73.5625,197.9063 74.25,198.9766 Q74.9375,200.0469 76.2813,200.0469 Q76.9063,200.0469 77.5,199.7734 Q78.0938,199.5 78.7188,198.9219 L78.7188,201.6406 Z "/><text fill="#000000" font-family="sans-serif" font-size="12" lengthAdjust="spacingAndGlyphs" textLength="53" x="96.25" y="200.1543">Property</text><line style="stroke: #A80036; stroke-width: 1.5;" x1="7" x2="206" y1="212" y2="212"/><line style="stroke: #A80036; stroke-width: 1.5;" x1="7" x2="206" y1="220" y2="220"/><ellipse cx="17" cy="231.9023" fill="#84BE84" rx="3" ry="3" style="stroke: #038048; stroke-width: 1.0;"/><text fill="#000000" font-family="sans-serif" font-size="11" lengthAdjust="spacingAndGlyphs" textLength="136" x="26" y="234.2104">void constructor(Object)</text><rect fill="#F24D5C" height="6" style="stroke: #C82930; stroke-width: 1.0;" width="6" x="14" y="241.707"/><text fill="#000000" font-family="sans-serif" font-size="11" lengthAdjust="spacingAndGlyphs" textLength="161" x="26" y="247.0151">Object accept(Object,Object)</text><rect fill="#F24D5C" height="6" style="stroke: #C82930; stroke-width: 1.0;" width="6" x="14" y="254.5117"/><text fill="#000000" font-family="sans-serif" font-size="11" lengthAdjust="spacingAndGlyphs" textLength="81" x="26" y="259.8198">void process()</text><rect fill="#F24D5C" height="6" style="stroke: #C82930; stroke-width: 1.0;" width="6" x="14" y="267.3164"/><text fill="#000000" font-family="sans-serif" font-size="11" lengthAdjust="spacingAndGlyphs" textLength="175" x="26" y="272.6245">void validate(ClassDeclaration)</text><ellipse cx="17" cy="283.1211" fill="#84BE84" rx="3" ry="3" style="stroke: #038048; stroke-width: 1.0;"/><text fill="#000000" font-family="sans-serif" font-size="11" lengthAdjust="spacingAndGlyphs" textLength="96" x="26" y="285.4292">string getName()</text><ellipse cx="17" cy="295.9258" fill="#84BE84" rx="3" ry="3" style="stroke: #038048; stroke-width: 1.0;"/><text fill="#000000" font-family="sans-serif" font-size="11" lengthAdjust="spacingAndGlyphs" textLength="90" x="26" y="298.2339">string getType()</text><ellipse cx="17" cy="308.7305" fill="#84BE84" rx="3" ry="3" style="stroke: #038048; stroke-width: 1.0;"/><text fill="#000000" font-family="sans-serif" font-size="11" lengthAdjust="spacingAndGlyphs" textLength="97" x="26" y="311.0386">boolean isArray()</text><ellipse cx="17" cy="321.5352" fill="#84BE84" rx="3" ry="3" style="stroke: #038048; stroke-width: 1.0;"/><text fill="#000000" font-family="sans-serif" font-size="11" lengthAdjust="spacingAndGlyphs" textLength="99" x="26" y="323.8433">boolean isEnum()</text><!--class Field--><rect fill="#FEFECE" filter="url(#fq4meag)" height="112.0234" style="stroke: #A80036; stroke-width: 1.5;" width="162" x="25.25" y="8"/><ellipse cx="87.5" cy="24" fill="#ADD1B2" rx="11" ry="11" style="stroke: #A80036; stroke-width: 1.0;"/><path d="M90.4688,29.6406 Q89.8906,29.9375 89.25,30.0859 Q88.6094,30.2344 87.9063,30.2344 Q85.4063,30.2344 84.0859,28.5859 Q82.7656,26.9375 82.7656,23.8125 Q82.7656,20.6875 84.0859,19.0313 Q85.4063,17.375 87.9063,17.375 Q88.6094,17.375 89.2578,17.5313 Q89.9063,17.6875 90.4688,17.9844 L90.4688,20.7031 Q89.8438,20.125 89.25,19.8516 Q88.6563,19.5781 88.0313,19.5781 Q86.6875,19.5781 86,20.6484 Q85.3125,21.7188 85.3125,23.8125 Q85.3125,25.9063 86,26.9766 Q86.6875,28.0469 88.0313,28.0469 Q88.6563,28.0469 89.25,27.7734 Q89.8438,27.5 90.4688,26.9219 L90.4688,29.6406 Z "/><text fill="#000000" font-family="sans-serif" font-size="12" lengthAdjust="spacingAndGlyphs" textLength="29" x="108" y="28.1543">Field</text><line style="stroke: #A80036; stroke-width: 1.5;" x1="26.25" x2="186.25" y1="40" y2="40"/><line style="stroke: #A80036; stroke-width: 1.5;" x1="26.25" x2="186.25" y1="48" y2="48"/><ellipse cx="36.25" cy="59.9023" fill="#84BE84" rx="3" ry="3" style="stroke: #038048; stroke-width: 1.0;"/><text fill="#000000" font-family="sans-serif" font-size="11" lengthAdjust="spacingAndGlyphs" textLength="136" x="45.25" y="62.2104">void constructor(Object)</text><rect fill="#F24D5C" height="6" style="stroke: #C82930; stroke-width: 1.0;" width="6" x="33.25" y="69.707"/><text fill="#000000" font-family="sans-serif" font-size="11" lengthAdjust="spacingAndGlyphs" textLength="81" x="45.25" y="75.0151">void process()</text><ellipse cx="36.25" cy="85.5117" fill="#84BE84" rx="3" ry="3" style="stroke: #038048; stroke-width: 1.0;"/><text fill="#000000" font-family="sans-serif" font-size="11" lengthAdjust="spacingAndGlyphs" textLength="113" x="45.25" y="87.8198">string getValidator()</text><ellipse cx="36.25" cy="98.3164" fill="#84BE84" rx="3" ry="3" style="stroke: #038048; stroke-width: 1.0;"/><text fill="#000000" font-family="sans-serif" font-size="11" lengthAdjust="spacingAndGlyphs" textLength="114" x="45.25" y="100.6245">boolean isOptional()</text><ellipse cx="36.25" cy="111.1211" fill="#84BE84" rx="3" ry="3" style="stroke: #038048; stroke-width: 1.0;"/><text fill="#000000" font-family="sans-serif" font-size="11" lengthAdjust="spacingAndGlyphs" textLength="134" x="45.25" y="113.4292">string getDefaultValue()</text><path d="M106.25,120.175 C106.25,132.547 106.25,146.014 106.25,159.482 " fill="none" style="stroke: #A80036; stroke-width: 1.0;"/><polygon fill="none" points="113.25,159.78,106.25,179.78,99.2501,159.78,113.25,159.78" style="stroke: #A80036; stroke-width: 1.0;"/></g></svg>