<?xml version="1.0" encoding="UTF-8" standalone="no"?><svg xmlns="http://www.w3.org/2000/svg" xmlns:xlink="http://www.w3.org/1999/xlink" contentScriptType="application/ecmascript" contentStyleType="text/css" height="660px" preserveAspectRatio="none" style="width:2593px;height:660px;" version="1.1" viewBox="0 0 2593 660" width="2593px" zoomAndPan="magnify"><defs><filter height="300%" id="fkjsm7j" width="300%" x="-1" y="-1"><feGaussianBlur result="blurOut" stdDeviation="2.0"/><feColorMatrix in="blurOut" result="blurOut2" type="matrix" values="0 0 0 0 0 0 0 0 0 0 0 0 0 0 0 0 0 0 .4 0"/><feOffset dx="4.0" dy="4.0" in="blurOut2" result="blurOut3"/><feBlend in="SourceGraphic" in2="blurOut3" mode="normal"/></filter></defs><g><!--class parser--><rect fill="#FEFECE" filter="url(#fkjsm7j)" height="48" style="stroke: #A80036; stroke-width: 1.5;" width="73" x="145" y="72"/><ellipse cx="160" cy="88" fill="#DA70D6" rx="11" ry="11" style="stroke: #A80036; stroke-width: 1.0;"/><path d="M159.7969,83.6719 L159.7969,87.2969 L160.7969,87.2969 Q162,87.2969 162.4844,86.8906 Q162.9688,86.4844 162.9688,85.4844 Q162.9688,84.4844 162.4844,84.0781 Q162,83.6719 160.7969,83.6719 L159.7969,83.6719 Z M157.3438,81.6094 L160.7031,81.6094 Q163.2656,81.6094 164.3906,82.5234 Q165.5156,83.4375 165.5156,85.4844 Q165.5156,87.5313 164.3906,88.4453 Q163.2656,89.3594 160.7031,89.3594 L159.7969,89.3594 L159.7969,94 L157.3438,94 L157.3438,81.6094 Z "/><text fill="#000000" font-family="sans-serif" font-size="12" lengthAdjust="spacingAndGlyphs" textLength="41" x="174" y="92.1543">parser</text><line style="stroke: #A80036; stroke-width: 1.5;" x1="146" x2="217" y1="104" y2="104"/><line style="stroke: #A80036; stroke-width: 1.5;" x1="146" x2="217" y1="112" y2="112"/><!--class Property--><rect fill="#FEFECE" filter="url(#fkjsm7j)" height="150.4375" style="stroke: #A80036; stroke-width: 1.5;" width="201" x="739" y="373"/><ellipse cx="808.75" cy="389" fill="#ADD1B2" rx="11" ry="11" style="stroke: #A80036; stroke-width: 1.0;"/><path d="M811.7188,394.6406 Q811.1406,394.9375 810.5,395.0859 Q809.8594,395.2344 809.1563,395.2344 Q806.6563,395.2344 805.3359,393.5859 Q804.0156,391.9375 804.0156,388.8125 Q804.0156,385.6875 805.3359,384.0313 Q806.6563,382.375 809.1563,382.375 Q809.8594,382.375 810.5078,382.5313 Q811.1563,382.6875 811.7188,382.9844 L811.7188,385.7031 Q811.0938,385.125 810.5,384.8516 Q809.9063,384.5781 809.2813,384.5781 Q807.9375,384.5781 807.25,385.6484 Q806.5625,386.7188 806.5625,388.8125 Q806.5625,390.9063 807.25,391.9766 Q807.9375,393.0469 809.2813,393.0469 Q809.9063,393.0469 810.5,392.7734 Q811.0938,392.5 811.7188,391.9219 L811.7188,394.6406 Z "/><text fill="#000000" font-family="sans-serif" font-size="12" lengthAdjust="spacingAndGlyphs" textLength="53" x="829.25" y="393.1543">Property</text><line style="stroke: #A80036; stroke-width: 1.5;" x1="740" x2="939" y1="405" y2="405"/><line style="stroke: #A80036; stroke-width: 1.5;" x1="740" x2="939" y1="413" y2="413"/><ellipse cx="750" cy="424.9023" fill="#84BE84" rx="3" ry="3" style="stroke: #038048; stroke-width: 1.0;"/><text fill="#000000" font-family="sans-serif" font-size="11" lengthAdjust="spacingAndGlyphs" textLength="136" x="759" y="427.2104">void constructor(Object)</text><rect fill="#F24D5C" height="6" style="stroke: #C82930; stroke-width: 1.0;" width="6" x="747" y="434.707"/><text fill="#000000" font-family="sans-serif" font-size="11" lengthAdjust="spacingAndGlyphs" textLength="161" x="759" y="440.0151">Object accept(Object,Object)</text><rect fill="#F24D5C" height="6" style="stroke: #C82930; stroke-width: 1.0;" width="6" x="747" y="447.5117"/><text fill="#000000" font-family="sans-serif" font-size="11" lengthAdjust="spacingAndGlyphs" textLength="81" x="759" y="452.8198">void process()</text><rect fill="#F24D5C" height="6" style="stroke: #C82930; stroke-width: 1.0;" width="6" x="747" y="460.3164"/><text fill="#000000" font-family="sans-serif" font-size="11" lengthAdjust="spacingAndGlyphs" textLength="175" x="759" y="465.6245">void validate(ClassDeclaration)</text><ellipse cx="750" cy="476.1211" fill="#84BE84" rx="3" ry="3" style="stroke: #038048; stroke-width: 1.0;"/><text fill="#000000" font-family="sans-serif" font-size="11" lengthAdjust="spacingAndGlyphs" textLength="96" x="759" y="478.4292">string getName()</text><ellipse cx="750" cy="488.9258" fill="#84BE84" rx="3" ry="3" style="stroke: #038048; stroke-width: 1.0;"/><text fill="#000000" font-family="sans-serif" font-size="11" lengthAdjust="spacingAndGlyphs" textLength="90" x="759" y="491.2339">string getType()</text><ellipse cx="750" cy="501.7305" fill="#84BE84" rx="3" ry="3" style="stroke: #038048; stroke-width: 1.0;"/><text fill="#000000" font-family="sans-serif" font-size="11" lengthAdjust="spacingAndGlyphs" textLength="97" x="759" y="504.0386">boolean isArray()</text><ellipse cx="750" cy="514.5352" fill="#84BE84" rx="3" ry="3" style="stroke: #038048; stroke-width: 1.0;"/><text fill="#000000" font-family="sans-serif" font-size="11" lengthAdjust="spacingAndGlyphs" textLength="99" x="759" y="516.8433">boolean isEnum()</text><!--class Field--><rect fill="#FEFECE" filter="url(#fkjsm7j)" height="112.0234" style="stroke: #A80036; stroke-width: 1.5;" width="162" x="541.25" y="40"/><ellipse cx="603.5" cy="56" fill="#ADD1B2" rx="11" ry="11" style="stroke: #A80036; stroke-width: 1.0;"/><path d="M606.4688,61.6406 Q605.8906,61.9375 605.25,62.0859 Q604.6094,62.2344 603.9063,62.2344 Q601.4063,62.2344 600.0859,60.5859 Q598.7656,58.9375 598.7656,55.8125 Q598.7656,52.6875 600.0859,51.0313 Q601.4063,49.375 603.9063,49.375 Q604.6094,49.375 605.2578,49.5313 Q605.9063,49.6875 606.4688,49.9844 L606.4688,52.7031 Q605.8438,52.125 605.25,51.8516 Q604.6563,51.5781 604.0313,51.5781 Q602.6875,51.5781 602,52.6484 Q601.3125,53.7188 601.3125,55.8125 Q601.3125,57.9063 602,58.9766 Q602.6875,60.0469 604.0313,60.0469 Q604.6563,60.0469 605.25,59.7734 Q605.8438,59.5 606.4688,58.9219 L606.4688,61.6406 Z "/><text fill="#000000" font-family="sans-serif" font-size="12" lengthAdjust="spacingAndGlyphs" textLength="29" x="624" y="60.1543">Field</text><line style="stroke: #A80036; stroke-width: 1.5;" x1="542.25" x2="702.25" y1="72" y2="72"/><line style="stroke: #A80036; stroke-width: 1.5;" x1="542.25" x2="702.25" y1="80" y2="80"/><ellipse cx="552.25" cy="91.9023" fill="#84BE84" rx="3" ry="3" style="stroke: #038048; stroke-width: 1.0;"/><text fill="#000000" font-family="sans-serif" font-size="11" lengthAdjust="spacingAndGlyphs" textLength="136" x="561.25" y="94.2104">void constructor(Object)</text><rect fill="#F24D5C" height="6" style="stroke: #C82930; stroke-width: 1.0;" width="6" x="549.25" y="101.707"/><text fill="#000000" font-family="sans-serif" font-size="11" lengthAdjust="spacingAndGlyphs" textLength="81" x="561.25" y="107.0151">void process()</text><ellipse cx="552.25" cy="117.5117" fill="#84BE84" rx="3" ry="3" style="stroke: #038048; stroke-width: 1.0;"/><text fill="#000000" font-family="sans-serif" font-size="11" lengthAdjust="spacingAndGlyphs" textLength="113" x="561.25" y="119.8198">string getValidator()</text><ellipse cx="552.25" cy="130.3164" fill="#84BE84" rx="3" ry="3" style="stroke: #038048; stroke-width: 1.0;"/><text fill="#000000" font-family="sans-serif" font-size="11" lengthAdjust="spacingAndGlyphs" textLength="114" x="561.25" y="132.6245">boolean isOptional()</text><ellipse cx="552.25" cy="143.1211" fill="#84BE84" rx="3" ry="3" style="stroke: #038048; stroke-width: 1.0;"/><text fill="#000000" font-family="sans-serif" font-size="11" lengthAdjust="spacingAndGlyphs" textLength="134" x="561.25" y="145.4292">string getDefaultValue()</text><!--class EnumValueDeclaration--><rect fill="#FEFECE" filter="url(#fkjsm7j)" height="73.6094" style="stroke: #A80036; stroke-width: 1.5;" width="201" x="739" y="59"/><ellipse cx="766.15" cy="75" fill="#ADD1B2" rx="11" ry="11" style="stroke: #A80036; stroke-width: 1.0;"/><path d="M769.1188,80.6406 Q768.5406,80.9375 767.9,81.0859 Q767.2594,81.2344 766.5563,81.2344 Q764.0563,81.2344 762.7359,79.5859 Q761.4156,77.9375 761.4156,74.8125 Q761.4156,71.6875 762.7359,70.0313 Q764.0563,68.375 766.5563,68.375 Q767.2594,68.375 767.9078,68.5313 Q768.5563,68.6875 769.1188,68.9844 L769.1188,71.7031 Q768.4938,71.125 767.9,70.8516 Q767.3063,70.5781 766.6813,70.5781 Q765.3375,70.5781 764.65,71.6484 Q763.9625,72.7188 763.9625,74.8125 Q763.9625,76.9063 764.65,77.9766 Q765.3375,79.0469 766.6813,79.0469 Q767.3063,79.0469 767.9,78.7734 Q768.4938,78.5 769.1188,77.9219 L769.1188,80.6406 Z "/><text fill="#000000" font-family="sans-serif" font-size="12" lengthAdjust="spacingAndGlyphs" textLength="142" x="782.85" y="79.1543">EnumValueDeclaration</text><line style="stroke: #A80036; stroke-width: 1.5;" x1="740" x2="939" y1="91" y2="91"/><line style="stroke: #A80036; stroke-width: 1.5;" x1="740" x2="939" y1="99" y2="99"/><ellipse cx="750" cy="110.9023" fill="#84BE84" rx="3" ry="3" style="stroke: #038048; stroke-width: 1.0;"/><text fill="#000000" font-family="sans-serif" font-size="11" lengthAdjust="spacingAndGlyphs" textLength="136" x="759" y="113.2104">void constructor(Object)</text><rect fill="#F24D5C" height="6" style="stroke: #C82930; stroke-width: 1.0;" width="6" x="747" y="120.707"/><text fill="#000000" font-family="sans-serif" font-size="11" lengthAdjust="spacingAndGlyphs" textLength="175" x="759" y="126.0151">void validate(ClassDeclaration)</text><!--class IllegalModelException--><rect fill="#FEFECE" filter="url(#fkjsm7j)" height="60.8047" style="stroke: #A80036; stroke-width: 1.5;" width="166" x="1211.25" y="65.5"/><ellipse cx="1226.25" cy="81.5" fill="#ADD1B2" rx="11" ry="11" style="stroke: #A80036; stroke-width: 1.0;"/><path d="M1229.2188,87.1406 Q1228.6406,87.4375 1228,87.5859 Q1227.3594,87.7344 1226.6563,87.7344 Q1224.1563,87.7344 1222.8359,86.0859 Q1221.5156,84.4375 1221.5156,81.3125 Q1221.5156,78.1875 1222.8359,76.5313 Q1224.1563,74.875 1226.6563,74.875 Q1227.3594,74.875 1228.0078,75.0313 Q1228.6563,75.1875 1229.2188,75.4844 L1229.2188,78.2031 Q1228.5938,77.625 1228,77.3516 Q1227.4063,77.0781 1226.7813,77.0781 Q1225.4375,77.0781 1224.75,78.1484 Q1224.0625,79.2188 1224.0625,81.3125 Q1224.0625,83.4063 1224.75,84.4766 Q1225.4375,85.5469 1226.7813,85.5469 Q1227.4063,85.5469 1228,85.2734 Q1228.5938,85 1229.2188,84.4219 L1229.2188,87.1406 Z "/><text fill="#000000" font-family="sans-serif" font-size="12" lengthAdjust="spacingAndGlyphs" textLength="134" x="1240.25" y="85.6543">IllegalModelException</text><line style="stroke: #A80036; stroke-width: 1.5;" x1="1212.25" x2="1376.25" y1="97.5" y2="97.5"/><line style="stroke: #A80036; stroke-width: 1.5;" x1="1212.25" x2="1376.25" y1="105.5" y2="105.5"/><ellipse cx="1222.25" cy="117.4023" fill="#84BE84" rx="3" ry="3" style="stroke: #038048; stroke-width: 1.0;"/><text fill="#000000" font-family="sans-serif" font-size="11" lengthAdjust="spacingAndGlyphs" textLength="133" x="1231.25" y="119.7104">void constructor(string)</text><!--class BaseException--><rect fill="#FEFECE" filter="url(#fkjsm7j)" height="48" style="stroke: #A80036; stroke-width: 1.5;" width="124" x="1331.75" y="424"/><ellipse cx="1346.75" cy="440" fill="#ADD1B2" rx="11" ry="11" style="stroke: #A80036; stroke-width: 1.0;"/><path d="M1349.7188,445.6406 Q1349.1406,445.9375 1348.5,446.0859 Q1347.8594,446.2344 1347.1563,446.2344 Q1344.6563,446.2344 1343.3359,444.5859 Q1342.0156,442.9375 1342.0156,439.8125 Q1342.0156,436.6875 1343.3359,435.0313 Q1344.6563,433.375 1347.1563,433.375 Q1347.8594,433.375 1348.5078,433.5313 Q1349.1563,433.6875 1349.7188,433.9844 L1349.7188,436.7031 Q1349.0938,436.125 1348.5,435.8516 Q1347.9063,435.5781 1347.2813,435.5781 Q1345.9375,435.5781 1345.25,436.6484 Q1344.5625,437.7188 1344.5625,439.8125 Q1344.5625,441.9063 1345.25,442.9766 Q1345.9375,444.0469 1347.2813,444.0469 Q1347.9063,444.0469 1348.5,443.7734 Q1349.0938,443.5 1349.7188,442.9219 L1349.7188,445.6406 Z "/><text fill="#000000" font-family="sans-serif" font-size="12" lengthAdjust="spacingAndGlyphs" textLength="92" x="1360.75" y="444.1543">BaseException</text><line style="stroke: #A80036; stroke-width: 1.5;" x1="1332.75" x2="1454.75" y1="456" y2="456"/><line style="stroke: #A80036; stroke-width: 1.5;" x1="1332.75" x2="1454.75" y1="464" y2="464"/><!--class RelationshipDeclaration--><rect fill="#FEFECE" filter="url(#fkjsm7j)" height="73.6094" style="stroke: #A80036; stroke-width: 1.5;" width="201" x="975" y="59"/><ellipse cx="999" cy="75" fill="#ADD1B2" rx="11" ry="11" style="stroke: #A80036; stroke-width: 1.0;"/><path d="M1001.9688,80.6406 Q1001.3906,80.9375 1000.75,81.0859 Q1000.1094,81.2344 999.4063,81.2344 Q996.9063,81.2344 995.5859,79.5859 Q994.2656,77.9375 994.2656,74.8125 Q994.2656,71.6875 995.5859,70.0313 Q996.9063,68.375 999.4063,68.375 Q1000.1094,68.375 1000.7578,68.5313 Q1001.4063,68.6875 1001.9688,68.9844 L1001.9688,71.7031 Q1001.3438,71.125 1000.75,70.8516 Q1000.1563,70.5781 999.5313,70.5781 Q998.1875,70.5781 997.5,71.6484 Q996.8125,72.7188 996.8125,74.8125 Q996.8125,76.9063 997.5,77.9766 Q998.1875,79.0469 999.5313,79.0469 Q1000.1563,79.0469 1000.75,78.7734 Q1001.3438,78.5 1001.9688,77.9219 L1001.9688,80.6406 Z "/><text fill="#000000" font-family="sans-serif" font-size="12" lengthAdjust="spacingAndGlyphs" textLength="149" x="1015" y="79.1543">RelationshipDeclaration</text><line style="stroke: #A80036; stroke-width: 1.5;" x1="976" x2="1175" y1="91" y2="91"/><line style="stroke: #A80036; stroke-width: 1.5;" x1="976" x2="1175" y1="99" y2="99"/><ellipse cx="986" cy="110.9023" fill="#84BE84" rx="3" ry="3" style="stroke: #038048; stroke-width: 1.0;"/><text fill="#000000" font-family="sans-serif" font-size="11" lengthAdjust="spacingAndGlyphs" textLength="136" x="995" y="113.2104">void constructor(Object)</text><rect fill="#F24D5C" height="6" style="stroke: #C82930; stroke-width: 1.0;" width="6" x="983" y="120.707"/><text fill="#000000" font-family="sans-serif" font-size="11" lengthAdjust="spacingAndGlyphs" textLength="175" x="995" y="126.0151">void validate(ClassDeclaration)</text><!--class ClassDeclaration--><rect fill="#FEFECE" filter="url(#fkjsm7j)" height="214.4609" style="stroke: #A80036; stroke-width: 1.5;" width="215" x="1988" y="341"/><ellipse cx="2038.75" cy="357" fill="#ADD1B2" rx="11" ry="11" style="stroke: #A80036; stroke-width: 1.0;"/><path d="M2041.7188,362.6406 Q2041.1406,362.9375 2040.5,363.0859 Q2039.8594,363.2344 2039.1563,363.2344 Q2036.6563,363.2344 2035.3359,361.5859 Q2034.0156,359.9375 2034.0156,356.8125 Q2034.0156,353.6875 2035.3359,352.0313 Q2036.6563,350.375 2039.1563,350.375 Q2039.8594,350.375 2040.5078,350.5313 Q2041.1563,350.6875 2041.7188,350.9844 L2041.7188,353.7031 Q2041.0938,353.125 2040.5,352.8516 Q2039.9063,352.5781 2039.2813,352.5781 Q2037.9375,352.5781 2037.25,353.6484 Q2036.5625,354.7188 2036.5625,356.8125 Q2036.5625,358.9063 2037.25,359.9766 Q2037.9375,361.0469 2039.2813,361.0469 Q2039.9063,361.0469 2040.5,360.7734 Q2041.0938,360.5 2041.7188,359.9219 L2041.7188,362.6406 Z "/><text fill="#000000" font-family="sans-serif" font-size="12" lengthAdjust="spacingAndGlyphs" textLength="105" x="2059.25" y="361.1543">ClassDeclaration</text><line style="stroke: #A80036; stroke-width: 1.5;" x1="1989" x2="2202" y1="373" y2="373"/><line style="stroke: #A80036; stroke-width: 1.5;" x1="1989" x2="2202" y1="381" y2="381"/><ellipse cx="1999" cy="392.9023" fill="#84BE84" rx="3" ry="3" style="stroke: #038048; stroke-width: 1.0;"/><text fill="#000000" font-family="sans-serif" font-size="11" lengthAdjust="spacingAndGlyphs" textLength="189" x="2008" y="395.2104">void constructor(ModelFile,string)</text><rect fill="#F24D5C" height="6" style="stroke: #C82930; stroke-width: 1.0;" width="6" x="1996" y="402.707"/><text fill="#000000" font-family="sans-serif" font-size="11" lengthAdjust="spacingAndGlyphs" textLength="161" x="2008" y="408.0151">Object accept(Object,Object)</text><ellipse cx="1999" cy="418.5117" fill="#84BE84" rx="3" ry="3" style="stroke: #038048; stroke-width: 1.0;"/><text fill="#000000" font-family="sans-serif" font-size="11" lengthAdjust="spacingAndGlyphs" textLength="134" x="2008" y="420.8198">ModelFile getModelFile()</text><rect fill="#F24D5C" height="6" style="stroke: #C82930; stroke-width: 1.0;" width="6" x="1996" y="428.3164"/><text fill="#000000" font-family="sans-serif" font-size="11" lengthAdjust="spacingAndGlyphs" textLength="81" x="2008" y="433.6245">void process()</text><rect fill="#F24D5C" height="6" style="stroke: #C82930; stroke-width: 1.0;" width="6" x="1996" y="441.1211"/><text fill="#000000" font-family="sans-serif" font-size="11" lengthAdjust="spacingAndGlyphs" textLength="79" x="2008" y="446.4292">void validate()</text><ellipse cx="1999" cy="456.9258" fill="#84BE84" rx="3" ry="3" style="stroke: #038048; stroke-width: 1.0;"/><text fill="#000000" font-family="sans-serif" font-size="11" lengthAdjust="spacingAndGlyphs" textLength="96" x="2008" y="459.2339">string getName()</text><ellipse cx="1999" cy="469.7305" fill="#84BE84" rx="3" ry="3" style="stroke: #038048; stroke-width: 1.0;"/><text fill="#000000" font-family="sans-serif" font-size="11" lengthAdjust="spacingAndGlyphs" textLength="171" x="2008" y="472.0386">string getFullyQualifiedName()</text><ellipse cx="1999" cy="482.5352" fill="#84BE84" rx="3" ry="3" style="stroke: #038048; stroke-width: 1.0;"/><text fill="#000000" font-family="sans-serif" font-size="11" lengthAdjust="spacingAndGlyphs" textLength="172" x="2008" y="484.8433">string getIdentifierFieldName()</text><ellipse cx="1999" cy="495.3398" fill="#84BE84" rx="3" ry="3" style="stroke: #038048; stroke-width: 1.0;"/><text fill="#000000" font-family="sans-serif" font-size="11" lengthAdjust="spacingAndGlyphs" textLength="184" x="2008" y="497.6479">Property getOwnProperty(string)</text><ellipse cx="1999" cy="508.1445" fill="#84BE84" rx="3" ry="3" style="stroke: #038048; stroke-width: 1.0;"/><text fill="#000000" font-family="sans-serif" font-size="11" lengthAdjust="spacingAndGlyphs" textLength="170" x="2008" y="510.4526">Property[] getOwnProperties()</text><ellipse cx="1999" cy="520.9492" fill="#84BE84" rx="3" ry="3" style="stroke: #038048; stroke-width: 1.0;"/><text fill="#000000" font-family="sans-serif" font-size="11" lengthAdjust="spacingAndGlyphs" textLength="124" x="2008" y="523.2573">string getSuperType()</text><ellipse cx="1999" cy="533.7539" fill="#84BE84" rx="3" ry="3" style="stroke: #038048; stroke-width: 1.0;"/><text fill="#000000" font-family="sans-serif" font-size="11" lengthAdjust="spacingAndGlyphs" textLength="159" x="2008" y="536.062">Property getProperty(string)</text><ellipse cx="1999" cy="546.5586" fill="#84BE84" rx="3" ry="3" style="stroke: #038048; stroke-width: 1.0;"/><text fill="#000000" font-family="sans-serif" font-size="11" lengthAdjust="spacingAndGlyphs" textLength="145" x="2008" y="548.8667">Property[] getProperties()</text><!--class AssetDeclaration--><rect fill="#FEFECE" filter="url(#fkjsm7j)" height="60.8047" style="stroke: #A80036; stroke-width: 1.5;" width="218" x="1607.25" y="65.5"/><ellipse cx="1658.5" cy="81.5" fill="#ADD1B2" rx="11" ry="11" style="stroke: #A80036; stroke-width: 1.0;"/><path d="M1661.4688,87.1406 Q1660.8906,87.4375 1660.25,87.5859 Q1659.6094,87.7344 1658.9063,87.7344 Q1656.4063,87.7344 1655.0859,86.0859 Q1653.7656,84.4375 1653.7656,81.3125 Q1653.7656,78.1875 1655.0859,76.5313 Q1656.4063,74.875 1658.9063,74.875 Q1659.6094,74.875 1660.2578,75.0313 Q1660.9063,75.1875 1661.4688,75.4844 L1661.4688,78.2031 Q1660.8438,77.625 1660.25,77.3516 Q1659.6563,77.0781 1659.0313,77.0781 Q1657.6875,77.0781 1657,78.1484 Q1656.3125,79.2188 1656.3125,81.3125 Q1656.3125,83.4063 1657,84.4766 Q1657.6875,85.5469 1659.0313,85.5469 Q1659.6563,85.5469 1660.25,85.2734 Q1660.8438,85 1661.4688,84.4219 L1661.4688,87.1406 Z "/><text fill="#000000" font-family="sans-serif" font-size="12" lengthAdjust="spacingAndGlyphs" textLength="107" x="1679" y="85.6543">AssetDeclaration</text><line style="stroke: #A80036; stroke-width: 1.5;" x1="1608.25" x2="1824.25" y1="97.5" y2="97.5"/><line style="stroke: #A80036; stroke-width: 1.5;" x1="1608.25" x2="1824.25" y1="105.5" y2="105.5"/><ellipse cx="1618.25" cy="117.4023" fill="#84BE84" rx="3" ry="3" style="stroke: #038048; stroke-width: 1.0;"/><text fill="#000000" font-family="sans-serif" font-size="11" lengthAdjust="spacingAndGlyphs" textLength="192" x="1627.25" y="119.7104">void constructor(ModelFile,Object)</text><!--class EnumDeclaration--><rect fill="#FEFECE" filter="url(#fkjsm7j)" height="60.8047" style="stroke: #A80036; stroke-width: 1.5;" width="218" x="1860.25" y="65.5"/><ellipse cx="1911.5" cy="81.5" fill="#ADD1B2" rx="11" ry="11" style="stroke: #A80036; stroke-width: 1.0;"/><path d="M1914.4688,87.1406 Q1913.8906,87.4375 1913.25,87.5859 Q1912.6094,87.7344 1911.9063,87.7344 Q1909.4063,87.7344 1908.0859,86.0859 Q1906.7656,84.4375 1906.7656,81.3125 Q1906.7656,78.1875 1908.0859,76.5313 Q1909.4063,74.875 1911.9063,74.875 Q1912.6094,74.875 1913.2578,75.0313 Q1913.9063,75.1875 1914.4688,75.4844 L1914.4688,78.2031 Q1913.8438,77.625 1913.25,77.3516 Q1912.6563,77.0781 1912.0313,77.0781 Q1910.6875,77.0781 1910,78.1484 Q1909.3125,79.2188 1909.3125,81.3125 Q1909.3125,83.4063 1910,84.4766 Q1910.6875,85.5469 1912.0313,85.5469 Q1912.6563,85.5469 1913.25,85.2734 Q1913.8438,85 1914.4688,84.4219 L1914.4688,87.1406 Z "/><text fill="#000000" font-family="sans-serif" font-size="12" lengthAdjust="spacingAndGlyphs" textLength="107" x="1932" y="85.6543">EnumDeclaration</text><line style="stroke: #A80036; stroke-width: 1.5;" x1="1861.25" x2="2077.25" y1="97.5" y2="97.5"/><line style="stroke: #A80036; stroke-width: 1.5;" x1="1861.25" x2="2077.25" y1="105.5" y2="105.5"/><ellipse cx="1871.25" cy="117.4023" fill="#84BE84" rx="3" ry="3" style="stroke: #038048; stroke-width: 1.0;"/><text fill="#000000" font-family="sans-serif" font-size="11" lengthAdjust="spacingAndGlyphs" textLength="192" x="1880.25" y="119.7104">void constructor(ModelFile,Object)</text><!--class ParticipantDeclaration--><rect fill="#FEFECE" filter="url(#fkjsm7j)" height="60.8047" style="stroke: #A80036; stroke-width: 1.5;" width="218" x="2113.25" y="65.5"/><ellipse cx="2148.95" cy="81.5" fill="#ADD1B2" rx="11" ry="11" style="stroke: #A80036; stroke-width: 1.0;"/><path d="M2151.9188,87.1406 Q2151.3406,87.4375 2150.7,87.5859 Q2150.0594,87.7344 2149.3563,87.7344 Q2146.8563,87.7344 2145.5359,86.0859 Q2144.2156,84.4375 2144.2156,81.3125 Q2144.2156,78.1875 2145.5359,76.5313 Q2146.8563,74.875 2149.3563,74.875 Q2150.0594,74.875 2150.7078,75.0313 Q2151.3563,75.1875 2151.9188,75.4844 L2151.9188,78.2031 Q2151.2938,77.625 2150.7,77.3516 Q2150.1063,77.0781 2149.4813,77.0781 Q2148.1375,77.0781 2147.45,78.1484 Q2146.7625,79.2188 2146.7625,81.3125 Q2146.7625,83.4063 2147.45,84.4766 Q2148.1375,85.5469 2149.4813,85.5469 Q2150.1063,85.5469 2150.7,85.2734 Q2151.2938,85 2151.9188,84.4219 L2151.9188,87.1406 Z "/><text fill="#000000" font-family="sans-serif" font-size="12" lengthAdjust="spacingAndGlyphs" textLength="140" x="2167.55" y="85.6543">ParticipantDeclaration</text><line style="stroke: #A80036; stroke-width: 1.5;" x1="2114.25" x2="2330.25" y1="97.5" y2="97.5"/><line style="stroke: #A80036; stroke-width: 1.5;" x1="2114.25" x2="2330.25" y1="105.5" y2="105.5"/><ellipse cx="2124.25" cy="117.4023" fill="#84BE84" rx="3" ry="3" style="stroke: #038048; stroke-width: 1.0;"/><text fill="#000000" font-family="sans-serif" font-size="11" lengthAdjust="spacingAndGlyphs" textLength="192" x="2133.25" y="119.7104">void constructor(ModelFile,Object)</text><!--class TransactionDeclaration--><rect fill="#FEFECE" filter="url(#fkjsm7j)" height="60.8047" style="stroke: #A80036; stroke-width: 1.5;" width="218" x="2366.25" y="65.5"/><ellipse cx="2399.25" cy="81.5" fill="#ADD1B2" rx="11" ry="11" style="stroke: #A80036; stroke-width: 1.0;"/><path d="M2402.2188,87.1406 Q2401.6406,87.4375 2401,87.5859 Q2400.3594,87.7344 2399.6563,87.7344 Q2397.1563,87.7344 2395.8359,86.0859 Q2394.5156,84.4375 2394.5156,81.3125 Q2394.5156,78.1875 2395.8359,76.5313 Q2397.1563,74.875 2399.6563,74.875 Q2400.3594,74.875 2401.0078,75.0313 Q2401.6563,75.1875 2402.2188,75.4844 L2402.2188,78.2031 Q2401.5938,77.625 2401,77.3516 Q2400.4063,77.0781 2399.7813,77.0781 Q2398.4375,77.0781 2397.75,78.1484 Q2397.0625,79.2188 2397.0625,81.3125 Q2397.0625,83.4063 2397.75,84.4766 Q2398.4375,85.5469 2399.7813,85.5469 Q2400.4063,85.5469 2401,85.2734 Q2401.5938,85 2402.2188,84.4219 L2402.2188,87.1406 Z "/><text fill="#000000" font-family="sans-serif" font-size="12" lengthAdjust="spacingAndGlyphs" textLength="146" x="2417.25" y="85.6543">TransactionDeclaration</text><line style="stroke: #A80036; stroke-width: 1.5;" x1="2367.25" x2="2583.25" y1="97.5" y2="97.5"/><line style="stroke: #A80036; stroke-width: 1.5;" x1="2367.25" x2="2583.25" y1="105.5" y2="105.5"/><ellipse cx="2377.25" cy="117.4023" fill="#84BE84" rx="3" ry="3" style="stroke: #038048; stroke-width: 1.0;"/><text fill="#000000" font-family="sans-serif" font-size="11" lengthAdjust="spacingAndGlyphs" textLength="192" x="2386.25" y="119.7104">void constructor(ModelFile,Object)</text><!--class FunctionDeclaration--><rect fill="#FEFECE" filter="url(#fkjsm7j)" height="176.0469" style="stroke: #A80036; stroke-width: 1.5;" width="253" x="253" y="8"/><ellipse cx="312.25" cy="24" fill="#ADD1B2" rx="11" ry="11" style="stroke: #A80036; stroke-width: 1.0;"/><path d="M315.2188,29.6406 Q314.6406,29.9375 314,30.0859 Q313.3594,30.2344 312.6563,30.2344 Q310.1563,30.2344 308.8359,28.5859 Q307.5156,26.9375 307.5156,23.8125 Q307.5156,20.6875 308.8359,19.0313 Q310.1563,17.375 312.6563,17.375 Q313.3594,17.375 314.0078,17.5313 Q314.6563,17.6875 315.2188,17.9844 L315.2188,20.7031 Q314.5938,20.125 314,19.8516 Q313.4063,19.5781 312.7813,19.5781 Q311.4375,19.5781 310.75,20.6484 Q310.0625,21.7188 310.0625,23.8125 Q310.0625,25.9063 310.75,26.9766 Q311.4375,28.0469 312.7813,28.0469 Q313.4063,28.0469 314,27.7734 Q314.5938,27.5 315.2188,26.9219 L315.2188,29.6406 Z "/><text fill="#000000" font-family="sans-serif" font-size="12" lengthAdjust="spacingAndGlyphs" textLength="126" x="332.75" y="28.1543">FunctionDeclaration</text><line style="stroke: #A80036; stroke-width: 1.5;" x1="254" x2="505" y1="40" y2="40"/><line style="stroke: #A80036; stroke-width: 1.5;" x1="254" x2="505" y1="48" y2="48"/><ellipse cx="264" cy="59.9023" fill="#84BE84" rx="3" ry="3" style="stroke: #038048; stroke-width: 1.0;"/><text fill="#000000" font-family="sans-serif" font-size="11" lengthAdjust="spacingAndGlyphs" textLength="189" x="273" y="62.2104">void constructor(ModelFile,string)</text><rect fill="#F24D5C" height="6" style="stroke: #C82930; stroke-width: 1.0;" width="6" x="261" y="69.707"/><text fill="#000000" font-family="sans-serif" font-size="11" lengthAdjust="spacingAndGlyphs" textLength="161" x="273" y="75.0151">Object accept(Object,Object)</text><ellipse cx="264" cy="85.5117" fill="#84BE84" rx="3" ry="3" style="stroke: #038048; stroke-width: 1.0;"/><text fill="#000000" font-family="sans-serif" font-size="11" lengthAdjust="spacingAndGlyphs" textLength="134" x="273" y="87.8198">ModelFile getModelFile()</text><ellipse cx="264" cy="98.3164" fill="#84BE84" rx="3" ry="3" style="stroke: #038048; stroke-width: 1.0;"/><text fill="#000000" font-family="sans-serif" font-size="11" lengthAdjust="spacingAndGlyphs" textLength="134" x="273" y="100.6245">string getFunctionText()</text><rect fill="#F24D5C" height="6" style="stroke: #C82930; stroke-width: 1.0;" width="6" x="261" y="108.1211"/><text fill="#000000" font-family="sans-serif" font-size="11" lengthAdjust="spacingAndGlyphs" textLength="81" x="273" y="113.4292">void process()</text><rect fill="#F24D5C" height="6" style="stroke: #C82930; stroke-width: 1.0;" width="6" x="261" y="120.9258"/><text fill="#000000" font-family="sans-serif" font-size="11" lengthAdjust="spacingAndGlyphs" textLength="79" x="273" y="126.2339">void validate()</text><ellipse cx="264" cy="136.7305" fill="#84BE84" rx="3" ry="3" style="stroke: #038048; stroke-width: 1.0;"/><text fill="#000000" font-family="sans-serif" font-size="11" lengthAdjust="spacingAndGlyphs" textLength="96" x="273" y="139.0386">string getName()</text><ellipse cx="264" cy="149.5352" fill="#84BE84" rx="3" ry="3" style="stroke: #038048; stroke-width: 1.0;"/><text fill="#000000" font-family="sans-serif" font-size="11" lengthAdjust="spacingAndGlyphs" textLength="227" x="273" y="151.8433">string getTransactionDeclarationName()</text><ellipse cx="264" cy="162.3398" fill="#84BE84" rx="3" ry="3" style="stroke: #038048; stroke-width: 1.0;"/><text fill="#000000" font-family="sans-serif" font-size="11" lengthAdjust="spacingAndGlyphs" textLength="138" x="273" y="164.6479">string[] getParameters()</text><ellipse cx="264" cy="175.1445" fill="#84BE84" rx="3" ry="3" style="stroke: #038048; stroke-width: 1.0;"/><text fill="#000000" font-family="sans-serif" font-size="11" lengthAdjust="spacingAndGlyphs" textLength="171" x="273" y="177.4526">string getFullyQualifiedName()</text><!--class ParseException--><rect fill="#FEFECE" filter="url(#fkjsm7j)" height="60.8047" style="stroke: #A80036; stroke-width: 1.5;" width="159" x="1413" y="65.5"/><ellipse cx="1441.5" cy="81.5" fill="#ADD1B2" rx="11" ry="11" style="stroke: #A80036; stroke-width: 1.0;"/><path d="M1444.4688,87.1406 Q1443.8906,87.4375 1443.25,87.5859 Q1442.6094,87.7344 1441.9063,87.7344 Q1439.4063,87.7344 1438.0859,86.0859 Q1436.7656,84.4375 1436.7656,81.3125 Q1436.7656,78.1875 1438.0859,76.5313 Q1439.4063,74.875 1441.9063,74.875 Q1442.6094,74.875 1443.2578,75.0313 Q1443.9063,75.1875 1444.4688,75.4844 L1444.4688,78.2031 Q1443.8438,77.625 1443.25,77.3516 Q1442.6563,77.0781 1442.0313,77.0781 Q1440.6875,77.0781 1440,78.1484 Q1439.3125,79.2188 1439.3125,81.3125 Q1439.3125,83.4063 1440,84.4766 Q1440.6875,85.5469 1442.0313,85.5469 Q1442.6563,85.5469 1443.25,85.2734 Q1443.8438,85 1444.4688,84.4219 L1444.4688,87.1406 Z "/><text fill="#000000" font-family="sans-serif" font-size="12" lengthAdjust="spacingAndGlyphs" textLength="97" x="1458.5" y="85.6543">ParseException</text><line style="stroke: #A80036; stroke-width: 1.5;" x1="1414" x2="1571" y1="97.5" y2="97.5"/><line style="stroke: #A80036; stroke-width: 1.5;" x1="1414" x2="1571" y1="105.5" y2="105.5"/><ellipse cx="1424" cy="117.4023" fill="#84BE84" rx="3" ry="3" style="stroke: #038048; stroke-width: 1.0;"/><text fill="#000000" font-family="sans-serif" font-size="11" lengthAdjust="spacingAndGlyphs" textLength="133" x="1433" y="119.7104">void constructor(string)</text><!--class ModelFile--><rect fill="#FEFECE" filter="url(#fkjsm7j)" height="406.5313" style="stroke: #A80036; stroke-width: 1.5;" width="351" x="6" y="244.5"/><ellipse cx="148.25" cy="260.5" fill="#ADD1B2" rx="11" ry="11" style="stroke: #A80036; stroke-width: 1.0;"/><path d="M151.2188,266.1406 Q150.6406,266.4375 150,266.5859 Q149.3594,266.7344 148.6563,266.7344 Q146.1563,266.7344 144.8359,265.0859 Q143.5156,263.4375 143.5156,260.3125 Q143.5156,257.1875 144.8359,255.5313 Q146.1563,253.875 148.6563,253.875 Q149.3594,253.875 150.0078,254.0313 Q150.6563,254.1875 151.2188,254.4844 L151.2188,257.2031 Q150.5938,256.625 150,256.3516 Q149.4063,256.0781 148.7813,256.0781 Q147.4375,256.0781 146.75,257.1484 Q146.0625,258.2188 146.0625,260.3125 Q146.0625,262.4063 146.75,263.4766 Q147.4375,264.5469 148.7813,264.5469 Q149.4063,264.5469 150,264.2734 Q150.5938,264 151.2188,263.4219 L151.2188,266.1406 Z "/><text fill="#000000" font-family="sans-serif" font-size="12" lengthAdjust="spacingAndGlyphs" textLength="58" x="168.75" y="264.6543">ModelFile</text><line style="stroke: #A80036; stroke-width: 1.5;" x1="7" x2="356" y1="276.5" y2="276.5"/><line style="stroke: #A80036; stroke-width: 1.5;" x1="7" x2="356" y1="284.5" y2="284.5"/><ellipse cx="17" cy="296.4023" fill="#84BE84" rx="3" ry="3" style="stroke: #038048; stroke-width: 1.0;"/><text fill="#000000" font-family="sans-serif" font-size="11" lengthAdjust="spacingAndGlyphs" textLength="238" x="26" y="298.7104">ModelFile fromJSON(ModelManager,string)</text><ellipse cx="17" cy="309.207" fill="#84BE84" rx="3" ry="3" style="stroke: #038048; stroke-width: 1.0;"/><text fill="#000000" font-family="sans-serif" font-size="11" lengthAdjust="spacingAndGlyphs" textLength="293" x="26" y="311.5151">void constructor(ModelManager,string,string,string)</text><rect fill="#F24D5C" height="6" style="stroke: #C82930; stroke-width: 1.0;" width="6" x="14" y="319.0117"/><text fill="#000000" font-family="sans-serif" font-size="11" lengthAdjust="spacingAndGlyphs" textLength="161" x="26" y="324.3198">Object accept(Object,Object)</text><ellipse cx="17" cy="334.8164" fill="#84BE84" rx="3" ry="3" style="stroke: #038048; stroke-width: 1.0;"/><text fill="#000000" font-family="sans-serif" font-size="11" lengthAdjust="spacingAndGlyphs" textLength="194" x="26" y="337.1245">ModelManager getModelManager()</text><ellipse cx="17" cy="347.6211" fill="#84BE84" rx="3" ry="3" style="stroke: #038048; stroke-width: 1.0;"/><text fill="#000000" font-family="sans-serif" font-size="11" lengthAdjust="spacingAndGlyphs" textLength="115" x="26" y="349.9292">string[] getImports()</text><ellipse cx="17" cy="360.4258" fill="#84BE84" rx="3" ry="3" style="stroke: #038048; stroke-width: 1.0;"/><text fill="#000000" font-family="sans-serif" font-size="11" lengthAdjust="spacingAndGlyphs" textLength="203" x="26" y="362.7339">FunctionDeclaration[] getFunctions()</text><rect fill="#F24D5C" height="6" style="stroke: #C82930; stroke-width: 1.0;" width="6" x="14" y="370.2305"/><text fill="#000000" font-family="sans-serif" font-size="11" lengthAdjust="spacingAndGlyphs" textLength="79" x="26" y="375.5386">void validate()</text><rect fill="#F24D5C" height="6" style="stroke: #C82930; stroke-width: 1.0;" width="6" x="14" y="383.0352"/><text fill="#000000" font-family="sans-serif" font-size="11" lengthAdjust="spacingAndGlyphs" textLength="174" x="26" y="388.3433">void resolveType(string,string)</text><rect fill="#F24D5C" height="6" style="stroke: #C82930; stroke-width: 1.0;" width="6" x="14" y="395.8398"/><text fill="#000000" font-family="sans-serif" font-size="11" lengthAdjust="spacingAndGlyphs" textLength="156" x="26" y="401.1479">boolean isLocalType(string)</text><rect fill="#F24D5C" height="6" style="stroke: #C82930; stroke-width: 1.0;" width="6" x="14" y="408.6445"/><text fill="#000000" font-family="sans-serif" font-size="11" lengthAdjust="spacingAndGlyphs" textLength="178" x="26" y="413.9526">boolean isImportedType(string)</text><rect fill="#F24D5C" height="6" style="stroke: #C82930; stroke-width: 1.0;" width="6" x="14" y="421.4492"/><text fill="#000000" font-family="sans-serif" font-size="11" lengthAdjust="spacingAndGlyphs" textLength="157" x="26" y="426.7573">string resolveImport(string)</text><ellipse cx="17" cy="437.2539" fill="#84BE84" rx="3" ry="3" style="stroke: #038048; stroke-width: 1.0;"/><text fill="#000000" font-family="sans-serif" font-size="11" lengthAdjust="spacingAndGlyphs" textLength="143" x="26" y="439.562">boolean isDefined(string)</text><rect fill="#F24D5C" height="6" style="stroke: #C82930; stroke-width: 1.0;" width="6" x="14" y="447.0586"/><text fill="#000000" font-family="sans-serif" font-size="11" lengthAdjust="spacingAndGlyphs" textLength="231" x="26" y="452.3667">string | ClassDeclaration getType(string)</text><ellipse cx="17" cy="462.8633" fill="#84BE84" rx="3" ry="3" style="stroke: #038048; stroke-width: 1.0;"/><text fill="#000000" font-family="sans-serif" font-size="11" lengthAdjust="spacingAndGlyphs" textLength="215" x="26" y="465.1714">ClassDeclaration getLocalType(string)</text><ellipse cx="17" cy="475.668" fill="#84BE84" rx="3" ry="3" style="stroke: #038048; stroke-width: 1.0;"/><text fill="#000000" font-family="sans-serif" font-size="11" lengthAdjust="spacingAndGlyphs" textLength="255" x="26" y="477.9761">AssetDeclaration getAssetDeclaration(string)</text><ellipse cx="17" cy="488.4727" fill="#84BE84" rx="3" ry="3" style="stroke: #038048; stroke-width: 1.0;"/><text fill="#000000" font-family="sans-serif" font-size="11" lengthAdjust="spacingAndGlyphs" textLength="325" x="26" y="490.7808">TransactionDeclaration getTransactionDeclaration(string)</text><ellipse cx="17" cy="501.2773" fill="#84BE84" rx="3" ry="3" style="stroke: #038048; stroke-width: 1.0;"/><text fill="#000000" font-family="sans-serif" font-size="11" lengthAdjust="spacingAndGlyphs" textLength="311" x="26" y="503.5854">ParticipantDeclaration getParticipantDeclaration(string)</text><ellipse cx="17" cy="514.082" fill="#84BE84" rx="3" ry="3" style="stroke: #038048; stroke-width: 1.0;"/><text fill="#000000" font-family="sans-serif" font-size="11" lengthAdjust="spacingAndGlyphs" textLength="130" x="26" y="516.3901">string getNamespace()</text><ellipse cx="17" cy="526.8867" fill="#84BE84" rx="3" ry="3" style="stroke: #038048; stroke-width: 1.0;"/><text fill="#000000" font-family="sans-serif" font-size="11" lengthAdjust="spacingAndGlyphs" textLength="237" x="26" y="529.1948">AssetDeclaration[] getAssetDeclarations()</text><ellipse cx="17" cy="539.6914" fill="#84BE84" rx="3" ry="3" style="stroke: #038048; stroke-width: 1.0;"/><text fill="#000000" font-family="sans-serif" font-size="11" lengthAdjust="spacingAndGlyphs" textLength="307" x="26" y="541.9995">TransactionDeclaration[] getTransactionDeclarations()</text><ellipse cx="17" cy="552.4961" fill="#84BE84" rx="3" ry="3" style="stroke: #038048; stroke-width: 1.0;"/><text fill="#000000" font-family="sans-serif" font-size="11" lengthAdjust="spacingAndGlyphs" textLength="293" x="26" y="554.8042">ParticipantDeclaration[] getParticipantDeclarations()</text><ellipse cx="17" cy="565.3008" fill="#84BE84" rx="3" ry="3" style="stroke: #038048; stroke-width: 1.0;"/><text fill="#000000" font-family="sans-serif" font-size="11" lengthAdjust="spacingAndGlyphs" textLength="252" x="26" y="567.6089">ClassDeclaration[] getDeclarations(Function)</text><ellipse cx="17" cy="578.1055" fill="#84BE84" rx="3" ry="3" style="stroke: #038048; stroke-width: 1.0;"/><text fill="#000000" font-family="sans-serif" font-size="11" lengthAdjust="spacingAndGlyphs" textLength="218" x="26" y="580.4136">ClassDeclaration[] getAllDeclarations()</text><ellipse cx="17" cy="590.9102" fill="#84BE84" rx="3" ry="3" style="stroke: #038048; stroke-width: 1.0;"/><text fill="#000000" font-family="sans-serif" font-size="11" lengthAdjust="spacingAndGlyphs" textLength="113" x="26" y="593.2183">string getIdentifier()</text><ellipse cx="17" cy="603.7148" fill="#84BE84" rx="3" ry="3" style="stroke: #038048; stroke-width: 1.0;"/><text fill="#000000" font-family="sans-serif" font-size="11" lengthAdjust="spacingAndGlyphs" textLength="96" x="26" y="606.0229">string getName()</text><ellipse cx="17" cy="616.5195" fill="#84BE84" rx="3" ry="3" style="stroke: #038048; stroke-width: 1.0;"/><text fill="#000000" font-family="sans-serif" font-size="11" lengthAdjust="spacingAndGlyphs" textLength="123" x="26" y="618.8276">string getDefinitions()</text><ellipse cx="17" cy="629.3242" fill="#84BE84" rx="3" ry="3" style="stroke: #038048; stroke-width: 1.0;"/><text fill="#000000" font-family="sans-serif" font-size="11" lengthAdjust="spacingAndGlyphs" textLength="87" x="26" y="631.6323">Object toJSON()</text><ellipse cx="17" cy="642.1289" fill="#84BE84" rx="3" ry="3" style="stroke: #038048; stroke-width: 1.0;"/><text fill="#000000" font-family="sans-serif" font-size="11" lengthAdjust="spacingAndGlyphs" textLength="118" x="26" y="644.437">string toJSONString()</text><path d="M656.395,152.073 C690.178,206.562 742.493,290.941 782.525,355.508 " fill="none" style="stroke: #A80036; stroke-width: 1.0;"/><polygon fill="none" points="788.613,352.043,793.202,372.73,776.714,359.42,788.613,352.043" style="stroke: #A80036; stroke-width: 1.0;"/><path d="M839.25,133.138 C839.25,184.514 839.25,280.455 839.25,352.796 " fill="none" style="stroke: #A80036; stroke-width: 1.0;"/><polygon fill="none" points="846.25,352.99,839.25,372.99,832.25,352.99,846.25,352.99" style="stroke: #A80036; stroke-width: 1.0;"/><path d="M1302.61,126.539 C1320.13,188.505 1360.8,332.283 1381.17,404.294 " fill="none" style="stroke: #A80036; stroke-width: 1.0;"/><polygon fill="none" points="1387.97,402.622,1386.68,423.772,1374.5,406.432,1387.97,402.622" style="stroke: #A80036; stroke-width: 1.0;"/><path d="M1050.88,133.138 C1015.72,185.284 949.603,283.341 900.588,356.033 " fill="none" style="stroke: #A80036; stroke-width: 1.0;"/><polygon fill="none" points="906.139,360.321,889.154,372.99,894.532,352.494,906.139,360.321" style="stroke: #A80036; stroke-width: 1.0;"/><path d="M1748.24,126.539 C1797.36,171.903 1893.96,261.114 1972.79,333.914 " fill="none" style="stroke: #A80036; stroke-width: 1.0;"/><polygon fill="none" points="1977.85,329.058,1987.8,347.769,1968.35,339.343,1977.85,329.058" style="stroke: #A80036; stroke-width: 1.0;"/><path d="M1979.88,126.539 C1995.32,169.413 2024.85,251.451 2050.17,321.786 " fill="none" style="stroke: #A80036; stroke-width: 1.0;"/><polygon fill="none" points="2056.83,319.608,2057.02,340.797,2043.66,324.35,2056.83,319.608" style="stroke: #A80036; stroke-width: 1.0;"/><path d="M2211.53,126.539 C2195.97,169.413 2166.21,251.451 2140.68,321.786 " fill="none" style="stroke: #A80036; stroke-width: 1.0;"/><polygon fill="none" points="2147.19,324.384,2133.79,340.797,2134.03,319.609,2147.19,324.384" style="stroke: #A80036; stroke-width: 1.0;"/><path d="M2443.18,126.539 C2393.84,171.981 2296.74,261.418 2217.62,334.286 " fill="none" style="stroke: #A80036; stroke-width: 1.0;"/><polygon fill="none" points="2222.02,339.752,2202.57,348.153,2212.54,329.454,2222.02,339.752" style="stroke: #A80036; stroke-width: 1.0;"/><path d="M1483.89,126.539 C1466.37,188.505 1425.7,332.283 1405.33,404.294 " fill="none" style="stroke: #A80036; stroke-width: 1.0;"/><polygon fill="none" points="1412,406.432,1399.82,423.772,1398.53,402.622,1412,406.432" style="stroke: #A80036; stroke-width: 1.0;"/></g></svg>