<?xml version="1.0" encoding="UTF-8" standalone="no"?><svg xmlns="http://www.w3.org/2000/svg" xmlns:xlink="http://www.w3.org/1999/xlink" contentScriptType="application/ecmascript" contentStyleType="text/css" height="596px" preserveAspectRatio="none" style="width:2810px;height:596px;" version="1.1" viewBox="0 0 2810 596" width="2810px" zoomAndPan="magnify"><defs><filter height="300%" id="f54xrlz" width="300%" x="-1" y="-1"><feGaussianBlur result="blurOut" stdDeviation="2.0"/><feColorMatrix in="blurOut" result="blurOut2" type="matrix" values="0 0 0 0 0 0 0 0 0 0 0 0 0 0 0 0 0 0 .4 0"/><feOffset dx="4.0" dy="4.0" in="blurOut2" result="blurOut3"/><feBlend in="SourceGraphic" in2="blurOut3" mode="normal"/></filter></defs><g><!--class globalize--><rect fill="#FEFECE" filter="url(#f54xrlz)" height="48" style="stroke: #A80036; stroke-width: 1.5;" width="86" x="89.25" y="40"/><ellipse cx="104.25" cy="56" fill="#DA70D6" rx="11" ry="11" style="stroke: #A80036; stroke-width: 1.0;"/><path d="M104.0469,51.6719 L104.0469,55.2969 L105.0469,55.2969 Q106.25,55.2969 106.7344,54.8906 Q107.2188,54.4844 107.2188,53.4844 Q107.2188,52.4844 106.7344,52.0781 Q106.25,51.6719 105.0469,51.6719 L104.0469,51.6719 Z M101.5938,49.6094 L104.9531,49.6094 Q107.5156,49.6094 108.6406,50.5234 Q109.7656,51.4375 109.7656,53.4844 Q109.7656,55.5313 108.6406,56.4453 Q107.5156,57.3594 104.9531,57.3594 L104.0469,57.3594 L104.0469,62 L101.5938,62 L101.5938,49.6094 Z "/><text fill="#000000" font-family="sans-serif" font-size="12" lengthAdjust="spacingAndGlyphs" textLength="54" x="118.25" y="60.1543">globalize</text><line style="stroke: #A80036; stroke-width: 1.5;" x1="90.25" x2="174.25" y1="72" y2="72"/><line style="stroke: #A80036; stroke-width: 1.5;" x1="90.25" x2="174.25" y1="80" y2="80"/><!--class ModelUtil--><rect fill="#FEFECE" filter="url(#f54xrlz)" height="112.0234" style="stroke: #A80036; stroke-width: 1.5;" width="310" x="234.25" y="8"/><ellipse cx="356.5" cy="24" fill="#ADD1B2" rx="11" ry="11" style="stroke: #A80036; stroke-width: 1.0;"/><path d="M359.4688,29.6406 Q358.8906,29.9375 358.25,30.0859 Q357.6094,30.2344 356.9063,30.2344 Q354.4063,30.2344 353.0859,28.5859 Q351.7656,26.9375 351.7656,23.8125 Q351.7656,20.6875 353.0859,19.0313 Q354.4063,17.375 356.9063,17.375 Q357.6094,17.375 358.2578,17.5313 Q358.9063,17.6875 359.4688,17.9844 L359.4688,20.7031 Q358.8438,20.125 358.25,19.8516 Q357.6563,19.5781 357.0313,19.5781 Q355.6875,19.5781 355,20.6484 Q354.3125,21.7188 354.3125,23.8125 Q354.3125,25.9063 355,26.9766 Q355.6875,28.0469 357.0313,28.0469 Q357.6563,28.0469 358.25,27.7734 Q358.8438,27.5 359.4688,26.9219 L359.4688,29.6406 Z "/><text fill="#000000" font-family="sans-serif" font-size="12" lengthAdjust="spacingAndGlyphs" textLength="57" x="377" y="28.1543">ModelUtil</text><line style="stroke: #A80036; stroke-width: 1.5;" x1="235.25" x2="543.25" y1="40" y2="40"/><line style="stroke: #A80036; stroke-width: 1.5;" x1="235.25" x2="543.25" y1="48" y2="48"/><rect fill="#F24D5C" height="6" style="stroke: #C82930; stroke-width: 1.0;" width="6" x="242.25" y="56.9023"/><text fill="#000000" font-family="sans-serif" font-size="11" lengthAdjust="spacingAndGlyphs" textLength="160" x="254.25" y="62.2104">string getShortName(string)</text><rect fill="#F24D5C" height="6" style="stroke: #C82930; stroke-width: 1.0;" width="6" x="242.25" y="69.707"/><text fill="#000000" font-family="sans-serif" font-size="11" lengthAdjust="spacingAndGlyphs" textLength="163" x="254.25" y="75.0151">string getNamespace(string)</text><rect fill="#F24D5C" height="6" style="stroke: #C82930; stroke-width: 1.0;" width="6" x="242.25" y="82.5117"/><text fill="#000000" font-family="sans-serif" font-size="11" lengthAdjust="spacingAndGlyphs" textLength="176" x="254.25" y="87.8198">boolean isPrimitiveType(string)</text><rect fill="#F24D5C" height="6" style="stroke: #C82930; stroke-width: 1.0;" width="6" x="242.25" y="95.3164"/><text fill="#000000" font-family="sans-serif" font-size="11" lengthAdjust="spacingAndGlyphs" textLength="284" x="254.25" y="100.6245">boolean isAssignableTo(ModelFile,string,Property)</text><rect fill="#F24D5C" height="6" style="stroke: #C82930; stroke-width: 1.0;" width="6" x="242.25" y="108.1211"/><text fill="#000000" font-family="sans-serif" font-size="11" lengthAdjust="spacingAndGlyphs" textLength="188" x="254.25" y="113.4292">string capitalizeFirstLetter(string)</text><!--class parser--><rect fill="#FEFECE" filter="url(#f54xrlz)" height="48" style="stroke: #A80036; stroke-width: 1.5;" width="73" x="627" y="40"/><ellipse cx="642" cy="56" fill="#DA70D6" rx="11" ry="11" style="stroke: #A80036; stroke-width: 1.0;"/><path d="M641.7969,51.6719 L641.7969,55.2969 L642.7969,55.2969 Q644,55.2969 644.4844,54.8906 Q644.9688,54.4844 644.9688,53.4844 Q644.9688,52.4844 644.4844,52.0781 Q644,51.6719 642.7969,51.6719 L641.7969,51.6719 Z M639.3438,49.6094 L642.7031,49.6094 Q645.2656,49.6094 646.3906,50.5234 Q647.5156,51.4375 647.5156,53.4844 Q647.5156,55.5313 646.3906,56.4453 Q645.2656,57.3594 642.7031,57.3594 L641.7969,57.3594 L641.7969,62 L639.3438,62 L639.3438,49.6094 Z "/><text fill="#000000" font-family="sans-serif" font-size="12" lengthAdjust="spacingAndGlyphs" textLength="41" x="656" y="60.1543">parser</text><line style="stroke: #A80036; stroke-width: 1.5;" x1="628" x2="699" y1="72" y2="72"/><line style="stroke: #A80036; stroke-width: 1.5;" x1="628" x2="699" y1="80" y2="80"/><!--class Property--><rect fill="#FEFECE" filter="url(#f54xrlz)" height="150.4375" style="stroke: #A80036; stroke-width: 1.5;" width="201" x="956" y="309"/><ellipse cx="1025.75" cy="325" fill="#ADD1B2" rx="11" ry="11" style="stroke: #A80036; stroke-width: 1.0;"/><path d="M1028.7188,330.6406 Q1028.1406,330.9375 1027.5,331.0859 Q1026.8594,331.2344 1026.1563,331.2344 Q1023.6563,331.2344 1022.3359,329.5859 Q1021.0156,327.9375 1021.0156,324.8125 Q1021.0156,321.6875 1022.3359,320.0313 Q1023.6563,318.375 1026.1563,318.375 Q1026.8594,318.375 1027.5078,318.5313 Q1028.1563,318.6875 1028.7188,318.9844 L1028.7188,321.7031 Q1028.0938,321.125 1027.5,320.8516 Q1026.9063,320.5781 1026.2813,320.5781 Q1024.9375,320.5781 1024.25,321.6484 Q1023.5625,322.7188 1023.5625,324.8125 Q1023.5625,326.9063 1024.25,327.9766 Q1024.9375,329.0469 1026.2813,329.0469 Q1026.9063,329.0469 1027.5,328.7734 Q1028.0938,328.5 1028.7188,327.9219 L1028.7188,330.6406 Z "/><text fill="#000000" font-family="sans-serif" font-size="12" lengthAdjust="spacingAndGlyphs" textLength="53" x="1046.25" y="329.1543">Property</text><line style="stroke: #A80036; stroke-width: 1.5;" x1="957" x2="1156" y1="341" y2="341"/><line style="stroke: #A80036; stroke-width: 1.5;" x1="957" x2="1156" y1="349" y2="349"/><ellipse cx="967" cy="360.9023" fill="#84BE84" rx="3" ry="3" style="stroke: #038048; stroke-width: 1.0;"/><text fill="#000000" font-family="sans-serif" font-size="11" lengthAdjust="spacingAndGlyphs" textLength="136" x="976" y="363.2104">void constructor(Object)</text><rect fill="#F24D5C" height="6" style="stroke: #C82930; stroke-width: 1.0;" width="6" x="964" y="370.707"/><text fill="#000000" font-family="sans-serif" font-size="11" lengthAdjust="spacingAndGlyphs" textLength="161" x="976" y="376.0151">Object accept(Object,Object)</text><rect fill="#F24D5C" height="6" style="stroke: #C82930; stroke-width: 1.0;" width="6" x="964" y="383.5117"/><text fill="#000000" font-family="sans-serif" font-size="11" lengthAdjust="spacingAndGlyphs" textLength="81" x="976" y="388.8198">void process()</text><rect fill="#F24D5C" height="6" style="stroke: #C82930; stroke-width: 1.0;" width="6" x="964" y="396.3164"/><text fill="#000000" font-family="sans-serif" font-size="11" lengthAdjust="spacingAndGlyphs" textLength="175" x="976" y="401.6245">void validate(ClassDeclaration)</text><ellipse cx="967" cy="412.1211" fill="#84BE84" rx="3" ry="3" style="stroke: #038048; stroke-width: 1.0;"/><text fill="#000000" font-family="sans-serif" font-size="11" lengthAdjust="spacingAndGlyphs" textLength="96" x="976" y="414.4292">string getName()</text><ellipse cx="967" cy="424.9258" fill="#84BE84" rx="3" ry="3" style="stroke: #038048; stroke-width: 1.0;"/><text fill="#000000" font-family="sans-serif" font-size="11" lengthAdjust="spacingAndGlyphs" textLength="90" x="976" y="427.2339">string getType()</text><ellipse cx="967" cy="437.7305" fill="#84BE84" rx="3" ry="3" style="stroke: #038048; stroke-width: 1.0;"/><text fill="#000000" font-family="sans-serif" font-size="11" lengthAdjust="spacingAndGlyphs" textLength="97" x="976" y="440.0386">boolean isArray()</text><ellipse cx="967" cy="450.5352" fill="#84BE84" rx="3" ry="3" style="stroke: #038048; stroke-width: 1.0;"/><text fill="#000000" font-family="sans-serif" font-size="11" lengthAdjust="spacingAndGlyphs" textLength="99" x="976" y="452.8433">boolean isEnum()</text><!--class Field--><rect fill="#FEFECE" filter="url(#f54xrlz)" height="112.0234" style="stroke: #A80036; stroke-width: 1.5;" width="162" x="758.25" y="8"/><ellipse cx="820.5" cy="24" fill="#ADD1B2" rx="11" ry="11" style="stroke: #A80036; stroke-width: 1.0;"/><path d="M823.4688,29.6406 Q822.8906,29.9375 822.25,30.0859 Q821.6094,30.2344 820.9063,30.2344 Q818.4063,30.2344 817.0859,28.5859 Q815.7656,26.9375 815.7656,23.8125 Q815.7656,20.6875 817.0859,19.0313 Q818.4063,17.375 820.9063,17.375 Q821.6094,17.375 822.2578,17.5313 Q822.9063,17.6875 823.4688,17.9844 L823.4688,20.7031 Q822.8438,20.125 822.25,19.8516 Q821.6563,19.5781 821.0313,19.5781 Q819.6875,19.5781 819,20.6484 Q818.3125,21.7188 818.3125,23.8125 Q818.3125,25.9063 819,26.9766 Q819.6875,28.0469 821.0313,28.0469 Q821.6563,28.0469 822.25,27.7734 Q822.8438,27.5 823.4688,26.9219 L823.4688,29.6406 Z "/><text fill="#000000" font-family="sans-serif" font-size="12" lengthAdjust="spacingAndGlyphs" textLength="29" x="841" y="28.1543">Field</text><line style="stroke: #A80036; stroke-width: 1.5;" x1="759.25" x2="919.25" y1="40" y2="40"/><line style="stroke: #A80036; stroke-width: 1.5;" x1="759.25" x2="919.25" y1="48" y2="48"/><ellipse cx="769.25" cy="59.9023" fill="#84BE84" rx="3" ry="3" style="stroke: #038048; stroke-width: 1.0;"/><text fill="#000000" font-family="sans-serif" font-size="11" lengthAdjust="spacingAndGlyphs" textLength="136" x="778.25" y="62.2104">void constructor(Object)</text><rect fill="#F24D5C" height="6" style="stroke: #C82930; stroke-width: 1.0;" width="6" x="766.25" y="69.707"/><text fill="#000000" font-family="sans-serif" font-size="11" lengthAdjust="spacingAndGlyphs" textLength="81" x="778.25" y="75.0151">void process()</text><ellipse cx="769.25" cy="85.5117" fill="#84BE84" rx="3" ry="3" style="stroke: #038048; stroke-width: 1.0;"/><text fill="#000000" font-family="sans-serif" font-size="11" lengthAdjust="spacingAndGlyphs" textLength="113" x="778.25" y="87.8198">string getValidator()</text><ellipse cx="769.25" cy="98.3164" fill="#84BE84" rx="3" ry="3" style="stroke: #038048; stroke-width: 1.0;"/><text fill="#000000" font-family="sans-serif" font-size="11" lengthAdjust="spacingAndGlyphs" textLength="114" x="778.25" y="100.6245">boolean isOptional()</text><ellipse cx="769.25" cy="111.1211" fill="#84BE84" rx="3" ry="3" style="stroke: #038048; stroke-width: 1.0;"/><text fill="#000000" font-family="sans-serif" font-size="11" lengthAdjust="spacingAndGlyphs" textLength="134" x="778.25" y="113.4292">string getDefaultValue()</text><!--class EnumValueDeclaration--><rect fill="#FEFECE" filter="url(#f54xrlz)" height="73.6094" style="stroke: #A80036; stroke-width: 1.5;" width="201" x="956" y="27"/><ellipse cx="983.15" cy="43" fill="#ADD1B2" rx="11" ry="11" style="stroke: #A80036; stroke-width: 1.0;"/><path d="M986.1188,48.6406 Q985.5406,48.9375 984.9,49.0859 Q984.2594,49.2344 983.5563,49.2344 Q981.0563,49.2344 979.7359,47.5859 Q978.4156,45.9375 978.4156,42.8125 Q978.4156,39.6875 979.7359,38.0313 Q981.0563,36.375 983.5563,36.375 Q984.2594,36.375 984.9078,36.5313 Q985.5563,36.6875 986.1188,36.9844 L986.1188,39.7031 Q985.4938,39.125 984.9,38.8516 Q984.3063,38.5781 983.6813,38.5781 Q982.3375,38.5781 981.65,39.6484 Q980.9625,40.7188 980.9625,42.8125 Q980.9625,44.9063 981.65,45.9766 Q982.3375,47.0469 983.6813,47.0469 Q984.3063,47.0469 984.9,46.7734 Q985.4938,46.5 986.1188,45.9219 L986.1188,48.6406 Z "/><text fill="#000000" font-family="sans-serif" font-size="12" lengthAdjust="spacingAndGlyphs" textLength="142" x="999.85" y="47.1543">EnumValueDeclaration</text><line style="stroke: #A80036; stroke-width: 1.5;" x1="957" x2="1156" y1="59" y2="59"/><line style="stroke: #A80036; stroke-width: 1.5;" x1="957" x2="1156" y1="67" y2="67"/><ellipse cx="967" cy="78.9023" fill="#84BE84" rx="3" ry="3" style="stroke: #038048; stroke-width: 1.0;"/><text fill="#000000" font-family="sans-serif" font-size="11" lengthAdjust="spacingAndGlyphs" textLength="136" x="976" y="81.2104">void constructor(Object)</text><rect fill="#F24D5C" height="6" style="stroke: #C82930; stroke-width: 1.0;" width="6" x="964" y="88.707"/><text fill="#000000" font-family="sans-serif" font-size="11" lengthAdjust="spacingAndGlyphs" textLength="175" x="976" y="94.0151">void validate(ClassDeclaration)</text><!--class IllegalModelException--><rect fill="#FEFECE" filter="url(#f54xrlz)" height="60.8047" style="stroke: #A80036; stroke-width: 1.5;" width="166" x="1428.25" y="33.5"/><ellipse cx="1443.25" cy="49.5" fill="#ADD1B2" rx="11" ry="11" style="stroke: #A80036; stroke-width: 1.0;"/><path d="M1446.2188,55.1406 Q1445.6406,55.4375 1445,55.5859 Q1444.3594,55.7344 1443.6563,55.7344 Q1441.1563,55.7344 1439.8359,54.0859 Q1438.5156,52.4375 1438.5156,49.3125 Q1438.5156,46.1875 1439.8359,44.5313 Q1441.1563,42.875 1443.6563,42.875 Q1444.3594,42.875 1445.0078,43.0313 Q1445.6563,43.1875 1446.2188,43.4844 L1446.2188,46.2031 Q1445.5938,45.625 1445,45.3516 Q1444.4063,45.0781 1443.7813,45.0781 Q1442.4375,45.0781 1441.75,46.1484 Q1441.0625,47.2188 1441.0625,49.3125 Q1441.0625,51.4063 1441.75,52.4766 Q1442.4375,53.5469 1443.7813,53.5469 Q1444.4063,53.5469 1445,53.2734 Q1445.5938,53 1446.2188,52.4219 L1446.2188,55.1406 Z "/><text fill="#000000" font-family="sans-serif" font-size="12" lengthAdjust="spacingAndGlyphs" textLength="134" x="1457.25" y="53.6543">IllegalModelException</text><line style="stroke: #A80036; stroke-width: 1.5;" x1="1429.25" x2="1593.25" y1="65.5" y2="65.5"/><line style="stroke: #A80036; stroke-width: 1.5;" x1="1429.25" x2="1593.25" y1="73.5" y2="73.5"/><ellipse cx="1439.25" cy="85.4023" fill="#84BE84" rx="3" ry="3" style="stroke: #038048; stroke-width: 1.0;"/><text fill="#000000" font-family="sans-serif" font-size="11" lengthAdjust="spacingAndGlyphs" textLength="133" x="1448.25" y="87.7104">void constructor(string)</text><!--class BaseException--><rect fill="#FEFECE" filter="url(#f54xrlz)" height="48" style="stroke: #A80036; stroke-width: 1.5;" width="124" x="1548.75" y="360"/><ellipse cx="1563.75" cy="376" fill="#ADD1B2" rx="11" ry="11" style="stroke: #A80036; stroke-width: 1.0;"/><path d="M1566.7188,381.6406 Q1566.1406,381.9375 1565.5,382.0859 Q1564.8594,382.2344 1564.1563,382.2344 Q1561.6563,382.2344 1560.3359,380.5859 Q1559.0156,378.9375 1559.0156,375.8125 Q1559.0156,372.6875 1560.3359,371.0313 Q1561.6563,369.375 1564.1563,369.375 Q1564.8594,369.375 1565.5078,369.5313 Q1566.1563,369.6875 1566.7188,369.9844 L1566.7188,372.7031 Q1566.0938,372.125 1565.5,371.8516 Q1564.9063,371.5781 1564.2813,371.5781 Q1562.9375,371.5781 1562.25,372.6484 Q1561.5625,373.7188 1561.5625,375.8125 Q1561.5625,377.9063 1562.25,378.9766 Q1562.9375,380.0469 1564.2813,380.0469 Q1564.9063,380.0469 1565.5,379.7734 Q1566.0938,379.5 1566.7188,378.9219 L1566.7188,381.6406 Z "/><text fill="#000000" font-family="sans-serif" font-size="12" lengthAdjust="spacingAndGlyphs" textLength="92" x="1577.75" y="380.1543">BaseException</text><line style="stroke: #A80036; stroke-width: 1.5;" x1="1549.75" x2="1671.75" y1="392" y2="392"/><line style="stroke: #A80036; stroke-width: 1.5;" x1="1549.75" x2="1671.75" y1="400" y2="400"/><!--class RelationshipDeclaration--><rect fill="#FEFECE" filter="url(#f54xrlz)" height="73.6094" style="stroke: #A80036; stroke-width: 1.5;" width="201" x="1192" y="27"/><ellipse cx="1216" cy="43" fill="#ADD1B2" rx="11" ry="11" style="stroke: #A80036; stroke-width: 1.0;"/><path d="M1218.9688,48.6406 Q1218.3906,48.9375 1217.75,49.0859 Q1217.1094,49.2344 1216.4063,49.2344 Q1213.9063,49.2344 1212.5859,47.5859 Q1211.2656,45.9375 1211.2656,42.8125 Q1211.2656,39.6875 1212.5859,38.0313 Q1213.9063,36.375 1216.4063,36.375 Q1217.1094,36.375 1217.7578,36.5313 Q1218.4063,36.6875 1218.9688,36.9844 L1218.9688,39.7031 Q1218.3438,39.125 1217.75,38.8516 Q1217.1563,38.5781 1216.5313,38.5781 Q1215.1875,38.5781 1214.5,39.6484 Q1213.8125,40.7188 1213.8125,42.8125 Q1213.8125,44.9063 1214.5,45.9766 Q1215.1875,47.0469 1216.5313,47.0469 Q1217.1563,47.0469 1217.75,46.7734 Q1218.3438,46.5 1218.9688,45.9219 L1218.9688,48.6406 Z "/><text fill="#000000" font-family="sans-serif" font-size="12" lengthAdjust="spacingAndGlyphs" textLength="149" x="1232" y="47.1543">RelationshipDeclaration</text><line style="stroke: #A80036; stroke-width: 1.5;" x1="1193" x2="1392" y1="59" y2="59"/><line style="stroke: #A80036; stroke-width: 1.5;" x1="1193" x2="1392" y1="67" y2="67"/><ellipse cx="1203" cy="78.9023" fill="#84BE84" rx="3" ry="3" style="stroke: #038048; stroke-width: 1.0;"/><text fill="#000000" font-family="sans-serif" font-size="11" lengthAdjust="spacingAndGlyphs" textLength="136" x="1212" y="81.2104">void constructor(Object)</text><rect fill="#F24D5C" height="6" style="stroke: #C82930; stroke-width: 1.0;" width="6" x="1200" y="88.707"/><text fill="#000000" font-family="sans-serif" font-size="11" lengthAdjust="spacingAndGlyphs" textLength="175" x="1212" y="94.0151">void validate(ClassDeclaration)</text><!--class ClassDeclaration--><rect fill="#FEFECE" filter="url(#f54xrlz)" height="214.4609" style="stroke: #A80036; stroke-width: 1.5;" width="215" x="2205" y="277"/><ellipse cx="2255.75" cy="293" fill="#ADD1B2" rx="11" ry="11" style="stroke: #A80036; stroke-width: 1.0;"/><path d="M2258.7188,298.6406 Q2258.1406,298.9375 2257.5,299.0859 Q2256.8594,299.2344 2256.1563,299.2344 Q2253.6563,299.2344 2252.3359,297.5859 Q2251.0156,295.9375 2251.0156,292.8125 Q2251.0156,289.6875 2252.3359,288.0313 Q2253.6563,286.375 2256.1563,286.375 Q2256.8594,286.375 2257.5078,286.5313 Q2258.1563,286.6875 2258.7188,286.9844 L2258.7188,289.7031 Q2258.0938,289.125 2257.5,288.8516 Q2256.9063,288.5781 2256.2813,288.5781 Q2254.9375,288.5781 2254.25,289.6484 Q2253.5625,290.7188 2253.5625,292.8125 Q2253.5625,294.9063 2254.25,295.9766 Q2254.9375,297.0469 2256.2813,297.0469 Q2256.9063,297.0469 2257.5,296.7734 Q2258.0938,296.5 2258.7188,295.9219 L2258.7188,298.6406 Z "/><text fill="#000000" font-family="sans-serif" font-size="12" lengthAdjust="spacingAndGlyphs" textLength="105" x="2276.25" y="297.1543">ClassDeclaration</text><line style="stroke: #A80036; stroke-width: 1.5;" x1="2206" x2="2419" y1="309" y2="309"/><line style="stroke: #A80036; stroke-width: 1.5;" x1="2206" x2="2419" y1="317" y2="317"/><ellipse cx="2216" cy="328.9023" fill="#84BE84" rx="3" ry="3" style="stroke: #038048; stroke-width: 1.0;"/><text fill="#000000" font-family="sans-serif" font-size="11" lengthAdjust="spacingAndGlyphs" textLength="189" x="2225" y="331.2104">void constructor(ModelFile,string)</text><rect fill="#F24D5C" height="6" style="stroke: #C82930; stroke-width: 1.0;" width="6" x="2213" y="338.707"/><text fill="#000000" font-family="sans-serif" font-size="11" lengthAdjust="spacingAndGlyphs" textLength="161" x="2225" y="344.0151">Object accept(Object,Object)</text><ellipse cx="2216" cy="354.5117" fill="#84BE84" rx="3" ry="3" style="stroke: #038048; stroke-width: 1.0;"/><text fill="#000000" font-family="sans-serif" font-size="11" lengthAdjust="spacingAndGlyphs" textLength="134" x="2225" y="356.8198">ModelFile getModelFile()</text><rect fill="#F24D5C" height="6" style="stroke: #C82930; stroke-width: 1.0;" width="6" x="2213" y="364.3164"/><text fill="#000000" font-family="sans-serif" font-size="11" lengthAdjust="spacingAndGlyphs" textLength="81" x="2225" y="369.6245">void process()</text><rect fill="#F24D5C" height="6" style="stroke: #C82930; stroke-width: 1.0;" width="6" x="2213" y="377.1211"/><text fill="#000000" font-family="sans-serif" font-size="11" lengthAdjust="spacingAndGlyphs" textLength="79" x="2225" y="382.4292">void validate()</text><ellipse cx="2216" cy="392.9258" fill="#84BE84" rx="3" ry="3" style="stroke: #038048; stroke-width: 1.0;"/><text fill="#000000" font-family="sans-serif" font-size="11" lengthAdjust="spacingAndGlyphs" textLength="96" x="2225" y="395.2339">string getName()</text><ellipse cx="2216" cy="405.7305" fill="#84BE84" rx="3" ry="3" style="stroke: #038048; stroke-width: 1.0;"/><text fill="#000000" font-family="sans-serif" font-size="11" lengthAdjust="spacingAndGlyphs" textLength="171" x="2225" y="408.0386">string getFullyQualifiedName()</text><ellipse cx="2216" cy="418.5352" fill="#84BE84" rx="3" ry="3" style="stroke: #038048; stroke-width: 1.0;"/><text fill="#000000" font-family="sans-serif" font-size="11" lengthAdjust="spacingAndGlyphs" textLength="172" x="2225" y="420.8433">string getIdentifierFieldName()</text><ellipse cx="2216" cy="431.3398" fill="#84BE84" rx="3" ry="3" style="stroke: #038048; stroke-width: 1.0;"/><text fill="#000000" font-family="sans-serif" font-size="11" lengthAdjust="spacingAndGlyphs" textLength="184" x="2225" y="433.6479">Property getOwnProperty(string)</text><ellipse cx="2216" cy="444.1445" fill="#84BE84" rx="3" ry="3" style="stroke: #038048; stroke-width: 1.0;"/><text fill="#000000" font-family="sans-serif" font-size="11" lengthAdjust="spacingAndGlyphs" textLength="170" x="2225" y="446.4526">Property[] getOwnProperties()</text><ellipse cx="2216" cy="456.9492" fill="#84BE84" rx="3" ry="3" style="stroke: #038048; stroke-width: 1.0;"/><text fill="#000000" font-family="sans-serif" font-size="11" lengthAdjust="spacingAndGlyphs" textLength="124" x="2225" y="459.2573">string getSuperType()</text><ellipse cx="2216" cy="469.7539" fill="#84BE84" rx="3" ry="3" style="stroke: #038048; stroke-width: 1.0;"/><text fill="#000000" font-family="sans-serif" font-size="11" lengthAdjust="spacingAndGlyphs" textLength="159" x="2225" y="472.062">Property getProperty(string)</text><ellipse cx="2216" cy="482.5586" fill="#84BE84" rx="3" ry="3" style="stroke: #038048; stroke-width: 1.0;"/><text fill="#000000" font-family="sans-serif" font-size="11" lengthAdjust="spacingAndGlyphs" textLength="145" x="2225" y="484.8667">Property[] getProperties()</text><!--class AssetDeclaration--><rect fill="#FEFECE" filter="url(#f54xrlz)" height="60.8047" style="stroke: #A80036; stroke-width: 1.5;" width="218" x="1824.25" y="33.5"/><ellipse cx="1875.5" cy="49.5" fill="#ADD1B2" rx="11" ry="11" style="stroke: #A80036; stroke-width: 1.0;"/><path d="M1878.4688,55.1406 Q1877.8906,55.4375 1877.25,55.5859 Q1876.6094,55.7344 1875.9063,55.7344 Q1873.4063,55.7344 1872.0859,54.0859 Q1870.7656,52.4375 1870.7656,49.3125 Q1870.7656,46.1875 1872.0859,44.5313 Q1873.4063,42.875 1875.9063,42.875 Q1876.6094,42.875 1877.2578,43.0313 Q1877.9063,43.1875 1878.4688,43.4844 L1878.4688,46.2031 Q1877.8438,45.625 1877.25,45.3516 Q1876.6563,45.0781 1876.0313,45.0781 Q1874.6875,45.0781 1874,46.1484 Q1873.3125,47.2188 1873.3125,49.3125 Q1873.3125,51.4063 1874,52.4766 Q1874.6875,53.5469 1876.0313,53.5469 Q1876.6563,53.5469 1877.25,53.2734 Q1877.8438,53 1878.4688,52.4219 L1878.4688,55.1406 Z "/><text fill="#000000" font-family="sans-serif" font-size="12" lengthAdjust="spacingAndGlyphs" textLength="107" x="1896" y="53.6543">AssetDeclaration</text><line style="stroke: #A80036; stroke-width: 1.5;" x1="1825.25" x2="2041.25" y1="65.5" y2="65.5"/><line style="stroke: #A80036; stroke-width: 1.5;" x1="1825.25" x2="2041.25" y1="73.5" y2="73.5"/><ellipse cx="1835.25" cy="85.4023" fill="#84BE84" rx="3" ry="3" style="stroke: #038048; stroke-width: 1.0;"/><text fill="#000000" font-family="sans-serif" font-size="11" lengthAdjust="spacingAndGlyphs" textLength="192" x="1844.25" y="87.7104">void constructor(ModelFile,Object)</text><!--class EnumDeclaration--><rect fill="#FEFECE" filter="url(#f54xrlz)" height="60.8047" style="stroke: #A80036; stroke-width: 1.5;" width="218" x="2077.25" y="33.5"/><ellipse cx="2128.5" cy="49.5" fill="#ADD1B2" rx="11" ry="11" style="stroke: #A80036; stroke-width: 1.0;"/><path d="M2131.4688,55.1406 Q2130.8906,55.4375 2130.25,55.5859 Q2129.6094,55.7344 2128.9063,55.7344 Q2126.4063,55.7344 2125.0859,54.0859 Q2123.7656,52.4375 2123.7656,49.3125 Q2123.7656,46.1875 2125.0859,44.5313 Q2126.4063,42.875 2128.9063,42.875 Q2129.6094,42.875 2130.2578,43.0313 Q2130.9063,43.1875 2131.4688,43.4844 L2131.4688,46.2031 Q2130.8438,45.625 2130.25,45.3516 Q2129.6563,45.0781 2129.0313,45.0781 Q2127.6875,45.0781 2127,46.1484 Q2126.3125,47.2188 2126.3125,49.3125 Q2126.3125,51.4063 2127,52.4766 Q2127.6875,53.5469 2129.0313,53.5469 Q2129.6563,53.5469 2130.25,53.2734 Q2130.8438,53 2131.4688,52.4219 L2131.4688,55.1406 Z "/><text fill="#000000" font-family="sans-serif" font-size="12" lengthAdjust="spacingAndGlyphs" textLength="107" x="2149" y="53.6543">EnumDeclaration</text><line style="stroke: #A80036; stroke-width: 1.5;" x1="2078.25" x2="2294.25" y1="65.5" y2="65.5"/><line style="stroke: #A80036; stroke-width: 1.5;" x1="2078.25" x2="2294.25" y1="73.5" y2="73.5"/><ellipse cx="2088.25" cy="85.4023" fill="#84BE84" rx="3" ry="3" style="stroke: #038048; stroke-width: 1.0;"/><text fill="#000000" font-family="sans-serif" font-size="11" lengthAdjust="spacingAndGlyphs" textLength="192" x="2097.25" y="87.7104">void constructor(ModelFile,Object)</text><!--class ParticipantDeclaration--><rect fill="#FEFECE" filter="url(#f54xrlz)" height="60.8047" style="stroke: #A80036; stroke-width: 1.5;" width="218" x="2330.25" y="33.5"/><ellipse cx="2365.95" cy="49.5" fill="#ADD1B2" rx="11" ry="11" style="stroke: #A80036; stroke-width: 1.0;"/><path d="M2368.9188,55.1406 Q2368.3406,55.4375 2367.7,55.5859 Q2367.0594,55.7344 2366.3563,55.7344 Q2363.8563,55.7344 2362.5359,54.0859 Q2361.2156,52.4375 2361.2156,49.3125 Q2361.2156,46.1875 2362.5359,44.5313 Q2363.8563,42.875 2366.3563,42.875 Q2367.0594,42.875 2367.7078,43.0313 Q2368.3563,43.1875 2368.9188,43.4844 L2368.9188,46.2031 Q2368.2938,45.625 2367.7,45.3516 Q2367.1063,45.0781 2366.4813,45.0781 Q2365.1375,45.0781 2364.45,46.1484 Q2363.7625,47.2188 2363.7625,49.3125 Q2363.7625,51.4063 2364.45,52.4766 Q2365.1375,53.5469 2366.4813,53.5469 Q2367.1063,53.5469 2367.7,53.2734 Q2368.2938,53 2368.9188,52.4219 L2368.9188,55.1406 Z "/><text fill="#000000" font-family="sans-serif" font-size="12" lengthAdjust="spacingAndGlyphs" textLength="140" x="2384.55" y="53.6543">ParticipantDeclaration</text><line style="stroke: #A80036; stroke-width: 1.5;" x1="2331.25" x2="2547.25" y1="65.5" y2="65.5"/><line style="stroke: #A80036; stroke-width: 1.5;" x1="2331.25" x2="2547.25" y1="73.5" y2="73.5"/><ellipse cx="2341.25" cy="85.4023" fill="#84BE84" rx="3" ry="3" style="stroke: #038048; stroke-width: 1.0;"/><text fill="#000000" font-family="sans-serif" font-size="11" lengthAdjust="spacingAndGlyphs" textLength="192" x="2350.25" y="87.7104">void constructor(ModelFile,Object)</text><!--class TransactionDeclaration--><rect fill="#FEFECE" filter="url(#f54xrlz)" height="60.8047" style="stroke: #A80036; stroke-width: 1.5;" width="218" x="2583.25" y="33.5"/><ellipse cx="2616.25" cy="49.5" fill="#ADD1B2" rx="11" ry="11" style="stroke: #A80036; stroke-width: 1.0;"/><path d="M2619.2188,55.1406 Q2618.6406,55.4375 2618,55.5859 Q2617.3594,55.7344 2616.6563,55.7344 Q2614.1563,55.7344 2612.8359,54.0859 Q2611.5156,52.4375 2611.5156,49.3125 Q2611.5156,46.1875 2612.8359,44.5313 Q2614.1563,42.875 2616.6563,42.875 Q2617.3594,42.875 2618.0078,43.0313 Q2618.6563,43.1875 2619.2188,43.4844 L2619.2188,46.2031 Q2618.5938,45.625 2618,45.3516 Q2617.4063,45.0781 2616.7813,45.0781 Q2615.4375,45.0781 2614.75,46.1484 Q2614.0625,47.2188 2614.0625,49.3125 Q2614.0625,51.4063 2614.75,52.4766 Q2615.4375,53.5469 2616.7813,53.5469 Q2617.4063,53.5469 2618,53.2734 Q2618.5938,53 2619.2188,52.4219 L2619.2188,55.1406 Z "/><text fill="#000000" font-family="sans-serif" font-size="12" lengthAdjust="spacingAndGlyphs" textLength="146" x="2634.25" y="53.6543">TransactionDeclaration</text><line style="stroke: #A80036; stroke-width: 1.5;" x1="2584.25" x2="2800.25" y1="65.5" y2="65.5"/><line style="stroke: #A80036; stroke-width: 1.5;" x1="2584.25" x2="2800.25" y1="73.5" y2="73.5"/><ellipse cx="2594.25" cy="85.4023" fill="#84BE84" rx="3" ry="3" style="stroke: #038048; stroke-width: 1.0;"/><text fill="#000000" font-family="sans-serif" font-size="11" lengthAdjust="spacingAndGlyphs" textLength="192" x="2603.25" y="87.7104">void constructor(ModelFile,Object)</text><!--class FunctionDeclaration--><rect fill="#FEFECE" filter="url(#f54xrlz)" height="176.0469" style="stroke: #A80036; stroke-width: 1.5;" width="253" x="6" y="296"/><ellipse cx="65.25" cy="312" fill="#ADD1B2" rx="11" ry="11" style="stroke: #A80036; stroke-width: 1.0;"/><path d="M68.2188,317.6406 Q67.6406,317.9375 67,318.0859 Q66.3594,318.2344 65.6563,318.2344 Q63.1563,318.2344 61.8359,316.5859 Q60.5156,314.9375 60.5156,311.8125 Q60.5156,308.6875 61.8359,307.0313 Q63.1563,305.375 65.6563,305.375 Q66.3594,305.375 67.0078,305.5313 Q67.6563,305.6875 68.2188,305.9844 L68.2188,308.7031 Q67.5938,308.125 67,307.8516 Q66.4063,307.5781 65.7813,307.5781 Q64.4375,307.5781 63.75,308.6484 Q63.0625,309.7188 63.0625,311.8125 Q63.0625,313.9063 63.75,314.9766 Q64.4375,316.0469 65.7813,316.0469 Q66.4063,316.0469 67,315.7734 Q67.5938,315.5 68.2188,314.9219 L68.2188,317.6406 Z "/><text fill="#000000" font-family="sans-serif" font-size="12" lengthAdjust="spacingAndGlyphs" textLength="126" x="85.75" y="316.1543">FunctionDeclaration</text><line style="stroke: #A80036; stroke-width: 1.5;" x1="7" x2="258" y1="328" y2="328"/><line style="stroke: #A80036; stroke-width: 1.5;" x1="7" x2="258" y1="336" y2="336"/><ellipse cx="17" cy="347.9023" fill="#84BE84" rx="3" ry="3" style="stroke: #038048; stroke-width: 1.0;"/><text fill="#000000" font-family="sans-serif" font-size="11" lengthAdjust="spacingAndGlyphs" textLength="189" x="26" y="350.2104">void constructor(ModelFile,string)</text><rect fill="#F24D5C" height="6" style="stroke: #C82930; stroke-width: 1.0;" width="6" x="14" y="357.707"/><text fill="#000000" font-family="sans-serif" font-size="11" lengthAdjust="spacingAndGlyphs" textLength="161" x="26" y="363.0151">Object accept(Object,Object)</text><ellipse cx="17" cy="373.5117" fill="#84BE84" rx="3" ry="3" style="stroke: #038048; stroke-width: 1.0;"/><text fill="#000000" font-family="sans-serif" font-size="11" lengthAdjust="spacingAndGlyphs" textLength="134" x="26" y="375.8198">ModelFile getModelFile()</text><ellipse cx="17" cy="386.3164" fill="#84BE84" rx="3" ry="3" style="stroke: #038048; stroke-width: 1.0;"/><text fill="#000000" font-family="sans-serif" font-size="11" lengthAdjust="spacingAndGlyphs" textLength="134" x="26" y="388.6245">string getFunctionText()</text><rect fill="#F24D5C" height="6" style="stroke: #C82930; stroke-width: 1.0;" width="6" x="14" y="396.1211"/><text fill="#000000" font-family="sans-serif" font-size="11" lengthAdjust="spacingAndGlyphs" textLength="81" x="26" y="401.4292">void process()</text><rect fill="#F24D5C" height="6" style="stroke: #C82930; stroke-width: 1.0;" width="6" x="14" y="408.9258"/><text fill="#000000" font-family="sans-serif" font-size="11" lengthAdjust="spacingAndGlyphs" textLength="79" x="26" y="414.2339">void validate()</text><ellipse cx="17" cy="424.7305" fill="#84BE84" rx="3" ry="3" style="stroke: #038048; stroke-width: 1.0;"/><text fill="#000000" font-family="sans-serif" font-size="11" lengthAdjust="spacingAndGlyphs" textLength="96" x="26" y="427.0386">string getName()</text><ellipse cx="17" cy="437.5352" fill="#84BE84" rx="3" ry="3" style="stroke: #038048; stroke-width: 1.0;"/><text fill="#000000" font-family="sans-serif" font-size="11" lengthAdjust="spacingAndGlyphs" textLength="227" x="26" y="439.8433">string getTransactionDeclarationName()</text><ellipse cx="17" cy="450.3398" fill="#84BE84" rx="3" ry="3" style="stroke: #038048; stroke-width: 1.0;"/><text fill="#000000" font-family="sans-serif" font-size="11" lengthAdjust="spacingAndGlyphs" textLength="138" x="26" y="452.6479">string[] getParameters()</text><ellipse cx="17" cy="463.1445" fill="#84BE84" rx="3" ry="3" style="stroke: #038048; stroke-width: 1.0;"/><text fill="#000000" font-family="sans-serif" font-size="11" lengthAdjust="spacingAndGlyphs" textLength="171" x="26" y="465.4526">string getFullyQualifiedName()</text><!--class ParseException--><rect fill="#FEFECE" filter="url(#f54xrlz)" height="60.8047" style="stroke: #A80036; stroke-width: 1.5;" width="159" x="1630" y="33.5"/><ellipse cx="1658.5" cy="49.5" fill="#ADD1B2" rx="11" ry="11" style="stroke: #A80036; stroke-width: 1.0;"/><path d="M1661.4688,55.1406 Q1660.8906,55.4375 1660.25,55.5859 Q1659.6094,55.7344 1658.9063,55.7344 Q1656.4063,55.7344 1655.0859,54.0859 Q1653.7656,52.4375 1653.7656,49.3125 Q1653.7656,46.1875 1655.0859,44.5313 Q1656.4063,42.875 1658.9063,42.875 Q1659.6094,42.875 1660.2578,43.0313 Q1660.9063,43.1875 1661.4688,43.4844 L1661.4688,46.2031 Q1660.8438,45.625 1660.25,45.3516 Q1659.6563,45.0781 1659.0313,45.0781 Q1657.6875,45.0781 1657,46.1484 Q1656.3125,47.2188 1656.3125,49.3125 Q1656.3125,51.4063 1657,52.4766 Q1657.6875,53.5469 1659.0313,53.5469 Q1659.6563,53.5469 1660.25,53.2734 Q1660.8438,53 1661.4688,52.4219 L1661.4688,55.1406 Z "/><text fill="#000000" font-family="sans-serif" font-size="12" lengthAdjust="spacingAndGlyphs" textLength="97" x="1675.5" y="53.6543">ParseException</text><line style="stroke: #A80036; stroke-width: 1.5;" x1="1631" x2="1788" y1="65.5" y2="65.5"/><line style="stroke: #A80036; stroke-width: 1.5;" x1="1631" x2="1788" y1="73.5" y2="73.5"/><ellipse cx="1641" cy="85.4023" fill="#84BE84" rx="3" ry="3" style="stroke: #038048; stroke-width: 1.0;"/><text fill="#000000" font-family="sans-serif" font-size="11" lengthAdjust="spacingAndGlyphs" textLength="133" x="1650" y="87.7104">void constructor(string)</text><!--class ModelFile--><rect fill="#FEFECE" filter="url(#f54xrlz)" height="406.5313" style="stroke: #A80036; stroke-width: 1.5;" width="351" x="294" y="180.5"/><ellipse cx="436.25" cy="196.5" fill="#ADD1B2" rx="11" ry="11" style="stroke: #A80036; stroke-width: 1.0;"/><path d="M439.2188,202.1406 Q438.6406,202.4375 438,202.5859 Q437.3594,202.7344 436.6563,202.7344 Q434.1563,202.7344 432.8359,201.0859 Q431.5156,199.4375 431.5156,196.3125 Q431.5156,193.1875 432.8359,191.5313 Q434.1563,189.875 436.6563,189.875 Q437.3594,189.875 438.0078,190.0313 Q438.6563,190.1875 439.2188,190.4844 L439.2188,193.2031 Q438.5938,192.625 438,192.3516 Q437.4063,192.0781 436.7813,192.0781 Q435.4375,192.0781 434.75,193.1484 Q434.0625,194.2188 434.0625,196.3125 Q434.0625,198.4063 434.75,199.4766 Q435.4375,200.5469 436.7813,200.5469 Q437.4063,200.5469 438,200.2734 Q438.5938,200 439.2188,199.4219 L439.2188,202.1406 Z "/><text fill="#000000" font-family="sans-serif" font-size="12" lengthAdjust="spacingAndGlyphs" textLength="58" x="456.75" y="200.6543">ModelFile</text><line style="stroke: #A80036; stroke-width: 1.5;" x1="295" x2="644" y1="212.5" y2="212.5"/><line style="stroke: #A80036; stroke-width: 1.5;" x1="295" x2="644" y1="220.5" y2="220.5"/><ellipse cx="305" cy="232.4023" fill="#84BE84" rx="3" ry="3" style="stroke: #038048; stroke-width: 1.0;"/><text fill="#000000" font-family="sans-serif" font-size="11" lengthAdjust="spacingAndGlyphs" textLength="238" x="314" y="234.7104">ModelFile fromJSON(ModelManager,string)</text><ellipse cx="305" cy="245.207" fill="#84BE84" rx="3" ry="3" style="stroke: #038048; stroke-width: 1.0;"/><text fill="#000000" font-family="sans-serif" font-size="11" lengthAdjust="spacingAndGlyphs" textLength="293" x="314" y="247.5151">void constructor(ModelManager,string,string,string)</text><rect fill="#F24D5C" height="6" style="stroke: #C82930; stroke-width: 1.0;" width="6" x="302" y="255.0117"/><text fill="#000000" font-family="sans-serif" font-size="11" lengthAdjust="spacingAndGlyphs" textLength="161" x="314" y="260.3198">Object accept(Object,Object)</text><ellipse cx="305" cy="270.8164" fill="#84BE84" rx="3" ry="3" style="stroke: #038048; stroke-width: 1.0;"/><text fill="#000000" font-family="sans-serif" font-size="11" lengthAdjust="spacingAndGlyphs" textLength="194" x="314" y="273.1245">ModelManager getModelManager()</text><ellipse cx="305" cy="283.6211" fill="#84BE84" rx="3" ry="3" style="stroke: #038048; stroke-width: 1.0;"/><text fill="#000000" font-family="sans-serif" font-size="11" lengthAdjust="spacingAndGlyphs" textLength="115" x="314" y="285.9292">string[] getImports()</text><ellipse cx="305" cy="296.4258" fill="#84BE84" rx="3" ry="3" style="stroke: #038048; stroke-width: 1.0;"/><text fill="#000000" font-family="sans-serif" font-size="11" lengthAdjust="spacingAndGlyphs" textLength="203" x="314" y="298.7339">FunctionDeclaration[] getFunctions()</text><rect fill="#F24D5C" height="6" style="stroke: #C82930; stroke-width: 1.0;" width="6" x="302" y="306.2305"/><text fill="#000000" font-family="sans-serif" font-size="11" lengthAdjust="spacingAndGlyphs" textLength="79" x="314" y="311.5386">void validate()</text><rect fill="#F24D5C" height="6" style="stroke: #C82930; stroke-width: 1.0;" width="6" x="302" y="319.0352"/><text fill="#000000" font-family="sans-serif" font-size="11" lengthAdjust="spacingAndGlyphs" textLength="174" x="314" y="324.3433">void resolveType(string,string)</text><rect fill="#F24D5C" height="6" style="stroke: #C82930; stroke-width: 1.0;" width="6" x="302" y="331.8398"/><text fill="#000000" font-family="sans-serif" font-size="11" lengthAdjust="spacingAndGlyphs" textLength="156" x="314" y="337.1479">boolean isLocalType(string)</text><rect fill="#F24D5C" height="6" style="stroke: #C82930; stroke-width: 1.0;" width="6" x="302" y="344.6445"/><text fill="#000000" font-family="sans-serif" font-size="11" lengthAdjust="spacingAndGlyphs" textLength="178" x="314" y="349.9526">boolean isImportedType(string)</text><rect fill="#F24D5C" height="6" style="stroke: #C82930; stroke-width: 1.0;" width="6" x="302" y="357.4492"/><text fill="#000000" font-family="sans-serif" font-size="11" lengthAdjust="spacingAndGlyphs" textLength="157" x="314" y="362.7573">string resolveImport(string)</text><ellipse cx="305" cy="373.2539" fill="#84BE84" rx="3" ry="3" style="stroke: #038048; stroke-width: 1.0;"/><text fill="#000000" font-family="sans-serif" font-size="11" lengthAdjust="spacingAndGlyphs" textLength="143" x="314" y="375.562">boolean isDefined(string)</text><rect fill="#F24D5C" height="6" style="stroke: #C82930; stroke-width: 1.0;" width="6" x="302" y="383.0586"/><text fill="#000000" font-family="sans-serif" font-size="11" lengthAdjust="spacingAndGlyphs" textLength="231" x="314" y="388.3667">string | ClassDeclaration getType(string)</text><ellipse cx="305" cy="398.8633" fill="#84BE84" rx="3" ry="3" style="stroke: #038048; stroke-width: 1.0;"/><text fill="#000000" font-family="sans-serif" font-size="11" lengthAdjust="spacingAndGlyphs" textLength="215" x="314" y="401.1714">ClassDeclaration getLocalType(string)</text><ellipse cx="305" cy="411.668" fill="#84BE84" rx="3" ry="3" style="stroke: #038048; stroke-width: 1.0;"/><text fill="#000000" font-family="sans-serif" font-size="11" lengthAdjust="spacingAndGlyphs" textLength="255" x="314" y="413.9761">AssetDeclaration getAssetDeclaration(string)</text><ellipse cx="305" cy="424.4727" fill="#84BE84" rx="3" ry="3" style="stroke: #038048; stroke-width: 1.0;"/><text fill="#000000" font-family="sans-serif" font-size="11" lengthAdjust="spacingAndGlyphs" textLength="325" x="314" y="426.7808">TransactionDeclaration getTransactionDeclaration(string)</text><ellipse cx="305" cy="437.2773" fill="#84BE84" rx="3" ry="3" style="stroke: #038048; stroke-width: 1.0;"/><text fill="#000000" font-family="sans-serif" font-size="11" lengthAdjust="spacingAndGlyphs" textLength="311" x="314" y="439.5854">ParticipantDeclaration getParticipantDeclaration(string)</text><ellipse cx="305" cy="450.082" fill="#84BE84" rx="3" ry="3" style="stroke: #038048; stroke-width: 1.0;"/><text fill="#000000" font-family="sans-serif" font-size="11" lengthAdjust="spacingAndGlyphs" textLength="130" x="314" y="452.3901">string getNamespace()</text><ellipse cx="305" cy="462.8867" fill="#84BE84" rx="3" ry="3" style="stroke: #038048; stroke-width: 1.0;"/><text fill="#000000" font-family="sans-serif" font-size="11" lengthAdjust="spacingAndGlyphs" textLength="237" x="314" y="465.1948">AssetDeclaration[] getAssetDeclarations()</text><ellipse cx="305" cy="475.6914" fill="#84BE84" rx="3" ry="3" style="stroke: #038048; stroke-width: 1.0;"/><text fill="#000000" font-family="sans-serif" font-size="11" lengthAdjust="spacingAndGlyphs" textLength="307" x="314" y="477.9995">TransactionDeclaration[] getTransactionDeclarations()</text><ellipse cx="305" cy="488.4961" fill="#84BE84" rx="3" ry="3" style="stroke: #038048; stroke-width: 1.0;"/><text fill="#000000" font-family="sans-serif" font-size="11" lengthAdjust="spacingAndGlyphs" textLength="293" x="314" y="490.8042">ParticipantDeclaration[] getParticipantDeclarations()</text><ellipse cx="305" cy="501.3008" fill="#84BE84" rx="3" ry="3" style="stroke: #038048; stroke-width: 1.0;"/><text fill="#000000" font-family="sans-serif" font-size="11" lengthAdjust="spacingAndGlyphs" textLength="252" x="314" y="503.6089">ClassDeclaration[] getDeclarations(Function)</text><ellipse cx="305" cy="514.1055" fill="#84BE84" rx="3" ry="3" style="stroke: #038048; stroke-width: 1.0;"/><text fill="#000000" font-family="sans-serif" font-size="11" lengthAdjust="spacingAndGlyphs" textLength="218" x="314" y="516.4136">ClassDeclaration[] getAllDeclarations()</text><ellipse cx="305" cy="526.9102" fill="#84BE84" rx="3" ry="3" style="stroke: #038048; stroke-width: 1.0;"/><text fill="#000000" font-family="sans-serif" font-size="11" lengthAdjust="spacingAndGlyphs" textLength="113" x="314" y="529.2183">string getIdentifier()</text><ellipse cx="305" cy="539.7148" fill="#84BE84" rx="3" ry="3" style="stroke: #038048; stroke-width: 1.0;"/><text fill="#000000" font-family="sans-serif" font-size="11" lengthAdjust="spacingAndGlyphs" textLength="96" x="314" y="542.0229">string getName()</text><ellipse cx="305" cy="552.5195" fill="#84BE84" rx="3" ry="3" style="stroke: #038048; stroke-width: 1.0;"/><text fill="#000000" font-family="sans-serif" font-size="11" lengthAdjust="spacingAndGlyphs" textLength="123" x="314" y="554.8276">string getDefinitions()</text><ellipse cx="305" cy="565.3242" fill="#84BE84" rx="3" ry="3" style="stroke: #038048; stroke-width: 1.0;"/><text fill="#000000" font-family="sans-serif" font-size="11" lengthAdjust="spacingAndGlyphs" textLength="87" x="314" y="567.6323">Object toJSON()</text><ellipse cx="305" cy="578.1289" fill="#84BE84" rx="3" ry="3" style="stroke: #038048; stroke-width: 1.0;"/><text fill="#000000" font-family="sans-serif" font-size="11" lengthAdjust="spacingAndGlyphs" textLength="118" x="314" y="580.437">string toJSONString()</text><!--class ModelManager--><rect fill="#FEFECE" filter="url(#f54xrlz)" height="163.2422" style="stroke: #A80036; stroke-width: 1.5;" width="241" x="680" y="302.5"/><ellipse cx="750.25" cy="318.5" fill="#ADD1B2" rx="11" ry="11" style="stroke: #A80036; stroke-width: 1.0;"/><path d="M753.2188,324.1406 Q752.6406,324.4375 752,324.5859 Q751.3594,324.7344 750.6563,324.7344 Q748.1563,324.7344 746.8359,323.0859 Q745.5156,321.4375 745.5156,318.3125 Q745.5156,315.1875 746.8359,313.5313 Q748.1563,311.875 750.6563,311.875 Q751.3594,311.875 752.0078,312.0313 Q752.6563,312.1875 753.2188,312.4844 L753.2188,315.2031 Q752.5938,314.625 752,314.3516 Q751.4063,314.0781 750.7813,314.0781 Q749.4375,314.0781 748.75,315.1484 Q748.0625,316.2188 748.0625,318.3125 Q748.0625,320.4063 748.75,321.4766 Q749.4375,322.5469 750.7813,322.5469 Q751.4063,322.5469 752,322.2734 Q752.5938,322 753.2188,321.4219 L753.2188,324.1406 Z "/><text fill="#000000" font-family="sans-serif" font-size="12" lengthAdjust="spacingAndGlyphs" textLength="92" x="770.75" y="322.6543">ModelManager</text><line style="stroke: #A80036; stroke-width: 1.5;" x1="681" x2="920" y1="334.5" y2="334.5"/><line style="stroke: #A80036; stroke-width: 1.5;" x1="681" x2="920" y1="342.5" y2="342.5"/><ellipse cx="691" cy="354.4023" fill="#84BE84" rx="3" ry="3" style="stroke: #038048; stroke-width: 1.0;"/><text fill="#000000" font-family="sans-serif" font-size="11" lengthAdjust="spacingAndGlyphs" textLength="100" x="700" y="356.7104">void constructor()</text><rect fill="#F24D5C" height="6" style="stroke: #C82930; stroke-width: 1.0;" width="6" x="688" y="364.207"/><text fill="#000000" font-family="sans-serif" font-size="11" lengthAdjust="spacingAndGlyphs" textLength="161" x="700" y="369.5151">Object accept(Object,Object)</text><ellipse cx="691" cy="380.0117" fill="#84BE84" rx="3" ry="3" style="stroke: #038048; stroke-width: 1.0;"/><text fill="#000000" font-family="sans-serif" font-size="11" lengthAdjust="spacingAndGlyphs" textLength="215" x="700" y="382.3198">void addModelFile(string,string,string)</text><ellipse cx="691" cy="392.8164" fill="#84BE84" rx="3" ry="3" style="stroke: #038048; stroke-width: 1.0;"/><text fill="#000000" font-family="sans-serif" font-size="11" lengthAdjust="spacingAndGlyphs" textLength="175" x="700" y="395.1245">void addModelFiles(ModelFile[])</text><ellipse cx="691" cy="405.6211" fill="#84BE84" rx="3" ry="3" style="stroke: #038048; stroke-width: 1.0;"/><text fill="#000000" font-family="sans-serif" font-size="11" lengthAdjust="spacingAndGlyphs" textLength="149" x="700" y="407.9292">ModelFile[] getModelFiles()</text><rect fill="#F24D5C" height="6" style="stroke: #C82930; stroke-width: 1.0;" width="6" x="688" y="415.4258"/><text fill="#000000" font-family="sans-serif" font-size="11" lengthAdjust="spacingAndGlyphs" textLength="184" x="700" y="420.7339">string resolveType(string,string)</text><ellipse cx="691" cy="431.2305" fill="#84BE84" rx="3" ry="3" style="stroke: #038048; stroke-width: 1.0;"/><text fill="#000000" font-family="sans-serif" font-size="11" lengthAdjust="spacingAndGlyphs" textLength="122" x="700" y="433.5386">void clearModelFiles()</text><ellipse cx="691" cy="444.0352" fill="#84BE84" rx="3" ry="3" style="stroke: #038048; stroke-width: 1.0;"/><text fill="#000000" font-family="sans-serif" font-size="11" lengthAdjust="spacingAndGlyphs" textLength="167" x="700" y="446.3433">ModelFile getModelFile(string)</text><ellipse cx="691" cy="456.8398" fill="#84BE84" rx="3" ry="3" style="stroke: #038048; stroke-width: 1.0;"/><text fill="#000000" font-family="sans-serif" font-size="11" lengthAdjust="spacingAndGlyphs" textLength="186" x="700" y="459.1479">ClassDeclaration getType(string)</text><path d="M889.647,120.143 C905.594,138.616 922.812,159.689 937.25,180 C962.156,215.035 986.692,255.565 1006.95,291.154 " fill="none" style="stroke: #A80036; stroke-width: 1.0;"/><polygon fill="none" points="1013.13,287.856,1016.84,308.718,1000.93,294.722,1013.13,287.856" style="stroke: #A80036; stroke-width: 1.0;"/><path d="M1056.25,101.169 C1056.25,146.46 1056.25,225.749 1056.25,288.713 " fill="none" style="stroke: #A80036; stroke-width: 1.0;"/><polygon fill="none" points="1063.25,288.942,1056.25,308.942,1049.25,288.942,1063.25,288.942" style="stroke: #A80036; stroke-width: 1.0;"/><path d="M1520.47,94.631 C1538.11,151.273 1576.65,275.088 1597.03,340.523 " fill="none" style="stroke: #A80036; stroke-width: 1.0;"/><polygon fill="none" points="1603.81,338.749,1603.07,359.926,1590.44,342.911,1603.81,338.749" style="stroke: #A80036; stroke-width: 1.0;"/><path d="M1265.41,101.169 C1231.07,147.443 1170.39,229.205 1123.2,292.787 " fill="none" style="stroke: #A80036; stroke-width: 1.0;"/><polygon fill="none" points="1128.75,297.054,1111.21,308.942,1117.51,288.71,1128.75,297.054" style="stroke: #A80036; stroke-width: 1.0;"/><path d="M1968.57,94.631 C2018.51,136.535 2112.27,215.205 2189.25,279.801 " fill="none" style="stroke: #A80036; stroke-width: 1.0;"/><polygon fill="none" points="2194.09,274.717,2204.91,292.935,2185.09,285.442,2194.09,274.717" style="stroke: #A80036; stroke-width: 1.0;"/><path d="M2197.99,94.631 C2212.77,131.929 2239.09,198.352 2262.74,258.055 " fill="none" style="stroke: #A80036; stroke-width: 1.0;"/><polygon fill="none" points="2269.29,255.569,2270.15,276.741,2256.27,260.726,2269.29,255.569" style="stroke: #A80036; stroke-width: 1.0;"/><path d="M2427.42,94.631 C2412.52,131.929 2385.99,198.352 2362.15,258.055 " fill="none" style="stroke: #A80036; stroke-width: 1.0;"/><polygon fill="none" points="2368.61,260.764,2354.69,276.741,2355.6,255.572,2368.61,260.764" style="stroke: #A80036; stroke-width: 1.0;"/><path d="M2656.84,94.631 C2606.77,136.535 2512.76,215.205 2435.57,279.801 " fill="none" style="stroke: #A80036; stroke-width: 1.0;"/><polygon fill="none" points="2439.71,285.468,2419.88,292.935,2430.72,274.731,2439.71,285.468" style="stroke: #A80036; stroke-width: 1.0;"/><path d="M1700.03,94.631 C1682.39,151.273 1643.85,275.088 1623.47,340.523 " fill="none" style="stroke: #A80036; stroke-width: 1.0;"/><polygon fill="none" points="1630.06,342.911,1617.43,359.926,1616.69,338.749,1630.06,342.911" style="stroke: #A80036; stroke-width: 1.0;"/></g></svg>