<?xml version="1.0" encoding="UTF-8" standalone="no"?><svg xmlns="http://www.w3.org/2000/svg" xmlns:xlink="http://www.w3.org/1999/xlink" contentScriptType="application/ecmascript" contentStyleType="text/css" height="129px" preserveAspectRatio="none" style="width:446px;height:129px;" version="1.1" viewBox="0 0 446 129" width="446px" zoomAndPan="magnify"><defs><filter height="300%" id="fpvkmjs" width="300%" x="-1" y="-1"><feGaussianBlur result="blurOut" stdDeviation="2.0"/><feColorMatrix in="blurOut" result="blurOut2" type="matrix" values="0 0 0 0 0 0 0 0 0 0 0 0 0 0 0 0 0 0 .4 0"/><feOffset dx="4.0" dy="4.0" in="blurOut2" result="blurOut3"/><feBlend in="SourceGraphic" in2="blurOut3" mode="normal"/></filter></defs><g><!--class globalize--><rect fill="#FEFECE" filter="url(#fpvkmjs)" height="48" style="stroke: #A80036; stroke-width: 1.5;" width="86" x="6" y="40"/><ellipse cx="21" cy="56" fill="#DA70D6" rx="11" ry="11" style="stroke: #A80036; stroke-width: 1.0;"/><path d="M20.7969,51.6719 L20.7969,55.2969 L21.7969,55.2969 Q23,55.2969 23.4844,54.8906 Q23.9688,54.4844 23.9688,53.4844 Q23.9688,52.4844 23.4844,52.0781 Q23,51.6719 21.7969,51.6719 L20.7969,51.6719 Z M18.3438,49.6094 L21.7031,49.6094 Q24.2656,49.6094 25.3906,50.5234 Q26.5156,51.4375 26.5156,53.4844 Q26.5156,55.5313 25.3906,56.4453 Q24.2656,57.3594 21.7031,57.3594 L20.7969,57.3594 L20.7969,62 L18.3438,62 L18.3438,49.6094 Z "/><text fill="#000000" font-family="sans-serif" font-size="12" lengthAdjust="spacingAndGlyphs" textLength="54" x="35" y="60.1543">globalize</text><line style="stroke: #A80036; stroke-width: 1.5;" x1="7" x2="91" y1="72" y2="72"/><line style="stroke: #A80036; stroke-width: 1.5;" x1="7" x2="91" y1="80" y2="80"/><!--class ModelUtil--><rect fill="#FEFECE" filter="url(#fpvkmjs)" height="112.0234" style="stroke: #A80036; stroke-width: 1.5;" width="310" x="127" y="8"/><ellipse cx="249.25" cy="24" fill="#ADD1B2" rx="11" ry="11" style="stroke: #A80036; stroke-width: 1.0;"/><path d="M252.2188,29.6406 Q251.6406,29.9375 251,30.0859 Q250.3594,30.2344 249.6563,30.2344 Q247.1563,30.2344 245.8359,28.5859 Q244.5156,26.9375 244.5156,23.8125 Q244.5156,20.6875 245.8359,19.0313 Q247.1563,17.375 249.6563,17.375 Q250.3594,17.375 251.0078,17.5313 Q251.6563,17.6875 252.2188,17.9844 L252.2188,20.7031 Q251.5938,20.125 251,19.8516 Q250.4063,19.5781 249.7813,19.5781 Q248.4375,19.5781 247.75,20.6484 Q247.0625,21.7188 247.0625,23.8125 Q247.0625,25.9063 247.75,26.9766 Q248.4375,28.0469 249.7813,28.0469 Q250.4063,28.0469 251,27.7734 Q251.5938,27.5 252.2188,26.9219 L252.2188,29.6406 Z "/><text fill="#000000" font-family="sans-serif" font-size="12" lengthAdjust="spacingAndGlyphs" textLength="57" x="269.75" y="28.1543">ModelUtil</text><line style="stroke: #A80036; stroke-width: 1.5;" x1="128" x2="436" y1="40" y2="40"/><line style="stroke: #A80036; stroke-width: 1.5;" x1="128" x2="436" y1="48" y2="48"/><rect fill="#F24D5C" height="6" style="stroke: #C82930; stroke-width: 1.0;" width="6" x="135" y="56.9023"/><text fill="#000000" font-family="sans-serif" font-size="11" lengthAdjust="spacingAndGlyphs" textLength="160" x="147" y="62.2104">string getShortName(string)</text><rect fill="#F24D5C" height="6" style="stroke: #C82930; stroke-width: 1.0;" width="6" x="135" y="69.707"/><text fill="#000000" font-family="sans-serif" font-size="11" lengthAdjust="spacingAndGlyphs" textLength="163" x="147" y="75.0151">string getNamespace(string)</text><rect fill="#F24D5C" height="6" style="stroke: #C82930; stroke-width: 1.0;" width="6" x="135" y="82.5117"/><text fill="#000000" font-family="sans-serif" font-size="11" lengthAdjust="spacingAndGlyphs" textLength="176" x="147" y="87.8198">boolean isPrimitiveType(string)</text><rect fill="#F24D5C" height="6" style="stroke: #C82930; stroke-width: 1.0;" width="6" x="135" y="95.3164"/><text fill="#000000" font-family="sans-serif" font-size="11" lengthAdjust="spacingAndGlyphs" textLength="284" x="147" y="100.6245">boolean isAssignableTo(ModelFile,string,Property)</text><rect fill="#F24D5C" height="6" style="stroke: #C82930; stroke-width: 1.0;" width="6" x="135" y="108.1211"/><text fill="#000000" font-family="sans-serif" font-size="11" lengthAdjust="spacingAndGlyphs" textLength="188" x="147" y="113.4292">string capitalizeFirstLetter(string)</text></g></svg>