<?xml version="1.0" encoding="UTF-8" standalone="no"?><svg xmlns="http://www.w3.org/2000/svg" xmlns:xlink="http://www.w3.org/1999/xlink" contentScriptType="application/ecmascript" contentStyleType="text/css" height="301px" preserveAspectRatio="none" style="width:417px;height:301px;" version="1.1" viewBox="0 0 417 301" width="417px" zoomAndPan="magnify"><defs><filter height="300%" id="f866vc9" width="300%" x="-1" y="-1"><feGaussianBlur result="blurOut" stdDeviation="2.0"/><feColorMatrix in="blurOut" result="blurOut2" type="matrix" values="0 0 0 0 0 0 0 0 0 0 0 0 0 0 0 0 0 0 .4 0"/><feOffset dx="4.0" dy="4.0" in="blurOut2" result="blurOut3"/><feBlend in="SourceGraphic" in2="blurOut3" mode="normal"/></filter></defs><g><!--class Property--><rect fill="#FEFECE" filter="url(#f866vc9)" height="150.4375" style="stroke: #A80036; stroke-width: 1.5;" width="201" x="6" y="142"/><ellipse cx="75.75" cy="158" fill="#ADD1B2" rx="11" ry="11" style="stroke: #A80036; stroke-width: 1.0;"/><path d="M78.7188,163.6406 Q78.1406,163.9375 77.5,164.0859 Q76.8594,164.2344 76.1563,164.2344 Q73.6563,164.2344 72.3359,162.5859 Q71.0156,160.9375 71.0156,157.8125 Q71.0156,154.6875 72.3359,153.0313 Q73.6563,151.375 76.1563,151.375 Q76.8594,151.375 77.5078,151.5313 Q78.1563,151.6875 78.7188,151.9844 L78.7188,154.7031 Q78.0938,154.125 77.5,153.8516 Q76.9063,153.5781 76.2813,153.5781 Q74.9375,153.5781 74.25,154.6484 Q73.5625,155.7188 73.5625,157.8125 Q73.5625,159.9063 74.25,160.9766 Q74.9375,162.0469 76.2813,162.0469 Q76.9063,162.0469 77.5,161.7734 Q78.0938,161.5 78.7188,160.9219 L78.7188,163.6406 Z "/><text fill="#000000" font-family="sans-serif" font-size="12" lengthAdjust="spacingAndGlyphs" textLength="53" x="96.25" y="162.1543">Property</text><line style="stroke: #A80036; stroke-width: 1.5;" x1="7" x2="206" y1="174" y2="174"/><line style="stroke: #A80036; stroke-width: 1.5;" x1="7" x2="206" y1="182" y2="182"/><ellipse cx="17" cy="193.9023" fill="#84BE84" rx="3" ry="3" style="stroke: #038048; stroke-width: 1.0;"/><text fill="#000000" font-family="sans-serif" font-size="11" lengthAdjust="spacingAndGlyphs" textLength="136" x="26" y="196.2104">void constructor(Object)</text><rect fill="#F24D5C" height="6" style="stroke: #C82930; stroke-width: 1.0;" width="6" x="14" y="203.707"/><text fill="#000000" font-family="sans-serif" font-size="11" lengthAdjust="spacingAndGlyphs" textLength="161" x="26" y="209.0151">Object accept(Object,Object)</text><rect fill="#F24D5C" height="6" style="stroke: #C82930; stroke-width: 1.0;" width="6" x="14" y="216.5117"/><text fill="#000000" font-family="sans-serif" font-size="11" lengthAdjust="spacingAndGlyphs" textLength="81" x="26" y="221.8198">void process()</text><rect fill="#F24D5C" height="6" style="stroke: #C82930; stroke-width: 1.0;" width="6" x="14" y="229.3164"/><text fill="#000000" font-family="sans-serif" font-size="11" lengthAdjust="spacingAndGlyphs" textLength="175" x="26" y="234.6245">void validate(ClassDeclaration)</text><ellipse cx="17" cy="245.1211" fill="#84BE84" rx="3" ry="3" style="stroke: #038048; stroke-width: 1.0;"/><text fill="#000000" font-family="sans-serif" font-size="11" lengthAdjust="spacingAndGlyphs" textLength="96" x="26" y="247.4292">string getName()</text><ellipse cx="17" cy="257.9258" fill="#84BE84" rx="3" ry="3" style="stroke: #038048; stroke-width: 1.0;"/><text fill="#000000" font-family="sans-serif" font-size="11" lengthAdjust="spacingAndGlyphs" textLength="90" x="26" y="260.2339">string getType()</text><ellipse cx="17" cy="270.7305" fill="#84BE84" rx="3" ry="3" style="stroke: #038048; stroke-width: 1.0;"/><text fill="#000000" font-family="sans-serif" font-size="11" lengthAdjust="spacingAndGlyphs" textLength="97" x="26" y="273.0386">boolean isArray()</text><ellipse cx="17" cy="283.5352" fill="#84BE84" rx="3" ry="3" style="stroke: #038048; stroke-width: 1.0;"/><text fill="#000000" font-family="sans-serif" font-size="11" lengthAdjust="spacingAndGlyphs" textLength="99" x="26" y="285.8433">boolean isEnum()</text><!--class IllegalModelException--><rect fill="#FEFECE" filter="url(#f866vc9)" height="60.8047" style="stroke: #A80036; stroke-width: 1.5;" width="166" x="242.25" y="14.5"/><ellipse cx="257.25" cy="30.5" fill="#ADD1B2" rx="11" ry="11" style="stroke: #A80036; stroke-width: 1.0;"/><path d="M260.2188,36.1406 Q259.6406,36.4375 259,36.5859 Q258.3594,36.7344 257.6563,36.7344 Q255.1563,36.7344 253.8359,35.0859 Q252.5156,33.4375 252.5156,30.3125 Q252.5156,27.1875 253.8359,25.5313 Q255.1563,23.875 257.6563,23.875 Q258.3594,23.875 259.0078,24.0313 Q259.6563,24.1875 260.2188,24.4844 L260.2188,27.2031 Q259.5938,26.625 259,26.3516 Q258.4063,26.0781 257.7813,26.0781 Q256.4375,26.0781 255.75,27.1484 Q255.0625,28.2188 255.0625,30.3125 Q255.0625,32.4063 255.75,33.4766 Q256.4375,34.5469 257.7813,34.5469 Q258.4063,34.5469 259,34.2734 Q259.5938,34 260.2188,33.4219 L260.2188,36.1406 Z "/><text fill="#000000" font-family="sans-serif" font-size="12" lengthAdjust="spacingAndGlyphs" textLength="134" x="271.25" y="34.6543">IllegalModelException</text><line style="stroke: #A80036; stroke-width: 1.5;" x1="243.25" x2="407.25" y1="46.5" y2="46.5"/><line style="stroke: #A80036; stroke-width: 1.5;" x1="243.25" x2="407.25" y1="54.5" y2="54.5"/><ellipse cx="253.25" cy="66.4023" fill="#84BE84" rx="3" ry="3" style="stroke: #038048; stroke-width: 1.0;"/><text fill="#000000" font-family="sans-serif" font-size="11" lengthAdjust="spacingAndGlyphs" textLength="133" x="262.25" y="68.7104">void constructor(string)</text><!--class BaseException--><rect fill="#FEFECE" filter="url(#f866vc9)" height="48" style="stroke: #A80036; stroke-width: 1.5;" width="124" x="263.75" y="193"/><ellipse cx="278.75" cy="209" fill="#ADD1B2" rx="11" ry="11" style="stroke: #A80036; stroke-width: 1.0;"/><path d="M281.7188,214.6406 Q281.1406,214.9375 280.5,215.0859 Q279.8594,215.2344 279.1563,215.2344 Q276.6563,215.2344 275.3359,213.5859 Q274.0156,211.9375 274.0156,208.8125 Q274.0156,205.6875 275.3359,204.0313 Q276.6563,202.375 279.1563,202.375 Q279.8594,202.375 280.5078,202.5313 Q281.1563,202.6875 281.7188,202.9844 L281.7188,205.7031 Q281.0938,205.125 280.5,204.8516 Q279.9063,204.5781 279.2813,204.5781 Q277.9375,204.5781 277.25,205.6484 Q276.5625,206.7188 276.5625,208.8125 Q276.5625,210.9063 277.25,211.9766 Q277.9375,213.0469 279.2813,213.0469 Q279.9063,213.0469 280.5,212.7734 Q281.0938,212.5 281.7188,211.9219 L281.7188,214.6406 Z "/><text fill="#000000" font-family="sans-serif" font-size="12" lengthAdjust="spacingAndGlyphs" textLength="92" x="292.75" y="213.1543">BaseException</text><line style="stroke: #A80036; stroke-width: 1.5;" x1="264.75" x2="386.75" y1="225" y2="225"/><line style="stroke: #A80036; stroke-width: 1.5;" x1="264.75" x2="386.75" y1="233" y2="233"/><!--class RelationshipDeclaration--><rect fill="#FEFECE" filter="url(#f866vc9)" height="73.6094" style="stroke: #A80036; stroke-width: 1.5;" width="201" x="6" y="8"/><ellipse cx="30" cy="24" fill="#ADD1B2" rx="11" ry="11" style="stroke: #A80036; stroke-width: 1.0;"/><path d="M32.9688,29.6406 Q32.3906,29.9375 31.75,30.0859 Q31.1094,30.2344 30.4063,30.2344 Q27.9063,30.2344 26.5859,28.5859 Q25.2656,26.9375 25.2656,23.8125 Q25.2656,20.6875 26.5859,19.0313 Q27.9063,17.375 30.4063,17.375 Q31.1094,17.375 31.7578,17.5313 Q32.4063,17.6875 32.9688,17.9844 L32.9688,20.7031 Q32.3438,20.125 31.75,19.8516 Q31.1563,19.5781 30.5313,19.5781 Q29.1875,19.5781 28.5,20.6484 Q27.8125,21.7188 27.8125,23.8125 Q27.8125,25.9063 28.5,26.9766 Q29.1875,28.0469 30.5313,28.0469 Q31.1563,28.0469 31.75,27.7734 Q32.3438,27.5 32.9688,26.9219 L32.9688,29.6406 Z "/><text fill="#000000" font-family="sans-serif" font-size="12" lengthAdjust="spacingAndGlyphs" textLength="149" x="46" y="28.1543">RelationshipDeclaration</text><line style="stroke: #A80036; stroke-width: 1.5;" x1="7" x2="206" y1="40" y2="40"/><line style="stroke: #A80036; stroke-width: 1.5;" x1="7" x2="206" y1="48" y2="48"/><ellipse cx="17" cy="59.9023" fill="#84BE84" rx="3" ry="3" style="stroke: #038048; stroke-width: 1.0;"/><text fill="#000000" font-family="sans-serif" font-size="11" lengthAdjust="spacingAndGlyphs" textLength="136" x="26" y="62.2104">void constructor(Object)</text><rect fill="#F24D5C" height="6" style="stroke: #C82930; stroke-width: 1.0;" width="6" x="14" y="69.707"/><text fill="#000000" font-family="sans-serif" font-size="11" lengthAdjust="spacingAndGlyphs" textLength="175" x="26" y="75.0151">void validate(ClassDeclaration)</text><path d="M325.25,75.612 C325.25,102.481 325.25,142.428 325.25,172.847 " fill="none" style="stroke: #A80036; stroke-width: 1.0;"/><polygon fill="none" points="332.25,172.99,325.25,192.9902,318.25,172.99,332.25,172.99" style="stroke: #A80036; stroke-width: 1.0;"/><path d="M106.25,82.053 C106.25,93.911 106.25,107.696 106.25,121.824 " fill="none" style="stroke: #A80036; stroke-width: 1.0;"/><polygon fill="none" points="113.25,121.861,106.25,141.861,99.2501,121.86,113.25,121.861" style="stroke: #A80036; stroke-width: 1.0;"/></g></svg>