<?xml version="1.0" encoding="UTF-8" standalone="no"?><svg xmlns="http://www.w3.org/2000/svg" xmlns:xlink="http://www.w3.org/1999/xlink" contentScriptType="application/ecmascript" contentStyleType="text/css" height="403px" preserveAspectRatio="none" style="width:1098px;height:403px;" version="1.1" viewBox="0 0 1098 403" width="1098px" zoomAndPan="magnify"><defs><filter height="300%" id="f7vbjoa" width="300%" x="-1" y="-1"><feGaussianBlur result="blurOut" stdDeviation="2.0"/><feColorMatrix in="blurOut" result="blurOut2" type="matrix" values="0 0 0 0 0 0 0 0 0 0 0 0 0 0 0 0 0 0 .4 0"/><feOffset dx="4.0" dy="4.0" in="blurOut2" result="blurOut3"/><feBlend in="SourceGraphic" in2="blurOut3" mode="normal"/></filter></defs><g><!--class Identifiable--><rect fill="#FEFECE" filter="url(#f7vbjoa)" height="150.4375" style="stroke: #A80036; stroke-width: 1.5;" width="319" x="183" y="244"/><ellipse cx="303.75" cy="260" fill="#ADD1B2" rx="11" ry="11" style="stroke: #A80036; stroke-width: 1.0;"/><path d="M306.7188,265.6406 Q306.1406,265.9375 305.5,266.0859 Q304.8594,266.2344 304.1563,266.2344 Q301.6563,266.2344 300.3359,264.5859 Q299.0156,262.9375 299.0156,259.8125 Q299.0156,256.6875 300.3359,255.0313 Q301.6563,253.375 304.1563,253.375 Q304.8594,253.375 305.5078,253.5313 Q306.1563,253.6875 306.7188,253.9844 L306.7188,256.7031 Q306.0938,256.125 305.5,255.8516 Q304.9063,255.5781 304.2813,255.5781 Q302.9375,255.5781 302.25,256.6484 Q301.5625,257.7188 301.5625,259.8125 Q301.5625,261.9063 302.25,262.9766 Q302.9375,264.0469 304.2813,264.0469 Q304.9063,264.0469 305.5,263.7734 Q306.0938,263.5 306.7188,262.9219 L306.7188,265.6406 Z "/><text fill="#000000" font-family="sans-serif" font-size="12" lengthAdjust="spacingAndGlyphs" textLength="69" x="324.25" y="264.1543">Identifiable</text><line style="stroke: #A80036; stroke-width: 1.5;" x1="184" x2="501" y1="276" y2="276"/><line style="stroke: #A80036; stroke-width: 1.5;" x1="184" x2="501" y1="284" y2="284"/><rect fill="#F24D5C" height="6" style="stroke: #C82930; stroke-width: 1.0;" width="6" x="191" y="292.9023"/><text fill="#000000" font-family="sans-serif" font-size="11" lengthAdjust="spacingAndGlyphs" textLength="293" x="203" y="298.2104">void constructor(ModelManager,string,string,string)</text><ellipse cx="194" cy="308.707" fill="#84BE84" rx="3" ry="3" style="stroke: #038048; stroke-width: 1.0;"/><text fill="#000000" font-family="sans-serif" font-size="11" lengthAdjust="spacingAndGlyphs" textLength="194" x="203" y="311.0151">ModelManager getModelManager()</text><ellipse cx="194" cy="321.5117" fill="#84BE84" rx="3" ry="3" style="stroke: #038048; stroke-width: 1.0;"/><text fill="#000000" font-family="sans-serif" font-size="11" lengthAdjust="spacingAndGlyphs" textLength="113" x="203" y="323.8198">string getIdentifier()</text><ellipse cx="194" cy="334.3164" fill="#84BE84" rx="3" ry="3" style="stroke: #038048; stroke-width: 1.0;"/><text fill="#000000" font-family="sans-serif" font-size="11" lengthAdjust="spacingAndGlyphs" textLength="188" x="203" y="336.6245">string getFullyQualifiedIdentifier()</text><ellipse cx="194" cy="347.1211" fill="#84BE84" rx="3" ry="3" style="stroke: #038048; stroke-width: 1.0;"/><text fill="#000000" font-family="sans-serif" font-size="11" lengthAdjust="spacingAndGlyphs" textLength="90" x="203" y="349.4292">string getType()</text><ellipse cx="194" cy="359.9258" fill="#84BE84" rx="3" ry="3" style="stroke: #038048; stroke-width: 1.0;"/><text fill="#000000" font-family="sans-serif" font-size="11" lengthAdjust="spacingAndGlyphs" textLength="165" x="203" y="362.2339">string getFullyQualifiedType()</text><ellipse cx="194" cy="372.7305" fill="#84BE84" rx="3" ry="3" style="stroke: #038048; stroke-width: 1.0;"/><text fill="#000000" font-family="sans-serif" font-size="11" lengthAdjust="spacingAndGlyphs" textLength="130" x="203" y="375.0386">string getNamespace()</text><ellipse cx="194" cy="385.5352" fill="#84BE84" rx="3" ry="3" style="stroke: #038048; stroke-width: 1.0;"/><text fill="#000000" font-family="sans-serif" font-size="11" lengthAdjust="spacingAndGlyphs" textLength="191" x="203" y="387.8433">boolean isSystemProperty(string)</text><!--class Relationship--><rect fill="#FEFECE" filter="url(#f7vbjoa)" height="60.8047" style="stroke: #A80036; stroke-width: 1.5;" width="319" x="6" y="65.5"/><ellipse cx="122.75" cy="81.5" fill="#ADD1B2" rx="11" ry="11" style="stroke: #A80036; stroke-width: 1.0;"/><path d="M125.7188,87.1406 Q125.1406,87.4375 124.5,87.5859 Q123.8594,87.7344 123.1563,87.7344 Q120.6563,87.7344 119.3359,86.0859 Q118.0156,84.4375 118.0156,81.3125 Q118.0156,78.1875 119.3359,76.5313 Q120.6563,74.875 123.1563,74.875 Q123.8594,74.875 124.5078,75.0313 Q125.1563,75.1875 125.7188,75.4844 L125.7188,78.2031 Q125.0938,77.625 124.5,77.3516 Q123.9063,77.0781 123.2813,77.0781 Q121.9375,77.0781 121.25,78.1484 Q120.5625,79.2188 120.5625,81.3125 Q120.5625,83.4063 121.25,84.4766 Q121.9375,85.5469 123.2813,85.5469 Q123.9063,85.5469 124.5,85.2734 Q125.0938,85 125.7188,84.4219 L125.7188,87.1406 Z "/><text fill="#000000" font-family="sans-serif" font-size="12" lengthAdjust="spacingAndGlyphs" textLength="77" x="143.25" y="85.6543">Relationship</text><line style="stroke: #A80036; stroke-width: 1.5;" x1="7" x2="324" y1="97.5" y2="97.5"/><line style="stroke: #A80036; stroke-width: 1.5;" x1="7" x2="324" y1="105.5" y2="105.5"/><rect fill="#F24D5C" height="6" style="stroke: #C82930; stroke-width: 1.0;" width="6" x="14" y="114.4023"/><text fill="#000000" font-family="sans-serif" font-size="11" lengthAdjust="spacingAndGlyphs" textLength="293" x="26" y="119.7104">void constructor(ModelManager,string,string,string)</text><!--class Resource--><rect fill="#FEFECE" filter="url(#f7vbjoa)" height="176.0469" style="stroke: #A80036; stroke-width: 1.5;" width="319" x="360" y="8"/><ellipse cx="485.75" cy="24" fill="#ADD1B2" rx="11" ry="11" style="stroke: #A80036; stroke-width: 1.0;"/><path d="M488.7188,29.6406 Q488.1406,29.9375 487.5,30.0859 Q486.8594,30.2344 486.1563,30.2344 Q483.6563,30.2344 482.3359,28.5859 Q481.0156,26.9375 481.0156,23.8125 Q481.0156,20.6875 482.3359,19.0313 Q483.6563,17.375 486.1563,17.375 Q486.8594,17.375 487.5078,17.5313 Q488.1563,17.6875 488.7188,17.9844 L488.7188,20.7031 Q488.0938,20.125 487.5,19.8516 Q486.9063,19.5781 486.2813,19.5781 Q484.9375,19.5781 484.25,20.6484 Q483.5625,21.7188 483.5625,23.8125 Q483.5625,25.9063 484.25,26.9766 Q484.9375,28.0469 486.2813,28.0469 Q486.9063,28.0469 487.5,27.7734 Q488.0938,27.5 488.7188,26.9219 L488.7188,29.6406 Z "/><text fill="#000000" font-family="sans-serif" font-size="12" lengthAdjust="spacingAndGlyphs" textLength="59" x="506.25" y="28.1543">Resource</text><line style="stroke: #A80036; stroke-width: 1.5;" x1="361" x2="678" y1="40" y2="40"/><line style="stroke: #A80036; stroke-width: 1.5;" x1="361" x2="678" y1="48" y2="48"/><rect fill="#F24D5C" height="6" style="stroke: #C82930; stroke-width: 1.0;" width="6" x="368" y="56.9023"/><text fill="#000000" font-family="sans-serif" font-size="11" lengthAdjust="spacingAndGlyphs" textLength="293" x="380" y="62.2104">void constructor(ModelManager,string,string,string)</text><ellipse cx="371" cy="72.707" fill="#84BE84" rx="3" ry="3" style="stroke: #038048; stroke-width: 1.0;"/><text fill="#000000" font-family="sans-serif" font-size="11" lengthAdjust="spacingAndGlyphs" textLength="202" x="380" y="75.0151">void setPropertyValue(string,string)</text><ellipse cx="371" cy="85.5117" fill="#84BE84" rx="3" ry="3" style="stroke: #038048; stroke-width: 1.0;"/><text fill="#000000" font-family="sans-serif" font-size="11" lengthAdjust="spacingAndGlyphs" textLength="187" x="380" y="87.8198">void addArrayValue(string,string)</text><rect fill="#F24D5C" height="6" style="stroke: #C82930; stroke-width: 1.0;" width="6" x="368" y="95.3164"/><text fill="#000000" font-family="sans-serif" font-size="11" lengthAdjust="spacingAndGlyphs" textLength="146" x="380" y="100.6245">void assignFieldDefaults()</text><rect fill="#F24D5C" height="6" style="stroke: #C82930; stroke-width: 1.0;" width="6" x="368" y="108.1211"/><text fill="#000000" font-family="sans-serif" font-size="11" lengthAdjust="spacingAndGlyphs" textLength="222" x="380" y="113.4292">ClassDeclaration getClassDeclaration()</text><rect fill="#F24D5C" height="6" style="stroke: #C82930; stroke-width: 1.0;" width="6" x="368" y="120.9258"/><text fill="#000000" font-family="sans-serif" font-size="11" lengthAdjust="spacingAndGlyphs" textLength="79" x="380" y="126.2339">void validate()</text><rect fill="#F24D5C" height="6" style="stroke: #C82930; stroke-width: 1.0;" width="6" x="368" y="133.7305"/><text fill="#000000" font-family="sans-serif" font-size="11" lengthAdjust="spacingAndGlyphs" textLength="200" x="380" y="139.0386">void validateProperty(string,Field,*)</text><rect fill="#F24D5C" height="6" style="stroke: #C82930; stroke-width: 1.0;" width="6" x="368" y="146.5352"/><text fill="#000000" font-family="sans-serif" font-size="11" lengthAdjust="spacingAndGlyphs" textLength="274" x="380" y="151.8433">void validateNonArrayProperty(string,Property,*)</text><rect fill="#F24D5C" height="6" style="stroke: #C82930; stroke-width: 1.0;" width="6" x="368" y="159.3398"/><text fill="#000000" font-family="sans-serif" font-size="11" lengthAdjust="spacingAndGlyphs" textLength="261" x="380" y="164.6479">void reportModelViolation(string,string,*,Field)</text><rect fill="#F24D5C" height="6" style="stroke: #C82930; stroke-width: 1.0;" width="6" x="368" y="172.1445"/><text fill="#000000" font-family="sans-serif" font-size="11" lengthAdjust="spacingAndGlyphs" textLength="274" x="380" y="177.4526">void reportMissingRequiredProperty(string,Field)</text><!--class globalize--><rect fill="#FEFECE" filter="url(#f7vbjoa)" height="48" style="stroke: #A80036; stroke-width: 1.5;" width="86" x="714.25" y="72"/><ellipse cx="729.25" cy="88" fill="#DA70D6" rx="11" ry="11" style="stroke: #A80036; stroke-width: 1.0;"/><path d="M729.0469,83.6719 L729.0469,87.2969 L730.0469,87.2969 Q731.25,87.2969 731.7344,86.8906 Q732.2188,86.4844 732.2188,85.4844 Q732.2188,84.4844 731.7344,84.0781 Q731.25,83.6719 730.0469,83.6719 L729.0469,83.6719 Z M726.5938,81.6094 L729.9531,81.6094 Q732.5156,81.6094 733.6406,82.5234 Q734.7656,83.4375 734.7656,85.4844 Q734.7656,87.5313 733.6406,88.4453 Q732.5156,89.3594 729.9531,89.3594 L729.0469,89.3594 L729.0469,94 L726.5938,94 L726.5938,81.6094 Z "/><text fill="#000000" font-family="sans-serif" font-size="12" lengthAdjust="spacingAndGlyphs" textLength="54" x="743.25" y="92.1543">globalize</text><line style="stroke: #A80036; stroke-width: 1.5;" x1="715.25" x2="799.25" y1="104" y2="104"/><line style="stroke: #A80036; stroke-width: 1.5;" x1="715.25" x2="799.25" y1="112" y2="112"/><!--class Serializer--><rect fill="#FEFECE" filter="url(#f7vbjoa)" height="86.4141" style="stroke: #A80036; stroke-width: 1.5;" width="253" x="836" y="53"/><ellipse cx="930.25" cy="69" fill="#ADD1B2" rx="11" ry="11" style="stroke: #A80036; stroke-width: 1.0;"/><path d="M933.2188,74.6406 Q932.6406,74.9375 932,75.0859 Q931.3594,75.2344 930.6563,75.2344 Q928.1563,75.2344 926.8359,73.5859 Q925.5156,71.9375 925.5156,68.8125 Q925.5156,65.6875 926.8359,64.0313 Q928.1563,62.375 930.6563,62.375 Q931.3594,62.375 932.0078,62.5313 Q932.6563,62.6875 933.2188,62.9844 L933.2188,65.7031 Q932.5938,65.125 932,64.8516 Q931.4063,64.5781 930.7813,64.5781 Q929.4375,64.5781 928.75,65.6484 Q928.0625,66.7188 928.0625,68.8125 Q928.0625,70.9063 928.75,71.9766 Q929.4375,73.0469 930.7813,73.0469 Q931.4063,73.0469 932,72.7734 Q932.5938,72.5 933.2188,71.9219 L933.2188,74.6406 Z "/><text fill="#000000" font-family="sans-serif" font-size="12" lengthAdjust="spacingAndGlyphs" textLength="56" x="950.75" y="73.1543">Serializer</text><line style="stroke: #A80036; stroke-width: 1.5;" x1="837" x2="1088" y1="85" y2="85"/><line style="stroke: #A80036; stroke-width: 1.5;" x1="837" x2="1088" y1="93" y2="93"/><ellipse cx="847" cy="104.9023" fill="#84BE84" rx="3" ry="3" style="stroke: #038048; stroke-width: 1.0;"/><text fill="#000000" font-family="sans-serif" font-size="11" lengthAdjust="spacingAndGlyphs" textLength="227" x="856" y="107.2104">void constructor(Factory,ModelManager)</text><ellipse cx="847" cy="117.707" fill="#84BE84" rx="3" ry="3" style="stroke: #038048; stroke-width: 1.0;"/><text fill="#000000" font-family="sans-serif" font-size="11" lengthAdjust="spacingAndGlyphs" textLength="177" x="856" y="120.0151">string toJSON(Resource,Object)</text><ellipse cx="847" cy="130.5117" fill="#84BE84" rx="3" ry="3" style="stroke: #038048; stroke-width: 1.0;"/><text fill="#000000" font-family="sans-serif" font-size="11" lengthAdjust="spacingAndGlyphs" textLength="193" x="856" y="132.8198">Resource fromJSON(string,Object)</text><path d="M189.121,126.805 C209.917,152.771 241.182,191.808 270.05,227.852 " fill="none" style="stroke: #A80036; stroke-width: 1.0;"/><polygon fill="none" points="275.628,223.619,282.667,243.605,264.701,232.371,275.628,223.619" style="stroke: #A80036; stroke-width: 1.0;"/><path d="M449.549,184.028 C438.022,198.421 426.048,213.37 414.461,227.838 " fill="none" style="stroke: #A80036; stroke-width: 1.0;"/><polygon fill="none" points="419.553,232.679,401.587,243.913,408.625,223.927,419.553,232.679" style="stroke: #A80036; stroke-width: 1.0;"/></g></svg>