<?xml version="1.0" encoding="UTF-8" standalone="no"?><svg xmlns="http://www.w3.org/2000/svg" xmlns:xlink="http://www.w3.org/1999/xlink" contentScriptType="application/ecmascript" contentStyleType="text/css" height="513px" preserveAspectRatio="none" style="width:1327px;height:513px;" version="1.1" viewBox="0 0 1327 513" width="1327px" zoomAndPan="magnify"><defs><filter height="300%" id="fc2wg7s" width="300%" x="-1" y="-1"><feGaussianBlur result="blurOut" stdDeviation="2.0"/><feColorMatrix in="blurOut" result="blurOut2" type="matrix" values="0 0 0 0 0 0 0 0 0 0 0 0 0 0 0 0 0 0 .4 0"/><feOffset dx="4.0" dy="4.0" in="blurOut2" result="blurOut3"/><feBlend in="SourceGraphic" in2="blurOut3" mode="normal"/></filter></defs><g><!--class BaseException--><rect fill="#FEFECE" filter="url(#fc2wg7s)" height="60.8047" style="stroke: #A80036; stroke-width: 1.5;" width="159" x="6" y="283.5"/><ellipse cx="36.75" cy="299.5" fill="#ADD1B2" rx="11" ry="11" style="stroke: #A80036; stroke-width: 1.0;"/><path d="M39.7188,305.1406 Q39.1406,305.4375 38.5,305.5859 Q37.8594,305.7344 37.1563,305.7344 Q34.6563,305.7344 33.3359,304.0859 Q32.0156,302.4375 32.0156,299.3125 Q32.0156,296.1875 33.3359,294.5313 Q34.6563,292.875 37.1563,292.875 Q37.8594,292.875 38.5078,293.0313 Q39.1563,293.1875 39.7188,293.4844 L39.7188,296.2031 Q39.0938,295.625 38.5,295.3516 Q37.9063,295.0781 37.2813,295.0781 Q35.9375,295.0781 35.25,296.1484 Q34.5625,297.2188 34.5625,299.3125 Q34.5625,301.4063 35.25,302.4766 Q35.9375,303.5469 37.2813,303.5469 Q37.9063,303.5469 38.5,303.2734 Q39.0938,303 39.7188,302.4219 L39.7188,305.1406 Z "/><text fill="#000000" font-family="sans-serif" font-size="12" lengthAdjust="spacingAndGlyphs" textLength="92" x="54.25" y="303.6543">BaseException</text><line style="stroke: #A80036; stroke-width: 1.5;" x1="7" x2="164" y1="315.5" y2="315.5"/><line style="stroke: #A80036; stroke-width: 1.5;" x1="7" x2="164" y1="323.5" y2="323.5"/><ellipse cx="17" cy="335.4023" fill="#84BE84" rx="3" ry="3" style="stroke: #038048; stroke-width: 1.0;"/><text fill="#000000" font-family="sans-serif" font-size="11" lengthAdjust="spacingAndGlyphs" textLength="133" x="26" y="337.7104">void constructor(string)</text><!--class Error--><rect fill="#FEFECE" filter="url(#fc2wg7s)" height="48" style="stroke: #A80036; stroke-width: 1.5;" width="63" x="54" y="456"/><ellipse cx="69" cy="472" fill="#ADD1B2" rx="11" ry="11" style="stroke: #A80036; stroke-width: 1.0;"/><path d="M71.9688,477.6406 Q71.3906,477.9375 70.75,478.0859 Q70.1094,478.2344 69.4063,478.2344 Q66.9063,478.2344 65.5859,476.5859 Q64.2656,474.9375 64.2656,471.8125 Q64.2656,468.6875 65.5859,467.0313 Q66.9063,465.375 69.4063,465.375 Q70.1094,465.375 70.7578,465.5313 Q71.4063,465.6875 71.9688,465.9844 L71.9688,468.7031 Q71.3438,468.125 70.75,467.8516 Q70.1563,467.5781 69.5313,467.5781 Q68.1875,467.5781 67.5,468.6484 Q66.8125,469.7188 66.8125,471.8125 Q66.8125,473.9063 67.5,474.9766 Q68.1875,476.0469 69.5313,476.0469 Q70.1563,476.0469 70.75,475.7734 Q71.3438,475.5 71.9688,474.9219 L71.9688,477.6406 Z "/><text fill="#000000" font-family="sans-serif" font-size="12" lengthAdjust="spacingAndGlyphs" textLength="31" x="83" y="476.1543">Error</text><line style="stroke: #A80036; stroke-width: 1.5;" x1="55" x2="116" y1="488" y2="488"/><line style="stroke: #A80036; stroke-width: 1.5;" x1="55" x2="116" y1="496" y2="496"/><!--class SecurityException--><rect fill="#FEFECE" filter="url(#fc2wg7s)" height="60.8047" style="stroke: #A80036; stroke-width: 1.5;" width="159" x="6" y="59.5"/><ellipse cx="28.2" cy="75.5" fill="#ADD1B2" rx="11" ry="11" style="stroke: #A80036; stroke-width: 1.0;"/><path d="M31.1688,81.1406 Q30.5906,81.4375 29.95,81.5859 Q29.3094,81.7344 28.6063,81.7344 Q26.1063,81.7344 24.7859,80.0859 Q23.4656,78.4375 23.4656,75.3125 Q23.4656,72.1875 24.7859,70.5313 Q26.1063,68.875 28.6063,68.875 Q29.3094,68.875 29.9578,69.0313 Q30.6063,69.1875 31.1688,69.4844 L31.1688,72.2031 Q30.5438,71.625 29.95,71.3516 Q29.3563,71.0781 28.7313,71.0781 Q27.3875,71.0781 26.7,72.1484 Q26.0125,73.2188 26.0125,75.3125 Q26.0125,77.4063 26.7,78.4766 Q27.3875,79.5469 28.7313,79.5469 Q29.3563,79.5469 29.95,79.2734 Q30.5438,79 31.1688,78.4219 L31.1688,81.1406 Z "/><text fill="#000000" font-family="sans-serif" font-size="12" lengthAdjust="spacingAndGlyphs" textLength="111" x="43.8" y="79.6543">SecurityException</text><line style="stroke: #A80036; stroke-width: 1.5;" x1="7" x2="164" y1="91.5" y2="91.5"/><line style="stroke: #A80036; stroke-width: 1.5;" x1="7" x2="164" y1="99.5" y2="99.5"/><ellipse cx="17" cy="111.4023" fill="#84BE84" rx="3" ry="3" style="stroke: #038048; stroke-width: 1.0;"/><text fill="#000000" font-family="sans-serif" font-size="11" lengthAdjust="spacingAndGlyphs" textLength="133" x="26" y="113.7104">void constructor(string)</text><!--class globalize--><rect fill="#FEFECE" filter="url(#fc2wg7s)" height="48" style="stroke: #A80036; stroke-width: 1.5;" width="86" x="200.25" y="66"/><ellipse cx="215.25" cy="82" fill="#DA70D6" rx="11" ry="11" style="stroke: #A80036; stroke-width: 1.0;"/><path d="M215.0469,77.6719 L215.0469,81.2969 L216.0469,81.2969 Q217.25,81.2969 217.7344,80.8906 Q218.2188,80.4844 218.2188,79.4844 Q218.2188,78.4844 217.7344,78.0781 Q217.25,77.6719 216.0469,77.6719 L215.0469,77.6719 Z M212.5938,75.6094 L215.9531,75.6094 Q218.5156,75.6094 219.6406,76.5234 Q220.7656,77.4375 220.7656,79.4844 Q220.7656,81.5313 219.6406,82.4453 Q218.5156,83.3594 215.9531,83.3594 L215.0469,83.3594 L215.0469,88 L212.5938,88 L212.5938,75.6094 Z "/><text fill="#000000" font-family="sans-serif" font-size="12" lengthAdjust="spacingAndGlyphs" textLength="54" x="229.25" y="86.1543">globalize</text><line style="stroke: #A80036; stroke-width: 1.5;" x1="201.25" x2="285.25" y1="98" y2="98"/><line style="stroke: #A80036; stroke-width: 1.5;" x1="201.25" x2="285.25" y1="106" y2="106"/><!--class Util--><rect fill="#FEFECE" filter="url(#fc2wg7s)" height="99.2188" style="stroke: #A80036; stroke-width: 1.5;" width="391" x="322" y="40.5"/><ellipse cx="503.25" cy="56.5" fill="#ADD1B2" rx="11" ry="11" style="stroke: #A80036; stroke-width: 1.0;"/><path d="M506.2188,62.1406 Q505.6406,62.4375 505,62.5859 Q504.3594,62.7344 503.6563,62.7344 Q501.1563,62.7344 499.8359,61.0859 Q498.5156,59.4375 498.5156,56.3125 Q498.5156,53.1875 499.8359,51.5313 Q501.1563,49.875 503.6563,49.875 Q504.3594,49.875 505.0078,50.0313 Q505.6563,50.1875 506.2188,50.4844 L506.2188,53.2031 Q505.5938,52.625 505,52.3516 Q504.4063,52.0781 503.7813,52.0781 Q502.4375,52.0781 501.75,53.1484 Q501.0625,54.2188 501.0625,56.3125 Q501.0625,58.4063 501.75,59.4766 Q502.4375,60.5469 503.7813,60.5469 Q504.4063,60.5469 505,60.2734 Q505.5938,60 506.2188,59.4219 L506.2188,62.1406 Z "/><text fill="#000000" font-family="sans-serif" font-size="12" lengthAdjust="spacingAndGlyphs" textLength="20" x="523.75" y="60.6543">Util</text><line style="stroke: #A80036; stroke-width: 1.5;" x1="323" x2="712" y1="72.5" y2="72.5"/><line style="stroke: #A80036; stroke-width: 1.5;" x1="323" x2="712" y1="80.5" y2="80.5"/><ellipse cx="333" cy="92.4023" fill="#84BE84" rx="3" ry="3" style="stroke: #038048; stroke-width: 1.0;"/><text fill="#000000" font-family="sans-serif" font-size="11" lengthAdjust="spacingAndGlyphs" textLength="203" x="342" y="94.7104">void securityCheck(SecurityContext)</text><ellipse cx="333" cy="105.207" fill="#84BE84" rx="3" ry="3" style="stroke: #038048; stroke-width: 1.0;"/><text fill="#000000" font-family="sans-serif" font-size="11" lengthAdjust="spacingAndGlyphs" textLength="323" x="342" y="107.5151">Promise queryChainCode(SecurityContext,string,string[])</text><ellipse cx="333" cy="118.0117" fill="#84BE84" rx="3" ry="3" style="stroke: #038048; stroke-width: 1.0;"/><text fill="#000000" font-family="sans-serif" font-size="11" lengthAdjust="spacingAndGlyphs" textLength="327" x="342" y="120.3198">Promise invokeChainCode(SecurityContext,string,string[])</text><ellipse cx="333" cy="130.8164" fill="#84BE84" rx="3" ry="3" style="stroke: #038048; stroke-width: 1.0;"/><text fill="#000000" font-family="sans-serif" font-size="11" lengthAdjust="spacingAndGlyphs" textLength="365" x="342" y="133.1245">Promise deployChainCode(SecurityContext,string,string,string[])</text><!--class Registry--><rect fill="#FEFECE" filter="url(#fc2wg7s)" height="163.2422" style="stroke: #A80036; stroke-width: 1.5;" width="352" x="857.75" y="232.5"/><ellipse cx="1004.5" cy="248.5" fill="#ADD1B2" rx="11" ry="11" style="stroke: #A80036; stroke-width: 1.0;"/><path d="M1007.4688,254.1406 Q1006.8906,254.4375 1006.25,254.5859 Q1005.6094,254.7344 1004.9063,254.7344 Q1002.4063,254.7344 1001.0859,253.0859 Q999.7656,251.4375 999.7656,248.3125 Q999.7656,245.1875 1001.0859,243.5313 Q1002.4063,241.875 1004.9063,241.875 Q1005.6094,241.875 1006.2578,242.0313 Q1006.9063,242.1875 1007.4688,242.4844 L1007.4688,245.2031 Q1006.8438,244.625 1006.25,244.3516 Q1005.6563,244.0781 1005.0313,244.0781 Q1003.6875,244.0781 1003,245.1484 Q1002.3125,246.2188 1002.3125,248.3125 Q1002.3125,250.4063 1003,251.4766 Q1003.6875,252.5469 1005.0313,252.5469 Q1005.6563,252.5469 1006.25,252.2734 Q1006.8438,252 1007.4688,251.4219 L1007.4688,254.1406 Z "/><text fill="#000000" font-family="sans-serif" font-size="12" lengthAdjust="spacingAndGlyphs" textLength="50" x="1025" y="252.6543">Registry</text><line style="stroke: #A80036; stroke-width: 1.5;" x1="858.75" x2="1208.75" y1="264.5" y2="264.5"/><line style="stroke: #A80036; stroke-width: 1.5;" x1="858.75" x2="1208.75" y1="272.5" y2="272.5"/><ellipse cx="868.75" cy="284.4023" fill="#84BE84" rx="3" ry="3" style="stroke: #038048; stroke-width: 1.0;"/><text fill="#000000" font-family="sans-serif" font-size="11" lengthAdjust="spacingAndGlyphs" textLength="273" x="877.75" y="286.7104">Promise getAllRegistries(SecurityContext,string)</text><ellipse cx="868.75" cy="297.207" fill="#84BE84" rx="3" ry="3" style="stroke: #038048; stroke-width: 1.0;"/><text fill="#000000" font-family="sans-serif" font-size="11" lengthAdjust="spacingAndGlyphs" textLength="286" x="877.75" y="299.5151">Promise getRegistry(SecurityContext,string,string)</text><ellipse cx="868.75" cy="310.0117" fill="#84BE84" rx="3" ry="3" style="stroke: #038048; stroke-width: 1.0;"/><text fill="#000000" font-family="sans-serif" font-size="11" lengthAdjust="spacingAndGlyphs" textLength="326" x="877.75" y="312.3198">Promise addRegistry(SecurityContext,string,string,string)</text><ellipse cx="868.75" cy="322.8164" fill="#84BE84" rx="3" ry="3" style="stroke: #038048; stroke-width: 1.0;"/><text fill="#000000" font-family="sans-serif" font-size="11" lengthAdjust="spacingAndGlyphs" textLength="207" x="877.75" y="325.1245">void constructor(string,string,string)</text><ellipse cx="868.75" cy="335.6211" fill="#84BE84" rx="3" ry="3" style="stroke: #038048; stroke-width: 1.0;"/><text fill="#000000" font-family="sans-serif" font-size="11" lengthAdjust="spacingAndGlyphs" textLength="243" x="877.75" y="337.9292">Promise add(SecurityContext,string,string)</text><ellipse cx="868.75" cy="348.4258" fill="#84BE84" rx="3" ry="3" style="stroke: #038048; stroke-width: 1.0;"/><text fill="#000000" font-family="sans-serif" font-size="11" lengthAdjust="spacingAndGlyphs" textLength="261" x="877.75" y="350.7339">Promise update(SecurityContext,string,string)</text><ellipse cx="868.75" cy="361.2305" fill="#84BE84" rx="3" ry="3" style="stroke: #038048; stroke-width: 1.0;"/><text fill="#000000" font-family="sans-serif" font-size="11" lengthAdjust="spacingAndGlyphs" textLength="228" x="877.75" y="363.5386">Promise remove(SecurityContext,string)</text><ellipse cx="868.75" cy="374.0352" fill="#84BE84" rx="3" ry="3" style="stroke: #038048; stroke-width: 1.0;"/><text fill="#000000" font-family="sans-serif" font-size="11" lengthAdjust="spacingAndGlyphs" textLength="179" x="877.75" y="376.3433">Promise getAll(SecurityContext)</text><ellipse cx="868.75" cy="386.8398" fill="#84BE84" rx="3" ry="3" style="stroke: #038048; stroke-width: 1.0;"/><text fill="#000000" font-family="sans-serif" font-size="11" lengthAdjust="spacingAndGlyphs" textLength="203" x="877.75" y="389.1479">Promise get(SecurityContext,string)</text><!--class TransactionRegistry--><rect fill="#FEFECE" filter="url(#fc2wg7s)" height="163.2422" style="stroke: #A80036; stroke-width: 1.5;" width="570" x="748.25" y="8.5"/><ellipse cx="967" cy="24.5" fill="#ADD1B2" rx="11" ry="11" style="stroke: #A80036; stroke-width: 1.0;"/><path d="M969.9688,30.1406 Q969.3906,30.4375 968.75,30.5859 Q968.1094,30.7344 967.4063,30.7344 Q964.9063,30.7344 963.5859,29.0859 Q962.2656,27.4375 962.2656,24.3125 Q962.2656,21.1875 963.5859,19.5313 Q964.9063,17.875 967.4063,17.875 Q968.1094,17.875 968.7578,18.0313 Q969.4063,18.1875 969.9688,18.4844 L969.9688,21.2031 Q969.3438,20.625 968.75,20.3516 Q968.1563,20.0781 967.5313,20.0781 Q966.1875,20.0781 965.5,21.1484 Q964.8125,22.2188 964.8125,24.3125 Q964.8125,26.4063 965.5,27.4766 Q966.1875,28.5469 967.5313,28.5469 Q968.1563,28.5469 968.75,28.2734 Q969.3438,28 969.9688,27.4219 L969.9688,30.1406 Z "/><text fill="#000000" font-family="sans-serif" font-size="12" lengthAdjust="spacingAndGlyphs" textLength="124" x="987.5" y="28.6543">TransactionRegistry</text><line style="stroke: #A80036; stroke-width: 1.5;" x1="749.25" x2="1317.25" y1="40.5" y2="40.5"/><line style="stroke: #A80036; stroke-width: 1.5;" x1="749.25" x2="1317.25" y1="48.5" y2="48.5"/><ellipse cx="759.25" cy="60.4023" fill="#84BE84" rx="3" ry="3" style="stroke: #038048; stroke-width: 1.0;"/><text fill="#000000" font-family="sans-serif" font-size="11" lengthAdjust="spacingAndGlyphs" textLength="491" x="768.25" y="62.7104">Promise getAllTransactionRegistries(SecurityContext,ModelManager,Factory,Serializer)</text><ellipse cx="759.25" cy="73.207" fill="#84BE84" rx="3" ry="3" style="stroke: #038048; stroke-width: 1.0;"/><text fill="#000000" font-family="sans-serif" font-size="11" lengthAdjust="spacingAndGlyphs" textLength="504" x="768.25" y="75.5151">Promise getTransactionRegistry(SecurityContext,string,ModelManager,Factory,Serializer)</text><ellipse cx="759.25" cy="86.0117" fill="#84BE84" rx="3" ry="3" style="stroke: #038048; stroke-width: 1.0;"/><text fill="#000000" font-family="sans-serif" font-size="11" lengthAdjust="spacingAndGlyphs" textLength="544" x="768.25" y="88.3198">Promise addTransactionRegistry(SecurityContext,string,string,ModelManager,Factory,Serializer)</text><ellipse cx="759.25" cy="98.8164" fill="#84BE84" rx="3" ry="3" style="stroke: #038048; stroke-width: 1.0;"/><text fill="#000000" font-family="sans-serif" font-size="11" lengthAdjust="spacingAndGlyphs" textLength="358" x="768.25" y="101.1245">void constructor(string,string,ModelManager,Factory,Serializer)</text><ellipse cx="759.25" cy="111.6211" fill="#84BE84" rx="3" ry="3" style="stroke: #038048; stroke-width: 1.0;"/><text fill="#000000" font-family="sans-serif" font-size="11" lengthAdjust="spacingAndGlyphs" textLength="226" x="768.25" y="113.9292">Promise add(SecurityContext,Resource)</text><ellipse cx="759.25" cy="124.4258" fill="#84BE84" rx="3" ry="3" style="stroke: #038048; stroke-width: 1.0;"/><text fill="#000000" font-family="sans-serif" font-size="11" lengthAdjust="spacingAndGlyphs" textLength="237" x="768.25" y="126.7339">void update(SecurityContext,string,string)</text><ellipse cx="759.25" cy="137.2305" fill="#84BE84" rx="3" ry="3" style="stroke: #038048; stroke-width: 1.0;"/><text fill="#000000" font-family="sans-serif" font-size="11" lengthAdjust="spacingAndGlyphs" textLength="204" x="768.25" y="139.5386">void remove(SecurityContext,string)</text><ellipse cx="759.25" cy="150.0352" fill="#84BE84" rx="3" ry="3" style="stroke: #038048; stroke-width: 1.0;"/><text fill="#000000" font-family="sans-serif" font-size="11" lengthAdjust="spacingAndGlyphs" textLength="179" x="768.25" y="152.3433">Promise getAll(SecurityContext)</text><ellipse cx="759.25" cy="162.8398" fill="#84BE84" rx="3" ry="3" style="stroke: #038048; stroke-width: 1.0;"/><text fill="#000000" font-family="sans-serif" font-size="11" lengthAdjust="spacingAndGlyphs" textLength="203" x="768.25" y="165.1479">Promise get(SecurityContext,string)</text><path d="M85.25,344.699 C85.25,370.149 85.25,407.1359 85.25,435.8532 " fill="none" style="stroke: #A80036; stroke-width: 1.0;"/><polygon fill="none" points="92.2501,435.8737,85.25,455.8737,78.2501,435.8736,92.2501,435.8737" style="stroke: #A80036; stroke-width: 1.0;"/><path d="M85.25,120.94 C85.25,157.371 85.25,219.415 85.25,263.109 " fill="none" style="stroke: #A80036; stroke-width: 1.0;"/><polygon fill="none" points="92.2501,263.181,85.25,283.181,78.2501,263.181,92.2501,263.181" style="stroke: #A80036; stroke-width: 1.0;"/><path d="M1033.25,171.775 C1033.25,184.865 1033.25,198.562 1033.25,212.059 " fill="none" style="stroke: #A80036; stroke-width: 1.0;"/><polygon fill="none" points="1040.25,212.285,1033.25,232.285,1026.25,212.285,1040.25,212.285" style="stroke: #A80036; stroke-width: 1.0;"/></g></svg>