<?xml version="1.0" encoding="UTF-8" standalone="no"?><svg xmlns="http://www.w3.org/2000/svg" xmlns:xlink="http://www.w3.org/1999/xlink" contentScriptType="application/ecmascript" contentStyleType="text/css" height="403px" preserveAspectRatio="none" style="width:1104px;height:403px;" version="1.1" viewBox="0 0 1104 403" width="1104px" zoomAndPan="magnify"><defs><filter height="300%" id="fl6j1p9" width="300%" x="-1" y="-1"><feGaussianBlur result="blurOut" stdDeviation="2.0"/><feColorMatrix in="blurOut" result="blurOut2" type="matrix" values="0 0 0 0 0 0 0 0 0 0 0 0 0 0 0 0 0 0 .4 0"/><feOffset dx="4.0" dy="4.0" in="blurOut2" result="blurOut3"/><feBlend in="SourceGraphic" in2="blurOut3" mode="normal"/></filter></defs><g><!--class Property--><rect fill="#FEFECE" filter="url(#fl6j1p9)" height="150.4375" style="stroke: #A80036; stroke-width: 1.5;" width="201" x="203.75" y="212"/><ellipse cx="273.5" cy="228" fill="#ADD1B2" rx="11" ry="11" style="stroke: #A80036; stroke-width: 1.0;"/><path d="M276.4688,233.6406 Q275.8906,233.9375 275.25,234.0859 Q274.6094,234.2344 273.9063,234.2344 Q271.4063,234.2344 270.0859,232.5859 Q268.7656,230.9375 268.7656,227.8125 Q268.7656,224.6875 270.0859,223.0313 Q271.4063,221.375 273.9063,221.375 Q274.6094,221.375 275.2578,221.5313 Q275.9063,221.6875 276.4688,221.9844 L276.4688,224.7031 Q275.8438,224.125 275.25,223.8516 Q274.6563,223.5781 274.0313,223.5781 Q272.6875,223.5781 272,224.6484 Q271.3125,225.7188 271.3125,227.8125 Q271.3125,229.9063 272,230.9766 Q272.6875,232.0469 274.0313,232.0469 Q274.6563,232.0469 275.25,231.7734 Q275.8438,231.5 276.4688,230.9219 L276.4688,233.6406 Z "/><text fill="#000000" font-family="sans-serif" font-size="12" lengthAdjust="spacingAndGlyphs" textLength="53" x="294" y="232.1543">Property</text><line style="stroke: #A80036; stroke-width: 1.5;" x1="204.75" x2="403.75" y1="244" y2="244"/><line style="stroke: #A80036; stroke-width: 1.5;" x1="204.75" x2="403.75" y1="252" y2="252"/><ellipse cx="214.75" cy="263.9023" fill="#84BE84" rx="3" ry="3" style="stroke: #038048; stroke-width: 1.0;"/><text fill="#000000" font-family="sans-serif" font-size="11" lengthAdjust="spacingAndGlyphs" textLength="136" x="223.75" y="266.2104">void constructor(Object)</text><rect fill="#F24D5C" height="6" style="stroke: #C82930; stroke-width: 1.0;" width="6" x="211.75" y="273.707"/><text fill="#000000" font-family="sans-serif" font-size="11" lengthAdjust="spacingAndGlyphs" textLength="161" x="223.75" y="279.0151">Object accept(Object,Object)</text><rect fill="#F24D5C" height="6" style="stroke: #C82930; stroke-width: 1.0;" width="6" x="211.75" y="286.5117"/><text fill="#000000" font-family="sans-serif" font-size="11" lengthAdjust="spacingAndGlyphs" textLength="81" x="223.75" y="291.8198">void process()</text><rect fill="#F24D5C" height="6" style="stroke: #C82930; stroke-width: 1.0;" width="6" x="211.75" y="299.3164"/><text fill="#000000" font-family="sans-serif" font-size="11" lengthAdjust="spacingAndGlyphs" textLength="175" x="223.75" y="304.6245">void validate(ClassDeclaration)</text><ellipse cx="214.75" cy="315.1211" fill="#84BE84" rx="3" ry="3" style="stroke: #038048; stroke-width: 1.0;"/><text fill="#000000" font-family="sans-serif" font-size="11" lengthAdjust="spacingAndGlyphs" textLength="96" x="223.75" y="317.4292">string getName()</text><ellipse cx="214.75" cy="327.9258" fill="#84BE84" rx="3" ry="3" style="stroke: #038048; stroke-width: 1.0;"/><text fill="#000000" font-family="sans-serif" font-size="11" lengthAdjust="spacingAndGlyphs" textLength="90" x="223.75" y="330.2339">string getType()</text><ellipse cx="214.75" cy="340.7305" fill="#84BE84" rx="3" ry="3" style="stroke: #038048; stroke-width: 1.0;"/><text fill="#000000" font-family="sans-serif" font-size="11" lengthAdjust="spacingAndGlyphs" textLength="97" x="223.75" y="343.0386">boolean isArray()</text><ellipse cx="214.75" cy="353.5352" fill="#84BE84" rx="3" ry="3" style="stroke: #038048; stroke-width: 1.0;"/><text fill="#000000" font-family="sans-serif" font-size="11" lengthAdjust="spacingAndGlyphs" textLength="99" x="223.75" y="355.8433">boolean isEnum()</text><!--class Field--><rect fill="#FEFECE" filter="url(#fl6j1p9)" height="112.0234" style="stroke: #A80036; stroke-width: 1.5;" width="162" x="6" y="8"/><ellipse cx="68.25" cy="24" fill="#ADD1B2" rx="11" ry="11" style="stroke: #A80036; stroke-width: 1.0;"/><path d="M71.2188,29.6406 Q70.6406,29.9375 70,30.0859 Q69.3594,30.2344 68.6563,30.2344 Q66.1563,30.2344 64.8359,28.5859 Q63.5156,26.9375 63.5156,23.8125 Q63.5156,20.6875 64.8359,19.0313 Q66.1563,17.375 68.6563,17.375 Q69.3594,17.375 70.0078,17.5313 Q70.6563,17.6875 71.2188,17.9844 L71.2188,20.7031 Q70.5938,20.125 70,19.8516 Q69.4063,19.5781 68.7813,19.5781 Q67.4375,19.5781 66.75,20.6484 Q66.0625,21.7188 66.0625,23.8125 Q66.0625,25.9063 66.75,26.9766 Q67.4375,28.0469 68.7813,28.0469 Q69.4063,28.0469 70,27.7734 Q70.5938,27.5 71.2188,26.9219 L71.2188,29.6406 Z "/><text fill="#000000" font-family="sans-serif" font-size="12" lengthAdjust="spacingAndGlyphs" textLength="29" x="88.75" y="28.1543">Field</text><line style="stroke: #A80036; stroke-width: 1.5;" x1="7" x2="167" y1="40" y2="40"/><line style="stroke: #A80036; stroke-width: 1.5;" x1="7" x2="167" y1="48" y2="48"/><ellipse cx="17" cy="59.9023" fill="#84BE84" rx="3" ry="3" style="stroke: #038048; stroke-width: 1.0;"/><text fill="#000000" font-family="sans-serif" font-size="11" lengthAdjust="spacingAndGlyphs" textLength="136" x="26" y="62.2104">void constructor(Object)</text><rect fill="#F24D5C" height="6" style="stroke: #C82930; stroke-width: 1.0;" width="6" x="14" y="69.707"/><text fill="#000000" font-family="sans-serif" font-size="11" lengthAdjust="spacingAndGlyphs" textLength="81" x="26" y="75.0151">void process()</text><ellipse cx="17" cy="85.5117" fill="#84BE84" rx="3" ry="3" style="stroke: #038048; stroke-width: 1.0;"/><text fill="#000000" font-family="sans-serif" font-size="11" lengthAdjust="spacingAndGlyphs" textLength="113" x="26" y="87.8198">string getValidator()</text><ellipse cx="17" cy="98.3164" fill="#84BE84" rx="3" ry="3" style="stroke: #038048; stroke-width: 1.0;"/><text fill="#000000" font-family="sans-serif" font-size="11" lengthAdjust="spacingAndGlyphs" textLength="114" x="26" y="100.6245">boolean isOptional()</text><ellipse cx="17" cy="111.1211" fill="#84BE84" rx="3" ry="3" style="stroke: #038048; stroke-width: 1.0;"/><text fill="#000000" font-family="sans-serif" font-size="11" lengthAdjust="spacingAndGlyphs" textLength="134" x="26" y="113.4292">string getDefaultValue()</text><!--class EnumValueDeclaration--><rect fill="#FEFECE" filter="url(#fl6j1p9)" height="73.6094" style="stroke: #A80036; stroke-width: 1.5;" width="201" x="203.75" y="27"/><ellipse cx="230.9" cy="43" fill="#ADD1B2" rx="11" ry="11" style="stroke: #A80036; stroke-width: 1.0;"/><path d="M233.8688,48.6406 Q233.2906,48.9375 232.65,49.0859 Q232.0094,49.2344 231.3063,49.2344 Q228.8063,49.2344 227.4859,47.5859 Q226.1656,45.9375 226.1656,42.8125 Q226.1656,39.6875 227.4859,38.0313 Q228.8063,36.375 231.3063,36.375 Q232.0094,36.375 232.6578,36.5313 Q233.3063,36.6875 233.8688,36.9844 L233.8688,39.7031 Q233.2438,39.125 232.65,38.8516 Q232.0563,38.5781 231.4313,38.5781 Q230.0875,38.5781 229.4,39.6484 Q228.7125,40.7188 228.7125,42.8125 Q228.7125,44.9063 229.4,45.9766 Q230.0875,47.0469 231.4313,47.0469 Q232.0563,47.0469 232.65,46.7734 Q233.2438,46.5 233.8688,45.9219 L233.8688,48.6406 Z "/><text fill="#000000" font-family="sans-serif" font-size="12" lengthAdjust="spacingAndGlyphs" textLength="142" x="247.6" y="47.1543">EnumValueDeclaration</text><line style="stroke: #A80036; stroke-width: 1.5;" x1="204.75" x2="403.75" y1="59" y2="59"/><line style="stroke: #A80036; stroke-width: 1.5;" x1="204.75" x2="403.75" y1="67" y2="67"/><ellipse cx="214.75" cy="78.9023" fill="#84BE84" rx="3" ry="3" style="stroke: #038048; stroke-width: 1.0;"/><text fill="#000000" font-family="sans-serif" font-size="11" lengthAdjust="spacingAndGlyphs" textLength="136" x="223.75" y="81.2104">void constructor(Object)</text><rect fill="#F24D5C" height="6" style="stroke: #C82930; stroke-width: 1.0;" width="6" x="211.75" y="88.707"/><text fill="#000000" font-family="sans-serif" font-size="11" lengthAdjust="spacingAndGlyphs" textLength="175" x="223.75" y="94.0151">void validate(ClassDeclaration)</text><!--class IllegalModelException--><rect fill="#FEFECE" filter="url(#fl6j1p9)" height="60.8047" style="stroke: #A80036; stroke-width: 1.5;" width="166" x="676" y="33.5"/><ellipse cx="691" cy="49.5" fill="#ADD1B2" rx="11" ry="11" style="stroke: #A80036; stroke-width: 1.0;"/><path d="M693.9688,55.1406 Q693.3906,55.4375 692.75,55.5859 Q692.1094,55.7344 691.4063,55.7344 Q688.9063,55.7344 687.5859,54.0859 Q686.2656,52.4375 686.2656,49.3125 Q686.2656,46.1875 687.5859,44.5313 Q688.9063,42.875 691.4063,42.875 Q692.1094,42.875 692.7578,43.0313 Q693.4063,43.1875 693.9688,43.4844 L693.9688,46.2031 Q693.3438,45.625 692.75,45.3516 Q692.1563,45.0781 691.5313,45.0781 Q690.1875,45.0781 689.5,46.1484 Q688.8125,47.2188 688.8125,49.3125 Q688.8125,51.4063 689.5,52.4766 Q690.1875,53.5469 691.5313,53.5469 Q692.1563,53.5469 692.75,53.2734 Q693.3438,53 693.9688,52.4219 L693.9688,55.1406 Z "/><text fill="#000000" font-family="sans-serif" font-size="12" lengthAdjust="spacingAndGlyphs" textLength="134" x="705" y="53.6543">IllegalModelException</text><line style="stroke: #A80036; stroke-width: 1.5;" x1="677" x2="841" y1="65.5" y2="65.5"/><line style="stroke: #A80036; stroke-width: 1.5;" x1="677" x2="841" y1="73.5" y2="73.5"/><ellipse cx="687" cy="85.4023" fill="#84BE84" rx="3" ry="3" style="stroke: #038048; stroke-width: 1.0;"/><text fill="#000000" font-family="sans-serif" font-size="11" lengthAdjust="spacingAndGlyphs" textLength="133" x="696" y="87.7104">void constructor(string)</text><!--class BaseException--><rect fill="#FEFECE" filter="url(#fl6j1p9)" height="48" style="stroke: #A80036; stroke-width: 1.5;" width="124" x="697.5" y="263"/><ellipse cx="712.5" cy="279" fill="#ADD1B2" rx="11" ry="11" style="stroke: #A80036; stroke-width: 1.0;"/><path d="M715.4688,284.6406 Q714.8906,284.9375 714.25,285.0859 Q713.6094,285.2344 712.9063,285.2344 Q710.4063,285.2344 709.0859,283.5859 Q707.7656,281.9375 707.7656,278.8125 Q707.7656,275.6875 709.0859,274.0313 Q710.4063,272.375 712.9063,272.375 Q713.6094,272.375 714.2578,272.5313 Q714.9063,272.6875 715.4688,272.9844 L715.4688,275.7031 Q714.8438,275.125 714.25,274.8516 Q713.6563,274.5781 713.0313,274.5781 Q711.6875,274.5781 711,275.6484 Q710.3125,276.7188 710.3125,278.8125 Q710.3125,280.9063 711,281.9766 Q711.6875,283.0469 713.0313,283.0469 Q713.6563,283.0469 714.25,282.7734 Q714.8438,282.5 715.4688,281.9219 L715.4688,284.6406 Z "/><text fill="#000000" font-family="sans-serif" font-size="12" lengthAdjust="spacingAndGlyphs" textLength="92" x="726.5" y="283.1543">BaseException</text><line style="stroke: #A80036; stroke-width: 1.5;" x1="698.5" x2="820.5" y1="295" y2="295"/><line style="stroke: #A80036; stroke-width: 1.5;" x1="698.5" x2="820.5" y1="303" y2="303"/><!--class RelationshipDeclaration--><rect fill="#FEFECE" filter="url(#fl6j1p9)" height="73.6094" style="stroke: #A80036; stroke-width: 1.5;" width="201" x="439.75" y="27"/><ellipse cx="463.75" cy="43" fill="#ADD1B2" rx="11" ry="11" style="stroke: #A80036; stroke-width: 1.0;"/><path d="M466.7188,48.6406 Q466.1406,48.9375 465.5,49.0859 Q464.8594,49.2344 464.1563,49.2344 Q461.6563,49.2344 460.3359,47.5859 Q459.0156,45.9375 459.0156,42.8125 Q459.0156,39.6875 460.3359,38.0313 Q461.6563,36.375 464.1563,36.375 Q464.8594,36.375 465.5078,36.5313 Q466.1563,36.6875 466.7188,36.9844 L466.7188,39.7031 Q466.0938,39.125 465.5,38.8516 Q464.9063,38.5781 464.2813,38.5781 Q462.9375,38.5781 462.25,39.6484 Q461.5625,40.7188 461.5625,42.8125 Q461.5625,44.9063 462.25,45.9766 Q462.9375,47.0469 464.2813,47.0469 Q464.9063,47.0469 465.5,46.7734 Q466.0938,46.5 466.7188,45.9219 L466.7188,48.6406 Z "/><text fill="#000000" font-family="sans-serif" font-size="12" lengthAdjust="spacingAndGlyphs" textLength="149" x="479.75" y="47.1543">RelationshipDeclaration</text><line style="stroke: #A80036; stroke-width: 1.5;" x1="440.75" x2="639.75" y1="59" y2="59"/><line style="stroke: #A80036; stroke-width: 1.5;" x1="440.75" x2="639.75" y1="67" y2="67"/><ellipse cx="450.75" cy="78.9023" fill="#84BE84" rx="3" ry="3" style="stroke: #038048; stroke-width: 1.0;"/><text fill="#000000" font-family="sans-serif" font-size="11" lengthAdjust="spacingAndGlyphs" textLength="136" x="459.75" y="81.2104">void constructor(Object)</text><rect fill="#F24D5C" height="6" style="stroke: #C82930; stroke-width: 1.0;" width="6" x="447.75" y="88.707"/><text fill="#000000" font-family="sans-serif" font-size="11" lengthAdjust="spacingAndGlyphs" textLength="175" x="459.75" y="94.0151">void validate(ClassDeclaration)</text><!--class ClassDeclaration--><rect fill="#FEFECE" filter="url(#fl6j1p9)" height="214.4609" style="stroke: #A80036; stroke-width: 1.5;" width="215" x="878.75" y="180"/><ellipse cx="929.5" cy="196" fill="#ADD1B2" rx="11" ry="11" style="stroke: #A80036; stroke-width: 1.0;"/><path d="M932.4688,201.6406 Q931.8906,201.9375 931.25,202.0859 Q930.6094,202.2344 929.9063,202.2344 Q927.4063,202.2344 926.0859,200.5859 Q924.7656,198.9375 924.7656,195.8125 Q924.7656,192.6875 926.0859,191.0313 Q927.4063,189.375 929.9063,189.375 Q930.6094,189.375 931.2578,189.5313 Q931.9063,189.6875 932.4688,189.9844 L932.4688,192.7031 Q931.8438,192.125 931.25,191.8516 Q930.6563,191.5781 930.0313,191.5781 Q928.6875,191.5781 928,192.6484 Q927.3125,193.7188 927.3125,195.8125 Q927.3125,197.9063 928,198.9766 Q928.6875,200.0469 930.0313,200.0469 Q930.6563,200.0469 931.25,199.7734 Q931.8438,199.5 932.4688,198.9219 L932.4688,201.6406 Z "/><text fill="#000000" font-family="sans-serif" font-size="12" lengthAdjust="spacingAndGlyphs" textLength="105" x="950" y="200.1543">ClassDeclaration</text><line style="stroke: #A80036; stroke-width: 1.5;" x1="879.75" x2="1092.75" y1="212" y2="212"/><line style="stroke: #A80036; stroke-width: 1.5;" x1="879.75" x2="1092.75" y1="220" y2="220"/><ellipse cx="889.75" cy="231.9023" fill="#84BE84" rx="3" ry="3" style="stroke: #038048; stroke-width: 1.0;"/><text fill="#000000" font-family="sans-serif" font-size="11" lengthAdjust="spacingAndGlyphs" textLength="189" x="898.75" y="234.2104">void constructor(ModelFile,string)</text><rect fill="#F24D5C" height="6" style="stroke: #C82930; stroke-width: 1.0;" width="6" x="886.75" y="241.707"/><text fill="#000000" font-family="sans-serif" font-size="11" lengthAdjust="spacingAndGlyphs" textLength="161" x="898.75" y="247.0151">Object accept(Object,Object)</text><ellipse cx="889.75" cy="257.5117" fill="#84BE84" rx="3" ry="3" style="stroke: #038048; stroke-width: 1.0;"/><text fill="#000000" font-family="sans-serif" font-size="11" lengthAdjust="spacingAndGlyphs" textLength="134" x="898.75" y="259.8198">ModelFile getModelFile()</text><rect fill="#F24D5C" height="6" style="stroke: #C82930; stroke-width: 1.0;" width="6" x="886.75" y="267.3164"/><text fill="#000000" font-family="sans-serif" font-size="11" lengthAdjust="spacingAndGlyphs" textLength="81" x="898.75" y="272.6245">void process()</text><rect fill="#F24D5C" height="6" style="stroke: #C82930; stroke-width: 1.0;" width="6" x="886.75" y="280.1211"/><text fill="#000000" font-family="sans-serif" font-size="11" lengthAdjust="spacingAndGlyphs" textLength="79" x="898.75" y="285.4292">void validate()</text><ellipse cx="889.75" cy="295.9258" fill="#84BE84" rx="3" ry="3" style="stroke: #038048; stroke-width: 1.0;"/><text fill="#000000" font-family="sans-serif" font-size="11" lengthAdjust="spacingAndGlyphs" textLength="96" x="898.75" y="298.2339">string getName()</text><ellipse cx="889.75" cy="308.7305" fill="#84BE84" rx="3" ry="3" style="stroke: #038048; stroke-width: 1.0;"/><text fill="#000000" font-family="sans-serif" font-size="11" lengthAdjust="spacingAndGlyphs" textLength="171" x="898.75" y="311.0386">string getFullyQualifiedName()</text><ellipse cx="889.75" cy="321.5352" fill="#84BE84" rx="3" ry="3" style="stroke: #038048; stroke-width: 1.0;"/><text fill="#000000" font-family="sans-serif" font-size="11" lengthAdjust="spacingAndGlyphs" textLength="172" x="898.75" y="323.8433">string getIdentifierFieldName()</text><ellipse cx="889.75" cy="334.3398" fill="#84BE84" rx="3" ry="3" style="stroke: #038048; stroke-width: 1.0;"/><text fill="#000000" font-family="sans-serif" font-size="11" lengthAdjust="spacingAndGlyphs" textLength="184" x="898.75" y="336.6479">Property getOwnProperty(string)</text><ellipse cx="889.75" cy="347.1445" fill="#84BE84" rx="3" ry="3" style="stroke: #038048; stroke-width: 1.0;"/><text fill="#000000" font-family="sans-serif" font-size="11" lengthAdjust="spacingAndGlyphs" textLength="170" x="898.75" y="349.4526">Property[] getOwnProperties()</text><ellipse cx="889.75" cy="359.9492" fill="#84BE84" rx="3" ry="3" style="stroke: #038048; stroke-width: 1.0;"/><text fill="#000000" font-family="sans-serif" font-size="11" lengthAdjust="spacingAndGlyphs" textLength="124" x="898.75" y="362.2573">string getSuperType()</text><ellipse cx="889.75" cy="372.7539" fill="#84BE84" rx="3" ry="3" style="stroke: #038048; stroke-width: 1.0;"/><text fill="#000000" font-family="sans-serif" font-size="11" lengthAdjust="spacingAndGlyphs" textLength="159" x="898.75" y="375.062">Property getProperty(string)</text><ellipse cx="889.75" cy="385.5586" fill="#84BE84" rx="3" ry="3" style="stroke: #038048; stroke-width: 1.0;"/><text fill="#000000" font-family="sans-serif" font-size="11" lengthAdjust="spacingAndGlyphs" textLength="145" x="898.75" y="387.8667">Property[] getProperties()</text><!--class TransactionDeclaration--><rect fill="#FEFECE" filter="url(#fl6j1p9)" height="60.8047" style="stroke: #A80036; stroke-width: 1.5;" width="218" x="877" y="33.5"/><ellipse cx="910" cy="49.5" fill="#ADD1B2" rx="11" ry="11" style="stroke: #A80036; stroke-width: 1.0;"/><path d="M912.9688,55.1406 Q912.3906,55.4375 911.75,55.5859 Q911.1094,55.7344 910.4063,55.7344 Q907.9063,55.7344 906.5859,54.0859 Q905.2656,52.4375 905.2656,49.3125 Q905.2656,46.1875 906.5859,44.5313 Q907.9063,42.875 910.4063,42.875 Q911.1094,42.875 911.7578,43.0313 Q912.4063,43.1875 912.9688,43.4844 L912.9688,46.2031 Q912.3438,45.625 911.75,45.3516 Q911.1563,45.0781 910.5313,45.0781 Q909.1875,45.0781 908.5,46.1484 Q907.8125,47.2188 907.8125,49.3125 Q907.8125,51.4063 908.5,52.4766 Q909.1875,53.5469 910.5313,53.5469 Q911.1563,53.5469 911.75,53.2734 Q912.3438,53 912.9688,52.4219 L912.9688,55.1406 Z "/><text fill="#000000" font-family="sans-serif" font-size="12" lengthAdjust="spacingAndGlyphs" textLength="146" x="928" y="53.6543">TransactionDeclaration</text><line style="stroke: #A80036; stroke-width: 1.5;" x1="878" x2="1094" y1="65.5" y2="65.5"/><line style="stroke: #A80036; stroke-width: 1.5;" x1="878" x2="1094" y1="73.5" y2="73.5"/><ellipse cx="888" cy="85.4023" fill="#84BE84" rx="3" ry="3" style="stroke: #038048; stroke-width: 1.0;"/><text fill="#000000" font-family="sans-serif" font-size="11" lengthAdjust="spacingAndGlyphs" textLength="192" x="897" y="87.7104">void constructor(ModelFile,Object)</text><path d="M141.198,120.198 C164.183,143.606 191.548,171.475 217.221,197.622 " fill="none" style="stroke: #A80036; stroke-width: 1.0;"/><polygon fill="none" points="222.254,192.756,231.272,211.931,212.265,202.565,222.254,192.756" style="stroke: #A80036; stroke-width: 1.0;"/><path d="M304,101.494 C304,126.149 304,159.902 304,191.802 " fill="none" style="stroke: #A80036; stroke-width: 1.0;"/><polygon fill="none" points="311,191.853,304,211.853,297,191.853,311,191.853" style="stroke: #A80036; stroke-width: 1.0;"/><path d="M759,94.805 C759,132.817 759,198.841 759,242.482 " fill="none" style="stroke: #A80036; stroke-width: 1.0;"/><polygon fill="none" points="766,242.718,759,262.718,752,242.718,766,242.718" style="stroke: #A80036; stroke-width: 1.0;"/><path d="M501.294,101.246 C473.25,127.507 434.086,164.182 398.037,197.94 " fill="none" style="stroke: #A80036; stroke-width: 1.0;"/><polygon fill="none" points="402.735,203.131,383.352,211.692,393.165,192.912,402.735,203.131" style="stroke: #A80036; stroke-width: 1.0;"/><path d="M986,94.805 C986,112.196 986,135.451 986,159.743 " fill="none" style="stroke: #A80036; stroke-width: 1.0;"/><polygon fill="none" points="993,159.819,986,179.819,979,159.819,993,159.819" style="stroke: #A80036; stroke-width: 1.0;"/></g></svg>