<?xml version="1.0" encoding="UTF-8" standalone="no"?><svg xmlns="http://www.w3.org/2000/svg" xmlns:xlink="http://www.w3.org/1999/xlink" contentScriptType="application/ecmascript" contentStyleType="text/css" height="347px" preserveAspectRatio="none" style="width:722px;height:347px;" version="1.1" viewBox="0 0 722 347" width="722px" zoomAndPan="magnify"><defs><filter height="300%" id="flgukyt" width="300%" x="-1" y="-1"><feGaussianBlur result="blurOut" stdDeviation="2.0"/><feColorMatrix in="blurOut" result="blurOut2" type="matrix" values="0 0 0 0 0 0 0 0 0 0 0 0 0 0 0 0 0 0 .4 0"/><feOffset dx="4.0" dy="4.0" in="blurOut2" result="blurOut3"/><feBlend in="SourceGraphic" in2="blurOut3" mode="normal"/></filter></defs><g><!--class BaseException--><rect fill="#FEFECE" filter="url(#flgukyt)" height="60.8047" style="stroke: #A80036; stroke-width: 1.5;" width="159" x="6" y="168.5"/><ellipse cx="36.75" cy="184.5" fill="#ADD1B2" rx="11" ry="11" style="stroke: #A80036; stroke-width: 1.0;"/><path d="M39.7188,190.1406 Q39.1406,190.4375 38.5,190.5859 Q37.8594,190.7344 37.1563,190.7344 Q34.6563,190.7344 33.3359,189.0859 Q32.0156,187.4375 32.0156,184.3125 Q32.0156,181.1875 33.3359,179.5313 Q34.6563,177.875 37.1563,177.875 Q37.8594,177.875 38.5078,178.0313 Q39.1563,178.1875 39.7188,178.4844 L39.7188,181.2031 Q39.0938,180.625 38.5,180.3516 Q37.9063,180.0781 37.2813,180.0781 Q35.9375,180.0781 35.25,181.1484 Q34.5625,182.2188 34.5625,184.3125 Q34.5625,186.4063 35.25,187.4766 Q35.9375,188.5469 37.2813,188.5469 Q37.9063,188.5469 38.5,188.2734 Q39.0938,188 39.7188,187.4219 L39.7188,190.1406 Z "/><text fill="#000000" font-family="sans-serif" font-size="12" lengthAdjust="spacingAndGlyphs" textLength="92" x="54.25" y="188.6543">BaseException</text><line style="stroke: #A80036; stroke-width: 1.5;" x1="7" x2="164" y1="200.5" y2="200.5"/><line style="stroke: #A80036; stroke-width: 1.5;" x1="7" x2="164" y1="208.5" y2="208.5"/><ellipse cx="17" cy="220.4023" fill="#84BE84" rx="3" ry="3" style="stroke: #038048; stroke-width: 1.0;"/><text fill="#000000" font-family="sans-serif" font-size="11" lengthAdjust="spacingAndGlyphs" textLength="133" x="26" y="222.7104">void constructor(string)</text><!--class Error--><rect fill="#FEFECE" filter="url(#flgukyt)" height="48" style="stroke: #A80036; stroke-width: 1.5;" width="63" x="54" y="290"/><ellipse cx="69" cy="306" fill="#ADD1B2" rx="11" ry="11" style="stroke: #A80036; stroke-width: 1.0;"/><path d="M71.9688,311.6406 Q71.3906,311.9375 70.75,312.0859 Q70.1094,312.2344 69.4063,312.2344 Q66.9063,312.2344 65.5859,310.5859 Q64.2656,308.9375 64.2656,305.8125 Q64.2656,302.6875 65.5859,301.0313 Q66.9063,299.375 69.4063,299.375 Q70.1094,299.375 70.7578,299.5313 Q71.4063,299.6875 71.9688,299.9844 L71.9688,302.7031 Q71.3438,302.125 70.75,301.8516 Q70.1563,301.5781 69.5313,301.5781 Q68.1875,301.5781 67.5,302.6484 Q66.8125,303.7188 66.8125,305.8125 Q66.8125,307.9063 67.5,308.9766 Q68.1875,310.0469 69.5313,310.0469 Q70.1563,310.0469 70.75,309.7734 Q71.3438,309.5 71.9688,308.9219 L71.9688,311.6406 Z "/><text fill="#000000" font-family="sans-serif" font-size="12" lengthAdjust="spacingAndGlyphs" textLength="31" x="83" y="310.1543">Error</text><line style="stroke: #A80036; stroke-width: 1.5;" x1="55" x2="116" y1="322" y2="322"/><line style="stroke: #A80036; stroke-width: 1.5;" x1="55" x2="116" y1="330" y2="330"/><!--class SecurityException--><rect fill="#FEFECE" filter="url(#flgukyt)" height="60.8047" style="stroke: #A80036; stroke-width: 1.5;" width="159" x="6" y="27.5"/><ellipse cx="28.2" cy="43.5" fill="#ADD1B2" rx="11" ry="11" style="stroke: #A80036; stroke-width: 1.0;"/><path d="M31.1688,49.1406 Q30.5906,49.4375 29.95,49.5859 Q29.3094,49.7344 28.6063,49.7344 Q26.1063,49.7344 24.7859,48.0859 Q23.4656,46.4375 23.4656,43.3125 Q23.4656,40.1875 24.7859,38.5313 Q26.1063,36.875 28.6063,36.875 Q29.3094,36.875 29.9578,37.0313 Q30.6063,37.1875 31.1688,37.4844 L31.1688,40.2031 Q30.5438,39.625 29.95,39.3516 Q29.3563,39.0781 28.7313,39.0781 Q27.3875,39.0781 26.7,40.1484 Q26.0125,41.2188 26.0125,43.3125 Q26.0125,45.4063 26.7,46.4766 Q27.3875,47.5469 28.7313,47.5469 Q29.3563,47.5469 29.95,47.2734 Q30.5438,47 31.1688,46.4219 L31.1688,49.1406 Z "/><text fill="#000000" font-family="sans-serif" font-size="12" lengthAdjust="spacingAndGlyphs" textLength="111" x="43.8" y="47.6543">SecurityException</text><line style="stroke: #A80036; stroke-width: 1.5;" x1="7" x2="164" y1="59.5" y2="59.5"/><line style="stroke: #A80036; stroke-width: 1.5;" x1="7" x2="164" y1="67.5" y2="67.5"/><ellipse cx="17" cy="79.4023" fill="#84BE84" rx="3" ry="3" style="stroke: #038048; stroke-width: 1.0;"/><text fill="#000000" font-family="sans-serif" font-size="11" lengthAdjust="spacingAndGlyphs" textLength="133" x="26" y="81.7104">void constructor(string)</text><!--class globalize--><rect fill="#FEFECE" filter="url(#flgukyt)" height="48" style="stroke: #A80036; stroke-width: 1.5;" width="86" x="200.25" y="34"/><ellipse cx="215.25" cy="50" fill="#DA70D6" rx="11" ry="11" style="stroke: #A80036; stroke-width: 1.0;"/><path d="M215.0469,45.6719 L215.0469,49.2969 L216.0469,49.2969 Q217.25,49.2969 217.7344,48.8906 Q218.2188,48.4844 218.2188,47.4844 Q218.2188,46.4844 217.7344,46.0781 Q217.25,45.6719 216.0469,45.6719 L215.0469,45.6719 Z M212.5938,43.6094 L215.9531,43.6094 Q218.5156,43.6094 219.6406,44.5234 Q220.7656,45.4375 220.7656,47.4844 Q220.7656,49.5313 219.6406,50.4453 Q218.5156,51.3594 215.9531,51.3594 L215.0469,51.3594 L215.0469,56 L212.5938,56 L212.5938,43.6094 Z "/><text fill="#000000" font-family="sans-serif" font-size="12" lengthAdjust="spacingAndGlyphs" textLength="54" x="229.25" y="54.1543">globalize</text><line style="stroke: #A80036; stroke-width: 1.5;" x1="201.25" x2="285.25" y1="66" y2="66"/><line style="stroke: #A80036; stroke-width: 1.5;" x1="201.25" x2="285.25" y1="74" y2="74"/><!--class Util--><rect fill="#FEFECE" filter="url(#flgukyt)" height="99.2188" style="stroke: #A80036; stroke-width: 1.5;" width="391" x="322" y="8.5"/><ellipse cx="503.25" cy="24.5" fill="#ADD1B2" rx="11" ry="11" style="stroke: #A80036; stroke-width: 1.0;"/><path d="M506.2188,30.1406 Q505.6406,30.4375 505,30.5859 Q504.3594,30.7344 503.6563,30.7344 Q501.1563,30.7344 499.8359,29.0859 Q498.5156,27.4375 498.5156,24.3125 Q498.5156,21.1875 499.8359,19.5313 Q501.1563,17.875 503.6563,17.875 Q504.3594,17.875 505.0078,18.0313 Q505.6563,18.1875 506.2188,18.4844 L506.2188,21.2031 Q505.5938,20.625 505,20.3516 Q504.4063,20.0781 503.7813,20.0781 Q502.4375,20.0781 501.75,21.1484 Q501.0625,22.2188 501.0625,24.3125 Q501.0625,26.4063 501.75,27.4766 Q502.4375,28.5469 503.7813,28.5469 Q504.4063,28.5469 505,28.2734 Q505.5938,28 506.2188,27.4219 L506.2188,30.1406 Z "/><text fill="#000000" font-family="sans-serif" font-size="12" lengthAdjust="spacingAndGlyphs" textLength="20" x="523.75" y="28.6543">Util</text><line style="stroke: #A80036; stroke-width: 1.5;" x1="323" x2="712" y1="40.5" y2="40.5"/><line style="stroke: #A80036; stroke-width: 1.5;" x1="323" x2="712" y1="48.5" y2="48.5"/><ellipse cx="333" cy="60.4023" fill="#84BE84" rx="3" ry="3" style="stroke: #038048; stroke-width: 1.0;"/><text fill="#000000" font-family="sans-serif" font-size="11" lengthAdjust="spacingAndGlyphs" textLength="203" x="342" y="62.7104">void securityCheck(SecurityContext)</text><ellipse cx="333" cy="73.207" fill="#84BE84" rx="3" ry="3" style="stroke: #038048; stroke-width: 1.0;"/><text fill="#000000" font-family="sans-serif" font-size="11" lengthAdjust="spacingAndGlyphs" textLength="323" x="342" y="75.5151">Promise queryChainCode(SecurityContext,string,string[])</text><ellipse cx="333" cy="86.0117" fill="#84BE84" rx="3" ry="3" style="stroke: #038048; stroke-width: 1.0;"/><text fill="#000000" font-family="sans-serif" font-size="11" lengthAdjust="spacingAndGlyphs" textLength="327" x="342" y="88.3198">Promise invokeChainCode(SecurityContext,string,string[])</text><ellipse cx="333" cy="98.8164" fill="#84BE84" rx="3" ry="3" style="stroke: #038048; stroke-width: 1.0;"/><text fill="#000000" font-family="sans-serif" font-size="11" lengthAdjust="spacingAndGlyphs" textLength="365" x="342" y="101.1245">Promise deployChainCode(SecurityContext,string,string,string[])</text><path d="M85.25,229.689 C85.25,241.9011 85.25,256.2881 85.25,269.6388 " fill="none" style="stroke: #A80036; stroke-width: 1.0;"/><polygon fill="none" points="92.2501,269.9284,85.25,289.9284,78.2501,269.9283,92.2501,269.9284" style="stroke: #A80036; stroke-width: 1.0;"/><path d="M85.25,88.819 C85.25,106.042 85.25,128.154 85.25,147.97 " fill="none" style="stroke: #A80036; stroke-width: 1.0;"/><polygon fill="none" points="92.2501,148.23,85.25,168.23,78.2501,148.23,92.2501,148.23" style="stroke: #A80036; stroke-width: 1.0;"/></g></svg>