<?xml version="1.0" encoding="UTF-8" standalone="no"?><svg xmlns="http://www.w3.org/2000/svg" xmlns:xlink="http://www.w3.org/1999/xlink" contentScriptType="application/ecmascript" contentStyleType="text/css" height="391px" preserveAspectRatio="none" style="width:478px;height:391px;" version="1.1" viewBox="0 0 478 391" width="478px" zoomAndPan="magnify"><defs><filter height="300%" id="f3vhux1" width="300%" x="-1" y="-1"><feGaussianBlur result="blurOut" stdDeviation="2.0"/><feColorMatrix in="blurOut" result="blurOut2" type="matrix" values="0 0 0 0 0 0 0 0 0 0 0 0 0 0 0 0 0 0 .4 0"/><feOffset dx="4.0" dy="4.0" in="blurOut2" result="blurOut3"/><feBlend in="SourceGraphic" in2="blurOut3" mode="normal"/></filter></defs><g><!--class Property--><rect fill="#FEFECE" filter="url(#f3vhux1)" height="240.0703" style="stroke: #A80036; stroke-width: 1.5;" width="262" x="6" y="142"/><ellipse cx="106.25" cy="158" fill="#ADD1B2" rx="11" ry="11" style="stroke: #A80036; stroke-width: 1.0;"/><path d="M109.2188,163.6406 Q108.6406,163.9375 108,164.0859 Q107.3594,164.2344 106.6563,164.2344 Q104.1563,164.2344 102.8359,162.5859 Q101.5156,160.9375 101.5156,157.8125 Q101.5156,154.6875 102.8359,153.0313 Q104.1563,151.375 106.6563,151.375 Q107.3594,151.375 108.0078,151.5313 Q108.6563,151.6875 109.2188,151.9844 L109.2188,154.7031 Q108.5938,154.125 108,153.8516 Q107.4063,153.5781 106.7813,153.5781 Q105.4375,153.5781 104.75,154.6484 Q104.0625,155.7188 104.0625,157.8125 Q104.0625,159.9063 104.75,160.9766 Q105.4375,162.0469 106.7813,162.0469 Q107.4063,162.0469 108,161.7734 Q108.5938,161.5 109.2188,160.9219 L109.2188,163.6406 Z "/><text fill="#000000" font-family="sans-serif" font-size="12" lengthAdjust="spacingAndGlyphs" textLength="53" x="126.75" y="162.1543">Property</text><line style="stroke: #A80036; stroke-width: 1.5;" x1="7" x2="267" y1="174" y2="174"/><line style="stroke: #A80036; stroke-width: 1.5;" x1="7" x2="267" y1="182" y2="182"/><ellipse cx="17" cy="193.9023" fill="#84BE84" rx="3" ry="3" style="stroke: #038048; stroke-width: 1.0;"/><text fill="#000000" font-family="sans-serif" font-size="11" lengthAdjust="spacingAndGlyphs" textLength="236" x="26" y="196.2104">void constructor(ClassDeclaration,Object)</text><rect fill="#F24D5C" height="6" style="stroke: #C82930; stroke-width: 1.0;" width="6" x="14" y="203.707"/><text fill="#000000" font-family="sans-serif" font-size="11" lengthAdjust="spacingAndGlyphs" textLength="161" x="26" y="209.0151">Object accept(Object,Object)</text><ellipse cx="17" cy="219.5117" fill="#84BE84" rx="3" ry="3" style="stroke: #038048; stroke-width: 1.0;"/><text fill="#000000" font-family="sans-serif" font-size="11" lengthAdjust="spacingAndGlyphs" textLength="163" x="26" y="221.8198">ClassDeclaration getParent()</text><rect fill="#F24D5C" height="6" style="stroke: #C82930; stroke-width: 1.0;" width="6" x="14" y="229.3164"/><text fill="#000000" font-family="sans-serif" font-size="11" lengthAdjust="spacingAndGlyphs" textLength="81" x="26" y="234.6245">void process()</text><rect fill="#F24D5C" height="6" style="stroke: #C82930; stroke-width: 1.0;" width="6" x="14" y="242.1211"/><text fill="#000000" font-family="sans-serif" font-size="11" lengthAdjust="spacingAndGlyphs" textLength="175" x="26" y="247.4292">void validate(ClassDeclaration)</text><ellipse cx="17" cy="257.9258" fill="#84BE84" rx="3" ry="3" style="stroke: #038048; stroke-width: 1.0;"/><text fill="#000000" font-family="sans-serif" font-size="11" lengthAdjust="spacingAndGlyphs" textLength="96" x="26" y="260.2339">string getName()</text><ellipse cx="17" cy="270.7305" fill="#84BE84" rx="3" ry="3" style="stroke: #038048; stroke-width: 1.0;"/><text fill="#000000" font-family="sans-serif" font-size="11" lengthAdjust="spacingAndGlyphs" textLength="90" x="26" y="273.0386">string getType()</text><ellipse cx="17" cy="283.5352" fill="#84BE84" rx="3" ry="3" style="stroke: #038048; stroke-width: 1.0;"/><text fill="#000000" font-family="sans-serif" font-size="11" lengthAdjust="spacingAndGlyphs" textLength="114" x="26" y="285.8433">boolean isOptional()</text><ellipse cx="17" cy="296.3398" fill="#84BE84" rx="3" ry="3" style="stroke: #038048; stroke-width: 1.0;"/><text fill="#000000" font-family="sans-serif" font-size="11" lengthAdjust="spacingAndGlyphs" textLength="198" x="26" y="298.6479">string getFullyQualifiedTypeName()</text><ellipse cx="17" cy="309.1445" fill="#84BE84" rx="3" ry="3" style="stroke: #038048; stroke-width: 1.0;"/><text fill="#000000" font-family="sans-serif" font-size="11" lengthAdjust="spacingAndGlyphs" textLength="130" x="26" y="311.4526">string getNamespace()</text><ellipse cx="17" cy="321.9492" fill="#84BE84" rx="3" ry="3" style="stroke: #038048; stroke-width: 1.0;"/><text fill="#000000" font-family="sans-serif" font-size="11" lengthAdjust="spacingAndGlyphs" textLength="97" x="26" y="324.2573">boolean isArray()</text><ellipse cx="17" cy="334.7539" fill="#84BE84" rx="3" ry="3" style="stroke: #038048; stroke-width: 1.0;"/><text fill="#000000" font-family="sans-serif" font-size="11" lengthAdjust="spacingAndGlyphs" textLength="126" x="26" y="337.062">boolean isTypeEnum()</text><ellipse cx="17" cy="347.5586" fill="#84BE84" rx="3" ry="3" style="stroke: #038048; stroke-width: 1.0;"/><text fill="#000000" font-family="sans-serif" font-size="11" lengthAdjust="spacingAndGlyphs" textLength="116" x="26" y="349.8667">boolean isPrimitive()</text><ellipse cx="17" cy="360.3633" fill="#84BE84" rx="3" ry="3" style="stroke: #038048; stroke-width: 1.0;"/><text fill="#000000" font-family="sans-serif" font-size="11" lengthAdjust="spacingAndGlyphs" textLength="91" x="26" y="362.6714">String toString()</text><ellipse cx="17" cy="373.168" fill="#84BE84" rx="3" ry="3" style="stroke: #038048; stroke-width: 1.0;"/><text fill="#000000" font-family="sans-serif" font-size="11" lengthAdjust="spacingAndGlyphs" textLength="87" x="26" y="375.4761">Object toJSON()</text><!--class IllegalModelException--><rect fill="#FEFECE" filter="url(#f3vhux1)" height="60.8047" style="stroke: #A80036; stroke-width: 1.5;" width="166" x="303" y="14.5"/><ellipse cx="318" cy="30.5" fill="#ADD1B2" rx="11" ry="11" style="stroke: #A80036; stroke-width: 1.0;"/><path d="M320.9688,36.1406 Q320.3906,36.4375 319.75,36.5859 Q319.1094,36.7344 318.4063,36.7344 Q315.9063,36.7344 314.5859,35.0859 Q313.2656,33.4375 313.2656,30.3125 Q313.2656,27.1875 314.5859,25.5313 Q315.9063,23.875 318.4063,23.875 Q319.1094,23.875 319.7578,24.0313 Q320.4063,24.1875 320.9688,24.4844 L320.9688,27.2031 Q320.3438,26.625 319.75,26.3516 Q319.1563,26.0781 318.5313,26.0781 Q317.1875,26.0781 316.5,27.1484 Q315.8125,28.2188 315.8125,30.3125 Q315.8125,32.4063 316.5,33.4766 Q317.1875,34.5469 318.5313,34.5469 Q319.1563,34.5469 319.75,34.2734 Q320.3438,34 320.9688,33.4219 L320.9688,36.1406 Z "/><text fill="#000000" font-family="sans-serif" font-size="12" lengthAdjust="spacingAndGlyphs" textLength="134" x="332" y="34.6543">IllegalModelException</text><line style="stroke: #A80036; stroke-width: 1.5;" x1="304" x2="468" y1="46.5" y2="46.5"/><line style="stroke: #A80036; stroke-width: 1.5;" x1="304" x2="468" y1="54.5" y2="54.5"/><ellipse cx="314" cy="66.4023" fill="#84BE84" rx="3" ry="3" style="stroke: #038048; stroke-width: 1.0;"/><text fill="#000000" font-family="sans-serif" font-size="11" lengthAdjust="spacingAndGlyphs" textLength="133" x="323" y="68.7104">void constructor(string)</text><!--class BaseException--><rect fill="#FEFECE" filter="url(#f3vhux1)" height="48" style="stroke: #A80036; stroke-width: 1.5;" width="124" x="324.5" y="238"/><ellipse cx="339.5" cy="254" fill="#ADD1B2" rx="11" ry="11" style="stroke: #A80036; stroke-width: 1.0;"/><path d="M342.4688,259.6406 Q341.8906,259.9375 341.25,260.0859 Q340.6094,260.2344 339.9063,260.2344 Q337.4063,260.2344 336.0859,258.5859 Q334.7656,256.9375 334.7656,253.8125 Q334.7656,250.6875 336.0859,249.0313 Q337.4063,247.375 339.9063,247.375 Q340.6094,247.375 341.2578,247.5313 Q341.9063,247.6875 342.4688,247.9844 L342.4688,250.7031 Q341.8438,250.125 341.25,249.8516 Q340.6563,249.5781 340.0313,249.5781 Q338.6875,249.5781 338,250.6484 Q337.3125,251.7188 337.3125,253.8125 Q337.3125,255.9063 338,256.9766 Q338.6875,258.0469 340.0313,258.0469 Q340.6563,258.0469 341.25,257.7734 Q341.8438,257.5 342.4688,256.9219 L342.4688,259.6406 Z "/><text fill="#000000" font-family="sans-serif" font-size="12" lengthAdjust="spacingAndGlyphs" textLength="92" x="353.5" y="258.1543">BaseException</text><line style="stroke: #A80036; stroke-width: 1.5;" x1="325.5" x2="447.5" y1="270" y2="270"/><line style="stroke: #A80036; stroke-width: 1.5;" x1="325.5" x2="447.5" y1="278" y2="278"/><!--class RelationshipDeclaration--><rect fill="#FEFECE" filter="url(#f3vhux1)" height="73.6094" style="stroke: #A80036; stroke-width: 1.5;" width="262" x="6" y="8"/><ellipse cx="58.25" cy="24" fill="#ADD1B2" rx="11" ry="11" style="stroke: #A80036; stroke-width: 1.0;"/><path d="M61.2188,29.6406 Q60.6406,29.9375 60,30.0859 Q59.3594,30.2344 58.6563,30.2344 Q56.1563,30.2344 54.8359,28.5859 Q53.5156,26.9375 53.5156,23.8125 Q53.5156,20.6875 54.8359,19.0313 Q56.1563,17.375 58.6563,17.375 Q59.3594,17.375 60.0078,17.5313 Q60.6563,17.6875 61.2188,17.9844 L61.2188,20.7031 Q60.5938,20.125 60,19.8516 Q59.4063,19.5781 58.7813,19.5781 Q57.4375,19.5781 56.75,20.6484 Q56.0625,21.7188 56.0625,23.8125 Q56.0625,25.9063 56.75,26.9766 Q57.4375,28.0469 58.7813,28.0469 Q59.4063,28.0469 60,27.7734 Q60.5938,27.5 61.2188,26.9219 L61.2188,29.6406 Z "/><text fill="#000000" font-family="sans-serif" font-size="12" lengthAdjust="spacingAndGlyphs" textLength="149" x="78.75" y="28.1543">RelationshipDeclaration</text><line style="stroke: #A80036; stroke-width: 1.5;" x1="7" x2="267" y1="40" y2="40"/><line style="stroke: #A80036; stroke-width: 1.5;" x1="7" x2="267" y1="48" y2="48"/><ellipse cx="17" cy="59.9023" fill="#84BE84" rx="3" ry="3" style="stroke: #038048; stroke-width: 1.0;"/><text fill="#000000" font-family="sans-serif" font-size="11" lengthAdjust="spacingAndGlyphs" textLength="236" x="26" y="62.2104">void constructor(ClassDeclaration,Object)</text><rect fill="#F24D5C" height="6" style="stroke: #C82930; stroke-width: 1.0;" width="6" x="14" y="69.707"/><text fill="#000000" font-family="sans-serif" font-size="11" lengthAdjust="spacingAndGlyphs" textLength="175" x="26" y="75.0151">void validate(ClassDeclaration)</text><path d="M386,75.895 C386,112.754 386,175.678 386,217.792 " fill="none" style="stroke: #A80036; stroke-width: 1.0;"/><polygon fill="none" points="393,217.94,386,237.94,379,217.94,393,217.94" style="stroke: #A80036; stroke-width: 1.0;"/><path d="M137,82.472 C137,93.872 137,107.201 137,121.349 " fill="none" style="stroke: #A80036; stroke-width: 1.0;"/><polygon fill="none" points="144,121.779,137,141.779,130,121.779,144,121.779" style="stroke: #A80036; stroke-width: 1.0;"/></g></svg>