<?xml version="1.0" encoding="UTF-8" standalone="no"?><svg xmlns="http://www.w3.org/2000/svg" xmlns:xlink="http://www.w3.org/1999/xlink" contentScriptType="application/ecmascript" contentStyleType="text/css" height="461px" preserveAspectRatio="none" style="width:645px;height:461px;" version="1.1" viewBox="0 0 645 461" width="645px" zoomAndPan="magnify"><defs><filter height="300%" id="fz8hmch" width="300%" x="-1" y="-1"><feGaussianBlur result="blurOut" stdDeviation="2.0"/><feColorMatrix in="blurOut" result="blurOut2" type="matrix" values="0 0 0 0 0 0 0 0 0 0 0 0 0 0 0 0 0 0 .4 0"/><feOffset dx="4.0" dy="4.0" in="blurOut2" result="blurOut3"/><feBlend in="SourceGraphic" in2="blurOut3" mode="normal"/></filter></defs><g><!--class SecurityContext--><rect fill="#FEFECE" filter="url(#fz8hmch)" height="163.2422" style="stroke: #A80036; stroke-width: 1.5;" width="238" x="82.25" y="8.5"/><ellipse cx="148" cy="24.5" fill="#ADD1B2" rx="11" ry="11" style="stroke: #A80036; stroke-width: 1.0;"/><path d="M150.9688,30.1406 Q150.3906,30.4375 149.75,30.5859 Q149.1094,30.7344 148.4063,30.7344 Q145.9063,30.7344 144.5859,29.0859 Q143.2656,27.4375 143.2656,24.3125 Q143.2656,21.1875 144.5859,19.5313 Q145.9063,17.875 148.4063,17.875 Q149.1094,17.875 149.7578,18.0313 Q150.4063,18.1875 150.9688,18.4844 L150.9688,21.2031 Q150.3438,20.625 149.75,20.3516 Q149.1563,20.0781 148.5313,20.0781 Q147.1875,20.0781 146.5,21.1484 Q145.8125,22.2188 145.8125,24.3125 Q145.8125,26.4063 146.5,27.4766 Q147.1875,28.5469 148.5313,28.5469 Q149.1563,28.5469 149.75,28.2734 Q150.3438,28 150.9688,27.4219 L150.9688,30.1406 Z "/><text fill="#000000" font-family="sans-serif" font-size="12" lengthAdjust="spacingAndGlyphs" textLength="98" x="168.5" y="28.6543">SecurityContext</text><line style="stroke: #A80036; stroke-width: 1.5;" x1="83.25" x2="319.25" y1="40.5" y2="40.5"/><line style="stroke: #A80036; stroke-width: 1.5;" x1="83.25" x2="319.25" y1="48.5" y2="48.5"/><ellipse cx="93.25" cy="60.4023" fill="#84BE84" rx="3" ry="3" style="stroke: #038048; stroke-width: 1.0;"/><text fill="#000000" font-family="sans-serif" font-size="11" lengthAdjust="spacingAndGlyphs" textLength="170" x="102.25" y="62.7104">void constructor(string,string)</text><ellipse cx="93.25" cy="73.207" fill="#84BE84" rx="3" ry="3" style="stroke: #038048; stroke-width: 1.0;"/><text fill="#000000" font-family="sans-serif" font-size="11" lengthAdjust="spacingAndGlyphs" textLength="90" x="102.25" y="75.5151">string getUser()</text><ellipse cx="93.25" cy="86.0117" fill="#84BE84" rx="3" ry="3" style="stroke: #038048; stroke-width: 1.0;"/><text fill="#000000" font-family="sans-serif" font-size="11" lengthAdjust="spacingAndGlyphs" textLength="119" x="102.25" y="88.3198">string getPassword()</text><ellipse cx="93.25" cy="98.8164" fill="#84BE84" rx="3" ry="3" style="stroke: #038048; stroke-width: 1.0;"/><text fill="#000000" font-family="sans-serif" font-size="11" lengthAdjust="spacingAndGlyphs" textLength="189" x="102.25" y="101.1245">hfc.Member getEnrolledMember()</text><ellipse cx="93.25" cy="111.6211" fill="#84BE84" rx="3" ry="3" style="stroke: #038048; stroke-width: 1.0;"/><text fill="#000000" font-family="sans-serif" font-size="11" lengthAdjust="spacingAndGlyphs" textLength="212" x="102.25" y="113.9292">void setEnrolledMember(hfc.Member)</text><ellipse cx="93.25" cy="124.4258" fill="#84BE84" rx="3" ry="3" style="stroke: #038048; stroke-width: 1.0;"/><text fill="#000000" font-family="sans-serif" font-size="11" lengthAdjust="spacingAndGlyphs" textLength="133" x="102.25" y="126.7339">string getChaincodeID()</text><ellipse cx="93.25" cy="137.2305" fill="#84BE84" rx="3" ry="3" style="stroke: #038048; stroke-width: 1.0;"/><text fill="#000000" font-family="sans-serif" font-size="11" lengthAdjust="spacingAndGlyphs" textLength="156" x="102.25" y="139.5386">void setChaincodeID(string)</text><ellipse cx="93.25" cy="150.0352" fill="#84BE84" rx="3" ry="3" style="stroke: #038048; stroke-width: 1.0;"/><text fill="#000000" font-family="sans-serif" font-size="11" lengthAdjust="spacingAndGlyphs" textLength="157" x="102.25" y="152.3433">hfc.EventHub getEventHub()</text><ellipse cx="93.25" cy="162.8398" fill="#84BE84" rx="3" ry="3" style="stroke: #038048; stroke-width: 1.0;"/><text fill="#000000" font-family="sans-serif" font-size="11" lengthAdjust="spacingAndGlyphs" textLength="180" x="102.25" y="165.1479">void setEventHub(hfc.EventHub)</text><!--class BaseException--><rect fill="#FEFECE" filter="url(#fz8hmch)" height="60.8047" style="stroke: #A80036; stroke-width: 1.5;" width="159" x="477" y="257.5"/><ellipse cx="507.75" cy="273.5" fill="#ADD1B2" rx="11" ry="11" style="stroke: #A80036; stroke-width: 1.0;"/><path d="M510.7188,279.1406 Q510.1406,279.4375 509.5,279.5859 Q508.8594,279.7344 508.1563,279.7344 Q505.6563,279.7344 504.3359,278.0859 Q503.0156,276.4375 503.0156,273.3125 Q503.0156,270.1875 504.3359,268.5313 Q505.6563,266.875 508.1563,266.875 Q508.8594,266.875 509.5078,267.0313 Q510.1563,267.1875 510.7188,267.4844 L510.7188,270.2031 Q510.0938,269.625 509.5,269.3516 Q508.9063,269.0781 508.2813,269.0781 Q506.9375,269.0781 506.25,270.1484 Q505.5625,271.2188 505.5625,273.3125 Q505.5625,275.4063 506.25,276.4766 Q506.9375,277.5469 508.2813,277.5469 Q508.9063,277.5469 509.5,277.2734 Q510.0938,277 510.7188,276.4219 L510.7188,279.1406 Z "/><text fill="#000000" font-family="sans-serif" font-size="12" lengthAdjust="spacingAndGlyphs" textLength="92" x="525.25" y="277.6543">BaseException</text><line style="stroke: #A80036; stroke-width: 1.5;" x1="478" x2="635" y1="289.5" y2="289.5"/><line style="stroke: #A80036; stroke-width: 1.5;" x1="478" x2="635" y1="297.5" y2="297.5"/><ellipse cx="488" cy="309.4023" fill="#84BE84" rx="3" ry="3" style="stroke: #038048; stroke-width: 1.0;"/><text fill="#000000" font-family="sans-serif" font-size="11" lengthAdjust="spacingAndGlyphs" textLength="133" x="497" y="311.7104">void constructor(string)</text><!--class Error--><rect fill="#FEFECE" filter="url(#fz8hmch)" height="48" style="stroke: #A80036; stroke-width: 1.5;" width="63" x="525" y="404"/><ellipse cx="540" cy="420" fill="#ADD1B2" rx="11" ry="11" style="stroke: #A80036; stroke-width: 1.0;"/><path d="M542.9688,425.6406 Q542.3906,425.9375 541.75,426.0859 Q541.1094,426.2344 540.4063,426.2344 Q537.9063,426.2344 536.5859,424.5859 Q535.2656,422.9375 535.2656,419.8125 Q535.2656,416.6875 536.5859,415.0313 Q537.9063,413.375 540.4063,413.375 Q541.1094,413.375 541.7578,413.5313 Q542.4063,413.6875 542.9688,413.9844 L542.9688,416.7031 Q542.3438,416.125 541.75,415.8516 Q541.1563,415.5781 540.5313,415.5781 Q539.1875,415.5781 538.5,416.6484 Q537.8125,417.7188 537.8125,419.8125 Q537.8125,421.9063 538.5,422.9766 Q539.1875,424.0469 540.5313,424.0469 Q541.1563,424.0469 541.75,423.7734 Q542.3438,423.5 542.9688,422.9219 L542.9688,425.6406 Z "/><text fill="#000000" font-family="sans-serif" font-size="12" lengthAdjust="spacingAndGlyphs" textLength="31" x="554" y="424.1543">Error</text><line style="stroke: #A80036; stroke-width: 1.5;" x1="526" x2="587" y1="436" y2="436"/><line style="stroke: #A80036; stroke-width: 1.5;" x1="526" x2="587" y1="444" y2="444"/><!--class SecurityException--><rect fill="#FEFECE" filter="url(#fz8hmch)" height="60.8047" style="stroke: #A80036; stroke-width: 1.5;" width="159" x="477" y="59.5"/><ellipse cx="499.2" cy="75.5" fill="#ADD1B2" rx="11" ry="11" style="stroke: #A80036; stroke-width: 1.0;"/><path d="M502.1688,81.1406 Q501.5906,81.4375 500.95,81.5859 Q500.3094,81.7344 499.6063,81.7344 Q497.1063,81.7344 495.7859,80.0859 Q494.4656,78.4375 494.4656,75.3125 Q494.4656,72.1875 495.7859,70.5313 Q497.1063,68.875 499.6063,68.875 Q500.3094,68.875 500.9578,69.0313 Q501.6063,69.1875 502.1688,69.4844 L502.1688,72.2031 Q501.5438,71.625 500.95,71.3516 Q500.3563,71.0781 499.7313,71.0781 Q498.3875,71.0781 497.7,72.1484 Q497.0125,73.2188 497.0125,75.3125 Q497.0125,77.4063 497.7,78.4766 Q498.3875,79.5469 499.7313,79.5469 Q500.3563,79.5469 500.95,79.2734 Q501.5438,79 502.1688,78.4219 L502.1688,81.1406 Z "/><text fill="#000000" font-family="sans-serif" font-size="12" lengthAdjust="spacingAndGlyphs" textLength="111" x="514.8" y="79.6543">SecurityException</text><line style="stroke: #A80036; stroke-width: 1.5;" x1="478" x2="635" y1="91.5" y2="91.5"/><line style="stroke: #A80036; stroke-width: 1.5;" x1="478" x2="635" y1="99.5" y2="99.5"/><ellipse cx="488" cy="111.4023" fill="#84BE84" rx="3" ry="3" style="stroke: #038048; stroke-width: 1.0;"/><text fill="#000000" font-family="sans-serif" font-size="11" lengthAdjust="spacingAndGlyphs" textLength="133" x="497" y="113.7104">void constructor(string)</text><!--class globalize--><rect fill="#FEFECE" filter="url(#fz8hmch)" height="48" style="stroke: #A80036; stroke-width: 1.5;" width="86" x="355.25" y="66"/><ellipse cx="370.25" cy="82" fill="#DA70D6" rx="11" ry="11" style="stroke: #A80036; stroke-width: 1.0;"/><path d="M370.0469,77.6719 L370.0469,81.2969 L371.0469,81.2969 Q372.25,81.2969 372.7344,80.8906 Q373.2188,80.4844 373.2188,79.4844 Q373.2188,78.4844 372.7344,78.0781 Q372.25,77.6719 371.0469,77.6719 L370.0469,77.6719 Z M367.5938,75.6094 L370.9531,75.6094 Q373.5156,75.6094 374.6406,76.5234 Q375.7656,77.4375 375.7656,79.4844 Q375.7656,81.5313 374.6406,82.4453 Q373.5156,83.3594 370.9531,83.3594 L370.0469,83.3594 L370.0469,88 L367.5938,88 L367.5938,75.6094 Z "/><text fill="#000000" font-family="sans-serif" font-size="12" lengthAdjust="spacingAndGlyphs" textLength="54" x="384.25" y="86.1543">globalize</text><line style="stroke: #A80036; stroke-width: 1.5;" x1="356.25" x2="440.25" y1="98" y2="98"/><line style="stroke: #A80036; stroke-width: 1.5;" x1="356.25" x2="440.25" y1="106" y2="106"/><!--class Util--><rect fill="#FEFECE" filter="url(#fz8hmch)" height="112.0234" style="stroke: #A80036; stroke-width: 1.5;" width="391" x="6" y="232"/><ellipse cx="187.25" cy="248" fill="#ADD1B2" rx="11" ry="11" style="stroke: #A80036; stroke-width: 1.0;"/><path d="M190.2188,253.6406 Q189.6406,253.9375 189,254.0859 Q188.3594,254.2344 187.6563,254.2344 Q185.1563,254.2344 183.8359,252.5859 Q182.5156,250.9375 182.5156,247.8125 Q182.5156,244.6875 183.8359,243.0313 Q185.1563,241.375 187.6563,241.375 Q188.3594,241.375 189.0078,241.5313 Q189.6563,241.6875 190.2188,241.9844 L190.2188,244.7031 Q189.5938,244.125 189,243.8516 Q188.4063,243.5781 187.7813,243.5781 Q186.4375,243.5781 185.75,244.6484 Q185.0625,245.7188 185.0625,247.8125 Q185.0625,249.9063 185.75,250.9766 Q186.4375,252.0469 187.7813,252.0469 Q188.4063,252.0469 189,251.7734 Q189.5938,251.5 190.2188,250.9219 L190.2188,253.6406 Z "/><text fill="#000000" font-family="sans-serif" font-size="12" lengthAdjust="spacingAndGlyphs" textLength="20" x="207.75" y="252.1543">Util</text><line style="stroke: #A80036; stroke-width: 1.5;" x1="7" x2="396" y1="264" y2="264"/><line style="stroke: #A80036; stroke-width: 1.5;" x1="7" x2="396" y1="272" y2="272"/><ellipse cx="17" cy="283.9023" fill="#84BE84" rx="3" ry="3" style="stroke: #038048; stroke-width: 1.0;"/><text fill="#000000" font-family="sans-serif" font-size="11" lengthAdjust="spacingAndGlyphs" textLength="203" x="26" y="286.2104">void securityCheck(SecurityContext)</text><ellipse cx="17" cy="296.707" fill="#84BE84" rx="3" ry="3" style="stroke: #038048; stroke-width: 1.0;"/><text fill="#000000" font-family="sans-serif" font-size="11" lengthAdjust="spacingAndGlyphs" textLength="323" x="26" y="299.0151">Promise queryChainCode(SecurityContext,string,string[])</text><ellipse cx="17" cy="309.5117" fill="#84BE84" rx="3" ry="3" style="stroke: #038048; stroke-width: 1.0;"/><text fill="#000000" font-family="sans-serif" font-size="11" lengthAdjust="spacingAndGlyphs" textLength="327" x="26" y="311.8198">Promise invokeChainCode(SecurityContext,string,string[])</text><ellipse cx="17" cy="322.3164" fill="#84BE84" rx="3" ry="3" style="stroke: #038048; stroke-width: 1.0;"/><text fill="#000000" font-family="sans-serif" font-size="11" lengthAdjust="spacingAndGlyphs" textLength="102" x="26" y="324.6245">void isNull(Object)</text><ellipse cx="17" cy="335.1211" fill="#84BE84" rx="3" ry="3" style="stroke: #038048; stroke-width: 1.0;"/><text fill="#000000" font-family="sans-serif" font-size="11" lengthAdjust="spacingAndGlyphs" textLength="365" x="26" y="337.4292">Promise deployChainCode(SecurityContext,string,string,string[])</text><path d="M556.25,318.604 C556.25,337.531 556.25,362.4056 556.25,383.5515 " fill="none" style="stroke: #A80036; stroke-width: 1.0;"/><polygon fill="none" points="563.25,383.8327,556.25,403.8326,549.25,383.8326,563.25,383.8327" style="stroke: #A80036; stroke-width: 1.0;"/><path d="M556.25,120.768 C556.25,151.653 556.25,200.487 556.25,237.25 " fill="none" style="stroke: #A80036; stroke-width: 1.0;"/><polygon fill="none" points="563.25,237.273,556.25,257.273,549.25,237.273,563.25,237.273" style="stroke: #A80036; stroke-width: 1.0;"/></g></svg>