<?xml version="1.0" encoding="UTF-8" standalone="no"?><svg xmlns="http://www.w3.org/2000/svg" xmlns:xlink="http://www.w3.org/1999/xlink" contentScriptType="application/ecmascript" contentStyleType="text/css" height="525px" preserveAspectRatio="none" style="width:441px;height:525px;" version="1.1" viewBox="0 0 441 525" width="441px" zoomAndPan="magnify"><defs><filter height="300%" id="f2yay8j" width="300%" x="-1" y="-1"><feGaussianBlur result="blurOut" stdDeviation="2.0"/><feColorMatrix in="blurOut" result="blurOut2" type="matrix" values="0 0 0 0 0 0 0 0 0 0 0 0 0 0 0 0 0 0 .4 0"/><feOffset dx="4.0" dy="4.0" in="blurOut2" result="blurOut3"/><feBlend in="SourceGraphic" in2="blurOut3" mode="normal"/></filter></defs><g><!--class Identifiable--><rect fill="#FEFECE" filter="url(#f2yay8j)" height="176.0469" style="stroke: #A80036; stroke-width: 1.5;" width="319" x="59.25" y="340"/><ellipse cx="180" cy="356" fill="#ADD1B2" rx="11" ry="11" style="stroke: #A80036; stroke-width: 1.0;"/><path d="M182.9688,361.6406 Q182.3906,361.9375 181.75,362.0859 Q181.1094,362.2344 180.4063,362.2344 Q177.9063,362.2344 176.5859,360.5859 Q175.2656,358.9375 175.2656,355.8125 Q175.2656,352.6875 176.5859,351.0313 Q177.9063,349.375 180.4063,349.375 Q181.1094,349.375 181.7578,349.5313 Q182.4063,349.6875 182.9688,349.9844 L182.9688,352.7031 Q182.3438,352.125 181.75,351.8516 Q181.1563,351.5781 180.5313,351.5781 Q179.1875,351.5781 178.5,352.6484 Q177.8125,353.7188 177.8125,355.8125 Q177.8125,357.9063 178.5,358.9766 Q179.1875,360.0469 180.5313,360.0469 Q181.1563,360.0469 181.75,359.7734 Q182.3438,359.5 182.9688,358.9219 L182.9688,361.6406 Z "/><text fill="#000000" font-family="sans-serif" font-size="12" lengthAdjust="spacingAndGlyphs" textLength="69" x="200.5" y="360.1543">Identifiable</text><line style="stroke: #A80036; stroke-width: 1.5;" x1="60.25" x2="377.25" y1="372" y2="372"/><line style="stroke: #A80036; stroke-width: 1.5;" x1="60.25" x2="377.25" y1="380" y2="380"/><rect fill="#F24D5C" height="6" style="stroke: #C82930; stroke-width: 1.0;" width="6" x="67.25" y="388.9023"/><text fill="#000000" font-family="sans-serif" font-size="11" lengthAdjust="spacingAndGlyphs" textLength="293" x="79.25" y="394.2104">void constructor(ModelManager,string,string,string)</text><rect fill="#F24D5C" height="6" style="stroke: #C82930; stroke-width: 1.0;" width="6" x="67.25" y="401.707"/><text fill="#000000" font-family="sans-serif" font-size="11" lengthAdjust="spacingAndGlyphs" textLength="161" x="79.25" y="407.0151">Object accept(Object,Object)</text><rect fill="#F24D5C" height="6" style="stroke: #C82930; stroke-width: 1.0;" width="6" x="67.25" y="414.5117"/><text fill="#000000" font-family="sans-serif" font-size="11" lengthAdjust="spacingAndGlyphs" textLength="194" x="79.25" y="419.8198">ModelManager getModelManager()</text><ellipse cx="70.25" cy="430.3164" fill="#84BE84" rx="3" ry="3" style="stroke: #038048; stroke-width: 1.0;"/><text fill="#000000" font-family="sans-serif" font-size="11" lengthAdjust="spacingAndGlyphs" textLength="113" x="79.25" y="432.6245">string getIdentifier()</text><ellipse cx="70.25" cy="443.1211" fill="#84BE84" rx="3" ry="3" style="stroke: #038048; stroke-width: 1.0;"/><text fill="#000000" font-family="sans-serif" font-size="11" lengthAdjust="spacingAndGlyphs" textLength="188" x="79.25" y="445.4292">string getFullyQualifiedIdentifier()</text><ellipse cx="70.25" cy="455.9258" fill="#84BE84" rx="3" ry="3" style="stroke: #038048; stroke-width: 1.0;"/><text fill="#000000" font-family="sans-serif" font-size="11" lengthAdjust="spacingAndGlyphs" textLength="90" x="79.25" y="458.2339">string getType()</text><ellipse cx="70.25" cy="468.7305" fill="#84BE84" rx="3" ry="3" style="stroke: #038048; stroke-width: 1.0;"/><text fill="#000000" font-family="sans-serif" font-size="11" lengthAdjust="spacingAndGlyphs" textLength="165" x="79.25" y="471.0386">string getFullyQualifiedType()</text><ellipse cx="70.25" cy="481.5352" fill="#84BE84" rx="3" ry="3" style="stroke: #038048; stroke-width: 1.0;"/><text fill="#000000" font-family="sans-serif" font-size="11" lengthAdjust="spacingAndGlyphs" textLength="130" x="79.25" y="483.8433">string getNamespace()</text><ellipse cx="70.25" cy="494.3398" fill="#84BE84" rx="3" ry="3" style="stroke: #038048; stroke-width: 1.0;"/><text fill="#000000" font-family="sans-serif" font-size="11" lengthAdjust="spacingAndGlyphs" textLength="91" x="79.25" y="496.6479">String toString()</text><rect fill="#F24D5C" height="6" style="stroke: #C82930; stroke-width: 1.0;" width="6" x="67.25" y="504.1445"/><text fill="#000000" font-family="sans-serif" font-size="11" lengthAdjust="spacingAndGlyphs" textLength="191" x="79.25" y="509.4526">boolean isSystemProperty(string)</text><!--class Resource--><rect fill="#FEFECE" filter="url(#f2yay8j)" height="112.0234" style="stroke: #A80036; stroke-width: 1.5;" width="319" x="59.25" y="168"/><ellipse cx="185" cy="184" fill="#ADD1B2" rx="11" ry="11" style="stroke: #A80036; stroke-width: 1.0;"/><path d="M187.9688,189.6406 Q187.3906,189.9375 186.75,190.0859 Q186.1094,190.2344 185.4063,190.2344 Q182.9063,190.2344 181.5859,188.5859 Q180.2656,186.9375 180.2656,183.8125 Q180.2656,180.6875 181.5859,179.0313 Q182.9063,177.375 185.4063,177.375 Q186.1094,177.375 186.7578,177.5313 Q187.4063,177.6875 187.9688,177.9844 L187.9688,180.7031 Q187.3438,180.125 186.75,179.8516 Q186.1563,179.5781 185.5313,179.5781 Q184.1875,179.5781 183.5,180.6484 Q182.8125,181.7188 182.8125,183.8125 Q182.8125,185.9063 183.5,186.9766 Q184.1875,188.0469 185.5313,188.0469 Q186.1563,188.0469 186.75,187.7734 Q187.3438,187.5 187.9688,186.9219 L187.9688,189.6406 Z "/><text fill="#000000" font-family="sans-serif" font-size="12" lengthAdjust="spacingAndGlyphs" textLength="59" x="205.5" y="188.1543">Resource</text><line style="stroke: #A80036; stroke-width: 1.5;" x1="60.25" x2="377.25" y1="200" y2="200"/><line style="stroke: #A80036; stroke-width: 1.5;" x1="60.25" x2="377.25" y1="208" y2="208"/><rect fill="#F24D5C" height="6" style="stroke: #C82930; stroke-width: 1.0;" width="6" x="67.25" y="216.9023"/><text fill="#000000" font-family="sans-serif" font-size="11" lengthAdjust="spacingAndGlyphs" textLength="293" x="79.25" y="222.2104">void constructor(ModelManager,string,string,string)</text><ellipse cx="70.25" cy="232.707" fill="#84BE84" rx="3" ry="3" style="stroke: #038048; stroke-width: 1.0;"/><text fill="#000000" font-family="sans-serif" font-size="11" lengthAdjust="spacingAndGlyphs" textLength="202" x="79.25" y="235.0151">void setPropertyValue(string,string)</text><ellipse cx="70.25" cy="245.5117" fill="#84BE84" rx="3" ry="3" style="stroke: #038048; stroke-width: 1.0;"/><text fill="#000000" font-family="sans-serif" font-size="11" lengthAdjust="spacingAndGlyphs" textLength="187" x="79.25" y="247.8198">void addArrayValue(string,string)</text><rect fill="#F24D5C" height="6" style="stroke: #C82930; stroke-width: 1.0;" width="6" x="67.25" y="255.3164"/><text fill="#000000" font-family="sans-serif" font-size="11" lengthAdjust="spacingAndGlyphs" textLength="146" x="79.25" y="260.6245">void assignFieldDefaults()</text><rect fill="#F24D5C" height="6" style="stroke: #C82930; stroke-width: 1.0;" width="6" x="67.25" y="268.1211"/><text fill="#000000" font-family="sans-serif" font-size="11" lengthAdjust="spacingAndGlyphs" textLength="222" x="79.25" y="273.4292">ClassDeclaration getClassDeclaration()</text><!--class ValidatedResource--><rect fill="#FEFECE" filter="url(#f2yay8j)" height="99.2188" style="stroke: #A80036; stroke-width: 1.5;" width="426" x="6" y="8.5"/><ellipse cx="155.75" cy="24.5" fill="#ADD1B2" rx="11" ry="11" style="stroke: #A80036; stroke-width: 1.0;"/><path d="M158.7188,30.1406 Q158.1406,30.4375 157.5,30.5859 Q156.8594,30.7344 156.1563,30.7344 Q153.6563,30.7344 152.3359,29.0859 Q151.0156,27.4375 151.0156,24.3125 Q151.0156,21.1875 152.3359,19.5313 Q153.6563,17.875 156.1563,17.875 Q156.8594,17.875 157.5078,18.0313 Q158.1563,18.1875 158.7188,18.4844 L158.7188,21.2031 Q158.0938,20.625 157.5,20.3516 Q156.9063,20.0781 156.2813,20.0781 Q154.9375,20.0781 154.25,21.1484 Q153.5625,22.2188 153.5625,24.3125 Q153.5625,26.4063 154.25,27.4766 Q154.9375,28.5469 156.2813,28.5469 Q156.9063,28.5469 157.5,28.2734 Q158.0938,28 158.7188,27.4219 L158.7188,30.1406 Z "/><text fill="#000000" font-family="sans-serif" font-size="12" lengthAdjust="spacingAndGlyphs" textLength="118" x="176.25" y="28.6543">ValidatedResource</text><line style="stroke: #A80036; stroke-width: 1.5;" x1="7" x2="431" y1="40.5" y2="40.5"/><line style="stroke: #A80036; stroke-width: 1.5;" x1="7" x2="431" y1="48.5" y2="48.5"/><rect fill="#F24D5C" height="6" style="stroke: #C82930; stroke-width: 1.0;" width="6" x="14" y="57.4023"/><text fill="#000000" font-family="sans-serif" font-size="11" lengthAdjust="spacingAndGlyphs" textLength="400" x="26" y="62.7104">void constructor(ModelManager,string,string,string,ResourceValidator)</text><ellipse cx="17" cy="73.207" fill="#84BE84" rx="3" ry="3" style="stroke: #038048; stroke-width: 1.0;"/><text fill="#000000" font-family="sans-serif" font-size="11" lengthAdjust="spacingAndGlyphs" textLength="202" x="26" y="75.5151">void setPropertyValue(string,string)</text><ellipse cx="17" cy="86.0117" fill="#84BE84" rx="3" ry="3" style="stroke: #038048; stroke-width: 1.0;"/><text fill="#000000" font-family="sans-serif" font-size="11" lengthAdjust="spacingAndGlyphs" textLength="187" x="26" y="88.3198">void addArrayValue(string,string)</text><ellipse cx="17" cy="98.8164" fill="#84BE84" rx="3" ry="3" style="stroke: #038048; stroke-width: 1.0;"/><text fill="#000000" font-family="sans-serif" font-size="11" lengthAdjust="spacingAndGlyphs" textLength="79" x="26" y="101.1245">void validate()</text><path d="M218.5,280.197 C218.5,292.598 218.5,306.167 218.5,319.887 " fill="none" style="stroke: #A80036; stroke-width: 1.0;"/><polygon fill="none" points="225.5,319.978,218.5,339.978,211.5,319.978,225.5,319.978" style="stroke: #A80036; stroke-width: 1.0;"/><path d="M218.5,107.761 C218.5,120.301 218.5,134.09 218.5,147.635 " fill="none" style="stroke: #A80036; stroke-width: 1.0;"/><polygon fill="none" points="225.5,147.813,218.5,167.813,211.5,147.813,225.5,147.813" style="stroke: #A80036; stroke-width: 1.0;"/></g></svg>